M48
; DRILL file {KiCad 8.0.5} date 2024-12-06T02:00:05+0100
; FORMAT={-:-/ absolute / inch / decimal}
; #@! TF.CreationDate,2024-12-06T02:00:05+01:00
; #@! TF.GenerationSoftware,Kicad,Pcbnew,8.0.5
; #@! TF.FileFunction,Plated,1,4,PTH
FMAT,2
INCH
; #@! TA.AperFunction,Plated,PTH,ViaDrill
T1C0.0118
; #@! TA.AperFunction,Plated,PTH,ComponentDrill
T2C0.0118
; #@! TA.AperFunction,Plated,PTH,ViaDrill
T3C0.0276
; #@! TA.AperFunction,Plated,PTH,ComponentDrill
T4C0.0295
; #@! TA.AperFunction,Plated,PTH,ComponentDrill
T5C0.0315
; #@! TA.AperFunction,Plated,PTH,ComponentDrill
T6C0.0354
; #@! TA.AperFunction,Plated,PTH,ComponentDrill
T7C0.0374
; #@! TA.AperFunction,Plated,PTH,ComponentDrill
T8C0.0394
; #@! TA.AperFunction,Plated,PTH,ComponentDrill
T9C0.0402
; #@! TA.AperFunction,Plated,PTH,ComponentDrill
T10C0.0421
; #@! TA.AperFunction,Plated,PTH,ComponentDrill
T11C0.0433
; #@! TA.AperFunction,Plated,PTH,ComponentDrill
T12C0.0472
; #@! TA.AperFunction,Plated,PTH,ComponentDrill
T13C0.0500
; #@! TA.AperFunction,Plated,PTH,ComponentDrill
T14C0.0571
; #@! TA.AperFunction,Plated,PTH,ComponentDrill
T15C0.0600
%
G90
G05
T1
X1.1024Y-8.2677
X1.1108Y-8.4943
X1.1417Y-7.6181
X1.1811Y-3.937
X1.1811Y-4.3307
X1.1811Y-4.7244
X1.1811Y-5.1181
X1.1811Y-5.5118
X1.2126Y-3.7638
X1.2173Y-6.4665
X1.2173Y-6.8406
X1.2567Y-6.5059
X1.2567Y-6.8012
X1.2598Y-8.3169
X1.2764Y-6.4469
X1.2764Y-6.8602
X1.2961Y-6.5453
X1.2961Y-6.7618
X1.3157Y-6.4862
X1.3157Y-6.8209
X1.3354Y-6.5846
X1.3354Y-6.7224
X1.3551Y-6.5256
X1.3551Y-6.7815
X1.3583Y-7.6083
X1.3748Y-6.624
X1.3748Y-6.6831
X1.3937Y-7.437
X1.3945Y-6.7421
X1.4303Y-6.5378
X1.437Y-6.4665
X1.4461Y-6.7898
X1.4854Y-6.7425
X1.4961Y-6.5354
X1.5059Y-6.2106
X1.5059Y-7.4803
X1.5256Y-6.1417
X1.5945Y-6.7717
X1.6142Y-8.6319
X1.624Y-6.5256
X1.6437Y-8.7992
X1.6535Y-7.0374
X1.6535Y-7.0866
X1.6535Y-7.3228
X1.6634Y-6.5551
X1.6732Y-5.187
X1.6732Y-9.8425
X1.7028Y-6.5059
X1.7087Y-4.7165
X1.7087Y-4.9134
X1.7126Y-6.6142
X1.7126Y-6.6634
X1.7366Y-7.4661
X1.7402Y-4.0394
X1.7421Y-5.4626
X1.7421Y-8.8976
X1.752Y-6.0827
X1.752Y-6.1614
X1.7618Y-6.6142
X1.7618Y-6.6634
X1.7717Y-9.8425
X1.8154Y-7.4661
X1.8307Y-7.1752
X1.8504Y-5.5118
X1.8701Y-9.8425
X1.8787Y-7.5453
X1.8866Y-7.4429
X1.9024Y-5.2224
X1.9094Y-6.8307
X1.9094Y-6.8799
X1.9181Y-7.5059
X1.926Y-7.4035
X1.9291Y-3.6535
X1.9291Y-6.0335
X1.9291Y-6.1122
X1.9488Y-5.561
X1.9488Y-7.7067
X1.9488Y-7.8642
X1.9488Y-8.0217
X1.9488Y-8.189
X1.9488Y-8.3366
X1.9488Y-8.5925
X1.9575Y-7.4665
X1.9587Y-9.3996
X1.9657Y-7.3016
X1.9657Y-7.3646
X1.9685Y-4.7205
X1.9685Y-9.8425
X1.9783Y-4.3406
X1.9783Y-4.3898
X1.9811Y-5.2224
X1.9921Y-4.9646
X1.9969Y-7.4272
X2.0079Y-7.0965
X2.013Y-7.2543
X2.0276Y-6.3681
X2.0366Y-7.3882
X2.0394Y-4.9213
X2.052Y-6.5295
X2.0602Y-7.2071
X2.0768Y-6.1811
X2.0787Y-4.2795
X2.0835Y-6.2697
X2.0965Y-7.0965
X2.0992Y-6.3012
X2.0992Y-6.5295
X2.0996Y-7.1677
X2.0996Y-7.3882
X2.1358Y-6.9193
X2.139Y-7.3488
X2.1457Y-4.2795
X2.1457Y-4.9961
X2.1465Y-5.2224
X2.1555Y-6.9783
X2.1555Y-7.0768
X2.1574Y-6.1707
X2.1783Y-7.3094
X2.1949Y-4.9508
X2.1949Y-6.6929
X2.2047Y-6.9193
X2.2094Y-5.2224
X2.2177Y-7.2701
X2.2252Y-6.5453
X2.2343Y-9.2028
X2.2441Y-5.4626
X2.2441Y-5.6004
X2.2488Y-6.1082
X2.2571Y-7.2307
X2.2835Y-6.6929
X2.2882Y-6.5453
X2.2885Y-9.5579
X2.2933Y-5.502
X2.2933Y-6.811
X2.3039Y-7.1909
X2.3354Y-5.2224
X2.3358Y-7.1283
X2.3425Y-6.1024
X2.3571Y-5.4491
X2.372Y-6.8799
X2.3752Y-7.2071
X2.3819Y-6.378
X2.3906Y-5.2224
X2.3917Y-6.939
X2.3917Y-7.126
X2.4114Y-9.3701
X2.422Y-6.5453
X2.4311Y-5.4823
X2.4382Y-7.1283
X2.4382Y-7.1913
X2.4461Y-9.6402
X2.4508Y-6.3681
X2.485Y-6.5453
X2.4882Y-4.5945
X2.4929Y-7.128
X2.4933Y-7.1913
X2.5169Y-9.1283
X2.5248Y-4.2937
X2.5248Y-4.3567
X2.5276Y-3.6457
X2.5484Y-7.1283
X2.5484Y-7.1913
X2.5591Y-4.8622
X2.5591Y-6.3386
X2.5599Y-6.2366
X2.5689Y-5.2264
X2.5945Y-4.5709
X2.6114Y-7.1283
X2.6114Y-7.1913
X2.628Y-9.3602
X2.6665Y-7.1283
X2.6665Y-7.1913
X2.6772Y-4.3504
X2.6772Y-5.4626
X2.6772Y-5.9252
X2.687Y-4.2717
X2.687Y-5.2264
X2.7067Y-5.7382
X2.7067Y-6.063
X2.7067Y-9.7539
X2.7126Y-5.0512
X2.7126Y-6.1603
X2.7165Y-5.9449
X2.7165Y-9.5276
X2.7295Y-7.1283
X2.7295Y-7.1913
X2.7362Y-6.9073
X2.7461Y-7.4213
X2.7559Y-5.3445
X2.7846Y-7.1283
X2.7846Y-7.1913
X2.7854Y-7.4902
X2.8004Y-8.0654
X2.8248Y-5.7283
X2.8268Y-4.6969
X2.8398Y-7.1283
X2.8398Y-7.1913
X2.8445Y-5.8661
X2.8543Y-6.998
X2.8642Y-6.4173
X2.874Y-5.4724
X2.8839Y-7.9331
X2.887Y-7.8528
X2.8937Y-5.9449
X2.8937Y-6.0433
X2.8949Y-7.1283
X2.8949Y-7.1913
X2.9232Y-9.3012
X2.9291Y-5.0433
X2.9331Y-7.9626
X2.95Y-7.1283
X2.95Y-7.1913
X2.9626Y-9.7539
X2.9736Y-8.522
X2.9752Y-6.5801
X2.9882Y-4.8622
X2.9972Y-6.9787
X3.0051Y-7.1283
X3.0051Y-7.1913
X3.0217Y-6.3189
X3.0512Y-5.2067
X3.0512Y-5.876
X3.0524Y-4.278
X3.0524Y-4.3409
X3.0524Y-4.4118
X3.0524Y-7.2386
X3.0602Y-7.1283
X3.061Y-9.4685
X3.0709Y-5.3346
X3.0807Y-7.4311
X3.0906Y-5.2362
X3.1004Y-6.2795
X3.115Y-7.1752
X3.1154Y-7.2465
X3.1201Y-7.5197
X3.1228Y-5.3642
X3.1398Y-5.8071
X3.1398Y-9.2028
X3.1496Y-3.9449
X3.1622Y-5.5059
X3.1654Y-5.9882
X3.1693Y-5.1378
X3.1701Y-7.1752
X3.1705Y-7.2465
X3.1858Y-5.4744
X3.1862Y-7.9945
X3.2185Y-5.1772
X3.2244Y-4.7126
X3.2252Y-7.1752
X3.2256Y-9.0024
X3.2331Y-5.8917
X3.2413Y-7.2543
X3.2413Y-7.3961
X3.2413Y-7.4512
X3.2413Y-7.5142
X3.2413Y-7.5693
X3.2488Y-5.8524
X3.2492Y-7.9394
X3.2728Y-7.6795
X3.2776Y-5.4921
X3.2776Y-6.2008
X3.2803Y-7.1752
X3.2965Y-7.2228
X3.2965Y-7.6244
X3.2972Y-9.1437
X3.311Y-4.8898
X3.3122Y-7.2858
X3.3122Y-7.3409
X3.3122Y-7.3961
X3.3122Y-7.4512
X3.3122Y-7.5142
X3.3122Y-7.5693
X3.3465Y-5.502
X3.3563Y-5.689
X3.3661Y-4.9488
X3.3665Y-6.4425
X3.376Y-5.2559
X3.3827Y-5.5689
X3.3827Y-5.624
X3.3858Y-5.8957
X3.3906Y-6.4736
X3.3957Y-5.3445
X3.3957Y-5.8366
X3.4055Y-6.3189
X3.4142Y-6.0335
X3.4142Y-6.3957
X3.4142Y-6.6634
X3.4252Y-9.2618
X3.4299Y-6.9154
X3.4442Y-4.7597
X3.4535Y-6.3957
X3.4614Y-6.6555
X3.4614Y-6.9311
X3.5039Y-6.8701
X3.5217Y-5.0871
X3.5335Y-4.3799
X3.5394Y-3.937
X3.5433Y-4.5866
X3.563Y-5.7087
X3.5717Y-6.9154
X3.6024Y-4.6555
X3.611Y-5.3957
X3.611Y-6.4665
X3.611Y-6.9232
X3.611Y-7.1752
X3.6122Y-9.5177
X3.6319Y-4.3307
X3.6319Y-5.2264
X3.6343Y-9.0961
X3.6346Y-5.6319
X3.6504Y-5.3957
X3.6504Y-6.4823
X3.6516Y-6.1811
X3.6661Y-7.1752
X3.6713Y-5.2953
X3.674Y-5.624
X3.6811Y-6.0827
X3.6894Y-9.0409
X3.6972Y-9.1512
X3.698Y-7.5142
X3.7205Y-5.0295
X3.7213Y-7.1752
X3.7402Y-7.628
X3.7445Y-8.9858
X3.7445Y-9.1039
X3.748Y-7.2677
X3.75Y-5.7185
X3.7531Y-7.4984
X3.7764Y-7.1752
X3.7795Y-9.2224
X3.7795Y-9.3996
X3.7825Y-7.7566
X3.7894Y-6.2008
X3.7894Y-6.4469
X3.7894Y-6.4961
X3.7917Y-9.0567
X3.7992Y-6.7028
X3.7996Y-8.9307
X3.8189Y-5.7185
X3.8189Y-6.1614
X3.8287Y-6.6634
X3.8315Y-7.1752
X3.8319Y-7.4669
X3.8386Y-6.7815
X3.8386Y-6.8701
X3.8469Y-9.0016
X3.8484Y-6.9882
X3.8583Y-7.5197
X3.8626Y-8.8677
X3.8681Y-5.8661
X3.8681Y-5.9646
X3.8866Y-7.1752
X3.8941Y-8.9543
X3.8976Y-4.872
X3.9075Y-4.3504
X3.9173Y-5.3543
X3.9173Y-5.6693
X3.9272Y-7.3622
X3.9339Y-5.5217
X3.937Y-5.1772
X3.9413Y-8.8677
X3.9417Y-5.4823
X3.9417Y-7.1752
X3.9665Y-9.5177
X3.9728Y-8.9543
X3.9862Y-6.378
X3.9862Y-6.4862
X3.9862Y-7.7756
X3.9961Y-4.9606
X3.9969Y-7.1752
X4.0201Y-8.8677
X4.0255Y-4.7519
X4.0256Y-4.3504
X4.0287Y-8.0181
X4.0354Y-6.0138
X4.0354Y-7.5394
X4.0516Y-8.9543
X4.052Y-7.1752
X4.065Y-5.374
X4.0669Y-5.5
X4.0748Y-5.9154
X4.0846Y-6.3878
X4.0945Y-6.5059
X4.0988Y-8.8677
X4.1041Y-9.5055
X4.1043Y-6.9094
X4.1071Y-7.1752
X4.1139Y-7.3662
X4.1142Y-7.0276
X4.1303Y-8.9543
X4.1339Y-6.6339
X4.1535Y-7.5394
X4.1618Y-7.1748
X4.1732Y-6.1732
X4.1776Y-8.8677
X4.1941Y-7.1362
X4.2091Y-8.9543
X4.2098Y-6.2386
X4.2169Y-7.1748
X4.2323Y-8.2972
X4.2563Y-8.8677
X4.2571Y-6.6244
X4.272Y-7.1748
X4.2728Y-6.2701
X4.2815Y-6.5059
X4.2878Y-8.9543
X4.2913Y-5.9154
X4.2913Y-5.9646
X4.2913Y-6.0728
X4.2913Y-6.122
X4.2913Y-6.1516
X4.3283Y-7.176
X4.3307Y-7.8051
X4.335Y-8.8677
X4.3504Y-8.4646
X4.3533Y-7.9665
X4.3644Y-9.5078
X4.3665Y-8.9543
X4.3701Y-6.4862
X4.3835Y-7.176
X4.4138Y-8.8677
X4.4291Y-9.5079
X4.4386Y-7.176
X4.4453Y-8.9543
X4.4648Y-6.7096
X4.4768Y-9.2299
X4.4783Y-6.8799
X4.4805Y-6.6624
X4.4925Y-8.8677
X4.4937Y-7.176
X4.5079Y-5.876
X4.5177Y-5.8291
X4.524Y-8.9543
X4.5276Y-6.122
X4.5276Y-6.1614
X4.5472Y-5.4528
X4.5472Y-7.8346
X4.5488Y-7.176
X4.5571Y-5.0984
X4.5634Y-9.2299
X4.5669Y-5.9941
X4.5713Y-8.8677
X4.5767Y-6.1633
X4.5768Y-6.122
X4.5866Y-5.9449
X4.6039Y-7.176
X4.626Y-6.122
X4.626Y-6.1614
X4.626Y-8.6713
X4.6429Y-6.5693
X4.6591Y-7.176
X4.6654Y-6.0689
X4.6654Y-6.1319
X4.6752Y-8.5433
X4.6949Y-5.8366
X4.7051Y-9.2299
X4.7142Y-7.176
X4.7209Y-8.1984
X4.7217Y-6.0024
X4.7217Y-6.1835
X4.7217Y-6.2386
X4.7217Y-6.2937
X4.7217Y-6.3488
X4.7217Y-6.5693
X4.7217Y-6.6244
X4.7217Y-6.6795
X4.7217Y-6.7346
X4.7244Y-5.9547
X4.7524Y-8.9228
X4.7609Y-8.0395
X4.7681Y-8.2535
X4.7681Y-8.3323
X4.7681Y-8.411
X4.7693Y-7.176
X4.7736Y-5.8661
X4.7835Y-5.9744
X4.7917Y-9.2299
X4.7996Y-9.3953
X4.7996Y-9.4661
X4.8075Y-8.1354
X4.813Y-6.8799
X4.8154Y-9.0646
X4.8228Y-6.5256
X4.8244Y-7.176
X4.8425Y-5.876
X4.8476Y-6.278
X4.8547Y-8.1906
X4.8622Y-5.8268
X4.8622Y-7.3917
X4.8705Y-8.2535
X4.8705Y-8.3323
X4.8712Y-8.4017
X4.8713Y-6.7661
X4.8791Y-7.1756
X4.8841Y-6.215
X4.8869Y-7.7009
X4.8917Y-8.7106
X4.8948Y-8.0946
X4.8998Y-6.2622
X4.9185Y-6.7819
X4.9199Y-5.922
X4.9311Y-5.7579
X4.9343Y-7.1756
X4.9803Y-5.7874
X4.9894Y-7.1756
X4.9902Y-5.6693
X5.0Y-5.6299
X5.0043Y-8.4031
X5.0098Y-6.8799
X5.0358Y-8.9858
X5.0394Y-6.4862
X5.0433Y-4.7165
X5.0445Y-7.1756
X5.0594Y-9.4268
X5.0673Y-9.1433
X5.0673Y-9.2693
X5.0689Y-8.3071
X5.0703Y-5.4982
X5.0787Y-4.6772
X5.0839Y-7.1362
X5.1083Y-5.8858
X5.1232Y-7.0969
X5.128Y-6.6732
X5.128Y-7.3917
X5.1378Y-5.8563
X5.1461Y-9.4268
X5.1626Y-7.0575
X5.1654Y-7.1535
X5.1705Y-6.4748
X5.1772Y-8.4843
X5.191Y-5.5108
X5.1911Y-6.8764
X5.1941Y-6.5063
X5.1969Y-5.689
X5.1969Y-5.7972
X5.1969Y-5.9252
X5.1969Y-5.9646
X5.1969Y-6.1319
X5.1969Y-6.1811
X5.2165Y-5.2657
X5.2205Y-4.5827
X5.246Y-6.1821
X5.2461Y-5.9252
X5.2461Y-5.9646
X5.2461Y-6.1319
X5.252Y-3.8583
X5.2631Y-7.2278
X5.2642Y-9.0409
X5.265Y-4.585
X5.2657Y-7.1063
X5.2806Y-7.882
X5.2854Y-8.376
X5.2953Y-6.1319
X5.2953Y-6.1811
X5.3051Y-4.0945
X5.3201Y-4.5929
X5.3201Y-4.6402
X5.3346Y-6.7421
X5.3515Y-8.0395
X5.3543Y-5.8465
X5.3543Y-8.7402
X5.374Y-3.1142
X5.3898Y-3.0709
X5.3937Y-6.5748
X5.3937Y-8.7598
X5.4035Y-6.8012
X5.4134Y-6.9587
X5.4223Y-7.8186
X5.4232Y-7.3917
X5.4515Y-9.4371
X5.4528Y-7.2146
X5.4618Y-5.6795
X5.4618Y-5.7425
X5.4618Y-5.8134
X5.4618Y-5.8685
X5.4618Y-5.9315
X5.4618Y-6.0024
X5.4618Y-6.0654
X5.4618Y-6.1283
X5.4618Y-6.1835
X5.4618Y-6.2386
X5.4618Y-6.2937
X5.4618Y-6.3488
X5.4724Y-9.2618
X5.4823Y-8.9961
X5.4921Y-6.6929
X5.5118Y-4.8228
X5.5118Y-9.311
X5.5315Y-8.9272
X5.5327Y-9.7268
X5.5406Y-5.6795
X5.5406Y-5.7425
X5.5406Y-5.8134
X5.5406Y-5.8685
X5.5406Y-5.9315
X5.5406Y-6.0024
X5.5406Y-6.0654
X5.5406Y-6.1283
X5.5406Y-6.1835
X5.5406Y-6.2386
X5.5406Y-6.2937
X5.5406Y-6.3488
X5.5406Y-6.4039
X5.5406Y-6.4591
X5.5406Y-6.5142
X5.5406Y-6.5693
X5.5413Y-7.1161
X5.5512Y-9.4882
X5.5807Y-4.0945
X5.6004Y-6.7717
X5.6004Y-8.1004
X5.6102Y-9.1043
X5.6201Y-8.75
X5.6398Y-7.0177
X5.6535Y-3.0866
X5.6575Y-3.0512
X5.6791Y-7.9035
X5.6852Y-9.104
X5.7087Y-3.9291
X5.7185Y-8.6319
X5.748Y-8.4154
X5.7579Y-6.9094
X5.8071Y-8.5728
X5.8071Y-9.2126
X5.8169Y-6.0433
X5.8228Y-2.9449
X5.8268Y-9.3307
X5.8307Y-2.9016
X5.8366Y-7.3917
X5.8407Y-8.2811
X5.8465Y-4.2028
X5.8465Y-8.1201
X5.8555Y-6.4039
X5.8563Y-6.811
X5.8858Y-7.0965
X5.9055Y-7.2835
X5.9055Y-7.9035
X5.9154Y-8.4547
X5.9154Y-9.4783
X5.9252Y-9.6555
X5.9547Y-8.9075
X5.9657Y-6.4039
X5.9744Y-8.1201
X6.0Y-2.8268
X6.0039Y-6.0531
X6.0157Y-2.7795
X6.0335Y-8.3268
X6.0433Y-7.6083
X6.0531Y-8.5531
X6.0531Y-8.622
X6.063Y-8.7795
X6.063Y-9.2028
X6.0728Y-4.2126
X6.0827Y-9.1339
X6.1024Y-7.4803
X6.1154Y-5.5512
X6.1713Y-6.063
X6.1713Y-7.0079
X6.1713Y-8.7795
X6.1811Y-7.3425
X6.1909Y-8.9075
X6.2106Y-9.6555
X6.2205Y-6.6634
X6.2303Y-8.2776
X6.2303Y-8.4252
X6.2476Y-4.2099
X6.2598Y-3.9173
X6.3091Y-6.5354
X6.3091Y-9.6457
X6.3201Y-8.4118
X6.3287Y-4.9114
X6.3287Y-9.1929
X6.3484Y-8.9075
X6.3583Y-6.6535
X6.378Y-9.1339
X6.4173Y-5.5512
X6.4272Y-4.124
X6.4272Y-4.2224
X6.4567Y-9.1142
X6.4665Y-4.7441
X6.4961Y-3.9173
X6.5059Y-6.5354
X6.5157Y-9.2126
X6.5354Y-4.1929
X6.5472Y-8.5039
X6.5476Y-8.8835
X6.5551Y-7.4134
X6.5555Y-8.8362
X6.565Y-7.0866
X6.5878Y-9.5614
X6.5878Y-9.5929
X6.5945Y-2.1654
X6.6142Y-9.1732
X6.624Y-9.0551
X6.6339Y-4.7441
X6.6383Y-4.1357
X6.6535Y-4.2618
X6.6929Y-2.1654
X6.6929Y-4.6752
X6.7028Y-6.8012
X6.7028Y-9.1043
X6.7126Y-4.1929
X6.7126Y-6.9291
X6.7217Y-9.026
X6.7402Y-6.5669
X6.7531Y-8.8921
X6.7815Y-5.1181
X6.7913Y-2.1654
X6.7913Y-5.7382
X6.811Y-4.6752
X6.811Y-5.9449
X6.811Y-7.6083
X6.8406Y-8.878
X6.8701Y-3.9764
X6.8701Y-5.0394
X6.8701Y-6.624
X6.8898Y-2.1654
X6.939Y-6.7126
X6.939Y-8.878
X6.9587Y-6.9094
X6.9602Y-7.9307
X6.9882Y-2.1654
X6.9882Y-9.252
X6.9996Y-8.6328
X7.0079Y-8.3169
X7.0276Y-4.1142
X7.0472Y-4.7441
X7.0571Y-8.4252
X7.0571Y-9.4488
X7.0656Y-8.0394
X7.0669Y-7.7264
X7.0768Y-8.75
X7.0866Y-2.1654
X7.0866Y-3.3465
X7.0866Y-3.5433
X7.0866Y-5.8661
X7.0866Y-6.3091
X7.0866Y-6.378
X7.0965Y-7.1949
X7.0965Y-8.563
X7.1063Y-7.0177
X7.1063Y-8.9961
X7.126Y-6.9193
X7.1358Y-7.9035
X7.1555Y-4.9213
X7.1752Y-8.2874
X7.1752Y-9.1142
X7.185Y-3.3465
X7.185Y-3.5433
X7.185Y-4.8228
X7.185Y-5.4035
X7.185Y-9.3504
X7.2047Y-4.2362
X7.2047Y-4.7441
X7.2146Y-9.0157
X7.2343Y-4.1732
X7.2343Y-5.0394
X7.2736Y-4.8228
X7.2736Y-6.8209
X7.2835Y-3.3465
X7.2835Y-3.5433
X7.3031Y-5.6594
X7.3119Y-6.2778
X7.3228Y-7.4094
X7.3382Y-8.7969
X7.3524Y-4.3307
X7.3539Y-7.3402
X7.3539Y-8.8598
X7.3622Y-8.5138
X7.3622Y-8.5827
X7.3701Y-2.9055
X7.372Y-4.0256
X7.372Y-4.8524
X7.372Y-4.9114
X7.3819Y-3.3465
X7.3819Y-3.5433
X7.3819Y-6.6929
X7.3819Y-9.7736
X7.4114Y-4.9114
X7.4114Y-8.2677
X7.4173Y-2.874
X7.4213Y-8.4252
X7.4311Y-8.3169
X7.4311Y-8.5728
X7.4409Y-4.8524
X7.4508Y-8.4547
X7.4601Y-5.2874
X7.4606Y-4.1142
X7.4803Y-3.3465
X7.4803Y-3.5433
X7.4803Y-9.7736
X7.4902Y-4.8524
X7.4961Y-4.9252
X7.5Y-6.9291
X7.531Y-4.9239
X7.5315Y-4.2441
X7.5591Y-3.6417
X7.5591Y-3.8287
X7.5591Y-8.3169
X7.5625Y-5.0735
X7.5787Y-3.3465
X7.5787Y-3.5433
X7.5787Y-4.872
X7.5787Y-9.7736
X7.5866Y-7.4173
X7.587Y-9.0724
X7.5886Y-5.502
X7.5984Y-4.3209
X7.6138Y-8.7969
X7.6181Y-4.9016
X7.6181Y-5.876
X7.6181Y-8.3268
X7.622Y-5.7402
X7.6264Y-9.0961
X7.6295Y-7.4031
X7.6374Y-8.2378
X7.6374Y-8.8362
X7.6378Y-4.7835
X7.6393Y-6.9071
X7.6673Y-4.3996
X7.6772Y-5.3543
X7.6772Y-6.6929
X7.6862Y-4.8336
X7.687Y-6.2697
X7.6969Y-6.811
X7.7264Y-4.4488
X7.7559Y-5.0236
X7.7672Y-5.0656
X7.7756Y-9.0453
X7.7953Y-4.4488
X7.8031Y-4.6181
X7.8248Y-9.3307
X7.8346Y-4.6457
X7.8346Y-4.7441
X7.8445Y-8.7795
X7.8543Y-5.6496
X7.8543Y-9.0453
X7.8839Y-9.4685
X7.9018Y-7.1303
X7.903Y-8.0348
X7.9035Y-5.9744
X7.9065Y-6.3137
X7.9134Y-4.0748
X7.9134Y-6.3976
X7.9134Y-6.9882
X7.9134Y-7.7461
X7.9134Y-8.2776
X7.9134Y-8.4744
X7.9213Y-4.5787
X7.9232Y-8.5925
X7.9331Y-7.8642
X7.9429Y-5.4035
X7.9429Y-9.1732
X7.9606Y-2.4213
X7.9724Y-4.6378
X7.9823Y-4.252
X7.9843Y-2.5315
X7.9921Y-7.2933
X7.9921Y-8.7402
X8.002Y-5.8169
X8.0079Y-2.4252
X8.0151Y-2.6093
X8.0354Y-2.6496
X8.0394Y-2.5315
X8.0512Y-2.3307
X8.0669Y-2.5748
X8.0709Y-4.685
X8.0886Y-4.5453
X8.0906Y-4.7205
X8.0984Y-2.3346
X8.1004Y-4.3012
X8.1102Y-4.3701
X8.1181Y-4.5748
X8.126Y-4.5079
X8.1299Y-4.6378
X8.1398Y-5.0984
X8.1398Y-7.6083
X8.1398Y-8.8878
X8.1457Y-2.2874
X8.1575Y-4.5354
X8.1693Y-4.6457
X8.189Y-4.685
X8.248Y-5.0295
X8.248Y-5.187
X8.2677Y-5.689
X8.2677Y-9.0354
X8.2677Y-9.0846
X8.2972Y-5.9252
X8.3071Y-6.8701
X8.328Y-6.3961
X8.3366Y-5.0984
X8.3366Y-5.2854
X8.376Y-8.435
X8.4252Y-7.0669
X8.4252Y-9.4488
X8.4449Y-5.0591
X8.4646Y-8.563
X8.4724Y-6.5512
X8.4843Y-5.128
X8.4843Y-6.063
X8.4941Y-9.1732
X8.5039Y-6.1811
X8.5138Y-8.3957
X8.5138Y-8.9862
X8.5197Y-8.3031
X8.5236Y-4.252
X8.5433Y-8.061
X8.5531Y-8.1594
X8.5741Y-8.3785
X8.6024Y-4.9882
X8.6299Y-6.5787
X8.6417Y-4.9882
X8.6811Y-6.3091
X8.6942Y-4.2589
X8.7008Y-5.0591
X8.7697Y-8.435
X8.7795Y-7.6969
X8.7992Y-7.7854
X8.8091Y-8.3563
X8.8189Y-5.0591
X8.8189Y-6.4173
X8.8583Y-3.937
X8.8583Y-6.3681
X8.8583Y-9.6949
X8.8878Y-8.5827
X8.8878Y-8.7303
X8.8976Y-4.252
X8.9173Y-5.689
X8.9285Y-5.5719
X8.937Y-8.7992
X8.937Y-9.4193
X8.9567Y-3.937
X8.9567Y-9.6949
X8.9665Y-7.7165
X8.9764Y-7.9626
X8.9862Y-8.5335
X9.0256Y-8.0709
X9.0551Y-3.937
X9.0551Y-9.6949
X9.076Y-6.5063
X9.0846Y-7.7067
X9.0945Y-6.3976
X9.1043Y-8.8287
X9.1043Y-8.9272
X9.1223Y-9.4143
X9.124Y-6.3681
X9.2717Y-8.7598
X9.2795Y-6.4803
X9.3228Y-3.2441
X9.3256Y-5.6521
X9.3307Y-6.2697
X9.3406Y-5.7283
X9.3504Y-1.9685
X9.3504Y-2.1654
X9.3602Y-6.2402
X9.3701Y-9.0157
X9.374Y-3.2402
X9.3799Y-8.878
X9.3898Y-5.1181
X9.4193Y-9.0551
X9.447Y-5.0811
X9.4488Y-1.9685
X9.4488Y-2.1654
X9.4882Y-6.25
X9.4882Y-6.5256
X9.5433Y-4.9331
X9.5472Y-1.9685
X9.5472Y-2.1654
X9.5571Y-6.4567
X9.5642Y-6.4039
X9.5726Y-4.9016
X9.596Y-6.1504
X9.5965Y-6.25
X9.6063Y-5.6594
X9.6063Y-5.7579
X9.6063Y-9.0256
X9.6161Y-8.937
X9.626Y-6.5354
X9.6358Y-7.9232
X9.6654Y-7.2736
X9.6654Y-7.8248
X9.6752Y-6.4665
X9.6752Y-7.6181
X9.7244Y-3.563
X9.7441Y-3.937
X9.7638Y-6.5354
X9.7835Y-7.2736
X9.813Y-7.7657
X9.8228Y-6.4862
X9.8327Y-3.6713
X9.8425Y-5.5118
X9.9409Y-5.5118
X9.9508Y-3.7865
X9.9736Y-6.3567
X9.9736Y-6.4039
X10.0197Y-7.0472
X10.0886Y-7.1752
X10.0984Y-5.4429
X10.0984Y-5.5118
X10.1476Y-6.4567
X10.2256Y-9.2858
X10.2256Y-9.4354
X10.2262Y-6.4056
X10.2264Y-5.0689
X10.3346Y-5.4134
X10.3346Y-5.5118
X10.3346Y-7.9232
X10.3445Y-3.0807
X10.3445Y-6.2992
X10.3642Y-5.0591
X10.3937Y-3.435
X10.4134Y-4.2618
X10.4331Y-6.8898
X10.4331Y-7.9232
X10.4331Y-8.9567
X10.4724Y-6.3878
X10.5039Y-4.7598
X10.5157Y-4.7205
X10.5197Y-4.6654
X10.5315Y-3.937
X10.5315Y-6.8898
X10.5315Y-7.9232
X10.5315Y-8.9567
X10.5413Y-6.2992
X10.563Y-4.6654
X10.5694Y-6.1773
X10.5807Y-4.5571
X10.6299Y-2.9528
X10.6299Y-3.937
X10.6299Y-6.8898
X10.6299Y-7.9232
X10.6299Y-8.9567
X10.6299Y-9.252
X10.7283Y-2.9528
X10.7283Y-3.937
X10.7283Y-5.6102
X10.7283Y-6.8898
X10.7283Y-7.9232
X10.7283Y-8.9567
X10.748Y-6.4075
X10.8268Y-2.9528
X10.8268Y-4.7441
X10.8268Y-5.6102
X10.8268Y-6.8898
X10.8268Y-7.9232
X10.8268Y-8.9567
X10.8661Y-6.4075
X10.9252Y-4.626
X10.9252Y-6.8898
X10.9252Y-8.9567
X10.935Y-6.2795
X10.9449Y-3.3169
X11.0236Y-4.626
X11.0236Y-6.2795
X11.0433Y-3.7008
X11.0625Y-2.9854
X11.0925Y-1.998
X11.1197Y-4.2121
X11.122Y-4.626
X11.1319Y-3.9665
X11.1909Y-6.5256
X11.2126Y-5.5197
X11.2205Y-9.252
X11.2303Y-5.0492
X11.2598Y-6.4272
X11.3091Y-6.2894
X11.3909Y-6.4906
X11.3937Y-5.3858
X11.4164Y-2.0781
X11.4461Y-6.293
X11.4764Y-5.0394
X11.5157Y-9.8425
X11.5256Y-3.3563
X11.5257Y-2.7807
X11.5354Y-2.9724
X11.5354Y-3.1594
X11.5354Y-6.1516
X11.5354Y-6.4173
X11.6043Y-6.5354
X11.6142Y-9.8425
X11.6732Y-2.4606
X11.6847Y-6.3734
X11.7126Y-5.6102
X11.7126Y-9.8425
X11.7717Y-2.4902
X11.811Y-2.2638
X11.811Y-2.3622
X11.811Y-5.6102
X11.811Y-9.8425
X11.9094Y-2.2638
X11.9094Y-2.3622
X11.9094Y-9.8425
X11.9882Y-5.5472
X12.0079Y-2.2638
X12.0079Y-2.3622
X12.0079Y-9.8425
X12.0276Y-6.3583
X12.0512Y-6.4252
X12.0571Y-3.9173
X12.0571Y-6.2697
X12.0757Y-4.2485
X12.0866Y-5.5315
X12.1063Y-2.2638
X12.1063Y-2.3622
X12.1063Y-4.4291
X12.1063Y-4.5276
X12.1667Y-4.1047
X12.1949Y-3.6417
X12.2047Y-2.3622
X12.2047Y-4.4291
X12.2047Y-4.5276
X12.2047Y-5.4134
X12.2047Y-5.5118
X12.2058Y-3.9015
X12.2146Y-3.0413
X12.2343Y-2.2343
X12.2539Y-3.6614
X12.2638Y-3.6024
X12.2835Y-2.9724
X12.303Y-4.1323
X12.3031Y-2.7559
X12.3031Y-7.3819
X12.3031Y-7.4803
X12.3031Y-7.5787
X12.3031Y-8.2677
X12.3031Y-8.3661
X12.3031Y-8.4646
X12.3228Y-3.7106
X12.3479Y-5.0586
X12.3622Y-5.4528
X12.4508Y-5.0787
X12.5Y-6.2992
X12.5984Y-5.6102
X12.5984Y-6.2992
X12.5984Y-6.3976
X12.5984Y-6.4961
X12.5984Y-6.5945
X12.6969Y-5.6102
T2
X4.3703Y-6.0167
X4.3703Y-6.0561
X4.4096Y-6.0167
X4.4096Y-6.0561
X4.449Y-6.0167
X4.449Y-6.0561
X5.0244Y-6.0203
X5.0244Y-6.0596
X5.0638Y-6.0203
X5.0638Y-6.0596
X5.1031Y-6.0203
X5.1031Y-6.0596
T3
X8.7717Y-8.2165
X8.7874Y-7.9646
T4
X4.3287Y-9.0618
X4.3287Y-9.1118
X4.3287Y-9.1618
X4.3587Y-9.3189
X4.3587Y-9.3689
X4.3587Y-9.4189
X4.7897Y-7.8899
X4.8397Y-7.8899
X4.8897Y-7.8899
X5.0916Y-7.8241
X5.0916Y-7.8741
X5.0916Y-7.9241
T5
X1.6535Y-6.3189
X1.6535Y-6.4173
X1.6602Y-6.8012
X1.7496Y-7.5433
X1.7496Y-7.7028
X1.7496Y-7.8622
X1.7496Y-8.0217
X1.7496Y-8.1811
X1.7496Y-8.3406
X1.7587Y-6.8012
X1.7827Y-5.3327
X1.7835Y-5.128
X1.835Y-4.1827
X1.835Y-4.4827
X1.8827Y-5.3327
X1.8835Y-5.128
X1.935Y-4.1827
X1.935Y-4.4827
X1.9433Y-6.6398
X1.9465Y-6.4665
X1.9469Y-4.0669
X1.952Y-8.9213
X1.952Y-9.2213
X1.9827Y-5.3327
X1.9835Y-5.128
X2.035Y-4.1827
X2.035Y-4.4827
X2.0433Y-6.6398
X2.0453Y-4.0669
X2.0465Y-6.4665
X2.0827Y-5.3327
X2.0835Y-5.128
X2.0866Y-6.8307
X2.0943Y-5.6949
X2.1059Y-8.9299
X2.1059Y-9.2299
X2.135Y-4.1827
X2.135Y-4.4827
X2.1433Y-6.6398
X2.1465Y-6.4665
X2.1496Y-7.5433
X2.1496Y-7.7028
X2.1496Y-7.8622
X2.1496Y-8.0217
X2.1496Y-8.1811
X2.1496Y-8.3406
X2.1827Y-5.3327
X2.1835Y-5.128
X2.185Y-6.8307
X2.1927Y-5.6949
X2.2433Y-6.6398
X2.2465Y-6.4665
X2.2827Y-5.3327
X2.2835Y-5.128
X2.3433Y-6.6398
X2.3465Y-6.4665
X2.3665Y-7.324
X2.3665Y-7.624
X2.3665Y-7.8673
X2.3665Y-8.1673
X2.3665Y-8.4106
X2.3665Y-8.7106
X2.3827Y-5.3327
X2.3831Y-4.1827
X2.3831Y-4.4827
X2.3835Y-5.128
X2.4059Y-8.9299
X2.4059Y-9.2299
X2.4407Y-5.687
X2.4433Y-6.6398
X2.4465Y-6.4665
X2.4827Y-5.3327
X2.4831Y-4.1827
X2.4831Y-4.4827
X2.4835Y-5.128
X2.4862Y-4.0665
X2.4996Y-7.324
X2.4996Y-7.624
X2.4996Y-7.8673
X2.4996Y-8.1673
X2.4996Y-8.411
X2.4996Y-8.711
X2.5098Y-6.8209
X2.5098Y-6.9193
X2.5392Y-5.687
X2.5433Y-6.6398
X2.5465Y-6.4665
X2.5831Y-4.1827
X2.5831Y-4.4827
X2.5846Y-4.0665
X2.6059Y-8.9299
X2.6059Y-9.2299
X2.6433Y-6.6398
X2.6465Y-6.4665
X2.6831Y-4.1827
X2.6831Y-4.4827
X2.7996Y-7.324
X2.7996Y-7.624
X2.7996Y-7.8673
X2.7996Y-8.1673
X2.7996Y-8.411
X2.7996Y-8.711
X2.8059Y-8.9299
X2.8059Y-9.2299
X2.8476Y-4.1961
X2.8476Y-4.2961
X2.8476Y-4.3961
X2.8476Y-4.4961
X2.989Y-5.4409
X2.989Y-5.5394
X2.9996Y-7.324
X2.9996Y-7.624
X2.9996Y-7.8673
X2.9996Y-8.1673
X2.9996Y-8.411
X2.9996Y-8.711
X3.1476Y-4.1961
X3.1476Y-4.2961
X3.1476Y-4.3961
X3.1476Y-4.4961
X3.174Y-6.8744
X3.176Y-6.4728
X3.1996Y-7.324
X3.1996Y-7.624
X3.1996Y-7.8673
X3.1996Y-8.1673
X3.1996Y-8.411
X3.1996Y-8.711
X3.2724Y-6.8744
X3.2744Y-6.4728
X3.3902Y-7.324
X3.3902Y-7.624
X3.3902Y-7.8673
X3.3902Y-8.1673
X3.3902Y-8.4106
X3.3902Y-8.7106
X3.3972Y-4.189
X3.3972Y-4.489
X3.4217Y-9.0299
X3.4217Y-9.4299
X3.4972Y-4.189
X3.4972Y-4.489
X3.524Y-7.3244
X3.524Y-7.6244
X3.524Y-7.8677
X3.524Y-8.1677
X3.524Y-8.411
X3.524Y-8.711
X3.5681Y-9.222
X3.5681Y-9.411
X3.5826Y-5.9039
X3.5826Y-6.0024
X3.5972Y-4.189
X3.5972Y-4.489
X3.6972Y-4.189
X3.6972Y-4.489
X3.7134Y-6.3335
X3.7134Y-6.4335
X3.7134Y-6.5335
X3.7134Y-6.6335
X3.7134Y-6.7335
X3.7134Y-6.8335
X3.7134Y-6.9335
X3.7134Y-7.0335
X3.824Y-7.3244
X3.824Y-7.6244
X3.824Y-7.8677
X3.824Y-8.1677
X3.824Y-8.411
X3.824Y-8.711
X3.837Y-4.4803
X3.926Y-6.3319
X3.926Y-6.4319
X3.926Y-6.5319
X3.926Y-6.6319
X3.926Y-6.7319
X3.926Y-6.8319
X3.926Y-6.9319
X3.926Y-7.0319
X3.9354Y-4.4803
X3.9681Y-9.222
X3.9681Y-9.411
X4.024Y-7.3244
X4.024Y-7.6244
X4.024Y-7.8677
X4.024Y-8.1677
X4.024Y-8.411
X4.024Y-8.711
X4.224Y-7.3244
X4.224Y-7.6244
X4.224Y-7.8677
X4.224Y-8.1677
X4.224Y-8.411
X4.224Y-8.711
X4.4538Y-7.4819
X4.5452Y-8.2442
X4.5523Y-7.4819
X4.5641Y-7.6977
X4.5641Y-8.0977
X4.5745Y-9.3795
X4.5798Y-9.0646
X4.6177Y-8.4819
X4.6177Y-8.7819
X4.6729Y-9.3795
X4.6783Y-9.0646
X4.6869Y-7.7009
X4.6948Y-8.0946
X4.7177Y-8.4819
X4.7177Y-8.7819
X4.8177Y-8.4819
X4.8177Y-8.7819
X4.9146Y-8.9858
X4.9146Y-9.4268
X4.9173Y-9.1433
X4.9173Y-9.2693
X4.9177Y-8.4819
X4.9177Y-8.7819
X4.9421Y-2.5683
X4.9421Y-2.6683
X4.9421Y-2.7683
X4.9421Y-2.8683
X4.9421Y-2.9683
X4.9421Y-3.0683
X4.9421Y-3.1683
X4.9452Y-8.2442
X5.0869Y-7.7009
X5.0948Y-8.0946
X5.2173Y-9.1433
X5.2173Y-9.2693
X5.2421Y-2.5683
X5.2421Y-2.6683
X5.2421Y-2.7683
X5.2421Y-2.8683
X5.2421Y-2.9683
X5.2421Y-3.0683
X5.2421Y-3.1683
X5.2806Y-7.682
X5.2806Y-8.082
X5.3146Y-8.9858
X5.3146Y-9.4268
X5.4223Y-7.6686
X5.4223Y-7.9686
X5.4223Y-8.0942
X5.4223Y-8.3942
X5.513Y-9.1748
X5.5209Y-8.5843
X5.6154Y-8.4346
X5.6154Y-9.3323
X5.6822Y-7.6182
X5.6822Y-7.7166
X5.7096Y-5.9157
X5.7096Y-6.2157
X5.7177Y-8.1197
X5.7177Y-8.285
X5.7177Y-8.726
X5.7177Y-9.026
X5.7177Y-9.4898
X5.7177Y-9.6551
X5.8096Y-5.9157
X5.8096Y-6.2157
X5.8177Y-8.726
X5.8177Y-9.026
X5.9096Y-5.9157
X5.9096Y-6.2157
X5.913Y-9.1748
X5.9177Y-8.726
X5.9177Y-9.026
X5.9209Y-8.5843
X6.0096Y-5.9157
X6.0096Y-6.2157
X6.0154Y-8.4346
X6.0154Y-9.3323
X6.0177Y-8.726
X6.0177Y-9.026
X6.1096Y-5.9157
X6.1096Y-6.2157
X6.1177Y-8.1197
X6.1177Y-8.285
X6.1177Y-8.726
X6.1177Y-9.026
X6.1177Y-9.4898
X6.1177Y-9.6551
X6.2096Y-5.9157
X6.2096Y-6.2157
X6.2177Y-8.726
X6.2177Y-9.026
X6.3096Y-5.9157
X6.3096Y-6.2157
X6.3177Y-8.726
X6.3177Y-9.026
X6.3791Y-9.3567
X6.4096Y-5.9157
X6.4096Y-6.2157
X6.4177Y-8.726
X6.4177Y-9.026
X6.4776Y-9.3567
X6.491Y-8.3323
X6.4917Y-8.0252
X6.5591Y-6.8878
X6.5591Y-7.2878
X6.5895Y-8.3323
X6.5902Y-8.0252
X6.6343Y-7.5921
X6.6657Y-8.8835
X6.7051Y-8.6118
X6.7051Y-8.7102
X6.7051Y-9.1886
X6.7051Y-9.287
X6.7059Y-6.6685
X6.7059Y-7.0685
X6.7114Y-7.1861
X6.7114Y-7.2845
X6.7193Y-7.7767
X6.7193Y-7.8751
X6.8811Y-8.5921
X6.8811Y-8.7417
X6.8815Y-7.0227
X6.8815Y-7.1723
X6.8815Y-7.3219
X6.8827Y-7.4637
X6.8827Y-8.3031
X6.8827Y-8.4425
X6.8831Y-9.1591
X6.8831Y-9.3165
X6.8831Y-9.4661
X6.8843Y-9.0331
X6.8862Y-7.7393
X6.8862Y-7.8889
X6.8862Y-8.0385
X6.9811Y-7.4637
X6.9827Y-9.0331
X7.0343Y-7.5921
X7.0492Y-6.8094
X7.0657Y-8.8835
X7.1815Y-8.8835
X7.1878Y-7.5975
X7.2531Y-6.6677
X7.2799Y-8.8835
X7.2811Y-8.5921
X7.2811Y-8.7417
X7.2815Y-7.0227
X7.2815Y-7.1723
X7.2815Y-7.3219
X7.2827Y-8.3031
X7.2827Y-8.4425
X7.2831Y-9.1591
X7.2831Y-9.3165
X7.2831Y-9.4661
X7.2862Y-7.5975
X7.2862Y-7.7393
X7.2862Y-7.8889
X7.2862Y-8.0385
X7.328Y-6.1756
X7.328Y-6.3724
X7.4492Y-6.8094
X7.45Y-6.6677
X7.5602Y-6.6677
X7.561Y-6.8094
X7.5823Y-7.0291
X7.5823Y-7.1276
X7.587Y-9.3303
X7.587Y-9.4287
X7.5902Y-7.9287
X7.5902Y-8.0272
X7.5949Y-8.4642
X7.5949Y-8.5626
X7.6744Y-6.1756
X7.6744Y-6.3724
X7.7083Y-6.9937
X7.7083Y-7.1591
X7.7083Y-7.7393
X7.7083Y-7.8913
X7.7083Y-8.0409
X7.7102Y-7.3141
X7.7102Y-7.5897
X7.713Y-8.285
X7.713Y-8.4425
X7.713Y-8.5921
X7.713Y-8.7417
X7.713Y-8.8835
X7.713Y-9.1669
X7.713Y-9.3165
X7.713Y-9.4661
X7.7571Y-6.6677
X7.8087Y-7.5897
X7.8114Y-8.8835
X7.9335Y-7.5921
X7.9492Y-8.8835
X7.961Y-6.8094
X8.0134Y-7.4558
X8.0161Y-9.0252
X8.063Y-4.0689
X8.063Y-4.1673
X8.1083Y-6.9937
X8.1083Y-7.1591
X8.1083Y-7.7393
X8.1083Y-7.8913
X8.1083Y-8.0409
X8.1102Y-7.3141
X8.1118Y-7.4558
X8.113Y-8.285
X8.113Y-8.4425
X8.113Y-8.5921
X8.113Y-8.7417
X8.113Y-9.1669
X8.113Y-9.3165
X8.113Y-9.4661
X8.1146Y-9.0252
X8.285Y-7.1782
X8.285Y-7.2767
X8.285Y-7.7609
X8.285Y-7.8594
X8.2886Y-6.6685
X8.2886Y-7.0685
X8.2957Y-8.6217
X8.2957Y-8.7201
X8.2957Y-9.1886
X8.2957Y-9.287
X8.3028Y-8.1827
X8.3335Y-7.5921
X8.3492Y-8.8835
X8.4012Y-8.1827
X8.4331Y-6.8799
X8.4331Y-7.2799
X8.7673Y-5.8764
X8.7673Y-6.1764
X8.8673Y-5.8764
X8.8673Y-6.1764
X8.9673Y-5.8764
X8.9673Y-6.1764
X8.9862Y-9.2609
X9.0492Y-6.7916
X9.0673Y-5.8764
X9.0673Y-6.1764
X9.0917Y-7.5176
X9.0917Y-7.9176
X9.1311Y-8.2578
X9.1311Y-8.6578
X9.1673Y-5.8764
X9.1673Y-6.1764
X9.2673Y-5.8764
X9.2673Y-6.1764
X9.3673Y-5.8764
X9.3673Y-6.1764
X9.3862Y-9.2609
X9.4492Y-6.7916
X9.4673Y-5.8764
X9.4673Y-6.1764
X9.5248Y-7.2512
X9.5248Y-7.6512
X9.5799Y-8.3252
X9.5799Y-8.7252
X9.7476Y-5.8764
X9.7476Y-6.1764
X9.8051Y-8.0811
X9.813Y-7.026
X9.8476Y-5.8764
X9.8476Y-6.1764
X9.9476Y-5.8764
X9.9476Y-6.1764
X10.0256Y-9.2858
X10.0256Y-9.4354
X10.0476Y-5.8764
X10.0476Y-6.1764
X10.0996Y-7.7353
X10.0996Y-7.8338
X10.1476Y-5.8764
X10.1476Y-6.1764
X10.1626Y-8.837
X10.1626Y-8.9354
X10.2051Y-8.0811
X10.213Y-7.026
X10.2476Y-5.8764
X10.2476Y-6.1764
X10.3476Y-5.8764
X10.3476Y-6.1764
X10.4256Y-9.2858
X10.4256Y-9.4354
X10.4476Y-5.8764
X10.4476Y-6.1764
X10.7319Y-5.8764
X10.7319Y-6.1764
X10.8319Y-5.8764
X10.8319Y-6.1764
X10.9319Y-5.8764
X10.9319Y-6.1764
X11.0319Y-5.8764
X11.0319Y-6.1764
X11.1319Y-5.8764
X11.1319Y-6.1764
X11.2319Y-5.8764
X11.2319Y-6.1764
X11.3319Y-5.8764
X11.3319Y-6.1764
X11.4319Y-5.8764
X11.4319Y-6.1764
X11.628Y-3.7402
X11.6902Y-5.8756
X11.6902Y-6.1756
X11.7264Y-3.7402
X11.7902Y-5.8756
X11.7902Y-6.1756
X11.8571Y-3.1193
X11.8571Y-3.5193
X11.8632Y-4.8732
X11.8632Y-5.1732
X11.8902Y-5.8756
X11.8902Y-6.1756
X11.9632Y-4.8732
X11.9632Y-5.1732
X11.9902Y-5.8756
X11.9902Y-6.1756
X12.0632Y-4.8732
X12.0632Y-5.1732
X12.0902Y-5.8756
X12.0902Y-6.1756
X12.1632Y-4.8732
X12.1632Y-5.1732
X12.1902Y-5.8756
X12.1902Y-6.1756
X12.2632Y-4.8732
X12.2632Y-5.1732
X12.2902Y-5.8756
X12.2902Y-6.1756
X12.3632Y-4.8732
X12.3632Y-5.1732
X12.3902Y-5.8756
X12.3902Y-6.1756
X12.4632Y-4.8732
X12.4632Y-5.1732
X12.5632Y-4.8732
X12.5632Y-5.1732
T6
X8.9264Y-9.03
X8.9264Y-9.13
X9.228Y-7.9145
X9.2752Y-8.1822
X9.328Y-7.9145
X9.3752Y-8.1822
X9.4933Y-6.9176
X9.4933Y-7.0176
X9.6719Y-7.1756
X9.7266Y-8.2543
X9.7719Y-7.1756
X9.8266Y-8.2543
X10.325Y-9.1283
X10.425Y-9.1283
X11.9963Y-3.0327
X12.0963Y-3.0327
T7
X11.7402Y-2.0827
X11.8386Y-2.0827
X11.937Y-2.0827
X12.0354Y-2.0827
T8
X4.9925Y-3.7654
X4.9925Y-4.3654
X5.0925Y-3.7654
X5.0925Y-4.3654
X5.1925Y-3.7654
X5.1925Y-4.3654
X5.2925Y-3.7654
X5.2925Y-4.3654
X5.3925Y-3.7654
X5.3925Y-4.3654
X5.4925Y-3.7654
X5.4925Y-4.3654
X5.5925Y-3.7654
X5.5925Y-4.3654
X5.6925Y-3.7654
X5.6925Y-4.3654
X5.7925Y-3.7654
X5.7925Y-4.3654
X5.8925Y-3.7654
X5.8925Y-4.3654
X5.9925Y-3.7654
X5.9925Y-4.3654
X6.0925Y-3.7654
X6.0925Y-4.3654
X6.1925Y-3.7654
X6.1925Y-4.3654
X6.2925Y-3.7654
X6.2925Y-4.3654
X6.3925Y-3.7654
X6.3925Y-4.3654
X6.4925Y-3.7654
X6.4925Y-4.3654
X6.5925Y-3.7654
X6.5925Y-4.3654
X6.6925Y-3.7654
X6.6925Y-4.3654
X6.7925Y-3.7654
X6.7925Y-4.3654
X6.8925Y-3.7654
X6.8925Y-4.3654
X6.9925Y-3.7654
X6.9925Y-4.3654
X7.0925Y-3.7654
X7.0925Y-4.3654
X7.0996Y-6.1736
X7.0996Y-6.6736
X7.1925Y-3.7654
X7.1925Y-4.3654
X7.2925Y-3.7654
X7.2925Y-4.3654
X7.7559Y-3.4154
X7.9185Y-6.1756
X7.9185Y-6.6756
X7.9528Y-3.4154
X9.5367Y-5.2756
X9.7336Y-5.2756
X10.1232Y-8.442
X10.1311Y-7.3961
X10.3201Y-8.442
X10.328Y-7.3961
X10.6193Y-8.0969
X10.6193Y-8.2937
X10.6193Y-8.5995
X10.6193Y-8.7964
X10.635Y-7.0732
X10.635Y-7.2701
X10.635Y-7.5548
X10.635Y-7.7517
X11.0839Y-8.1047
X11.0839Y-8.3016
X11.0839Y-8.5995
X11.0839Y-8.7964
X11.0996Y-7.072
X11.0996Y-7.2688
X11.0996Y-7.5535
X11.0996Y-7.7504
X11.6831Y-4.5177
X11.6831Y-4.7146
X12.0394Y-2.5512
X12.0394Y-2.748
T9
X8.352Y-2.3197
X8.352Y-2.4197
X8.352Y-4.7197
X8.352Y-4.8197
X8.452Y-2.3197
X8.452Y-2.4197
X8.452Y-4.7197
X8.452Y-4.8197
X8.552Y-2.3197
X8.552Y-2.4197
X8.552Y-4.7197
X8.552Y-4.8197
X8.652Y-2.3197
X8.652Y-2.4197
X8.652Y-4.7197
X8.652Y-4.8197
X8.752Y-2.3197
X8.752Y-2.4197
X8.752Y-4.7197
X8.752Y-4.8197
X8.852Y-2.3197
X8.852Y-2.4197
X8.852Y-4.7197
X8.852Y-4.8197
X8.952Y-2.3197
X8.952Y-2.4197
X8.952Y-4.7197
X8.952Y-4.8197
X9.052Y-2.3197
X9.052Y-2.4197
X9.052Y-4.7197
X9.052Y-4.8197
X9.152Y-2.3197
X9.152Y-2.4197
X9.152Y-4.7197
X9.152Y-4.8197
X9.252Y-2.3197
X9.252Y-2.4197
X9.252Y-4.7197
X9.252Y-4.8197
X9.352Y-2.3197
X9.352Y-2.4197
X9.352Y-4.7197
X9.352Y-4.8197
X9.452Y-2.3197
X9.452Y-2.4197
X9.452Y-4.7197
X9.452Y-4.8197
X9.552Y-2.3197
X9.552Y-2.4197
X9.552Y-4.7197
X9.552Y-4.8197
X9.652Y-2.3197
X9.652Y-2.4197
X9.652Y-4.7197
X9.652Y-4.8197
X9.752Y-2.3197
X9.752Y-2.4197
X9.752Y-4.7197
X9.752Y-4.8197
X9.852Y-2.3197
X9.852Y-2.4197
X9.852Y-4.7197
X9.852Y-4.8197
X9.952Y-2.3197
X9.952Y-2.4197
X9.952Y-4.7197
X9.952Y-4.8197
X10.052Y-2.3197
X10.052Y-2.4197
X10.052Y-4.7197
X10.052Y-4.8197
X10.152Y-2.3197
X10.152Y-2.4197
X10.152Y-4.7197
X10.152Y-4.8197
T10
X8.352Y-2.6197
X8.352Y-4.5197
X8.452Y-2.6197
X8.452Y-4.5197
X8.552Y-2.6197
X8.552Y-4.5197
X8.652Y-2.6197
X8.652Y-4.5197
X8.752Y-2.6197
X8.752Y-4.5197
X8.852Y-2.6197
X8.852Y-4.5197
X8.952Y-4.5197
X9.052Y-2.6197
X9.052Y-4.5197
X9.152Y-2.6197
X9.2118Y-4.5197
X9.252Y-2.6197
X9.3118Y-4.5197
X9.352Y-2.6197
X9.4118Y-4.5197
X9.452Y-2.6197
X9.5118Y-4.5197
X9.552Y-2.6197
X9.6118Y-4.5197
X9.652Y-2.6197
X9.7118Y-4.5197
X9.752Y-2.6197
X9.8118Y-4.5197
X9.9118Y-4.5197
X10.0118Y-4.5197
X10.1118Y-4.5197
T11
X6.8004Y-5.378
X6.8004Y-6.178
X8.2807Y-5.3717
X8.2807Y-6.1717
X9.1201Y-9.1192
X9.2201Y-9.1192
X9.3201Y-7.0011
X9.3201Y-7.1011
X9.3201Y-7.2011
X9.3201Y-7.5129
X9.3201Y-7.6129
X9.3201Y-7.7129
X9.3201Y-9.1192
X9.3516Y-8.3869
X9.3516Y-8.4869
X9.3516Y-8.5869
X9.761Y-7.3693
X9.761Y-7.4693
X9.761Y-7.5693
X9.8161Y-8.4559
X9.8161Y-8.5559
X9.8161Y-8.6559
X12.0224Y-3.2531
X12.0224Y-3.3531
X12.0224Y-3.4531
T12
X1.3465Y-8.6083
X2.1465Y-8.6083
X7.3437Y-5.4315
X7.3437Y-5.9039
X7.7374Y-5.4315
X7.7374Y-5.9039
X11.4854Y-7.4197
X11.5169Y-8.4342
X11.8791Y-7.4197
X11.9106Y-8.4342
T13
X1.2498Y-6.2234
X1.2498Y-7.0896
X1.2498Y-7.9301
X1.2498Y-9.2126
T14
X8.8425Y-5.1992
X8.8425Y-5.3992
X9.1811Y-5.2071
X9.1811Y-5.4071
X12.1909Y-6.9472
X12.1988Y-7.9551
X12.3909Y-6.9472
X12.3988Y-7.9551
T15
X1.1248Y-6.0984
X1.1248Y-6.3484
X1.1248Y-6.9646
X1.1248Y-7.2146
X1.1248Y-7.8051
X1.1248Y-8.0551
X1.1248Y-9.0876
X1.1248Y-9.3376
X1.3748Y-6.0984
X1.3748Y-6.3484
X1.3748Y-6.9646
X1.3748Y-7.2146
X1.3748Y-7.8051
X1.3748Y-8.0551
X1.3748Y-9.0876
X1.3748Y-9.3376
M30
