%TF.GenerationSoftware,KiCad,Pcbnew,8.0.5*%
%TF.CreationDate,2024-12-06T02:00:12+01:00*%
%TF.ProjectId,ImpedanceAnalyzer,496d7065-6461-46e6-9365-416e616c797a,rev?*%
%TF.SameCoordinates,Original*%
%TF.FileFunction,Soldermask,Bot*%
%TF.FilePolarity,Negative*%
%FSLAX46Y46*%
G04 Gerber Fmt 4.6, Leading zero omitted, Abs format (unit mm)*
G04 Created by KiCad (PCBNEW 8.0.5) date 2024-12-06 02:00:12*
%MOMM*%
%LPD*%
G01*
G04 APERTURE LIST*
G04 Aperture macros list*
%AMRoundRect*
0 Rectangle with rounded corners*
0 $1 Rounding radius*
0 $2 $3 $4 $5 $6 $7 $8 $9 X,Y pos of 4 corners*
0 Add a 4 corners polygon primitive as box body*
4,1,4,$2,$3,$4,$5,$6,$7,$8,$9,$2,$3,0*
0 Add four circle primitives for the rounded corners*
1,1,$1+$1,$2,$3*
1,1,$1+$1,$4,$5*
1,1,$1+$1,$6,$7*
1,1,$1+$1,$8,$9*
0 Add four rect primitives between the rounded corners*
20,1,$1+$1,$2,$3,$4,$5,0*
20,1,$1+$1,$4,$5,$6,$7,0*
20,1,$1+$1,$6,$7,$8,$9,0*
20,1,$1+$1,$8,$9,$2,$3,0*%
G04 Aperture macros list end*
%ADD10R,2.000000X1.905000*%
%ADD11O,2.000000X1.905000*%
%ADD12R,1.600000X1.600000*%
%ADD13O,1.600000X1.600000*%
%ADD14C,1.600000*%
%ADD15R,1.700000X1.700000*%
%ADD16O,1.700000X1.700000*%
%ADD17C,1.700000*%
%ADD18R,2.000000X2.000000*%
%ADD19C,2.000000*%
%ADD20R,1.500000X1.050000*%
%ADD21O,1.500000X1.050000*%
%ADD22C,2.200000*%
%ADD23O,2.200000X2.200000*%
%ADD24C,3.556000*%
%ADD25C,3.810000*%
%ADD26R,1.800000X1.800000*%
%ADD27C,1.800000*%
%ADD28RoundRect,0.102000X-0.654000X-0.654000X0.654000X-0.654000X0.654000X0.654000X-0.654000X0.654000X0*%
%ADD29C,1.512000*%
%ADD30O,2.000000X2.000000*%
%ADD31C,3.200000*%
%ADD32C,3.000000*%
%ADD33RoundRect,0.102000X-0.802500X0.802500X-0.802500X-0.802500X0.802500X-0.802500X0.802500X0.802500X0*%
%ADD34C,1.809000*%
%ADD35RoundRect,0.102000X-0.765000X0.765000X-0.765000X-0.765000X0.765000X-0.765000X0.765000X0.765000X0*%
%ADD36C,1.734000*%
%ADD37C,1.754000*%
%ADD38C,2.379000*%
%ADD39R,1.050000X1.500000*%
%ADD40O,1.050000X1.500000*%
%ADD41R,1.905000X2.000000*%
%ADD42O,1.905000X2.000000*%
%ADD43C,2.400000*%
%ADD44O,2.400000X2.400000*%
%ADD45RoundRect,0.250000X0.600000X0.725000X-0.600000X0.725000X-0.600000X-0.725000X0.600000X-0.725000X0*%
%ADD46O,1.700000X1.950000*%
%ADD47RoundRect,0.250000X0.412500X0.650000X-0.412500X0.650000X-0.412500X-0.650000X0.412500X-0.650000X0*%
%ADD48RoundRect,0.250000X-0.650000X0.412500X-0.650000X-0.412500X0.650000X-0.412500X0.650000X0.412500X0*%
%ADD49RoundRect,0.250000X-0.412500X-0.650000X0.412500X-0.650000X0.412500X0.650000X-0.412500X0.650000X0*%
%ADD50RoundRect,0.250000X0.337500X0.475000X-0.337500X0.475000X-0.337500X-0.475000X0.337500X-0.475000X0*%
%ADD51RoundRect,0.250000X-0.475000X0.337500X-0.475000X-0.337500X0.475000X-0.337500X0.475000X0.337500X0*%
%ADD52RoundRect,0.250000X-0.337500X-0.475000X0.337500X-0.475000X0.337500X0.475000X-0.337500X0.475000X0*%
%ADD53RoundRect,0.250000X0.475000X-0.337500X0.475000X0.337500X-0.475000X0.337500X-0.475000X-0.337500X0*%
G04 APERTURE END LIST*
D10*
%TO.C,U21*%
X305370000Y-82630000D03*
D11*
X305370000Y-85170000D03*
X305370000Y-87710000D03*
%TD*%
D12*
%TO.C,D9*%
X86110000Y-186030000D03*
D13*
X86110000Y-193650000D03*
%TD*%
D12*
%TO.C,D13*%
X86110000Y-199830000D03*
D13*
X86110000Y-207450000D03*
%TD*%
D14*
%TO.C,R18*%
X124830000Y-239440000D03*
D13*
X134990000Y-239440000D03*
%TD*%
D14*
%TO.C,C102*%
X194930000Y-156860000D03*
X194930000Y-161860000D03*
%TD*%
%TO.C,R65*%
X206070000Y-222040000D03*
D13*
X195910000Y-222040000D03*
%TD*%
D14*
%TO.C,R31*%
X254650000Y-235860000D03*
D13*
X264810000Y-235860000D03*
%TD*%
D14*
%TO.C,R77*%
X174830000Y-236640000D03*
D13*
X184990000Y-236640000D03*
%TD*%
D14*
%TO.C,C110*%
X198410000Y-225640000D03*
X195910000Y-225640000D03*
%TD*%
%TO.C,R32*%
X249250000Y-178460000D03*
D13*
X259410000Y-178460000D03*
%TD*%
D15*
%TO.C,M1*%
X126810000Y-110880000D03*
D16*
X129350000Y-110880000D03*
X131890000Y-110880000D03*
X134430000Y-110880000D03*
X136970000Y-110880000D03*
X139510000Y-110880000D03*
X142050000Y-110880000D03*
X144590000Y-110880000D03*
X147130000Y-110880000D03*
X149670000Y-110880000D03*
X152210000Y-110880000D03*
X154750000Y-110880000D03*
X157290000Y-110880000D03*
X159830000Y-110880000D03*
X162370000Y-110880000D03*
X164910000Y-110880000D03*
X167450000Y-110880000D03*
X169990000Y-110880000D03*
X172530000Y-110880000D03*
X175070000Y-110880000D03*
X177610000Y-110880000D03*
X180150000Y-110880000D03*
X182690000Y-110880000D03*
X185230000Y-110880000D03*
X185230000Y-95640000D03*
X182690000Y-95640000D03*
X180150000Y-95640000D03*
X177610000Y-95640000D03*
X175070000Y-95640000D03*
X172530000Y-95640000D03*
X169990000Y-95640000D03*
X167450000Y-95640000D03*
X164910000Y-95640000D03*
X162370000Y-95640000D03*
X159830000Y-95640000D03*
X157290000Y-95640000D03*
X154750000Y-95640000D03*
X152210000Y-95640000D03*
X149670000Y-95640000D03*
X147130000Y-95640000D03*
X144590000Y-95640000D03*
X142050000Y-95640000D03*
X139510000Y-95640000D03*
X136970000Y-95640000D03*
X134430000Y-95640000D03*
X131890000Y-95640000D03*
X129350000Y-95640000D03*
D17*
X126810000Y-95640000D03*
%TD*%
D18*
%TO.C,C43*%
X281530000Y-205860000D03*
D19*
X281530000Y-210860000D03*
%TD*%
D14*
%TO.C,R43*%
X210530000Y-179540000D03*
D13*
X210530000Y-169380000D03*
%TD*%
D12*
%TO.C,R27*%
X99720000Y-178610000D03*
D13*
X99720000Y-176070000D03*
X99720000Y-173530000D03*
X99720000Y-170990000D03*
X99720000Y-168450000D03*
X99720000Y-165910000D03*
X99720000Y-163370000D03*
X99720000Y-160830000D03*
%TD*%
D12*
%TO.C,R25*%
X49440000Y-164250000D03*
D13*
X51980000Y-164250000D03*
X54520000Y-164250000D03*
X57060000Y-164250000D03*
X59600000Y-164250000D03*
X62140000Y-164250000D03*
X64680000Y-164250000D03*
X67220000Y-164250000D03*
%TD*%
D14*
%TO.C,R79*%
X241930000Y-194340000D03*
D13*
X241930000Y-184180000D03*
%TD*%
D18*
%TO.C,C45*%
X269730000Y-205660000D03*
D19*
X269730000Y-210660000D03*
%TD*%
D14*
%TO.C,R28*%
X90630000Y-239040000D03*
D13*
X100790000Y-239040000D03*
%TD*%
D14*
%TO.C,C123*%
X192790000Y-203890000D03*
X192790000Y-201390000D03*
%TD*%
D20*
%TO.C,Q4*%
X110710000Y-239240000D03*
D21*
X110710000Y-237970000D03*
X110710000Y-236700000D03*
%TD*%
D14*
%TO.C,C74*%
X63150000Y-103290000D03*
X65650000Y-103290000D03*
%TD*%
%TO.C,R49*%
X205950000Y-177640000D03*
D13*
X195790000Y-177640000D03*
%TD*%
D14*
%TO.C,R61*%
X174910000Y-200377500D03*
D13*
X185070000Y-200377500D03*
%TD*%
D14*
%TO.C,R51*%
X205950000Y-181840000D03*
D13*
X195790000Y-181840000D03*
%TD*%
D22*
%TO.C,L3*%
X196530000Y-137960000D03*
X186530000Y-137960000D03*
X186530000Y-149960000D03*
X196530000Y-149960000D03*
%TD*%
D14*
%TO.C,R47*%
X206000000Y-185777500D03*
D13*
X195840000Y-185777500D03*
%TD*%
D12*
%TO.C,D17*%
X132520000Y-232240000D03*
D13*
X124900000Y-232240000D03*
%TD*%
D14*
%TO.C,C108*%
X170670000Y-197527500D03*
X170670000Y-200027500D03*
%TD*%
D22*
%TO.C,L5*%
X172730000Y-136600000D03*
D23*
X172730000Y-156920000D03*
%TD*%
D12*
%TO.C,U7*%
X60530000Y-113860000D03*
D13*
X63070000Y-113860000D03*
X65610000Y-113860000D03*
X68150000Y-113860000D03*
X68150000Y-106240000D03*
X65610000Y-106240000D03*
X63070000Y-106240000D03*
X60530000Y-106240000D03*
%TD*%
D14*
%TO.C,C104*%
X197030000Y-169360000D03*
X192030000Y-169360000D03*
%TD*%
D12*
%TO.C,U5*%
X46610000Y-113860000D03*
D13*
X49150000Y-113860000D03*
X51690000Y-113860000D03*
X54230000Y-113860000D03*
X54230000Y-106240000D03*
X51690000Y-106240000D03*
X49150000Y-106240000D03*
X46610000Y-106240000D03*
%TD*%
D14*
%TO.C,R50*%
X184950000Y-178377500D03*
D13*
X174790000Y-178377500D03*
%TD*%
D24*
%TO.C,J6*%
X31745000Y-180075000D03*
D25*
X34920000Y-183250000D03*
X34920000Y-176900000D03*
X28570000Y-183250000D03*
X28570000Y-176900000D03*
%TD*%
D26*
%TO.C,D3*%
X236930000Y-201027677D03*
D27*
X234390000Y-201027677D03*
%TD*%
D28*
%TO.C,K4*%
X89510000Y-193660000D03*
D29*
X97130000Y-193660000D03*
X102210000Y-193660000D03*
X107290000Y-193660000D03*
X107290000Y-186040000D03*
X102210000Y-186040000D03*
X97130000Y-186040000D03*
X89510000Y-186040000D03*
%TD*%
D26*
%TO.C,D6*%
X247055000Y-209660000D03*
D27*
X249595000Y-209660000D03*
%TD*%
D14*
%TO.C,R57*%
X174910000Y-204177500D03*
D13*
X185070000Y-204177500D03*
%TD*%
D14*
%TO.C,C172*%
X63750000Y-175750000D03*
X63750000Y-173250000D03*
%TD*%
D12*
%TO.C,D15*%
X86110000Y-213630000D03*
D13*
X86110000Y-221250000D03*
%TD*%
D14*
%TO.C,R58*%
X205950000Y-204240000D03*
D13*
X195790000Y-204240000D03*
%TD*%
D19*
%TO.C,C132*%
X296750000Y-119750000D03*
D18*
X296750000Y-114750000D03*
%TD*%
D28*
%TO.C,K5*%
X63490000Y-193650000D03*
D29*
X71110000Y-193650000D03*
X76190000Y-193650000D03*
X81270000Y-193650000D03*
X81270000Y-186030000D03*
X76190000Y-186030000D03*
X71110000Y-186030000D03*
X63490000Y-186030000D03*
%TD*%
D20*
%TO.C,Q1*%
X129327500Y-198732500D03*
D21*
X129327500Y-200002500D03*
X129327500Y-201272500D03*
%TD*%
D14*
%TO.C,R116*%
X152790000Y-237040000D03*
D13*
X142630000Y-237040000D03*
%TD*%
D12*
%TO.C,C124*%
X167372380Y-211640000D03*
D14*
X164872380Y-211640000D03*
%TD*%
D18*
%TO.C,C20*%
X257130000Y-214427677D03*
D19*
X262130000Y-214427677D03*
%TD*%
D14*
%TO.C,R53*%
X178670000Y-192840000D03*
D13*
X168510000Y-192840000D03*
%TD*%
D12*
%TO.C,U15*%
X125530000Y-65235000D03*
D13*
X125530000Y-67775000D03*
X125530000Y-70315000D03*
X125530000Y-72855000D03*
X125530000Y-75395000D03*
X125530000Y-77935000D03*
X125530000Y-80475000D03*
X133150000Y-80475000D03*
X133150000Y-77935000D03*
X133150000Y-75395000D03*
X133150000Y-72855000D03*
X133150000Y-70315000D03*
X133150000Y-67775000D03*
X133150000Y-65235000D03*
%TD*%
D14*
%TO.C,R_R106*%
X44440000Y-191600000D03*
D13*
X54600000Y-191600000D03*
%TD*%
D14*
%TO.C,R75*%
X174830000Y-240440000D03*
D13*
X184990000Y-240440000D03*
%TD*%
D14*
%TO.C,C101*%
X170470000Y-185027500D03*
X170470000Y-182527500D03*
%TD*%
D24*
%TO.C,J7*%
X31745000Y-158075000D03*
D25*
X34920000Y-161250000D03*
X34920000Y-154900000D03*
X28570000Y-161250000D03*
X28570000Y-154900000D03*
%TD*%
D14*
%TO.C,C112*%
X210710000Y-221490000D03*
X210710000Y-218990000D03*
%TD*%
%TO.C,C116*%
X170310000Y-233390000D03*
X170310000Y-235890000D03*
%TD*%
%TO.C,C163*%
X42000000Y-163000000D03*
X42000000Y-160500000D03*
%TD*%
%TO.C,C137*%
X204800000Y-105850000D03*
X204800000Y-103350000D03*
%TD*%
D26*
%TO.C,D19*%
X262255000Y-231860000D03*
D27*
X264795000Y-231860000D03*
%TD*%
D14*
%TO.C,R81*%
X230930000Y-190947677D03*
D13*
X230930000Y-201107677D03*
%TD*%
D12*
%TO.C,D10*%
X60110000Y-186030000D03*
D13*
X60110000Y-193650000D03*
%TD*%
D18*
%TO.C,C144*%
X197000000Y-86750000D03*
D19*
X202000000Y-86750000D03*
%TD*%
D12*
%TO.C,D16*%
X137727500Y-194782500D03*
D13*
X137727500Y-202402500D03*
%TD*%
D12*
%TO.C,C118*%
X167390000Y-203840000D03*
D14*
X164890000Y-203840000D03*
%TD*%
D26*
%TO.C,D1*%
X248205000Y-182260000D03*
D27*
X245665000Y-182260000D03*
%TD*%
D14*
%TO.C,R112*%
X152790000Y-214240000D03*
D13*
X142630000Y-214240000D03*
%TD*%
D19*
%TO.C,L6*%
X201130000Y-156860000D03*
D30*
X201130000Y-169560000D03*
%TD*%
D31*
%TO.C,M3*%
X325000000Y-50000000D03*
%TD*%
D14*
%TO.C,R62*%
X205950000Y-200440000D03*
D13*
X195790000Y-200440000D03*
%TD*%
D32*
%TO.C,U10*%
X261670000Y-66540000D03*
X209600000Y-99560000D03*
X260400000Y-114800000D03*
D33*
X233980000Y-114800000D03*
D34*
X236520000Y-114800000D03*
X239060000Y-114800000D03*
X241600000Y-114800000D03*
X244140000Y-114800000D03*
X246680000Y-114800000D03*
X249220000Y-114800000D03*
X251760000Y-114800000D03*
X254300000Y-114800000D03*
X256840000Y-114800000D03*
D33*
X247700000Y-66540000D03*
D34*
X245160000Y-66540000D03*
X242620000Y-66540000D03*
X240080000Y-66540000D03*
X237540000Y-66540000D03*
X235000000Y-66540000D03*
X232460000Y-66540000D03*
X229920000Y-66540000D03*
D35*
X257860000Y-58920000D03*
D36*
X257860000Y-61460000D03*
X255320000Y-58920000D03*
X255320000Y-61460000D03*
X252780000Y-58920000D03*
X252780000Y-61460000D03*
X250240000Y-58920000D03*
X250240000Y-61460000D03*
X247700000Y-58920000D03*
X247700000Y-61460000D03*
X245160000Y-58920000D03*
X245160000Y-61460000D03*
X242620000Y-58920000D03*
X242620000Y-61460000D03*
X240080000Y-58920000D03*
X240080000Y-61460000D03*
X237540000Y-58920000D03*
X237540000Y-61460000D03*
X235000000Y-58920000D03*
X235000000Y-61460000D03*
X232460000Y-58920000D03*
X232460000Y-61460000D03*
X229920000Y-58920000D03*
X229920000Y-61460000D03*
X227380000Y-58920000D03*
X227380000Y-61460000D03*
X224840000Y-58920000D03*
X224840000Y-61460000D03*
X222300000Y-58920000D03*
X222300000Y-61460000D03*
X219760000Y-58920000D03*
X219760000Y-61460000D03*
X217220000Y-58920000D03*
X217220000Y-61460000D03*
X214680000Y-58920000D03*
X214680000Y-61460000D03*
X212140000Y-58920000D03*
X212140000Y-61460000D03*
D33*
X224840000Y-66540000D03*
D34*
X222300000Y-66540000D03*
X219760000Y-66540000D03*
X217220000Y-66540000D03*
X214680000Y-66540000D03*
X212140000Y-66540000D03*
D33*
X212140000Y-114800000D03*
D34*
X214680000Y-114800000D03*
X217220000Y-114800000D03*
X219760000Y-114800000D03*
X222300000Y-114800000D03*
X224840000Y-114800000D03*
X227380000Y-114800000D03*
X229920000Y-114800000D03*
D35*
X257860000Y-119880000D03*
D36*
X257860000Y-122420000D03*
X255320000Y-119880000D03*
X255320000Y-122420000D03*
X252780000Y-119880000D03*
X252780000Y-122420000D03*
X250240000Y-119880000D03*
X250240000Y-122420000D03*
X247700000Y-119880000D03*
X247700000Y-122420000D03*
X245160000Y-119880000D03*
X245160000Y-122420000D03*
X242620000Y-119880000D03*
X242620000Y-122420000D03*
X240080000Y-119880000D03*
X240080000Y-122420000D03*
X237540000Y-119880000D03*
X237540000Y-122420000D03*
X235000000Y-119880000D03*
X235000000Y-122420000D03*
X232460000Y-119880000D03*
X232460000Y-122420000D03*
X229920000Y-119880000D03*
X229920000Y-122420000D03*
X227380000Y-119880000D03*
X227380000Y-122420000D03*
X224840000Y-119880000D03*
X224840000Y-122420000D03*
X222300000Y-119880000D03*
X222300000Y-122420000D03*
X219760000Y-119880000D03*
X219760000Y-122420000D03*
X217220000Y-119880000D03*
X217220000Y-122420000D03*
X214680000Y-119880000D03*
X214680000Y-122420000D03*
X212140000Y-119880000D03*
X212140000Y-122420000D03*
%TD*%
D19*
%TO.C,L7*%
X180330000Y-156810000D03*
D30*
X180330000Y-169510000D03*
%TD*%
D14*
%TO.C,R111*%
X145230000Y-210440000D03*
D13*
X155390000Y-210440000D03*
%TD*%
D14*
%TO.C,C78*%
X80670000Y-164410000D03*
X83170000Y-164410000D03*
%TD*%
%TO.C,R117*%
X140030000Y-233040000D03*
D13*
X150190000Y-233040000D03*
%TD*%
D10*
%TO.C,U18*%
X247930000Y-192260000D03*
D11*
X247930000Y-189720000D03*
X247930000Y-187180000D03*
%TD*%
D14*
%TO.C,R115*%
X145230000Y-241040000D03*
D13*
X155390000Y-241040000D03*
%TD*%
D12*
%TO.C,C195*%
X116327621Y-230240000D03*
D14*
X118827621Y-230240000D03*
%TD*%
D28*
%TO.C,K1*%
X63490000Y-221260000D03*
D29*
X71110000Y-221260000D03*
X76190000Y-221260000D03*
X81270000Y-221260000D03*
X81270000Y-213640000D03*
X76190000Y-213640000D03*
X71110000Y-213640000D03*
X63490000Y-213640000D03*
%TD*%
D14*
%TO.C,C129*%
X192710000Y-239490000D03*
X192710000Y-236990000D03*
%TD*%
D31*
%TO.C,M3*%
X325000000Y-250000000D03*
%TD*%
D12*
%TO.C,U33*%
X240470000Y-149260000D03*
D13*
X237930000Y-149260000D03*
X235390000Y-149260000D03*
X232850000Y-149260000D03*
X230310000Y-149260000D03*
X227770000Y-149260000D03*
X225230000Y-149260000D03*
X222690000Y-149260000D03*
X222690000Y-156880000D03*
X225230000Y-156880000D03*
X227770000Y-156880000D03*
X230310000Y-156880000D03*
X232850000Y-156880000D03*
X235390000Y-156880000D03*
X237930000Y-156880000D03*
X240470000Y-156880000D03*
%TD*%
D14*
%TO.C,C105*%
X189230000Y-169360000D03*
X184230000Y-169360000D03*
%TD*%
D37*
%TO.C,L1*%
X291730000Y-188460000D03*
X301730000Y-188460000D03*
%TD*%
D12*
%TO.C,D11*%
X60110000Y-213630000D03*
D13*
X60110000Y-221250000D03*
%TD*%
D14*
%TO.C,C142*%
X297850000Y-95000000D03*
X295350000Y-95000000D03*
%TD*%
%TO.C,R14*%
X134990000Y-228240000D03*
D13*
X124830000Y-228240000D03*
%TD*%
D14*
%TO.C,R13*%
X129207500Y-195602500D03*
D13*
X119047500Y-195602500D03*
%TD*%
D10*
%TO.C,U23*%
X237530000Y-218107677D03*
D11*
X237530000Y-215567677D03*
X237530000Y-213027677D03*
%TD*%
D14*
%TO.C,R52*%
X174790000Y-182177500D03*
D13*
X184950000Y-182177500D03*
%TD*%
D14*
%TO.C,C107*%
X198340000Y-192777500D03*
X195840000Y-192777500D03*
%TD*%
D12*
%TO.C,U31*%
X162805000Y-150260000D03*
D13*
X160265000Y-150260000D03*
X157725000Y-150260000D03*
X155185000Y-150260000D03*
X152645000Y-150260000D03*
X150105000Y-150260000D03*
X147565000Y-150260000D03*
X145025000Y-150260000D03*
X145025000Y-157880000D03*
X147565000Y-157880000D03*
X150105000Y-157880000D03*
X152645000Y-157880000D03*
X155185000Y-157880000D03*
X157725000Y-157880000D03*
X160265000Y-157880000D03*
X162805000Y-157880000D03*
%TD*%
D14*
%TO.C,R69*%
X206070000Y-218240000D03*
D13*
X195910000Y-218240000D03*
%TD*%
D14*
%TO.C,C117*%
X210710000Y-233390000D03*
X210710000Y-235890000D03*
%TD*%
D18*
%TO.C,C32*%
X281530000Y-223427677D03*
D19*
X281530000Y-218427677D03*
%TD*%
D12*
%TO.C,U27*%
X301325000Y-131400000D03*
D13*
X303865000Y-131400000D03*
X306405000Y-131400000D03*
X308945000Y-131400000D03*
X311485000Y-131400000D03*
X314025000Y-131400000D03*
X316565000Y-131400000D03*
X319105000Y-131400000D03*
X319105000Y-123780000D03*
X316565000Y-123780000D03*
X314025000Y-123780000D03*
X311485000Y-123780000D03*
X308945000Y-123780000D03*
X306405000Y-123780000D03*
X303865000Y-123780000D03*
X301325000Y-123780000D03*
%TD*%
D14*
%TO.C,R48*%
X174790000Y-185977500D03*
D13*
X184950000Y-185977500D03*
%TD*%
D12*
%TO.C,R24*%
X45280000Y-135450000D03*
D13*
X47820000Y-135450000D03*
X50360000Y-135450000D03*
X52900000Y-135450000D03*
X55440000Y-135450000D03*
X57980000Y-135450000D03*
X60520000Y-135450000D03*
X63060000Y-135450000D03*
%TD*%
D14*
%TO.C,R55*%
X174910000Y-196577500D03*
D13*
X185070000Y-196577500D03*
%TD*%
D14*
%TO.C,R73*%
X174830000Y-232640000D03*
D13*
X184990000Y-232640000D03*
%TD*%
D12*
%TO.C,D18*%
X124900000Y-235440000D03*
D13*
X132520000Y-235440000D03*
%TD*%
D10*
%TO.C,U20*%
X236730000Y-195907677D03*
D11*
X236730000Y-193367677D03*
X236730000Y-190827677D03*
%TD*%
D12*
%TO.C,C125*%
X162030000Y-237660000D03*
D14*
X164530000Y-237660000D03*
%TD*%
%TO.C,R44*%
X170330000Y-179540000D03*
D13*
X170330000Y-169380000D03*
%TD*%
D14*
%TO.C,R64*%
X174820000Y-210900000D03*
D13*
X184980000Y-210900000D03*
%TD*%
D14*
%TO.C,R22*%
X100790000Y-234240000D03*
D13*
X90630000Y-234240000D03*
%TD*%
D14*
%TO.C,C84*%
X64495000Y-144450000D03*
X61995000Y-144450000D03*
%TD*%
%TO.C,C109*%
X210440000Y-197127500D03*
X210440000Y-199627500D03*
%TD*%
D31*
%TO.C,M3*%
X30000000Y-50000000D03*
%TD*%
D14*
%TO.C,C77*%
X83120000Y-174610000D03*
X80620000Y-174610000D03*
%TD*%
D18*
%TO.C,C17*%
X281930000Y-184627677D03*
D19*
X281930000Y-179627677D03*
%TD*%
D22*
%TO.C,L4*%
X210330000Y-136440000D03*
D23*
X210330000Y-156760000D03*
%TD*%
D14*
%TO.C,C113*%
X170310000Y-221240000D03*
X170310000Y-218740000D03*
%TD*%
%TO.C,R21*%
X115447500Y-209402500D03*
D13*
X125607500Y-209402500D03*
%TD*%
D14*
%TO.C,R59*%
X202210000Y-172960000D03*
D13*
X192050000Y-172960000D03*
%TD*%
D14*
%TO.C,R20*%
X129407500Y-205602500D03*
D13*
X119247500Y-205602500D03*
%TD*%
D12*
%TO.C,C197*%
X118692380Y-238240000D03*
D14*
X116192380Y-238240000D03*
%TD*%
D12*
%TO.C,U32*%
X163010000Y-221640000D03*
D13*
X160470000Y-221640000D03*
X157930000Y-221640000D03*
X155390000Y-221640000D03*
X152850000Y-221640000D03*
X150310000Y-221640000D03*
X147770000Y-221640000D03*
X145230000Y-221640000D03*
X145230000Y-229260000D03*
X147770000Y-229260000D03*
X150310000Y-229260000D03*
X152850000Y-229260000D03*
X155390000Y-229260000D03*
X157930000Y-229260000D03*
X160470000Y-229260000D03*
X163010000Y-229260000D03*
%TD*%
D26*
%TO.C,D5*%
X235590000Y-207827677D03*
D27*
X238130000Y-207827677D03*
%TD*%
D38*
%TO.C,J1*%
X224600000Y-137140000D03*
X224600000Y-132060000D03*
%TD*%
D31*
%TO.C,M3*%
X150000000Y-129000000D03*
%TD*%
D14*
%TO.C,C99*%
X177320000Y-189577500D03*
X174820000Y-189577500D03*
%TD*%
%TO.C,C70*%
X75920000Y-138200000D03*
X75920000Y-140700000D03*
%TD*%
D37*
%TO.C,L2*%
X292530000Y-214227677D03*
X302530000Y-214227677D03*
%TD*%
D14*
%TO.C,R85*%
X238410000Y-235227677D03*
D13*
X228250000Y-235227677D03*
%TD*%
D14*
%TO.C,C111*%
X182410000Y-225640000D03*
X184910000Y-225640000D03*
%TD*%
D12*
%TO.C,C119*%
X213390000Y-207840000D03*
D14*
X210890000Y-207840000D03*
%TD*%
%TO.C,R_R110*%
X44440000Y-207800000D03*
D13*
X54600000Y-207800000D03*
%TD*%
D12*
%TO.C,U26*%
X290370000Y-149260000D03*
D13*
X287830000Y-149260000D03*
X285290000Y-149260000D03*
X282750000Y-149260000D03*
X280210000Y-149260000D03*
X277670000Y-149260000D03*
X275130000Y-149260000D03*
X272590000Y-149260000D03*
X272590000Y-156880000D03*
X275130000Y-156880000D03*
X277670000Y-156880000D03*
X280210000Y-156880000D03*
X282750000Y-156880000D03*
X285290000Y-156880000D03*
X287830000Y-156880000D03*
X290370000Y-156880000D03*
%TD*%
D14*
%TO.C,C98*%
X206040000Y-189377500D03*
X203540000Y-189377500D03*
%TD*%
D18*
%TO.C,C47*%
X269730000Y-223427677D03*
D19*
X269730000Y-218427677D03*
%TD*%
D28*
%TO.C,K7*%
X89510000Y-221260000D03*
D29*
X97130000Y-221260000D03*
X102210000Y-221260000D03*
X107290000Y-221260000D03*
X107290000Y-213640000D03*
X102210000Y-213640000D03*
X97130000Y-213640000D03*
X89510000Y-213640000D03*
%TD*%
D14*
%TO.C,R76*%
X206070000Y-240440000D03*
D13*
X195910000Y-240440000D03*
%TD*%
D14*
%TO.C,C114*%
X177360000Y-229440000D03*
X174860000Y-229440000D03*
%TD*%
D18*
%TO.C,C44*%
X270130000Y-184660000D03*
D19*
X270130000Y-179660000D03*
%TD*%
D14*
%TO.C,R119*%
X145230000Y-206240000D03*
D13*
X155390000Y-206240000D03*
%TD*%
D12*
%TO.C,D8*%
X49580000Y-226600000D03*
D13*
X49580000Y-234220000D03*
%TD*%
D28*
%TO.C,K3*%
X89510000Y-207460000D03*
D29*
X97130000Y-207460000D03*
X102210000Y-207460000D03*
X107290000Y-207460000D03*
X107290000Y-199840000D03*
X102210000Y-199840000D03*
X97130000Y-199840000D03*
X89510000Y-199840000D03*
%TD*%
D14*
%TO.C,R84*%
X243330000Y-221620000D03*
D13*
X243330000Y-211460000D03*
%TD*%
D26*
%TO.C,D7*%
X226730000Y-231902677D03*
D27*
X226730000Y-229362677D03*
%TD*%
D14*
%TO.C,C122*%
X192590000Y-181040000D03*
X192590000Y-178540000D03*
%TD*%
D12*
%TO.C,R5*%
X94320000Y-178650000D03*
D13*
X94320000Y-176110000D03*
X94320000Y-173570000D03*
X94320000Y-171030000D03*
X94320000Y-168490000D03*
X94320000Y-165950000D03*
X94320000Y-163410000D03*
X94320000Y-160870000D03*
%TD*%
D14*
%TO.C,R83*%
X231930000Y-219907677D03*
D13*
X231930000Y-209747677D03*
%TD*%
D14*
%TO.C,R_R109*%
X44440000Y-203750000D03*
D13*
X54600000Y-203750000D03*
%TD*%
D14*
%TO.C,R_R107*%
X44440000Y-195650000D03*
D13*
X54600000Y-195650000D03*
%TD*%
D14*
%TO.C,R34*%
X254650000Y-239660000D03*
D13*
X264810000Y-239660000D03*
%TD*%
D14*
%TO.C,R30*%
X86910000Y-239520000D03*
D13*
X86910000Y-229360000D03*
%TD*%
D39*
%TO.C,Q2*%
X121657500Y-200402500D03*
D40*
X122927500Y-200402500D03*
X124197500Y-200402500D03*
%TD*%
D26*
%TO.C,D2*%
X241130000Y-178247677D03*
D27*
X241130000Y-175707677D03*
%TD*%
D41*
%TO.C,U24*%
X231650000Y-231627677D03*
D42*
X234190000Y-231627677D03*
X236730000Y-231627677D03*
%TD*%
D14*
%TO.C,R78*%
X206070000Y-236640000D03*
D13*
X195910000Y-236640000D03*
%TD*%
D14*
%TO.C,R71*%
X179470000Y-225640000D03*
D13*
X169310000Y-225640000D03*
%TD*%
D14*
%TO.C,R29*%
X115927500Y-205682500D03*
D13*
X115927500Y-195522500D03*
%TD*%
D14*
%TO.C,R54*%
X201510000Y-192840000D03*
D13*
X211670000Y-192840000D03*
%TD*%
D31*
%TO.C,M3*%
X30000000Y-250000000D03*
%TD*%
D12*
%TO.C,C15*%
X256530000Y-196477621D03*
D14*
X256530000Y-198977621D03*
%TD*%
%TO.C,R45*%
X214200000Y-174750000D03*
D13*
X214200000Y-184910000D03*
%TD*%
D43*
%TO.C,R105_RANGE1*%
X34200000Y-218650000D03*
D44*
X54520000Y-218650000D03*
%TD*%
D14*
%TO.C,C72*%
X97460000Y-113800000D03*
X99960000Y-113800000D03*
%TD*%
D12*
%TO.C,C16*%
X258130000Y-226960000D03*
D14*
X258130000Y-224460000D03*
%TD*%
%TO.C,R_R111*%
X44440000Y-211850000D03*
D13*
X54600000Y-211850000D03*
%TD*%
D12*
%TO.C,C193*%
X113127621Y-190040000D03*
D14*
X115627621Y-190040000D03*
%TD*%
D12*
%TO.C,D14*%
X60110000Y-199830000D03*
D13*
X60110000Y-207450000D03*
%TD*%
D24*
%TO.C,J9*%
X31745000Y-234000000D03*
D25*
X34920000Y-237175000D03*
X34920000Y-230825000D03*
X28570000Y-237175000D03*
X28570000Y-230825000D03*
%TD*%
D38*
%TO.C,J2*%
X314930000Y-202060000D03*
X309850000Y-202060000D03*
%TD*%
D12*
%TO.C,D12*%
X137727500Y-205592500D03*
D13*
X137727500Y-213212500D03*
%TD*%
D18*
%TO.C,C46*%
X270130000Y-191892323D03*
D19*
X270130000Y-196892323D03*
%TD*%
D38*
%TO.C,J10*%
X314730000Y-176460000D03*
X309650000Y-176460000D03*
%TD*%
D18*
%TO.C,C133*%
X305800000Y-69800000D03*
D19*
X305800000Y-64800000D03*
%TD*%
D28*
%TO.C,K6*%
X63490000Y-207450000D03*
D29*
X71110000Y-207450000D03*
X76190000Y-207450000D03*
X81270000Y-207450000D03*
X81270000Y-199830000D03*
X76190000Y-199830000D03*
X71110000Y-199830000D03*
X63490000Y-199830000D03*
%TD*%
D18*
%TO.C,C42*%
X262330000Y-187860000D03*
D19*
X257330000Y-187860000D03*
%TD*%
D14*
%TO.C,R66*%
X174780000Y-222040000D03*
D13*
X184940000Y-222040000D03*
%TD*%
D14*
%TO.C,R67*%
X206070000Y-214440000D03*
D13*
X195910000Y-214440000D03*
%TD*%
D12*
%TO.C,C191*%
X144327500Y-193502500D03*
D14*
X144327500Y-196002500D03*
%TD*%
%TO.C,R68*%
X174820000Y-214440000D03*
D13*
X184980000Y-214440000D03*
%TD*%
D14*
%TO.C,R33*%
X249050000Y-205260000D03*
D13*
X259210000Y-205260000D03*
%TD*%
D14*
%TO.C,C83*%
X55695000Y-144650000D03*
X53195000Y-144650000D03*
%TD*%
%TO.C,C115*%
X206110000Y-229240000D03*
X203610000Y-229240000D03*
%TD*%
%TO.C,R60*%
X189210000Y-172960000D03*
D13*
X179050000Y-172960000D03*
%TD*%
D14*
%TO.C,R_R108*%
X44440000Y-199700000D03*
D13*
X54600000Y-199700000D03*
%TD*%
D14*
%TO.C,R80*%
X229850000Y-172507677D03*
D13*
X240010000Y-172507677D03*
%TD*%
D14*
%TO.C,R56*%
X205950000Y-196577500D03*
D13*
X195790000Y-196577500D03*
%TD*%
D14*
%TO.C,C169*%
X53000000Y-173500000D03*
X55500000Y-173500000D03*
%TD*%
%TO.C,C100*%
X210440000Y-184827500D03*
X210440000Y-182327500D03*
%TD*%
D12*
%TO.C,U34*%
X124910000Y-215440000D03*
D13*
X122370000Y-215440000D03*
X119830000Y-215440000D03*
X117290000Y-215440000D03*
X117290000Y-223060000D03*
X119830000Y-223060000D03*
X122370000Y-223060000D03*
X124910000Y-223060000D03*
%TD*%
D12*
%TO.C,U16*%
X314710000Y-149240000D03*
D13*
X312170000Y-149240000D03*
X309630000Y-149240000D03*
X307090000Y-149240000D03*
X304550000Y-149240000D03*
X302010000Y-149240000D03*
X299470000Y-149240000D03*
X296930000Y-149240000D03*
X296930000Y-156860000D03*
X299470000Y-156860000D03*
X302010000Y-156860000D03*
X304550000Y-156860000D03*
X307090000Y-156860000D03*
X309630000Y-156860000D03*
X312170000Y-156860000D03*
X314710000Y-156860000D03*
%TD*%
D14*
%TO.C,R74*%
X206070000Y-232840000D03*
D13*
X195910000Y-232840000D03*
%TD*%
D14*
%TO.C,C106*%
X182570000Y-192977500D03*
X185070000Y-192977500D03*
%TD*%
%TO.C,C166*%
X42170000Y-172750000D03*
X44670000Y-172750000D03*
%TD*%
D18*
%TO.C,C145*%
X242232323Y-134000000D03*
D19*
X247232323Y-134000000D03*
%TD*%
D14*
%TO.C,C73*%
X49450000Y-103300000D03*
X51950000Y-103300000D03*
%TD*%
%TO.C,R63*%
X195910000Y-210440000D03*
D13*
X206070000Y-210440000D03*
%TD*%
D12*
%TO.C,R26*%
X45300000Y-130250000D03*
D13*
X47840000Y-130250000D03*
X50380000Y-130250000D03*
X52920000Y-130250000D03*
X55460000Y-130250000D03*
X58000000Y-130250000D03*
X60540000Y-130250000D03*
X63080000Y-130250000D03*
%TD*%
D26*
%TO.C,D4*%
X307245000Y-77030000D03*
D27*
X304705000Y-77030000D03*
%TD*%
D10*
%TO.C,U19*%
X249330000Y-219860000D03*
D11*
X249330000Y-217320000D03*
X249330000Y-214780000D03*
%TD*%
D14*
%TO.C,C128*%
X192910000Y-217490000D03*
X192910000Y-214990000D03*
%TD*%
D45*
%TO.C,J5*%
X305700000Y-52900000D03*
D46*
X303200000Y-52900000D03*
X300700000Y-52900000D03*
X298200000Y-52900000D03*
%TD*%
D14*
%TO.C,R118*%
X145230000Y-245240000D03*
D13*
X155390000Y-245240000D03*
%TD*%
D12*
%TO.C,U30*%
X265370000Y-149260000D03*
D13*
X262830000Y-149260000D03*
X260290000Y-149260000D03*
X257750000Y-149260000D03*
X255210000Y-149260000D03*
X252670000Y-149260000D03*
X250130000Y-149260000D03*
X247590000Y-149260000D03*
X247590000Y-156880000D03*
X250130000Y-156880000D03*
X252670000Y-156880000D03*
X255210000Y-156880000D03*
X257750000Y-156880000D03*
X260290000Y-156880000D03*
X262830000Y-156880000D03*
X265370000Y-156880000D03*
%TD*%
D14*
%TO.C,R70*%
X174780000Y-218240000D03*
D13*
X184940000Y-218240000D03*
%TD*%
D38*
%TO.C,J3*%
X233200000Y-137340000D03*
X233200000Y-132260000D03*
%TD*%
D12*
%TO.C,U12*%
X72330000Y-106580000D03*
D13*
X72330000Y-109120000D03*
X72330000Y-111660000D03*
X72330000Y-114200000D03*
X79950000Y-114200000D03*
X79950000Y-111660000D03*
X79950000Y-109120000D03*
X79950000Y-106580000D03*
%TD*%
D14*
%TO.C,C103*%
X186130000Y-161860000D03*
X186130000Y-156860000D03*
%TD*%
D12*
%TO.C,R114*%
X49360000Y-168650000D03*
D13*
X51900000Y-168650000D03*
X54440000Y-168650000D03*
X56980000Y-168650000D03*
X59520000Y-168650000D03*
X62060000Y-168650000D03*
X64600000Y-168650000D03*
X67140000Y-168650000D03*
%TD*%
D28*
%TO.C,K2*%
X53490000Y-234440000D03*
D29*
X61110000Y-234440000D03*
X66190000Y-234440000D03*
X71270000Y-234440000D03*
X71270000Y-226820000D03*
X66190000Y-226820000D03*
X61110000Y-226820000D03*
X53490000Y-226820000D03*
%TD*%
D14*
%TO.C,R6*%
X134127500Y-195122500D03*
D13*
X134127500Y-205282500D03*
%TD*%
D18*
%TO.C,C21*%
X281930000Y-191860000D03*
D19*
X281930000Y-196860000D03*
%TD*%
D14*
%TO.C,R82*%
X301170000Y-89390000D03*
D13*
X301170000Y-79230000D03*
%TD*%
D10*
%TO.C,U22*%
X236730000Y-182907677D03*
D11*
X236730000Y-180367677D03*
X236730000Y-177827677D03*
%TD*%
D14*
%TO.C,R72*%
X201910000Y-225640000D03*
D13*
X212070000Y-225640000D03*
%TD*%
D14*
%TO.C,C69*%
X90997500Y-149960000D03*
X90997500Y-152460000D03*
%TD*%
D12*
%TO.C,U13*%
X93910000Y-106400000D03*
D13*
X91370000Y-106400000D03*
X88830000Y-106400000D03*
X86290000Y-106400000D03*
X86290000Y-114020000D03*
X88830000Y-114020000D03*
X91370000Y-114020000D03*
X93910000Y-114020000D03*
%TD*%
D14*
%TO.C,R46*%
X166600000Y-174950000D03*
D13*
X166600000Y-185110000D03*
%TD*%
D20*
%TO.C,Q3*%
X109950000Y-230170000D03*
D21*
X109950000Y-231440000D03*
X109950000Y-232710000D03*
%TD*%
D14*
%TO.C,R113*%
X140230000Y-218040000D03*
D13*
X150390000Y-218040000D03*
%TD*%
D24*
%TO.C,J8*%
X31745000Y-201425000D03*
D25*
X34920000Y-204600000D03*
X34920000Y-198250000D03*
X28570000Y-204600000D03*
X28570000Y-198250000D03*
%TD*%
D47*
%TO.C,C93*%
X181292500Y-130660000D03*
X178167500Y-130660000D03*
%TD*%
D48*
%TO.C,C3*%
X106930000Y-160297500D03*
X106930000Y-163422500D03*
%TD*%
D49*
%TO.C,C88*%
X198923750Y-128666250D03*
X202048750Y-128666250D03*
%TD*%
D50*
%TO.C,C131*%
X180800000Y-107600000D03*
X178725000Y-107600000D03*
%TD*%
D51*
%TO.C,C179*%
X89930000Y-189022500D03*
X89930000Y-191097500D03*
%TD*%
D52*
%TO.C,C146*%
X251362500Y-66000000D03*
X253437500Y-66000000D03*
%TD*%
D51*
%TO.C,C185*%
X90130000Y-216422500D03*
X90130000Y-218497500D03*
%TD*%
D52*
%TO.C,C48*%
X58062500Y-103700000D03*
X60137500Y-103700000D03*
%TD*%
%TO.C,C184*%
X66092500Y-201260000D03*
X68167500Y-201260000D03*
%TD*%
D48*
%TO.C,C4*%
X124855000Y-161097500D03*
X124855000Y-164222500D03*
%TD*%
D50*
%TO.C,C24*%
X48565000Y-108720000D03*
X46490000Y-108720000D03*
%TD*%
D53*
%TO.C,C10*%
X109930000Y-162935000D03*
X109930000Y-160860000D03*
%TD*%
D48*
%TO.C,C29*%
X75130000Y-111497500D03*
X75130000Y-114622500D03*
%TD*%
D47*
%TO.C,C91*%
X181292500Y-127260000D03*
X178167500Y-127260000D03*
%TD*%
D51*
%TO.C,C183*%
X89730000Y-202822500D03*
X89730000Y-204897500D03*
%TD*%
D50*
%TO.C,C18*%
X60137500Y-101100000D03*
X58062500Y-101100000D03*
%TD*%
D51*
%TO.C,C178*%
X53530000Y-229622500D03*
X53530000Y-231697500D03*
%TD*%
D53*
%TO.C,C89*%
X190086250Y-132103750D03*
X190086250Y-130028750D03*
%TD*%
D49*
%TO.C,C94*%
X198931250Y-125576250D03*
X202056250Y-125576250D03*
%TD*%
D53*
%TO.C,C90*%
X192486250Y-132103750D03*
X192486250Y-130028750D03*
%TD*%
D52*
%TO.C,C180*%
X65692500Y-187660000D03*
X67767500Y-187660000D03*
%TD*%
D50*
%TO.C,C135*%
X253437500Y-70400000D03*
X251362500Y-70400000D03*
%TD*%
D51*
%TO.C,C14*%
X117930000Y-168022500D03*
X117930000Y-170097500D03*
%TD*%
D50*
%TO.C,C143*%
X190567500Y-111660000D03*
X188492500Y-111660000D03*
%TD*%
D51*
%TO.C,C66*%
X122530000Y-168185000D03*
X122530000Y-170260000D03*
%TD*%
D52*
%TO.C,C23*%
X133692500Y-164460000D03*
X135767500Y-164460000D03*
%TD*%
D51*
%TO.C,C136*%
X175400000Y-105562500D03*
X175400000Y-107637500D03*
%TD*%
D52*
%TO.C,C181*%
X66130000Y-215060000D03*
X68205000Y-215060000D03*
%TD*%
D53*
%TO.C,C28*%
X75130000Y-109180000D03*
X75130000Y-107105000D03*
%TD*%
D50*
%TO.C,C25*%
X48565000Y-111320000D03*
X46490000Y-111320000D03*
%TD*%
%TO.C,C12*%
X128292500Y-158860000D03*
X126217500Y-158860000D03*
%TD*%
M02*
