%TF.GenerationSoftware,KiCad,Pcbnew,8.0.5*%
%TF.CreationDate,2024-12-06T02:00:11+01:00*%
%TF.ProjectId,ImpedanceAnalyzer,496d7065-6461-46e6-9365-416e616c797a,rev?*%
%TF.SameCoordinates,Original*%
%TF.FileFunction,Paste,Top*%
%TF.FilePolarity,Positive*%
%FSLAX46Y46*%
G04 Gerber Fmt 4.6, Leading zero omitted, Abs format (unit mm)*
G04 Created by KiCad (PCBNEW 8.0.5) date 2024-12-06 02:00:11*
%MOMM*%
%LPD*%
G01*
G04 APERTURE LIST*
G04 Aperture macros list*
%AMRoundRect*
0 Rectangle with rounded corners*
0 $1 Rounding radius*
0 $2 $3 $4 $5 $6 $7 $8 $9 X,Y pos of 4 corners*
0 Add a 4 corners polygon primitive as box body*
4,1,4,$2,$3,$4,$5,$6,$7,$8,$9,$2,$3,0*
0 Add four circle primitives for the rounded corners*
1,1,$1+$1,$2,$3*
1,1,$1+$1,$4,$5*
1,1,$1+$1,$6,$7*
1,1,$1+$1,$8,$9*
0 Add four rect primitives between the rounded corners*
20,1,$1+$1,$2,$3,$4,$5,0*
20,1,$1+$1,$4,$5,$6,$7,0*
20,1,$1+$1,$6,$7,$8,$9,0*
20,1,$1+$1,$8,$9,$2,$3,0*%
G04 Aperture macros list end*
%ADD10RoundRect,0.145000X-0.145000X-0.145000X0.145000X-0.145000X0.145000X0.145000X-0.145000X0.145000X0*%
%ADD11RoundRect,0.062500X-0.375000X-0.062500X0.375000X-0.062500X0.375000X0.062500X-0.375000X0.062500X0*%
%ADD12RoundRect,0.062500X-0.062500X-0.375000X0.062500X-0.375000X0.062500X0.375000X-0.062500X0.375000X0*%
%ADD13RoundRect,0.250000X-0.475000X0.337500X-0.475000X-0.337500X0.475000X-0.337500X0.475000X0.337500X0*%
%ADD14RoundRect,0.250000X0.337500X0.475000X-0.337500X0.475000X-0.337500X-0.475000X0.337500X-0.475000X0*%
%ADD15RoundRect,0.250000X0.475000X-0.337500X0.475000X0.337500X-0.475000X0.337500X-0.475000X-0.337500X0*%
%ADD16RoundRect,0.250000X-0.412500X-0.650000X0.412500X-0.650000X0.412500X0.650000X-0.412500X0.650000X0*%
%ADD17RoundRect,0.250000X0.650000X-0.412500X0.650000X0.412500X-0.650000X0.412500X-0.650000X-0.412500X0*%
%ADD18RoundRect,0.250000X-0.337500X-0.475000X0.337500X-0.475000X0.337500X0.475000X-0.337500X0.475000X0*%
%ADD19RoundRect,0.375000X-0.375000X0.625000X-0.375000X-0.625000X0.375000X-0.625000X0.375000X0.625000X0*%
%ADD20RoundRect,0.500000X-1.400000X0.500000X-1.400000X-0.500000X1.400000X-0.500000X1.400000X0.500000X0*%
%ADD21R,4.000000X5.200000*%
%ADD22RoundRect,0.100000X0.637500X0.100000X-0.637500X0.100000X-0.637500X-0.100000X0.637500X-0.100000X0*%
%ADD23RoundRect,0.237500X0.300000X0.237500X-0.300000X0.237500X-0.300000X-0.237500X0.300000X-0.237500X0*%
%ADD24RoundRect,0.250000X0.450000X-0.350000X0.450000X0.350000X-0.450000X0.350000X-0.450000X-0.350000X0*%
%ADD25RoundRect,0.250000X0.350000X0.450000X-0.350000X0.450000X-0.350000X-0.450000X0.350000X-0.450000X0*%
%ADD26RoundRect,0.250000X-0.350000X-0.450000X0.350000X-0.450000X0.350000X0.450000X-0.350000X0.450000X0*%
%ADD27RoundRect,0.237500X-0.300000X-0.237500X0.300000X-0.237500X0.300000X0.237500X-0.300000X0.237500X0*%
%ADD28RoundRect,0.100000X0.100000X-0.637500X0.100000X0.637500X-0.100000X0.637500X-0.100000X-0.637500X0*%
%ADD29RoundRect,0.172500X0.422500X-0.172500X0.422500X0.172500X-0.422500X0.172500X-0.422500X-0.172500X0*%
%ADD30RoundRect,0.075000X0.075000X-0.650000X0.075000X0.650000X-0.075000X0.650000X-0.075000X-0.650000X0*%
%ADD31RoundRect,0.150000X-0.825000X-0.150000X0.825000X-0.150000X0.825000X0.150000X-0.825000X0.150000X0*%
%ADD32RoundRect,0.250000X-0.450000X0.350000X-0.450000X-0.350000X0.450000X-0.350000X0.450000X0.350000X0*%
%ADD33RoundRect,0.100000X-0.637500X-0.100000X0.637500X-0.100000X0.637500X0.100000X-0.637500X0.100000X0*%
%ADD34RoundRect,0.100000X-0.100000X0.637500X-0.100000X-0.637500X0.100000X-0.637500X0.100000X0.637500X0*%
%ADD35RoundRect,0.237500X0.237500X-0.300000X0.237500X0.300000X-0.237500X0.300000X-0.237500X-0.300000X0*%
%ADD36R,0.450000X1.750000*%
%ADD37RoundRect,0.250000X-0.325000X-1.100000X0.325000X-1.100000X0.325000X1.100000X-0.325000X1.100000X0*%
%ADD38RoundRect,0.250000X0.412500X0.650000X-0.412500X0.650000X-0.412500X-0.650000X0.412500X-0.650000X0*%
%ADD39RoundRect,0.237500X-0.237500X0.300000X-0.237500X-0.300000X0.237500X-0.300000X0.237500X0.300000X0*%
%ADD40RoundRect,0.145000X0.145000X-0.145000X0.145000X0.145000X-0.145000X0.145000X-0.145000X-0.145000X0*%
%ADD41RoundRect,0.062500X0.062500X-0.375000X0.062500X0.375000X-0.062500X0.375000X-0.062500X-0.375000X0*%
%ADD42RoundRect,0.062500X0.375000X-0.062500X0.375000X0.062500X-0.375000X0.062500X-0.375000X-0.062500X0*%
G04 APERTURE END LIST*
D10*
%TO.C,U35*%
X39060000Y-168640000D03*
X39060000Y-169360000D03*
X39780000Y-168640000D03*
X39780000Y-169360000D03*
D11*
X37982500Y-168250000D03*
X37982500Y-168750000D03*
X37982500Y-169250000D03*
X37982500Y-169750000D03*
D12*
X38670000Y-170437500D03*
X39170000Y-170437500D03*
X39670000Y-170437500D03*
X40170000Y-170437500D03*
D11*
X40857500Y-169750000D03*
X40857500Y-169250000D03*
X40857500Y-168750000D03*
X40857500Y-168250000D03*
D12*
X40170000Y-167562500D03*
X39670000Y-167562500D03*
X39170000Y-167562500D03*
X38670000Y-167562500D03*
%TD*%
D13*
%TO.C,C22*%
X135130000Y-166785000D03*
X135130000Y-168860000D03*
%TD*%
D14*
%TO.C,C175*%
X229367500Y-162060000D03*
X227292500Y-162060000D03*
%TD*%
D15*
%TO.C,C127*%
X190110000Y-235677500D03*
X190110000Y-233602500D03*
%TD*%
D14*
%TO.C,C79*%
X54882500Y-141850000D03*
X52807500Y-141850000D03*
%TD*%
D16*
%TO.C,C9*%
X121687500Y-155250000D03*
X124812500Y-155250000D03*
%TD*%
D17*
%TO.C,C86*%
X130250000Y-146812500D03*
X130250000Y-143687500D03*
%TD*%
D18*
%TO.C,C173*%
X312962500Y-120500000D03*
X315037500Y-120500000D03*
%TD*%
%TO.C,C62*%
X77220000Y-143150000D03*
X79295000Y-143150000D03*
%TD*%
D19*
%TO.C,U28*%
X251030000Y-233560000D03*
X248730000Y-233560000D03*
D20*
X248730000Y-239860000D03*
D19*
X246430000Y-233560000D03*
%TD*%
D21*
%TO.C,GND_LINK2*%
X280250000Y-234800000D03*
X275200000Y-234800000D03*
%TD*%
D22*
%TO.C,U8*%
X87920000Y-145500000D03*
X87920000Y-144850000D03*
X87920000Y-144200000D03*
X87920000Y-143550000D03*
X87920000Y-142900000D03*
X87920000Y-142250000D03*
X87920000Y-141600000D03*
X82195000Y-141600000D03*
X82195000Y-142250000D03*
X82195000Y-142900000D03*
X82195000Y-143550000D03*
X82195000Y-144200000D03*
X82195000Y-144850000D03*
X82195000Y-145500000D03*
%TD*%
D23*
%TO.C,C58*%
X75382500Y-135150000D03*
X73657500Y-135150000D03*
%TD*%
D18*
%TO.C,C139*%
X296000000Y-89200000D03*
X298075000Y-89200000D03*
%TD*%
D15*
%TO.C,C161*%
X44750000Y-163037500D03*
X44750000Y-160962500D03*
%TD*%
D24*
%TO.C,R109*%
X314730000Y-145060000D03*
X314730000Y-143060000D03*
%TD*%
D15*
%TO.C,C170*%
X66750000Y-176537500D03*
X66750000Y-174462500D03*
%TD*%
D25*
%TO.C,R9*%
X88120000Y-138250000D03*
X86120000Y-138250000D03*
%TD*%
D18*
%TO.C,C33*%
X93872500Y-116600000D03*
X95947500Y-116600000D03*
%TD*%
D15*
%TO.C,C176*%
X238900000Y-163437500D03*
X238900000Y-161362500D03*
%TD*%
D24*
%TO.C,R4*%
X114605000Y-162825000D03*
X114605000Y-160825000D03*
%TD*%
D26*
%TO.C,R42*%
X185886250Y-129266250D03*
X187886250Y-129266250D03*
%TD*%
D27*
%TO.C,C55*%
X57995000Y-125250000D03*
X59720000Y-125250000D03*
%TD*%
D28*
%TO.C,U9*%
X85970000Y-172335000D03*
X86620000Y-172335000D03*
X87270000Y-172335000D03*
X87920000Y-172335000D03*
X88570000Y-172335000D03*
X89220000Y-172335000D03*
X89870000Y-172335000D03*
X89870000Y-166610000D03*
X89220000Y-166610000D03*
X88570000Y-166610000D03*
X87920000Y-166610000D03*
X87270000Y-166610000D03*
X86620000Y-166610000D03*
X85970000Y-166610000D03*
%TD*%
D18*
%TO.C,C151*%
X239692500Y-197227677D03*
X241767500Y-197227677D03*
%TD*%
D29*
%TO.C,U2*%
X111295000Y-153735000D03*
X112715000Y-153735000D03*
X111295000Y-152915000D03*
X112715000Y-152915000D03*
D30*
X110255000Y-155475000D03*
X110755000Y-155475000D03*
X111255000Y-155475000D03*
X111755000Y-155475000D03*
X112255000Y-155475000D03*
X112755000Y-155475000D03*
X113255000Y-155475000D03*
X113755000Y-155475000D03*
X113755000Y-151175000D03*
X113255000Y-151175000D03*
X112755000Y-151175000D03*
X112255000Y-151175000D03*
X111755000Y-151175000D03*
X111255000Y-151175000D03*
X110755000Y-151175000D03*
X110255000Y-151175000D03*
%TD*%
D31*
%TO.C,U4*%
X111130000Y-166720000D03*
X111130000Y-167990000D03*
X111130000Y-169260000D03*
X111130000Y-170530000D03*
X116080000Y-170530000D03*
X116080000Y-169260000D03*
X116080000Y-167990000D03*
X116080000Y-166720000D03*
%TD*%
D23*
%TO.C,C52*%
X66307500Y-150695000D03*
X64582500Y-150695000D03*
%TD*%
D13*
%TO.C,C165*%
X38920000Y-172212500D03*
X38920000Y-174287500D03*
%TD*%
D18*
%TO.C,C164*%
X41282500Y-175850000D03*
X43357500Y-175850000D03*
%TD*%
D32*
%TO.C,R16*%
X79120000Y-154650000D03*
X79120000Y-156650000D03*
%TD*%
D24*
%TO.C,R100*%
X265330000Y-145060000D03*
X265330000Y-143060000D03*
%TD*%
D27*
%TO.C,C39*%
X54595000Y-160250000D03*
X56320000Y-160250000D03*
%TD*%
D24*
%TO.C,R17*%
X84920000Y-156850000D03*
X84920000Y-154850000D03*
%TD*%
D27*
%TO.C,C203*%
X57995000Y-127250000D03*
X59720000Y-127250000D03*
%TD*%
D18*
%TO.C,C96*%
X205092500Y-173060000D03*
X207167500Y-173060000D03*
%TD*%
D13*
%TO.C,C50*%
X88197500Y-147772500D03*
X88197500Y-149847500D03*
%TD*%
D33*
%TO.C,U11*%
X56382500Y-149446458D03*
X56382500Y-150096458D03*
X56382500Y-150746458D03*
X56382500Y-151396458D03*
X56382500Y-152046458D03*
X56382500Y-152696458D03*
X56382500Y-153346458D03*
X62107500Y-153346458D03*
X62107500Y-152696458D03*
X62107500Y-152046458D03*
X62107500Y-151396458D03*
X62107500Y-150746458D03*
X62107500Y-150096458D03*
X62107500Y-149446458D03*
%TD*%
D24*
%TO.C,R95*%
X240530000Y-145060000D03*
X240530000Y-143060000D03*
%TD*%
D27*
%TO.C,C208*%
X88517500Y-135070000D03*
X90242500Y-135070000D03*
%TD*%
%TO.C,C53*%
X59320000Y-160250000D03*
X61045000Y-160250000D03*
%TD*%
D24*
%TO.C,R2*%
X130930000Y-162825000D03*
X130930000Y-160825000D03*
%TD*%
D16*
%TO.C,C27*%
X65367500Y-118660000D03*
X68492500Y-118660000D03*
%TD*%
D25*
%TO.C,R93*%
X235330000Y-159660000D03*
X233330000Y-159660000D03*
%TD*%
D15*
%TO.C,C152*%
X231130000Y-186865177D03*
X231130000Y-184790177D03*
%TD*%
D13*
%TO.C,C95*%
X195886250Y-129428750D03*
X195886250Y-131503750D03*
%TD*%
D24*
%TO.C,R86*%
X162930000Y-145060000D03*
X162930000Y-143060000D03*
%TD*%
%TO.C,R105*%
X304530000Y-145060000D03*
X304530000Y-143060000D03*
%TD*%
D18*
%TO.C,C211*%
X246455000Y-230310000D03*
X248530000Y-230310000D03*
%TD*%
D24*
%TO.C,R97*%
X230330000Y-145060000D03*
X230330000Y-143060000D03*
%TD*%
D23*
%TO.C,C200*%
X49207500Y-160450000D03*
X47482500Y-160450000D03*
%TD*%
D24*
%TO.C,R87*%
X155330000Y-145060000D03*
X155330000Y-143060000D03*
%TD*%
D18*
%TO.C,C49*%
X93997500Y-149810000D03*
X96072500Y-149810000D03*
%TD*%
D26*
%TO.C,R7*%
X85510000Y-116767677D03*
X87510000Y-116767677D03*
%TD*%
D15*
%TO.C,C126*%
X190110000Y-221477500D03*
X190110000Y-219402500D03*
%TD*%
D26*
%TO.C,R92*%
X227730000Y-159660000D03*
X229730000Y-159660000D03*
%TD*%
D15*
%TO.C,C8*%
X184686250Y-126103750D03*
X184686250Y-124028750D03*
%TD*%
D24*
%TO.C,R98*%
X290330000Y-145060000D03*
X290330000Y-143060000D03*
%TD*%
D18*
%TO.C,C171*%
X61712500Y-178000000D03*
X63787500Y-178000000D03*
%TD*%
D14*
%TO.C,C190*%
X117147500Y-212840000D03*
X115072500Y-212840000D03*
%TD*%
D13*
%TO.C,C182*%
X157900000Y-232792500D03*
X157900000Y-234867500D03*
%TD*%
D34*
%TO.C,U17*%
X191740000Y-188377500D03*
X191090000Y-188377500D03*
X190440000Y-188377500D03*
X189790000Y-188377500D03*
X189140000Y-188377500D03*
X188490000Y-188377500D03*
X187840000Y-188377500D03*
X187840000Y-194102500D03*
X188490000Y-194102500D03*
X189140000Y-194102500D03*
X189790000Y-194102500D03*
X190440000Y-194102500D03*
X191090000Y-194102500D03*
X191740000Y-194102500D03*
%TD*%
D29*
%TO.C,U1*%
X127910000Y-153825000D03*
X129330000Y-153825000D03*
X127910000Y-153005000D03*
X129330000Y-153005000D03*
D30*
X126870000Y-155565000D03*
X127370000Y-155565000D03*
X127870000Y-155565000D03*
X128370000Y-155565000D03*
X128870000Y-155565000D03*
X129370000Y-155565000D03*
X129870000Y-155565000D03*
X130370000Y-155565000D03*
X130370000Y-151265000D03*
X129870000Y-151265000D03*
X129370000Y-151265000D03*
X128870000Y-151265000D03*
X128370000Y-151265000D03*
X127870000Y-151265000D03*
X127370000Y-151265000D03*
X126870000Y-151265000D03*
%TD*%
D27*
%TO.C,C56*%
X76395000Y-145750000D03*
X78120000Y-145750000D03*
%TD*%
D14*
%TO.C,C196*%
X106547500Y-231240000D03*
X104472500Y-231240000D03*
%TD*%
D32*
%TO.C,R8*%
X82930000Y-112860000D03*
X82930000Y-114860000D03*
%TD*%
D25*
%TO.C,R94*%
X235330000Y-162060000D03*
X233330000Y-162060000D03*
%TD*%
D15*
%TO.C,C162*%
X38750000Y-163787500D03*
X38750000Y-161712500D03*
%TD*%
D14*
%TO.C,C141*%
X298037500Y-91800000D03*
X295962500Y-91800000D03*
%TD*%
D24*
%TO.C,R99*%
X282730000Y-145060000D03*
X282730000Y-143060000D03*
%TD*%
D13*
%TO.C,C147*%
X251130000Y-192185000D03*
X251130000Y-194260000D03*
%TD*%
D27*
%TO.C,C54*%
X68920000Y-160250000D03*
X70645000Y-160250000D03*
%TD*%
D18*
%TO.C,C149*%
X239892500Y-181427677D03*
X241967500Y-181427677D03*
%TD*%
D14*
%TO.C,C134*%
X234237500Y-128800000D03*
X232162500Y-128800000D03*
%TD*%
D27*
%TO.C,C207*%
X95137500Y-134810000D03*
X96862500Y-134810000D03*
%TD*%
D13*
%TO.C,C5*%
X109930000Y-158622500D03*
X109930000Y-160697500D03*
%TD*%
D18*
%TO.C,C31*%
X80482500Y-161650000D03*
X82557500Y-161650000D03*
%TD*%
D25*
%TO.C,R108*%
X309610000Y-160460000D03*
X307610000Y-160460000D03*
%TD*%
D35*
%TO.C,C38*%
X53120000Y-154912500D03*
X53120000Y-153187500D03*
%TD*%
D14*
%TO.C,C153*%
X307807500Y-92030000D03*
X305732500Y-92030000D03*
%TD*%
D32*
%TO.C,R19*%
X97110000Y-106400000D03*
X97110000Y-108400000D03*
%TD*%
D31*
%TO.C,U3*%
X127255000Y-166720000D03*
X127255000Y-167990000D03*
X127255000Y-169260000D03*
X127255000Y-170530000D03*
X132205000Y-170530000D03*
X132205000Y-169260000D03*
X132205000Y-167990000D03*
X132205000Y-166720000D03*
%TD*%
D36*
%TO.C,U6*%
X195911250Y-119466250D03*
X195261250Y-119466250D03*
X194611250Y-119466250D03*
X193961250Y-119466250D03*
X193311250Y-119466250D03*
X192661250Y-119466250D03*
X192011250Y-119466250D03*
X191361250Y-119466250D03*
X190711250Y-119466250D03*
X190061250Y-119466250D03*
X189411250Y-119466250D03*
X188761250Y-119466250D03*
X188111250Y-119466250D03*
X187461250Y-119466250D03*
X187461250Y-126666250D03*
X188111250Y-126666250D03*
X188761250Y-126666250D03*
X189411250Y-126666250D03*
X190061250Y-126666250D03*
X190711250Y-126666250D03*
X191361250Y-126666250D03*
X192011250Y-126666250D03*
X192661250Y-126666250D03*
X193311250Y-126666250D03*
X193961250Y-126666250D03*
X194611250Y-126666250D03*
X195261250Y-126666250D03*
X195911250Y-126666250D03*
%TD*%
D37*
%TO.C,C212*%
X248455000Y-243260000D03*
X251405000Y-243260000D03*
%TD*%
D18*
%TO.C,C64*%
X106692500Y-173460000D03*
X108767500Y-173460000D03*
%TD*%
D14*
%TO.C,C192*%
X134165000Y-192402500D03*
X132090000Y-192402500D03*
%TD*%
%TO.C,C97*%
X175967500Y-173060000D03*
X173892500Y-173060000D03*
%TD*%
D18*
%TO.C,C156*%
X246092500Y-224060000D03*
X248167500Y-224060000D03*
%TD*%
D15*
%TO.C,C167*%
X50720000Y-176450000D03*
X50720000Y-174375000D03*
%TD*%
D14*
%TO.C,C174*%
X145367500Y-162060000D03*
X143292500Y-162060000D03*
%TD*%
D13*
%TO.C,C188*%
X114510000Y-215602500D03*
X114510000Y-217677500D03*
%TD*%
D15*
%TO.C,C148*%
X251130000Y-186897500D03*
X251130000Y-184822500D03*
%TD*%
D13*
%TO.C,C155*%
X252300000Y-214862500D03*
X252300000Y-216937500D03*
%TD*%
D15*
%TO.C,C87*%
X128000000Y-148037500D03*
X128000000Y-145962500D03*
%TD*%
D18*
%TO.C,C194*%
X119672500Y-192640000D03*
X121747500Y-192640000D03*
%TD*%
D24*
%TO.C,R23*%
X82320000Y-155450000D03*
X82320000Y-153450000D03*
%TD*%
D13*
%TO.C,C6*%
X126255000Y-158822500D03*
X126255000Y-160897500D03*
%TD*%
D23*
%TO.C,C206*%
X93582500Y-139150000D03*
X91857500Y-139150000D03*
%TD*%
D18*
%TO.C,C187*%
X127872500Y-223240000D03*
X129947500Y-223240000D03*
%TD*%
D24*
%TO.C,R104*%
X280330000Y-145060000D03*
X280330000Y-143060000D03*
%TD*%
D18*
%TO.C,C2*%
X112167500Y-158425000D03*
X114242500Y-158425000D03*
%TD*%
D21*
%TO.C,GND_LINK1*%
X216650000Y-143600000D03*
X221700000Y-143600000D03*
%TD*%
D25*
%TO.C,R90*%
X157730000Y-161060000D03*
X155730000Y-161060000D03*
%TD*%
D14*
%TO.C,C75*%
X83357500Y-171810000D03*
X81282500Y-171810000D03*
%TD*%
D18*
%TO.C,C157*%
X236692500Y-226827677D03*
X238767500Y-226827677D03*
%TD*%
D23*
%TO.C,C19*%
X53645000Y-150695000D03*
X51920000Y-150695000D03*
%TD*%
%TO.C,C40*%
X93582500Y-141150000D03*
X91857500Y-141150000D03*
%TD*%
D27*
%TO.C,C205*%
X91857500Y-146350000D03*
X93582500Y-146350000D03*
%TD*%
D13*
%TO.C,C186*%
X157900000Y-216392500D03*
X157900000Y-218467500D03*
%TD*%
D14*
%TO.C,C30*%
X82520000Y-177650000D03*
X80445000Y-177650000D03*
%TD*%
D32*
%TO.C,R110*%
X312130000Y-159460000D03*
X312130000Y-161460000D03*
%TD*%
D18*
%TO.C,C71*%
X93872500Y-119400000D03*
X95947500Y-119400000D03*
%TD*%
D13*
%TO.C,C138*%
X310400000Y-80362500D03*
X310400000Y-82437500D03*
%TD*%
D27*
%TO.C,C37*%
X95137500Y-132810000D03*
X96862500Y-132810000D03*
%TD*%
D14*
%TO.C,C82*%
X63682500Y-147450000D03*
X61607500Y-147450000D03*
%TD*%
D18*
%TO.C,C189*%
X127872500Y-220840000D03*
X129947500Y-220840000D03*
%TD*%
D38*
%TO.C,C11*%
X107562500Y-156000000D03*
X104437500Y-156000000D03*
%TD*%
D14*
%TO.C,C26*%
X56247500Y-117460000D03*
X54172500Y-117460000D03*
%TD*%
D15*
%TO.C,C121*%
X190190000Y-199515000D03*
X190190000Y-197440000D03*
%TD*%
D24*
%TO.C,R88*%
X152730000Y-145060000D03*
X152730000Y-143060000D03*
%TD*%
D18*
%TO.C,C59*%
X301692500Y-162660000D03*
X303767500Y-162660000D03*
%TD*%
D27*
%TO.C,C201*%
X59320000Y-158340000D03*
X61045000Y-158340000D03*
%TD*%
D39*
%TO.C,C51*%
X64920000Y-153125000D03*
X64920000Y-154850000D03*
%TD*%
D25*
%TO.C,R11*%
X103120000Y-142450000D03*
X101120000Y-142450000D03*
%TD*%
%TO.C,R91*%
X150130000Y-161060000D03*
X148130000Y-161060000D03*
%TD*%
D27*
%TO.C,C209*%
X80655000Y-135070000D03*
X82380000Y-135070000D03*
%TD*%
D25*
%TO.C,R12*%
X103120000Y-145450000D03*
X101120000Y-145450000D03*
%TD*%
D14*
%TO.C,C177*%
X146530000Y-164460000D03*
X144455000Y-164460000D03*
%TD*%
D13*
%TO.C,C65*%
X124855000Y-168222500D03*
X124855000Y-170297500D03*
%TD*%
D15*
%TO.C,C85*%
X112730000Y-148537500D03*
X112730000Y-146462500D03*
%TD*%
D40*
%TO.C,U25*%
X57320000Y-179050000D03*
X58040000Y-179050000D03*
X57320000Y-178330000D03*
X58040000Y-178330000D03*
D41*
X56930000Y-180127500D03*
X57430000Y-180127500D03*
X57930000Y-180127500D03*
X58430000Y-180127500D03*
D42*
X59117500Y-179440000D03*
X59117500Y-178940000D03*
X59117500Y-178440000D03*
X59117500Y-177940000D03*
D41*
X58430000Y-177252500D03*
X57930000Y-177252500D03*
X57430000Y-177252500D03*
X56930000Y-177252500D03*
D42*
X56242500Y-177940000D03*
X56242500Y-178440000D03*
X56242500Y-178940000D03*
X56242500Y-179440000D03*
%TD*%
D27*
%TO.C,C57*%
X80655000Y-133070000D03*
X82380000Y-133070000D03*
%TD*%
D15*
%TO.C,C13*%
X117130000Y-164897500D03*
X117130000Y-162822500D03*
%TD*%
D24*
%TO.C,R3*%
X112205000Y-162825000D03*
X112205000Y-160825000D03*
%TD*%
%TO.C,R103*%
X247730000Y-145060000D03*
X247730000Y-143060000D03*
%TD*%
D15*
%TO.C,C120*%
X189990000Y-185040000D03*
X189990000Y-182965000D03*
%TD*%
D18*
%TO.C,C130*%
X136562500Y-65200000D03*
X138637500Y-65200000D03*
%TD*%
%TO.C,C63*%
X106655000Y-170860000D03*
X108730000Y-170860000D03*
%TD*%
D14*
%TO.C,C150*%
X232167500Y-177907677D03*
X230092500Y-177907677D03*
%TD*%
D18*
%TO.C,C76*%
X81282500Y-167210000D03*
X83357500Y-167210000D03*
%TD*%
D14*
%TO.C,C159*%
X239567500Y-222427677D03*
X237492500Y-222427677D03*
%TD*%
D15*
%TO.C,C61*%
X72720000Y-143087500D03*
X72720000Y-141012500D03*
%TD*%
D24*
%TO.C,R107*%
X307130000Y-145060000D03*
X307130000Y-143060000D03*
%TD*%
D18*
%TO.C,C1*%
X128692500Y-158425000D03*
X130767500Y-158425000D03*
%TD*%
D32*
%TO.C,R10*%
X100320000Y-149050000D03*
X100320000Y-151050000D03*
%TD*%
%TO.C,R15*%
X89920000Y-156050000D03*
X89920000Y-158050000D03*
%TD*%
D27*
%TO.C,C199*%
X54595000Y-158340000D03*
X56320000Y-158340000D03*
%TD*%
D26*
%TO.C,R106*%
X302530000Y-160060000D03*
X304530000Y-160060000D03*
%TD*%
D24*
%TO.C,R101*%
X257730000Y-145060000D03*
X257730000Y-143060000D03*
%TD*%
D27*
%TO.C,C204*%
X76395000Y-147750000D03*
X78120000Y-147750000D03*
%TD*%
D18*
%TO.C,C154*%
X301132500Y-92030000D03*
X303207500Y-92030000D03*
%TD*%
D23*
%TO.C,C35*%
X49182500Y-158450000D03*
X47457500Y-158450000D03*
%TD*%
D34*
%TO.C,U14*%
X191660000Y-224577500D03*
X191010000Y-224577500D03*
X190360000Y-224577500D03*
X189710000Y-224577500D03*
X189060000Y-224577500D03*
X188410000Y-224577500D03*
X187760000Y-224577500D03*
X187760000Y-230302500D03*
X188410000Y-230302500D03*
X189060000Y-230302500D03*
X189710000Y-230302500D03*
X190360000Y-230302500D03*
X191010000Y-230302500D03*
X191660000Y-230302500D03*
%TD*%
D25*
%TO.C,R89*%
X155330000Y-164060000D03*
X153330000Y-164060000D03*
%TD*%
D13*
%TO.C,C158*%
X240930000Y-232390177D03*
X240930000Y-234465177D03*
%TD*%
D24*
%TO.C,R1*%
X128530000Y-162825000D03*
X128530000Y-160825000D03*
%TD*%
D27*
%TO.C,C41*%
X88517500Y-133070000D03*
X90242500Y-133070000D03*
%TD*%
D13*
%TO.C,C92*%
X193486250Y-129428750D03*
X193486250Y-131503750D03*
%TD*%
D15*
%TO.C,C160*%
X228930000Y-211665177D03*
X228930000Y-209590177D03*
%TD*%
D27*
%TO.C,C202*%
X68920000Y-158250000D03*
X70645000Y-158250000D03*
%TD*%
D14*
%TO.C,C168*%
X53037500Y-178500000D03*
X50962500Y-178500000D03*
%TD*%
D27*
%TO.C,C36*%
X91857500Y-144350000D03*
X93582500Y-144350000D03*
%TD*%
D14*
%TO.C,C81*%
X56682500Y-147450000D03*
X54607500Y-147450000D03*
%TD*%
D23*
%TO.C,C210*%
X75382500Y-133150000D03*
X73657500Y-133150000D03*
%TD*%
D15*
%TO.C,C198*%
X106110000Y-239877500D03*
X106110000Y-237802500D03*
%TD*%
D24*
%TO.C,R96*%
X232930000Y-145060000D03*
X232930000Y-143060000D03*
%TD*%
D15*
%TO.C,C140*%
X310400000Y-87037500D03*
X310400000Y-84962500D03*
%TD*%
D24*
%TO.C,R102*%
X255130000Y-145060000D03*
X255130000Y-143060000D03*
%TD*%
D17*
%TO.C,C7*%
X115250000Y-146562500D03*
X115250000Y-143437500D03*
%TD*%
D15*
%TO.C,C34*%
X99910000Y-108437500D03*
X99910000Y-106362500D03*
%TD*%
D14*
%TO.C,C80*%
X64682500Y-141650000D03*
X62607500Y-141650000D03*
%TD*%
M02*
