%TF.GenerationSoftware,KiCad,Pcbnew,8.0.5*%
%TF.CreationDate,2024-12-06T02:00:07+01:00*%
%TF.ProjectId,ImpedanceAnalyzer,496d7065-6461-46e6-9365-416e616c797a,rev?*%
%TF.SameCoordinates,Original*%
%TF.FileFunction,Drillmap*%
%TF.FilePolarity,Positive*%
%FSLAX45Y45*%
G04 Gerber Fmt 4.5, Leading zero omitted, Abs format (unit mm)*
G04 Created by KiCad (PCBNEW 8.0.5) date 2024-12-06 02:00:07*
%MOMM*%
%LPD*%
G01*
G04 APERTURE LIST*
%ADD10C,0.050000*%
%ADD11C,0.200000*%
%ADD12C,0.300000*%
%ADD13C,0.320000*%
G04 APERTURE END LIST*
D10*
X2000000Y-4000000D02*
X33000000Y-4000000D01*
X33000000Y-26000000D01*
X2000000Y-26000000D01*
X2000000Y-4000000D01*
D11*
D12*
X20810000Y-9806000D02*
X21110000Y-10106000D01*
X21110000Y-9806000D02*
X20810000Y-10106000D01*
X25890000Y-11330000D02*
X26190000Y-11630000D01*
X26190000Y-11330000D02*
X25890000Y-11630000D01*
X26017000Y-6504000D02*
X26317000Y-6804000D01*
X26317000Y-6504000D02*
X26017000Y-6804000D01*
D13*
X3160000Y-5000000D02*
G75*
G02*
X2840000Y-5000000I-160000J0D01*
G01*
X2840000Y-5000000D02*
G75*
G02*
X3160000Y-5000000I160000J0D01*
G01*
X3160000Y-25000000D02*
G75*
G02*
X2840000Y-25000000I-160000J0D01*
G01*
X2840000Y-25000000D02*
G75*
G02*
X3160000Y-25000000I160000J0D01*
G01*
X15160000Y-12900000D02*
G75*
G02*
X14840000Y-12900000I-160000J0D01*
G01*
X14840000Y-12900000D02*
G75*
G02*
X15160000Y-12900000I160000J0D01*
G01*
X32660000Y-5000000D02*
G75*
G02*
X32340000Y-5000000I-160000J0D01*
G01*
X32340000Y-5000000D02*
G75*
G02*
X32660000Y-5000000I160000J0D01*
G01*
X32660000Y-25000000D02*
G75*
G02*
X32340000Y-25000000I-160000J0D01*
G01*
X32340000Y-25000000D02*
G75*
G02*
X32660000Y-25000000I160000J0D01*
G01*
D11*
X2258277Y-26313984D02*
X2258277Y-26113984D01*
X2258277Y-26113984D02*
X2305896Y-26113984D01*
X2305896Y-26113984D02*
X2334467Y-26123508D01*
X2334467Y-26123508D02*
X2353515Y-26142555D01*
X2353515Y-26142555D02*
X2363039Y-26161603D01*
X2363039Y-26161603D02*
X2372563Y-26199698D01*
X2372563Y-26199698D02*
X2372563Y-26228269D01*
X2372563Y-26228269D02*
X2363039Y-26266365D01*
X2363039Y-26266365D02*
X2353515Y-26285412D01*
X2353515Y-26285412D02*
X2334467Y-26304460D01*
X2334467Y-26304460D02*
X2305896Y-26313984D01*
X2305896Y-26313984D02*
X2258277Y-26313984D01*
X2458277Y-26313984D02*
X2458277Y-26180650D01*
X2458277Y-26218746D02*
X2467801Y-26199698D01*
X2467801Y-26199698D02*
X2477324Y-26190174D01*
X2477324Y-26190174D02*
X2496372Y-26180650D01*
X2496372Y-26180650D02*
X2515420Y-26180650D01*
X2582086Y-26313984D02*
X2582086Y-26180650D01*
X2582086Y-26113984D02*
X2572563Y-26123508D01*
X2572563Y-26123508D02*
X2582086Y-26133031D01*
X2582086Y-26133031D02*
X2591610Y-26123508D01*
X2591610Y-26123508D02*
X2582086Y-26113984D01*
X2582086Y-26113984D02*
X2582086Y-26133031D01*
X2705896Y-26313984D02*
X2686848Y-26304460D01*
X2686848Y-26304460D02*
X2677324Y-26285412D01*
X2677324Y-26285412D02*
X2677324Y-26113984D01*
X2810658Y-26313984D02*
X2791610Y-26304460D01*
X2791610Y-26304460D02*
X2782086Y-26285412D01*
X2782086Y-26285412D02*
X2782086Y-26113984D01*
X3039229Y-26313984D02*
X3039229Y-26113984D01*
X3039229Y-26113984D02*
X3105896Y-26256841D01*
X3105896Y-26256841D02*
X3172562Y-26113984D01*
X3172562Y-26113984D02*
X3172562Y-26313984D01*
X3353515Y-26313984D02*
X3353515Y-26209222D01*
X3353515Y-26209222D02*
X3343991Y-26190174D01*
X3343991Y-26190174D02*
X3324943Y-26180650D01*
X3324943Y-26180650D02*
X3286848Y-26180650D01*
X3286848Y-26180650D02*
X3267801Y-26190174D01*
X3353515Y-26304460D02*
X3334467Y-26313984D01*
X3334467Y-26313984D02*
X3286848Y-26313984D01*
X3286848Y-26313984D02*
X3267801Y-26304460D01*
X3267801Y-26304460D02*
X3258277Y-26285412D01*
X3258277Y-26285412D02*
X3258277Y-26266365D01*
X3258277Y-26266365D02*
X3267801Y-26247317D01*
X3267801Y-26247317D02*
X3286848Y-26237793D01*
X3286848Y-26237793D02*
X3334467Y-26237793D01*
X3334467Y-26237793D02*
X3353515Y-26228269D01*
X3448753Y-26180650D02*
X3448753Y-26380650D01*
X3448753Y-26190174D02*
X3467801Y-26180650D01*
X3467801Y-26180650D02*
X3505896Y-26180650D01*
X3505896Y-26180650D02*
X3524943Y-26190174D01*
X3524943Y-26190174D02*
X3534467Y-26199698D01*
X3534467Y-26199698D02*
X3543991Y-26218746D01*
X3543991Y-26218746D02*
X3543991Y-26275888D01*
X3543991Y-26275888D02*
X3534467Y-26294936D01*
X3534467Y-26294936D02*
X3524943Y-26304460D01*
X3524943Y-26304460D02*
X3505896Y-26313984D01*
X3505896Y-26313984D02*
X3467801Y-26313984D01*
X3467801Y-26313984D02*
X3448753Y-26304460D01*
X3629705Y-26294936D02*
X3639229Y-26304460D01*
X3639229Y-26304460D02*
X3629705Y-26313984D01*
X3629705Y-26313984D02*
X3620182Y-26304460D01*
X3620182Y-26304460D02*
X3629705Y-26294936D01*
X3629705Y-26294936D02*
X3629705Y-26313984D01*
X3629705Y-26190174D02*
X3639229Y-26199698D01*
X3639229Y-26199698D02*
X3629705Y-26209222D01*
X3629705Y-26209222D02*
X3620182Y-26199698D01*
X3620182Y-26199698D02*
X3629705Y-26190174D01*
X3629705Y-26190174D02*
X3629705Y-26209222D01*
X1797500Y-26542500D02*
X1997500Y-26742500D01*
X1997500Y-26542500D02*
X1797500Y-26742500D01*
X2239229Y-26533984D02*
X2363039Y-26533984D01*
X2363039Y-26533984D02*
X2296372Y-26610174D01*
X2296372Y-26610174D02*
X2324944Y-26610174D01*
X2324944Y-26610174D02*
X2343991Y-26619698D01*
X2343991Y-26619698D02*
X2353515Y-26629222D01*
X2353515Y-26629222D02*
X2363039Y-26648269D01*
X2363039Y-26648269D02*
X2363039Y-26695888D01*
X2363039Y-26695888D02*
X2353515Y-26714936D01*
X2353515Y-26714936D02*
X2343991Y-26724460D01*
X2343991Y-26724460D02*
X2324944Y-26733984D01*
X2324944Y-26733984D02*
X2267801Y-26733984D01*
X2267801Y-26733984D02*
X2248753Y-26724460D01*
X2248753Y-26724460D02*
X2239229Y-26714936D01*
X2448753Y-26714936D02*
X2458277Y-26724460D01*
X2458277Y-26724460D02*
X2448753Y-26733984D01*
X2448753Y-26733984D02*
X2439229Y-26724460D01*
X2439229Y-26724460D02*
X2448753Y-26714936D01*
X2448753Y-26714936D02*
X2448753Y-26733984D01*
X2582086Y-26533984D02*
X2601134Y-26533984D01*
X2601134Y-26533984D02*
X2620182Y-26543508D01*
X2620182Y-26543508D02*
X2629705Y-26553031D01*
X2629705Y-26553031D02*
X2639229Y-26572079D01*
X2639229Y-26572079D02*
X2648753Y-26610174D01*
X2648753Y-26610174D02*
X2648753Y-26657793D01*
X2648753Y-26657793D02*
X2639229Y-26695888D01*
X2639229Y-26695888D02*
X2629705Y-26714936D01*
X2629705Y-26714936D02*
X2620182Y-26724460D01*
X2620182Y-26724460D02*
X2601134Y-26733984D01*
X2601134Y-26733984D02*
X2582086Y-26733984D01*
X2582086Y-26733984D02*
X2563039Y-26724460D01*
X2563039Y-26724460D02*
X2553515Y-26714936D01*
X2553515Y-26714936D02*
X2543991Y-26695888D01*
X2543991Y-26695888D02*
X2534467Y-26657793D01*
X2534467Y-26657793D02*
X2534467Y-26610174D01*
X2534467Y-26610174D02*
X2543991Y-26572079D01*
X2543991Y-26572079D02*
X2553515Y-26553031D01*
X2553515Y-26553031D02*
X2563039Y-26543508D01*
X2563039Y-26543508D02*
X2582086Y-26533984D01*
X2772563Y-26533984D02*
X2791610Y-26533984D01*
X2791610Y-26533984D02*
X2810658Y-26543508D01*
X2810658Y-26543508D02*
X2820182Y-26553031D01*
X2820182Y-26553031D02*
X2829705Y-26572079D01*
X2829705Y-26572079D02*
X2839229Y-26610174D01*
X2839229Y-26610174D02*
X2839229Y-26657793D01*
X2839229Y-26657793D02*
X2829705Y-26695888D01*
X2829705Y-26695888D02*
X2820182Y-26714936D01*
X2820182Y-26714936D02*
X2810658Y-26724460D01*
X2810658Y-26724460D02*
X2791610Y-26733984D01*
X2791610Y-26733984D02*
X2772563Y-26733984D01*
X2772563Y-26733984D02*
X2753515Y-26724460D01*
X2753515Y-26724460D02*
X2743991Y-26714936D01*
X2743991Y-26714936D02*
X2734467Y-26695888D01*
X2734467Y-26695888D02*
X2724944Y-26657793D01*
X2724944Y-26657793D02*
X2724944Y-26610174D01*
X2724944Y-26610174D02*
X2734467Y-26572079D01*
X2734467Y-26572079D02*
X2743991Y-26553031D01*
X2743991Y-26553031D02*
X2753515Y-26543508D01*
X2753515Y-26543508D02*
X2772563Y-26533984D01*
X2963039Y-26533984D02*
X2982086Y-26533984D01*
X2982086Y-26533984D02*
X3001134Y-26543508D01*
X3001134Y-26543508D02*
X3010658Y-26553031D01*
X3010658Y-26553031D02*
X3020182Y-26572079D01*
X3020182Y-26572079D02*
X3029705Y-26610174D01*
X3029705Y-26610174D02*
X3029705Y-26657793D01*
X3029705Y-26657793D02*
X3020182Y-26695888D01*
X3020182Y-26695888D02*
X3010658Y-26714936D01*
X3010658Y-26714936D02*
X3001134Y-26724460D01*
X3001134Y-26724460D02*
X2982086Y-26733984D01*
X2982086Y-26733984D02*
X2963039Y-26733984D01*
X2963039Y-26733984D02*
X2943991Y-26724460D01*
X2943991Y-26724460D02*
X2934467Y-26714936D01*
X2934467Y-26714936D02*
X2924943Y-26695888D01*
X2924943Y-26695888D02*
X2915420Y-26657793D01*
X2915420Y-26657793D02*
X2915420Y-26610174D01*
X2915420Y-26610174D02*
X2924943Y-26572079D01*
X2924943Y-26572079D02*
X2934467Y-26553031D01*
X2934467Y-26553031D02*
X2943991Y-26543508D01*
X2943991Y-26543508D02*
X2963039Y-26533984D01*
X3115420Y-26733984D02*
X3115420Y-26600650D01*
X3115420Y-26619698D02*
X3124943Y-26610174D01*
X3124943Y-26610174D02*
X3143991Y-26600650D01*
X3143991Y-26600650D02*
X3172563Y-26600650D01*
X3172563Y-26600650D02*
X3191610Y-26610174D01*
X3191610Y-26610174D02*
X3201134Y-26629222D01*
X3201134Y-26629222D02*
X3201134Y-26733984D01*
X3201134Y-26629222D02*
X3210658Y-26610174D01*
X3210658Y-26610174D02*
X3229705Y-26600650D01*
X3229705Y-26600650D02*
X3258277Y-26600650D01*
X3258277Y-26600650D02*
X3277324Y-26610174D01*
X3277324Y-26610174D02*
X3286848Y-26629222D01*
X3286848Y-26629222D02*
X3286848Y-26733984D01*
X3382086Y-26733984D02*
X3382086Y-26600650D01*
X3382086Y-26619698D02*
X3391610Y-26610174D01*
X3391610Y-26610174D02*
X3410658Y-26600650D01*
X3410658Y-26600650D02*
X3439229Y-26600650D01*
X3439229Y-26600650D02*
X3458277Y-26610174D01*
X3458277Y-26610174D02*
X3467801Y-26629222D01*
X3467801Y-26629222D02*
X3467801Y-26733984D01*
X3467801Y-26629222D02*
X3477324Y-26610174D01*
X3477324Y-26610174D02*
X3496372Y-26600650D01*
X3496372Y-26600650D02*
X3524943Y-26600650D01*
X3524943Y-26600650D02*
X3543991Y-26610174D01*
X3543991Y-26610174D02*
X3553515Y-26629222D01*
X3553515Y-26629222D02*
X3553515Y-26733984D01*
X3943991Y-26524460D02*
X3772563Y-26781603D01*
X4201134Y-26533984D02*
X4220182Y-26533984D01*
X4220182Y-26533984D02*
X4239229Y-26543508D01*
X4239229Y-26543508D02*
X4248753Y-26553031D01*
X4248753Y-26553031D02*
X4258277Y-26572079D01*
X4258277Y-26572079D02*
X4267801Y-26610174D01*
X4267801Y-26610174D02*
X4267801Y-26657793D01*
X4267801Y-26657793D02*
X4258277Y-26695888D01*
X4258277Y-26695888D02*
X4248753Y-26714936D01*
X4248753Y-26714936D02*
X4239229Y-26724460D01*
X4239229Y-26724460D02*
X4220182Y-26733984D01*
X4220182Y-26733984D02*
X4201134Y-26733984D01*
X4201134Y-26733984D02*
X4182086Y-26724460D01*
X4182086Y-26724460D02*
X4172563Y-26714936D01*
X4172563Y-26714936D02*
X4163039Y-26695888D01*
X4163039Y-26695888D02*
X4153515Y-26657793D01*
X4153515Y-26657793D02*
X4153515Y-26610174D01*
X4153515Y-26610174D02*
X4163039Y-26572079D01*
X4163039Y-26572079D02*
X4172563Y-26553031D01*
X4172563Y-26553031D02*
X4182086Y-26543508D01*
X4182086Y-26543508D02*
X4201134Y-26533984D01*
X4353515Y-26714936D02*
X4363039Y-26724460D01*
X4363039Y-26724460D02*
X4353515Y-26733984D01*
X4353515Y-26733984D02*
X4343991Y-26724460D01*
X4343991Y-26724460D02*
X4353515Y-26714936D01*
X4353515Y-26714936D02*
X4353515Y-26733984D01*
X4553515Y-26733984D02*
X4439229Y-26733984D01*
X4496372Y-26733984D02*
X4496372Y-26533984D01*
X4496372Y-26533984D02*
X4477325Y-26562555D01*
X4477325Y-26562555D02*
X4458277Y-26581603D01*
X4458277Y-26581603D02*
X4439229Y-26591127D01*
X4743991Y-26733984D02*
X4629706Y-26733984D01*
X4686848Y-26733984D02*
X4686848Y-26533984D01*
X4686848Y-26533984D02*
X4667801Y-26562555D01*
X4667801Y-26562555D02*
X4648753Y-26581603D01*
X4648753Y-26581603D02*
X4629706Y-26591127D01*
X4858277Y-26619698D02*
X4839229Y-26610174D01*
X4839229Y-26610174D02*
X4829706Y-26600650D01*
X4829706Y-26600650D02*
X4820182Y-26581603D01*
X4820182Y-26581603D02*
X4820182Y-26572079D01*
X4820182Y-26572079D02*
X4829706Y-26553031D01*
X4829706Y-26553031D02*
X4839229Y-26543508D01*
X4839229Y-26543508D02*
X4858277Y-26533984D01*
X4858277Y-26533984D02*
X4896372Y-26533984D01*
X4896372Y-26533984D02*
X4915420Y-26543508D01*
X4915420Y-26543508D02*
X4924944Y-26553031D01*
X4924944Y-26553031D02*
X4934468Y-26572079D01*
X4934468Y-26572079D02*
X4934468Y-26581603D01*
X4934468Y-26581603D02*
X4924944Y-26600650D01*
X4924944Y-26600650D02*
X4915420Y-26610174D01*
X4915420Y-26610174D02*
X4896372Y-26619698D01*
X4896372Y-26619698D02*
X4858277Y-26619698D01*
X4858277Y-26619698D02*
X4839229Y-26629222D01*
X4839229Y-26629222D02*
X4829706Y-26638746D01*
X4829706Y-26638746D02*
X4820182Y-26657793D01*
X4820182Y-26657793D02*
X4820182Y-26695888D01*
X4820182Y-26695888D02*
X4829706Y-26714936D01*
X4829706Y-26714936D02*
X4839229Y-26724460D01*
X4839229Y-26724460D02*
X4858277Y-26733984D01*
X4858277Y-26733984D02*
X4896372Y-26733984D01*
X4896372Y-26733984D02*
X4915420Y-26724460D01*
X4915420Y-26724460D02*
X4924944Y-26714936D01*
X4924944Y-26714936D02*
X4934468Y-26695888D01*
X4934468Y-26695888D02*
X4934468Y-26657793D01*
X4934468Y-26657793D02*
X4924944Y-26638746D01*
X4924944Y-26638746D02*
X4915420Y-26629222D01*
X4915420Y-26629222D02*
X4896372Y-26619698D01*
X5124944Y-26733984D02*
X5010658Y-26733984D01*
X5067801Y-26733984D02*
X5067801Y-26533984D01*
X5067801Y-26533984D02*
X5048753Y-26562555D01*
X5048753Y-26562555D02*
X5029706Y-26581603D01*
X5029706Y-26581603D02*
X5010658Y-26591127D01*
X5201134Y-26533984D02*
X5201134Y-26572079D01*
X5277325Y-26533984D02*
X5277325Y-26572079D01*
X5572563Y-26810174D02*
X5563039Y-26800650D01*
X5563039Y-26800650D02*
X5543991Y-26772079D01*
X5543991Y-26772079D02*
X5534468Y-26753031D01*
X5534468Y-26753031D02*
X5524944Y-26724460D01*
X5524944Y-26724460D02*
X5515420Y-26676841D01*
X5515420Y-26676841D02*
X5515420Y-26638746D01*
X5515420Y-26638746D02*
X5524944Y-26591127D01*
X5524944Y-26591127D02*
X5534468Y-26562555D01*
X5534468Y-26562555D02*
X5543991Y-26543508D01*
X5543991Y-26543508D02*
X5563039Y-26514936D01*
X5563039Y-26514936D02*
X5572563Y-26505412D01*
X5629706Y-26533984D02*
X5753515Y-26533984D01*
X5753515Y-26533984D02*
X5686848Y-26610174D01*
X5686848Y-26610174D02*
X5715420Y-26610174D01*
X5715420Y-26610174D02*
X5734468Y-26619698D01*
X5734468Y-26619698D02*
X5743991Y-26629222D01*
X5743991Y-26629222D02*
X5753515Y-26648269D01*
X5753515Y-26648269D02*
X5753515Y-26695888D01*
X5753515Y-26695888D02*
X5743991Y-26714936D01*
X5743991Y-26714936D02*
X5734468Y-26724460D01*
X5734468Y-26724460D02*
X5715420Y-26733984D01*
X5715420Y-26733984D02*
X5658277Y-26733984D01*
X5658277Y-26733984D02*
X5639229Y-26724460D01*
X5639229Y-26724460D02*
X5629706Y-26714936D01*
X5991610Y-26733984D02*
X5991610Y-26533984D01*
X6077325Y-26733984D02*
X6077325Y-26629222D01*
X6077325Y-26629222D02*
X6067801Y-26610174D01*
X6067801Y-26610174D02*
X6048753Y-26600650D01*
X6048753Y-26600650D02*
X6020182Y-26600650D01*
X6020182Y-26600650D02*
X6001134Y-26610174D01*
X6001134Y-26610174D02*
X5991610Y-26619698D01*
X6201134Y-26733984D02*
X6182087Y-26724460D01*
X6182087Y-26724460D02*
X6172563Y-26714936D01*
X6172563Y-26714936D02*
X6163039Y-26695888D01*
X6163039Y-26695888D02*
X6163039Y-26638746D01*
X6163039Y-26638746D02*
X6172563Y-26619698D01*
X6172563Y-26619698D02*
X6182087Y-26610174D01*
X6182087Y-26610174D02*
X6201134Y-26600650D01*
X6201134Y-26600650D02*
X6229706Y-26600650D01*
X6229706Y-26600650D02*
X6248753Y-26610174D01*
X6248753Y-26610174D02*
X6258277Y-26619698D01*
X6258277Y-26619698D02*
X6267801Y-26638746D01*
X6267801Y-26638746D02*
X6267801Y-26695888D01*
X6267801Y-26695888D02*
X6258277Y-26714936D01*
X6258277Y-26714936D02*
X6248753Y-26724460D01*
X6248753Y-26724460D02*
X6229706Y-26733984D01*
X6229706Y-26733984D02*
X6201134Y-26733984D01*
X6382087Y-26733984D02*
X6363039Y-26724460D01*
X6363039Y-26724460D02*
X6353515Y-26705412D01*
X6353515Y-26705412D02*
X6353515Y-26533984D01*
X6534468Y-26724460D02*
X6515420Y-26733984D01*
X6515420Y-26733984D02*
X6477325Y-26733984D01*
X6477325Y-26733984D02*
X6458277Y-26724460D01*
X6458277Y-26724460D02*
X6448753Y-26705412D01*
X6448753Y-26705412D02*
X6448753Y-26629222D01*
X6448753Y-26629222D02*
X6458277Y-26610174D01*
X6458277Y-26610174D02*
X6477325Y-26600650D01*
X6477325Y-26600650D02*
X6515420Y-26600650D01*
X6515420Y-26600650D02*
X6534468Y-26610174D01*
X6534468Y-26610174D02*
X6543991Y-26629222D01*
X6543991Y-26629222D02*
X6543991Y-26648269D01*
X6543991Y-26648269D02*
X6448753Y-26667317D01*
X6620182Y-26724460D02*
X6639230Y-26733984D01*
X6639230Y-26733984D02*
X6677325Y-26733984D01*
X6677325Y-26733984D02*
X6696372Y-26724460D01*
X6696372Y-26724460D02*
X6705896Y-26705412D01*
X6705896Y-26705412D02*
X6705896Y-26695888D01*
X6705896Y-26695888D02*
X6696372Y-26676841D01*
X6696372Y-26676841D02*
X6677325Y-26667317D01*
X6677325Y-26667317D02*
X6648753Y-26667317D01*
X6648753Y-26667317D02*
X6629706Y-26657793D01*
X6629706Y-26657793D02*
X6620182Y-26638746D01*
X6620182Y-26638746D02*
X6620182Y-26629222D01*
X6620182Y-26629222D02*
X6629706Y-26610174D01*
X6629706Y-26610174D02*
X6648753Y-26600650D01*
X6648753Y-26600650D02*
X6677325Y-26600650D01*
X6677325Y-26600650D02*
X6696372Y-26610174D01*
X6772563Y-26810174D02*
X6782087Y-26800650D01*
X6782087Y-26800650D02*
X6801134Y-26772079D01*
X6801134Y-26772079D02*
X6810658Y-26753031D01*
X6810658Y-26753031D02*
X6820182Y-26724460D01*
X6820182Y-26724460D02*
X6829706Y-26676841D01*
X6829706Y-26676841D02*
X6829706Y-26638746D01*
X6829706Y-26638746D02*
X6820182Y-26591127D01*
X6820182Y-26591127D02*
X6810658Y-26562555D01*
X6810658Y-26562555D02*
X6801134Y-26543508D01*
X6801134Y-26543508D02*
X6782087Y-26514936D01*
X6782087Y-26514936D02*
X6772563Y-26505412D01*
X7134468Y-26810174D02*
X7124944Y-26800650D01*
X7124944Y-26800650D02*
X7105896Y-26772079D01*
X7105896Y-26772079D02*
X7096372Y-26753031D01*
X7096372Y-26753031D02*
X7086849Y-26724460D01*
X7086849Y-26724460D02*
X7077325Y-26676841D01*
X7077325Y-26676841D02*
X7077325Y-26638746D01*
X7077325Y-26638746D02*
X7086849Y-26591127D01*
X7086849Y-26591127D02*
X7096372Y-26562555D01*
X7096372Y-26562555D02*
X7105896Y-26543508D01*
X7105896Y-26543508D02*
X7124944Y-26514936D01*
X7124944Y-26514936D02*
X7134468Y-26505412D01*
X7210658Y-26600650D02*
X7210658Y-26733984D01*
X7210658Y-26619698D02*
X7220182Y-26610174D01*
X7220182Y-26610174D02*
X7239230Y-26600650D01*
X7239230Y-26600650D02*
X7267801Y-26600650D01*
X7267801Y-26600650D02*
X7286849Y-26610174D01*
X7286849Y-26610174D02*
X7296372Y-26629222D01*
X7296372Y-26629222D02*
X7296372Y-26733984D01*
X7420182Y-26733984D02*
X7401134Y-26724460D01*
X7401134Y-26724460D02*
X7391611Y-26714936D01*
X7391611Y-26714936D02*
X7382087Y-26695888D01*
X7382087Y-26695888D02*
X7382087Y-26638746D01*
X7382087Y-26638746D02*
X7391611Y-26619698D01*
X7391611Y-26619698D02*
X7401134Y-26610174D01*
X7401134Y-26610174D02*
X7420182Y-26600650D01*
X7420182Y-26600650D02*
X7448753Y-26600650D01*
X7448753Y-26600650D02*
X7467801Y-26610174D01*
X7467801Y-26610174D02*
X7477325Y-26619698D01*
X7477325Y-26619698D02*
X7486849Y-26638746D01*
X7486849Y-26638746D02*
X7486849Y-26695888D01*
X7486849Y-26695888D02*
X7477325Y-26714936D01*
X7477325Y-26714936D02*
X7467801Y-26724460D01*
X7467801Y-26724460D02*
X7448753Y-26733984D01*
X7448753Y-26733984D02*
X7420182Y-26733984D01*
X7543992Y-26600650D02*
X7620182Y-26600650D01*
X7572563Y-26533984D02*
X7572563Y-26705412D01*
X7572563Y-26705412D02*
X7582087Y-26724460D01*
X7582087Y-26724460D02*
X7601134Y-26733984D01*
X7601134Y-26733984D02*
X7620182Y-26733984D01*
X7839230Y-26600650D02*
X7839230Y-26800650D01*
X7839230Y-26610174D02*
X7858277Y-26600650D01*
X7858277Y-26600650D02*
X7896373Y-26600650D01*
X7896373Y-26600650D02*
X7915420Y-26610174D01*
X7915420Y-26610174D02*
X7924944Y-26619698D01*
X7924944Y-26619698D02*
X7934468Y-26638746D01*
X7934468Y-26638746D02*
X7934468Y-26695888D01*
X7934468Y-26695888D02*
X7924944Y-26714936D01*
X7924944Y-26714936D02*
X7915420Y-26724460D01*
X7915420Y-26724460D02*
X7896373Y-26733984D01*
X7896373Y-26733984D02*
X7858277Y-26733984D01*
X7858277Y-26733984D02*
X7839230Y-26724460D01*
X8048753Y-26733984D02*
X8029706Y-26724460D01*
X8029706Y-26724460D02*
X8020182Y-26705412D01*
X8020182Y-26705412D02*
X8020182Y-26533984D01*
X8210658Y-26733984D02*
X8210658Y-26629222D01*
X8210658Y-26629222D02*
X8201134Y-26610174D01*
X8201134Y-26610174D02*
X8182087Y-26600650D01*
X8182087Y-26600650D02*
X8143992Y-26600650D01*
X8143992Y-26600650D02*
X8124944Y-26610174D01*
X8210658Y-26724460D02*
X8191611Y-26733984D01*
X8191611Y-26733984D02*
X8143992Y-26733984D01*
X8143992Y-26733984D02*
X8124944Y-26724460D01*
X8124944Y-26724460D02*
X8115420Y-26705412D01*
X8115420Y-26705412D02*
X8115420Y-26686365D01*
X8115420Y-26686365D02*
X8124944Y-26667317D01*
X8124944Y-26667317D02*
X8143992Y-26657793D01*
X8143992Y-26657793D02*
X8191611Y-26657793D01*
X8191611Y-26657793D02*
X8210658Y-26648269D01*
X8277325Y-26600650D02*
X8353515Y-26600650D01*
X8305896Y-26533984D02*
X8305896Y-26705412D01*
X8305896Y-26705412D02*
X8315420Y-26724460D01*
X8315420Y-26724460D02*
X8334468Y-26733984D01*
X8334468Y-26733984D02*
X8353515Y-26733984D01*
X8496373Y-26724460D02*
X8477325Y-26733984D01*
X8477325Y-26733984D02*
X8439230Y-26733984D01*
X8439230Y-26733984D02*
X8420182Y-26724460D01*
X8420182Y-26724460D02*
X8410658Y-26705412D01*
X8410658Y-26705412D02*
X8410658Y-26629222D01*
X8410658Y-26629222D02*
X8420182Y-26610174D01*
X8420182Y-26610174D02*
X8439230Y-26600650D01*
X8439230Y-26600650D02*
X8477325Y-26600650D01*
X8477325Y-26600650D02*
X8496373Y-26610174D01*
X8496373Y-26610174D02*
X8505896Y-26629222D01*
X8505896Y-26629222D02*
X8505896Y-26648269D01*
X8505896Y-26648269D02*
X8410658Y-26667317D01*
X8677325Y-26733984D02*
X8677325Y-26533984D01*
X8677325Y-26724460D02*
X8658277Y-26733984D01*
X8658277Y-26733984D02*
X8620182Y-26733984D01*
X8620182Y-26733984D02*
X8601135Y-26724460D01*
X8601135Y-26724460D02*
X8591611Y-26714936D01*
X8591611Y-26714936D02*
X8582087Y-26695888D01*
X8582087Y-26695888D02*
X8582087Y-26638746D01*
X8582087Y-26638746D02*
X8591611Y-26619698D01*
X8591611Y-26619698D02*
X8601135Y-26610174D01*
X8601135Y-26610174D02*
X8620182Y-26600650D01*
X8620182Y-26600650D02*
X8658277Y-26600650D01*
X8658277Y-26600650D02*
X8677325Y-26610174D01*
X8753516Y-26810174D02*
X8763039Y-26800650D01*
X8763039Y-26800650D02*
X8782087Y-26772079D01*
X8782087Y-26772079D02*
X8791611Y-26753031D01*
X8791611Y-26753031D02*
X8801135Y-26724460D01*
X8801135Y-26724460D02*
X8810658Y-26676841D01*
X8810658Y-26676841D02*
X8810658Y-26638746D01*
X8810658Y-26638746D02*
X8801135Y-26591127D01*
X8801135Y-26591127D02*
X8791611Y-26562555D01*
X8791611Y-26562555D02*
X8782087Y-26543508D01*
X8782087Y-26543508D02*
X8763039Y-26514936D01*
X8763039Y-26514936D02*
X8753516Y-26505412D01*
X1997500Y-26962500D02*
G75*
G02*
X1797500Y-26962500I-100000J0D01*
G01*
X1797500Y-26962500D02*
G75*
G02*
X1997500Y-26962500I100000J0D01*
G01*
X2239229Y-26853984D02*
X2363039Y-26853984D01*
X2363039Y-26853984D02*
X2296372Y-26930174D01*
X2296372Y-26930174D02*
X2324944Y-26930174D01*
X2324944Y-26930174D02*
X2343991Y-26939698D01*
X2343991Y-26939698D02*
X2353515Y-26949222D01*
X2353515Y-26949222D02*
X2363039Y-26968269D01*
X2363039Y-26968269D02*
X2363039Y-27015888D01*
X2363039Y-27015888D02*
X2353515Y-27034936D01*
X2353515Y-27034936D02*
X2343991Y-27044460D01*
X2343991Y-27044460D02*
X2324944Y-27053984D01*
X2324944Y-27053984D02*
X2267801Y-27053984D01*
X2267801Y-27053984D02*
X2248753Y-27044460D01*
X2248753Y-27044460D02*
X2239229Y-27034936D01*
X2448753Y-27034936D02*
X2458277Y-27044460D01*
X2458277Y-27044460D02*
X2448753Y-27053984D01*
X2448753Y-27053984D02*
X2439229Y-27044460D01*
X2439229Y-27044460D02*
X2448753Y-27034936D01*
X2448753Y-27034936D02*
X2448753Y-27053984D01*
X2534467Y-26873031D02*
X2543991Y-26863508D01*
X2543991Y-26863508D02*
X2563039Y-26853984D01*
X2563039Y-26853984D02*
X2610658Y-26853984D01*
X2610658Y-26853984D02*
X2629705Y-26863508D01*
X2629705Y-26863508D02*
X2639229Y-26873031D01*
X2639229Y-26873031D02*
X2648753Y-26892079D01*
X2648753Y-26892079D02*
X2648753Y-26911127D01*
X2648753Y-26911127D02*
X2639229Y-26939698D01*
X2639229Y-26939698D02*
X2524944Y-27053984D01*
X2524944Y-27053984D02*
X2648753Y-27053984D01*
X2772563Y-26853984D02*
X2791610Y-26853984D01*
X2791610Y-26853984D02*
X2810658Y-26863508D01*
X2810658Y-26863508D02*
X2820182Y-26873031D01*
X2820182Y-26873031D02*
X2829705Y-26892079D01*
X2829705Y-26892079D02*
X2839229Y-26930174D01*
X2839229Y-26930174D02*
X2839229Y-26977793D01*
X2839229Y-26977793D02*
X2829705Y-27015888D01*
X2829705Y-27015888D02*
X2820182Y-27034936D01*
X2820182Y-27034936D02*
X2810658Y-27044460D01*
X2810658Y-27044460D02*
X2791610Y-27053984D01*
X2791610Y-27053984D02*
X2772563Y-27053984D01*
X2772563Y-27053984D02*
X2753515Y-27044460D01*
X2753515Y-27044460D02*
X2743991Y-27034936D01*
X2743991Y-27034936D02*
X2734467Y-27015888D01*
X2734467Y-27015888D02*
X2724944Y-26977793D01*
X2724944Y-26977793D02*
X2724944Y-26930174D01*
X2724944Y-26930174D02*
X2734467Y-26892079D01*
X2734467Y-26892079D02*
X2743991Y-26873031D01*
X2743991Y-26873031D02*
X2753515Y-26863508D01*
X2753515Y-26863508D02*
X2772563Y-26853984D01*
X2963039Y-26853984D02*
X2982086Y-26853984D01*
X2982086Y-26853984D02*
X3001134Y-26863508D01*
X3001134Y-26863508D02*
X3010658Y-26873031D01*
X3010658Y-26873031D02*
X3020182Y-26892079D01*
X3020182Y-26892079D02*
X3029705Y-26930174D01*
X3029705Y-26930174D02*
X3029705Y-26977793D01*
X3029705Y-26977793D02*
X3020182Y-27015888D01*
X3020182Y-27015888D02*
X3010658Y-27034936D01*
X3010658Y-27034936D02*
X3001134Y-27044460D01*
X3001134Y-27044460D02*
X2982086Y-27053984D01*
X2982086Y-27053984D02*
X2963039Y-27053984D01*
X2963039Y-27053984D02*
X2943991Y-27044460D01*
X2943991Y-27044460D02*
X2934467Y-27034936D01*
X2934467Y-27034936D02*
X2924943Y-27015888D01*
X2924943Y-27015888D02*
X2915420Y-26977793D01*
X2915420Y-26977793D02*
X2915420Y-26930174D01*
X2915420Y-26930174D02*
X2924943Y-26892079D01*
X2924943Y-26892079D02*
X2934467Y-26873031D01*
X2934467Y-26873031D02*
X2943991Y-26863508D01*
X2943991Y-26863508D02*
X2963039Y-26853984D01*
X3115420Y-27053984D02*
X3115420Y-26920650D01*
X3115420Y-26939698D02*
X3124943Y-26930174D01*
X3124943Y-26930174D02*
X3143991Y-26920650D01*
X3143991Y-26920650D02*
X3172563Y-26920650D01*
X3172563Y-26920650D02*
X3191610Y-26930174D01*
X3191610Y-26930174D02*
X3201134Y-26949222D01*
X3201134Y-26949222D02*
X3201134Y-27053984D01*
X3201134Y-26949222D02*
X3210658Y-26930174D01*
X3210658Y-26930174D02*
X3229705Y-26920650D01*
X3229705Y-26920650D02*
X3258277Y-26920650D01*
X3258277Y-26920650D02*
X3277324Y-26930174D01*
X3277324Y-26930174D02*
X3286848Y-26949222D01*
X3286848Y-26949222D02*
X3286848Y-27053984D01*
X3382086Y-27053984D02*
X3382086Y-26920650D01*
X3382086Y-26939698D02*
X3391610Y-26930174D01*
X3391610Y-26930174D02*
X3410658Y-26920650D01*
X3410658Y-26920650D02*
X3439229Y-26920650D01*
X3439229Y-26920650D02*
X3458277Y-26930174D01*
X3458277Y-26930174D02*
X3467801Y-26949222D01*
X3467801Y-26949222D02*
X3467801Y-27053984D01*
X3467801Y-26949222D02*
X3477324Y-26930174D01*
X3477324Y-26930174D02*
X3496372Y-26920650D01*
X3496372Y-26920650D02*
X3524943Y-26920650D01*
X3524943Y-26920650D02*
X3543991Y-26930174D01*
X3543991Y-26930174D02*
X3553515Y-26949222D01*
X3553515Y-26949222D02*
X3553515Y-27053984D01*
X3943991Y-26844460D02*
X3772563Y-27101603D01*
X4201134Y-26853984D02*
X4220182Y-26853984D01*
X4220182Y-26853984D02*
X4239229Y-26863508D01*
X4239229Y-26863508D02*
X4248753Y-26873031D01*
X4248753Y-26873031D02*
X4258277Y-26892079D01*
X4258277Y-26892079D02*
X4267801Y-26930174D01*
X4267801Y-26930174D02*
X4267801Y-26977793D01*
X4267801Y-26977793D02*
X4258277Y-27015888D01*
X4258277Y-27015888D02*
X4248753Y-27034936D01*
X4248753Y-27034936D02*
X4239229Y-27044460D01*
X4239229Y-27044460D02*
X4220182Y-27053984D01*
X4220182Y-27053984D02*
X4201134Y-27053984D01*
X4201134Y-27053984D02*
X4182086Y-27044460D01*
X4182086Y-27044460D02*
X4172563Y-27034936D01*
X4172563Y-27034936D02*
X4163039Y-27015888D01*
X4163039Y-27015888D02*
X4153515Y-26977793D01*
X4153515Y-26977793D02*
X4153515Y-26930174D01*
X4153515Y-26930174D02*
X4163039Y-26892079D01*
X4163039Y-26892079D02*
X4172563Y-26873031D01*
X4172563Y-26873031D02*
X4182086Y-26863508D01*
X4182086Y-26863508D02*
X4201134Y-26853984D01*
X4353515Y-27034936D02*
X4363039Y-27044460D01*
X4363039Y-27044460D02*
X4353515Y-27053984D01*
X4353515Y-27053984D02*
X4343991Y-27044460D01*
X4343991Y-27044460D02*
X4353515Y-27034936D01*
X4353515Y-27034936D02*
X4353515Y-27053984D01*
X4553515Y-27053984D02*
X4439229Y-27053984D01*
X4496372Y-27053984D02*
X4496372Y-26853984D01*
X4496372Y-26853984D02*
X4477325Y-26882555D01*
X4477325Y-26882555D02*
X4458277Y-26901603D01*
X4458277Y-26901603D02*
X4439229Y-26911127D01*
X4629706Y-26873031D02*
X4639229Y-26863508D01*
X4639229Y-26863508D02*
X4658277Y-26853984D01*
X4658277Y-26853984D02*
X4705896Y-26853984D01*
X4705896Y-26853984D02*
X4724944Y-26863508D01*
X4724944Y-26863508D02*
X4734468Y-26873031D01*
X4734468Y-26873031D02*
X4743991Y-26892079D01*
X4743991Y-26892079D02*
X4743991Y-26911127D01*
X4743991Y-26911127D02*
X4734468Y-26939698D01*
X4734468Y-26939698D02*
X4620182Y-27053984D01*
X4620182Y-27053984D02*
X4743991Y-27053984D01*
X4915420Y-26853984D02*
X4877325Y-26853984D01*
X4877325Y-26853984D02*
X4858277Y-26863508D01*
X4858277Y-26863508D02*
X4848753Y-26873031D01*
X4848753Y-26873031D02*
X4829706Y-26901603D01*
X4829706Y-26901603D02*
X4820182Y-26939698D01*
X4820182Y-26939698D02*
X4820182Y-27015888D01*
X4820182Y-27015888D02*
X4829706Y-27034936D01*
X4829706Y-27034936D02*
X4839229Y-27044460D01*
X4839229Y-27044460D02*
X4858277Y-27053984D01*
X4858277Y-27053984D02*
X4896372Y-27053984D01*
X4896372Y-27053984D02*
X4915420Y-27044460D01*
X4915420Y-27044460D02*
X4924944Y-27034936D01*
X4924944Y-27034936D02*
X4934468Y-27015888D01*
X4934468Y-27015888D02*
X4934468Y-26968269D01*
X4934468Y-26968269D02*
X4924944Y-26949222D01*
X4924944Y-26949222D02*
X4915420Y-26939698D01*
X4915420Y-26939698D02*
X4896372Y-26930174D01*
X4896372Y-26930174D02*
X4858277Y-26930174D01*
X4858277Y-26930174D02*
X4839229Y-26939698D01*
X4839229Y-26939698D02*
X4829706Y-26949222D01*
X4829706Y-26949222D02*
X4820182Y-26968269D01*
X5058277Y-26853984D02*
X5077325Y-26853984D01*
X5077325Y-26853984D02*
X5096372Y-26863508D01*
X5096372Y-26863508D02*
X5105896Y-26873031D01*
X5105896Y-26873031D02*
X5115420Y-26892079D01*
X5115420Y-26892079D02*
X5124944Y-26930174D01*
X5124944Y-26930174D02*
X5124944Y-26977793D01*
X5124944Y-26977793D02*
X5115420Y-27015888D01*
X5115420Y-27015888D02*
X5105896Y-27034936D01*
X5105896Y-27034936D02*
X5096372Y-27044460D01*
X5096372Y-27044460D02*
X5077325Y-27053984D01*
X5077325Y-27053984D02*
X5058277Y-27053984D01*
X5058277Y-27053984D02*
X5039229Y-27044460D01*
X5039229Y-27044460D02*
X5029706Y-27034936D01*
X5029706Y-27034936D02*
X5020182Y-27015888D01*
X5020182Y-27015888D02*
X5010658Y-26977793D01*
X5010658Y-26977793D02*
X5010658Y-26930174D01*
X5010658Y-26930174D02*
X5020182Y-26892079D01*
X5020182Y-26892079D02*
X5029706Y-26873031D01*
X5029706Y-26873031D02*
X5039229Y-26863508D01*
X5039229Y-26863508D02*
X5058277Y-26853984D01*
X5201134Y-26853984D02*
X5201134Y-26892079D01*
X5277325Y-26853984D02*
X5277325Y-26892079D01*
X5572563Y-27130174D02*
X5563039Y-27120650D01*
X5563039Y-27120650D02*
X5543991Y-27092079D01*
X5543991Y-27092079D02*
X5534468Y-27073031D01*
X5534468Y-27073031D02*
X5524944Y-27044460D01*
X5524944Y-27044460D02*
X5515420Y-26996841D01*
X5515420Y-26996841D02*
X5515420Y-26958746D01*
X5515420Y-26958746D02*
X5524944Y-26911127D01*
X5524944Y-26911127D02*
X5534468Y-26882555D01*
X5534468Y-26882555D02*
X5543991Y-26863508D01*
X5543991Y-26863508D02*
X5563039Y-26834936D01*
X5563039Y-26834936D02*
X5572563Y-26825412D01*
X5743991Y-26853984D02*
X5648753Y-26853984D01*
X5648753Y-26853984D02*
X5639229Y-26949222D01*
X5639229Y-26949222D02*
X5648753Y-26939698D01*
X5648753Y-26939698D02*
X5667801Y-26930174D01*
X5667801Y-26930174D02*
X5715420Y-26930174D01*
X5715420Y-26930174D02*
X5734468Y-26939698D01*
X5734468Y-26939698D02*
X5743991Y-26949222D01*
X5743991Y-26949222D02*
X5753515Y-26968269D01*
X5753515Y-26968269D02*
X5753515Y-27015888D01*
X5753515Y-27015888D02*
X5743991Y-27034936D01*
X5743991Y-27034936D02*
X5734468Y-27044460D01*
X5734468Y-27044460D02*
X5715420Y-27053984D01*
X5715420Y-27053984D02*
X5667801Y-27053984D01*
X5667801Y-27053984D02*
X5648753Y-27044460D01*
X5648753Y-27044460D02*
X5639229Y-27034936D01*
X5991610Y-27053984D02*
X5991610Y-26853984D01*
X6077325Y-27053984D02*
X6077325Y-26949222D01*
X6077325Y-26949222D02*
X6067801Y-26930174D01*
X6067801Y-26930174D02*
X6048753Y-26920650D01*
X6048753Y-26920650D02*
X6020182Y-26920650D01*
X6020182Y-26920650D02*
X6001134Y-26930174D01*
X6001134Y-26930174D02*
X5991610Y-26939698D01*
X6201134Y-27053984D02*
X6182087Y-27044460D01*
X6182087Y-27044460D02*
X6172563Y-27034936D01*
X6172563Y-27034936D02*
X6163039Y-27015888D01*
X6163039Y-27015888D02*
X6163039Y-26958746D01*
X6163039Y-26958746D02*
X6172563Y-26939698D01*
X6172563Y-26939698D02*
X6182087Y-26930174D01*
X6182087Y-26930174D02*
X6201134Y-26920650D01*
X6201134Y-26920650D02*
X6229706Y-26920650D01*
X6229706Y-26920650D02*
X6248753Y-26930174D01*
X6248753Y-26930174D02*
X6258277Y-26939698D01*
X6258277Y-26939698D02*
X6267801Y-26958746D01*
X6267801Y-26958746D02*
X6267801Y-27015888D01*
X6267801Y-27015888D02*
X6258277Y-27034936D01*
X6258277Y-27034936D02*
X6248753Y-27044460D01*
X6248753Y-27044460D02*
X6229706Y-27053984D01*
X6229706Y-27053984D02*
X6201134Y-27053984D01*
X6382087Y-27053984D02*
X6363039Y-27044460D01*
X6363039Y-27044460D02*
X6353515Y-27025412D01*
X6353515Y-27025412D02*
X6353515Y-26853984D01*
X6534468Y-27044460D02*
X6515420Y-27053984D01*
X6515420Y-27053984D02*
X6477325Y-27053984D01*
X6477325Y-27053984D02*
X6458277Y-27044460D01*
X6458277Y-27044460D02*
X6448753Y-27025412D01*
X6448753Y-27025412D02*
X6448753Y-26949222D01*
X6448753Y-26949222D02*
X6458277Y-26930174D01*
X6458277Y-26930174D02*
X6477325Y-26920650D01*
X6477325Y-26920650D02*
X6515420Y-26920650D01*
X6515420Y-26920650D02*
X6534468Y-26930174D01*
X6534468Y-26930174D02*
X6543991Y-26949222D01*
X6543991Y-26949222D02*
X6543991Y-26968269D01*
X6543991Y-26968269D02*
X6448753Y-26987317D01*
X6620182Y-27044460D02*
X6639230Y-27053984D01*
X6639230Y-27053984D02*
X6677325Y-27053984D01*
X6677325Y-27053984D02*
X6696372Y-27044460D01*
X6696372Y-27044460D02*
X6705896Y-27025412D01*
X6705896Y-27025412D02*
X6705896Y-27015888D01*
X6705896Y-27015888D02*
X6696372Y-26996841D01*
X6696372Y-26996841D02*
X6677325Y-26987317D01*
X6677325Y-26987317D02*
X6648753Y-26987317D01*
X6648753Y-26987317D02*
X6629706Y-26977793D01*
X6629706Y-26977793D02*
X6620182Y-26958746D01*
X6620182Y-26958746D02*
X6620182Y-26949222D01*
X6620182Y-26949222D02*
X6629706Y-26930174D01*
X6629706Y-26930174D02*
X6648753Y-26920650D01*
X6648753Y-26920650D02*
X6677325Y-26920650D01*
X6677325Y-26920650D02*
X6696372Y-26930174D01*
X6772563Y-27130174D02*
X6782087Y-27120650D01*
X6782087Y-27120650D02*
X6801134Y-27092079D01*
X6801134Y-27092079D02*
X6810658Y-27073031D01*
X6810658Y-27073031D02*
X6820182Y-27044460D01*
X6820182Y-27044460D02*
X6829706Y-26996841D01*
X6829706Y-26996841D02*
X6829706Y-26958746D01*
X6829706Y-26958746D02*
X6820182Y-26911127D01*
X6820182Y-26911127D02*
X6810658Y-26882555D01*
X6810658Y-26882555D02*
X6801134Y-26863508D01*
X6801134Y-26863508D02*
X6782087Y-26834936D01*
X6782087Y-26834936D02*
X6772563Y-26825412D01*
X7134468Y-27130174D02*
X7124944Y-27120650D01*
X7124944Y-27120650D02*
X7105896Y-27092079D01*
X7105896Y-27092079D02*
X7096372Y-27073031D01*
X7096372Y-27073031D02*
X7086849Y-27044460D01*
X7086849Y-27044460D02*
X7077325Y-26996841D01*
X7077325Y-26996841D02*
X7077325Y-26958746D01*
X7077325Y-26958746D02*
X7086849Y-26911127D01*
X7086849Y-26911127D02*
X7096372Y-26882555D01*
X7096372Y-26882555D02*
X7105896Y-26863508D01*
X7105896Y-26863508D02*
X7124944Y-26834936D01*
X7124944Y-26834936D02*
X7134468Y-26825412D01*
X7210658Y-26920650D02*
X7210658Y-27053984D01*
X7210658Y-26939698D02*
X7220182Y-26930174D01*
X7220182Y-26930174D02*
X7239230Y-26920650D01*
X7239230Y-26920650D02*
X7267801Y-26920650D01*
X7267801Y-26920650D02*
X7286849Y-26930174D01*
X7286849Y-26930174D02*
X7296372Y-26949222D01*
X7296372Y-26949222D02*
X7296372Y-27053984D01*
X7420182Y-27053984D02*
X7401134Y-27044460D01*
X7401134Y-27044460D02*
X7391611Y-27034936D01*
X7391611Y-27034936D02*
X7382087Y-27015888D01*
X7382087Y-27015888D02*
X7382087Y-26958746D01*
X7382087Y-26958746D02*
X7391611Y-26939698D01*
X7391611Y-26939698D02*
X7401134Y-26930174D01*
X7401134Y-26930174D02*
X7420182Y-26920650D01*
X7420182Y-26920650D02*
X7448753Y-26920650D01*
X7448753Y-26920650D02*
X7467801Y-26930174D01*
X7467801Y-26930174D02*
X7477325Y-26939698D01*
X7477325Y-26939698D02*
X7486849Y-26958746D01*
X7486849Y-26958746D02*
X7486849Y-27015888D01*
X7486849Y-27015888D02*
X7477325Y-27034936D01*
X7477325Y-27034936D02*
X7467801Y-27044460D01*
X7467801Y-27044460D02*
X7448753Y-27053984D01*
X7448753Y-27053984D02*
X7420182Y-27053984D01*
X7543992Y-26920650D02*
X7620182Y-26920650D01*
X7572563Y-26853984D02*
X7572563Y-27025412D01*
X7572563Y-27025412D02*
X7582087Y-27044460D01*
X7582087Y-27044460D02*
X7601134Y-27053984D01*
X7601134Y-27053984D02*
X7620182Y-27053984D01*
X7839230Y-26920650D02*
X7839230Y-27120650D01*
X7839230Y-26930174D02*
X7858277Y-26920650D01*
X7858277Y-26920650D02*
X7896373Y-26920650D01*
X7896373Y-26920650D02*
X7915420Y-26930174D01*
X7915420Y-26930174D02*
X7924944Y-26939698D01*
X7924944Y-26939698D02*
X7934468Y-26958746D01*
X7934468Y-26958746D02*
X7934468Y-27015888D01*
X7934468Y-27015888D02*
X7924944Y-27034936D01*
X7924944Y-27034936D02*
X7915420Y-27044460D01*
X7915420Y-27044460D02*
X7896373Y-27053984D01*
X7896373Y-27053984D02*
X7858277Y-27053984D01*
X7858277Y-27053984D02*
X7839230Y-27044460D01*
X8048753Y-27053984D02*
X8029706Y-27044460D01*
X8029706Y-27044460D02*
X8020182Y-27025412D01*
X8020182Y-27025412D02*
X8020182Y-26853984D01*
X8210658Y-27053984D02*
X8210658Y-26949222D01*
X8210658Y-26949222D02*
X8201134Y-26930174D01*
X8201134Y-26930174D02*
X8182087Y-26920650D01*
X8182087Y-26920650D02*
X8143992Y-26920650D01*
X8143992Y-26920650D02*
X8124944Y-26930174D01*
X8210658Y-27044460D02*
X8191611Y-27053984D01*
X8191611Y-27053984D02*
X8143992Y-27053984D01*
X8143992Y-27053984D02*
X8124944Y-27044460D01*
X8124944Y-27044460D02*
X8115420Y-27025412D01*
X8115420Y-27025412D02*
X8115420Y-27006365D01*
X8115420Y-27006365D02*
X8124944Y-26987317D01*
X8124944Y-26987317D02*
X8143992Y-26977793D01*
X8143992Y-26977793D02*
X8191611Y-26977793D01*
X8191611Y-26977793D02*
X8210658Y-26968269D01*
X8277325Y-26920650D02*
X8353515Y-26920650D01*
X8305896Y-26853984D02*
X8305896Y-27025412D01*
X8305896Y-27025412D02*
X8315420Y-27044460D01*
X8315420Y-27044460D02*
X8334468Y-27053984D01*
X8334468Y-27053984D02*
X8353515Y-27053984D01*
X8496373Y-27044460D02*
X8477325Y-27053984D01*
X8477325Y-27053984D02*
X8439230Y-27053984D01*
X8439230Y-27053984D02*
X8420182Y-27044460D01*
X8420182Y-27044460D02*
X8410658Y-27025412D01*
X8410658Y-27025412D02*
X8410658Y-26949222D01*
X8410658Y-26949222D02*
X8420182Y-26930174D01*
X8420182Y-26930174D02*
X8439230Y-26920650D01*
X8439230Y-26920650D02*
X8477325Y-26920650D01*
X8477325Y-26920650D02*
X8496373Y-26930174D01*
X8496373Y-26930174D02*
X8505896Y-26949222D01*
X8505896Y-26949222D02*
X8505896Y-26968269D01*
X8505896Y-26968269D02*
X8410658Y-26987317D01*
X8677325Y-27053984D02*
X8677325Y-26853984D01*
X8677325Y-27044460D02*
X8658277Y-27053984D01*
X8658277Y-27053984D02*
X8620182Y-27053984D01*
X8620182Y-27053984D02*
X8601135Y-27044460D01*
X8601135Y-27044460D02*
X8591611Y-27034936D01*
X8591611Y-27034936D02*
X8582087Y-27015888D01*
X8582087Y-27015888D02*
X8582087Y-26958746D01*
X8582087Y-26958746D02*
X8591611Y-26939698D01*
X8591611Y-26939698D02*
X8601135Y-26930174D01*
X8601135Y-26930174D02*
X8620182Y-26920650D01*
X8620182Y-26920650D02*
X8658277Y-26920650D01*
X8658277Y-26920650D02*
X8677325Y-26930174D01*
X8753516Y-27130174D02*
X8763039Y-27120650D01*
X8763039Y-27120650D02*
X8782087Y-27092079D01*
X8782087Y-27092079D02*
X8791611Y-27073031D01*
X8791611Y-27073031D02*
X8801135Y-27044460D01*
X8801135Y-27044460D02*
X8810658Y-26996841D01*
X8810658Y-26996841D02*
X8810658Y-26958746D01*
X8810658Y-26958746D02*
X8801135Y-26911127D01*
X8801135Y-26911127D02*
X8791611Y-26882555D01*
X8791611Y-26882555D02*
X8782087Y-26863508D01*
X8782087Y-26863508D02*
X8763039Y-26834936D01*
X8763039Y-26834936D02*
X8753516Y-26825412D01*
M02*
