%TF.GenerationSoftware,KiCad,Pcbnew,8.0.4*%
%TF.CreationDate,2024-10-30T15:47:18+01:00*%
%TF.ProjectId,VQFN16-Breakout,5651464e-3136-42d4-9272-65616b6f7574,rev?*%
%TF.SameCoordinates,Original*%
%TF.FileFunction,Legend,Bot*%
%TF.FilePolarity,Positive*%
%FSLAX46Y46*%
G04 Gerber Fmt 4.6, Leading zero omitted, Abs format (unit mm)*
G04 Created by KiCad (PCBNEW 8.0.4) date 2024-10-30 15:47:18*
%MOMM*%
%LPD*%
G01*
G04 APERTURE LIST*
%ADD10C,0.150000*%
%ADD11C,0.120000*%
G04 APERTURE END LIST*
D10*
X121070666Y-74752580D02*
X121118285Y-74800200D01*
X121118285Y-74800200D02*
X121261142Y-74847819D01*
X121261142Y-74847819D02*
X121356380Y-74847819D01*
X121356380Y-74847819D02*
X121499237Y-74800200D01*
X121499237Y-74800200D02*
X121594475Y-74704961D01*
X121594475Y-74704961D02*
X121642094Y-74609723D01*
X121642094Y-74609723D02*
X121689713Y-74419247D01*
X121689713Y-74419247D02*
X121689713Y-74276390D01*
X121689713Y-74276390D02*
X121642094Y-74085914D01*
X121642094Y-74085914D02*
X121594475Y-73990676D01*
X121594475Y-73990676D02*
X121499237Y-73895438D01*
X121499237Y-73895438D02*
X121356380Y-73847819D01*
X121356380Y-73847819D02*
X121261142Y-73847819D01*
X121261142Y-73847819D02*
X121118285Y-73895438D01*
X121118285Y-73895438D02*
X121070666Y-73943057D01*
X120213523Y-74181152D02*
X120213523Y-74847819D01*
X120451618Y-73800200D02*
X120689713Y-74514485D01*
X120689713Y-74514485D02*
X120070666Y-74514485D01*
X120816666Y-68079580D02*
X120864285Y-68127200D01*
X120864285Y-68127200D02*
X121007142Y-68174819D01*
X121007142Y-68174819D02*
X121102380Y-68174819D01*
X121102380Y-68174819D02*
X121245237Y-68127200D01*
X121245237Y-68127200D02*
X121340475Y-68031961D01*
X121340475Y-68031961D02*
X121388094Y-67936723D01*
X121388094Y-67936723D02*
X121435713Y-67746247D01*
X121435713Y-67746247D02*
X121435713Y-67603390D01*
X121435713Y-67603390D02*
X121388094Y-67412914D01*
X121388094Y-67412914D02*
X121340475Y-67317676D01*
X121340475Y-67317676D02*
X121245237Y-67222438D01*
X121245237Y-67222438D02*
X121102380Y-67174819D01*
X121102380Y-67174819D02*
X121007142Y-67174819D01*
X121007142Y-67174819D02*
X120864285Y-67222438D01*
X120864285Y-67222438D02*
X120816666Y-67270057D01*
X120483332Y-67174819D02*
X119864285Y-67174819D01*
X119864285Y-67174819D02*
X120197618Y-67555771D01*
X120197618Y-67555771D02*
X120054761Y-67555771D01*
X120054761Y-67555771D02*
X119959523Y-67603390D01*
X119959523Y-67603390D02*
X119911904Y-67651009D01*
X119911904Y-67651009D02*
X119864285Y-67746247D01*
X119864285Y-67746247D02*
X119864285Y-67984342D01*
X119864285Y-67984342D02*
X119911904Y-68079580D01*
X119911904Y-68079580D02*
X119959523Y-68127200D01*
X119959523Y-68127200D02*
X120054761Y-68174819D01*
X120054761Y-68174819D02*
X120340475Y-68174819D01*
X120340475Y-68174819D02*
X120435713Y-68127200D01*
X120435713Y-68127200D02*
X120483332Y-68079580D01*
X121070666Y-77292580D02*
X121118285Y-77340200D01*
X121118285Y-77340200D02*
X121261142Y-77387819D01*
X121261142Y-77387819D02*
X121356380Y-77387819D01*
X121356380Y-77387819D02*
X121499237Y-77340200D01*
X121499237Y-77340200D02*
X121594475Y-77244961D01*
X121594475Y-77244961D02*
X121642094Y-77149723D01*
X121642094Y-77149723D02*
X121689713Y-76959247D01*
X121689713Y-76959247D02*
X121689713Y-76816390D01*
X121689713Y-76816390D02*
X121642094Y-76625914D01*
X121642094Y-76625914D02*
X121594475Y-76530676D01*
X121594475Y-76530676D02*
X121499237Y-76435438D01*
X121499237Y-76435438D02*
X121356380Y-76387819D01*
X121356380Y-76387819D02*
X121261142Y-76387819D01*
X121261142Y-76387819D02*
X121118285Y-76435438D01*
X121118285Y-76435438D02*
X121070666Y-76483057D01*
X120689713Y-76483057D02*
X120642094Y-76435438D01*
X120642094Y-76435438D02*
X120546856Y-76387819D01*
X120546856Y-76387819D02*
X120308761Y-76387819D01*
X120308761Y-76387819D02*
X120213523Y-76435438D01*
X120213523Y-76435438D02*
X120165904Y-76483057D01*
X120165904Y-76483057D02*
X120118285Y-76578295D01*
X120118285Y-76578295D02*
X120118285Y-76673533D01*
X120118285Y-76673533D02*
X120165904Y-76816390D01*
X120165904Y-76816390D02*
X120737332Y-77387819D01*
X120737332Y-77387819D02*
X120118285Y-77387819D01*
X120750666Y-70619580D02*
X120798285Y-70667200D01*
X120798285Y-70667200D02*
X120941142Y-70714819D01*
X120941142Y-70714819D02*
X121036380Y-70714819D01*
X121036380Y-70714819D02*
X121179237Y-70667200D01*
X121179237Y-70667200D02*
X121274475Y-70571961D01*
X121274475Y-70571961D02*
X121322094Y-70476723D01*
X121322094Y-70476723D02*
X121369713Y-70286247D01*
X121369713Y-70286247D02*
X121369713Y-70143390D01*
X121369713Y-70143390D02*
X121322094Y-69952914D01*
X121322094Y-69952914D02*
X121274475Y-69857676D01*
X121274475Y-69857676D02*
X121179237Y-69762438D01*
X121179237Y-69762438D02*
X121036380Y-69714819D01*
X121036380Y-69714819D02*
X120941142Y-69714819D01*
X120941142Y-69714819D02*
X120798285Y-69762438D01*
X120798285Y-69762438D02*
X120750666Y-69810057D01*
X119798285Y-70714819D02*
X120369713Y-70714819D01*
X120083999Y-70714819D02*
X120083999Y-69714819D01*
X120083999Y-69714819D02*
X120179237Y-69857676D01*
X120179237Y-69857676D02*
X120274475Y-69952914D01*
X120274475Y-69952914D02*
X120369713Y-70000533D01*
D11*
%TO.C,C4*%
X120642748Y-75338000D02*
X121165252Y-75338000D01*
X120642748Y-76808000D02*
X121165252Y-76808000D01*
%TO.C,C3*%
X120911252Y-66775000D02*
X120388748Y-66775000D01*
X120911252Y-65305000D02*
X120388748Y-65305000D01*
%TO.C,C2*%
X120642748Y-77878000D02*
X121165252Y-77878000D01*
X120642748Y-79348000D02*
X121165252Y-79348000D01*
%TO.C,C1*%
X120845252Y-69315000D02*
X120322748Y-69315000D01*
X120845252Y-67845000D02*
X120322748Y-67845000D01*
%TD*%
M02*
