%TF.GenerationSoftware,KiCad,Pcbnew,8.0.4*%
%TF.CreationDate,2024-08-17T22:53:07+02:00*%
%TF.ProjectId,,58585858-5858-4585-9858-585858585858,rev?*%
%TF.SameCoordinates,Original*%
%TF.FileFunction,Soldermask,Bot*%
%TF.FilePolarity,Negative*%
%FSLAX46Y46*%
G04 Gerber Fmt 4.6, Leading zero omitted, Abs format (unit mm)*
G04 Created by KiCad (PCBNEW 8.0.4) date 2024-08-17 22:53:07*
%MOMM*%
%LPD*%
G01*
G04 APERTURE LIST*
G04 Aperture macros list*
%AMRoundRect*
0 Rectangle with rounded corners*
0 $1 Rounding radius*
0 $2 $3 $4 $5 $6 $7 $8 $9 X,Y pos of 4 corners*
0 Add a 4 corners polygon primitive as box body*
4,1,4,$2,$3,$4,$5,$6,$7,$8,$9,$2,$3,0*
0 Add four circle primitives for the rounded corners*
1,1,$1+$1,$2,$3*
1,1,$1+$1,$4,$5*
1,1,$1+$1,$6,$7*
1,1,$1+$1,$8,$9*
0 Add four rect primitives between the rounded corners*
20,1,$1+$1,$2,$3,$4,$5,0*
20,1,$1+$1,$4,$5,$6,$7,0*
20,1,$1+$1,$6,$7,$8,$9,0*
20,1,$1+$1,$8,$9,$2,$3,0*%
G04 Aperture macros list end*
%ADD10RoundRect,0.250000X0.475000X-0.337500X0.475000X0.337500X-0.475000X0.337500X-0.475000X-0.337500X0*%
%ADD11RoundRect,0.250000X-0.475000X0.337500X-0.475000X-0.337500X0.475000X-0.337500X0.475000X0.337500X0*%
%ADD12C,0.500000*%
%ADD13C,2.200000*%
%ADD14R,1.700000X1.700000*%
%ADD15O,1.700000X1.700000*%
%ADD16R,1.600000X1.600000*%
%ADD17C,1.600000*%
G04 APERTURE END LIST*
D10*
%TO.C,C2*%
X145960000Y-84372500D03*
X145960000Y-82297500D03*
%TD*%
D11*
%TO.C,C6*%
X113480000Y-41732500D03*
X113480000Y-43807500D03*
%TD*%
D10*
%TO.C,C2*%
X178440000Y-84372500D03*
X178440000Y-82297500D03*
%TD*%
D11*
%TO.C,C6*%
X178440000Y-41732500D03*
X178440000Y-43807500D03*
%TD*%
%TO.C,C6*%
X113480000Y-78276500D03*
X113480000Y-80351500D03*
%TD*%
%TO.C,C6*%
X145960000Y-78276500D03*
X145960000Y-80351500D03*
%TD*%
%TO.C,C6*%
X145960000Y-41732500D03*
X145960000Y-43807500D03*
%TD*%
D10*
%TO.C,C2*%
X178440000Y-47828500D03*
X178440000Y-45753500D03*
%TD*%
D11*
%TO.C,C6*%
X178440000Y-78276500D03*
X178440000Y-80351500D03*
%TD*%
D10*
%TO.C,C2*%
X113480000Y-84372500D03*
X113480000Y-82297500D03*
%TD*%
%TO.C,C2*%
X113480000Y-47828500D03*
X113480000Y-45753500D03*
%TD*%
%TO.C,C2*%
X145960000Y-47828500D03*
X145960000Y-45753500D03*
%TD*%
D12*
%TO.C,KiKit_MB_3_1*%
X109440000Y-27000500D03*
%TD*%
%TO.C,KiKit_MB_28_4*%
X133260000Y-85073833D03*
%TD*%
%TO.C,KiKit_MB_31_3*%
X143920000Y-63544500D03*
%TD*%
%TO.C,KiKit_MB_33_2*%
X143920000Y-98088500D03*
%TD*%
%TO.C,KiKit_MB_33_3*%
X142920000Y-98088500D03*
%TD*%
%TO.C,KiKit_MB_25_1*%
X112440000Y-98088500D03*
%TD*%
%TO.C,KiKit_MB_16_1*%
X165740000Y-51529833D03*
%TD*%
%TO.C,KiKit_MB_30_3*%
X163740000Y-87073833D03*
%TD*%
%TO.C,KiKit_MB_38_4*%
X187560000Y-63544500D03*
%TD*%
D13*
%TO.C,M2*%
X136308000Y-66592500D03*
%TD*%
D12*
%TO.C,KiKit_MB_11_3*%
X143920000Y-27000500D03*
%TD*%
%TO.C,KiKit_MB_11_4*%
X144920000Y-27000500D03*
%TD*%
%TO.C,KiKit_MB_18_2*%
X185560000Y-27000500D03*
%TD*%
%TO.C,KiKit_MB_5_2*%
X111440000Y-61544500D03*
%TD*%
%TO.C,KiKit_MB_39_3*%
X175400000Y-98088500D03*
%TD*%
%TO.C,KiKit_MB_34_4*%
X152080000Y-98088500D03*
%TD*%
%TO.C,KiKit_MB_12_3*%
X154080000Y-27000500D03*
%TD*%
%TO.C,KiKit_MB_26_4*%
X119600000Y-98088500D03*
%TD*%
%TO.C,KiKit_MB_7_2*%
X133260000Y-39015167D03*
%TD*%
%TO.C,KiKit_MB_10_2*%
X163740000Y-49529833D03*
%TD*%
%TO.C,KiKit_MB_14_1*%
X155080000Y-61544500D03*
%TD*%
%TO.C,KiKit_MB_6_1*%
X122600000Y-61544500D03*
%TD*%
D14*
%TO.C,J1*%
X161708000Y-35636500D03*
D15*
X161708000Y-38176500D03*
X161708000Y-40716500D03*
X161708000Y-43256500D03*
X161708000Y-45796500D03*
X161708000Y-48336500D03*
X161708000Y-50876500D03*
X161708000Y-53416500D03*
%TD*%
D12*
%TO.C,KiKit_MB_19_1*%
X177400000Y-61544500D03*
%TD*%
D16*
%TO.C,C7*%
X123044380Y-75228500D03*
D17*
X120544380Y-75228500D03*
%TD*%
D12*
%TO.C,KiKit_MB_34_2*%
X154080000Y-98088500D03*
%TD*%
%TO.C,KiKit_MB_5_3*%
X110440000Y-61544500D03*
%TD*%
%TO.C,KiKit_MB_7_3*%
X133260000Y-38015167D03*
%TD*%
%TO.C,KiKit_MB_25_4*%
X109440000Y-98088500D03*
%TD*%
D14*
%TO.C,J2*%
X168026000Y-47579500D03*
D15*
X168026000Y-45039500D03*
%TD*%
D12*
%TO.C,KiKit_MB_19_3*%
X175400000Y-61544500D03*
%TD*%
%TO.C,KiKit_MB_37_2*%
X175400000Y-63544500D03*
%TD*%
%TO.C,KiKit_MB_9_4*%
X163740000Y-40015167D03*
%TD*%
%TO.C,KiKit_MB_3_3*%
X111440000Y-27000500D03*
%TD*%
%TO.C,KiKit_MB_24_3*%
X121600000Y-63544500D03*
%TD*%
%TO.C,KiKit_MB_7_1*%
X133260000Y-40015167D03*
%TD*%
D13*
%TO.C,REF\u002A\u002A*%
X128212000Y-95040500D03*
%TD*%
D12*
%TO.C,KiKit_MB_17_3*%
X176400000Y-27000500D03*
%TD*%
%TO.C,KiKit_MB_4_3*%
X121600000Y-27000500D03*
%TD*%
%TO.C,KiKit_MB_2_4*%
X131260000Y-51529833D03*
%TD*%
%TO.C,KiKit_MB_13_2*%
X143920000Y-61544500D03*
%TD*%
%TO.C,KiKit_MB_36_3*%
X165740000Y-86073833D03*
%TD*%
%TO.C,KiKit_MB_27_1*%
X133260000Y-76559166D03*
%TD*%
%TO.C,KiKit_MB_11_2*%
X142920000Y-27000500D03*
%TD*%
%TO.C,KiKit_MB_20_4*%
X184560000Y-61544500D03*
%TD*%
D14*
%TO.C,J1*%
X129228000Y-35636500D03*
D15*
X129228000Y-38176500D03*
X129228000Y-40716500D03*
X129228000Y-43256500D03*
X129228000Y-45796500D03*
X129228000Y-48336500D03*
X129228000Y-50876500D03*
X129228000Y-53416500D03*
%TD*%
D16*
%TO.C,C7*%
X188004380Y-75228500D03*
D17*
X185504380Y-75228500D03*
%TD*%
D12*
%TO.C,KiKit_MB_9_2*%
X163740000Y-38015167D03*
%TD*%
%TO.C,KiKit_MB_1_2*%
X131260000Y-38015167D03*
%TD*%
%TO.C,KiKit_MB_14_3*%
X153080000Y-61544500D03*
%TD*%
%TO.C,KiKit_MB_29_3*%
X163740000Y-75559166D03*
%TD*%
%TO.C,KiKit_MB_27_4*%
X133260000Y-73559166D03*
%TD*%
%TO.C,KiKit_MB_1_4*%
X131260000Y-40015167D03*
%TD*%
%TO.C,KiKit_MB_23_4*%
X112440000Y-63544500D03*
%TD*%
%TO.C,KiKit_MB_20_1*%
X187560000Y-61544500D03*
%TD*%
D13*
%TO.C,REF\u002A\u002A*%
X103828000Y-95040500D03*
%TD*%
D12*
%TO.C,KiKit_MB_15_4*%
X165740000Y-37015167D03*
%TD*%
%TO.C,KiKit_MB_4_2*%
X120600000Y-27000500D03*
%TD*%
%TO.C,KiKit_MB_22_4*%
X131260000Y-88073833D03*
%TD*%
%TO.C,KiKit_MB_9_1*%
X163740000Y-37015167D03*
%TD*%
%TO.C,KiKit_MB_20_2*%
X186560000Y-61544500D03*
%TD*%
%TO.C,KiKit_MB_36_4*%
X165740000Y-85073833D03*
%TD*%
%TO.C,KiKit_MB_14_2*%
X154080000Y-61544500D03*
%TD*%
%TO.C,KiKit_MB_8_3*%
X133260000Y-49529833D03*
%TD*%
D13*
%TO.C,REF\u002A\u002A*%
X128212000Y-30048500D03*
%TD*%
D12*
%TO.C,KiKit_MB_33_1*%
X144920000Y-98088500D03*
%TD*%
%TO.C,KiKit_MB_13_1*%
X144920000Y-61544500D03*
%TD*%
%TO.C,KiKit_MB_31_1*%
X141920000Y-63544500D03*
%TD*%
%TO.C,KiKit_MB_17_4*%
X177400000Y-27000500D03*
%TD*%
%TO.C,KiKit_MB_1_1*%
X131260000Y-37015167D03*
%TD*%
%TO.C,KiKit_MB_22_3*%
X131260000Y-87073833D03*
%TD*%
%TO.C,KiKit_MB_29_2*%
X163740000Y-74559166D03*
%TD*%
%TO.C,KiKit_MB_34_3*%
X153080000Y-98088500D03*
%TD*%
%TO.C,KiKit_MB_18_1*%
X184560000Y-27000500D03*
%TD*%
D13*
%TO.C,REF\u002A\u002A*%
X193172000Y-95040500D03*
%TD*%
D14*
%TO.C,J2*%
X135546000Y-84123500D03*
D15*
X135546000Y-81583500D03*
%TD*%
D12*
%TO.C,KiKit_MB_17_1*%
X174400000Y-27000500D03*
%TD*%
%TO.C,KiKit_MB_21_3*%
X131260000Y-75559166D03*
%TD*%
%TO.C,KiKit_MB_10_3*%
X163740000Y-50529833D03*
%TD*%
%TO.C,KiKit_MB_30_2*%
X163740000Y-86073833D03*
%TD*%
D13*
%TO.C,REF\u002A\u002A*%
X168788000Y-58496500D03*
%TD*%
D12*
%TO.C,KiKit_MB_13_4*%
X141920000Y-61544500D03*
%TD*%
%TO.C,KiKit_MB_8_1*%
X133260000Y-51529833D03*
%TD*%
D14*
%TO.C,J2*%
X103066000Y-47579500D03*
D15*
X103066000Y-45039500D03*
%TD*%
D12*
%TO.C,KiKit_MB_31_4*%
X144920000Y-63544500D03*
%TD*%
D16*
%TO.C,C7*%
X155524380Y-75228500D03*
D17*
X153024380Y-75228500D03*
%TD*%
D12*
%TO.C,KiKit_MB_38_1*%
X184560000Y-63544500D03*
%TD*%
D13*
%TO.C,REF\u002A\u002A*%
X160692000Y-58496500D03*
%TD*%
D12*
%TO.C,KiKit_MB_32_1*%
X152080000Y-63544500D03*
%TD*%
D13*
%TO.C,REF\u002A\u002A*%
X193172000Y-66592500D03*
%TD*%
D12*
%TO.C,KiKit_MB_6_3*%
X120600000Y-61544500D03*
%TD*%
%TO.C,KiKit_MB_10_4*%
X163740000Y-51529833D03*
%TD*%
D13*
%TO.C,REF\u002A\u002A*%
X128212000Y-58496500D03*
%TD*%
D12*
%TO.C,KiKit_MB_4_4*%
X122600000Y-27000500D03*
%TD*%
%TO.C,KiKit_MB_16_3*%
X165740000Y-49529833D03*
%TD*%
%TO.C,KiKit_MB_14_4*%
X152080000Y-61544500D03*
%TD*%
%TO.C,KiKit_MB_5_1*%
X112440000Y-61544500D03*
%TD*%
%TO.C,KiKit_MB_23_3*%
X111440000Y-63544500D03*
%TD*%
D14*
%TO.C,J2*%
X135546000Y-47579500D03*
D15*
X135546000Y-45039500D03*
%TD*%
D12*
%TO.C,KiKit_MB_30_4*%
X163740000Y-88073833D03*
%TD*%
%TO.C,KiKit_MB_15_2*%
X165740000Y-39015167D03*
%TD*%
%TO.C,KiKit_MB_24_2*%
X120600000Y-63544500D03*
%TD*%
D13*
%TO.C,M2*%
X136308000Y-30048500D03*
%TD*%
D12*
%TO.C,KiKit_MB_28_1*%
X133260000Y-88073833D03*
%TD*%
%TO.C,KiKit_MB_30_1*%
X163740000Y-85073833D03*
%TD*%
%TO.C,KiKit_MB_20_3*%
X185560000Y-61544500D03*
%TD*%
D16*
%TO.C,C7*%
X155524380Y-38684500D03*
D17*
X153024380Y-38684500D03*
%TD*%
D12*
%TO.C,KiKit_MB_12_1*%
X152080000Y-27000500D03*
%TD*%
%TO.C,KiKit_MB_35_1*%
X165740000Y-76559166D03*
%TD*%
D13*
%TO.C,M2*%
X103828000Y-30048500D03*
%TD*%
D12*
%TO.C,KiKit_MB_2_3*%
X131260000Y-50529833D03*
%TD*%
%TO.C,KiKit_MB_2_1*%
X131260000Y-48529833D03*
%TD*%
%TO.C,KiKit_MB_27_2*%
X133260000Y-75559166D03*
%TD*%
%TO.C,KiKit_MB_5_4*%
X109440000Y-61544500D03*
%TD*%
D14*
%TO.C,J1*%
X129228000Y-72180500D03*
D15*
X129228000Y-74720500D03*
X129228000Y-77260500D03*
X129228000Y-79800500D03*
X129228000Y-82340500D03*
X129228000Y-84880500D03*
X129228000Y-87420500D03*
X129228000Y-89960500D03*
%TD*%
D13*
%TO.C,REF\u002A\u002A*%
X136308000Y-95040500D03*
%TD*%
D12*
%TO.C,KiKit_MB_4_1*%
X119600000Y-27000500D03*
%TD*%
%TO.C,KiKit_MB_40_2*%
X186560000Y-98088500D03*
%TD*%
%TO.C,KiKit_MB_24_4*%
X122600000Y-63544500D03*
%TD*%
%TO.C,KiKit_MB_23_2*%
X110440000Y-63544500D03*
%TD*%
%TO.C,KiKit_MB_36_1*%
X165740000Y-88073833D03*
%TD*%
%TO.C,KiKit_MB_12_4*%
X155080000Y-27000500D03*
%TD*%
%TO.C,KiKit_MB_19_2*%
X176400000Y-61544500D03*
%TD*%
%TO.C,KiKit_MB_25_2*%
X111440000Y-98088500D03*
%TD*%
D14*
%TO.C,J1*%
X161708000Y-72180500D03*
D15*
X161708000Y-74720500D03*
X161708000Y-77260500D03*
X161708000Y-79800500D03*
X161708000Y-82340500D03*
X161708000Y-84880500D03*
X161708000Y-87420500D03*
X161708000Y-89960500D03*
%TD*%
D14*
%TO.C,J1*%
X194188000Y-72180500D03*
D15*
X194188000Y-74720500D03*
X194188000Y-77260500D03*
X194188000Y-79800500D03*
X194188000Y-82340500D03*
X194188000Y-84880500D03*
X194188000Y-87420500D03*
X194188000Y-89960500D03*
%TD*%
D12*
%TO.C,KiKit_MB_21_1*%
X131260000Y-73559166D03*
%TD*%
D13*
%TO.C,REF\u002A\u002A*%
X160692000Y-30048500D03*
%TD*%
D12*
%TO.C,KiKit_MB_16_2*%
X165740000Y-50529833D03*
%TD*%
%TO.C,KiKit_MB_8_4*%
X133260000Y-48529833D03*
%TD*%
%TO.C,KiKit_MB_37_4*%
X177400000Y-63544500D03*
%TD*%
%TO.C,KiKit_MB_39_4*%
X174400000Y-98088500D03*
%TD*%
%TO.C,KiKit_MB_35_3*%
X165740000Y-74559166D03*
%TD*%
D14*
%TO.C,J2*%
X168026000Y-84123500D03*
D15*
X168026000Y-81583500D03*
%TD*%
D13*
%TO.C,REF\u002A\u002A*%
X193172000Y-30048500D03*
%TD*%
D12*
%TO.C,KiKit_MB_13_3*%
X142920000Y-61544500D03*
%TD*%
%TO.C,KiKit_MB_32_4*%
X155080000Y-63544500D03*
%TD*%
%TO.C,KiKit_MB_28_2*%
X133260000Y-87073833D03*
%TD*%
%TO.C,KiKit_MB_16_4*%
X165740000Y-48529833D03*
%TD*%
%TO.C,KiKit_MB_35_4*%
X165740000Y-73559166D03*
%TD*%
D13*
%TO.C,REF\u002A\u002A*%
X136308000Y-58496500D03*
%TD*%
D12*
%TO.C,KiKit_MB_26_1*%
X122600000Y-98088500D03*
%TD*%
D13*
%TO.C,REF\u002A\u002A*%
X168788000Y-95040500D03*
%TD*%
%TO.C,REF\u002A\u002A*%
X193172000Y-58496500D03*
%TD*%
D14*
%TO.C,J1*%
X194188000Y-35636500D03*
D15*
X194188000Y-38176500D03*
X194188000Y-40716500D03*
X194188000Y-43256500D03*
X194188000Y-45796500D03*
X194188000Y-48336500D03*
X194188000Y-50876500D03*
X194188000Y-53416500D03*
%TD*%
D12*
%TO.C,KiKit_MB_29_1*%
X163740000Y-73559166D03*
%TD*%
D14*
%TO.C,J2*%
X103066000Y-84123500D03*
D15*
X103066000Y-81583500D03*
%TD*%
D12*
%TO.C,KiKit_MB_26_2*%
X121600000Y-98088500D03*
%TD*%
%TO.C,KiKit_MB_17_2*%
X175400000Y-27000500D03*
%TD*%
%TO.C,KiKit_MB_38_3*%
X186560000Y-63544500D03*
%TD*%
%TO.C,KiKit_MB_40_1*%
X187560000Y-98088500D03*
%TD*%
%TO.C,KiKit_MB_3_2*%
X110440000Y-27000500D03*
%TD*%
%TO.C,KiKit_MB_15_3*%
X165740000Y-38015167D03*
%TD*%
%TO.C,KiKit_MB_31_2*%
X142920000Y-63544500D03*
%TD*%
%TO.C,KiKit_MB_32_2*%
X153080000Y-63544500D03*
%TD*%
D13*
%TO.C,M2*%
X103828000Y-66592500D03*
%TD*%
D12*
%TO.C,KiKit_MB_21_2*%
X131260000Y-74559166D03*
%TD*%
%TO.C,KiKit_MB_8_2*%
X133260000Y-50529833D03*
%TD*%
%TO.C,KiKit_MB_7_4*%
X133260000Y-37015167D03*
%TD*%
%TO.C,KiKit_MB_24_1*%
X119600000Y-63544500D03*
%TD*%
%TO.C,KiKit_MB_1_3*%
X131260000Y-39015167D03*
%TD*%
D16*
%TO.C,C7*%
X188004380Y-38684500D03*
D17*
X185504380Y-38684500D03*
%TD*%
D12*
%TO.C,KiKit_MB_3_4*%
X112440000Y-27000500D03*
%TD*%
D16*
%TO.C,C7*%
X123044380Y-38684500D03*
D17*
X120544380Y-38684500D03*
%TD*%
D13*
%TO.C,REF\u002A\u002A*%
X160692000Y-66592500D03*
%TD*%
D12*
%TO.C,KiKit_MB_22_1*%
X131260000Y-85073833D03*
%TD*%
%TO.C,KiKit_MB_40_3*%
X185560000Y-98088500D03*
%TD*%
%TO.C,KiKit_MB_19_4*%
X174400000Y-61544500D03*
%TD*%
%TO.C,KiKit_MB_38_2*%
X185560000Y-63544500D03*
%TD*%
%TO.C,KiKit_MB_40_4*%
X184560000Y-98088500D03*
%TD*%
%TO.C,KiKit_MB_25_3*%
X110440000Y-98088500D03*
%TD*%
%TO.C,KiKit_MB_6_2*%
X121600000Y-61544500D03*
%TD*%
%TO.C,KiKit_MB_37_1*%
X174400000Y-63544500D03*
%TD*%
D13*
%TO.C,REF\u002A\u002A*%
X128212000Y-66592500D03*
%TD*%
%TO.C,REF\u002A\u002A*%
X103828000Y-58496500D03*
%TD*%
%TO.C,M2*%
X168788000Y-30048500D03*
%TD*%
D12*
%TO.C,KiKit_MB_9_3*%
X163740000Y-39015167D03*
%TD*%
%TO.C,KiKit_MB_2_2*%
X131260000Y-49529833D03*
%TD*%
%TO.C,KiKit_MB_22_2*%
X131260000Y-86073833D03*
%TD*%
%TO.C,KiKit_MB_28_3*%
X133260000Y-86073833D03*
%TD*%
%TO.C,KiKit_MB_15_1*%
X165740000Y-40015167D03*
%TD*%
%TO.C,KiKit_MB_21_4*%
X131260000Y-76559166D03*
%TD*%
%TO.C,KiKit_MB_12_2*%
X153080000Y-27000500D03*
%TD*%
%TO.C,KiKit_MB_36_2*%
X165740000Y-87073833D03*
%TD*%
%TO.C,KiKit_MB_37_3*%
X176400000Y-63544500D03*
%TD*%
%TO.C,KiKit_MB_35_2*%
X165740000Y-75559166D03*
%TD*%
%TO.C,KiKit_MB_18_4*%
X187560000Y-27000500D03*
%TD*%
%TO.C,KiKit_MB_26_3*%
X120600000Y-98088500D03*
%TD*%
%TO.C,KiKit_MB_27_3*%
X133260000Y-74559166D03*
%TD*%
D13*
%TO.C,REF\u002A\u002A*%
X160692000Y-95040500D03*
%TD*%
D12*
%TO.C,KiKit_MB_23_1*%
X109440000Y-63544500D03*
%TD*%
D13*
%TO.C,M2*%
X168788000Y-66592500D03*
%TD*%
D12*
%TO.C,KiKit_MB_33_4*%
X141920000Y-98088500D03*
%TD*%
%TO.C,KiKit_MB_10_1*%
X163740000Y-48529833D03*
%TD*%
%TO.C,KiKit_MB_11_1*%
X141920000Y-27000500D03*
%TD*%
%TO.C,KiKit_MB_29_4*%
X163740000Y-76559166D03*
%TD*%
%TO.C,KiKit_MB_32_3*%
X154080000Y-63544500D03*
%TD*%
%TO.C,KiKit_MB_34_1*%
X155080000Y-98088500D03*
%TD*%
%TO.C,KiKit_MB_6_4*%
X119600000Y-61544500D03*
%TD*%
%TO.C,KiKit_MB_39_2*%
X176400000Y-98088500D03*
%TD*%
%TO.C,KiKit_MB_18_3*%
X186560000Y-27000500D03*
%TD*%
%TO.C,KiKit_MB_39_1*%
X177400000Y-98088500D03*
%TD*%
M02*
