%TF.GenerationSoftware,KiCad,Pcbnew,8.0.4*%
%TF.CreationDate,2024-08-17T22:53:07+02:00*%
%TF.ProjectId,,58585858-5858-4585-9858-585858585858,rev?*%
%TF.SameCoordinates,Original*%
%TF.FileFunction,Profile,NP*%
%FSLAX46Y46*%
G04 Gerber Fmt 4.6, Leading zero omitted, Abs format (unit mm)*
G04 Created by KiCad (PCBNEW 8.0.4) date 2024-08-17 22:53:07*
%MOMM*%
%LPD*%
G01*
G04 APERTURE LIST*
%TA.AperFunction,Profile*%
%ADD10C,0.100000*%
%TD*%
G04 APERTURE END LIST*
D10*
X132259000Y-73559166D02*
X131260000Y-73559166D01*
X163740000Y-88073833D02*
X164739000Y-88073833D01*
X132261000Y-40015166D02*
X133260000Y-40015166D01*
X122600000Y-100089500D02*
X122600000Y-98088500D01*
X152080000Y-98088500D02*
X152080000Y-100089500D01*
X144920000Y-27000500D02*
X144920000Y-25000000D01*
X141920000Y-98088500D02*
X141920000Y-100089500D01*
X131260000Y-61544500D02*
X131260000Y-51529833D01*
X152080000Y-62545500D02*
X152080000Y-63544500D01*
X177400000Y-62545500D02*
X177400000Y-62543500D01*
X132259000Y-51529833D02*
X132261000Y-51529833D01*
X155080000Y-62545500D02*
X155080000Y-62543500D01*
X100780000Y-25000000D02*
X109440000Y-25000000D01*
X141920000Y-62543500D02*
X141920000Y-62545500D01*
X132261000Y-48529833D02*
X132259000Y-48529833D01*
X141920000Y-63544500D02*
X133260000Y-63544500D01*
X133260000Y-63544500D02*
X133260000Y-73559166D01*
X112440000Y-100089500D02*
X112440000Y-98088500D01*
X177400000Y-63544500D02*
X177400000Y-62545500D01*
X164741000Y-40015166D02*
X165740000Y-40015166D01*
X187560000Y-25000000D02*
X196220000Y-25000000D01*
X132261000Y-88073833D02*
X133260000Y-88073833D01*
X144920000Y-98088500D02*
X152080000Y-98088500D01*
X164741000Y-37015166D02*
X164739000Y-37015166D01*
X164739000Y-37015166D02*
X163740000Y-37015166D01*
X164739000Y-40015166D02*
X164741000Y-40015166D01*
X165740000Y-76559166D02*
X165740000Y-85073833D01*
X132259000Y-40015166D02*
X132261000Y-40015166D01*
X163740000Y-48529833D02*
X163740000Y-40015166D01*
X187560000Y-62543500D02*
X187560000Y-61544500D01*
X133260000Y-88073833D02*
X133260000Y-98088500D01*
X184560000Y-62543500D02*
X184560000Y-62545500D01*
X122600000Y-63544500D02*
X122600000Y-62545500D01*
X174400000Y-98088500D02*
X174400000Y-100089500D01*
X187560000Y-100089500D02*
X187560000Y-98088500D01*
X196220000Y-25000000D02*
X196220000Y-20000000D01*
X109440000Y-100089500D02*
X100780000Y-100089500D01*
X131260000Y-27000500D02*
X122600000Y-27000500D01*
X133260000Y-48529833D02*
X132261000Y-48529833D01*
X163740000Y-63544500D02*
X155080000Y-63544500D01*
X132261000Y-51529833D02*
X133260000Y-51529833D01*
X131260000Y-63544500D02*
X122600000Y-63544500D01*
X131260000Y-85073833D02*
X131260000Y-76559166D01*
X184560000Y-98088500D02*
X184560000Y-100089500D01*
X119600000Y-27000500D02*
X112440000Y-27000500D01*
X165740000Y-88073833D02*
X165740000Y-98088500D01*
X163740000Y-27000500D02*
X155080000Y-27000500D01*
X100780000Y-100089500D02*
X100780000Y-105089500D01*
X109440000Y-98088500D02*
X109440000Y-100089500D01*
X109440000Y-61544500D02*
X109440000Y-62543500D01*
X164739000Y-73559166D02*
X163740000Y-73559166D01*
X174400000Y-62543500D02*
X174400000Y-62545500D01*
X164739000Y-76559166D02*
X164741000Y-76559166D01*
X164739000Y-88073833D02*
X164741000Y-88073833D01*
X196220000Y-98088500D02*
X196220000Y-63544500D01*
X196220000Y-63544500D02*
X187560000Y-63544500D01*
X164741000Y-85073833D02*
X164739000Y-85073833D01*
X184560000Y-61544500D02*
X184560000Y-62543500D01*
X164741000Y-88073833D02*
X165740000Y-88073833D01*
X100780000Y-61544500D02*
X109440000Y-61544500D01*
X141920000Y-25000000D02*
X141920000Y-27000500D01*
X177400000Y-27000500D02*
X177400000Y-25000000D01*
X163740000Y-76559166D02*
X164739000Y-76559166D01*
X196220000Y-105089500D02*
X196220000Y-100089500D01*
X152080000Y-100089500D02*
X144920000Y-100089500D01*
X119600000Y-61544500D02*
X119600000Y-62543500D01*
X144920000Y-63544500D02*
X144920000Y-62545500D01*
X119600000Y-25000000D02*
X119600000Y-27000500D01*
X155080000Y-62543500D02*
X155080000Y-61544500D01*
X122600000Y-62545500D02*
X122600000Y-62543500D01*
X132261000Y-73559166D02*
X132259000Y-73559166D01*
X184560000Y-63544500D02*
X177400000Y-63544500D01*
X187560000Y-98088500D02*
X196220000Y-98088500D01*
X174400000Y-25000000D02*
X174400000Y-27000500D01*
X132259000Y-48529833D02*
X131260000Y-48529833D01*
X165740000Y-98088500D02*
X174400000Y-98088500D01*
X174400000Y-61544500D02*
X174400000Y-62543500D01*
X174400000Y-100089500D02*
X155080000Y-100089500D01*
X152080000Y-27000500D02*
X144920000Y-27000500D01*
X141920000Y-62545500D02*
X141920000Y-63544500D01*
X131260000Y-73559166D02*
X131260000Y-63544500D01*
X174400000Y-62545500D02*
X174400000Y-63544500D01*
X187560000Y-63544500D02*
X187560000Y-62545500D01*
X100780000Y-105089500D02*
X196220000Y-105089500D01*
X144920000Y-62545500D02*
X144920000Y-62543500D01*
X133260000Y-27000500D02*
X133260000Y-37015166D01*
X112440000Y-27000500D02*
X112440000Y-25000000D01*
X165740000Y-51529833D02*
X165740000Y-61544500D01*
X184560000Y-25000000D02*
X184560000Y-27000500D01*
X155080000Y-63544500D02*
X155080000Y-62545500D01*
X132261000Y-85073833D02*
X132259000Y-85073833D01*
X177400000Y-100089500D02*
X177400000Y-98088500D01*
X119600000Y-62545500D02*
X119600000Y-63544500D01*
X177400000Y-61544500D02*
X184560000Y-61544500D01*
X155080000Y-61544500D02*
X163740000Y-61544500D01*
X177400000Y-62543500D02*
X177400000Y-61544500D01*
X163740000Y-51529833D02*
X164739000Y-51529833D01*
X184560000Y-100089500D02*
X177400000Y-100089500D01*
X109440000Y-62545500D02*
X109440000Y-63544500D01*
X131260000Y-37015166D02*
X131260000Y-27000500D01*
X131260000Y-40015166D02*
X132259000Y-40015166D01*
X132259000Y-88073833D02*
X132261000Y-88073833D01*
X174400000Y-27000500D02*
X165740000Y-27000500D01*
X131260000Y-76559166D02*
X132259000Y-76559166D01*
X112440000Y-98088500D02*
X119600000Y-98088500D01*
X133260000Y-37015166D02*
X132261000Y-37015166D01*
X144920000Y-25000000D02*
X152080000Y-25000000D01*
X131260000Y-48529833D02*
X131260000Y-40015166D01*
X100780000Y-63544500D02*
X100780000Y-98088500D01*
X122600000Y-98088500D02*
X131260000Y-98088500D01*
X109440000Y-27000500D02*
X100780000Y-27000500D01*
X132259000Y-85073833D02*
X131260000Y-85073833D01*
X144920000Y-61544500D02*
X152080000Y-61544500D01*
X152080000Y-62543500D02*
X152080000Y-62545500D01*
X164741000Y-48529833D02*
X164739000Y-48529833D01*
X187560000Y-62545500D02*
X187560000Y-62543500D01*
X112440000Y-62543500D02*
X112440000Y-61544500D01*
X165740000Y-40015166D02*
X165740000Y-48529833D01*
X165740000Y-73559166D02*
X164741000Y-73559166D01*
X196220000Y-27000500D02*
X187560000Y-27000500D01*
X152080000Y-25000000D02*
X152080000Y-27000500D01*
X133260000Y-98088500D02*
X141920000Y-98088500D01*
X109440000Y-62543500D02*
X109440000Y-62545500D01*
X144920000Y-100089500D02*
X144920000Y-98088500D01*
X164739000Y-85073833D02*
X163740000Y-85073833D01*
X165740000Y-85073833D02*
X164741000Y-85073833D01*
X133260000Y-51529833D02*
X133260000Y-61544500D01*
X177400000Y-25000000D02*
X184560000Y-25000000D01*
X100780000Y-20000000D02*
X100780000Y-25000000D01*
X164739000Y-48529833D02*
X163740000Y-48529833D01*
X133260000Y-76559166D02*
X133260000Y-85073833D01*
X163740000Y-73559166D02*
X163740000Y-63544500D01*
X100780000Y-98088500D02*
X109440000Y-98088500D01*
X122600000Y-25000000D02*
X141920000Y-25000000D01*
X131260000Y-51529833D02*
X132259000Y-51529833D01*
X177400000Y-98088500D02*
X184560000Y-98088500D01*
X187560000Y-61544500D02*
X196220000Y-61544500D01*
X119600000Y-100089500D02*
X112440000Y-100089500D01*
X119600000Y-98088500D02*
X119600000Y-100089500D01*
X132261000Y-37015166D02*
X132259000Y-37015166D01*
X164741000Y-73559166D02*
X164739000Y-73559166D01*
X196220000Y-100089500D02*
X187560000Y-100089500D01*
X141920000Y-61544500D02*
X141920000Y-62543500D01*
X155080000Y-27000500D02*
X155080000Y-25000000D01*
X112440000Y-62545500D02*
X112440000Y-62543500D01*
X119600000Y-63544500D02*
X112440000Y-63544500D01*
X112440000Y-25000000D02*
X119600000Y-25000000D01*
X196220000Y-61544500D02*
X196220000Y-27000500D01*
X109440000Y-25000000D02*
X109440000Y-27000500D01*
X133260000Y-40015166D02*
X133260000Y-48529833D01*
X131260000Y-98088500D02*
X131260000Y-88073833D01*
X141920000Y-27000500D02*
X133260000Y-27000500D01*
X132261000Y-76559166D02*
X133260000Y-76559166D01*
X122600000Y-61544500D02*
X131260000Y-61544500D01*
X122600000Y-27000500D02*
X122600000Y-25000000D01*
X109440000Y-63544500D02*
X100780000Y-63544500D01*
X165740000Y-48529833D02*
X164741000Y-48529833D01*
X131260000Y-88073833D02*
X132259000Y-88073833D01*
X133260000Y-61544500D02*
X141920000Y-61544500D01*
X184560000Y-62545500D02*
X184560000Y-63544500D01*
X196220000Y-20000000D02*
X100780000Y-20000000D01*
X155080000Y-25000000D02*
X174400000Y-25000000D01*
X163740000Y-37015166D02*
X163740000Y-27000500D01*
X165740000Y-61544500D02*
X174400000Y-61544500D01*
X164739000Y-51529833D02*
X164741000Y-51529833D01*
X112440000Y-61544500D02*
X119600000Y-61544500D01*
X141920000Y-100089500D02*
X122600000Y-100089500D01*
X152080000Y-61544500D02*
X152080000Y-62543500D01*
X163740000Y-61544500D02*
X163740000Y-51529833D01*
X122600000Y-62543500D02*
X122600000Y-61544500D01*
X165740000Y-63544500D02*
X165740000Y-73559166D01*
X165740000Y-27000500D02*
X165740000Y-37015166D01*
X144920000Y-62543500D02*
X144920000Y-61544500D01*
X133260000Y-73559166D02*
X132261000Y-73559166D01*
X164741000Y-51529833D02*
X165740000Y-51529833D01*
X100780000Y-27000500D02*
X100780000Y-61544500D01*
X155080000Y-98088500D02*
X163740000Y-98088500D01*
X133260000Y-85073833D02*
X132261000Y-85073833D01*
X163740000Y-40015166D02*
X164739000Y-40015166D01*
X165740000Y-37015166D02*
X164741000Y-37015166D01*
X132259000Y-37015166D02*
X131260000Y-37015166D01*
X163740000Y-85073833D02*
X163740000Y-76559166D01*
X164741000Y-76559166D02*
X165740000Y-76559166D01*
X112440000Y-63544500D02*
X112440000Y-62545500D01*
X132259000Y-76559166D02*
X132261000Y-76559166D01*
X187560000Y-27000500D02*
X187560000Y-25000000D01*
X119600000Y-62543500D02*
X119600000Y-62545500D01*
X163740000Y-98088500D02*
X163740000Y-88073833D01*
X174400000Y-63544500D02*
X165740000Y-63544500D01*
X152080000Y-63544500D02*
X144920000Y-63544500D01*
X184560000Y-27000500D02*
X177400000Y-27000500D01*
X155080000Y-100089500D02*
X155080000Y-98088500D01*
M02*
