%TF.GenerationSoftware,KiCad,Pcbnew,8.0.4*%
%TF.CreationDate,2024-08-17T22:53:07+02:00*%
%TF.ProjectId,,58585858-5858-4585-9858-585858585858,rev?*%
%TF.SameCoordinates,Original*%
%TF.FileFunction,Paste,Top*%
%TF.FilePolarity,Positive*%
%FSLAX46Y46*%
G04 Gerber Fmt 4.6, Leading zero omitted, Abs format (unit mm)*
G04 Created by KiCad (PCBNEW 8.0.4) date 2024-08-17 22:53:07*
%MOMM*%
%LPD*%
G01*
G04 APERTURE LIST*
G04 Aperture macros list*
%AMRoundRect*
0 Rectangle with rounded corners*
0 $1 Rounding radius*
0 $2 $3 $4 $5 $6 $7 $8 $9 X,Y pos of 4 corners*
0 Add a 4 corners polygon primitive as box body*
4,1,4,$2,$3,$4,$5,$6,$7,$8,$9,$2,$3,0*
0 Add four circle primitives for the rounded corners*
1,1,$1+$1,$2,$3*
1,1,$1+$1,$4,$5*
1,1,$1+$1,$6,$7*
1,1,$1+$1,$8,$9*
0 Add four rect primitives between the rounded corners*
20,1,$1+$1,$2,$3,$4,$5,0*
20,1,$1+$1,$4,$5,$6,$7,0*
20,1,$1+$1,$6,$7,$8,$9,0*
20,1,$1+$1,$8,$9,$2,$3,0*%
G04 Aperture macros list end*
%ADD10RoundRect,0.250000X-0.475000X0.337500X-0.475000X-0.337500X0.475000X-0.337500X0.475000X0.337500X0*%
%ADD11RoundRect,0.172500X-0.172500X-0.422500X0.172500X-0.422500X0.172500X0.422500X-0.172500X0.422500X0*%
%ADD12RoundRect,0.075000X-0.650000X-0.075000X0.650000X-0.075000X0.650000X0.075000X-0.650000X0.075000X0*%
%ADD13RoundRect,0.250000X-0.650000X0.412500X-0.650000X-0.412500X0.650000X-0.412500X0.650000X0.412500X0*%
%ADD14RoundRect,0.250000X0.650000X-0.412500X0.650000X0.412500X-0.650000X0.412500X-0.650000X-0.412500X0*%
%ADD15RoundRect,0.250000X-0.350000X-0.450000X0.350000X-0.450000X0.350000X0.450000X-0.350000X0.450000X0*%
G04 APERTURE END LIST*
D10*
%TO.C,C1*%
X175392000Y-45245500D03*
X175392000Y-47320500D03*
%TD*%
D11*
%TO.C,U1*%
X148098000Y-81138500D03*
X148098000Y-82558500D03*
X148918000Y-81138500D03*
X148918000Y-82558500D03*
D12*
X146358000Y-80098500D03*
X146358000Y-80598500D03*
X146358000Y-81098500D03*
X146358000Y-81598500D03*
X146358000Y-82098500D03*
X146358000Y-82598500D03*
X146358000Y-83098500D03*
X146358000Y-83598500D03*
X150658000Y-83598500D03*
X150658000Y-83098500D03*
X150658000Y-82598500D03*
X150658000Y-82098500D03*
X150658000Y-81598500D03*
X150658000Y-81098500D03*
X150658000Y-80598500D03*
X150658000Y-80098500D03*
%TD*%
D13*
%TO.C,C5*%
X145960000Y-73627500D03*
X145960000Y-76752500D03*
%TD*%
%TO.C,C5*%
X145960000Y-37083500D03*
X145960000Y-40208500D03*
%TD*%
D14*
%TO.C,C3*%
X122370000Y-86189000D03*
X122370000Y-83064000D03*
%TD*%
%TO.C,C3*%
X154850000Y-49645000D03*
X154850000Y-46520000D03*
%TD*%
D11*
%TO.C,U1*%
X180578000Y-81138500D03*
X180578000Y-82558500D03*
X181398000Y-81138500D03*
X181398000Y-82558500D03*
D12*
X178838000Y-80098500D03*
X178838000Y-80598500D03*
X178838000Y-81098500D03*
X178838000Y-81598500D03*
X178838000Y-82098500D03*
X178838000Y-82598500D03*
X178838000Y-83098500D03*
X178838000Y-83598500D03*
X183138000Y-83598500D03*
X183138000Y-83098500D03*
X183138000Y-82598500D03*
X183138000Y-82098500D03*
X183138000Y-81598500D03*
X183138000Y-81098500D03*
X183138000Y-80598500D03*
X183138000Y-80098500D03*
%TD*%
D13*
%TO.C,C4*%
X181996000Y-73704500D03*
X181996000Y-76829500D03*
%TD*%
%TO.C,C4*%
X181996000Y-37160500D03*
X181996000Y-40285500D03*
%TD*%
D10*
%TO.C,C1*%
X142912000Y-81789500D03*
X142912000Y-83864500D03*
%TD*%
D13*
%TO.C,C4*%
X117036000Y-73704500D03*
X117036000Y-76829500D03*
%TD*%
D15*
%TO.C,R1*%
X105892000Y-81324500D03*
X107892000Y-81324500D03*
%TD*%
D10*
%TO.C,C1*%
X142912000Y-45245500D03*
X142912000Y-47320500D03*
%TD*%
D15*
%TO.C,R2*%
X138372000Y-84372500D03*
X140372000Y-84372500D03*
%TD*%
%TO.C,R1*%
X138372000Y-44780500D03*
X140372000Y-44780500D03*
%TD*%
D11*
%TO.C,U1*%
X180578000Y-44594500D03*
X180578000Y-46014500D03*
X181398000Y-44594500D03*
X181398000Y-46014500D03*
D12*
X178838000Y-43554500D03*
X178838000Y-44054500D03*
X178838000Y-44554500D03*
X178838000Y-45054500D03*
X178838000Y-45554500D03*
X178838000Y-46054500D03*
X178838000Y-46554500D03*
X178838000Y-47054500D03*
X183138000Y-47054500D03*
X183138000Y-46554500D03*
X183138000Y-46054500D03*
X183138000Y-45554500D03*
X183138000Y-45054500D03*
X183138000Y-44554500D03*
X183138000Y-44054500D03*
X183138000Y-43554500D03*
%TD*%
D13*
%TO.C,C5*%
X113480000Y-73627500D03*
X113480000Y-76752500D03*
%TD*%
D15*
%TO.C,R2*%
X105892000Y-47828500D03*
X107892000Y-47828500D03*
%TD*%
D10*
%TO.C,C1*%
X110432000Y-81789500D03*
X110432000Y-83864500D03*
%TD*%
D14*
%TO.C,C3*%
X187330000Y-86189000D03*
X187330000Y-83064000D03*
%TD*%
D11*
%TO.C,U1*%
X115618000Y-81138500D03*
X115618000Y-82558500D03*
X116438000Y-81138500D03*
X116438000Y-82558500D03*
D12*
X113878000Y-80098500D03*
X113878000Y-80598500D03*
X113878000Y-81098500D03*
X113878000Y-81598500D03*
X113878000Y-82098500D03*
X113878000Y-82598500D03*
X113878000Y-83098500D03*
X113878000Y-83598500D03*
X118178000Y-83598500D03*
X118178000Y-83098500D03*
X118178000Y-82598500D03*
X118178000Y-82098500D03*
X118178000Y-81598500D03*
X118178000Y-81098500D03*
X118178000Y-80598500D03*
X118178000Y-80098500D03*
%TD*%
D13*
%TO.C,C4*%
X149516000Y-73704500D03*
X149516000Y-76829500D03*
%TD*%
D15*
%TO.C,R1*%
X105892000Y-44780500D03*
X107892000Y-44780500D03*
%TD*%
D14*
%TO.C,C3*%
X122370000Y-49645000D03*
X122370000Y-46520000D03*
%TD*%
D15*
%TO.C,R2*%
X138372000Y-47828500D03*
X140372000Y-47828500D03*
%TD*%
D11*
%TO.C,U1*%
X148098000Y-44594500D03*
X148098000Y-46014500D03*
X148918000Y-44594500D03*
X148918000Y-46014500D03*
D12*
X146358000Y-43554500D03*
X146358000Y-44054500D03*
X146358000Y-44554500D03*
X146358000Y-45054500D03*
X146358000Y-45554500D03*
X146358000Y-46054500D03*
X146358000Y-46554500D03*
X146358000Y-47054500D03*
X150658000Y-47054500D03*
X150658000Y-46554500D03*
X150658000Y-46054500D03*
X150658000Y-45554500D03*
X150658000Y-45054500D03*
X150658000Y-44554500D03*
X150658000Y-44054500D03*
X150658000Y-43554500D03*
%TD*%
D13*
%TO.C,C5*%
X178440000Y-73627500D03*
X178440000Y-76752500D03*
%TD*%
D15*
%TO.C,R1*%
X170852000Y-44780500D03*
X172852000Y-44780500D03*
%TD*%
D13*
%TO.C,C4*%
X149516000Y-37160500D03*
X149516000Y-40285500D03*
%TD*%
%TO.C,C5*%
X178440000Y-37083500D03*
X178440000Y-40208500D03*
%TD*%
D15*
%TO.C,R2*%
X170852000Y-47828500D03*
X172852000Y-47828500D03*
%TD*%
%TO.C,R2*%
X105892000Y-84372500D03*
X107892000Y-84372500D03*
%TD*%
D10*
%TO.C,C1*%
X175392000Y-81789500D03*
X175392000Y-83864500D03*
%TD*%
D13*
%TO.C,C5*%
X113480000Y-37083500D03*
X113480000Y-40208500D03*
%TD*%
D15*
%TO.C,R1*%
X170852000Y-81324500D03*
X172852000Y-81324500D03*
%TD*%
D14*
%TO.C,C3*%
X154850000Y-86189000D03*
X154850000Y-83064000D03*
%TD*%
D11*
%TO.C,U1*%
X115618000Y-44594500D03*
X115618000Y-46014500D03*
X116438000Y-44594500D03*
X116438000Y-46014500D03*
D12*
X113878000Y-43554500D03*
X113878000Y-44054500D03*
X113878000Y-44554500D03*
X113878000Y-45054500D03*
X113878000Y-45554500D03*
X113878000Y-46054500D03*
X113878000Y-46554500D03*
X113878000Y-47054500D03*
X118178000Y-47054500D03*
X118178000Y-46554500D03*
X118178000Y-46054500D03*
X118178000Y-45554500D03*
X118178000Y-45054500D03*
X118178000Y-44554500D03*
X118178000Y-44054500D03*
X118178000Y-43554500D03*
%TD*%
D13*
%TO.C,C4*%
X117036000Y-37160500D03*
X117036000Y-40285500D03*
%TD*%
D15*
%TO.C,R1*%
X138372000Y-81324500D03*
X140372000Y-81324500D03*
%TD*%
D14*
%TO.C,C3*%
X187330000Y-49645000D03*
X187330000Y-46520000D03*
%TD*%
D15*
%TO.C,R2*%
X170852000Y-84372500D03*
X172852000Y-84372500D03*
%TD*%
D10*
%TO.C,C1*%
X110432000Y-45245500D03*
X110432000Y-47320500D03*
%TD*%
M02*
