%TF.GenerationSoftware,KiCad,Pcbnew,8.0.4*%
%TF.CreationDate,2024-08-17T22:53:07+02:00*%
%TF.ProjectId,,58585858-5858-4585-9858-585858585858,rev?*%
%TF.SameCoordinates,Original*%
%TF.FileFunction,Legend,Top*%
%TF.FilePolarity,Positive*%
%FSLAX46Y46*%
G04 Gerber Fmt 4.6, Leading zero omitted, Abs format (unit mm)*
G04 Created by KiCad (PCBNEW 8.0.4) date 2024-08-17 22:53:07*
%MOMM*%
%LPD*%
G01*
G04 APERTURE LIST*
%ADD10C,0.100000*%
%ADD11C,0.150000*%
%ADD12C,0.120000*%
G04 APERTURE END LIST*
D10*
X157617693Y-43843300D02*
X157739122Y-43890919D01*
X157739122Y-43890919D02*
X157941503Y-43890919D01*
X157941503Y-43890919D02*
X158022455Y-43843300D01*
X158022455Y-43843300D02*
X158062931Y-43795680D01*
X158062931Y-43795680D02*
X158103408Y-43700442D01*
X158103408Y-43700442D02*
X158103408Y-43605204D01*
X158103408Y-43605204D02*
X158062931Y-43509966D01*
X158062931Y-43509966D02*
X158022455Y-43462347D01*
X158022455Y-43462347D02*
X157941503Y-43414728D01*
X157941503Y-43414728D02*
X157779598Y-43367109D01*
X157779598Y-43367109D02*
X157698646Y-43319490D01*
X157698646Y-43319490D02*
X157658169Y-43271871D01*
X157658169Y-43271871D02*
X157617693Y-43176633D01*
X157617693Y-43176633D02*
X157617693Y-43081395D01*
X157617693Y-43081395D02*
X157658169Y-42986157D01*
X157658169Y-42986157D02*
X157698646Y-42938538D01*
X157698646Y-42938538D02*
X157779598Y-42890919D01*
X157779598Y-42890919D02*
X157981979Y-42890919D01*
X157981979Y-42890919D02*
X158103408Y-42938538D01*
X158953408Y-43795680D02*
X158912932Y-43843300D01*
X158912932Y-43843300D02*
X158791503Y-43890919D01*
X158791503Y-43890919D02*
X158710551Y-43890919D01*
X158710551Y-43890919D02*
X158589122Y-43843300D01*
X158589122Y-43843300D02*
X158508170Y-43748061D01*
X158508170Y-43748061D02*
X158467693Y-43652823D01*
X158467693Y-43652823D02*
X158427217Y-43462347D01*
X158427217Y-43462347D02*
X158427217Y-43319490D01*
X158427217Y-43319490D02*
X158467693Y-43129014D01*
X158467693Y-43129014D02*
X158508170Y-43033776D01*
X158508170Y-43033776D02*
X158589122Y-42938538D01*
X158589122Y-42938538D02*
X158710551Y-42890919D01*
X158710551Y-42890919D02*
X158791503Y-42890919D01*
X158791503Y-42890919D02*
X158912932Y-42938538D01*
X158912932Y-42938538D02*
X158953408Y-42986157D01*
X159317693Y-43509966D02*
X159965313Y-43509966D01*
X159641503Y-43890919D02*
X159641503Y-43129014D01*
X189792074Y-50256919D02*
X189953979Y-50256919D01*
X189953979Y-50256919D02*
X190034931Y-50304538D01*
X190034931Y-50304538D02*
X190115884Y-50399776D01*
X190115884Y-50399776D02*
X190156360Y-50590252D01*
X190156360Y-50590252D02*
X190156360Y-50923585D01*
X190156360Y-50923585D02*
X190115884Y-51114061D01*
X190115884Y-51114061D02*
X190034931Y-51209300D01*
X190034931Y-51209300D02*
X189953979Y-51256919D01*
X189953979Y-51256919D02*
X189792074Y-51256919D01*
X189792074Y-51256919D02*
X189711122Y-51209300D01*
X189711122Y-51209300D02*
X189630169Y-51114061D01*
X189630169Y-51114061D02*
X189589693Y-50923585D01*
X189589693Y-50923585D02*
X189589693Y-50590252D01*
X189589693Y-50590252D02*
X189630169Y-50399776D01*
X189630169Y-50399776D02*
X189711122Y-50304538D01*
X189711122Y-50304538D02*
X189792074Y-50256919D01*
X190399217Y-50256919D02*
X190682550Y-51256919D01*
X190682550Y-51256919D02*
X190965884Y-50256919D01*
X191249216Y-51256919D02*
X191249216Y-50256919D01*
X191249216Y-50256919D02*
X191451597Y-50256919D01*
X191451597Y-50256919D02*
X191573026Y-50304538D01*
X191573026Y-50304538D02*
X191653978Y-50399776D01*
X191653978Y-50399776D02*
X191694455Y-50495014D01*
X191694455Y-50495014D02*
X191734931Y-50685490D01*
X191734931Y-50685490D02*
X191734931Y-50828347D01*
X191734931Y-50828347D02*
X191694455Y-51018823D01*
X191694455Y-51018823D02*
X191653978Y-51114061D01*
X191653978Y-51114061D02*
X191573026Y-51209300D01*
X191573026Y-51209300D02*
X191451597Y-51256919D01*
X191451597Y-51256919D02*
X191249216Y-51256919D01*
X192099216Y-51256919D02*
X192099216Y-50256919D01*
X192099216Y-50256919D02*
X192301597Y-50256919D01*
X192301597Y-50256919D02*
X192423026Y-50304538D01*
X192423026Y-50304538D02*
X192503978Y-50399776D01*
X192503978Y-50399776D02*
X192544455Y-50495014D01*
X192544455Y-50495014D02*
X192584931Y-50685490D01*
X192584931Y-50685490D02*
X192584931Y-50828347D01*
X192584931Y-50828347D02*
X192544455Y-51018823D01*
X192544455Y-51018823D02*
X192503978Y-51114061D01*
X192503978Y-51114061D02*
X192423026Y-51209300D01*
X192423026Y-51209300D02*
X192301597Y-51256919D01*
X192301597Y-51256919D02*
X192099216Y-51256919D01*
X125877408Y-89642538D02*
X125796455Y-89594919D01*
X125796455Y-89594919D02*
X125675027Y-89594919D01*
X125675027Y-89594919D02*
X125553598Y-89642538D01*
X125553598Y-89642538D02*
X125472646Y-89737776D01*
X125472646Y-89737776D02*
X125432169Y-89833014D01*
X125432169Y-89833014D02*
X125391693Y-90023490D01*
X125391693Y-90023490D02*
X125391693Y-90166347D01*
X125391693Y-90166347D02*
X125432169Y-90356823D01*
X125432169Y-90356823D02*
X125472646Y-90452061D01*
X125472646Y-90452061D02*
X125553598Y-90547300D01*
X125553598Y-90547300D02*
X125675027Y-90594919D01*
X125675027Y-90594919D02*
X125755979Y-90594919D01*
X125755979Y-90594919D02*
X125877408Y-90547300D01*
X125877408Y-90547300D02*
X125917884Y-90499680D01*
X125917884Y-90499680D02*
X125917884Y-90166347D01*
X125917884Y-90166347D02*
X125755979Y-90166347D01*
X126282169Y-90594919D02*
X126282169Y-89594919D01*
X126282169Y-89594919D02*
X126767884Y-90594919D01*
X126767884Y-90594919D02*
X126767884Y-89594919D01*
X127172645Y-90594919D02*
X127172645Y-89594919D01*
X127172645Y-89594919D02*
X127375026Y-89594919D01*
X127375026Y-89594919D02*
X127496455Y-89642538D01*
X127496455Y-89642538D02*
X127577407Y-89737776D01*
X127577407Y-89737776D02*
X127617884Y-89833014D01*
X127617884Y-89833014D02*
X127658360Y-90023490D01*
X127658360Y-90023490D02*
X127658360Y-90166347D01*
X127658360Y-90166347D02*
X127617884Y-90356823D01*
X127617884Y-90356823D02*
X127577407Y-90452061D01*
X127577407Y-90452061D02*
X127496455Y-90547300D01*
X127496455Y-90547300D02*
X127375026Y-90594919D01*
X127375026Y-90594919D02*
X127172645Y-90594919D01*
X125137693Y-80387300D02*
X125259122Y-80434919D01*
X125259122Y-80434919D02*
X125461503Y-80434919D01*
X125461503Y-80434919D02*
X125542455Y-80387300D01*
X125542455Y-80387300D02*
X125582931Y-80339680D01*
X125582931Y-80339680D02*
X125623408Y-80244442D01*
X125623408Y-80244442D02*
X125623408Y-80149204D01*
X125623408Y-80149204D02*
X125582931Y-80053966D01*
X125582931Y-80053966D02*
X125542455Y-80006347D01*
X125542455Y-80006347D02*
X125461503Y-79958728D01*
X125461503Y-79958728D02*
X125299598Y-79911109D01*
X125299598Y-79911109D02*
X125218646Y-79863490D01*
X125218646Y-79863490D02*
X125178169Y-79815871D01*
X125178169Y-79815871D02*
X125137693Y-79720633D01*
X125137693Y-79720633D02*
X125137693Y-79625395D01*
X125137693Y-79625395D02*
X125178169Y-79530157D01*
X125178169Y-79530157D02*
X125218646Y-79482538D01*
X125218646Y-79482538D02*
X125299598Y-79434919D01*
X125299598Y-79434919D02*
X125501979Y-79434919D01*
X125501979Y-79434919D02*
X125623408Y-79482538D01*
X126473408Y-80339680D02*
X126432932Y-80387300D01*
X126432932Y-80387300D02*
X126311503Y-80434919D01*
X126311503Y-80434919D02*
X126230551Y-80434919D01*
X126230551Y-80434919D02*
X126109122Y-80387300D01*
X126109122Y-80387300D02*
X126028170Y-80292061D01*
X126028170Y-80292061D02*
X125987693Y-80196823D01*
X125987693Y-80196823D02*
X125947217Y-80006347D01*
X125947217Y-80006347D02*
X125947217Y-79863490D01*
X125947217Y-79863490D02*
X125987693Y-79673014D01*
X125987693Y-79673014D02*
X126028170Y-79577776D01*
X126028170Y-79577776D02*
X126109122Y-79482538D01*
X126109122Y-79482538D02*
X126230551Y-79434919D01*
X126230551Y-79434919D02*
X126311503Y-79434919D01*
X126311503Y-79434919D02*
X126432932Y-79482538D01*
X126432932Y-79482538D02*
X126473408Y-79530157D01*
X126837693Y-80053966D02*
X127485313Y-80053966D01*
X127161503Y-80434919D02*
X127161503Y-79673014D01*
X190252073Y-38509300D02*
X190373502Y-38556919D01*
X190373502Y-38556919D02*
X190575883Y-38556919D01*
X190575883Y-38556919D02*
X190656835Y-38509300D01*
X190656835Y-38509300D02*
X190697311Y-38461680D01*
X190697311Y-38461680D02*
X190737788Y-38366442D01*
X190737788Y-38366442D02*
X190737788Y-38271204D01*
X190737788Y-38271204D02*
X190697311Y-38175966D01*
X190697311Y-38175966D02*
X190656835Y-38128347D01*
X190656835Y-38128347D02*
X190575883Y-38080728D01*
X190575883Y-38080728D02*
X190413978Y-38033109D01*
X190413978Y-38033109D02*
X190333026Y-37985490D01*
X190333026Y-37985490D02*
X190292549Y-37937871D01*
X190292549Y-37937871D02*
X190252073Y-37842633D01*
X190252073Y-37842633D02*
X190252073Y-37747395D01*
X190252073Y-37747395D02*
X190292549Y-37652157D01*
X190292549Y-37652157D02*
X190333026Y-37604538D01*
X190333026Y-37604538D02*
X190413978Y-37556919D01*
X190413978Y-37556919D02*
X190616359Y-37556919D01*
X190616359Y-37556919D02*
X190737788Y-37604538D01*
X191102073Y-38556919D02*
X191102073Y-37556919D01*
X191102073Y-37556919D02*
X191304454Y-37556919D01*
X191304454Y-37556919D02*
X191425883Y-37604538D01*
X191425883Y-37604538D02*
X191506835Y-37699776D01*
X191506835Y-37699776D02*
X191547312Y-37795014D01*
X191547312Y-37795014D02*
X191587788Y-37985490D01*
X191587788Y-37985490D02*
X191587788Y-38128347D01*
X191587788Y-38128347D02*
X191547312Y-38318823D01*
X191547312Y-38318823D02*
X191506835Y-38414061D01*
X191506835Y-38414061D02*
X191425883Y-38509300D01*
X191425883Y-38509300D02*
X191304454Y-38556919D01*
X191304454Y-38556919D02*
X191102073Y-38556919D01*
X191952073Y-38175966D02*
X192599693Y-38175966D01*
X192275883Y-38556919D02*
X192275883Y-37795014D01*
X101798265Y-42589204D02*
X102274455Y-42589204D01*
X101703027Y-42874919D02*
X102036360Y-41874919D01*
X102036360Y-41874919D02*
X102369693Y-42874919D01*
X102703027Y-42874919D02*
X102703027Y-41874919D01*
X103179217Y-42874919D02*
X103179217Y-41874919D01*
X103179217Y-41874919D02*
X103750645Y-42874919D01*
X103750645Y-42874919D02*
X103750645Y-41874919D01*
X104226836Y-42493966D02*
X104988741Y-42493966D01*
X104607788Y-42874919D02*
X104607788Y-42113014D01*
X166758265Y-42589204D02*
X167234455Y-42589204D01*
X166663027Y-42874919D02*
X166996360Y-41874919D01*
X166996360Y-41874919D02*
X167329693Y-42874919D01*
X167663027Y-42874919D02*
X167663027Y-41874919D01*
X168139217Y-42874919D02*
X168139217Y-41874919D01*
X168139217Y-41874919D02*
X168710645Y-42874919D01*
X168710645Y-42874919D02*
X168710645Y-41874919D01*
X169186836Y-42493966D02*
X169948741Y-42493966D01*
X169567788Y-42874919D02*
X169567788Y-42113014D01*
X190285027Y-35270919D02*
X190618360Y-36270919D01*
X190618360Y-36270919D02*
X190951693Y-35270919D01*
X191285027Y-36270919D02*
X191285027Y-35270919D01*
X191285027Y-35270919D02*
X191523122Y-35270919D01*
X191523122Y-35270919D02*
X191665979Y-35318538D01*
X191665979Y-35318538D02*
X191761217Y-35413776D01*
X191761217Y-35413776D02*
X191808836Y-35509014D01*
X191808836Y-35509014D02*
X191856455Y-35699490D01*
X191856455Y-35699490D02*
X191856455Y-35842347D01*
X191856455Y-35842347D02*
X191808836Y-36032823D01*
X191808836Y-36032823D02*
X191761217Y-36128061D01*
X191761217Y-36128061D02*
X191665979Y-36223300D01*
X191665979Y-36223300D02*
X191523122Y-36270919D01*
X191523122Y-36270919D02*
X191285027Y-36270919D01*
X192285027Y-36270919D02*
X192285027Y-35270919D01*
X192285027Y-35270919D02*
X192523122Y-35270919D01*
X192523122Y-35270919D02*
X192665979Y-35318538D01*
X192665979Y-35318538D02*
X192761217Y-35413776D01*
X192761217Y-35413776D02*
X192808836Y-35509014D01*
X192808836Y-35509014D02*
X192856455Y-35699490D01*
X192856455Y-35699490D02*
X192856455Y-35842347D01*
X192856455Y-35842347D02*
X192808836Y-36032823D01*
X192808836Y-36032823D02*
X192761217Y-36128061D01*
X192761217Y-36128061D02*
X192665979Y-36223300D01*
X192665979Y-36223300D02*
X192523122Y-36270919D01*
X192523122Y-36270919D02*
X192285027Y-36270919D01*
X125917884Y-48875680D02*
X125877408Y-48923300D01*
X125877408Y-48923300D02*
X125755979Y-48970919D01*
X125755979Y-48970919D02*
X125675027Y-48970919D01*
X125675027Y-48970919D02*
X125553598Y-48923300D01*
X125553598Y-48923300D02*
X125472646Y-48828061D01*
X125472646Y-48828061D02*
X125432169Y-48732823D01*
X125432169Y-48732823D02*
X125391693Y-48542347D01*
X125391693Y-48542347D02*
X125391693Y-48399490D01*
X125391693Y-48399490D02*
X125432169Y-48209014D01*
X125432169Y-48209014D02*
X125472646Y-48113776D01*
X125472646Y-48113776D02*
X125553598Y-48018538D01*
X125553598Y-48018538D02*
X125675027Y-47970919D01*
X125675027Y-47970919D02*
X125755979Y-47970919D01*
X125755979Y-47970919D02*
X125877408Y-48018538D01*
X125877408Y-48018538D02*
X125917884Y-48066157D01*
X126282169Y-48970919D02*
X126282169Y-47970919D01*
X126282169Y-47970919D02*
X126767884Y-48970919D01*
X126767884Y-48970919D02*
X126767884Y-47970919D01*
X127051217Y-47970919D02*
X127334550Y-48970919D01*
X127334550Y-48970919D02*
X127617884Y-47970919D01*
X125314789Y-47693300D02*
X127613836Y-47693300D01*
X157871693Y-77593300D02*
X157993122Y-77640919D01*
X157993122Y-77640919D02*
X158195503Y-77640919D01*
X158195503Y-77640919D02*
X158276455Y-77593300D01*
X158276455Y-77593300D02*
X158316931Y-77545680D01*
X158316931Y-77545680D02*
X158357408Y-77450442D01*
X158357408Y-77450442D02*
X158357408Y-77355204D01*
X158357408Y-77355204D02*
X158316931Y-77259966D01*
X158316931Y-77259966D02*
X158276455Y-77212347D01*
X158276455Y-77212347D02*
X158195503Y-77164728D01*
X158195503Y-77164728D02*
X158033598Y-77117109D01*
X158033598Y-77117109D02*
X157952646Y-77069490D01*
X157952646Y-77069490D02*
X157912169Y-77021871D01*
X157912169Y-77021871D02*
X157871693Y-76926633D01*
X157871693Y-76926633D02*
X157871693Y-76831395D01*
X157871693Y-76831395D02*
X157912169Y-76736157D01*
X157912169Y-76736157D02*
X157952646Y-76688538D01*
X157952646Y-76688538D02*
X158033598Y-76640919D01*
X158033598Y-76640919D02*
X158235979Y-76640919D01*
X158235979Y-76640919D02*
X158357408Y-76688538D01*
X158721693Y-77640919D02*
X158721693Y-76640919D01*
X158721693Y-76640919D02*
X158924074Y-76640919D01*
X158924074Y-76640919D02*
X159045503Y-76688538D01*
X159045503Y-76688538D02*
X159126455Y-76783776D01*
X159126455Y-76783776D02*
X159166932Y-76879014D01*
X159166932Y-76879014D02*
X159207408Y-77069490D01*
X159207408Y-77069490D02*
X159207408Y-77212347D01*
X159207408Y-77212347D02*
X159166932Y-77402823D01*
X159166932Y-77402823D02*
X159126455Y-77498061D01*
X159126455Y-77498061D02*
X159045503Y-77593300D01*
X159045503Y-77593300D02*
X158924074Y-77640919D01*
X158924074Y-77640919D02*
X158721693Y-77640919D01*
X159571693Y-77259966D02*
X160219313Y-77259966D01*
X190097693Y-82673300D02*
X190219122Y-82720919D01*
X190219122Y-82720919D02*
X190421503Y-82720919D01*
X190421503Y-82720919D02*
X190502455Y-82673300D01*
X190502455Y-82673300D02*
X190542931Y-82625680D01*
X190542931Y-82625680D02*
X190583408Y-82530442D01*
X190583408Y-82530442D02*
X190583408Y-82435204D01*
X190583408Y-82435204D02*
X190542931Y-82339966D01*
X190542931Y-82339966D02*
X190502455Y-82292347D01*
X190502455Y-82292347D02*
X190421503Y-82244728D01*
X190421503Y-82244728D02*
X190259598Y-82197109D01*
X190259598Y-82197109D02*
X190178646Y-82149490D01*
X190178646Y-82149490D02*
X190138169Y-82101871D01*
X190138169Y-82101871D02*
X190097693Y-82006633D01*
X190097693Y-82006633D02*
X190097693Y-81911395D01*
X190097693Y-81911395D02*
X190138169Y-81816157D01*
X190138169Y-81816157D02*
X190178646Y-81768538D01*
X190178646Y-81768538D02*
X190259598Y-81720919D01*
X190259598Y-81720919D02*
X190461979Y-81720919D01*
X190461979Y-81720919D02*
X190583408Y-81768538D01*
X191433408Y-82625680D02*
X191392932Y-82673300D01*
X191392932Y-82673300D02*
X191271503Y-82720919D01*
X191271503Y-82720919D02*
X191190551Y-82720919D01*
X191190551Y-82720919D02*
X191069122Y-82673300D01*
X191069122Y-82673300D02*
X190988170Y-82578061D01*
X190988170Y-82578061D02*
X190947693Y-82482823D01*
X190947693Y-82482823D02*
X190907217Y-82292347D01*
X190907217Y-82292347D02*
X190907217Y-82149490D01*
X190907217Y-82149490D02*
X190947693Y-81959014D01*
X190947693Y-81959014D02*
X190988170Y-81863776D01*
X190988170Y-81863776D02*
X191069122Y-81768538D01*
X191069122Y-81768538D02*
X191190551Y-81720919D01*
X191190551Y-81720919D02*
X191271503Y-81720919D01*
X191271503Y-81720919D02*
X191392932Y-81768538D01*
X191392932Y-81768538D02*
X191433408Y-81816157D01*
X191797693Y-82339966D02*
X192445313Y-82339966D01*
X166758265Y-86753204D02*
X167234455Y-86753204D01*
X166663027Y-87038919D02*
X166996360Y-86038919D01*
X166996360Y-86038919D02*
X167329693Y-87038919D01*
X167663027Y-87038919D02*
X167663027Y-86038919D01*
X168139217Y-87038919D02*
X168139217Y-86038919D01*
X168139217Y-86038919D02*
X168710645Y-87038919D01*
X168710645Y-87038919D02*
X168710645Y-86038919D01*
X169186836Y-86657966D02*
X169948741Y-86657966D01*
X125917884Y-85419680D02*
X125877408Y-85467300D01*
X125877408Y-85467300D02*
X125755979Y-85514919D01*
X125755979Y-85514919D02*
X125675027Y-85514919D01*
X125675027Y-85514919D02*
X125553598Y-85467300D01*
X125553598Y-85467300D02*
X125472646Y-85372061D01*
X125472646Y-85372061D02*
X125432169Y-85276823D01*
X125432169Y-85276823D02*
X125391693Y-85086347D01*
X125391693Y-85086347D02*
X125391693Y-84943490D01*
X125391693Y-84943490D02*
X125432169Y-84753014D01*
X125432169Y-84753014D02*
X125472646Y-84657776D01*
X125472646Y-84657776D02*
X125553598Y-84562538D01*
X125553598Y-84562538D02*
X125675027Y-84514919D01*
X125675027Y-84514919D02*
X125755979Y-84514919D01*
X125755979Y-84514919D02*
X125877408Y-84562538D01*
X125877408Y-84562538D02*
X125917884Y-84610157D01*
X126282169Y-85514919D02*
X126282169Y-84514919D01*
X126282169Y-84514919D02*
X126767884Y-85514919D01*
X126767884Y-85514919D02*
X126767884Y-84514919D01*
X127051217Y-84514919D02*
X127334550Y-85514919D01*
X127334550Y-85514919D02*
X127617884Y-84514919D01*
X125314789Y-84237300D02*
X127613836Y-84237300D01*
X190877884Y-85419680D02*
X190837408Y-85467300D01*
X190837408Y-85467300D02*
X190715979Y-85514919D01*
X190715979Y-85514919D02*
X190635027Y-85514919D01*
X190635027Y-85514919D02*
X190513598Y-85467300D01*
X190513598Y-85467300D02*
X190432646Y-85372061D01*
X190432646Y-85372061D02*
X190392169Y-85276823D01*
X190392169Y-85276823D02*
X190351693Y-85086347D01*
X190351693Y-85086347D02*
X190351693Y-84943490D01*
X190351693Y-84943490D02*
X190392169Y-84753014D01*
X190392169Y-84753014D02*
X190432646Y-84657776D01*
X190432646Y-84657776D02*
X190513598Y-84562538D01*
X190513598Y-84562538D02*
X190635027Y-84514919D01*
X190635027Y-84514919D02*
X190715979Y-84514919D01*
X190715979Y-84514919D02*
X190837408Y-84562538D01*
X190837408Y-84562538D02*
X190877884Y-84610157D01*
X191242169Y-85514919D02*
X191242169Y-84514919D01*
X191242169Y-84514919D02*
X191727884Y-85514919D01*
X191727884Y-85514919D02*
X191727884Y-84514919D01*
X192011217Y-84514919D02*
X192294550Y-85514919D01*
X192294550Y-85514919D02*
X192577884Y-84514919D01*
X190274789Y-84237300D02*
X192573836Y-84237300D01*
X125325027Y-71814919D02*
X125658360Y-72814919D01*
X125658360Y-72814919D02*
X125991693Y-71814919D01*
X126325027Y-72814919D02*
X126325027Y-71814919D01*
X126325027Y-71814919D02*
X126563122Y-71814919D01*
X126563122Y-71814919D02*
X126705979Y-71862538D01*
X126705979Y-71862538D02*
X126801217Y-71957776D01*
X126801217Y-71957776D02*
X126848836Y-72053014D01*
X126848836Y-72053014D02*
X126896455Y-72243490D01*
X126896455Y-72243490D02*
X126896455Y-72386347D01*
X126896455Y-72386347D02*
X126848836Y-72576823D01*
X126848836Y-72576823D02*
X126801217Y-72672061D01*
X126801217Y-72672061D02*
X126705979Y-72767300D01*
X126705979Y-72767300D02*
X126563122Y-72814919D01*
X126563122Y-72814919D02*
X126325027Y-72814919D01*
X127325027Y-72814919D02*
X127325027Y-71814919D01*
X127325027Y-71814919D02*
X127563122Y-71814919D01*
X127563122Y-71814919D02*
X127705979Y-71862538D01*
X127705979Y-71862538D02*
X127801217Y-71957776D01*
X127801217Y-71957776D02*
X127848836Y-72053014D01*
X127848836Y-72053014D02*
X127896455Y-72243490D01*
X127896455Y-72243490D02*
X127896455Y-72386347D01*
X127896455Y-72386347D02*
X127848836Y-72576823D01*
X127848836Y-72576823D02*
X127801217Y-72672061D01*
X127801217Y-72672061D02*
X127705979Y-72767300D01*
X127705979Y-72767300D02*
X127563122Y-72814919D01*
X127563122Y-72814919D02*
X127325027Y-72814919D01*
X190351693Y-77593300D02*
X190473122Y-77640919D01*
X190473122Y-77640919D02*
X190675503Y-77640919D01*
X190675503Y-77640919D02*
X190756455Y-77593300D01*
X190756455Y-77593300D02*
X190796931Y-77545680D01*
X190796931Y-77545680D02*
X190837408Y-77450442D01*
X190837408Y-77450442D02*
X190837408Y-77355204D01*
X190837408Y-77355204D02*
X190796931Y-77259966D01*
X190796931Y-77259966D02*
X190756455Y-77212347D01*
X190756455Y-77212347D02*
X190675503Y-77164728D01*
X190675503Y-77164728D02*
X190513598Y-77117109D01*
X190513598Y-77117109D02*
X190432646Y-77069490D01*
X190432646Y-77069490D02*
X190392169Y-77021871D01*
X190392169Y-77021871D02*
X190351693Y-76926633D01*
X190351693Y-76926633D02*
X190351693Y-76831395D01*
X190351693Y-76831395D02*
X190392169Y-76736157D01*
X190392169Y-76736157D02*
X190432646Y-76688538D01*
X190432646Y-76688538D02*
X190513598Y-76640919D01*
X190513598Y-76640919D02*
X190715979Y-76640919D01*
X190715979Y-76640919D02*
X190837408Y-76688538D01*
X191201693Y-77640919D02*
X191201693Y-76640919D01*
X191201693Y-76640919D02*
X191404074Y-76640919D01*
X191404074Y-76640919D02*
X191525503Y-76688538D01*
X191525503Y-76688538D02*
X191606455Y-76783776D01*
X191606455Y-76783776D02*
X191646932Y-76879014D01*
X191646932Y-76879014D02*
X191687408Y-77069490D01*
X191687408Y-77069490D02*
X191687408Y-77212347D01*
X191687408Y-77212347D02*
X191646932Y-77402823D01*
X191646932Y-77402823D02*
X191606455Y-77498061D01*
X191606455Y-77498061D02*
X191525503Y-77593300D01*
X191525503Y-77593300D02*
X191404074Y-77640919D01*
X191404074Y-77640919D02*
X191201693Y-77640919D01*
X192051693Y-77259966D02*
X192699313Y-77259966D01*
X134278265Y-42589204D02*
X134754455Y-42589204D01*
X134183027Y-42874919D02*
X134516360Y-41874919D01*
X134516360Y-41874919D02*
X134849693Y-42874919D01*
X135183027Y-42874919D02*
X135183027Y-41874919D01*
X135659217Y-42874919D02*
X135659217Y-41874919D01*
X135659217Y-41874919D02*
X136230645Y-42874919D01*
X136230645Y-42874919D02*
X136230645Y-41874919D01*
X136706836Y-42493966D02*
X137468741Y-42493966D01*
X137087788Y-42874919D02*
X137087788Y-42113014D01*
X125391693Y-77593300D02*
X125513122Y-77640919D01*
X125513122Y-77640919D02*
X125715503Y-77640919D01*
X125715503Y-77640919D02*
X125796455Y-77593300D01*
X125796455Y-77593300D02*
X125836931Y-77545680D01*
X125836931Y-77545680D02*
X125877408Y-77450442D01*
X125877408Y-77450442D02*
X125877408Y-77355204D01*
X125877408Y-77355204D02*
X125836931Y-77259966D01*
X125836931Y-77259966D02*
X125796455Y-77212347D01*
X125796455Y-77212347D02*
X125715503Y-77164728D01*
X125715503Y-77164728D02*
X125553598Y-77117109D01*
X125553598Y-77117109D02*
X125472646Y-77069490D01*
X125472646Y-77069490D02*
X125432169Y-77021871D01*
X125432169Y-77021871D02*
X125391693Y-76926633D01*
X125391693Y-76926633D02*
X125391693Y-76831395D01*
X125391693Y-76831395D02*
X125432169Y-76736157D01*
X125432169Y-76736157D02*
X125472646Y-76688538D01*
X125472646Y-76688538D02*
X125553598Y-76640919D01*
X125553598Y-76640919D02*
X125755979Y-76640919D01*
X125755979Y-76640919D02*
X125877408Y-76688538D01*
X126241693Y-77640919D02*
X126241693Y-76640919D01*
X126241693Y-76640919D02*
X126444074Y-76640919D01*
X126444074Y-76640919D02*
X126565503Y-76688538D01*
X126565503Y-76688538D02*
X126646455Y-76783776D01*
X126646455Y-76783776D02*
X126686932Y-76879014D01*
X126686932Y-76879014D02*
X126727408Y-77069490D01*
X126727408Y-77069490D02*
X126727408Y-77212347D01*
X126727408Y-77212347D02*
X126686932Y-77402823D01*
X126686932Y-77402823D02*
X126646455Y-77498061D01*
X126646455Y-77498061D02*
X126565503Y-77593300D01*
X126565503Y-77593300D02*
X126444074Y-77640919D01*
X126444074Y-77640919D02*
X126241693Y-77640919D01*
X127091693Y-77259966D02*
X127739313Y-77259966D01*
X190097693Y-46129300D02*
X190219122Y-46176919D01*
X190219122Y-46176919D02*
X190421503Y-46176919D01*
X190421503Y-46176919D02*
X190502455Y-46129300D01*
X190502455Y-46129300D02*
X190542931Y-46081680D01*
X190542931Y-46081680D02*
X190583408Y-45986442D01*
X190583408Y-45986442D02*
X190583408Y-45891204D01*
X190583408Y-45891204D02*
X190542931Y-45795966D01*
X190542931Y-45795966D02*
X190502455Y-45748347D01*
X190502455Y-45748347D02*
X190421503Y-45700728D01*
X190421503Y-45700728D02*
X190259598Y-45653109D01*
X190259598Y-45653109D02*
X190178646Y-45605490D01*
X190178646Y-45605490D02*
X190138169Y-45557871D01*
X190138169Y-45557871D02*
X190097693Y-45462633D01*
X190097693Y-45462633D02*
X190097693Y-45367395D01*
X190097693Y-45367395D02*
X190138169Y-45272157D01*
X190138169Y-45272157D02*
X190178646Y-45224538D01*
X190178646Y-45224538D02*
X190259598Y-45176919D01*
X190259598Y-45176919D02*
X190461979Y-45176919D01*
X190461979Y-45176919D02*
X190583408Y-45224538D01*
X191433408Y-46081680D02*
X191392932Y-46129300D01*
X191392932Y-46129300D02*
X191271503Y-46176919D01*
X191271503Y-46176919D02*
X191190551Y-46176919D01*
X191190551Y-46176919D02*
X191069122Y-46129300D01*
X191069122Y-46129300D02*
X190988170Y-46034061D01*
X190988170Y-46034061D02*
X190947693Y-45938823D01*
X190947693Y-45938823D02*
X190907217Y-45748347D01*
X190907217Y-45748347D02*
X190907217Y-45605490D01*
X190907217Y-45605490D02*
X190947693Y-45415014D01*
X190947693Y-45415014D02*
X190988170Y-45319776D01*
X190988170Y-45319776D02*
X191069122Y-45224538D01*
X191069122Y-45224538D02*
X191190551Y-45176919D01*
X191190551Y-45176919D02*
X191271503Y-45176919D01*
X191271503Y-45176919D02*
X191392932Y-45224538D01*
X191392932Y-45224538D02*
X191433408Y-45272157D01*
X191797693Y-45795966D02*
X192445313Y-45795966D01*
X190097693Y-80387300D02*
X190219122Y-80434919D01*
X190219122Y-80434919D02*
X190421503Y-80434919D01*
X190421503Y-80434919D02*
X190502455Y-80387300D01*
X190502455Y-80387300D02*
X190542931Y-80339680D01*
X190542931Y-80339680D02*
X190583408Y-80244442D01*
X190583408Y-80244442D02*
X190583408Y-80149204D01*
X190583408Y-80149204D02*
X190542931Y-80053966D01*
X190542931Y-80053966D02*
X190502455Y-80006347D01*
X190502455Y-80006347D02*
X190421503Y-79958728D01*
X190421503Y-79958728D02*
X190259598Y-79911109D01*
X190259598Y-79911109D02*
X190178646Y-79863490D01*
X190178646Y-79863490D02*
X190138169Y-79815871D01*
X190138169Y-79815871D02*
X190097693Y-79720633D01*
X190097693Y-79720633D02*
X190097693Y-79625395D01*
X190097693Y-79625395D02*
X190138169Y-79530157D01*
X190138169Y-79530157D02*
X190178646Y-79482538D01*
X190178646Y-79482538D02*
X190259598Y-79434919D01*
X190259598Y-79434919D02*
X190461979Y-79434919D01*
X190461979Y-79434919D02*
X190583408Y-79482538D01*
X191433408Y-80339680D02*
X191392932Y-80387300D01*
X191392932Y-80387300D02*
X191271503Y-80434919D01*
X191271503Y-80434919D02*
X191190551Y-80434919D01*
X191190551Y-80434919D02*
X191069122Y-80387300D01*
X191069122Y-80387300D02*
X190988170Y-80292061D01*
X190988170Y-80292061D02*
X190947693Y-80196823D01*
X190947693Y-80196823D02*
X190907217Y-80006347D01*
X190907217Y-80006347D02*
X190907217Y-79863490D01*
X190907217Y-79863490D02*
X190947693Y-79673014D01*
X190947693Y-79673014D02*
X190988170Y-79577776D01*
X190988170Y-79577776D02*
X191069122Y-79482538D01*
X191069122Y-79482538D02*
X191190551Y-79434919D01*
X191190551Y-79434919D02*
X191271503Y-79434919D01*
X191271503Y-79434919D02*
X191392932Y-79482538D01*
X191392932Y-79482538D02*
X191433408Y-79530157D01*
X191797693Y-80053966D02*
X192445313Y-80053966D01*
X192121503Y-80434919D02*
X192121503Y-79673014D01*
X157312074Y-50256919D02*
X157473979Y-50256919D01*
X157473979Y-50256919D02*
X157554931Y-50304538D01*
X157554931Y-50304538D02*
X157635884Y-50399776D01*
X157635884Y-50399776D02*
X157676360Y-50590252D01*
X157676360Y-50590252D02*
X157676360Y-50923585D01*
X157676360Y-50923585D02*
X157635884Y-51114061D01*
X157635884Y-51114061D02*
X157554931Y-51209300D01*
X157554931Y-51209300D02*
X157473979Y-51256919D01*
X157473979Y-51256919D02*
X157312074Y-51256919D01*
X157312074Y-51256919D02*
X157231122Y-51209300D01*
X157231122Y-51209300D02*
X157150169Y-51114061D01*
X157150169Y-51114061D02*
X157109693Y-50923585D01*
X157109693Y-50923585D02*
X157109693Y-50590252D01*
X157109693Y-50590252D02*
X157150169Y-50399776D01*
X157150169Y-50399776D02*
X157231122Y-50304538D01*
X157231122Y-50304538D02*
X157312074Y-50256919D01*
X157919217Y-50256919D02*
X158202550Y-51256919D01*
X158202550Y-51256919D02*
X158485884Y-50256919D01*
X158769216Y-51256919D02*
X158769216Y-50256919D01*
X158769216Y-50256919D02*
X158971597Y-50256919D01*
X158971597Y-50256919D02*
X159093026Y-50304538D01*
X159093026Y-50304538D02*
X159173978Y-50399776D01*
X159173978Y-50399776D02*
X159214455Y-50495014D01*
X159214455Y-50495014D02*
X159254931Y-50685490D01*
X159254931Y-50685490D02*
X159254931Y-50828347D01*
X159254931Y-50828347D02*
X159214455Y-51018823D01*
X159214455Y-51018823D02*
X159173978Y-51114061D01*
X159173978Y-51114061D02*
X159093026Y-51209300D01*
X159093026Y-51209300D02*
X158971597Y-51256919D01*
X158971597Y-51256919D02*
X158769216Y-51256919D01*
X159619216Y-51256919D02*
X159619216Y-50256919D01*
X159619216Y-50256919D02*
X159821597Y-50256919D01*
X159821597Y-50256919D02*
X159943026Y-50304538D01*
X159943026Y-50304538D02*
X160023978Y-50399776D01*
X160023978Y-50399776D02*
X160064455Y-50495014D01*
X160064455Y-50495014D02*
X160104931Y-50685490D01*
X160104931Y-50685490D02*
X160104931Y-50828347D01*
X160104931Y-50828347D02*
X160064455Y-51018823D01*
X160064455Y-51018823D02*
X160023978Y-51114061D01*
X160023978Y-51114061D02*
X159943026Y-51209300D01*
X159943026Y-51209300D02*
X159821597Y-51256919D01*
X159821597Y-51256919D02*
X159619216Y-51256919D01*
X125325027Y-35270919D02*
X125658360Y-36270919D01*
X125658360Y-36270919D02*
X125991693Y-35270919D01*
X126325027Y-36270919D02*
X126325027Y-35270919D01*
X126325027Y-35270919D02*
X126563122Y-35270919D01*
X126563122Y-35270919D02*
X126705979Y-35318538D01*
X126705979Y-35318538D02*
X126801217Y-35413776D01*
X126801217Y-35413776D02*
X126848836Y-35509014D01*
X126848836Y-35509014D02*
X126896455Y-35699490D01*
X126896455Y-35699490D02*
X126896455Y-35842347D01*
X126896455Y-35842347D02*
X126848836Y-36032823D01*
X126848836Y-36032823D02*
X126801217Y-36128061D01*
X126801217Y-36128061D02*
X126705979Y-36223300D01*
X126705979Y-36223300D02*
X126563122Y-36270919D01*
X126563122Y-36270919D02*
X126325027Y-36270919D01*
X127325027Y-36270919D02*
X127325027Y-35270919D01*
X127325027Y-35270919D02*
X127563122Y-35270919D01*
X127563122Y-35270919D02*
X127705979Y-35318538D01*
X127705979Y-35318538D02*
X127801217Y-35413776D01*
X127801217Y-35413776D02*
X127848836Y-35509014D01*
X127848836Y-35509014D02*
X127896455Y-35699490D01*
X127896455Y-35699490D02*
X127896455Y-35842347D01*
X127896455Y-35842347D02*
X127848836Y-36032823D01*
X127848836Y-36032823D02*
X127801217Y-36128061D01*
X127801217Y-36128061D02*
X127705979Y-36223300D01*
X127705979Y-36223300D02*
X127563122Y-36270919D01*
X127563122Y-36270919D02*
X127325027Y-36270919D01*
X190351693Y-41049300D02*
X190473122Y-41096919D01*
X190473122Y-41096919D02*
X190675503Y-41096919D01*
X190675503Y-41096919D02*
X190756455Y-41049300D01*
X190756455Y-41049300D02*
X190796931Y-41001680D01*
X190796931Y-41001680D02*
X190837408Y-40906442D01*
X190837408Y-40906442D02*
X190837408Y-40811204D01*
X190837408Y-40811204D02*
X190796931Y-40715966D01*
X190796931Y-40715966D02*
X190756455Y-40668347D01*
X190756455Y-40668347D02*
X190675503Y-40620728D01*
X190675503Y-40620728D02*
X190513598Y-40573109D01*
X190513598Y-40573109D02*
X190432646Y-40525490D01*
X190432646Y-40525490D02*
X190392169Y-40477871D01*
X190392169Y-40477871D02*
X190351693Y-40382633D01*
X190351693Y-40382633D02*
X190351693Y-40287395D01*
X190351693Y-40287395D02*
X190392169Y-40192157D01*
X190392169Y-40192157D02*
X190432646Y-40144538D01*
X190432646Y-40144538D02*
X190513598Y-40096919D01*
X190513598Y-40096919D02*
X190715979Y-40096919D01*
X190715979Y-40096919D02*
X190837408Y-40144538D01*
X191201693Y-41096919D02*
X191201693Y-40096919D01*
X191201693Y-40096919D02*
X191404074Y-40096919D01*
X191404074Y-40096919D02*
X191525503Y-40144538D01*
X191525503Y-40144538D02*
X191606455Y-40239776D01*
X191606455Y-40239776D02*
X191646932Y-40335014D01*
X191646932Y-40335014D02*
X191687408Y-40525490D01*
X191687408Y-40525490D02*
X191687408Y-40668347D01*
X191687408Y-40668347D02*
X191646932Y-40858823D01*
X191646932Y-40858823D02*
X191606455Y-40954061D01*
X191606455Y-40954061D02*
X191525503Y-41049300D01*
X191525503Y-41049300D02*
X191404074Y-41096919D01*
X191404074Y-41096919D02*
X191201693Y-41096919D01*
X192051693Y-40715966D02*
X192699313Y-40715966D01*
X124832074Y-50256919D02*
X124993979Y-50256919D01*
X124993979Y-50256919D02*
X125074931Y-50304538D01*
X125074931Y-50304538D02*
X125155884Y-50399776D01*
X125155884Y-50399776D02*
X125196360Y-50590252D01*
X125196360Y-50590252D02*
X125196360Y-50923585D01*
X125196360Y-50923585D02*
X125155884Y-51114061D01*
X125155884Y-51114061D02*
X125074931Y-51209300D01*
X125074931Y-51209300D02*
X124993979Y-51256919D01*
X124993979Y-51256919D02*
X124832074Y-51256919D01*
X124832074Y-51256919D02*
X124751122Y-51209300D01*
X124751122Y-51209300D02*
X124670169Y-51114061D01*
X124670169Y-51114061D02*
X124629693Y-50923585D01*
X124629693Y-50923585D02*
X124629693Y-50590252D01*
X124629693Y-50590252D02*
X124670169Y-50399776D01*
X124670169Y-50399776D02*
X124751122Y-50304538D01*
X124751122Y-50304538D02*
X124832074Y-50256919D01*
X125439217Y-50256919D02*
X125722550Y-51256919D01*
X125722550Y-51256919D02*
X126005884Y-50256919D01*
X126289216Y-51256919D02*
X126289216Y-50256919D01*
X126289216Y-50256919D02*
X126491597Y-50256919D01*
X126491597Y-50256919D02*
X126613026Y-50304538D01*
X126613026Y-50304538D02*
X126693978Y-50399776D01*
X126693978Y-50399776D02*
X126734455Y-50495014D01*
X126734455Y-50495014D02*
X126774931Y-50685490D01*
X126774931Y-50685490D02*
X126774931Y-50828347D01*
X126774931Y-50828347D02*
X126734455Y-51018823D01*
X126734455Y-51018823D02*
X126693978Y-51114061D01*
X126693978Y-51114061D02*
X126613026Y-51209300D01*
X126613026Y-51209300D02*
X126491597Y-51256919D01*
X126491597Y-51256919D02*
X126289216Y-51256919D01*
X127139216Y-51256919D02*
X127139216Y-50256919D01*
X127139216Y-50256919D02*
X127341597Y-50256919D01*
X127341597Y-50256919D02*
X127463026Y-50304538D01*
X127463026Y-50304538D02*
X127543978Y-50399776D01*
X127543978Y-50399776D02*
X127584455Y-50495014D01*
X127584455Y-50495014D02*
X127624931Y-50685490D01*
X127624931Y-50685490D02*
X127624931Y-50828347D01*
X127624931Y-50828347D02*
X127584455Y-51018823D01*
X127584455Y-51018823D02*
X127543978Y-51114061D01*
X127543978Y-51114061D02*
X127463026Y-51209300D01*
X127463026Y-51209300D02*
X127341597Y-51256919D01*
X127341597Y-51256919D02*
X127139216Y-51256919D01*
X134278265Y-50209204D02*
X134754455Y-50209204D01*
X134183027Y-50494919D02*
X134516360Y-49494919D01*
X134516360Y-49494919D02*
X134849693Y-50494919D01*
X135183027Y-50494919D02*
X135183027Y-49494919D01*
X135659217Y-50494919D02*
X135659217Y-49494919D01*
X135659217Y-49494919D02*
X136230645Y-50494919D01*
X136230645Y-50494919D02*
X136230645Y-49494919D01*
X136706836Y-50113966D02*
X137468741Y-50113966D01*
X190837408Y-89642538D02*
X190756455Y-89594919D01*
X190756455Y-89594919D02*
X190635027Y-89594919D01*
X190635027Y-89594919D02*
X190513598Y-89642538D01*
X190513598Y-89642538D02*
X190432646Y-89737776D01*
X190432646Y-89737776D02*
X190392169Y-89833014D01*
X190392169Y-89833014D02*
X190351693Y-90023490D01*
X190351693Y-90023490D02*
X190351693Y-90166347D01*
X190351693Y-90166347D02*
X190392169Y-90356823D01*
X190392169Y-90356823D02*
X190432646Y-90452061D01*
X190432646Y-90452061D02*
X190513598Y-90547300D01*
X190513598Y-90547300D02*
X190635027Y-90594919D01*
X190635027Y-90594919D02*
X190715979Y-90594919D01*
X190715979Y-90594919D02*
X190837408Y-90547300D01*
X190837408Y-90547300D02*
X190877884Y-90499680D01*
X190877884Y-90499680D02*
X190877884Y-90166347D01*
X190877884Y-90166347D02*
X190715979Y-90166347D01*
X191242169Y-90594919D02*
X191242169Y-89594919D01*
X191242169Y-89594919D02*
X191727884Y-90594919D01*
X191727884Y-90594919D02*
X191727884Y-89594919D01*
X192132645Y-90594919D02*
X192132645Y-89594919D01*
X192132645Y-89594919D02*
X192335026Y-89594919D01*
X192335026Y-89594919D02*
X192456455Y-89642538D01*
X192456455Y-89642538D02*
X192537407Y-89737776D01*
X192537407Y-89737776D02*
X192577884Y-89833014D01*
X192577884Y-89833014D02*
X192618360Y-90023490D01*
X192618360Y-90023490D02*
X192618360Y-90166347D01*
X192618360Y-90166347D02*
X192577884Y-90356823D01*
X192577884Y-90356823D02*
X192537407Y-90452061D01*
X192537407Y-90452061D02*
X192456455Y-90547300D01*
X192456455Y-90547300D02*
X192335026Y-90594919D01*
X192335026Y-90594919D02*
X192132645Y-90594919D01*
X190837408Y-53098538D02*
X190756455Y-53050919D01*
X190756455Y-53050919D02*
X190635027Y-53050919D01*
X190635027Y-53050919D02*
X190513598Y-53098538D01*
X190513598Y-53098538D02*
X190432646Y-53193776D01*
X190432646Y-53193776D02*
X190392169Y-53289014D01*
X190392169Y-53289014D02*
X190351693Y-53479490D01*
X190351693Y-53479490D02*
X190351693Y-53622347D01*
X190351693Y-53622347D02*
X190392169Y-53812823D01*
X190392169Y-53812823D02*
X190432646Y-53908061D01*
X190432646Y-53908061D02*
X190513598Y-54003300D01*
X190513598Y-54003300D02*
X190635027Y-54050919D01*
X190635027Y-54050919D02*
X190715979Y-54050919D01*
X190715979Y-54050919D02*
X190837408Y-54003300D01*
X190837408Y-54003300D02*
X190877884Y-53955680D01*
X190877884Y-53955680D02*
X190877884Y-53622347D01*
X190877884Y-53622347D02*
X190715979Y-53622347D01*
X191242169Y-54050919D02*
X191242169Y-53050919D01*
X191242169Y-53050919D02*
X191727884Y-54050919D01*
X191727884Y-54050919D02*
X191727884Y-53050919D01*
X192132645Y-54050919D02*
X192132645Y-53050919D01*
X192132645Y-53050919D02*
X192335026Y-53050919D01*
X192335026Y-53050919D02*
X192456455Y-53098538D01*
X192456455Y-53098538D02*
X192537407Y-53193776D01*
X192537407Y-53193776D02*
X192577884Y-53289014D01*
X192577884Y-53289014D02*
X192618360Y-53479490D01*
X192618360Y-53479490D02*
X192618360Y-53622347D01*
X192618360Y-53622347D02*
X192577884Y-53812823D01*
X192577884Y-53812823D02*
X192537407Y-53908061D01*
X192537407Y-53908061D02*
X192456455Y-54003300D01*
X192456455Y-54003300D02*
X192335026Y-54050919D01*
X192335026Y-54050919D02*
X192132645Y-54050919D01*
X125137693Y-43843300D02*
X125259122Y-43890919D01*
X125259122Y-43890919D02*
X125461503Y-43890919D01*
X125461503Y-43890919D02*
X125542455Y-43843300D01*
X125542455Y-43843300D02*
X125582931Y-43795680D01*
X125582931Y-43795680D02*
X125623408Y-43700442D01*
X125623408Y-43700442D02*
X125623408Y-43605204D01*
X125623408Y-43605204D02*
X125582931Y-43509966D01*
X125582931Y-43509966D02*
X125542455Y-43462347D01*
X125542455Y-43462347D02*
X125461503Y-43414728D01*
X125461503Y-43414728D02*
X125299598Y-43367109D01*
X125299598Y-43367109D02*
X125218646Y-43319490D01*
X125218646Y-43319490D02*
X125178169Y-43271871D01*
X125178169Y-43271871D02*
X125137693Y-43176633D01*
X125137693Y-43176633D02*
X125137693Y-43081395D01*
X125137693Y-43081395D02*
X125178169Y-42986157D01*
X125178169Y-42986157D02*
X125218646Y-42938538D01*
X125218646Y-42938538D02*
X125299598Y-42890919D01*
X125299598Y-42890919D02*
X125501979Y-42890919D01*
X125501979Y-42890919D02*
X125623408Y-42938538D01*
X126473408Y-43795680D02*
X126432932Y-43843300D01*
X126432932Y-43843300D02*
X126311503Y-43890919D01*
X126311503Y-43890919D02*
X126230551Y-43890919D01*
X126230551Y-43890919D02*
X126109122Y-43843300D01*
X126109122Y-43843300D02*
X126028170Y-43748061D01*
X126028170Y-43748061D02*
X125987693Y-43652823D01*
X125987693Y-43652823D02*
X125947217Y-43462347D01*
X125947217Y-43462347D02*
X125947217Y-43319490D01*
X125947217Y-43319490D02*
X125987693Y-43129014D01*
X125987693Y-43129014D02*
X126028170Y-43033776D01*
X126028170Y-43033776D02*
X126109122Y-42938538D01*
X126109122Y-42938538D02*
X126230551Y-42890919D01*
X126230551Y-42890919D02*
X126311503Y-42890919D01*
X126311503Y-42890919D02*
X126432932Y-42938538D01*
X126432932Y-42938538D02*
X126473408Y-42986157D01*
X126837693Y-43509966D02*
X127485313Y-43509966D01*
X127161503Y-43890919D02*
X127161503Y-43129014D01*
X124832074Y-86800919D02*
X124993979Y-86800919D01*
X124993979Y-86800919D02*
X125074931Y-86848538D01*
X125074931Y-86848538D02*
X125155884Y-86943776D01*
X125155884Y-86943776D02*
X125196360Y-87134252D01*
X125196360Y-87134252D02*
X125196360Y-87467585D01*
X125196360Y-87467585D02*
X125155884Y-87658061D01*
X125155884Y-87658061D02*
X125074931Y-87753300D01*
X125074931Y-87753300D02*
X124993979Y-87800919D01*
X124993979Y-87800919D02*
X124832074Y-87800919D01*
X124832074Y-87800919D02*
X124751122Y-87753300D01*
X124751122Y-87753300D02*
X124670169Y-87658061D01*
X124670169Y-87658061D02*
X124629693Y-87467585D01*
X124629693Y-87467585D02*
X124629693Y-87134252D01*
X124629693Y-87134252D02*
X124670169Y-86943776D01*
X124670169Y-86943776D02*
X124751122Y-86848538D01*
X124751122Y-86848538D02*
X124832074Y-86800919D01*
X125439217Y-86800919D02*
X125722550Y-87800919D01*
X125722550Y-87800919D02*
X126005884Y-86800919D01*
X126289216Y-87800919D02*
X126289216Y-86800919D01*
X126289216Y-86800919D02*
X126491597Y-86800919D01*
X126491597Y-86800919D02*
X126613026Y-86848538D01*
X126613026Y-86848538D02*
X126693978Y-86943776D01*
X126693978Y-86943776D02*
X126734455Y-87039014D01*
X126734455Y-87039014D02*
X126774931Y-87229490D01*
X126774931Y-87229490D02*
X126774931Y-87372347D01*
X126774931Y-87372347D02*
X126734455Y-87562823D01*
X126734455Y-87562823D02*
X126693978Y-87658061D01*
X126693978Y-87658061D02*
X126613026Y-87753300D01*
X126613026Y-87753300D02*
X126491597Y-87800919D01*
X126491597Y-87800919D02*
X126289216Y-87800919D01*
X127139216Y-87800919D02*
X127139216Y-86800919D01*
X127139216Y-86800919D02*
X127341597Y-86800919D01*
X127341597Y-86800919D02*
X127463026Y-86848538D01*
X127463026Y-86848538D02*
X127543978Y-86943776D01*
X127543978Y-86943776D02*
X127584455Y-87039014D01*
X127584455Y-87039014D02*
X127624931Y-87229490D01*
X127624931Y-87229490D02*
X127624931Y-87372347D01*
X127624931Y-87372347D02*
X127584455Y-87562823D01*
X127584455Y-87562823D02*
X127543978Y-87658061D01*
X127543978Y-87658061D02*
X127463026Y-87753300D01*
X127463026Y-87753300D02*
X127341597Y-87800919D01*
X127341597Y-87800919D02*
X127139216Y-87800919D01*
X125391693Y-41049300D02*
X125513122Y-41096919D01*
X125513122Y-41096919D02*
X125715503Y-41096919D01*
X125715503Y-41096919D02*
X125796455Y-41049300D01*
X125796455Y-41049300D02*
X125836931Y-41001680D01*
X125836931Y-41001680D02*
X125877408Y-40906442D01*
X125877408Y-40906442D02*
X125877408Y-40811204D01*
X125877408Y-40811204D02*
X125836931Y-40715966D01*
X125836931Y-40715966D02*
X125796455Y-40668347D01*
X125796455Y-40668347D02*
X125715503Y-40620728D01*
X125715503Y-40620728D02*
X125553598Y-40573109D01*
X125553598Y-40573109D02*
X125472646Y-40525490D01*
X125472646Y-40525490D02*
X125432169Y-40477871D01*
X125432169Y-40477871D02*
X125391693Y-40382633D01*
X125391693Y-40382633D02*
X125391693Y-40287395D01*
X125391693Y-40287395D02*
X125432169Y-40192157D01*
X125432169Y-40192157D02*
X125472646Y-40144538D01*
X125472646Y-40144538D02*
X125553598Y-40096919D01*
X125553598Y-40096919D02*
X125755979Y-40096919D01*
X125755979Y-40096919D02*
X125877408Y-40144538D01*
X126241693Y-41096919D02*
X126241693Y-40096919D01*
X126241693Y-40096919D02*
X126444074Y-40096919D01*
X126444074Y-40096919D02*
X126565503Y-40144538D01*
X126565503Y-40144538D02*
X126646455Y-40239776D01*
X126646455Y-40239776D02*
X126686932Y-40335014D01*
X126686932Y-40335014D02*
X126727408Y-40525490D01*
X126727408Y-40525490D02*
X126727408Y-40668347D01*
X126727408Y-40668347D02*
X126686932Y-40858823D01*
X126686932Y-40858823D02*
X126646455Y-40954061D01*
X126646455Y-40954061D02*
X126565503Y-41049300D01*
X126565503Y-41049300D02*
X126444074Y-41096919D01*
X126444074Y-41096919D02*
X126241693Y-41096919D01*
X127091693Y-40715966D02*
X127739313Y-40715966D01*
X157312074Y-86800919D02*
X157473979Y-86800919D01*
X157473979Y-86800919D02*
X157554931Y-86848538D01*
X157554931Y-86848538D02*
X157635884Y-86943776D01*
X157635884Y-86943776D02*
X157676360Y-87134252D01*
X157676360Y-87134252D02*
X157676360Y-87467585D01*
X157676360Y-87467585D02*
X157635884Y-87658061D01*
X157635884Y-87658061D02*
X157554931Y-87753300D01*
X157554931Y-87753300D02*
X157473979Y-87800919D01*
X157473979Y-87800919D02*
X157312074Y-87800919D01*
X157312074Y-87800919D02*
X157231122Y-87753300D01*
X157231122Y-87753300D02*
X157150169Y-87658061D01*
X157150169Y-87658061D02*
X157109693Y-87467585D01*
X157109693Y-87467585D02*
X157109693Y-87134252D01*
X157109693Y-87134252D02*
X157150169Y-86943776D01*
X157150169Y-86943776D02*
X157231122Y-86848538D01*
X157231122Y-86848538D02*
X157312074Y-86800919D01*
X157919217Y-86800919D02*
X158202550Y-87800919D01*
X158202550Y-87800919D02*
X158485884Y-86800919D01*
X158769216Y-87800919D02*
X158769216Y-86800919D01*
X158769216Y-86800919D02*
X158971597Y-86800919D01*
X158971597Y-86800919D02*
X159093026Y-86848538D01*
X159093026Y-86848538D02*
X159173978Y-86943776D01*
X159173978Y-86943776D02*
X159214455Y-87039014D01*
X159214455Y-87039014D02*
X159254931Y-87229490D01*
X159254931Y-87229490D02*
X159254931Y-87372347D01*
X159254931Y-87372347D02*
X159214455Y-87562823D01*
X159214455Y-87562823D02*
X159173978Y-87658061D01*
X159173978Y-87658061D02*
X159093026Y-87753300D01*
X159093026Y-87753300D02*
X158971597Y-87800919D01*
X158971597Y-87800919D02*
X158769216Y-87800919D01*
X159619216Y-87800919D02*
X159619216Y-86800919D01*
X159619216Y-86800919D02*
X159821597Y-86800919D01*
X159821597Y-86800919D02*
X159943026Y-86848538D01*
X159943026Y-86848538D02*
X160023978Y-86943776D01*
X160023978Y-86943776D02*
X160064455Y-87039014D01*
X160064455Y-87039014D02*
X160104931Y-87229490D01*
X160104931Y-87229490D02*
X160104931Y-87372347D01*
X160104931Y-87372347D02*
X160064455Y-87562823D01*
X160064455Y-87562823D02*
X160023978Y-87658061D01*
X160023978Y-87658061D02*
X159943026Y-87753300D01*
X159943026Y-87753300D02*
X159821597Y-87800919D01*
X159821597Y-87800919D02*
X159619216Y-87800919D01*
X158397884Y-48875680D02*
X158357408Y-48923300D01*
X158357408Y-48923300D02*
X158235979Y-48970919D01*
X158235979Y-48970919D02*
X158155027Y-48970919D01*
X158155027Y-48970919D02*
X158033598Y-48923300D01*
X158033598Y-48923300D02*
X157952646Y-48828061D01*
X157952646Y-48828061D02*
X157912169Y-48732823D01*
X157912169Y-48732823D02*
X157871693Y-48542347D01*
X157871693Y-48542347D02*
X157871693Y-48399490D01*
X157871693Y-48399490D02*
X157912169Y-48209014D01*
X157912169Y-48209014D02*
X157952646Y-48113776D01*
X157952646Y-48113776D02*
X158033598Y-48018538D01*
X158033598Y-48018538D02*
X158155027Y-47970919D01*
X158155027Y-47970919D02*
X158235979Y-47970919D01*
X158235979Y-47970919D02*
X158357408Y-48018538D01*
X158357408Y-48018538D02*
X158397884Y-48066157D01*
X158762169Y-48970919D02*
X158762169Y-47970919D01*
X158762169Y-47970919D02*
X159247884Y-48970919D01*
X159247884Y-48970919D02*
X159247884Y-47970919D01*
X159531217Y-47970919D02*
X159814550Y-48970919D01*
X159814550Y-48970919D02*
X160097884Y-47970919D01*
X157794789Y-47693300D02*
X160093836Y-47693300D01*
X157617693Y-46129300D02*
X157739122Y-46176919D01*
X157739122Y-46176919D02*
X157941503Y-46176919D01*
X157941503Y-46176919D02*
X158022455Y-46129300D01*
X158022455Y-46129300D02*
X158062931Y-46081680D01*
X158062931Y-46081680D02*
X158103408Y-45986442D01*
X158103408Y-45986442D02*
X158103408Y-45891204D01*
X158103408Y-45891204D02*
X158062931Y-45795966D01*
X158062931Y-45795966D02*
X158022455Y-45748347D01*
X158022455Y-45748347D02*
X157941503Y-45700728D01*
X157941503Y-45700728D02*
X157779598Y-45653109D01*
X157779598Y-45653109D02*
X157698646Y-45605490D01*
X157698646Y-45605490D02*
X157658169Y-45557871D01*
X157658169Y-45557871D02*
X157617693Y-45462633D01*
X157617693Y-45462633D02*
X157617693Y-45367395D01*
X157617693Y-45367395D02*
X157658169Y-45272157D01*
X157658169Y-45272157D02*
X157698646Y-45224538D01*
X157698646Y-45224538D02*
X157779598Y-45176919D01*
X157779598Y-45176919D02*
X157981979Y-45176919D01*
X157981979Y-45176919D02*
X158103408Y-45224538D01*
X158953408Y-46081680D02*
X158912932Y-46129300D01*
X158912932Y-46129300D02*
X158791503Y-46176919D01*
X158791503Y-46176919D02*
X158710551Y-46176919D01*
X158710551Y-46176919D02*
X158589122Y-46129300D01*
X158589122Y-46129300D02*
X158508170Y-46034061D01*
X158508170Y-46034061D02*
X158467693Y-45938823D01*
X158467693Y-45938823D02*
X158427217Y-45748347D01*
X158427217Y-45748347D02*
X158427217Y-45605490D01*
X158427217Y-45605490D02*
X158467693Y-45415014D01*
X158467693Y-45415014D02*
X158508170Y-45319776D01*
X158508170Y-45319776D02*
X158589122Y-45224538D01*
X158589122Y-45224538D02*
X158710551Y-45176919D01*
X158710551Y-45176919D02*
X158791503Y-45176919D01*
X158791503Y-45176919D02*
X158912932Y-45224538D01*
X158912932Y-45224538D02*
X158953408Y-45272157D01*
X159317693Y-45795966D02*
X159965313Y-45795966D01*
X125292073Y-38509300D02*
X125413502Y-38556919D01*
X125413502Y-38556919D02*
X125615883Y-38556919D01*
X125615883Y-38556919D02*
X125696835Y-38509300D01*
X125696835Y-38509300D02*
X125737311Y-38461680D01*
X125737311Y-38461680D02*
X125777788Y-38366442D01*
X125777788Y-38366442D02*
X125777788Y-38271204D01*
X125777788Y-38271204D02*
X125737311Y-38175966D01*
X125737311Y-38175966D02*
X125696835Y-38128347D01*
X125696835Y-38128347D02*
X125615883Y-38080728D01*
X125615883Y-38080728D02*
X125453978Y-38033109D01*
X125453978Y-38033109D02*
X125373026Y-37985490D01*
X125373026Y-37985490D02*
X125332549Y-37937871D01*
X125332549Y-37937871D02*
X125292073Y-37842633D01*
X125292073Y-37842633D02*
X125292073Y-37747395D01*
X125292073Y-37747395D02*
X125332549Y-37652157D01*
X125332549Y-37652157D02*
X125373026Y-37604538D01*
X125373026Y-37604538D02*
X125453978Y-37556919D01*
X125453978Y-37556919D02*
X125656359Y-37556919D01*
X125656359Y-37556919D02*
X125777788Y-37604538D01*
X126142073Y-38556919D02*
X126142073Y-37556919D01*
X126142073Y-37556919D02*
X126344454Y-37556919D01*
X126344454Y-37556919D02*
X126465883Y-37604538D01*
X126465883Y-37604538D02*
X126546835Y-37699776D01*
X126546835Y-37699776D02*
X126587312Y-37795014D01*
X126587312Y-37795014D02*
X126627788Y-37985490D01*
X126627788Y-37985490D02*
X126627788Y-38128347D01*
X126627788Y-38128347D02*
X126587312Y-38318823D01*
X126587312Y-38318823D02*
X126546835Y-38414061D01*
X126546835Y-38414061D02*
X126465883Y-38509300D01*
X126465883Y-38509300D02*
X126344454Y-38556919D01*
X126344454Y-38556919D02*
X126142073Y-38556919D01*
X126992073Y-38175966D02*
X127639693Y-38175966D01*
X127315883Y-38556919D02*
X127315883Y-37795014D01*
X134278265Y-86753204D02*
X134754455Y-86753204D01*
X134183027Y-87038919D02*
X134516360Y-86038919D01*
X134516360Y-86038919D02*
X134849693Y-87038919D01*
X135183027Y-87038919D02*
X135183027Y-86038919D01*
X135659217Y-87038919D02*
X135659217Y-86038919D01*
X135659217Y-86038919D02*
X136230645Y-87038919D01*
X136230645Y-87038919D02*
X136230645Y-86038919D01*
X136706836Y-86657966D02*
X137468741Y-86657966D01*
X190877884Y-48875680D02*
X190837408Y-48923300D01*
X190837408Y-48923300D02*
X190715979Y-48970919D01*
X190715979Y-48970919D02*
X190635027Y-48970919D01*
X190635027Y-48970919D02*
X190513598Y-48923300D01*
X190513598Y-48923300D02*
X190432646Y-48828061D01*
X190432646Y-48828061D02*
X190392169Y-48732823D01*
X190392169Y-48732823D02*
X190351693Y-48542347D01*
X190351693Y-48542347D02*
X190351693Y-48399490D01*
X190351693Y-48399490D02*
X190392169Y-48209014D01*
X190392169Y-48209014D02*
X190432646Y-48113776D01*
X190432646Y-48113776D02*
X190513598Y-48018538D01*
X190513598Y-48018538D02*
X190635027Y-47970919D01*
X190635027Y-47970919D02*
X190715979Y-47970919D01*
X190715979Y-47970919D02*
X190837408Y-48018538D01*
X190837408Y-48018538D02*
X190877884Y-48066157D01*
X191242169Y-48970919D02*
X191242169Y-47970919D01*
X191242169Y-47970919D02*
X191727884Y-48970919D01*
X191727884Y-48970919D02*
X191727884Y-47970919D01*
X192011217Y-47970919D02*
X192294550Y-48970919D01*
X192294550Y-48970919D02*
X192577884Y-47970919D01*
X190274789Y-47693300D02*
X192573836Y-47693300D01*
X157805027Y-35270919D02*
X158138360Y-36270919D01*
X158138360Y-36270919D02*
X158471693Y-35270919D01*
X158805027Y-36270919D02*
X158805027Y-35270919D01*
X158805027Y-35270919D02*
X159043122Y-35270919D01*
X159043122Y-35270919D02*
X159185979Y-35318538D01*
X159185979Y-35318538D02*
X159281217Y-35413776D01*
X159281217Y-35413776D02*
X159328836Y-35509014D01*
X159328836Y-35509014D02*
X159376455Y-35699490D01*
X159376455Y-35699490D02*
X159376455Y-35842347D01*
X159376455Y-35842347D02*
X159328836Y-36032823D01*
X159328836Y-36032823D02*
X159281217Y-36128061D01*
X159281217Y-36128061D02*
X159185979Y-36223300D01*
X159185979Y-36223300D02*
X159043122Y-36270919D01*
X159043122Y-36270919D02*
X158805027Y-36270919D01*
X159805027Y-36270919D02*
X159805027Y-35270919D01*
X159805027Y-35270919D02*
X160043122Y-35270919D01*
X160043122Y-35270919D02*
X160185979Y-35318538D01*
X160185979Y-35318538D02*
X160281217Y-35413776D01*
X160281217Y-35413776D02*
X160328836Y-35509014D01*
X160328836Y-35509014D02*
X160376455Y-35699490D01*
X160376455Y-35699490D02*
X160376455Y-35842347D01*
X160376455Y-35842347D02*
X160328836Y-36032823D01*
X160328836Y-36032823D02*
X160281217Y-36128061D01*
X160281217Y-36128061D02*
X160185979Y-36223300D01*
X160185979Y-36223300D02*
X160043122Y-36270919D01*
X160043122Y-36270919D02*
X159805027Y-36270919D01*
X157617693Y-82673300D02*
X157739122Y-82720919D01*
X157739122Y-82720919D02*
X157941503Y-82720919D01*
X157941503Y-82720919D02*
X158022455Y-82673300D01*
X158022455Y-82673300D02*
X158062931Y-82625680D01*
X158062931Y-82625680D02*
X158103408Y-82530442D01*
X158103408Y-82530442D02*
X158103408Y-82435204D01*
X158103408Y-82435204D02*
X158062931Y-82339966D01*
X158062931Y-82339966D02*
X158022455Y-82292347D01*
X158022455Y-82292347D02*
X157941503Y-82244728D01*
X157941503Y-82244728D02*
X157779598Y-82197109D01*
X157779598Y-82197109D02*
X157698646Y-82149490D01*
X157698646Y-82149490D02*
X157658169Y-82101871D01*
X157658169Y-82101871D02*
X157617693Y-82006633D01*
X157617693Y-82006633D02*
X157617693Y-81911395D01*
X157617693Y-81911395D02*
X157658169Y-81816157D01*
X157658169Y-81816157D02*
X157698646Y-81768538D01*
X157698646Y-81768538D02*
X157779598Y-81720919D01*
X157779598Y-81720919D02*
X157981979Y-81720919D01*
X157981979Y-81720919D02*
X158103408Y-81768538D01*
X158953408Y-82625680D02*
X158912932Y-82673300D01*
X158912932Y-82673300D02*
X158791503Y-82720919D01*
X158791503Y-82720919D02*
X158710551Y-82720919D01*
X158710551Y-82720919D02*
X158589122Y-82673300D01*
X158589122Y-82673300D02*
X158508170Y-82578061D01*
X158508170Y-82578061D02*
X158467693Y-82482823D01*
X158467693Y-82482823D02*
X158427217Y-82292347D01*
X158427217Y-82292347D02*
X158427217Y-82149490D01*
X158427217Y-82149490D02*
X158467693Y-81959014D01*
X158467693Y-81959014D02*
X158508170Y-81863776D01*
X158508170Y-81863776D02*
X158589122Y-81768538D01*
X158589122Y-81768538D02*
X158710551Y-81720919D01*
X158710551Y-81720919D02*
X158791503Y-81720919D01*
X158791503Y-81720919D02*
X158912932Y-81768538D01*
X158912932Y-81768538D02*
X158953408Y-81816157D01*
X159317693Y-82339966D02*
X159965313Y-82339966D01*
X158397884Y-85419680D02*
X158357408Y-85467300D01*
X158357408Y-85467300D02*
X158235979Y-85514919D01*
X158235979Y-85514919D02*
X158155027Y-85514919D01*
X158155027Y-85514919D02*
X158033598Y-85467300D01*
X158033598Y-85467300D02*
X157952646Y-85372061D01*
X157952646Y-85372061D02*
X157912169Y-85276823D01*
X157912169Y-85276823D02*
X157871693Y-85086347D01*
X157871693Y-85086347D02*
X157871693Y-84943490D01*
X157871693Y-84943490D02*
X157912169Y-84753014D01*
X157912169Y-84753014D02*
X157952646Y-84657776D01*
X157952646Y-84657776D02*
X158033598Y-84562538D01*
X158033598Y-84562538D02*
X158155027Y-84514919D01*
X158155027Y-84514919D02*
X158235979Y-84514919D01*
X158235979Y-84514919D02*
X158357408Y-84562538D01*
X158357408Y-84562538D02*
X158397884Y-84610157D01*
X158762169Y-85514919D02*
X158762169Y-84514919D01*
X158762169Y-84514919D02*
X159247884Y-85514919D01*
X159247884Y-85514919D02*
X159247884Y-84514919D01*
X159531217Y-84514919D02*
X159814550Y-85514919D01*
X159814550Y-85514919D02*
X160097884Y-84514919D01*
X157794789Y-84237300D02*
X160093836Y-84237300D01*
X166758265Y-50209204D02*
X167234455Y-50209204D01*
X166663027Y-50494919D02*
X166996360Y-49494919D01*
X166996360Y-49494919D02*
X167329693Y-50494919D01*
X167663027Y-50494919D02*
X167663027Y-49494919D01*
X168139217Y-50494919D02*
X168139217Y-49494919D01*
X168139217Y-49494919D02*
X168710645Y-50494919D01*
X168710645Y-50494919D02*
X168710645Y-49494919D01*
X169186836Y-50113966D02*
X169948741Y-50113966D01*
X158357408Y-53098538D02*
X158276455Y-53050919D01*
X158276455Y-53050919D02*
X158155027Y-53050919D01*
X158155027Y-53050919D02*
X158033598Y-53098538D01*
X158033598Y-53098538D02*
X157952646Y-53193776D01*
X157952646Y-53193776D02*
X157912169Y-53289014D01*
X157912169Y-53289014D02*
X157871693Y-53479490D01*
X157871693Y-53479490D02*
X157871693Y-53622347D01*
X157871693Y-53622347D02*
X157912169Y-53812823D01*
X157912169Y-53812823D02*
X157952646Y-53908061D01*
X157952646Y-53908061D02*
X158033598Y-54003300D01*
X158033598Y-54003300D02*
X158155027Y-54050919D01*
X158155027Y-54050919D02*
X158235979Y-54050919D01*
X158235979Y-54050919D02*
X158357408Y-54003300D01*
X158357408Y-54003300D02*
X158397884Y-53955680D01*
X158397884Y-53955680D02*
X158397884Y-53622347D01*
X158397884Y-53622347D02*
X158235979Y-53622347D01*
X158762169Y-54050919D02*
X158762169Y-53050919D01*
X158762169Y-53050919D02*
X159247884Y-54050919D01*
X159247884Y-54050919D02*
X159247884Y-53050919D01*
X159652645Y-54050919D02*
X159652645Y-53050919D01*
X159652645Y-53050919D02*
X159855026Y-53050919D01*
X159855026Y-53050919D02*
X159976455Y-53098538D01*
X159976455Y-53098538D02*
X160057407Y-53193776D01*
X160057407Y-53193776D02*
X160097884Y-53289014D01*
X160097884Y-53289014D02*
X160138360Y-53479490D01*
X160138360Y-53479490D02*
X160138360Y-53622347D01*
X160138360Y-53622347D02*
X160097884Y-53812823D01*
X160097884Y-53812823D02*
X160057407Y-53908061D01*
X160057407Y-53908061D02*
X159976455Y-54003300D01*
X159976455Y-54003300D02*
X159855026Y-54050919D01*
X159855026Y-54050919D02*
X159652645Y-54050919D01*
X190252073Y-75053300D02*
X190373502Y-75100919D01*
X190373502Y-75100919D02*
X190575883Y-75100919D01*
X190575883Y-75100919D02*
X190656835Y-75053300D01*
X190656835Y-75053300D02*
X190697311Y-75005680D01*
X190697311Y-75005680D02*
X190737788Y-74910442D01*
X190737788Y-74910442D02*
X190737788Y-74815204D01*
X190737788Y-74815204D02*
X190697311Y-74719966D01*
X190697311Y-74719966D02*
X190656835Y-74672347D01*
X190656835Y-74672347D02*
X190575883Y-74624728D01*
X190575883Y-74624728D02*
X190413978Y-74577109D01*
X190413978Y-74577109D02*
X190333026Y-74529490D01*
X190333026Y-74529490D02*
X190292549Y-74481871D01*
X190292549Y-74481871D02*
X190252073Y-74386633D01*
X190252073Y-74386633D02*
X190252073Y-74291395D01*
X190252073Y-74291395D02*
X190292549Y-74196157D01*
X190292549Y-74196157D02*
X190333026Y-74148538D01*
X190333026Y-74148538D02*
X190413978Y-74100919D01*
X190413978Y-74100919D02*
X190616359Y-74100919D01*
X190616359Y-74100919D02*
X190737788Y-74148538D01*
X191102073Y-75100919D02*
X191102073Y-74100919D01*
X191102073Y-74100919D02*
X191304454Y-74100919D01*
X191304454Y-74100919D02*
X191425883Y-74148538D01*
X191425883Y-74148538D02*
X191506835Y-74243776D01*
X191506835Y-74243776D02*
X191547312Y-74339014D01*
X191547312Y-74339014D02*
X191587788Y-74529490D01*
X191587788Y-74529490D02*
X191587788Y-74672347D01*
X191587788Y-74672347D02*
X191547312Y-74862823D01*
X191547312Y-74862823D02*
X191506835Y-74958061D01*
X191506835Y-74958061D02*
X191425883Y-75053300D01*
X191425883Y-75053300D02*
X191304454Y-75100919D01*
X191304454Y-75100919D02*
X191102073Y-75100919D01*
X191952073Y-74719966D02*
X192599693Y-74719966D01*
X192275883Y-75100919D02*
X192275883Y-74339014D01*
X125137693Y-46129300D02*
X125259122Y-46176919D01*
X125259122Y-46176919D02*
X125461503Y-46176919D01*
X125461503Y-46176919D02*
X125542455Y-46129300D01*
X125542455Y-46129300D02*
X125582931Y-46081680D01*
X125582931Y-46081680D02*
X125623408Y-45986442D01*
X125623408Y-45986442D02*
X125623408Y-45891204D01*
X125623408Y-45891204D02*
X125582931Y-45795966D01*
X125582931Y-45795966D02*
X125542455Y-45748347D01*
X125542455Y-45748347D02*
X125461503Y-45700728D01*
X125461503Y-45700728D02*
X125299598Y-45653109D01*
X125299598Y-45653109D02*
X125218646Y-45605490D01*
X125218646Y-45605490D02*
X125178169Y-45557871D01*
X125178169Y-45557871D02*
X125137693Y-45462633D01*
X125137693Y-45462633D02*
X125137693Y-45367395D01*
X125137693Y-45367395D02*
X125178169Y-45272157D01*
X125178169Y-45272157D02*
X125218646Y-45224538D01*
X125218646Y-45224538D02*
X125299598Y-45176919D01*
X125299598Y-45176919D02*
X125501979Y-45176919D01*
X125501979Y-45176919D02*
X125623408Y-45224538D01*
X126473408Y-46081680D02*
X126432932Y-46129300D01*
X126432932Y-46129300D02*
X126311503Y-46176919D01*
X126311503Y-46176919D02*
X126230551Y-46176919D01*
X126230551Y-46176919D02*
X126109122Y-46129300D01*
X126109122Y-46129300D02*
X126028170Y-46034061D01*
X126028170Y-46034061D02*
X125987693Y-45938823D01*
X125987693Y-45938823D02*
X125947217Y-45748347D01*
X125947217Y-45748347D02*
X125947217Y-45605490D01*
X125947217Y-45605490D02*
X125987693Y-45415014D01*
X125987693Y-45415014D02*
X126028170Y-45319776D01*
X126028170Y-45319776D02*
X126109122Y-45224538D01*
X126109122Y-45224538D02*
X126230551Y-45176919D01*
X126230551Y-45176919D02*
X126311503Y-45176919D01*
X126311503Y-45176919D02*
X126432932Y-45224538D01*
X126432932Y-45224538D02*
X126473408Y-45272157D01*
X126837693Y-45795966D02*
X127485313Y-45795966D01*
X189792074Y-86800919D02*
X189953979Y-86800919D01*
X189953979Y-86800919D02*
X190034931Y-86848538D01*
X190034931Y-86848538D02*
X190115884Y-86943776D01*
X190115884Y-86943776D02*
X190156360Y-87134252D01*
X190156360Y-87134252D02*
X190156360Y-87467585D01*
X190156360Y-87467585D02*
X190115884Y-87658061D01*
X190115884Y-87658061D02*
X190034931Y-87753300D01*
X190034931Y-87753300D02*
X189953979Y-87800919D01*
X189953979Y-87800919D02*
X189792074Y-87800919D01*
X189792074Y-87800919D02*
X189711122Y-87753300D01*
X189711122Y-87753300D02*
X189630169Y-87658061D01*
X189630169Y-87658061D02*
X189589693Y-87467585D01*
X189589693Y-87467585D02*
X189589693Y-87134252D01*
X189589693Y-87134252D02*
X189630169Y-86943776D01*
X189630169Y-86943776D02*
X189711122Y-86848538D01*
X189711122Y-86848538D02*
X189792074Y-86800919D01*
X190399217Y-86800919D02*
X190682550Y-87800919D01*
X190682550Y-87800919D02*
X190965884Y-86800919D01*
X191249216Y-87800919D02*
X191249216Y-86800919D01*
X191249216Y-86800919D02*
X191451597Y-86800919D01*
X191451597Y-86800919D02*
X191573026Y-86848538D01*
X191573026Y-86848538D02*
X191653978Y-86943776D01*
X191653978Y-86943776D02*
X191694455Y-87039014D01*
X191694455Y-87039014D02*
X191734931Y-87229490D01*
X191734931Y-87229490D02*
X191734931Y-87372347D01*
X191734931Y-87372347D02*
X191694455Y-87562823D01*
X191694455Y-87562823D02*
X191653978Y-87658061D01*
X191653978Y-87658061D02*
X191573026Y-87753300D01*
X191573026Y-87753300D02*
X191451597Y-87800919D01*
X191451597Y-87800919D02*
X191249216Y-87800919D01*
X192099216Y-87800919D02*
X192099216Y-86800919D01*
X192099216Y-86800919D02*
X192301597Y-86800919D01*
X192301597Y-86800919D02*
X192423026Y-86848538D01*
X192423026Y-86848538D02*
X192503978Y-86943776D01*
X192503978Y-86943776D02*
X192544455Y-87039014D01*
X192544455Y-87039014D02*
X192584931Y-87229490D01*
X192584931Y-87229490D02*
X192584931Y-87372347D01*
X192584931Y-87372347D02*
X192544455Y-87562823D01*
X192544455Y-87562823D02*
X192503978Y-87658061D01*
X192503978Y-87658061D02*
X192423026Y-87753300D01*
X192423026Y-87753300D02*
X192301597Y-87800919D01*
X192301597Y-87800919D02*
X192099216Y-87800919D01*
X134278265Y-79133204D02*
X134754455Y-79133204D01*
X134183027Y-79418919D02*
X134516360Y-78418919D01*
X134516360Y-78418919D02*
X134849693Y-79418919D01*
X135183027Y-79418919D02*
X135183027Y-78418919D01*
X135659217Y-79418919D02*
X135659217Y-78418919D01*
X135659217Y-78418919D02*
X136230645Y-79418919D01*
X136230645Y-79418919D02*
X136230645Y-78418919D01*
X136706836Y-79037966D02*
X137468741Y-79037966D01*
X137087788Y-79418919D02*
X137087788Y-78657014D01*
X157805027Y-71814919D02*
X158138360Y-72814919D01*
X158138360Y-72814919D02*
X158471693Y-71814919D01*
X158805027Y-72814919D02*
X158805027Y-71814919D01*
X158805027Y-71814919D02*
X159043122Y-71814919D01*
X159043122Y-71814919D02*
X159185979Y-71862538D01*
X159185979Y-71862538D02*
X159281217Y-71957776D01*
X159281217Y-71957776D02*
X159328836Y-72053014D01*
X159328836Y-72053014D02*
X159376455Y-72243490D01*
X159376455Y-72243490D02*
X159376455Y-72386347D01*
X159376455Y-72386347D02*
X159328836Y-72576823D01*
X159328836Y-72576823D02*
X159281217Y-72672061D01*
X159281217Y-72672061D02*
X159185979Y-72767300D01*
X159185979Y-72767300D02*
X159043122Y-72814919D01*
X159043122Y-72814919D02*
X158805027Y-72814919D01*
X159805027Y-72814919D02*
X159805027Y-71814919D01*
X159805027Y-71814919D02*
X160043122Y-71814919D01*
X160043122Y-71814919D02*
X160185979Y-71862538D01*
X160185979Y-71862538D02*
X160281217Y-71957776D01*
X160281217Y-71957776D02*
X160328836Y-72053014D01*
X160328836Y-72053014D02*
X160376455Y-72243490D01*
X160376455Y-72243490D02*
X160376455Y-72386347D01*
X160376455Y-72386347D02*
X160328836Y-72576823D01*
X160328836Y-72576823D02*
X160281217Y-72672061D01*
X160281217Y-72672061D02*
X160185979Y-72767300D01*
X160185979Y-72767300D02*
X160043122Y-72814919D01*
X160043122Y-72814919D02*
X159805027Y-72814919D01*
X125292073Y-75053300D02*
X125413502Y-75100919D01*
X125413502Y-75100919D02*
X125615883Y-75100919D01*
X125615883Y-75100919D02*
X125696835Y-75053300D01*
X125696835Y-75053300D02*
X125737311Y-75005680D01*
X125737311Y-75005680D02*
X125777788Y-74910442D01*
X125777788Y-74910442D02*
X125777788Y-74815204D01*
X125777788Y-74815204D02*
X125737311Y-74719966D01*
X125737311Y-74719966D02*
X125696835Y-74672347D01*
X125696835Y-74672347D02*
X125615883Y-74624728D01*
X125615883Y-74624728D02*
X125453978Y-74577109D01*
X125453978Y-74577109D02*
X125373026Y-74529490D01*
X125373026Y-74529490D02*
X125332549Y-74481871D01*
X125332549Y-74481871D02*
X125292073Y-74386633D01*
X125292073Y-74386633D02*
X125292073Y-74291395D01*
X125292073Y-74291395D02*
X125332549Y-74196157D01*
X125332549Y-74196157D02*
X125373026Y-74148538D01*
X125373026Y-74148538D02*
X125453978Y-74100919D01*
X125453978Y-74100919D02*
X125656359Y-74100919D01*
X125656359Y-74100919D02*
X125777788Y-74148538D01*
X126142073Y-75100919D02*
X126142073Y-74100919D01*
X126142073Y-74100919D02*
X126344454Y-74100919D01*
X126344454Y-74100919D02*
X126465883Y-74148538D01*
X126465883Y-74148538D02*
X126546835Y-74243776D01*
X126546835Y-74243776D02*
X126587312Y-74339014D01*
X126587312Y-74339014D02*
X126627788Y-74529490D01*
X126627788Y-74529490D02*
X126627788Y-74672347D01*
X126627788Y-74672347D02*
X126587312Y-74862823D01*
X126587312Y-74862823D02*
X126546835Y-74958061D01*
X126546835Y-74958061D02*
X126465883Y-75053300D01*
X126465883Y-75053300D02*
X126344454Y-75100919D01*
X126344454Y-75100919D02*
X126142073Y-75100919D01*
X126992073Y-74719966D02*
X127639693Y-74719966D01*
X127315883Y-75100919D02*
X127315883Y-74339014D01*
X157617693Y-80387300D02*
X157739122Y-80434919D01*
X157739122Y-80434919D02*
X157941503Y-80434919D01*
X157941503Y-80434919D02*
X158022455Y-80387300D01*
X158022455Y-80387300D02*
X158062931Y-80339680D01*
X158062931Y-80339680D02*
X158103408Y-80244442D01*
X158103408Y-80244442D02*
X158103408Y-80149204D01*
X158103408Y-80149204D02*
X158062931Y-80053966D01*
X158062931Y-80053966D02*
X158022455Y-80006347D01*
X158022455Y-80006347D02*
X157941503Y-79958728D01*
X157941503Y-79958728D02*
X157779598Y-79911109D01*
X157779598Y-79911109D02*
X157698646Y-79863490D01*
X157698646Y-79863490D02*
X157658169Y-79815871D01*
X157658169Y-79815871D02*
X157617693Y-79720633D01*
X157617693Y-79720633D02*
X157617693Y-79625395D01*
X157617693Y-79625395D02*
X157658169Y-79530157D01*
X157658169Y-79530157D02*
X157698646Y-79482538D01*
X157698646Y-79482538D02*
X157779598Y-79434919D01*
X157779598Y-79434919D02*
X157981979Y-79434919D01*
X157981979Y-79434919D02*
X158103408Y-79482538D01*
X158953408Y-80339680D02*
X158912932Y-80387300D01*
X158912932Y-80387300D02*
X158791503Y-80434919D01*
X158791503Y-80434919D02*
X158710551Y-80434919D01*
X158710551Y-80434919D02*
X158589122Y-80387300D01*
X158589122Y-80387300D02*
X158508170Y-80292061D01*
X158508170Y-80292061D02*
X158467693Y-80196823D01*
X158467693Y-80196823D02*
X158427217Y-80006347D01*
X158427217Y-80006347D02*
X158427217Y-79863490D01*
X158427217Y-79863490D02*
X158467693Y-79673014D01*
X158467693Y-79673014D02*
X158508170Y-79577776D01*
X158508170Y-79577776D02*
X158589122Y-79482538D01*
X158589122Y-79482538D02*
X158710551Y-79434919D01*
X158710551Y-79434919D02*
X158791503Y-79434919D01*
X158791503Y-79434919D02*
X158912932Y-79482538D01*
X158912932Y-79482538D02*
X158953408Y-79530157D01*
X159317693Y-80053966D02*
X159965313Y-80053966D01*
X159641503Y-80434919D02*
X159641503Y-79673014D01*
X125137693Y-82673300D02*
X125259122Y-82720919D01*
X125259122Y-82720919D02*
X125461503Y-82720919D01*
X125461503Y-82720919D02*
X125542455Y-82673300D01*
X125542455Y-82673300D02*
X125582931Y-82625680D01*
X125582931Y-82625680D02*
X125623408Y-82530442D01*
X125623408Y-82530442D02*
X125623408Y-82435204D01*
X125623408Y-82435204D02*
X125582931Y-82339966D01*
X125582931Y-82339966D02*
X125542455Y-82292347D01*
X125542455Y-82292347D02*
X125461503Y-82244728D01*
X125461503Y-82244728D02*
X125299598Y-82197109D01*
X125299598Y-82197109D02*
X125218646Y-82149490D01*
X125218646Y-82149490D02*
X125178169Y-82101871D01*
X125178169Y-82101871D02*
X125137693Y-82006633D01*
X125137693Y-82006633D02*
X125137693Y-81911395D01*
X125137693Y-81911395D02*
X125178169Y-81816157D01*
X125178169Y-81816157D02*
X125218646Y-81768538D01*
X125218646Y-81768538D02*
X125299598Y-81720919D01*
X125299598Y-81720919D02*
X125501979Y-81720919D01*
X125501979Y-81720919D02*
X125623408Y-81768538D01*
X126473408Y-82625680D02*
X126432932Y-82673300D01*
X126432932Y-82673300D02*
X126311503Y-82720919D01*
X126311503Y-82720919D02*
X126230551Y-82720919D01*
X126230551Y-82720919D02*
X126109122Y-82673300D01*
X126109122Y-82673300D02*
X126028170Y-82578061D01*
X126028170Y-82578061D02*
X125987693Y-82482823D01*
X125987693Y-82482823D02*
X125947217Y-82292347D01*
X125947217Y-82292347D02*
X125947217Y-82149490D01*
X125947217Y-82149490D02*
X125987693Y-81959014D01*
X125987693Y-81959014D02*
X126028170Y-81863776D01*
X126028170Y-81863776D02*
X126109122Y-81768538D01*
X126109122Y-81768538D02*
X126230551Y-81720919D01*
X126230551Y-81720919D02*
X126311503Y-81720919D01*
X126311503Y-81720919D02*
X126432932Y-81768538D01*
X126432932Y-81768538D02*
X126473408Y-81816157D01*
X126837693Y-82339966D02*
X127485313Y-82339966D01*
X101798265Y-86753204D02*
X102274455Y-86753204D01*
X101703027Y-87038919D02*
X102036360Y-86038919D01*
X102036360Y-86038919D02*
X102369693Y-87038919D01*
X102703027Y-87038919D02*
X102703027Y-86038919D01*
X103179217Y-87038919D02*
X103179217Y-86038919D01*
X103179217Y-86038919D02*
X103750645Y-87038919D01*
X103750645Y-87038919D02*
X103750645Y-86038919D01*
X104226836Y-86657966D02*
X104988741Y-86657966D01*
X157871693Y-41049300D02*
X157993122Y-41096919D01*
X157993122Y-41096919D02*
X158195503Y-41096919D01*
X158195503Y-41096919D02*
X158276455Y-41049300D01*
X158276455Y-41049300D02*
X158316931Y-41001680D01*
X158316931Y-41001680D02*
X158357408Y-40906442D01*
X158357408Y-40906442D02*
X158357408Y-40811204D01*
X158357408Y-40811204D02*
X158316931Y-40715966D01*
X158316931Y-40715966D02*
X158276455Y-40668347D01*
X158276455Y-40668347D02*
X158195503Y-40620728D01*
X158195503Y-40620728D02*
X158033598Y-40573109D01*
X158033598Y-40573109D02*
X157952646Y-40525490D01*
X157952646Y-40525490D02*
X157912169Y-40477871D01*
X157912169Y-40477871D02*
X157871693Y-40382633D01*
X157871693Y-40382633D02*
X157871693Y-40287395D01*
X157871693Y-40287395D02*
X157912169Y-40192157D01*
X157912169Y-40192157D02*
X157952646Y-40144538D01*
X157952646Y-40144538D02*
X158033598Y-40096919D01*
X158033598Y-40096919D02*
X158235979Y-40096919D01*
X158235979Y-40096919D02*
X158357408Y-40144538D01*
X158721693Y-41096919D02*
X158721693Y-40096919D01*
X158721693Y-40096919D02*
X158924074Y-40096919D01*
X158924074Y-40096919D02*
X159045503Y-40144538D01*
X159045503Y-40144538D02*
X159126455Y-40239776D01*
X159126455Y-40239776D02*
X159166932Y-40335014D01*
X159166932Y-40335014D02*
X159207408Y-40525490D01*
X159207408Y-40525490D02*
X159207408Y-40668347D01*
X159207408Y-40668347D02*
X159166932Y-40858823D01*
X159166932Y-40858823D02*
X159126455Y-40954061D01*
X159126455Y-40954061D02*
X159045503Y-41049300D01*
X159045503Y-41049300D02*
X158924074Y-41096919D01*
X158924074Y-41096919D02*
X158721693Y-41096919D01*
X159571693Y-40715966D02*
X160219313Y-40715966D01*
X190097693Y-43843300D02*
X190219122Y-43890919D01*
X190219122Y-43890919D02*
X190421503Y-43890919D01*
X190421503Y-43890919D02*
X190502455Y-43843300D01*
X190502455Y-43843300D02*
X190542931Y-43795680D01*
X190542931Y-43795680D02*
X190583408Y-43700442D01*
X190583408Y-43700442D02*
X190583408Y-43605204D01*
X190583408Y-43605204D02*
X190542931Y-43509966D01*
X190542931Y-43509966D02*
X190502455Y-43462347D01*
X190502455Y-43462347D02*
X190421503Y-43414728D01*
X190421503Y-43414728D02*
X190259598Y-43367109D01*
X190259598Y-43367109D02*
X190178646Y-43319490D01*
X190178646Y-43319490D02*
X190138169Y-43271871D01*
X190138169Y-43271871D02*
X190097693Y-43176633D01*
X190097693Y-43176633D02*
X190097693Y-43081395D01*
X190097693Y-43081395D02*
X190138169Y-42986157D01*
X190138169Y-42986157D02*
X190178646Y-42938538D01*
X190178646Y-42938538D02*
X190259598Y-42890919D01*
X190259598Y-42890919D02*
X190461979Y-42890919D01*
X190461979Y-42890919D02*
X190583408Y-42938538D01*
X191433408Y-43795680D02*
X191392932Y-43843300D01*
X191392932Y-43843300D02*
X191271503Y-43890919D01*
X191271503Y-43890919D02*
X191190551Y-43890919D01*
X191190551Y-43890919D02*
X191069122Y-43843300D01*
X191069122Y-43843300D02*
X190988170Y-43748061D01*
X190988170Y-43748061D02*
X190947693Y-43652823D01*
X190947693Y-43652823D02*
X190907217Y-43462347D01*
X190907217Y-43462347D02*
X190907217Y-43319490D01*
X190907217Y-43319490D02*
X190947693Y-43129014D01*
X190947693Y-43129014D02*
X190988170Y-43033776D01*
X190988170Y-43033776D02*
X191069122Y-42938538D01*
X191069122Y-42938538D02*
X191190551Y-42890919D01*
X191190551Y-42890919D02*
X191271503Y-42890919D01*
X191271503Y-42890919D02*
X191392932Y-42938538D01*
X191392932Y-42938538D02*
X191433408Y-42986157D01*
X191797693Y-43509966D02*
X192445313Y-43509966D01*
X192121503Y-43890919D02*
X192121503Y-43129014D01*
X157772073Y-75053300D02*
X157893502Y-75100919D01*
X157893502Y-75100919D02*
X158095883Y-75100919D01*
X158095883Y-75100919D02*
X158176835Y-75053300D01*
X158176835Y-75053300D02*
X158217311Y-75005680D01*
X158217311Y-75005680D02*
X158257788Y-74910442D01*
X158257788Y-74910442D02*
X158257788Y-74815204D01*
X158257788Y-74815204D02*
X158217311Y-74719966D01*
X158217311Y-74719966D02*
X158176835Y-74672347D01*
X158176835Y-74672347D02*
X158095883Y-74624728D01*
X158095883Y-74624728D02*
X157933978Y-74577109D01*
X157933978Y-74577109D02*
X157853026Y-74529490D01*
X157853026Y-74529490D02*
X157812549Y-74481871D01*
X157812549Y-74481871D02*
X157772073Y-74386633D01*
X157772073Y-74386633D02*
X157772073Y-74291395D01*
X157772073Y-74291395D02*
X157812549Y-74196157D01*
X157812549Y-74196157D02*
X157853026Y-74148538D01*
X157853026Y-74148538D02*
X157933978Y-74100919D01*
X157933978Y-74100919D02*
X158136359Y-74100919D01*
X158136359Y-74100919D02*
X158257788Y-74148538D01*
X158622073Y-75100919D02*
X158622073Y-74100919D01*
X158622073Y-74100919D02*
X158824454Y-74100919D01*
X158824454Y-74100919D02*
X158945883Y-74148538D01*
X158945883Y-74148538D02*
X159026835Y-74243776D01*
X159026835Y-74243776D02*
X159067312Y-74339014D01*
X159067312Y-74339014D02*
X159107788Y-74529490D01*
X159107788Y-74529490D02*
X159107788Y-74672347D01*
X159107788Y-74672347D02*
X159067312Y-74862823D01*
X159067312Y-74862823D02*
X159026835Y-74958061D01*
X159026835Y-74958061D02*
X158945883Y-75053300D01*
X158945883Y-75053300D02*
X158824454Y-75100919D01*
X158824454Y-75100919D02*
X158622073Y-75100919D01*
X159472073Y-74719966D02*
X160119693Y-74719966D01*
X159795883Y-75100919D02*
X159795883Y-74339014D01*
X190285027Y-71814919D02*
X190618360Y-72814919D01*
X190618360Y-72814919D02*
X190951693Y-71814919D01*
X191285027Y-72814919D02*
X191285027Y-71814919D01*
X191285027Y-71814919D02*
X191523122Y-71814919D01*
X191523122Y-71814919D02*
X191665979Y-71862538D01*
X191665979Y-71862538D02*
X191761217Y-71957776D01*
X191761217Y-71957776D02*
X191808836Y-72053014D01*
X191808836Y-72053014D02*
X191856455Y-72243490D01*
X191856455Y-72243490D02*
X191856455Y-72386347D01*
X191856455Y-72386347D02*
X191808836Y-72576823D01*
X191808836Y-72576823D02*
X191761217Y-72672061D01*
X191761217Y-72672061D02*
X191665979Y-72767300D01*
X191665979Y-72767300D02*
X191523122Y-72814919D01*
X191523122Y-72814919D02*
X191285027Y-72814919D01*
X192285027Y-72814919D02*
X192285027Y-71814919D01*
X192285027Y-71814919D02*
X192523122Y-71814919D01*
X192523122Y-71814919D02*
X192665979Y-71862538D01*
X192665979Y-71862538D02*
X192761217Y-71957776D01*
X192761217Y-71957776D02*
X192808836Y-72053014D01*
X192808836Y-72053014D02*
X192856455Y-72243490D01*
X192856455Y-72243490D02*
X192856455Y-72386347D01*
X192856455Y-72386347D02*
X192808836Y-72576823D01*
X192808836Y-72576823D02*
X192761217Y-72672061D01*
X192761217Y-72672061D02*
X192665979Y-72767300D01*
X192665979Y-72767300D02*
X192523122Y-72814919D01*
X192523122Y-72814919D02*
X192285027Y-72814919D01*
X125877408Y-53098538D02*
X125796455Y-53050919D01*
X125796455Y-53050919D02*
X125675027Y-53050919D01*
X125675027Y-53050919D02*
X125553598Y-53098538D01*
X125553598Y-53098538D02*
X125472646Y-53193776D01*
X125472646Y-53193776D02*
X125432169Y-53289014D01*
X125432169Y-53289014D02*
X125391693Y-53479490D01*
X125391693Y-53479490D02*
X125391693Y-53622347D01*
X125391693Y-53622347D02*
X125432169Y-53812823D01*
X125432169Y-53812823D02*
X125472646Y-53908061D01*
X125472646Y-53908061D02*
X125553598Y-54003300D01*
X125553598Y-54003300D02*
X125675027Y-54050919D01*
X125675027Y-54050919D02*
X125755979Y-54050919D01*
X125755979Y-54050919D02*
X125877408Y-54003300D01*
X125877408Y-54003300D02*
X125917884Y-53955680D01*
X125917884Y-53955680D02*
X125917884Y-53622347D01*
X125917884Y-53622347D02*
X125755979Y-53622347D01*
X126282169Y-54050919D02*
X126282169Y-53050919D01*
X126282169Y-53050919D02*
X126767884Y-54050919D01*
X126767884Y-54050919D02*
X126767884Y-53050919D01*
X127172645Y-54050919D02*
X127172645Y-53050919D01*
X127172645Y-53050919D02*
X127375026Y-53050919D01*
X127375026Y-53050919D02*
X127496455Y-53098538D01*
X127496455Y-53098538D02*
X127577407Y-53193776D01*
X127577407Y-53193776D02*
X127617884Y-53289014D01*
X127617884Y-53289014D02*
X127658360Y-53479490D01*
X127658360Y-53479490D02*
X127658360Y-53622347D01*
X127658360Y-53622347D02*
X127617884Y-53812823D01*
X127617884Y-53812823D02*
X127577407Y-53908061D01*
X127577407Y-53908061D02*
X127496455Y-54003300D01*
X127496455Y-54003300D02*
X127375026Y-54050919D01*
X127375026Y-54050919D02*
X127172645Y-54050919D01*
X101798265Y-50209204D02*
X102274455Y-50209204D01*
X101703027Y-50494919D02*
X102036360Y-49494919D01*
X102036360Y-49494919D02*
X102369693Y-50494919D01*
X102703027Y-50494919D02*
X102703027Y-49494919D01*
X103179217Y-50494919D02*
X103179217Y-49494919D01*
X103179217Y-49494919D02*
X103750645Y-50494919D01*
X103750645Y-50494919D02*
X103750645Y-49494919D01*
X104226836Y-50113966D02*
X104988741Y-50113966D01*
X158357408Y-89642538D02*
X158276455Y-89594919D01*
X158276455Y-89594919D02*
X158155027Y-89594919D01*
X158155027Y-89594919D02*
X158033598Y-89642538D01*
X158033598Y-89642538D02*
X157952646Y-89737776D01*
X157952646Y-89737776D02*
X157912169Y-89833014D01*
X157912169Y-89833014D02*
X157871693Y-90023490D01*
X157871693Y-90023490D02*
X157871693Y-90166347D01*
X157871693Y-90166347D02*
X157912169Y-90356823D01*
X157912169Y-90356823D02*
X157952646Y-90452061D01*
X157952646Y-90452061D02*
X158033598Y-90547300D01*
X158033598Y-90547300D02*
X158155027Y-90594919D01*
X158155027Y-90594919D02*
X158235979Y-90594919D01*
X158235979Y-90594919D02*
X158357408Y-90547300D01*
X158357408Y-90547300D02*
X158397884Y-90499680D01*
X158397884Y-90499680D02*
X158397884Y-90166347D01*
X158397884Y-90166347D02*
X158235979Y-90166347D01*
X158762169Y-90594919D02*
X158762169Y-89594919D01*
X158762169Y-89594919D02*
X159247884Y-90594919D01*
X159247884Y-90594919D02*
X159247884Y-89594919D01*
X159652645Y-90594919D02*
X159652645Y-89594919D01*
X159652645Y-89594919D02*
X159855026Y-89594919D01*
X159855026Y-89594919D02*
X159976455Y-89642538D01*
X159976455Y-89642538D02*
X160057407Y-89737776D01*
X160057407Y-89737776D02*
X160097884Y-89833014D01*
X160097884Y-89833014D02*
X160138360Y-90023490D01*
X160138360Y-90023490D02*
X160138360Y-90166347D01*
X160138360Y-90166347D02*
X160097884Y-90356823D01*
X160097884Y-90356823D02*
X160057407Y-90452061D01*
X160057407Y-90452061D02*
X159976455Y-90547300D01*
X159976455Y-90547300D02*
X159855026Y-90594919D01*
X159855026Y-90594919D02*
X159652645Y-90594919D01*
X157772073Y-38509300D02*
X157893502Y-38556919D01*
X157893502Y-38556919D02*
X158095883Y-38556919D01*
X158095883Y-38556919D02*
X158176835Y-38509300D01*
X158176835Y-38509300D02*
X158217311Y-38461680D01*
X158217311Y-38461680D02*
X158257788Y-38366442D01*
X158257788Y-38366442D02*
X158257788Y-38271204D01*
X158257788Y-38271204D02*
X158217311Y-38175966D01*
X158217311Y-38175966D02*
X158176835Y-38128347D01*
X158176835Y-38128347D02*
X158095883Y-38080728D01*
X158095883Y-38080728D02*
X157933978Y-38033109D01*
X157933978Y-38033109D02*
X157853026Y-37985490D01*
X157853026Y-37985490D02*
X157812549Y-37937871D01*
X157812549Y-37937871D02*
X157772073Y-37842633D01*
X157772073Y-37842633D02*
X157772073Y-37747395D01*
X157772073Y-37747395D02*
X157812549Y-37652157D01*
X157812549Y-37652157D02*
X157853026Y-37604538D01*
X157853026Y-37604538D02*
X157933978Y-37556919D01*
X157933978Y-37556919D02*
X158136359Y-37556919D01*
X158136359Y-37556919D02*
X158257788Y-37604538D01*
X158622073Y-38556919D02*
X158622073Y-37556919D01*
X158622073Y-37556919D02*
X158824454Y-37556919D01*
X158824454Y-37556919D02*
X158945883Y-37604538D01*
X158945883Y-37604538D02*
X159026835Y-37699776D01*
X159026835Y-37699776D02*
X159067312Y-37795014D01*
X159067312Y-37795014D02*
X159107788Y-37985490D01*
X159107788Y-37985490D02*
X159107788Y-38128347D01*
X159107788Y-38128347D02*
X159067312Y-38318823D01*
X159067312Y-38318823D02*
X159026835Y-38414061D01*
X159026835Y-38414061D02*
X158945883Y-38509300D01*
X158945883Y-38509300D02*
X158824454Y-38556919D01*
X158824454Y-38556919D02*
X158622073Y-38556919D01*
X159472073Y-38175966D02*
X160119693Y-38175966D01*
X159795883Y-38556919D02*
X159795883Y-37795014D01*
X166758265Y-79133204D02*
X167234455Y-79133204D01*
X166663027Y-79418919D02*
X166996360Y-78418919D01*
X166996360Y-78418919D02*
X167329693Y-79418919D01*
X167663027Y-79418919D02*
X167663027Y-78418919D01*
X168139217Y-79418919D02*
X168139217Y-78418919D01*
X168139217Y-78418919D02*
X168710645Y-79418919D01*
X168710645Y-79418919D02*
X168710645Y-78418919D01*
X169186836Y-79037966D02*
X169948741Y-79037966D01*
X169567788Y-79418919D02*
X169567788Y-78657014D01*
X101798265Y-79133204D02*
X102274455Y-79133204D01*
X101703027Y-79418919D02*
X102036360Y-78418919D01*
X102036360Y-78418919D02*
X102369693Y-79418919D01*
X102703027Y-79418919D02*
X102703027Y-78418919D01*
X103179217Y-79418919D02*
X103179217Y-78418919D01*
X103179217Y-78418919D02*
X103750645Y-79418919D01*
X103750645Y-79418919D02*
X103750645Y-78418919D01*
X104226836Y-79037966D02*
X104988741Y-79037966D01*
X104607788Y-79418919D02*
X104607788Y-78657014D01*
D11*
X175751580Y-49519166D02*
X175799200Y-49566785D01*
X175799200Y-49566785D02*
X175846819Y-49709642D01*
X175846819Y-49709642D02*
X175846819Y-49804880D01*
X175846819Y-49804880D02*
X175799200Y-49947737D01*
X175799200Y-49947737D02*
X175703961Y-50042975D01*
X175703961Y-50042975D02*
X175608723Y-50090594D01*
X175608723Y-50090594D02*
X175418247Y-50138213D01*
X175418247Y-50138213D02*
X175275390Y-50138213D01*
X175275390Y-50138213D02*
X175084914Y-50090594D01*
X175084914Y-50090594D02*
X174989676Y-50042975D01*
X174989676Y-50042975D02*
X174894438Y-49947737D01*
X174894438Y-49947737D02*
X174846819Y-49804880D01*
X174846819Y-49804880D02*
X174846819Y-49709642D01*
X174846819Y-49709642D02*
X174894438Y-49566785D01*
X174894438Y-49566785D02*
X174942057Y-49519166D01*
X175846819Y-48566785D02*
X175846819Y-49138213D01*
X175846819Y-48852499D02*
X174846819Y-48852499D01*
X174846819Y-48852499D02*
X174989676Y-48947737D01*
X174989676Y-48947737D02*
X175084914Y-49042975D01*
X175084914Y-49042975D02*
X175132533Y-49138213D01*
X147746095Y-78353319D02*
X147746095Y-79162842D01*
X147746095Y-79162842D02*
X147793714Y-79258080D01*
X147793714Y-79258080D02*
X147841333Y-79305700D01*
X147841333Y-79305700D02*
X147936571Y-79353319D01*
X147936571Y-79353319D02*
X148127047Y-79353319D01*
X148127047Y-79353319D02*
X148222285Y-79305700D01*
X148222285Y-79305700D02*
X148269904Y-79258080D01*
X148269904Y-79258080D02*
X148317523Y-79162842D01*
X148317523Y-79162842D02*
X148317523Y-78353319D01*
X149317523Y-79353319D02*
X148746095Y-79353319D01*
X149031809Y-79353319D02*
X149031809Y-78353319D01*
X149031809Y-78353319D02*
X148936571Y-78496176D01*
X148936571Y-78496176D02*
X148841333Y-78591414D01*
X148841333Y-78591414D02*
X148746095Y-78639033D01*
X144541580Y-75395166D02*
X144589200Y-75442785D01*
X144589200Y-75442785D02*
X144636819Y-75585642D01*
X144636819Y-75585642D02*
X144636819Y-75680880D01*
X144636819Y-75680880D02*
X144589200Y-75823737D01*
X144589200Y-75823737D02*
X144493961Y-75918975D01*
X144493961Y-75918975D02*
X144398723Y-75966594D01*
X144398723Y-75966594D02*
X144208247Y-76014213D01*
X144208247Y-76014213D02*
X144065390Y-76014213D01*
X144065390Y-76014213D02*
X143874914Y-75966594D01*
X143874914Y-75966594D02*
X143779676Y-75918975D01*
X143779676Y-75918975D02*
X143684438Y-75823737D01*
X143684438Y-75823737D02*
X143636819Y-75680880D01*
X143636819Y-75680880D02*
X143636819Y-75585642D01*
X143636819Y-75585642D02*
X143684438Y-75442785D01*
X143684438Y-75442785D02*
X143732057Y-75395166D01*
X143636819Y-74490404D02*
X143636819Y-74966594D01*
X143636819Y-74966594D02*
X144113009Y-75014213D01*
X144113009Y-75014213D02*
X144065390Y-74966594D01*
X144065390Y-74966594D02*
X144017771Y-74871356D01*
X144017771Y-74871356D02*
X144017771Y-74633261D01*
X144017771Y-74633261D02*
X144065390Y-74538023D01*
X144065390Y-74538023D02*
X144113009Y-74490404D01*
X144113009Y-74490404D02*
X144208247Y-74442785D01*
X144208247Y-74442785D02*
X144446342Y-74442785D01*
X144446342Y-74442785D02*
X144541580Y-74490404D01*
X144541580Y-74490404D02*
X144589200Y-74538023D01*
X144589200Y-74538023D02*
X144636819Y-74633261D01*
X144636819Y-74633261D02*
X144636819Y-74871356D01*
X144636819Y-74871356D02*
X144589200Y-74966594D01*
X144589200Y-74966594D02*
X144541580Y-75014213D01*
X161374666Y-32761319D02*
X161374666Y-33475604D01*
X161374666Y-33475604D02*
X161327047Y-33618461D01*
X161327047Y-33618461D02*
X161231809Y-33713700D01*
X161231809Y-33713700D02*
X161088952Y-33761319D01*
X161088952Y-33761319D02*
X160993714Y-33761319D01*
X162374666Y-33761319D02*
X161803238Y-33761319D01*
X162088952Y-33761319D02*
X162088952Y-32761319D01*
X162088952Y-32761319D02*
X161993714Y-32904176D01*
X161993714Y-32904176D02*
X161898476Y-32999414D01*
X161898476Y-32999414D02*
X161803238Y-33047033D01*
X144541580Y-38851166D02*
X144589200Y-38898785D01*
X144589200Y-38898785D02*
X144636819Y-39041642D01*
X144636819Y-39041642D02*
X144636819Y-39136880D01*
X144636819Y-39136880D02*
X144589200Y-39279737D01*
X144589200Y-39279737D02*
X144493961Y-39374975D01*
X144493961Y-39374975D02*
X144398723Y-39422594D01*
X144398723Y-39422594D02*
X144208247Y-39470213D01*
X144208247Y-39470213D02*
X144065390Y-39470213D01*
X144065390Y-39470213D02*
X143874914Y-39422594D01*
X143874914Y-39422594D02*
X143779676Y-39374975D01*
X143779676Y-39374975D02*
X143684438Y-39279737D01*
X143684438Y-39279737D02*
X143636819Y-39136880D01*
X143636819Y-39136880D02*
X143636819Y-39041642D01*
X143636819Y-39041642D02*
X143684438Y-38898785D01*
X143684438Y-38898785D02*
X143732057Y-38851166D01*
X143636819Y-37946404D02*
X143636819Y-38422594D01*
X143636819Y-38422594D02*
X144113009Y-38470213D01*
X144113009Y-38470213D02*
X144065390Y-38422594D01*
X144065390Y-38422594D02*
X144017771Y-38327356D01*
X144017771Y-38327356D02*
X144017771Y-38089261D01*
X144017771Y-38089261D02*
X144065390Y-37994023D01*
X144065390Y-37994023D02*
X144113009Y-37946404D01*
X144113009Y-37946404D02*
X144208247Y-37898785D01*
X144208247Y-37898785D02*
X144446342Y-37898785D01*
X144446342Y-37898785D02*
X144541580Y-37946404D01*
X144541580Y-37946404D02*
X144589200Y-37994023D01*
X144589200Y-37994023D02*
X144636819Y-38089261D01*
X144636819Y-38089261D02*
X144636819Y-38327356D01*
X144636819Y-38327356D02*
X144589200Y-38422594D01*
X144589200Y-38422594D02*
X144541580Y-38470213D01*
X121627713Y-79988080D02*
X121580094Y-80035700D01*
X121580094Y-80035700D02*
X121437237Y-80083319D01*
X121437237Y-80083319D02*
X121341999Y-80083319D01*
X121341999Y-80083319D02*
X121199142Y-80035700D01*
X121199142Y-80035700D02*
X121103904Y-79940461D01*
X121103904Y-79940461D02*
X121056285Y-79845223D01*
X121056285Y-79845223D02*
X121008666Y-79654747D01*
X121008666Y-79654747D02*
X121008666Y-79511890D01*
X121008666Y-79511890D02*
X121056285Y-79321414D01*
X121056285Y-79321414D02*
X121103904Y-79226176D01*
X121103904Y-79226176D02*
X121199142Y-79130938D01*
X121199142Y-79130938D02*
X121341999Y-79083319D01*
X121341999Y-79083319D02*
X121437237Y-79083319D01*
X121437237Y-79083319D02*
X121580094Y-79130938D01*
X121580094Y-79130938D02*
X121627713Y-79178557D01*
X121961047Y-79083319D02*
X122627713Y-79083319D01*
X122627713Y-79083319D02*
X122199142Y-80083319D01*
X120879580Y-84793166D02*
X120927200Y-84840785D01*
X120927200Y-84840785D02*
X120974819Y-84983642D01*
X120974819Y-84983642D02*
X120974819Y-85078880D01*
X120974819Y-85078880D02*
X120927200Y-85221737D01*
X120927200Y-85221737D02*
X120831961Y-85316975D01*
X120831961Y-85316975D02*
X120736723Y-85364594D01*
X120736723Y-85364594D02*
X120546247Y-85412213D01*
X120546247Y-85412213D02*
X120403390Y-85412213D01*
X120403390Y-85412213D02*
X120212914Y-85364594D01*
X120212914Y-85364594D02*
X120117676Y-85316975D01*
X120117676Y-85316975D02*
X120022438Y-85221737D01*
X120022438Y-85221737D02*
X119974819Y-85078880D01*
X119974819Y-85078880D02*
X119974819Y-84983642D01*
X119974819Y-84983642D02*
X120022438Y-84840785D01*
X120022438Y-84840785D02*
X120070057Y-84793166D01*
X119974819Y-84459832D02*
X119974819Y-83840785D01*
X119974819Y-83840785D02*
X120355771Y-84174118D01*
X120355771Y-84174118D02*
X120355771Y-84031261D01*
X120355771Y-84031261D02*
X120403390Y-83936023D01*
X120403390Y-83936023D02*
X120451009Y-83888404D01*
X120451009Y-83888404D02*
X120546247Y-83840785D01*
X120546247Y-83840785D02*
X120784342Y-83840785D01*
X120784342Y-83840785D02*
X120879580Y-83888404D01*
X120879580Y-83888404D02*
X120927200Y-83936023D01*
X120927200Y-83936023D02*
X120974819Y-84031261D01*
X120974819Y-84031261D02*
X120974819Y-84316975D01*
X120974819Y-84316975D02*
X120927200Y-84412213D01*
X120927200Y-84412213D02*
X120879580Y-84459832D01*
X153359580Y-48249166D02*
X153407200Y-48296785D01*
X153407200Y-48296785D02*
X153454819Y-48439642D01*
X153454819Y-48439642D02*
X153454819Y-48534880D01*
X153454819Y-48534880D02*
X153407200Y-48677737D01*
X153407200Y-48677737D02*
X153311961Y-48772975D01*
X153311961Y-48772975D02*
X153216723Y-48820594D01*
X153216723Y-48820594D02*
X153026247Y-48868213D01*
X153026247Y-48868213D02*
X152883390Y-48868213D01*
X152883390Y-48868213D02*
X152692914Y-48820594D01*
X152692914Y-48820594D02*
X152597676Y-48772975D01*
X152597676Y-48772975D02*
X152502438Y-48677737D01*
X152502438Y-48677737D02*
X152454819Y-48534880D01*
X152454819Y-48534880D02*
X152454819Y-48439642D01*
X152454819Y-48439642D02*
X152502438Y-48296785D01*
X152502438Y-48296785D02*
X152550057Y-48249166D01*
X152454819Y-47915832D02*
X152454819Y-47296785D01*
X152454819Y-47296785D02*
X152835771Y-47630118D01*
X152835771Y-47630118D02*
X152835771Y-47487261D01*
X152835771Y-47487261D02*
X152883390Y-47392023D01*
X152883390Y-47392023D02*
X152931009Y-47344404D01*
X152931009Y-47344404D02*
X153026247Y-47296785D01*
X153026247Y-47296785D02*
X153264342Y-47296785D01*
X153264342Y-47296785D02*
X153359580Y-47344404D01*
X153359580Y-47344404D02*
X153407200Y-47392023D01*
X153407200Y-47392023D02*
X153454819Y-47487261D01*
X153454819Y-47487261D02*
X153454819Y-47772975D01*
X153454819Y-47772975D02*
X153407200Y-47868213D01*
X153407200Y-47868213D02*
X153359580Y-47915832D01*
X180226095Y-78353319D02*
X180226095Y-79162842D01*
X180226095Y-79162842D02*
X180273714Y-79258080D01*
X180273714Y-79258080D02*
X180321333Y-79305700D01*
X180321333Y-79305700D02*
X180416571Y-79353319D01*
X180416571Y-79353319D02*
X180607047Y-79353319D01*
X180607047Y-79353319D02*
X180702285Y-79305700D01*
X180702285Y-79305700D02*
X180749904Y-79258080D01*
X180749904Y-79258080D02*
X180797523Y-79162842D01*
X180797523Y-79162842D02*
X180797523Y-78353319D01*
X181797523Y-79353319D02*
X181226095Y-79353319D01*
X181511809Y-79353319D02*
X181511809Y-78353319D01*
X181511809Y-78353319D02*
X181416571Y-78496176D01*
X181416571Y-78496176D02*
X181321333Y-78591414D01*
X181321333Y-78591414D02*
X181226095Y-78639033D01*
X180577580Y-75395166D02*
X180625200Y-75442785D01*
X180625200Y-75442785D02*
X180672819Y-75585642D01*
X180672819Y-75585642D02*
X180672819Y-75680880D01*
X180672819Y-75680880D02*
X180625200Y-75823737D01*
X180625200Y-75823737D02*
X180529961Y-75918975D01*
X180529961Y-75918975D02*
X180434723Y-75966594D01*
X180434723Y-75966594D02*
X180244247Y-76014213D01*
X180244247Y-76014213D02*
X180101390Y-76014213D01*
X180101390Y-76014213D02*
X179910914Y-75966594D01*
X179910914Y-75966594D02*
X179815676Y-75918975D01*
X179815676Y-75918975D02*
X179720438Y-75823737D01*
X179720438Y-75823737D02*
X179672819Y-75680880D01*
X179672819Y-75680880D02*
X179672819Y-75585642D01*
X179672819Y-75585642D02*
X179720438Y-75442785D01*
X179720438Y-75442785D02*
X179768057Y-75395166D01*
X180006152Y-74538023D02*
X180672819Y-74538023D01*
X179625200Y-74776118D02*
X180339485Y-75014213D01*
X180339485Y-75014213D02*
X180339485Y-74395166D01*
X128894666Y-32761319D02*
X128894666Y-33475604D01*
X128894666Y-33475604D02*
X128847047Y-33618461D01*
X128847047Y-33618461D02*
X128751809Y-33713700D01*
X128751809Y-33713700D02*
X128608952Y-33761319D01*
X128608952Y-33761319D02*
X128513714Y-33761319D01*
X129894666Y-33761319D02*
X129323238Y-33761319D01*
X129608952Y-33761319D02*
X129608952Y-32761319D01*
X129608952Y-32761319D02*
X129513714Y-32904176D01*
X129513714Y-32904176D02*
X129418476Y-32999414D01*
X129418476Y-32999414D02*
X129323238Y-33047033D01*
X186587713Y-79988080D02*
X186540094Y-80035700D01*
X186540094Y-80035700D02*
X186397237Y-80083319D01*
X186397237Y-80083319D02*
X186301999Y-80083319D01*
X186301999Y-80083319D02*
X186159142Y-80035700D01*
X186159142Y-80035700D02*
X186063904Y-79940461D01*
X186063904Y-79940461D02*
X186016285Y-79845223D01*
X186016285Y-79845223D02*
X185968666Y-79654747D01*
X185968666Y-79654747D02*
X185968666Y-79511890D01*
X185968666Y-79511890D02*
X186016285Y-79321414D01*
X186016285Y-79321414D02*
X186063904Y-79226176D01*
X186063904Y-79226176D02*
X186159142Y-79130938D01*
X186159142Y-79130938D02*
X186301999Y-79083319D01*
X186301999Y-79083319D02*
X186397237Y-79083319D01*
X186397237Y-79083319D02*
X186540094Y-79130938D01*
X186540094Y-79130938D02*
X186587713Y-79178557D01*
X186921047Y-79083319D02*
X187587713Y-79083319D01*
X187587713Y-79083319D02*
X187159142Y-80083319D01*
X180577580Y-38851166D02*
X180625200Y-38898785D01*
X180625200Y-38898785D02*
X180672819Y-39041642D01*
X180672819Y-39041642D02*
X180672819Y-39136880D01*
X180672819Y-39136880D02*
X180625200Y-39279737D01*
X180625200Y-39279737D02*
X180529961Y-39374975D01*
X180529961Y-39374975D02*
X180434723Y-39422594D01*
X180434723Y-39422594D02*
X180244247Y-39470213D01*
X180244247Y-39470213D02*
X180101390Y-39470213D01*
X180101390Y-39470213D02*
X179910914Y-39422594D01*
X179910914Y-39422594D02*
X179815676Y-39374975D01*
X179815676Y-39374975D02*
X179720438Y-39279737D01*
X179720438Y-39279737D02*
X179672819Y-39136880D01*
X179672819Y-39136880D02*
X179672819Y-39041642D01*
X179672819Y-39041642D02*
X179720438Y-38898785D01*
X179720438Y-38898785D02*
X179768057Y-38851166D01*
X180006152Y-37994023D02*
X180672819Y-37994023D01*
X179625200Y-38232118D02*
X180339485Y-38470213D01*
X180339485Y-38470213D02*
X180339485Y-37851166D01*
X143271580Y-86063166D02*
X143319200Y-86110785D01*
X143319200Y-86110785D02*
X143366819Y-86253642D01*
X143366819Y-86253642D02*
X143366819Y-86348880D01*
X143366819Y-86348880D02*
X143319200Y-86491737D01*
X143319200Y-86491737D02*
X143223961Y-86586975D01*
X143223961Y-86586975D02*
X143128723Y-86634594D01*
X143128723Y-86634594D02*
X142938247Y-86682213D01*
X142938247Y-86682213D02*
X142795390Y-86682213D01*
X142795390Y-86682213D02*
X142604914Y-86634594D01*
X142604914Y-86634594D02*
X142509676Y-86586975D01*
X142509676Y-86586975D02*
X142414438Y-86491737D01*
X142414438Y-86491737D02*
X142366819Y-86348880D01*
X142366819Y-86348880D02*
X142366819Y-86253642D01*
X142366819Y-86253642D02*
X142414438Y-86110785D01*
X142414438Y-86110785D02*
X142462057Y-86063166D01*
X143366819Y-85110785D02*
X143366819Y-85682213D01*
X143366819Y-85396499D02*
X142366819Y-85396499D01*
X142366819Y-85396499D02*
X142509676Y-85491737D01*
X142509676Y-85491737D02*
X142604914Y-85586975D01*
X142604914Y-85586975D02*
X142652533Y-85682213D01*
X115617580Y-75395166D02*
X115665200Y-75442785D01*
X115665200Y-75442785D02*
X115712819Y-75585642D01*
X115712819Y-75585642D02*
X115712819Y-75680880D01*
X115712819Y-75680880D02*
X115665200Y-75823737D01*
X115665200Y-75823737D02*
X115569961Y-75918975D01*
X115569961Y-75918975D02*
X115474723Y-75966594D01*
X115474723Y-75966594D02*
X115284247Y-76014213D01*
X115284247Y-76014213D02*
X115141390Y-76014213D01*
X115141390Y-76014213D02*
X114950914Y-75966594D01*
X114950914Y-75966594D02*
X114855676Y-75918975D01*
X114855676Y-75918975D02*
X114760438Y-75823737D01*
X114760438Y-75823737D02*
X114712819Y-75680880D01*
X114712819Y-75680880D02*
X114712819Y-75585642D01*
X114712819Y-75585642D02*
X114760438Y-75442785D01*
X114760438Y-75442785D02*
X114808057Y-75395166D01*
X115046152Y-74538023D02*
X115712819Y-74538023D01*
X114665200Y-74776118D02*
X115379485Y-75014213D01*
X115379485Y-75014213D02*
X115379485Y-74395166D01*
X106725333Y-80255319D02*
X106392000Y-79779128D01*
X106153905Y-80255319D02*
X106153905Y-79255319D01*
X106153905Y-79255319D02*
X106534857Y-79255319D01*
X106534857Y-79255319D02*
X106630095Y-79302938D01*
X106630095Y-79302938D02*
X106677714Y-79350557D01*
X106677714Y-79350557D02*
X106725333Y-79445795D01*
X106725333Y-79445795D02*
X106725333Y-79588652D01*
X106725333Y-79588652D02*
X106677714Y-79683890D01*
X106677714Y-79683890D02*
X106630095Y-79731509D01*
X106630095Y-79731509D02*
X106534857Y-79779128D01*
X106534857Y-79779128D02*
X106153905Y-79779128D01*
X107677714Y-80255319D02*
X107106286Y-80255319D01*
X107392000Y-80255319D02*
X107392000Y-79255319D01*
X107392000Y-79255319D02*
X107296762Y-79398176D01*
X107296762Y-79398176D02*
X107201524Y-79493414D01*
X107201524Y-79493414D02*
X107106286Y-79541033D01*
X143271580Y-49519166D02*
X143319200Y-49566785D01*
X143319200Y-49566785D02*
X143366819Y-49709642D01*
X143366819Y-49709642D02*
X143366819Y-49804880D01*
X143366819Y-49804880D02*
X143319200Y-49947737D01*
X143319200Y-49947737D02*
X143223961Y-50042975D01*
X143223961Y-50042975D02*
X143128723Y-50090594D01*
X143128723Y-50090594D02*
X142938247Y-50138213D01*
X142938247Y-50138213D02*
X142795390Y-50138213D01*
X142795390Y-50138213D02*
X142604914Y-50090594D01*
X142604914Y-50090594D02*
X142509676Y-50042975D01*
X142509676Y-50042975D02*
X142414438Y-49947737D01*
X142414438Y-49947737D02*
X142366819Y-49804880D01*
X142366819Y-49804880D02*
X142366819Y-49709642D01*
X142366819Y-49709642D02*
X142414438Y-49566785D01*
X142414438Y-49566785D02*
X142462057Y-49519166D01*
X143366819Y-48566785D02*
X143366819Y-49138213D01*
X143366819Y-48852499D02*
X142366819Y-48852499D01*
X142366819Y-48852499D02*
X142509676Y-48947737D01*
X142509676Y-48947737D02*
X142604914Y-49042975D01*
X142604914Y-49042975D02*
X142652533Y-49138213D01*
X139205333Y-86859319D02*
X138872000Y-86383128D01*
X138633905Y-86859319D02*
X138633905Y-85859319D01*
X138633905Y-85859319D02*
X139014857Y-85859319D01*
X139014857Y-85859319D02*
X139110095Y-85906938D01*
X139110095Y-85906938D02*
X139157714Y-85954557D01*
X139157714Y-85954557D02*
X139205333Y-86049795D01*
X139205333Y-86049795D02*
X139205333Y-86192652D01*
X139205333Y-86192652D02*
X139157714Y-86287890D01*
X139157714Y-86287890D02*
X139110095Y-86335509D01*
X139110095Y-86335509D02*
X139014857Y-86383128D01*
X139014857Y-86383128D02*
X138633905Y-86383128D01*
X139586286Y-85954557D02*
X139633905Y-85906938D01*
X139633905Y-85906938D02*
X139729143Y-85859319D01*
X139729143Y-85859319D02*
X139967238Y-85859319D01*
X139967238Y-85859319D02*
X140062476Y-85906938D01*
X140062476Y-85906938D02*
X140110095Y-85954557D01*
X140110095Y-85954557D02*
X140157714Y-86049795D01*
X140157714Y-86049795D02*
X140157714Y-86145033D01*
X140157714Y-86145033D02*
X140110095Y-86287890D01*
X140110095Y-86287890D02*
X139538667Y-86859319D01*
X139538667Y-86859319D02*
X140157714Y-86859319D01*
X139205333Y-43711319D02*
X138872000Y-43235128D01*
X138633905Y-43711319D02*
X138633905Y-42711319D01*
X138633905Y-42711319D02*
X139014857Y-42711319D01*
X139014857Y-42711319D02*
X139110095Y-42758938D01*
X139110095Y-42758938D02*
X139157714Y-42806557D01*
X139157714Y-42806557D02*
X139205333Y-42901795D01*
X139205333Y-42901795D02*
X139205333Y-43044652D01*
X139205333Y-43044652D02*
X139157714Y-43139890D01*
X139157714Y-43139890D02*
X139110095Y-43187509D01*
X139110095Y-43187509D02*
X139014857Y-43235128D01*
X139014857Y-43235128D02*
X138633905Y-43235128D01*
X140157714Y-43711319D02*
X139586286Y-43711319D01*
X139872000Y-43711319D02*
X139872000Y-42711319D01*
X139872000Y-42711319D02*
X139776762Y-42854176D01*
X139776762Y-42854176D02*
X139681524Y-42949414D01*
X139681524Y-42949414D02*
X139586286Y-42997033D01*
X154107713Y-79988080D02*
X154060094Y-80035700D01*
X154060094Y-80035700D02*
X153917237Y-80083319D01*
X153917237Y-80083319D02*
X153821999Y-80083319D01*
X153821999Y-80083319D02*
X153679142Y-80035700D01*
X153679142Y-80035700D02*
X153583904Y-79940461D01*
X153583904Y-79940461D02*
X153536285Y-79845223D01*
X153536285Y-79845223D02*
X153488666Y-79654747D01*
X153488666Y-79654747D02*
X153488666Y-79511890D01*
X153488666Y-79511890D02*
X153536285Y-79321414D01*
X153536285Y-79321414D02*
X153583904Y-79226176D01*
X153583904Y-79226176D02*
X153679142Y-79130938D01*
X153679142Y-79130938D02*
X153821999Y-79083319D01*
X153821999Y-79083319D02*
X153917237Y-79083319D01*
X153917237Y-79083319D02*
X154060094Y-79130938D01*
X154060094Y-79130938D02*
X154107713Y-79178557D01*
X154441047Y-79083319D02*
X155107713Y-79083319D01*
X155107713Y-79083319D02*
X154679142Y-80083319D01*
X180226095Y-41809319D02*
X180226095Y-42618842D01*
X180226095Y-42618842D02*
X180273714Y-42714080D01*
X180273714Y-42714080D02*
X180321333Y-42761700D01*
X180321333Y-42761700D02*
X180416571Y-42809319D01*
X180416571Y-42809319D02*
X180607047Y-42809319D01*
X180607047Y-42809319D02*
X180702285Y-42761700D01*
X180702285Y-42761700D02*
X180749904Y-42714080D01*
X180749904Y-42714080D02*
X180797523Y-42618842D01*
X180797523Y-42618842D02*
X180797523Y-41809319D01*
X181797523Y-42809319D02*
X181226095Y-42809319D01*
X181511809Y-42809319D02*
X181511809Y-41809319D01*
X181511809Y-41809319D02*
X181416571Y-41952176D01*
X181416571Y-41952176D02*
X181321333Y-42047414D01*
X181321333Y-42047414D02*
X181226095Y-42095033D01*
X112061580Y-75395166D02*
X112109200Y-75442785D01*
X112109200Y-75442785D02*
X112156819Y-75585642D01*
X112156819Y-75585642D02*
X112156819Y-75680880D01*
X112156819Y-75680880D02*
X112109200Y-75823737D01*
X112109200Y-75823737D02*
X112013961Y-75918975D01*
X112013961Y-75918975D02*
X111918723Y-75966594D01*
X111918723Y-75966594D02*
X111728247Y-76014213D01*
X111728247Y-76014213D02*
X111585390Y-76014213D01*
X111585390Y-76014213D02*
X111394914Y-75966594D01*
X111394914Y-75966594D02*
X111299676Y-75918975D01*
X111299676Y-75918975D02*
X111204438Y-75823737D01*
X111204438Y-75823737D02*
X111156819Y-75680880D01*
X111156819Y-75680880D02*
X111156819Y-75585642D01*
X111156819Y-75585642D02*
X111204438Y-75442785D01*
X111204438Y-75442785D02*
X111252057Y-75395166D01*
X111156819Y-74490404D02*
X111156819Y-74966594D01*
X111156819Y-74966594D02*
X111633009Y-75014213D01*
X111633009Y-75014213D02*
X111585390Y-74966594D01*
X111585390Y-74966594D02*
X111537771Y-74871356D01*
X111537771Y-74871356D02*
X111537771Y-74633261D01*
X111537771Y-74633261D02*
X111585390Y-74538023D01*
X111585390Y-74538023D02*
X111633009Y-74490404D01*
X111633009Y-74490404D02*
X111728247Y-74442785D01*
X111728247Y-74442785D02*
X111966342Y-74442785D01*
X111966342Y-74442785D02*
X112061580Y-74490404D01*
X112061580Y-74490404D02*
X112109200Y-74538023D01*
X112109200Y-74538023D02*
X112156819Y-74633261D01*
X112156819Y-74633261D02*
X112156819Y-74871356D01*
X112156819Y-74871356D02*
X112109200Y-74966594D01*
X112109200Y-74966594D02*
X112061580Y-75014213D01*
X106725333Y-50315319D02*
X106392000Y-49839128D01*
X106153905Y-50315319D02*
X106153905Y-49315319D01*
X106153905Y-49315319D02*
X106534857Y-49315319D01*
X106534857Y-49315319D02*
X106630095Y-49362938D01*
X106630095Y-49362938D02*
X106677714Y-49410557D01*
X106677714Y-49410557D02*
X106725333Y-49505795D01*
X106725333Y-49505795D02*
X106725333Y-49648652D01*
X106725333Y-49648652D02*
X106677714Y-49743890D01*
X106677714Y-49743890D02*
X106630095Y-49791509D01*
X106630095Y-49791509D02*
X106534857Y-49839128D01*
X106534857Y-49839128D02*
X106153905Y-49839128D01*
X107106286Y-49410557D02*
X107153905Y-49362938D01*
X107153905Y-49362938D02*
X107249143Y-49315319D01*
X107249143Y-49315319D02*
X107487238Y-49315319D01*
X107487238Y-49315319D02*
X107582476Y-49362938D01*
X107582476Y-49362938D02*
X107630095Y-49410557D01*
X107630095Y-49410557D02*
X107677714Y-49505795D01*
X107677714Y-49505795D02*
X107677714Y-49601033D01*
X107677714Y-49601033D02*
X107630095Y-49743890D01*
X107630095Y-49743890D02*
X107058667Y-50315319D01*
X107058667Y-50315319D02*
X107677714Y-50315319D01*
X154107713Y-43444080D02*
X154060094Y-43491700D01*
X154060094Y-43491700D02*
X153917237Y-43539319D01*
X153917237Y-43539319D02*
X153821999Y-43539319D01*
X153821999Y-43539319D02*
X153679142Y-43491700D01*
X153679142Y-43491700D02*
X153583904Y-43396461D01*
X153583904Y-43396461D02*
X153536285Y-43301223D01*
X153536285Y-43301223D02*
X153488666Y-43110747D01*
X153488666Y-43110747D02*
X153488666Y-42967890D01*
X153488666Y-42967890D02*
X153536285Y-42777414D01*
X153536285Y-42777414D02*
X153583904Y-42682176D01*
X153583904Y-42682176D02*
X153679142Y-42586938D01*
X153679142Y-42586938D02*
X153821999Y-42539319D01*
X153821999Y-42539319D02*
X153917237Y-42539319D01*
X153917237Y-42539319D02*
X154060094Y-42586938D01*
X154060094Y-42586938D02*
X154107713Y-42634557D01*
X154441047Y-42539319D02*
X155107713Y-42539319D01*
X155107713Y-42539319D02*
X154679142Y-43539319D01*
X110791580Y-86063166D02*
X110839200Y-86110785D01*
X110839200Y-86110785D02*
X110886819Y-86253642D01*
X110886819Y-86253642D02*
X110886819Y-86348880D01*
X110886819Y-86348880D02*
X110839200Y-86491737D01*
X110839200Y-86491737D02*
X110743961Y-86586975D01*
X110743961Y-86586975D02*
X110648723Y-86634594D01*
X110648723Y-86634594D02*
X110458247Y-86682213D01*
X110458247Y-86682213D02*
X110315390Y-86682213D01*
X110315390Y-86682213D02*
X110124914Y-86634594D01*
X110124914Y-86634594D02*
X110029676Y-86586975D01*
X110029676Y-86586975D02*
X109934438Y-86491737D01*
X109934438Y-86491737D02*
X109886819Y-86348880D01*
X109886819Y-86348880D02*
X109886819Y-86253642D01*
X109886819Y-86253642D02*
X109934438Y-86110785D01*
X109934438Y-86110785D02*
X109982057Y-86063166D01*
X110886819Y-85110785D02*
X110886819Y-85682213D01*
X110886819Y-85396499D02*
X109886819Y-85396499D01*
X109886819Y-85396499D02*
X110029676Y-85491737D01*
X110029676Y-85491737D02*
X110124914Y-85586975D01*
X110124914Y-85586975D02*
X110172533Y-85682213D01*
X185839580Y-84793166D02*
X185887200Y-84840785D01*
X185887200Y-84840785D02*
X185934819Y-84983642D01*
X185934819Y-84983642D02*
X185934819Y-85078880D01*
X185934819Y-85078880D02*
X185887200Y-85221737D01*
X185887200Y-85221737D02*
X185791961Y-85316975D01*
X185791961Y-85316975D02*
X185696723Y-85364594D01*
X185696723Y-85364594D02*
X185506247Y-85412213D01*
X185506247Y-85412213D02*
X185363390Y-85412213D01*
X185363390Y-85412213D02*
X185172914Y-85364594D01*
X185172914Y-85364594D02*
X185077676Y-85316975D01*
X185077676Y-85316975D02*
X184982438Y-85221737D01*
X184982438Y-85221737D02*
X184934819Y-85078880D01*
X184934819Y-85078880D02*
X184934819Y-84983642D01*
X184934819Y-84983642D02*
X184982438Y-84840785D01*
X184982438Y-84840785D02*
X185030057Y-84793166D01*
X184934819Y-84459832D02*
X184934819Y-83840785D01*
X184934819Y-83840785D02*
X185315771Y-84174118D01*
X185315771Y-84174118D02*
X185315771Y-84031261D01*
X185315771Y-84031261D02*
X185363390Y-83936023D01*
X185363390Y-83936023D02*
X185411009Y-83888404D01*
X185411009Y-83888404D02*
X185506247Y-83840785D01*
X185506247Y-83840785D02*
X185744342Y-83840785D01*
X185744342Y-83840785D02*
X185839580Y-83888404D01*
X185839580Y-83888404D02*
X185887200Y-83936023D01*
X185887200Y-83936023D02*
X185934819Y-84031261D01*
X185934819Y-84031261D02*
X185934819Y-84316975D01*
X185934819Y-84316975D02*
X185887200Y-84412213D01*
X185887200Y-84412213D02*
X185839580Y-84459832D01*
X128894666Y-69305319D02*
X128894666Y-70019604D01*
X128894666Y-70019604D02*
X128847047Y-70162461D01*
X128847047Y-70162461D02*
X128751809Y-70257700D01*
X128751809Y-70257700D02*
X128608952Y-70305319D01*
X128608952Y-70305319D02*
X128513714Y-70305319D01*
X129894666Y-70305319D02*
X129323238Y-70305319D01*
X129608952Y-70305319D02*
X129608952Y-69305319D01*
X129608952Y-69305319D02*
X129513714Y-69448176D01*
X129513714Y-69448176D02*
X129418476Y-69543414D01*
X129418476Y-69543414D02*
X129323238Y-69591033D01*
X115266095Y-78353319D02*
X115266095Y-79162842D01*
X115266095Y-79162842D02*
X115313714Y-79258080D01*
X115313714Y-79258080D02*
X115361333Y-79305700D01*
X115361333Y-79305700D02*
X115456571Y-79353319D01*
X115456571Y-79353319D02*
X115647047Y-79353319D01*
X115647047Y-79353319D02*
X115742285Y-79305700D01*
X115742285Y-79305700D02*
X115789904Y-79258080D01*
X115789904Y-79258080D02*
X115837523Y-79162842D01*
X115837523Y-79162842D02*
X115837523Y-78353319D01*
X116837523Y-79353319D02*
X116266095Y-79353319D01*
X116551809Y-79353319D02*
X116551809Y-78353319D01*
X116551809Y-78353319D02*
X116456571Y-78496176D01*
X116456571Y-78496176D02*
X116361333Y-78591414D01*
X116361333Y-78591414D02*
X116266095Y-78639033D01*
X148097580Y-75395166D02*
X148145200Y-75442785D01*
X148145200Y-75442785D02*
X148192819Y-75585642D01*
X148192819Y-75585642D02*
X148192819Y-75680880D01*
X148192819Y-75680880D02*
X148145200Y-75823737D01*
X148145200Y-75823737D02*
X148049961Y-75918975D01*
X148049961Y-75918975D02*
X147954723Y-75966594D01*
X147954723Y-75966594D02*
X147764247Y-76014213D01*
X147764247Y-76014213D02*
X147621390Y-76014213D01*
X147621390Y-76014213D02*
X147430914Y-75966594D01*
X147430914Y-75966594D02*
X147335676Y-75918975D01*
X147335676Y-75918975D02*
X147240438Y-75823737D01*
X147240438Y-75823737D02*
X147192819Y-75680880D01*
X147192819Y-75680880D02*
X147192819Y-75585642D01*
X147192819Y-75585642D02*
X147240438Y-75442785D01*
X147240438Y-75442785D02*
X147288057Y-75395166D01*
X147526152Y-74538023D02*
X148192819Y-74538023D01*
X147145200Y-74776118D02*
X147859485Y-75014213D01*
X147859485Y-75014213D02*
X147859485Y-74395166D01*
X106725333Y-43711319D02*
X106392000Y-43235128D01*
X106153905Y-43711319D02*
X106153905Y-42711319D01*
X106153905Y-42711319D02*
X106534857Y-42711319D01*
X106534857Y-42711319D02*
X106630095Y-42758938D01*
X106630095Y-42758938D02*
X106677714Y-42806557D01*
X106677714Y-42806557D02*
X106725333Y-42901795D01*
X106725333Y-42901795D02*
X106725333Y-43044652D01*
X106725333Y-43044652D02*
X106677714Y-43139890D01*
X106677714Y-43139890D02*
X106630095Y-43187509D01*
X106630095Y-43187509D02*
X106534857Y-43235128D01*
X106534857Y-43235128D02*
X106153905Y-43235128D01*
X107677714Y-43711319D02*
X107106286Y-43711319D01*
X107392000Y-43711319D02*
X107392000Y-42711319D01*
X107392000Y-42711319D02*
X107296762Y-42854176D01*
X107296762Y-42854176D02*
X107201524Y-42949414D01*
X107201524Y-42949414D02*
X107106286Y-42997033D01*
X161374666Y-69305319D02*
X161374666Y-70019604D01*
X161374666Y-70019604D02*
X161327047Y-70162461D01*
X161327047Y-70162461D02*
X161231809Y-70257700D01*
X161231809Y-70257700D02*
X161088952Y-70305319D01*
X161088952Y-70305319D02*
X160993714Y-70305319D01*
X162374666Y-70305319D02*
X161803238Y-70305319D01*
X162088952Y-70305319D02*
X162088952Y-69305319D01*
X162088952Y-69305319D02*
X161993714Y-69448176D01*
X161993714Y-69448176D02*
X161898476Y-69543414D01*
X161898476Y-69543414D02*
X161803238Y-69591033D01*
X120879580Y-48249166D02*
X120927200Y-48296785D01*
X120927200Y-48296785D02*
X120974819Y-48439642D01*
X120974819Y-48439642D02*
X120974819Y-48534880D01*
X120974819Y-48534880D02*
X120927200Y-48677737D01*
X120927200Y-48677737D02*
X120831961Y-48772975D01*
X120831961Y-48772975D02*
X120736723Y-48820594D01*
X120736723Y-48820594D02*
X120546247Y-48868213D01*
X120546247Y-48868213D02*
X120403390Y-48868213D01*
X120403390Y-48868213D02*
X120212914Y-48820594D01*
X120212914Y-48820594D02*
X120117676Y-48772975D01*
X120117676Y-48772975D02*
X120022438Y-48677737D01*
X120022438Y-48677737D02*
X119974819Y-48534880D01*
X119974819Y-48534880D02*
X119974819Y-48439642D01*
X119974819Y-48439642D02*
X120022438Y-48296785D01*
X120022438Y-48296785D02*
X120070057Y-48249166D01*
X119974819Y-47915832D02*
X119974819Y-47296785D01*
X119974819Y-47296785D02*
X120355771Y-47630118D01*
X120355771Y-47630118D02*
X120355771Y-47487261D01*
X120355771Y-47487261D02*
X120403390Y-47392023D01*
X120403390Y-47392023D02*
X120451009Y-47344404D01*
X120451009Y-47344404D02*
X120546247Y-47296785D01*
X120546247Y-47296785D02*
X120784342Y-47296785D01*
X120784342Y-47296785D02*
X120879580Y-47344404D01*
X120879580Y-47344404D02*
X120927200Y-47392023D01*
X120927200Y-47392023D02*
X120974819Y-47487261D01*
X120974819Y-47487261D02*
X120974819Y-47772975D01*
X120974819Y-47772975D02*
X120927200Y-47868213D01*
X120927200Y-47868213D02*
X120879580Y-47915832D01*
X193854666Y-69305319D02*
X193854666Y-70019604D01*
X193854666Y-70019604D02*
X193807047Y-70162461D01*
X193807047Y-70162461D02*
X193711809Y-70257700D01*
X193711809Y-70257700D02*
X193568952Y-70305319D01*
X193568952Y-70305319D02*
X193473714Y-70305319D01*
X194854666Y-70305319D02*
X194283238Y-70305319D01*
X194568952Y-70305319D02*
X194568952Y-69305319D01*
X194568952Y-69305319D02*
X194473714Y-69448176D01*
X194473714Y-69448176D02*
X194378476Y-69543414D01*
X194378476Y-69543414D02*
X194283238Y-69591033D01*
X139205333Y-50315319D02*
X138872000Y-49839128D01*
X138633905Y-50315319D02*
X138633905Y-49315319D01*
X138633905Y-49315319D02*
X139014857Y-49315319D01*
X139014857Y-49315319D02*
X139110095Y-49362938D01*
X139110095Y-49362938D02*
X139157714Y-49410557D01*
X139157714Y-49410557D02*
X139205333Y-49505795D01*
X139205333Y-49505795D02*
X139205333Y-49648652D01*
X139205333Y-49648652D02*
X139157714Y-49743890D01*
X139157714Y-49743890D02*
X139110095Y-49791509D01*
X139110095Y-49791509D02*
X139014857Y-49839128D01*
X139014857Y-49839128D02*
X138633905Y-49839128D01*
X139586286Y-49410557D02*
X139633905Y-49362938D01*
X139633905Y-49362938D02*
X139729143Y-49315319D01*
X139729143Y-49315319D02*
X139967238Y-49315319D01*
X139967238Y-49315319D02*
X140062476Y-49362938D01*
X140062476Y-49362938D02*
X140110095Y-49410557D01*
X140110095Y-49410557D02*
X140157714Y-49505795D01*
X140157714Y-49505795D02*
X140157714Y-49601033D01*
X140157714Y-49601033D02*
X140110095Y-49743890D01*
X140110095Y-49743890D02*
X139538667Y-50315319D01*
X139538667Y-50315319D02*
X140157714Y-50315319D01*
X147746095Y-41809319D02*
X147746095Y-42618842D01*
X147746095Y-42618842D02*
X147793714Y-42714080D01*
X147793714Y-42714080D02*
X147841333Y-42761700D01*
X147841333Y-42761700D02*
X147936571Y-42809319D01*
X147936571Y-42809319D02*
X148127047Y-42809319D01*
X148127047Y-42809319D02*
X148222285Y-42761700D01*
X148222285Y-42761700D02*
X148269904Y-42714080D01*
X148269904Y-42714080D02*
X148317523Y-42618842D01*
X148317523Y-42618842D02*
X148317523Y-41809319D01*
X149317523Y-42809319D02*
X148746095Y-42809319D01*
X149031809Y-42809319D02*
X149031809Y-41809319D01*
X149031809Y-41809319D02*
X148936571Y-41952176D01*
X148936571Y-41952176D02*
X148841333Y-42047414D01*
X148841333Y-42047414D02*
X148746095Y-42095033D01*
X177021580Y-75395166D02*
X177069200Y-75442785D01*
X177069200Y-75442785D02*
X177116819Y-75585642D01*
X177116819Y-75585642D02*
X177116819Y-75680880D01*
X177116819Y-75680880D02*
X177069200Y-75823737D01*
X177069200Y-75823737D02*
X176973961Y-75918975D01*
X176973961Y-75918975D02*
X176878723Y-75966594D01*
X176878723Y-75966594D02*
X176688247Y-76014213D01*
X176688247Y-76014213D02*
X176545390Y-76014213D01*
X176545390Y-76014213D02*
X176354914Y-75966594D01*
X176354914Y-75966594D02*
X176259676Y-75918975D01*
X176259676Y-75918975D02*
X176164438Y-75823737D01*
X176164438Y-75823737D02*
X176116819Y-75680880D01*
X176116819Y-75680880D02*
X176116819Y-75585642D01*
X176116819Y-75585642D02*
X176164438Y-75442785D01*
X176164438Y-75442785D02*
X176212057Y-75395166D01*
X176116819Y-74490404D02*
X176116819Y-74966594D01*
X176116819Y-74966594D02*
X176593009Y-75014213D01*
X176593009Y-75014213D02*
X176545390Y-74966594D01*
X176545390Y-74966594D02*
X176497771Y-74871356D01*
X176497771Y-74871356D02*
X176497771Y-74633261D01*
X176497771Y-74633261D02*
X176545390Y-74538023D01*
X176545390Y-74538023D02*
X176593009Y-74490404D01*
X176593009Y-74490404D02*
X176688247Y-74442785D01*
X176688247Y-74442785D02*
X176926342Y-74442785D01*
X176926342Y-74442785D02*
X177021580Y-74490404D01*
X177021580Y-74490404D02*
X177069200Y-74538023D01*
X177069200Y-74538023D02*
X177116819Y-74633261D01*
X177116819Y-74633261D02*
X177116819Y-74871356D01*
X177116819Y-74871356D02*
X177069200Y-74966594D01*
X177069200Y-74966594D02*
X177021580Y-75014213D01*
X193854666Y-32761319D02*
X193854666Y-33475604D01*
X193854666Y-33475604D02*
X193807047Y-33618461D01*
X193807047Y-33618461D02*
X193711809Y-33713700D01*
X193711809Y-33713700D02*
X193568952Y-33761319D01*
X193568952Y-33761319D02*
X193473714Y-33761319D01*
X194854666Y-33761319D02*
X194283238Y-33761319D01*
X194568952Y-33761319D02*
X194568952Y-32761319D01*
X194568952Y-32761319D02*
X194473714Y-32904176D01*
X194473714Y-32904176D02*
X194378476Y-32999414D01*
X194378476Y-32999414D02*
X194283238Y-33047033D01*
X171685333Y-43711319D02*
X171352000Y-43235128D01*
X171113905Y-43711319D02*
X171113905Y-42711319D01*
X171113905Y-42711319D02*
X171494857Y-42711319D01*
X171494857Y-42711319D02*
X171590095Y-42758938D01*
X171590095Y-42758938D02*
X171637714Y-42806557D01*
X171637714Y-42806557D02*
X171685333Y-42901795D01*
X171685333Y-42901795D02*
X171685333Y-43044652D01*
X171685333Y-43044652D02*
X171637714Y-43139890D01*
X171637714Y-43139890D02*
X171590095Y-43187509D01*
X171590095Y-43187509D02*
X171494857Y-43235128D01*
X171494857Y-43235128D02*
X171113905Y-43235128D01*
X172637714Y-43711319D02*
X172066286Y-43711319D01*
X172352000Y-43711319D02*
X172352000Y-42711319D01*
X172352000Y-42711319D02*
X172256762Y-42854176D01*
X172256762Y-42854176D02*
X172161524Y-42949414D01*
X172161524Y-42949414D02*
X172066286Y-42997033D01*
X148097580Y-38851166D02*
X148145200Y-38898785D01*
X148145200Y-38898785D02*
X148192819Y-39041642D01*
X148192819Y-39041642D02*
X148192819Y-39136880D01*
X148192819Y-39136880D02*
X148145200Y-39279737D01*
X148145200Y-39279737D02*
X148049961Y-39374975D01*
X148049961Y-39374975D02*
X147954723Y-39422594D01*
X147954723Y-39422594D02*
X147764247Y-39470213D01*
X147764247Y-39470213D02*
X147621390Y-39470213D01*
X147621390Y-39470213D02*
X147430914Y-39422594D01*
X147430914Y-39422594D02*
X147335676Y-39374975D01*
X147335676Y-39374975D02*
X147240438Y-39279737D01*
X147240438Y-39279737D02*
X147192819Y-39136880D01*
X147192819Y-39136880D02*
X147192819Y-39041642D01*
X147192819Y-39041642D02*
X147240438Y-38898785D01*
X147240438Y-38898785D02*
X147288057Y-38851166D01*
X147526152Y-37994023D02*
X148192819Y-37994023D01*
X147145200Y-38232118D02*
X147859485Y-38470213D01*
X147859485Y-38470213D02*
X147859485Y-37851166D01*
X177021580Y-38851166D02*
X177069200Y-38898785D01*
X177069200Y-38898785D02*
X177116819Y-39041642D01*
X177116819Y-39041642D02*
X177116819Y-39136880D01*
X177116819Y-39136880D02*
X177069200Y-39279737D01*
X177069200Y-39279737D02*
X176973961Y-39374975D01*
X176973961Y-39374975D02*
X176878723Y-39422594D01*
X176878723Y-39422594D02*
X176688247Y-39470213D01*
X176688247Y-39470213D02*
X176545390Y-39470213D01*
X176545390Y-39470213D02*
X176354914Y-39422594D01*
X176354914Y-39422594D02*
X176259676Y-39374975D01*
X176259676Y-39374975D02*
X176164438Y-39279737D01*
X176164438Y-39279737D02*
X176116819Y-39136880D01*
X176116819Y-39136880D02*
X176116819Y-39041642D01*
X176116819Y-39041642D02*
X176164438Y-38898785D01*
X176164438Y-38898785D02*
X176212057Y-38851166D01*
X176116819Y-37946404D02*
X176116819Y-38422594D01*
X176116819Y-38422594D02*
X176593009Y-38470213D01*
X176593009Y-38470213D02*
X176545390Y-38422594D01*
X176545390Y-38422594D02*
X176497771Y-38327356D01*
X176497771Y-38327356D02*
X176497771Y-38089261D01*
X176497771Y-38089261D02*
X176545390Y-37994023D01*
X176545390Y-37994023D02*
X176593009Y-37946404D01*
X176593009Y-37946404D02*
X176688247Y-37898785D01*
X176688247Y-37898785D02*
X176926342Y-37898785D01*
X176926342Y-37898785D02*
X177021580Y-37946404D01*
X177021580Y-37946404D02*
X177069200Y-37994023D01*
X177069200Y-37994023D02*
X177116819Y-38089261D01*
X177116819Y-38089261D02*
X177116819Y-38327356D01*
X177116819Y-38327356D02*
X177069200Y-38422594D01*
X177069200Y-38422594D02*
X177021580Y-38470213D01*
X186587713Y-43444080D02*
X186540094Y-43491700D01*
X186540094Y-43491700D02*
X186397237Y-43539319D01*
X186397237Y-43539319D02*
X186301999Y-43539319D01*
X186301999Y-43539319D02*
X186159142Y-43491700D01*
X186159142Y-43491700D02*
X186063904Y-43396461D01*
X186063904Y-43396461D02*
X186016285Y-43301223D01*
X186016285Y-43301223D02*
X185968666Y-43110747D01*
X185968666Y-43110747D02*
X185968666Y-42967890D01*
X185968666Y-42967890D02*
X186016285Y-42777414D01*
X186016285Y-42777414D02*
X186063904Y-42682176D01*
X186063904Y-42682176D02*
X186159142Y-42586938D01*
X186159142Y-42586938D02*
X186301999Y-42539319D01*
X186301999Y-42539319D02*
X186397237Y-42539319D01*
X186397237Y-42539319D02*
X186540094Y-42586938D01*
X186540094Y-42586938D02*
X186587713Y-42634557D01*
X186921047Y-42539319D02*
X187587713Y-42539319D01*
X187587713Y-42539319D02*
X187159142Y-43539319D01*
X121627713Y-43444080D02*
X121580094Y-43491700D01*
X121580094Y-43491700D02*
X121437237Y-43539319D01*
X121437237Y-43539319D02*
X121341999Y-43539319D01*
X121341999Y-43539319D02*
X121199142Y-43491700D01*
X121199142Y-43491700D02*
X121103904Y-43396461D01*
X121103904Y-43396461D02*
X121056285Y-43301223D01*
X121056285Y-43301223D02*
X121008666Y-43110747D01*
X121008666Y-43110747D02*
X121008666Y-42967890D01*
X121008666Y-42967890D02*
X121056285Y-42777414D01*
X121056285Y-42777414D02*
X121103904Y-42682176D01*
X121103904Y-42682176D02*
X121199142Y-42586938D01*
X121199142Y-42586938D02*
X121341999Y-42539319D01*
X121341999Y-42539319D02*
X121437237Y-42539319D01*
X121437237Y-42539319D02*
X121580094Y-42586938D01*
X121580094Y-42586938D02*
X121627713Y-42634557D01*
X121961047Y-42539319D02*
X122627713Y-42539319D01*
X122627713Y-42539319D02*
X122199142Y-43539319D01*
X171685333Y-50315319D02*
X171352000Y-49839128D01*
X171113905Y-50315319D02*
X171113905Y-49315319D01*
X171113905Y-49315319D02*
X171494857Y-49315319D01*
X171494857Y-49315319D02*
X171590095Y-49362938D01*
X171590095Y-49362938D02*
X171637714Y-49410557D01*
X171637714Y-49410557D02*
X171685333Y-49505795D01*
X171685333Y-49505795D02*
X171685333Y-49648652D01*
X171685333Y-49648652D02*
X171637714Y-49743890D01*
X171637714Y-49743890D02*
X171590095Y-49791509D01*
X171590095Y-49791509D02*
X171494857Y-49839128D01*
X171494857Y-49839128D02*
X171113905Y-49839128D01*
X172066286Y-49410557D02*
X172113905Y-49362938D01*
X172113905Y-49362938D02*
X172209143Y-49315319D01*
X172209143Y-49315319D02*
X172447238Y-49315319D01*
X172447238Y-49315319D02*
X172542476Y-49362938D01*
X172542476Y-49362938D02*
X172590095Y-49410557D01*
X172590095Y-49410557D02*
X172637714Y-49505795D01*
X172637714Y-49505795D02*
X172637714Y-49601033D01*
X172637714Y-49601033D02*
X172590095Y-49743890D01*
X172590095Y-49743890D02*
X172018667Y-50315319D01*
X172018667Y-50315319D02*
X172637714Y-50315319D01*
X106725333Y-86859319D02*
X106392000Y-86383128D01*
X106153905Y-86859319D02*
X106153905Y-85859319D01*
X106153905Y-85859319D02*
X106534857Y-85859319D01*
X106534857Y-85859319D02*
X106630095Y-85906938D01*
X106630095Y-85906938D02*
X106677714Y-85954557D01*
X106677714Y-85954557D02*
X106725333Y-86049795D01*
X106725333Y-86049795D02*
X106725333Y-86192652D01*
X106725333Y-86192652D02*
X106677714Y-86287890D01*
X106677714Y-86287890D02*
X106630095Y-86335509D01*
X106630095Y-86335509D02*
X106534857Y-86383128D01*
X106534857Y-86383128D02*
X106153905Y-86383128D01*
X107106286Y-85954557D02*
X107153905Y-85906938D01*
X107153905Y-85906938D02*
X107249143Y-85859319D01*
X107249143Y-85859319D02*
X107487238Y-85859319D01*
X107487238Y-85859319D02*
X107582476Y-85906938D01*
X107582476Y-85906938D02*
X107630095Y-85954557D01*
X107630095Y-85954557D02*
X107677714Y-86049795D01*
X107677714Y-86049795D02*
X107677714Y-86145033D01*
X107677714Y-86145033D02*
X107630095Y-86287890D01*
X107630095Y-86287890D02*
X107058667Y-86859319D01*
X107058667Y-86859319D02*
X107677714Y-86859319D01*
X175751580Y-86063166D02*
X175799200Y-86110785D01*
X175799200Y-86110785D02*
X175846819Y-86253642D01*
X175846819Y-86253642D02*
X175846819Y-86348880D01*
X175846819Y-86348880D02*
X175799200Y-86491737D01*
X175799200Y-86491737D02*
X175703961Y-86586975D01*
X175703961Y-86586975D02*
X175608723Y-86634594D01*
X175608723Y-86634594D02*
X175418247Y-86682213D01*
X175418247Y-86682213D02*
X175275390Y-86682213D01*
X175275390Y-86682213D02*
X175084914Y-86634594D01*
X175084914Y-86634594D02*
X174989676Y-86586975D01*
X174989676Y-86586975D02*
X174894438Y-86491737D01*
X174894438Y-86491737D02*
X174846819Y-86348880D01*
X174846819Y-86348880D02*
X174846819Y-86253642D01*
X174846819Y-86253642D02*
X174894438Y-86110785D01*
X174894438Y-86110785D02*
X174942057Y-86063166D01*
X175846819Y-85110785D02*
X175846819Y-85682213D01*
X175846819Y-85396499D02*
X174846819Y-85396499D01*
X174846819Y-85396499D02*
X174989676Y-85491737D01*
X174989676Y-85491737D02*
X175084914Y-85586975D01*
X175084914Y-85586975D02*
X175132533Y-85682213D01*
X112061580Y-38851166D02*
X112109200Y-38898785D01*
X112109200Y-38898785D02*
X112156819Y-39041642D01*
X112156819Y-39041642D02*
X112156819Y-39136880D01*
X112156819Y-39136880D02*
X112109200Y-39279737D01*
X112109200Y-39279737D02*
X112013961Y-39374975D01*
X112013961Y-39374975D02*
X111918723Y-39422594D01*
X111918723Y-39422594D02*
X111728247Y-39470213D01*
X111728247Y-39470213D02*
X111585390Y-39470213D01*
X111585390Y-39470213D02*
X111394914Y-39422594D01*
X111394914Y-39422594D02*
X111299676Y-39374975D01*
X111299676Y-39374975D02*
X111204438Y-39279737D01*
X111204438Y-39279737D02*
X111156819Y-39136880D01*
X111156819Y-39136880D02*
X111156819Y-39041642D01*
X111156819Y-39041642D02*
X111204438Y-38898785D01*
X111204438Y-38898785D02*
X111252057Y-38851166D01*
X111156819Y-37946404D02*
X111156819Y-38422594D01*
X111156819Y-38422594D02*
X111633009Y-38470213D01*
X111633009Y-38470213D02*
X111585390Y-38422594D01*
X111585390Y-38422594D02*
X111537771Y-38327356D01*
X111537771Y-38327356D02*
X111537771Y-38089261D01*
X111537771Y-38089261D02*
X111585390Y-37994023D01*
X111585390Y-37994023D02*
X111633009Y-37946404D01*
X111633009Y-37946404D02*
X111728247Y-37898785D01*
X111728247Y-37898785D02*
X111966342Y-37898785D01*
X111966342Y-37898785D02*
X112061580Y-37946404D01*
X112061580Y-37946404D02*
X112109200Y-37994023D01*
X112109200Y-37994023D02*
X112156819Y-38089261D01*
X112156819Y-38089261D02*
X112156819Y-38327356D01*
X112156819Y-38327356D02*
X112109200Y-38422594D01*
X112109200Y-38422594D02*
X112061580Y-38470213D01*
X171685333Y-80255319D02*
X171352000Y-79779128D01*
X171113905Y-80255319D02*
X171113905Y-79255319D01*
X171113905Y-79255319D02*
X171494857Y-79255319D01*
X171494857Y-79255319D02*
X171590095Y-79302938D01*
X171590095Y-79302938D02*
X171637714Y-79350557D01*
X171637714Y-79350557D02*
X171685333Y-79445795D01*
X171685333Y-79445795D02*
X171685333Y-79588652D01*
X171685333Y-79588652D02*
X171637714Y-79683890D01*
X171637714Y-79683890D02*
X171590095Y-79731509D01*
X171590095Y-79731509D02*
X171494857Y-79779128D01*
X171494857Y-79779128D02*
X171113905Y-79779128D01*
X172637714Y-80255319D02*
X172066286Y-80255319D01*
X172352000Y-80255319D02*
X172352000Y-79255319D01*
X172352000Y-79255319D02*
X172256762Y-79398176D01*
X172256762Y-79398176D02*
X172161524Y-79493414D01*
X172161524Y-79493414D02*
X172066286Y-79541033D01*
X153359580Y-84793166D02*
X153407200Y-84840785D01*
X153407200Y-84840785D02*
X153454819Y-84983642D01*
X153454819Y-84983642D02*
X153454819Y-85078880D01*
X153454819Y-85078880D02*
X153407200Y-85221737D01*
X153407200Y-85221737D02*
X153311961Y-85316975D01*
X153311961Y-85316975D02*
X153216723Y-85364594D01*
X153216723Y-85364594D02*
X153026247Y-85412213D01*
X153026247Y-85412213D02*
X152883390Y-85412213D01*
X152883390Y-85412213D02*
X152692914Y-85364594D01*
X152692914Y-85364594D02*
X152597676Y-85316975D01*
X152597676Y-85316975D02*
X152502438Y-85221737D01*
X152502438Y-85221737D02*
X152454819Y-85078880D01*
X152454819Y-85078880D02*
X152454819Y-84983642D01*
X152454819Y-84983642D02*
X152502438Y-84840785D01*
X152502438Y-84840785D02*
X152550057Y-84793166D01*
X152454819Y-84459832D02*
X152454819Y-83840785D01*
X152454819Y-83840785D02*
X152835771Y-84174118D01*
X152835771Y-84174118D02*
X152835771Y-84031261D01*
X152835771Y-84031261D02*
X152883390Y-83936023D01*
X152883390Y-83936023D02*
X152931009Y-83888404D01*
X152931009Y-83888404D02*
X153026247Y-83840785D01*
X153026247Y-83840785D02*
X153264342Y-83840785D01*
X153264342Y-83840785D02*
X153359580Y-83888404D01*
X153359580Y-83888404D02*
X153407200Y-83936023D01*
X153407200Y-83936023D02*
X153454819Y-84031261D01*
X153454819Y-84031261D02*
X153454819Y-84316975D01*
X153454819Y-84316975D02*
X153407200Y-84412213D01*
X153407200Y-84412213D02*
X153359580Y-84459832D01*
X115266095Y-41809319D02*
X115266095Y-42618842D01*
X115266095Y-42618842D02*
X115313714Y-42714080D01*
X115313714Y-42714080D02*
X115361333Y-42761700D01*
X115361333Y-42761700D02*
X115456571Y-42809319D01*
X115456571Y-42809319D02*
X115647047Y-42809319D01*
X115647047Y-42809319D02*
X115742285Y-42761700D01*
X115742285Y-42761700D02*
X115789904Y-42714080D01*
X115789904Y-42714080D02*
X115837523Y-42618842D01*
X115837523Y-42618842D02*
X115837523Y-41809319D01*
X116837523Y-42809319D02*
X116266095Y-42809319D01*
X116551809Y-42809319D02*
X116551809Y-41809319D01*
X116551809Y-41809319D02*
X116456571Y-41952176D01*
X116456571Y-41952176D02*
X116361333Y-42047414D01*
X116361333Y-42047414D02*
X116266095Y-42095033D01*
X115617580Y-38851166D02*
X115665200Y-38898785D01*
X115665200Y-38898785D02*
X115712819Y-39041642D01*
X115712819Y-39041642D02*
X115712819Y-39136880D01*
X115712819Y-39136880D02*
X115665200Y-39279737D01*
X115665200Y-39279737D02*
X115569961Y-39374975D01*
X115569961Y-39374975D02*
X115474723Y-39422594D01*
X115474723Y-39422594D02*
X115284247Y-39470213D01*
X115284247Y-39470213D02*
X115141390Y-39470213D01*
X115141390Y-39470213D02*
X114950914Y-39422594D01*
X114950914Y-39422594D02*
X114855676Y-39374975D01*
X114855676Y-39374975D02*
X114760438Y-39279737D01*
X114760438Y-39279737D02*
X114712819Y-39136880D01*
X114712819Y-39136880D02*
X114712819Y-39041642D01*
X114712819Y-39041642D02*
X114760438Y-38898785D01*
X114760438Y-38898785D02*
X114808057Y-38851166D01*
X115046152Y-37994023D02*
X115712819Y-37994023D01*
X114665200Y-38232118D02*
X115379485Y-38470213D01*
X115379485Y-38470213D02*
X115379485Y-37851166D01*
X139205333Y-80255319D02*
X138872000Y-79779128D01*
X138633905Y-80255319D02*
X138633905Y-79255319D01*
X138633905Y-79255319D02*
X139014857Y-79255319D01*
X139014857Y-79255319D02*
X139110095Y-79302938D01*
X139110095Y-79302938D02*
X139157714Y-79350557D01*
X139157714Y-79350557D02*
X139205333Y-79445795D01*
X139205333Y-79445795D02*
X139205333Y-79588652D01*
X139205333Y-79588652D02*
X139157714Y-79683890D01*
X139157714Y-79683890D02*
X139110095Y-79731509D01*
X139110095Y-79731509D02*
X139014857Y-79779128D01*
X139014857Y-79779128D02*
X138633905Y-79779128D01*
X140157714Y-80255319D02*
X139586286Y-80255319D01*
X139872000Y-80255319D02*
X139872000Y-79255319D01*
X139872000Y-79255319D02*
X139776762Y-79398176D01*
X139776762Y-79398176D02*
X139681524Y-79493414D01*
X139681524Y-79493414D02*
X139586286Y-79541033D01*
X185839580Y-48249166D02*
X185887200Y-48296785D01*
X185887200Y-48296785D02*
X185934819Y-48439642D01*
X185934819Y-48439642D02*
X185934819Y-48534880D01*
X185934819Y-48534880D02*
X185887200Y-48677737D01*
X185887200Y-48677737D02*
X185791961Y-48772975D01*
X185791961Y-48772975D02*
X185696723Y-48820594D01*
X185696723Y-48820594D02*
X185506247Y-48868213D01*
X185506247Y-48868213D02*
X185363390Y-48868213D01*
X185363390Y-48868213D02*
X185172914Y-48820594D01*
X185172914Y-48820594D02*
X185077676Y-48772975D01*
X185077676Y-48772975D02*
X184982438Y-48677737D01*
X184982438Y-48677737D02*
X184934819Y-48534880D01*
X184934819Y-48534880D02*
X184934819Y-48439642D01*
X184934819Y-48439642D02*
X184982438Y-48296785D01*
X184982438Y-48296785D02*
X185030057Y-48249166D01*
X184934819Y-47915832D02*
X184934819Y-47296785D01*
X184934819Y-47296785D02*
X185315771Y-47630118D01*
X185315771Y-47630118D02*
X185315771Y-47487261D01*
X185315771Y-47487261D02*
X185363390Y-47392023D01*
X185363390Y-47392023D02*
X185411009Y-47344404D01*
X185411009Y-47344404D02*
X185506247Y-47296785D01*
X185506247Y-47296785D02*
X185744342Y-47296785D01*
X185744342Y-47296785D02*
X185839580Y-47344404D01*
X185839580Y-47344404D02*
X185887200Y-47392023D01*
X185887200Y-47392023D02*
X185934819Y-47487261D01*
X185934819Y-47487261D02*
X185934819Y-47772975D01*
X185934819Y-47772975D02*
X185887200Y-47868213D01*
X185887200Y-47868213D02*
X185839580Y-47915832D01*
X171685333Y-86859319D02*
X171352000Y-86383128D01*
X171113905Y-86859319D02*
X171113905Y-85859319D01*
X171113905Y-85859319D02*
X171494857Y-85859319D01*
X171494857Y-85859319D02*
X171590095Y-85906938D01*
X171590095Y-85906938D02*
X171637714Y-85954557D01*
X171637714Y-85954557D02*
X171685333Y-86049795D01*
X171685333Y-86049795D02*
X171685333Y-86192652D01*
X171685333Y-86192652D02*
X171637714Y-86287890D01*
X171637714Y-86287890D02*
X171590095Y-86335509D01*
X171590095Y-86335509D02*
X171494857Y-86383128D01*
X171494857Y-86383128D02*
X171113905Y-86383128D01*
X172066286Y-85954557D02*
X172113905Y-85906938D01*
X172113905Y-85906938D02*
X172209143Y-85859319D01*
X172209143Y-85859319D02*
X172447238Y-85859319D01*
X172447238Y-85859319D02*
X172542476Y-85906938D01*
X172542476Y-85906938D02*
X172590095Y-85954557D01*
X172590095Y-85954557D02*
X172637714Y-86049795D01*
X172637714Y-86049795D02*
X172637714Y-86145033D01*
X172637714Y-86145033D02*
X172590095Y-86287890D01*
X172590095Y-86287890D02*
X172018667Y-86859319D01*
X172018667Y-86859319D02*
X172637714Y-86859319D01*
X110791580Y-49519166D02*
X110839200Y-49566785D01*
X110839200Y-49566785D02*
X110886819Y-49709642D01*
X110886819Y-49709642D02*
X110886819Y-49804880D01*
X110886819Y-49804880D02*
X110839200Y-49947737D01*
X110839200Y-49947737D02*
X110743961Y-50042975D01*
X110743961Y-50042975D02*
X110648723Y-50090594D01*
X110648723Y-50090594D02*
X110458247Y-50138213D01*
X110458247Y-50138213D02*
X110315390Y-50138213D01*
X110315390Y-50138213D02*
X110124914Y-50090594D01*
X110124914Y-50090594D02*
X110029676Y-50042975D01*
X110029676Y-50042975D02*
X109934438Y-49947737D01*
X109934438Y-49947737D02*
X109886819Y-49804880D01*
X109886819Y-49804880D02*
X109886819Y-49709642D01*
X109886819Y-49709642D02*
X109934438Y-49566785D01*
X109934438Y-49566785D02*
X109982057Y-49519166D01*
X110886819Y-48566785D02*
X110886819Y-49138213D01*
X110886819Y-48852499D02*
X109886819Y-48852499D01*
X109886819Y-48852499D02*
X110029676Y-48947737D01*
X110029676Y-48947737D02*
X110124914Y-49042975D01*
X110124914Y-49042975D02*
X110172533Y-49138213D01*
D12*
%TO.C,C1*%
X174657000Y-46021748D02*
X174657000Y-46544252D01*
X176127000Y-46021748D02*
X176127000Y-46544252D01*
%TO.C,U1*%
X147008000Y-79688500D02*
X148508000Y-79688500D01*
X148508000Y-79688500D02*
X150008000Y-79688500D01*
X148508000Y-84008500D02*
X147008000Y-84008500D01*
X148508000Y-84008500D02*
X150008000Y-84008500D01*
X145358000Y-80098500D02*
X145028000Y-80338500D01*
X145028000Y-79858500D01*
X145358000Y-80098500D01*
G36*
X145358000Y-80098500D02*
G01*
X145028000Y-80338500D01*
X145028000Y-79858500D01*
X145358000Y-80098500D01*
G37*
%TO.C,C5*%
X145050000Y-74478748D02*
X145050000Y-75901252D01*
X146870000Y-74478748D02*
X146870000Y-75901252D01*
%TO.C,J1*%
X160378000Y-34306500D02*
X161708000Y-34306500D01*
X160378000Y-35636500D02*
X160378000Y-34306500D01*
X160378000Y-36906500D02*
X160378000Y-54746500D01*
X160378000Y-36906500D02*
X163038000Y-36906500D01*
X160378000Y-54746500D02*
X163038000Y-54746500D01*
X163038000Y-36906500D02*
X163038000Y-54746500D01*
%TO.C,C5*%
X145050000Y-37934748D02*
X145050000Y-39357252D01*
X146870000Y-37934748D02*
X146870000Y-39357252D01*
%TO.C,C7*%
X118553380Y-75630500D02*
X118553380Y-74826500D01*
X118593380Y-75861500D02*
X118593380Y-74595500D01*
X118633380Y-76030500D02*
X118633380Y-74426500D01*
X118673380Y-76168500D02*
X118673380Y-74288500D01*
X118713380Y-76287500D02*
X118713380Y-74169500D01*
X118753380Y-76393500D02*
X118753380Y-74063500D01*
X118793380Y-76490500D02*
X118793380Y-73966500D01*
X118833380Y-76578500D02*
X118833380Y-73878500D01*
X118873380Y-76660500D02*
X118873380Y-73796500D01*
X118913380Y-76737500D02*
X118913380Y-73719500D01*
X118953380Y-76809500D02*
X118953380Y-73647500D01*
X118993380Y-76878500D02*
X118993380Y-73578500D01*
X119033380Y-76942500D02*
X119033380Y-73514500D01*
X119073380Y-77004500D02*
X119073380Y-73452500D01*
X119113380Y-77062500D02*
X119113380Y-73394500D01*
X119153380Y-77118500D02*
X119153380Y-73338500D01*
X119193380Y-77172500D02*
X119193380Y-73284500D01*
X119233380Y-77223500D02*
X119233380Y-73233500D01*
X119273380Y-77272500D02*
X119273380Y-73184500D01*
X119313380Y-77320500D02*
X119313380Y-73136500D01*
X119353380Y-77365500D02*
X119353380Y-73091500D01*
X119393380Y-77410500D02*
X119393380Y-73046500D01*
X119433380Y-77452500D02*
X119433380Y-73004500D01*
X119473380Y-77493500D02*
X119473380Y-72963500D01*
X119513380Y-74188500D02*
X119513380Y-72923500D01*
X119513380Y-77533500D02*
X119513380Y-76268500D01*
X119553380Y-74188500D02*
X119553380Y-72885500D01*
X119553380Y-77571500D02*
X119553380Y-76268500D01*
X119593380Y-74188500D02*
X119593380Y-72848500D01*
X119593380Y-77608500D02*
X119593380Y-76268500D01*
X119633380Y-74188500D02*
X119633380Y-72812500D01*
X119633380Y-77644500D02*
X119633380Y-76268500D01*
X119673380Y-74188500D02*
X119673380Y-72778500D01*
X119673380Y-77678500D02*
X119673380Y-76268500D01*
X119713380Y-74188500D02*
X119713380Y-72744500D01*
X119713380Y-77712500D02*
X119713380Y-76268500D01*
X119753380Y-74188500D02*
X119753380Y-72712500D01*
X119753380Y-77744500D02*
X119753380Y-76268500D01*
X119793380Y-74188500D02*
X119793380Y-72680500D01*
X119793380Y-77776500D02*
X119793380Y-76268500D01*
X119833380Y-74188500D02*
X119833380Y-72650500D01*
X119833380Y-77806500D02*
X119833380Y-76268500D01*
X119873380Y-74188500D02*
X119873380Y-72621500D01*
X119873380Y-77835500D02*
X119873380Y-76268500D01*
X119913380Y-74188500D02*
X119913380Y-72592500D01*
X119913380Y-77864500D02*
X119913380Y-76268500D01*
X119953380Y-74188500D02*
X119953380Y-72564500D01*
X119953380Y-77892500D02*
X119953380Y-76268500D01*
X119993380Y-74188500D02*
X119993380Y-72538500D01*
X119993380Y-77918500D02*
X119993380Y-76268500D01*
X120033380Y-74188500D02*
X120033380Y-72512500D01*
X120033380Y-77944500D02*
X120033380Y-76268500D01*
X120073380Y-74188500D02*
X120073380Y-72486500D01*
X120073380Y-77970500D02*
X120073380Y-76268500D01*
X120113380Y-74188500D02*
X120113380Y-72462500D01*
X120113380Y-77994500D02*
X120113380Y-76268500D01*
X120153380Y-74188500D02*
X120153380Y-72438500D01*
X120153380Y-78018500D02*
X120153380Y-76268500D01*
X120193380Y-74188500D02*
X120193380Y-72416500D01*
X120193380Y-78040500D02*
X120193380Y-76268500D01*
X120233380Y-74188500D02*
X120233380Y-72394500D01*
X120233380Y-78062500D02*
X120233380Y-76268500D01*
X120273380Y-74188500D02*
X120273380Y-72372500D01*
X120273380Y-78084500D02*
X120273380Y-76268500D01*
X120313380Y-74188500D02*
X120313380Y-72352500D01*
X120313380Y-78104500D02*
X120313380Y-76268500D01*
X120353380Y-74188500D02*
X120353380Y-72332500D01*
X120353380Y-78124500D02*
X120353380Y-76268500D01*
X120393380Y-74188500D02*
X120393380Y-72312500D01*
X120393380Y-78144500D02*
X120393380Y-76268500D01*
X120433380Y-74188500D02*
X120433380Y-72294500D01*
X120433380Y-78162500D02*
X120433380Y-76268500D01*
X120473380Y-74188500D02*
X120473380Y-72276500D01*
X120473380Y-78180500D02*
X120473380Y-76268500D01*
X120513380Y-74188500D02*
X120513380Y-72258500D01*
X120513380Y-78198500D02*
X120513380Y-76268500D01*
X120553380Y-74188500D02*
X120553380Y-72242500D01*
X120553380Y-78214500D02*
X120553380Y-76268500D01*
X120593380Y-74188500D02*
X120593380Y-72226500D01*
X120593380Y-78230500D02*
X120593380Y-76268500D01*
X120633380Y-74188500D02*
X120633380Y-72210500D01*
X120633380Y-78246500D02*
X120633380Y-76268500D01*
X120673380Y-74188500D02*
X120673380Y-72195500D01*
X120673380Y-78261500D02*
X120673380Y-76268500D01*
X120713380Y-74188500D02*
X120713380Y-72181500D01*
X120713380Y-78275500D02*
X120713380Y-76268500D01*
X120753380Y-74188500D02*
X120753380Y-72167500D01*
X120753380Y-78289500D02*
X120753380Y-76268500D01*
X120793380Y-74188500D02*
X120793380Y-72154500D01*
X120793380Y-78302500D02*
X120793380Y-76268500D01*
X120833380Y-74188500D02*
X120833380Y-72142500D01*
X120833380Y-78314500D02*
X120833380Y-76268500D01*
X120873380Y-74188500D02*
X120873380Y-72130500D01*
X120873380Y-78326500D02*
X120873380Y-76268500D01*
X120913380Y-74188500D02*
X120913380Y-72118500D01*
X120913380Y-78338500D02*
X120913380Y-76268500D01*
X120953380Y-74188500D02*
X120953380Y-72107500D01*
X120953380Y-78349500D02*
X120953380Y-76268500D01*
X120993380Y-74188500D02*
X120993380Y-72097500D01*
X120993380Y-78359500D02*
X120993380Y-76268500D01*
X121033380Y-74188500D02*
X121033380Y-72087500D01*
X121033380Y-78369500D02*
X121033380Y-76268500D01*
X121073380Y-74188500D02*
X121073380Y-72078500D01*
X121073380Y-78378500D02*
X121073380Y-76268500D01*
X121114380Y-74188500D02*
X121114380Y-72069500D01*
X121114380Y-78387500D02*
X121114380Y-76268500D01*
X121154380Y-74188500D02*
X121154380Y-72061500D01*
X121154380Y-78395500D02*
X121154380Y-76268500D01*
X121194380Y-74188500D02*
X121194380Y-72053500D01*
X121194380Y-78403500D02*
X121194380Y-76268500D01*
X121234380Y-74188500D02*
X121234380Y-72046500D01*
X121234380Y-78410500D02*
X121234380Y-76268500D01*
X121274380Y-74188500D02*
X121274380Y-72039500D01*
X121274380Y-78417500D02*
X121274380Y-76268500D01*
X121314380Y-74188500D02*
X121314380Y-72033500D01*
X121314380Y-78423500D02*
X121314380Y-76268500D01*
X121354380Y-74188500D02*
X121354380Y-72027500D01*
X121354380Y-78429500D02*
X121354380Y-76268500D01*
X121394380Y-74188500D02*
X121394380Y-72022500D01*
X121394380Y-78434500D02*
X121394380Y-76268500D01*
X121434380Y-74188500D02*
X121434380Y-72017500D01*
X121434380Y-78439500D02*
X121434380Y-76268500D01*
X121474380Y-74188500D02*
X121474380Y-72013500D01*
X121474380Y-78443500D02*
X121474380Y-76268500D01*
X121514380Y-74188500D02*
X121514380Y-72010500D01*
X121514380Y-78446500D02*
X121514380Y-76268500D01*
X121554380Y-74188500D02*
X121554380Y-72006500D01*
X121554380Y-78450500D02*
X121554380Y-76268500D01*
X121594380Y-78452500D02*
X121594380Y-72004500D01*
X121634380Y-78455500D02*
X121634380Y-72001500D01*
X121674380Y-78456500D02*
X121674380Y-72000500D01*
X121714380Y-78458500D02*
X121714380Y-71998500D01*
X121754380Y-78458500D02*
X121754380Y-71998500D01*
X121794380Y-78458500D02*
X121794380Y-71998500D01*
X124979621Y-77382500D02*
X124979621Y-76752500D01*
X125294621Y-77067500D02*
X124664621Y-77067500D01*
X125064380Y-75228500D02*
G75*
G02*
X118524380Y-75228500I-3270000J0D01*
G01*
X118524380Y-75228500D02*
G75*
G02*
X125064380Y-75228500I3270000J0D01*
G01*
%TO.C,C3*%
X121460000Y-85337752D02*
X121460000Y-83915248D01*
X123280000Y-85337752D02*
X123280000Y-83915248D01*
X153940000Y-48793752D02*
X153940000Y-47371248D01*
X155760000Y-48793752D02*
X155760000Y-47371248D01*
%TO.C,U1*%
X179488000Y-79688500D02*
X180988000Y-79688500D01*
X180988000Y-79688500D02*
X182488000Y-79688500D01*
X180988000Y-84008500D02*
X179488000Y-84008500D01*
X180988000Y-84008500D02*
X182488000Y-84008500D01*
X177838000Y-80098500D02*
X177508000Y-80338500D01*
X177508000Y-79858500D01*
X177838000Y-80098500D01*
G36*
X177838000Y-80098500D02*
G01*
X177508000Y-80338500D01*
X177508000Y-79858500D01*
X177838000Y-80098500D01*
G37*
%TO.C,C4*%
X181086000Y-74555748D02*
X181086000Y-75978252D01*
X182906000Y-74555748D02*
X182906000Y-75978252D01*
%TO.C,J2*%
X166696000Y-46309500D02*
X166696000Y-43709500D01*
X169356000Y-43709500D02*
X166696000Y-43709500D01*
X169356000Y-46309500D02*
X166696000Y-46309500D01*
X169356000Y-46309500D02*
X169356000Y-43709500D01*
X169356000Y-47579500D02*
X169356000Y-48909500D01*
X169356000Y-48909500D02*
X168026000Y-48909500D01*
%TO.C,J1*%
X127898000Y-34306500D02*
X129228000Y-34306500D01*
X127898000Y-35636500D02*
X127898000Y-34306500D01*
X127898000Y-36906500D02*
X127898000Y-54746500D01*
X127898000Y-36906500D02*
X130558000Y-36906500D01*
X127898000Y-54746500D02*
X130558000Y-54746500D01*
X130558000Y-36906500D02*
X130558000Y-54746500D01*
%TO.C,C7*%
X183513380Y-75630500D02*
X183513380Y-74826500D01*
X183553380Y-75861500D02*
X183553380Y-74595500D01*
X183593380Y-76030500D02*
X183593380Y-74426500D01*
X183633380Y-76168500D02*
X183633380Y-74288500D01*
X183673380Y-76287500D02*
X183673380Y-74169500D01*
X183713380Y-76393500D02*
X183713380Y-74063500D01*
X183753380Y-76490500D02*
X183753380Y-73966500D01*
X183793380Y-76578500D02*
X183793380Y-73878500D01*
X183833380Y-76660500D02*
X183833380Y-73796500D01*
X183873380Y-76737500D02*
X183873380Y-73719500D01*
X183913380Y-76809500D02*
X183913380Y-73647500D01*
X183953380Y-76878500D02*
X183953380Y-73578500D01*
X183993380Y-76942500D02*
X183993380Y-73514500D01*
X184033380Y-77004500D02*
X184033380Y-73452500D01*
X184073380Y-77062500D02*
X184073380Y-73394500D01*
X184113380Y-77118500D02*
X184113380Y-73338500D01*
X184153380Y-77172500D02*
X184153380Y-73284500D01*
X184193380Y-77223500D02*
X184193380Y-73233500D01*
X184233380Y-77272500D02*
X184233380Y-73184500D01*
X184273380Y-77320500D02*
X184273380Y-73136500D01*
X184313380Y-77365500D02*
X184313380Y-73091500D01*
X184353380Y-77410500D02*
X184353380Y-73046500D01*
X184393380Y-77452500D02*
X184393380Y-73004500D01*
X184433380Y-77493500D02*
X184433380Y-72963500D01*
X184473380Y-74188500D02*
X184473380Y-72923500D01*
X184473380Y-77533500D02*
X184473380Y-76268500D01*
X184513380Y-74188500D02*
X184513380Y-72885500D01*
X184513380Y-77571500D02*
X184513380Y-76268500D01*
X184553380Y-74188500D02*
X184553380Y-72848500D01*
X184553380Y-77608500D02*
X184553380Y-76268500D01*
X184593380Y-74188500D02*
X184593380Y-72812500D01*
X184593380Y-77644500D02*
X184593380Y-76268500D01*
X184633380Y-74188500D02*
X184633380Y-72778500D01*
X184633380Y-77678500D02*
X184633380Y-76268500D01*
X184673380Y-74188500D02*
X184673380Y-72744500D01*
X184673380Y-77712500D02*
X184673380Y-76268500D01*
X184713380Y-74188500D02*
X184713380Y-72712500D01*
X184713380Y-77744500D02*
X184713380Y-76268500D01*
X184753380Y-74188500D02*
X184753380Y-72680500D01*
X184753380Y-77776500D02*
X184753380Y-76268500D01*
X184793380Y-74188500D02*
X184793380Y-72650500D01*
X184793380Y-77806500D02*
X184793380Y-76268500D01*
X184833380Y-74188500D02*
X184833380Y-72621500D01*
X184833380Y-77835500D02*
X184833380Y-76268500D01*
X184873380Y-74188500D02*
X184873380Y-72592500D01*
X184873380Y-77864500D02*
X184873380Y-76268500D01*
X184913380Y-74188500D02*
X184913380Y-72564500D01*
X184913380Y-77892500D02*
X184913380Y-76268500D01*
X184953380Y-74188500D02*
X184953380Y-72538500D01*
X184953380Y-77918500D02*
X184953380Y-76268500D01*
X184993380Y-74188500D02*
X184993380Y-72512500D01*
X184993380Y-77944500D02*
X184993380Y-76268500D01*
X185033380Y-74188500D02*
X185033380Y-72486500D01*
X185033380Y-77970500D02*
X185033380Y-76268500D01*
X185073380Y-74188500D02*
X185073380Y-72462500D01*
X185073380Y-77994500D02*
X185073380Y-76268500D01*
X185113380Y-74188500D02*
X185113380Y-72438500D01*
X185113380Y-78018500D02*
X185113380Y-76268500D01*
X185153380Y-74188500D02*
X185153380Y-72416500D01*
X185153380Y-78040500D02*
X185153380Y-76268500D01*
X185193380Y-74188500D02*
X185193380Y-72394500D01*
X185193380Y-78062500D02*
X185193380Y-76268500D01*
X185233380Y-74188500D02*
X185233380Y-72372500D01*
X185233380Y-78084500D02*
X185233380Y-76268500D01*
X185273380Y-74188500D02*
X185273380Y-72352500D01*
X185273380Y-78104500D02*
X185273380Y-76268500D01*
X185313380Y-74188500D02*
X185313380Y-72332500D01*
X185313380Y-78124500D02*
X185313380Y-76268500D01*
X185353380Y-74188500D02*
X185353380Y-72312500D01*
X185353380Y-78144500D02*
X185353380Y-76268500D01*
X185393380Y-74188500D02*
X185393380Y-72294500D01*
X185393380Y-78162500D02*
X185393380Y-76268500D01*
X185433380Y-74188500D02*
X185433380Y-72276500D01*
X185433380Y-78180500D02*
X185433380Y-76268500D01*
X185473380Y-74188500D02*
X185473380Y-72258500D01*
X185473380Y-78198500D02*
X185473380Y-76268500D01*
X185513380Y-74188500D02*
X185513380Y-72242500D01*
X185513380Y-78214500D02*
X185513380Y-76268500D01*
X185553380Y-74188500D02*
X185553380Y-72226500D01*
X185553380Y-78230500D02*
X185553380Y-76268500D01*
X185593380Y-74188500D02*
X185593380Y-72210500D01*
X185593380Y-78246500D02*
X185593380Y-76268500D01*
X185633380Y-74188500D02*
X185633380Y-72195500D01*
X185633380Y-78261500D02*
X185633380Y-76268500D01*
X185673380Y-74188500D02*
X185673380Y-72181500D01*
X185673380Y-78275500D02*
X185673380Y-76268500D01*
X185713380Y-74188500D02*
X185713380Y-72167500D01*
X185713380Y-78289500D02*
X185713380Y-76268500D01*
X185753380Y-74188500D02*
X185753380Y-72154500D01*
X185753380Y-78302500D02*
X185753380Y-76268500D01*
X185793380Y-74188500D02*
X185793380Y-72142500D01*
X185793380Y-78314500D02*
X185793380Y-76268500D01*
X185833380Y-74188500D02*
X185833380Y-72130500D01*
X185833380Y-78326500D02*
X185833380Y-76268500D01*
X185873380Y-74188500D02*
X185873380Y-72118500D01*
X185873380Y-78338500D02*
X185873380Y-76268500D01*
X185913380Y-74188500D02*
X185913380Y-72107500D01*
X185913380Y-78349500D02*
X185913380Y-76268500D01*
X185953380Y-74188500D02*
X185953380Y-72097500D01*
X185953380Y-78359500D02*
X185953380Y-76268500D01*
X185993380Y-74188500D02*
X185993380Y-72087500D01*
X185993380Y-78369500D02*
X185993380Y-76268500D01*
X186033380Y-74188500D02*
X186033380Y-72078500D01*
X186033380Y-78378500D02*
X186033380Y-76268500D01*
X186074380Y-74188500D02*
X186074380Y-72069500D01*
X186074380Y-78387500D02*
X186074380Y-76268500D01*
X186114380Y-74188500D02*
X186114380Y-72061500D01*
X186114380Y-78395500D02*
X186114380Y-76268500D01*
X186154380Y-74188500D02*
X186154380Y-72053500D01*
X186154380Y-78403500D02*
X186154380Y-76268500D01*
X186194380Y-74188500D02*
X186194380Y-72046500D01*
X186194380Y-78410500D02*
X186194380Y-76268500D01*
X186234380Y-74188500D02*
X186234380Y-72039500D01*
X186234380Y-78417500D02*
X186234380Y-76268500D01*
X186274380Y-74188500D02*
X186274380Y-72033500D01*
X186274380Y-78423500D02*
X186274380Y-76268500D01*
X186314380Y-74188500D02*
X186314380Y-72027500D01*
X186314380Y-78429500D02*
X186314380Y-76268500D01*
X186354380Y-74188500D02*
X186354380Y-72022500D01*
X186354380Y-78434500D02*
X186354380Y-76268500D01*
X186394380Y-74188500D02*
X186394380Y-72017500D01*
X186394380Y-78439500D02*
X186394380Y-76268500D01*
X186434380Y-74188500D02*
X186434380Y-72013500D01*
X186434380Y-78443500D02*
X186434380Y-76268500D01*
X186474380Y-74188500D02*
X186474380Y-72010500D01*
X186474380Y-78446500D02*
X186474380Y-76268500D01*
X186514380Y-74188500D02*
X186514380Y-72006500D01*
X186514380Y-78450500D02*
X186514380Y-76268500D01*
X186554380Y-78452500D02*
X186554380Y-72004500D01*
X186594380Y-78455500D02*
X186594380Y-72001500D01*
X186634380Y-78456500D02*
X186634380Y-72000500D01*
X186674380Y-78458500D02*
X186674380Y-71998500D01*
X186714380Y-78458500D02*
X186714380Y-71998500D01*
X186754380Y-78458500D02*
X186754380Y-71998500D01*
X189939621Y-77382500D02*
X189939621Y-76752500D01*
X190254621Y-77067500D02*
X189624621Y-77067500D01*
X190024380Y-75228500D02*
G75*
G02*
X183484380Y-75228500I-3270000J0D01*
G01*
X183484380Y-75228500D02*
G75*
G02*
X190024380Y-75228500I3270000J0D01*
G01*
%TO.C,C4*%
X181086000Y-38011748D02*
X181086000Y-39434252D01*
X182906000Y-38011748D02*
X182906000Y-39434252D01*
%TO.C,C1*%
X142177000Y-82565748D02*
X142177000Y-83088252D01*
X143647000Y-82565748D02*
X143647000Y-83088252D01*
%TO.C,C4*%
X116126000Y-74555748D02*
X116126000Y-75978252D01*
X117946000Y-74555748D02*
X117946000Y-75978252D01*
%TO.C,R1*%
X106664936Y-80589500D02*
X107119064Y-80589500D01*
X106664936Y-82059500D02*
X107119064Y-82059500D01*
%TO.C,C1*%
X142177000Y-46021748D02*
X142177000Y-46544252D01*
X143647000Y-46021748D02*
X143647000Y-46544252D01*
%TO.C,J2*%
X134216000Y-82853500D02*
X134216000Y-80253500D01*
X136876000Y-80253500D02*
X134216000Y-80253500D01*
X136876000Y-82853500D02*
X134216000Y-82853500D01*
X136876000Y-82853500D02*
X136876000Y-80253500D01*
X136876000Y-84123500D02*
X136876000Y-85453500D01*
X136876000Y-85453500D02*
X135546000Y-85453500D01*
%TO.C,R2*%
X139144936Y-83637500D02*
X139599064Y-83637500D01*
X139144936Y-85107500D02*
X139599064Y-85107500D01*
%TO.C,J2*%
X101736000Y-46309500D02*
X101736000Y-43709500D01*
X104396000Y-43709500D02*
X101736000Y-43709500D01*
X104396000Y-46309500D02*
X101736000Y-46309500D01*
X104396000Y-46309500D02*
X104396000Y-43709500D01*
X104396000Y-47579500D02*
X104396000Y-48909500D01*
X104396000Y-48909500D02*
X103066000Y-48909500D01*
%TO.C,R1*%
X139144936Y-44045500D02*
X139599064Y-44045500D01*
X139144936Y-45515500D02*
X139599064Y-45515500D01*
%TO.C,C7*%
X151033380Y-75630500D02*
X151033380Y-74826500D01*
X151073380Y-75861500D02*
X151073380Y-74595500D01*
X151113380Y-76030500D02*
X151113380Y-74426500D01*
X151153380Y-76168500D02*
X151153380Y-74288500D01*
X151193380Y-76287500D02*
X151193380Y-74169500D01*
X151233380Y-76393500D02*
X151233380Y-74063500D01*
X151273380Y-76490500D02*
X151273380Y-73966500D01*
X151313380Y-76578500D02*
X151313380Y-73878500D01*
X151353380Y-76660500D02*
X151353380Y-73796500D01*
X151393380Y-76737500D02*
X151393380Y-73719500D01*
X151433380Y-76809500D02*
X151433380Y-73647500D01*
X151473380Y-76878500D02*
X151473380Y-73578500D01*
X151513380Y-76942500D02*
X151513380Y-73514500D01*
X151553380Y-77004500D02*
X151553380Y-73452500D01*
X151593380Y-77062500D02*
X151593380Y-73394500D01*
X151633380Y-77118500D02*
X151633380Y-73338500D01*
X151673380Y-77172500D02*
X151673380Y-73284500D01*
X151713380Y-77223500D02*
X151713380Y-73233500D01*
X151753380Y-77272500D02*
X151753380Y-73184500D01*
X151793380Y-77320500D02*
X151793380Y-73136500D01*
X151833380Y-77365500D02*
X151833380Y-73091500D01*
X151873380Y-77410500D02*
X151873380Y-73046500D01*
X151913380Y-77452500D02*
X151913380Y-73004500D01*
X151953380Y-77493500D02*
X151953380Y-72963500D01*
X151993380Y-74188500D02*
X151993380Y-72923500D01*
X151993380Y-77533500D02*
X151993380Y-76268500D01*
X152033380Y-74188500D02*
X152033380Y-72885500D01*
X152033380Y-77571500D02*
X152033380Y-76268500D01*
X152073380Y-74188500D02*
X152073380Y-72848500D01*
X152073380Y-77608500D02*
X152073380Y-76268500D01*
X152113380Y-74188500D02*
X152113380Y-72812500D01*
X152113380Y-77644500D02*
X152113380Y-76268500D01*
X152153380Y-74188500D02*
X152153380Y-72778500D01*
X152153380Y-77678500D02*
X152153380Y-76268500D01*
X152193380Y-74188500D02*
X152193380Y-72744500D01*
X152193380Y-77712500D02*
X152193380Y-76268500D01*
X152233380Y-74188500D02*
X152233380Y-72712500D01*
X152233380Y-77744500D02*
X152233380Y-76268500D01*
X152273380Y-74188500D02*
X152273380Y-72680500D01*
X152273380Y-77776500D02*
X152273380Y-76268500D01*
X152313380Y-74188500D02*
X152313380Y-72650500D01*
X152313380Y-77806500D02*
X152313380Y-76268500D01*
X152353380Y-74188500D02*
X152353380Y-72621500D01*
X152353380Y-77835500D02*
X152353380Y-76268500D01*
X152393380Y-74188500D02*
X152393380Y-72592500D01*
X152393380Y-77864500D02*
X152393380Y-76268500D01*
X152433380Y-74188500D02*
X152433380Y-72564500D01*
X152433380Y-77892500D02*
X152433380Y-76268500D01*
X152473380Y-74188500D02*
X152473380Y-72538500D01*
X152473380Y-77918500D02*
X152473380Y-76268500D01*
X152513380Y-74188500D02*
X152513380Y-72512500D01*
X152513380Y-77944500D02*
X152513380Y-76268500D01*
X152553380Y-74188500D02*
X152553380Y-72486500D01*
X152553380Y-77970500D02*
X152553380Y-76268500D01*
X152593380Y-74188500D02*
X152593380Y-72462500D01*
X152593380Y-77994500D02*
X152593380Y-76268500D01*
X152633380Y-74188500D02*
X152633380Y-72438500D01*
X152633380Y-78018500D02*
X152633380Y-76268500D01*
X152673380Y-74188500D02*
X152673380Y-72416500D01*
X152673380Y-78040500D02*
X152673380Y-76268500D01*
X152713380Y-74188500D02*
X152713380Y-72394500D01*
X152713380Y-78062500D02*
X152713380Y-76268500D01*
X152753380Y-74188500D02*
X152753380Y-72372500D01*
X152753380Y-78084500D02*
X152753380Y-76268500D01*
X152793380Y-74188500D02*
X152793380Y-72352500D01*
X152793380Y-78104500D02*
X152793380Y-76268500D01*
X152833380Y-74188500D02*
X152833380Y-72332500D01*
X152833380Y-78124500D02*
X152833380Y-76268500D01*
X152873380Y-74188500D02*
X152873380Y-72312500D01*
X152873380Y-78144500D02*
X152873380Y-76268500D01*
X152913380Y-74188500D02*
X152913380Y-72294500D01*
X152913380Y-78162500D02*
X152913380Y-76268500D01*
X152953380Y-74188500D02*
X152953380Y-72276500D01*
X152953380Y-78180500D02*
X152953380Y-76268500D01*
X152993380Y-74188500D02*
X152993380Y-72258500D01*
X152993380Y-78198500D02*
X152993380Y-76268500D01*
X153033380Y-74188500D02*
X153033380Y-72242500D01*
X153033380Y-78214500D02*
X153033380Y-76268500D01*
X153073380Y-74188500D02*
X153073380Y-72226500D01*
X153073380Y-78230500D02*
X153073380Y-76268500D01*
X153113380Y-74188500D02*
X153113380Y-72210500D01*
X153113380Y-78246500D02*
X153113380Y-76268500D01*
X153153380Y-74188500D02*
X153153380Y-72195500D01*
X153153380Y-78261500D02*
X153153380Y-76268500D01*
X153193380Y-74188500D02*
X153193380Y-72181500D01*
X153193380Y-78275500D02*
X153193380Y-76268500D01*
X153233380Y-74188500D02*
X153233380Y-72167500D01*
X153233380Y-78289500D02*
X153233380Y-76268500D01*
X153273380Y-74188500D02*
X153273380Y-72154500D01*
X153273380Y-78302500D02*
X153273380Y-76268500D01*
X153313380Y-74188500D02*
X153313380Y-72142500D01*
X153313380Y-78314500D02*
X153313380Y-76268500D01*
X153353380Y-74188500D02*
X153353380Y-72130500D01*
X153353380Y-78326500D02*
X153353380Y-76268500D01*
X153393380Y-74188500D02*
X153393380Y-72118500D01*
X153393380Y-78338500D02*
X153393380Y-76268500D01*
X153433380Y-74188500D02*
X153433380Y-72107500D01*
X153433380Y-78349500D02*
X153433380Y-76268500D01*
X153473380Y-74188500D02*
X153473380Y-72097500D01*
X153473380Y-78359500D02*
X153473380Y-76268500D01*
X153513380Y-74188500D02*
X153513380Y-72087500D01*
X153513380Y-78369500D02*
X153513380Y-76268500D01*
X153553380Y-74188500D02*
X153553380Y-72078500D01*
X153553380Y-78378500D02*
X153553380Y-76268500D01*
X153594380Y-74188500D02*
X153594380Y-72069500D01*
X153594380Y-78387500D02*
X153594380Y-76268500D01*
X153634380Y-74188500D02*
X153634380Y-72061500D01*
X153634380Y-78395500D02*
X153634380Y-76268500D01*
X153674380Y-74188500D02*
X153674380Y-72053500D01*
X153674380Y-78403500D02*
X153674380Y-76268500D01*
X153714380Y-74188500D02*
X153714380Y-72046500D01*
X153714380Y-78410500D02*
X153714380Y-76268500D01*
X153754380Y-74188500D02*
X153754380Y-72039500D01*
X153754380Y-78417500D02*
X153754380Y-76268500D01*
X153794380Y-74188500D02*
X153794380Y-72033500D01*
X153794380Y-78423500D02*
X153794380Y-76268500D01*
X153834380Y-74188500D02*
X153834380Y-72027500D01*
X153834380Y-78429500D02*
X153834380Y-76268500D01*
X153874380Y-74188500D02*
X153874380Y-72022500D01*
X153874380Y-78434500D02*
X153874380Y-76268500D01*
X153914380Y-74188500D02*
X153914380Y-72017500D01*
X153914380Y-78439500D02*
X153914380Y-76268500D01*
X153954380Y-74188500D02*
X153954380Y-72013500D01*
X153954380Y-78443500D02*
X153954380Y-76268500D01*
X153994380Y-74188500D02*
X153994380Y-72010500D01*
X153994380Y-78446500D02*
X153994380Y-76268500D01*
X154034380Y-74188500D02*
X154034380Y-72006500D01*
X154034380Y-78450500D02*
X154034380Y-76268500D01*
X154074380Y-78452500D02*
X154074380Y-72004500D01*
X154114380Y-78455500D02*
X154114380Y-72001500D01*
X154154380Y-78456500D02*
X154154380Y-72000500D01*
X154194380Y-78458500D02*
X154194380Y-71998500D01*
X154234380Y-78458500D02*
X154234380Y-71998500D01*
X154274380Y-78458500D02*
X154274380Y-71998500D01*
X157459621Y-77382500D02*
X157459621Y-76752500D01*
X157774621Y-77067500D02*
X157144621Y-77067500D01*
X157544380Y-75228500D02*
G75*
G02*
X151004380Y-75228500I-3270000J0D01*
G01*
X151004380Y-75228500D02*
G75*
G02*
X157544380Y-75228500I3270000J0D01*
G01*
%TO.C,U1*%
X179488000Y-43144500D02*
X180988000Y-43144500D01*
X180988000Y-43144500D02*
X182488000Y-43144500D01*
X180988000Y-47464500D02*
X179488000Y-47464500D01*
X180988000Y-47464500D02*
X182488000Y-47464500D01*
X177838000Y-43554500D02*
X177508000Y-43794500D01*
X177508000Y-43314500D01*
X177838000Y-43554500D01*
G36*
X177838000Y-43554500D02*
G01*
X177508000Y-43794500D01*
X177508000Y-43314500D01*
X177838000Y-43554500D01*
G37*
%TO.C,C5*%
X112570000Y-74478748D02*
X112570000Y-75901252D01*
X114390000Y-74478748D02*
X114390000Y-75901252D01*
%TO.C,R2*%
X106664936Y-47093500D02*
X107119064Y-47093500D01*
X106664936Y-48563500D02*
X107119064Y-48563500D01*
%TO.C,J2*%
X134216000Y-46309500D02*
X134216000Y-43709500D01*
X136876000Y-43709500D02*
X134216000Y-43709500D01*
X136876000Y-46309500D02*
X134216000Y-46309500D01*
X136876000Y-46309500D02*
X136876000Y-43709500D01*
X136876000Y-47579500D02*
X136876000Y-48909500D01*
X136876000Y-48909500D02*
X135546000Y-48909500D01*
%TO.C,C7*%
X151033380Y-39086500D02*
X151033380Y-38282500D01*
X151073380Y-39317500D02*
X151073380Y-38051500D01*
X151113380Y-39486500D02*
X151113380Y-37882500D01*
X151153380Y-39624500D02*
X151153380Y-37744500D01*
X151193380Y-39743500D02*
X151193380Y-37625500D01*
X151233380Y-39849500D02*
X151233380Y-37519500D01*
X151273380Y-39946500D02*
X151273380Y-37422500D01*
X151313380Y-40034500D02*
X151313380Y-37334500D01*
X151353380Y-40116500D02*
X151353380Y-37252500D01*
X151393380Y-40193500D02*
X151393380Y-37175500D01*
X151433380Y-40265500D02*
X151433380Y-37103500D01*
X151473380Y-40334500D02*
X151473380Y-37034500D01*
X151513380Y-40398500D02*
X151513380Y-36970500D01*
X151553380Y-40460500D02*
X151553380Y-36908500D01*
X151593380Y-40518500D02*
X151593380Y-36850500D01*
X151633380Y-40574500D02*
X151633380Y-36794500D01*
X151673380Y-40628500D02*
X151673380Y-36740500D01*
X151713380Y-40679500D02*
X151713380Y-36689500D01*
X151753380Y-40728500D02*
X151753380Y-36640500D01*
X151793380Y-40776500D02*
X151793380Y-36592500D01*
X151833380Y-40821500D02*
X151833380Y-36547500D01*
X151873380Y-40866500D02*
X151873380Y-36502500D01*
X151913380Y-40908500D02*
X151913380Y-36460500D01*
X151953380Y-40949500D02*
X151953380Y-36419500D01*
X151993380Y-37644500D02*
X151993380Y-36379500D01*
X151993380Y-40989500D02*
X151993380Y-39724500D01*
X152033380Y-37644500D02*
X152033380Y-36341500D01*
X152033380Y-41027500D02*
X152033380Y-39724500D01*
X152073380Y-37644500D02*
X152073380Y-36304500D01*
X152073380Y-41064500D02*
X152073380Y-39724500D01*
X152113380Y-37644500D02*
X152113380Y-36268500D01*
X152113380Y-41100500D02*
X152113380Y-39724500D01*
X152153380Y-37644500D02*
X152153380Y-36234500D01*
X152153380Y-41134500D02*
X152153380Y-39724500D01*
X152193380Y-37644500D02*
X152193380Y-36200500D01*
X152193380Y-41168500D02*
X152193380Y-39724500D01*
X152233380Y-37644500D02*
X152233380Y-36168500D01*
X152233380Y-41200500D02*
X152233380Y-39724500D01*
X152273380Y-37644500D02*
X152273380Y-36136500D01*
X152273380Y-41232500D02*
X152273380Y-39724500D01*
X152313380Y-37644500D02*
X152313380Y-36106500D01*
X152313380Y-41262500D02*
X152313380Y-39724500D01*
X152353380Y-37644500D02*
X152353380Y-36077500D01*
X152353380Y-41291500D02*
X152353380Y-39724500D01*
X152393380Y-37644500D02*
X152393380Y-36048500D01*
X152393380Y-41320500D02*
X152393380Y-39724500D01*
X152433380Y-37644500D02*
X152433380Y-36020500D01*
X152433380Y-41348500D02*
X152433380Y-39724500D01*
X152473380Y-37644500D02*
X152473380Y-35994500D01*
X152473380Y-41374500D02*
X152473380Y-39724500D01*
X152513380Y-37644500D02*
X152513380Y-35968500D01*
X152513380Y-41400500D02*
X152513380Y-39724500D01*
X152553380Y-37644500D02*
X152553380Y-35942500D01*
X152553380Y-41426500D02*
X152553380Y-39724500D01*
X152593380Y-37644500D02*
X152593380Y-35918500D01*
X152593380Y-41450500D02*
X152593380Y-39724500D01*
X152633380Y-37644500D02*
X152633380Y-35894500D01*
X152633380Y-41474500D02*
X152633380Y-39724500D01*
X152673380Y-37644500D02*
X152673380Y-35872500D01*
X152673380Y-41496500D02*
X152673380Y-39724500D01*
X152713380Y-37644500D02*
X152713380Y-35850500D01*
X152713380Y-41518500D02*
X152713380Y-39724500D01*
X152753380Y-37644500D02*
X152753380Y-35828500D01*
X152753380Y-41540500D02*
X152753380Y-39724500D01*
X152793380Y-37644500D02*
X152793380Y-35808500D01*
X152793380Y-41560500D02*
X152793380Y-39724500D01*
X152833380Y-37644500D02*
X152833380Y-35788500D01*
X152833380Y-41580500D02*
X152833380Y-39724500D01*
X152873380Y-37644500D02*
X152873380Y-35768500D01*
X152873380Y-41600500D02*
X152873380Y-39724500D01*
X152913380Y-37644500D02*
X152913380Y-35750500D01*
X152913380Y-41618500D02*
X152913380Y-39724500D01*
X152953380Y-37644500D02*
X152953380Y-35732500D01*
X152953380Y-41636500D02*
X152953380Y-39724500D01*
X152993380Y-37644500D02*
X152993380Y-35714500D01*
X152993380Y-41654500D02*
X152993380Y-39724500D01*
X153033380Y-37644500D02*
X153033380Y-35698500D01*
X153033380Y-41670500D02*
X153033380Y-39724500D01*
X153073380Y-37644500D02*
X153073380Y-35682500D01*
X153073380Y-41686500D02*
X153073380Y-39724500D01*
X153113380Y-37644500D02*
X153113380Y-35666500D01*
X153113380Y-41702500D02*
X153113380Y-39724500D01*
X153153380Y-37644500D02*
X153153380Y-35651500D01*
X153153380Y-41717500D02*
X153153380Y-39724500D01*
X153193380Y-37644500D02*
X153193380Y-35637500D01*
X153193380Y-41731500D02*
X153193380Y-39724500D01*
X153233380Y-37644500D02*
X153233380Y-35623500D01*
X153233380Y-41745500D02*
X153233380Y-39724500D01*
X153273380Y-37644500D02*
X153273380Y-35610500D01*
X153273380Y-41758500D02*
X153273380Y-39724500D01*
X153313380Y-37644500D02*
X153313380Y-35598500D01*
X153313380Y-41770500D02*
X153313380Y-39724500D01*
X153353380Y-37644500D02*
X153353380Y-35586500D01*
X153353380Y-41782500D02*
X153353380Y-39724500D01*
X153393380Y-37644500D02*
X153393380Y-35574500D01*
X153393380Y-41794500D02*
X153393380Y-39724500D01*
X153433380Y-37644500D02*
X153433380Y-35563500D01*
X153433380Y-41805500D02*
X153433380Y-39724500D01*
X153473380Y-37644500D02*
X153473380Y-35553500D01*
X153473380Y-41815500D02*
X153473380Y-39724500D01*
X153513380Y-37644500D02*
X153513380Y-35543500D01*
X153513380Y-41825500D02*
X153513380Y-39724500D01*
X153553380Y-37644500D02*
X153553380Y-35534500D01*
X153553380Y-41834500D02*
X153553380Y-39724500D01*
X153594380Y-37644500D02*
X153594380Y-35525500D01*
X153594380Y-41843500D02*
X153594380Y-39724500D01*
X153634380Y-37644500D02*
X153634380Y-35517500D01*
X153634380Y-41851500D02*
X153634380Y-39724500D01*
X153674380Y-37644500D02*
X153674380Y-35509500D01*
X153674380Y-41859500D02*
X153674380Y-39724500D01*
X153714380Y-37644500D02*
X153714380Y-35502500D01*
X153714380Y-41866500D02*
X153714380Y-39724500D01*
X153754380Y-37644500D02*
X153754380Y-35495500D01*
X153754380Y-41873500D02*
X153754380Y-39724500D01*
X153794380Y-37644500D02*
X153794380Y-35489500D01*
X153794380Y-41879500D02*
X153794380Y-39724500D01*
X153834380Y-37644500D02*
X153834380Y-35483500D01*
X153834380Y-41885500D02*
X153834380Y-39724500D01*
X153874380Y-37644500D02*
X153874380Y-35478500D01*
X153874380Y-41890500D02*
X153874380Y-39724500D01*
X153914380Y-37644500D02*
X153914380Y-35473500D01*
X153914380Y-41895500D02*
X153914380Y-39724500D01*
X153954380Y-37644500D02*
X153954380Y-35469500D01*
X153954380Y-41899500D02*
X153954380Y-39724500D01*
X153994380Y-37644500D02*
X153994380Y-35466500D01*
X153994380Y-41902500D02*
X153994380Y-39724500D01*
X154034380Y-37644500D02*
X154034380Y-35462500D01*
X154034380Y-41906500D02*
X154034380Y-39724500D01*
X154074380Y-41908500D02*
X154074380Y-35460500D01*
X154114380Y-41911500D02*
X154114380Y-35457500D01*
X154154380Y-41912500D02*
X154154380Y-35456500D01*
X154194380Y-41914500D02*
X154194380Y-35454500D01*
X154234380Y-41914500D02*
X154234380Y-35454500D01*
X154274380Y-41914500D02*
X154274380Y-35454500D01*
X157459621Y-40838500D02*
X157459621Y-40208500D01*
X157774621Y-40523500D02*
X157144621Y-40523500D01*
X157544380Y-38684500D02*
G75*
G02*
X151004380Y-38684500I-3270000J0D01*
G01*
X151004380Y-38684500D02*
G75*
G02*
X157544380Y-38684500I3270000J0D01*
G01*
%TO.C,C1*%
X109697000Y-82565748D02*
X109697000Y-83088252D01*
X111167000Y-82565748D02*
X111167000Y-83088252D01*
%TO.C,C3*%
X186420000Y-85337752D02*
X186420000Y-83915248D01*
X188240000Y-85337752D02*
X188240000Y-83915248D01*
%TO.C,J1*%
X127898000Y-70850500D02*
X129228000Y-70850500D01*
X127898000Y-72180500D02*
X127898000Y-70850500D01*
X127898000Y-73450500D02*
X127898000Y-91290500D01*
X127898000Y-73450500D02*
X130558000Y-73450500D01*
X127898000Y-91290500D02*
X130558000Y-91290500D01*
X130558000Y-73450500D02*
X130558000Y-91290500D01*
%TO.C,U1*%
X114528000Y-79688500D02*
X116028000Y-79688500D01*
X116028000Y-79688500D02*
X117528000Y-79688500D01*
X116028000Y-84008500D02*
X114528000Y-84008500D01*
X116028000Y-84008500D02*
X117528000Y-84008500D01*
X112878000Y-80098500D02*
X112548000Y-80338500D01*
X112548000Y-79858500D01*
X112878000Y-80098500D01*
G36*
X112878000Y-80098500D02*
G01*
X112548000Y-80338500D01*
X112548000Y-79858500D01*
X112878000Y-80098500D01*
G37*
%TO.C,C4*%
X148606000Y-74555748D02*
X148606000Y-75978252D01*
X150426000Y-74555748D02*
X150426000Y-75978252D01*
%TO.C,R1*%
X106664936Y-44045500D02*
X107119064Y-44045500D01*
X106664936Y-45515500D02*
X107119064Y-45515500D01*
%TO.C,J1*%
X160378000Y-70850500D02*
X161708000Y-70850500D01*
X160378000Y-72180500D02*
X160378000Y-70850500D01*
X160378000Y-73450500D02*
X160378000Y-91290500D01*
X160378000Y-73450500D02*
X163038000Y-73450500D01*
X160378000Y-91290500D02*
X163038000Y-91290500D01*
X163038000Y-73450500D02*
X163038000Y-91290500D01*
%TO.C,C3*%
X121460000Y-48793752D02*
X121460000Y-47371248D01*
X123280000Y-48793752D02*
X123280000Y-47371248D01*
%TO.C,J1*%
X192858000Y-70850500D02*
X194188000Y-70850500D01*
X192858000Y-72180500D02*
X192858000Y-70850500D01*
X192858000Y-73450500D02*
X192858000Y-91290500D01*
X192858000Y-73450500D02*
X195518000Y-73450500D01*
X192858000Y-91290500D02*
X195518000Y-91290500D01*
X195518000Y-73450500D02*
X195518000Y-91290500D01*
%TO.C,R2*%
X139144936Y-47093500D02*
X139599064Y-47093500D01*
X139144936Y-48563500D02*
X139599064Y-48563500D01*
%TO.C,J2*%
X166696000Y-82853500D02*
X166696000Y-80253500D01*
X169356000Y-80253500D02*
X166696000Y-80253500D01*
X169356000Y-82853500D02*
X166696000Y-82853500D01*
X169356000Y-82853500D02*
X169356000Y-80253500D01*
X169356000Y-84123500D02*
X169356000Y-85453500D01*
X169356000Y-85453500D02*
X168026000Y-85453500D01*
%TO.C,U1*%
X147008000Y-43144500D02*
X148508000Y-43144500D01*
X148508000Y-43144500D02*
X150008000Y-43144500D01*
X148508000Y-47464500D02*
X147008000Y-47464500D01*
X148508000Y-47464500D02*
X150008000Y-47464500D01*
X145358000Y-43554500D02*
X145028000Y-43794500D01*
X145028000Y-43314500D01*
X145358000Y-43554500D01*
G36*
X145358000Y-43554500D02*
G01*
X145028000Y-43794500D01*
X145028000Y-43314500D01*
X145358000Y-43554500D01*
G37*
%TO.C,C5*%
X177530000Y-74478748D02*
X177530000Y-75901252D01*
X179350000Y-74478748D02*
X179350000Y-75901252D01*
%TO.C,J1*%
X192858000Y-34306500D02*
X194188000Y-34306500D01*
X192858000Y-35636500D02*
X192858000Y-34306500D01*
X192858000Y-36906500D02*
X192858000Y-54746500D01*
X192858000Y-36906500D02*
X195518000Y-36906500D01*
X192858000Y-54746500D02*
X195518000Y-54746500D01*
X195518000Y-36906500D02*
X195518000Y-54746500D01*
%TO.C,J2*%
X101736000Y-82853500D02*
X101736000Y-80253500D01*
X104396000Y-80253500D02*
X101736000Y-80253500D01*
X104396000Y-82853500D02*
X101736000Y-82853500D01*
X104396000Y-82853500D02*
X104396000Y-80253500D01*
X104396000Y-84123500D02*
X104396000Y-85453500D01*
X104396000Y-85453500D02*
X103066000Y-85453500D01*
%TO.C,R1*%
X171624936Y-44045500D02*
X172079064Y-44045500D01*
X171624936Y-45515500D02*
X172079064Y-45515500D01*
%TO.C,C4*%
X148606000Y-38011748D02*
X148606000Y-39434252D01*
X150426000Y-38011748D02*
X150426000Y-39434252D01*
%TO.C,C5*%
X177530000Y-37934748D02*
X177530000Y-39357252D01*
X179350000Y-37934748D02*
X179350000Y-39357252D01*
%TO.C,C7*%
X183513380Y-39086500D02*
X183513380Y-38282500D01*
X183553380Y-39317500D02*
X183553380Y-38051500D01*
X183593380Y-39486500D02*
X183593380Y-37882500D01*
X183633380Y-39624500D02*
X183633380Y-37744500D01*
X183673380Y-39743500D02*
X183673380Y-37625500D01*
X183713380Y-39849500D02*
X183713380Y-37519500D01*
X183753380Y-39946500D02*
X183753380Y-37422500D01*
X183793380Y-40034500D02*
X183793380Y-37334500D01*
X183833380Y-40116500D02*
X183833380Y-37252500D01*
X183873380Y-40193500D02*
X183873380Y-37175500D01*
X183913380Y-40265500D02*
X183913380Y-37103500D01*
X183953380Y-40334500D02*
X183953380Y-37034500D01*
X183993380Y-40398500D02*
X183993380Y-36970500D01*
X184033380Y-40460500D02*
X184033380Y-36908500D01*
X184073380Y-40518500D02*
X184073380Y-36850500D01*
X184113380Y-40574500D02*
X184113380Y-36794500D01*
X184153380Y-40628500D02*
X184153380Y-36740500D01*
X184193380Y-40679500D02*
X184193380Y-36689500D01*
X184233380Y-40728500D02*
X184233380Y-36640500D01*
X184273380Y-40776500D02*
X184273380Y-36592500D01*
X184313380Y-40821500D02*
X184313380Y-36547500D01*
X184353380Y-40866500D02*
X184353380Y-36502500D01*
X184393380Y-40908500D02*
X184393380Y-36460500D01*
X184433380Y-40949500D02*
X184433380Y-36419500D01*
X184473380Y-37644500D02*
X184473380Y-36379500D01*
X184473380Y-40989500D02*
X184473380Y-39724500D01*
X184513380Y-37644500D02*
X184513380Y-36341500D01*
X184513380Y-41027500D02*
X184513380Y-39724500D01*
X184553380Y-37644500D02*
X184553380Y-36304500D01*
X184553380Y-41064500D02*
X184553380Y-39724500D01*
X184593380Y-37644500D02*
X184593380Y-36268500D01*
X184593380Y-41100500D02*
X184593380Y-39724500D01*
X184633380Y-37644500D02*
X184633380Y-36234500D01*
X184633380Y-41134500D02*
X184633380Y-39724500D01*
X184673380Y-37644500D02*
X184673380Y-36200500D01*
X184673380Y-41168500D02*
X184673380Y-39724500D01*
X184713380Y-37644500D02*
X184713380Y-36168500D01*
X184713380Y-41200500D02*
X184713380Y-39724500D01*
X184753380Y-37644500D02*
X184753380Y-36136500D01*
X184753380Y-41232500D02*
X184753380Y-39724500D01*
X184793380Y-37644500D02*
X184793380Y-36106500D01*
X184793380Y-41262500D02*
X184793380Y-39724500D01*
X184833380Y-37644500D02*
X184833380Y-36077500D01*
X184833380Y-41291500D02*
X184833380Y-39724500D01*
X184873380Y-37644500D02*
X184873380Y-36048500D01*
X184873380Y-41320500D02*
X184873380Y-39724500D01*
X184913380Y-37644500D02*
X184913380Y-36020500D01*
X184913380Y-41348500D02*
X184913380Y-39724500D01*
X184953380Y-37644500D02*
X184953380Y-35994500D01*
X184953380Y-41374500D02*
X184953380Y-39724500D01*
X184993380Y-37644500D02*
X184993380Y-35968500D01*
X184993380Y-41400500D02*
X184993380Y-39724500D01*
X185033380Y-37644500D02*
X185033380Y-35942500D01*
X185033380Y-41426500D02*
X185033380Y-39724500D01*
X185073380Y-37644500D02*
X185073380Y-35918500D01*
X185073380Y-41450500D02*
X185073380Y-39724500D01*
X185113380Y-37644500D02*
X185113380Y-35894500D01*
X185113380Y-41474500D02*
X185113380Y-39724500D01*
X185153380Y-37644500D02*
X185153380Y-35872500D01*
X185153380Y-41496500D02*
X185153380Y-39724500D01*
X185193380Y-37644500D02*
X185193380Y-35850500D01*
X185193380Y-41518500D02*
X185193380Y-39724500D01*
X185233380Y-37644500D02*
X185233380Y-35828500D01*
X185233380Y-41540500D02*
X185233380Y-39724500D01*
X185273380Y-37644500D02*
X185273380Y-35808500D01*
X185273380Y-41560500D02*
X185273380Y-39724500D01*
X185313380Y-37644500D02*
X185313380Y-35788500D01*
X185313380Y-41580500D02*
X185313380Y-39724500D01*
X185353380Y-37644500D02*
X185353380Y-35768500D01*
X185353380Y-41600500D02*
X185353380Y-39724500D01*
X185393380Y-37644500D02*
X185393380Y-35750500D01*
X185393380Y-41618500D02*
X185393380Y-39724500D01*
X185433380Y-37644500D02*
X185433380Y-35732500D01*
X185433380Y-41636500D02*
X185433380Y-39724500D01*
X185473380Y-37644500D02*
X185473380Y-35714500D01*
X185473380Y-41654500D02*
X185473380Y-39724500D01*
X185513380Y-37644500D02*
X185513380Y-35698500D01*
X185513380Y-41670500D02*
X185513380Y-39724500D01*
X185553380Y-37644500D02*
X185553380Y-35682500D01*
X185553380Y-41686500D02*
X185553380Y-39724500D01*
X185593380Y-37644500D02*
X185593380Y-35666500D01*
X185593380Y-41702500D02*
X185593380Y-39724500D01*
X185633380Y-37644500D02*
X185633380Y-35651500D01*
X185633380Y-41717500D02*
X185633380Y-39724500D01*
X185673380Y-37644500D02*
X185673380Y-35637500D01*
X185673380Y-41731500D02*
X185673380Y-39724500D01*
X185713380Y-37644500D02*
X185713380Y-35623500D01*
X185713380Y-41745500D02*
X185713380Y-39724500D01*
X185753380Y-37644500D02*
X185753380Y-35610500D01*
X185753380Y-41758500D02*
X185753380Y-39724500D01*
X185793380Y-37644500D02*
X185793380Y-35598500D01*
X185793380Y-41770500D02*
X185793380Y-39724500D01*
X185833380Y-37644500D02*
X185833380Y-35586500D01*
X185833380Y-41782500D02*
X185833380Y-39724500D01*
X185873380Y-37644500D02*
X185873380Y-35574500D01*
X185873380Y-41794500D02*
X185873380Y-39724500D01*
X185913380Y-37644500D02*
X185913380Y-35563500D01*
X185913380Y-41805500D02*
X185913380Y-39724500D01*
X185953380Y-37644500D02*
X185953380Y-35553500D01*
X185953380Y-41815500D02*
X185953380Y-39724500D01*
X185993380Y-37644500D02*
X185993380Y-35543500D01*
X185993380Y-41825500D02*
X185993380Y-39724500D01*
X186033380Y-37644500D02*
X186033380Y-35534500D01*
X186033380Y-41834500D02*
X186033380Y-39724500D01*
X186074380Y-37644500D02*
X186074380Y-35525500D01*
X186074380Y-41843500D02*
X186074380Y-39724500D01*
X186114380Y-37644500D02*
X186114380Y-35517500D01*
X186114380Y-41851500D02*
X186114380Y-39724500D01*
X186154380Y-37644500D02*
X186154380Y-35509500D01*
X186154380Y-41859500D02*
X186154380Y-39724500D01*
X186194380Y-37644500D02*
X186194380Y-35502500D01*
X186194380Y-41866500D02*
X186194380Y-39724500D01*
X186234380Y-37644500D02*
X186234380Y-35495500D01*
X186234380Y-41873500D02*
X186234380Y-39724500D01*
X186274380Y-37644500D02*
X186274380Y-35489500D01*
X186274380Y-41879500D02*
X186274380Y-39724500D01*
X186314380Y-37644500D02*
X186314380Y-35483500D01*
X186314380Y-41885500D02*
X186314380Y-39724500D01*
X186354380Y-37644500D02*
X186354380Y-35478500D01*
X186354380Y-41890500D02*
X186354380Y-39724500D01*
X186394380Y-37644500D02*
X186394380Y-35473500D01*
X186394380Y-41895500D02*
X186394380Y-39724500D01*
X186434380Y-37644500D02*
X186434380Y-35469500D01*
X186434380Y-41899500D02*
X186434380Y-39724500D01*
X186474380Y-37644500D02*
X186474380Y-35466500D01*
X186474380Y-41902500D02*
X186474380Y-39724500D01*
X186514380Y-37644500D02*
X186514380Y-35462500D01*
X186514380Y-41906500D02*
X186514380Y-39724500D01*
X186554380Y-41908500D02*
X186554380Y-35460500D01*
X186594380Y-41911500D02*
X186594380Y-35457500D01*
X186634380Y-41912500D02*
X186634380Y-35456500D01*
X186674380Y-41914500D02*
X186674380Y-35454500D01*
X186714380Y-41914500D02*
X186714380Y-35454500D01*
X186754380Y-41914500D02*
X186754380Y-35454500D01*
X189939621Y-40838500D02*
X189939621Y-40208500D01*
X190254621Y-40523500D02*
X189624621Y-40523500D01*
X190024380Y-38684500D02*
G75*
G02*
X183484380Y-38684500I-3270000J0D01*
G01*
X183484380Y-38684500D02*
G75*
G02*
X190024380Y-38684500I3270000J0D01*
G01*
X118553380Y-39086500D02*
X118553380Y-38282500D01*
X118593380Y-39317500D02*
X118593380Y-38051500D01*
X118633380Y-39486500D02*
X118633380Y-37882500D01*
X118673380Y-39624500D02*
X118673380Y-37744500D01*
X118713380Y-39743500D02*
X118713380Y-37625500D01*
X118753380Y-39849500D02*
X118753380Y-37519500D01*
X118793380Y-39946500D02*
X118793380Y-37422500D01*
X118833380Y-40034500D02*
X118833380Y-37334500D01*
X118873380Y-40116500D02*
X118873380Y-37252500D01*
X118913380Y-40193500D02*
X118913380Y-37175500D01*
X118953380Y-40265500D02*
X118953380Y-37103500D01*
X118993380Y-40334500D02*
X118993380Y-37034500D01*
X119033380Y-40398500D02*
X119033380Y-36970500D01*
X119073380Y-40460500D02*
X119073380Y-36908500D01*
X119113380Y-40518500D02*
X119113380Y-36850500D01*
X119153380Y-40574500D02*
X119153380Y-36794500D01*
X119193380Y-40628500D02*
X119193380Y-36740500D01*
X119233380Y-40679500D02*
X119233380Y-36689500D01*
X119273380Y-40728500D02*
X119273380Y-36640500D01*
X119313380Y-40776500D02*
X119313380Y-36592500D01*
X119353380Y-40821500D02*
X119353380Y-36547500D01*
X119393380Y-40866500D02*
X119393380Y-36502500D01*
X119433380Y-40908500D02*
X119433380Y-36460500D01*
X119473380Y-40949500D02*
X119473380Y-36419500D01*
X119513380Y-37644500D02*
X119513380Y-36379500D01*
X119513380Y-40989500D02*
X119513380Y-39724500D01*
X119553380Y-37644500D02*
X119553380Y-36341500D01*
X119553380Y-41027500D02*
X119553380Y-39724500D01*
X119593380Y-37644500D02*
X119593380Y-36304500D01*
X119593380Y-41064500D02*
X119593380Y-39724500D01*
X119633380Y-37644500D02*
X119633380Y-36268500D01*
X119633380Y-41100500D02*
X119633380Y-39724500D01*
X119673380Y-37644500D02*
X119673380Y-36234500D01*
X119673380Y-41134500D02*
X119673380Y-39724500D01*
X119713380Y-37644500D02*
X119713380Y-36200500D01*
X119713380Y-41168500D02*
X119713380Y-39724500D01*
X119753380Y-37644500D02*
X119753380Y-36168500D01*
X119753380Y-41200500D02*
X119753380Y-39724500D01*
X119793380Y-37644500D02*
X119793380Y-36136500D01*
X119793380Y-41232500D02*
X119793380Y-39724500D01*
X119833380Y-37644500D02*
X119833380Y-36106500D01*
X119833380Y-41262500D02*
X119833380Y-39724500D01*
X119873380Y-37644500D02*
X119873380Y-36077500D01*
X119873380Y-41291500D02*
X119873380Y-39724500D01*
X119913380Y-37644500D02*
X119913380Y-36048500D01*
X119913380Y-41320500D02*
X119913380Y-39724500D01*
X119953380Y-37644500D02*
X119953380Y-36020500D01*
X119953380Y-41348500D02*
X119953380Y-39724500D01*
X119993380Y-37644500D02*
X119993380Y-35994500D01*
X119993380Y-41374500D02*
X119993380Y-39724500D01*
X120033380Y-37644500D02*
X120033380Y-35968500D01*
X120033380Y-41400500D02*
X120033380Y-39724500D01*
X120073380Y-37644500D02*
X120073380Y-35942500D01*
X120073380Y-41426500D02*
X120073380Y-39724500D01*
X120113380Y-37644500D02*
X120113380Y-35918500D01*
X120113380Y-41450500D02*
X120113380Y-39724500D01*
X120153380Y-37644500D02*
X120153380Y-35894500D01*
X120153380Y-41474500D02*
X120153380Y-39724500D01*
X120193380Y-37644500D02*
X120193380Y-35872500D01*
X120193380Y-41496500D02*
X120193380Y-39724500D01*
X120233380Y-37644500D02*
X120233380Y-35850500D01*
X120233380Y-41518500D02*
X120233380Y-39724500D01*
X120273380Y-37644500D02*
X120273380Y-35828500D01*
X120273380Y-41540500D02*
X120273380Y-39724500D01*
X120313380Y-37644500D02*
X120313380Y-35808500D01*
X120313380Y-41560500D02*
X120313380Y-39724500D01*
X120353380Y-37644500D02*
X120353380Y-35788500D01*
X120353380Y-41580500D02*
X120353380Y-39724500D01*
X120393380Y-37644500D02*
X120393380Y-35768500D01*
X120393380Y-41600500D02*
X120393380Y-39724500D01*
X120433380Y-37644500D02*
X120433380Y-35750500D01*
X120433380Y-41618500D02*
X120433380Y-39724500D01*
X120473380Y-37644500D02*
X120473380Y-35732500D01*
X120473380Y-41636500D02*
X120473380Y-39724500D01*
X120513380Y-37644500D02*
X120513380Y-35714500D01*
X120513380Y-41654500D02*
X120513380Y-39724500D01*
X120553380Y-37644500D02*
X120553380Y-35698500D01*
X120553380Y-41670500D02*
X120553380Y-39724500D01*
X120593380Y-37644500D02*
X120593380Y-35682500D01*
X120593380Y-41686500D02*
X120593380Y-39724500D01*
X120633380Y-37644500D02*
X120633380Y-35666500D01*
X120633380Y-41702500D02*
X120633380Y-39724500D01*
X120673380Y-37644500D02*
X120673380Y-35651500D01*
X120673380Y-41717500D02*
X120673380Y-39724500D01*
X120713380Y-37644500D02*
X120713380Y-35637500D01*
X120713380Y-41731500D02*
X120713380Y-39724500D01*
X120753380Y-37644500D02*
X120753380Y-35623500D01*
X120753380Y-41745500D02*
X120753380Y-39724500D01*
X120793380Y-37644500D02*
X120793380Y-35610500D01*
X120793380Y-41758500D02*
X120793380Y-39724500D01*
X120833380Y-37644500D02*
X120833380Y-35598500D01*
X120833380Y-41770500D02*
X120833380Y-39724500D01*
X120873380Y-37644500D02*
X120873380Y-35586500D01*
X120873380Y-41782500D02*
X120873380Y-39724500D01*
X120913380Y-37644500D02*
X120913380Y-35574500D01*
X120913380Y-41794500D02*
X120913380Y-39724500D01*
X120953380Y-37644500D02*
X120953380Y-35563500D01*
X120953380Y-41805500D02*
X120953380Y-39724500D01*
X120993380Y-37644500D02*
X120993380Y-35553500D01*
X120993380Y-41815500D02*
X120993380Y-39724500D01*
X121033380Y-37644500D02*
X121033380Y-35543500D01*
X121033380Y-41825500D02*
X121033380Y-39724500D01*
X121073380Y-37644500D02*
X121073380Y-35534500D01*
X121073380Y-41834500D02*
X121073380Y-39724500D01*
X121114380Y-37644500D02*
X121114380Y-35525500D01*
X121114380Y-41843500D02*
X121114380Y-39724500D01*
X121154380Y-37644500D02*
X121154380Y-35517500D01*
X121154380Y-41851500D02*
X121154380Y-39724500D01*
X121194380Y-37644500D02*
X121194380Y-35509500D01*
X121194380Y-41859500D02*
X121194380Y-39724500D01*
X121234380Y-37644500D02*
X121234380Y-35502500D01*
X121234380Y-41866500D02*
X121234380Y-39724500D01*
X121274380Y-37644500D02*
X121274380Y-35495500D01*
X121274380Y-41873500D02*
X121274380Y-39724500D01*
X121314380Y-37644500D02*
X121314380Y-35489500D01*
X121314380Y-41879500D02*
X121314380Y-39724500D01*
X121354380Y-37644500D02*
X121354380Y-35483500D01*
X121354380Y-41885500D02*
X121354380Y-39724500D01*
X121394380Y-37644500D02*
X121394380Y-35478500D01*
X121394380Y-41890500D02*
X121394380Y-39724500D01*
X121434380Y-37644500D02*
X121434380Y-35473500D01*
X121434380Y-41895500D02*
X121434380Y-39724500D01*
X121474380Y-37644500D02*
X121474380Y-35469500D01*
X121474380Y-41899500D02*
X121474380Y-39724500D01*
X121514380Y-37644500D02*
X121514380Y-35466500D01*
X121514380Y-41902500D02*
X121514380Y-39724500D01*
X121554380Y-37644500D02*
X121554380Y-35462500D01*
X121554380Y-41906500D02*
X121554380Y-39724500D01*
X121594380Y-41908500D02*
X121594380Y-35460500D01*
X121634380Y-41911500D02*
X121634380Y-35457500D01*
X121674380Y-41912500D02*
X121674380Y-35456500D01*
X121714380Y-41914500D02*
X121714380Y-35454500D01*
X121754380Y-41914500D02*
X121754380Y-35454500D01*
X121794380Y-41914500D02*
X121794380Y-35454500D01*
X124979621Y-40838500D02*
X124979621Y-40208500D01*
X125294621Y-40523500D02*
X124664621Y-40523500D01*
X125064380Y-38684500D02*
G75*
G02*
X118524380Y-38684500I-3270000J0D01*
G01*
X118524380Y-38684500D02*
G75*
G02*
X125064380Y-38684500I3270000J0D01*
G01*
%TO.C,R2*%
X171624936Y-47093500D02*
X172079064Y-47093500D01*
X171624936Y-48563500D02*
X172079064Y-48563500D01*
X106664936Y-83637500D02*
X107119064Y-83637500D01*
X106664936Y-85107500D02*
X107119064Y-85107500D01*
%TO.C,C1*%
X174657000Y-82565748D02*
X174657000Y-83088252D01*
X176127000Y-82565748D02*
X176127000Y-83088252D01*
%TO.C,C5*%
X112570000Y-37934748D02*
X112570000Y-39357252D01*
X114390000Y-37934748D02*
X114390000Y-39357252D01*
%TO.C,R1*%
X171624936Y-80589500D02*
X172079064Y-80589500D01*
X171624936Y-82059500D02*
X172079064Y-82059500D01*
%TO.C,C3*%
X153940000Y-85337752D02*
X153940000Y-83915248D01*
X155760000Y-85337752D02*
X155760000Y-83915248D01*
%TO.C,U1*%
X114528000Y-43144500D02*
X116028000Y-43144500D01*
X116028000Y-43144500D02*
X117528000Y-43144500D01*
X116028000Y-47464500D02*
X114528000Y-47464500D01*
X116028000Y-47464500D02*
X117528000Y-47464500D01*
X112878000Y-43554500D02*
X112548000Y-43794500D01*
X112548000Y-43314500D01*
X112878000Y-43554500D01*
G36*
X112878000Y-43554500D02*
G01*
X112548000Y-43794500D01*
X112548000Y-43314500D01*
X112878000Y-43554500D01*
G37*
%TO.C,C4*%
X116126000Y-38011748D02*
X116126000Y-39434252D01*
X117946000Y-38011748D02*
X117946000Y-39434252D01*
%TO.C,R1*%
X139144936Y-80589500D02*
X139599064Y-80589500D01*
X139144936Y-82059500D02*
X139599064Y-82059500D01*
%TO.C,C3*%
X186420000Y-48793752D02*
X186420000Y-47371248D01*
X188240000Y-48793752D02*
X188240000Y-47371248D01*
%TO.C,R2*%
X171624936Y-83637500D02*
X172079064Y-83637500D01*
X171624936Y-85107500D02*
X172079064Y-85107500D01*
%TO.C,C1*%
X109697000Y-46021748D02*
X109697000Y-46544252D01*
X111167000Y-46021748D02*
X111167000Y-46544252D01*
%TD*%
M02*
