M48
; DRILL file {KiCad 8.0.4} date 2024-08-17T22:53:11+0200
; FORMAT={-:-/ absolute / inch / decimal}
; #@! TF.CreationDate,2024-08-17T22:53:11+02:00
; #@! TF.GenerationSoftware,Kicad,Pcbnew,8.0.4
; #@! TF.FileFunction,NonPlated,1,2,NPTH
FMAT,2
INCH
; #@! TA.AperFunction,NonPlated,NPTH,ComponentDrill
T1C0.0197
; #@! TA.AperFunction,NonPlated,NPTH,ComponentDrill
T2C0.0866
%
G90
G05
T1
X4.3087Y-1.063
X4.3087Y-2.423
X4.3087Y-2.5018
X4.3087Y-3.8618
X4.348Y-1.063
X4.348Y-2.423
X4.348Y-2.5018
X4.348Y-3.8618
X4.3874Y-1.063
X4.3874Y-2.423
X4.3874Y-2.5018
X4.3874Y-3.8618
X4.4268Y-1.063
X4.4268Y-2.423
X4.4268Y-2.5018
X4.4268Y-3.8618
X4.7087Y-1.063
X4.7087Y-2.423
X4.7087Y-2.5018
X4.7087Y-3.8618
X4.748Y-1.063
X4.748Y-2.423
X4.748Y-2.5018
X4.748Y-3.8618
X4.7874Y-1.063
X4.7874Y-2.423
X4.7874Y-2.5018
X4.7874Y-3.8618
X4.8268Y-1.063
X4.8268Y-2.423
X4.8268Y-2.5018
X4.8268Y-3.8618
X5.1677Y-1.4573
X5.1677Y-1.4967
X5.1677Y-1.536
X5.1677Y-1.5754
X5.1677Y-1.9106
X5.1677Y-1.95
X5.1677Y-1.9894
X5.1677Y-2.0287
X5.1677Y-2.896
X5.1677Y-2.9354
X5.1677Y-2.9748
X5.1677Y-3.0141
X5.1677Y-3.3494
X5.1677Y-3.3887
X5.1677Y-3.4281
X5.1677Y-3.4675
X5.2465Y-1.4573
X5.2465Y-1.4967
X5.2465Y-1.536
X5.2465Y-1.5754
X5.2465Y-1.9106
X5.2465Y-1.95
X5.2465Y-1.9894
X5.2465Y-2.0287
X5.2465Y-2.896
X5.2465Y-2.9354
X5.2465Y-2.9748
X5.2465Y-3.0141
X5.2465Y-3.3494
X5.2465Y-3.3887
X5.2465Y-3.4281
X5.2465Y-3.4675
X5.5874Y-1.063
X5.5874Y-2.423
X5.5874Y-2.5018
X5.5874Y-3.8618
X5.6268Y-1.063
X5.6268Y-2.423
X5.6268Y-2.5018
X5.6268Y-3.8618
X5.6661Y-1.063
X5.6661Y-2.423
X5.6661Y-2.5018
X5.6661Y-3.8618
X5.7055Y-1.063
X5.7055Y-2.423
X5.7055Y-2.5018
X5.7055Y-3.8618
X5.9874Y-1.063
X5.9874Y-2.423
X5.9874Y-2.5018
X5.9874Y-3.8618
X6.0268Y-1.063
X6.0268Y-2.423
X6.0268Y-2.5018
X6.0268Y-3.8618
X6.0661Y-1.063
X6.0661Y-2.423
X6.0661Y-2.5018
X6.0661Y-3.8618
X6.1055Y-1.063
X6.1055Y-2.423
X6.1055Y-2.5018
X6.1055Y-3.8618
X6.4465Y-1.4573
X6.4465Y-1.4967
X6.4465Y-1.536
X6.4465Y-1.5754
X6.4465Y-1.9106
X6.4465Y-1.95
X6.4465Y-1.9894
X6.4465Y-2.0287
X6.4465Y-2.896
X6.4465Y-2.9354
X6.4465Y-2.9748
X6.4465Y-3.0141
X6.4465Y-3.3494
X6.4465Y-3.3887
X6.4465Y-3.4281
X6.4465Y-3.4675
X6.5252Y-1.4573
X6.5252Y-1.4967
X6.5252Y-1.536
X6.5252Y-1.5754
X6.5252Y-1.9106
X6.5252Y-1.95
X6.5252Y-1.9894
X6.5252Y-2.0287
X6.5252Y-2.896
X6.5252Y-2.9354
X6.5252Y-2.9748
X6.5252Y-3.0141
X6.5252Y-3.3494
X6.5252Y-3.3887
X6.5252Y-3.4281
X6.5252Y-3.4675
X6.8661Y-1.063
X6.8661Y-2.423
X6.8661Y-2.5018
X6.8661Y-3.8618
X6.9055Y-1.063
X6.9055Y-2.423
X6.9055Y-2.5018
X6.9055Y-3.8618
X6.9449Y-1.063
X6.9449Y-2.423
X6.9449Y-2.5018
X6.9449Y-3.8618
X6.9843Y-1.063
X6.9843Y-2.423
X6.9843Y-2.5018
X6.9843Y-3.8618
X7.2661Y-1.063
X7.2661Y-2.423
X7.2661Y-2.5018
X7.2661Y-3.8618
X7.3055Y-1.063
X7.3055Y-2.423
X7.3055Y-2.5018
X7.3055Y-3.8618
X7.3449Y-1.063
X7.3449Y-2.423
X7.3449Y-2.5018
X7.3449Y-3.8618
X7.3843Y-1.063
X7.3843Y-2.423
X7.3843Y-2.5018
X7.3843Y-3.8618
T2
X4.0877Y-1.183
X4.0877Y-2.303
X4.0877Y-2.6218
X4.0877Y-3.7418
X5.0477Y-1.183
X5.0477Y-2.303
X5.0477Y-2.6218
X5.0477Y-3.7418
X5.3665Y-1.183
X5.3665Y-2.303
X5.3665Y-2.6218
X5.3665Y-3.7418
X6.3265Y-1.183
X6.3265Y-2.303
X6.3265Y-2.6218
X6.3265Y-3.7418
X6.6452Y-1.183
X6.6452Y-2.303
X6.6452Y-2.6218
X6.6452Y-3.7418
X7.6052Y-1.183
X7.6052Y-2.303
X7.6052Y-2.6218
X7.6052Y-3.7418
M30
