M48
; DRILL file {KiCad 8.0.4} date 2024-08-17T22:53:11+0200
; FORMAT={-:-/ absolute / inch / decimal}
; #@! TF.CreationDate,2024-08-17T22:53:11+02:00
; #@! TF.GenerationSoftware,Kicad,Pcbnew,8.0.4
; #@! TF.FileFunction,Plated,1,2,PTH
FMAT,2
INCH
; #@! TA.AperFunction,Plated,PTH,ComponentDrill
T1C0.0079
; #@! TA.AperFunction,Plated,PTH,ViaDrill
T2C0.0118
; #@! TA.AperFunction,Plated,PTH,ComponentDrill
T3C0.0315
; #@! TA.AperFunction,Plated,PTH,ComponentDrill
T4C0.0394
%
G90
G05
T1
X4.5483Y-1.7443
X4.5483Y-1.7836
X4.5483Y-1.823
X4.5483Y-3.183
X4.5483Y-3.2224
X4.5483Y-3.2618
X4.5877Y-1.7443
X4.5877Y-1.7836
X4.5877Y-1.823
X4.5877Y-3.183
X4.5877Y-3.2224
X4.5877Y-3.2618
X5.8271Y-1.7443
X5.8271Y-1.7836
X5.8271Y-1.823
X5.8271Y-3.183
X5.8271Y-3.2224
X5.8271Y-3.2618
X5.8665Y-1.7443
X5.8665Y-1.7836
X5.8665Y-1.823
X5.8665Y-3.183
X5.8665Y-3.2224
X5.8665Y-3.2618
X7.1058Y-1.7443
X7.1058Y-1.7836
X7.1058Y-1.823
X7.1058Y-3.183
X7.1058Y-3.2224
X7.1058Y-3.2618
X7.1452Y-1.7443
X7.1452Y-1.7836
X7.1452Y-1.823
X7.1452Y-3.183
X7.1452Y-3.2224
X7.1452Y-3.2618
T2
X4.0677Y-1.323
X4.0677Y-1.423
X4.0677Y-1.523
X4.0677Y-1.623
X4.0677Y-2.023
X4.0677Y-2.123
X4.0677Y-2.7618
X4.0677Y-2.8618
X4.0677Y-2.9618
X4.0677Y-3.0618
X4.0677Y-3.4618
X4.0677Y-3.5618
X4.1677Y-1.323
X4.1677Y-1.423
X4.1677Y-1.523
X4.1677Y-1.623
X4.1677Y-1.823
X4.1677Y-2.023
X4.1677Y-2.123
X4.1677Y-2.7618
X4.1677Y-2.8618
X4.1677Y-2.9618
X4.1677Y-3.0618
X4.1677Y-3.2618
X4.1677Y-3.4618
X4.1677Y-3.5618
X4.2675Y-2.0273
X4.2675Y-3.466
X4.2677Y-1.123
X4.2677Y-1.223
X4.2677Y-1.423
X4.2677Y-1.523
X4.2677Y-1.623
X4.2677Y-1.693
X4.2677Y-2.123
X4.2677Y-2.223
X4.2677Y-2.323
X4.2677Y-2.5618
X4.2677Y-2.6618
X4.2677Y-2.8618
X4.2677Y-2.9618
X4.2677Y-3.0618
X4.2677Y-3.1318
X4.2677Y-3.5618
X4.2677Y-3.6618
X4.2677Y-3.7618
X4.2777Y-1.823
X4.2777Y-3.2618
X4.3677Y-1.123
X4.3677Y-1.223
X4.3677Y-1.423
X4.3677Y-1.523
X4.3677Y-1.623
X4.3677Y-1.693
X4.3677Y-2.023
X4.3677Y-2.223
X4.3677Y-2.323
X4.3677Y-2.5618
X4.3677Y-2.6618
X4.3677Y-2.8618
X4.3677Y-2.9618
X4.3677Y-3.0618
X4.3677Y-3.1318
X4.3677Y-3.4618
X4.3677Y-3.6618
X4.3677Y-3.7618
X4.3688Y-2.1227
X4.3688Y-3.5615
X4.4077Y-1.763
X4.4077Y-1.893
X4.4077Y-3.2018
X4.4077Y-3.3318
X4.4677Y-1.123
X4.4677Y-1.223
X4.4677Y-1.323
X4.4677Y-1.393
X4.4677Y-1.953
X4.4677Y-2.023
X4.4677Y-2.123
X4.4677Y-2.223
X4.4677Y-2.323
X4.4677Y-2.5618
X4.4677Y-2.6618
X4.4677Y-2.7618
X4.4677Y-2.8318
X4.4677Y-3.3918
X4.4677Y-3.4618
X4.4677Y-3.5618
X4.4677Y-3.6618
X4.4677Y-3.7618
X4.5377Y-1.443
X4.5377Y-1.603
X4.5377Y-1.893
X4.5377Y-2.8818
X4.5377Y-3.0418
X4.5377Y-3.3318
X4.5677Y-1.123
X4.5677Y-1.223
X4.5677Y-1.323
X4.5677Y-2.023
X4.5677Y-2.123
X4.5677Y-2.223
X4.5677Y-2.323
X4.5677Y-2.5618
X4.5677Y-2.6618
X4.5677Y-2.7618
X4.5677Y-3.4618
X4.5677Y-3.5618
X4.5677Y-3.6618
X4.5677Y-3.7618
X4.6077Y-1.393
X4.6077Y-1.893
X4.6077Y-2.8318
X4.6077Y-3.3318
X4.6677Y-1.123
X4.6677Y-1.223
X4.6677Y-1.323
X4.6677Y-1.893
X4.6677Y-2.023
X4.6677Y-2.123
X4.6677Y-2.223
X4.6677Y-2.323
X4.6677Y-2.5618
X4.6677Y-2.6618
X4.6677Y-2.7618
X4.6677Y-3.3318
X4.6677Y-3.4618
X4.6677Y-3.5618
X4.6677Y-3.6618
X4.6677Y-3.7618
X4.6777Y-1.413
X4.6777Y-1.613
X4.6777Y-2.8518
X4.6777Y-3.0518
X4.7377Y-1.833
X4.7377Y-1.893
X4.7377Y-1.963
X4.7377Y-3.2718
X4.7377Y-3.3318
X4.7377Y-3.4018
X4.7677Y-1.123
X4.7677Y-1.223
X4.7677Y-1.323
X4.7677Y-2.023
X4.7677Y-2.123
X4.7677Y-2.223
X4.7677Y-2.323
X4.7677Y-2.5618
X4.7677Y-2.6618
X4.7677Y-2.7618
X4.7677Y-3.4618
X4.7677Y-3.5618
X4.7677Y-3.6618
X4.7677Y-3.7618
X4.8177Y-2.173
X4.8177Y-3.6118
X4.8666Y-2.3228
X4.8666Y-3.7616
X4.8677Y-1.123
X4.8677Y-1.223
X4.8677Y-1.323
X4.8677Y-2.023
X4.8677Y-2.123
X4.8677Y-2.223
X4.8677Y-2.5618
X4.8677Y-2.6618
X4.8677Y-2.7618
X4.8677Y-3.4618
X4.8677Y-3.5618
X4.8677Y-3.6618
X4.8977Y-1.963
X4.8977Y-3.4018
X4.9077Y-2.073
X4.9077Y-3.5118
X4.9177Y-1.823
X4.9177Y-3.2618
X4.9277Y-1.663
X4.9277Y-3.1018
X4.9377Y-1.773
X4.9377Y-3.2118
X4.9477Y-1.853
X4.9477Y-3.2918
X4.9677Y-1.323
X4.9677Y-2.183
X4.9677Y-2.7618
X4.9677Y-3.6218
X4.9777Y-2.053
X4.9777Y-3.4918
X4.9977Y-1.463
X4.9977Y-1.853
X4.9977Y-2.9018
X4.9977Y-3.2918
X5.1277Y-2.203
X5.1277Y-3.6418
X5.3465Y-1.323
X5.3465Y-1.423
X5.3465Y-1.523
X5.3465Y-1.623
X5.3465Y-2.023
X5.3465Y-2.123
X5.3465Y-2.7618
X5.3465Y-2.8618
X5.3465Y-2.9618
X5.3465Y-3.0618
X5.3465Y-3.4618
X5.3465Y-3.5618
X5.4465Y-1.323
X5.4465Y-1.423
X5.4465Y-1.523
X5.4465Y-1.623
X5.4465Y-1.823
X5.4465Y-2.023
X5.4465Y-2.123
X5.4465Y-2.7618
X5.4465Y-2.8618
X5.4465Y-2.9618
X5.4465Y-3.0618
X5.4465Y-3.2618
X5.4465Y-3.4618
X5.4465Y-3.5618
X5.5462Y-2.0273
X5.5462Y-3.466
X5.5465Y-1.123
X5.5465Y-1.223
X5.5465Y-1.423
X5.5465Y-1.523
X5.5465Y-1.623
X5.5465Y-1.693
X5.5465Y-2.123
X5.5465Y-2.223
X5.5465Y-2.323
X5.5465Y-2.5618
X5.5465Y-2.6618
X5.5465Y-2.8618
X5.5465Y-2.9618
X5.5465Y-3.0618
X5.5465Y-3.1318
X5.5465Y-3.5618
X5.5465Y-3.6618
X5.5465Y-3.7618
X5.5565Y-1.823
X5.5565Y-3.2618
X5.6465Y-1.123
X5.6465Y-1.223
X5.6465Y-1.423
X5.6465Y-1.523
X5.6465Y-1.623
X5.6465Y-1.693
X5.6465Y-2.023
X5.6465Y-2.223
X5.6465Y-2.323
X5.6465Y-2.5618
X5.6465Y-2.6618
X5.6465Y-2.8618
X5.6465Y-2.9618
X5.6465Y-3.0618
X5.6465Y-3.1318
X5.6465Y-3.4618
X5.6465Y-3.6618
X5.6465Y-3.7618
X5.6475Y-2.1227
X5.6475Y-3.5615
X5.6865Y-1.763
X5.6865Y-1.893
X5.6865Y-3.2018
X5.6865Y-3.3318
X5.7465Y-1.123
X5.7465Y-1.223
X5.7465Y-1.323
X5.7465Y-1.393
X5.7465Y-1.953
X5.7465Y-2.023
X5.7465Y-2.123
X5.7465Y-2.223
X5.7465Y-2.323
X5.7465Y-2.5618
X5.7465Y-2.6618
X5.7465Y-2.7618
X5.7465Y-2.8318
X5.7465Y-3.3918
X5.7465Y-3.4618
X5.7465Y-3.5618
X5.7465Y-3.6618
X5.7465Y-3.7618
X5.8165Y-1.443
X5.8165Y-1.603
X5.8165Y-1.893
X5.8165Y-2.8818
X5.8165Y-3.0418
X5.8165Y-3.3318
X5.8465Y-1.123
X5.8465Y-1.223
X5.8465Y-1.323
X5.8465Y-2.023
X5.8465Y-2.123
X5.8465Y-2.223
X5.8465Y-2.323
X5.8465Y-2.5618
X5.8465Y-2.6618
X5.8465Y-2.7618
X5.8465Y-3.4618
X5.8465Y-3.5618
X5.8465Y-3.6618
X5.8465Y-3.7618
X5.8865Y-1.393
X5.8865Y-1.893
X5.8865Y-2.8318
X5.8865Y-3.3318
X5.9465Y-1.123
X5.9465Y-1.223
X5.9465Y-1.323
X5.9465Y-1.893
X5.9465Y-2.023
X5.9465Y-2.123
X5.9465Y-2.223
X5.9465Y-2.323
X5.9465Y-2.5618
X5.9465Y-2.6618
X5.9465Y-2.7618
X5.9465Y-3.3318
X5.9465Y-3.4618
X5.9465Y-3.5618
X5.9465Y-3.6618
X5.9465Y-3.7618
X5.9565Y-1.413
X5.9565Y-1.613
X5.9565Y-2.8518
X5.9565Y-3.0518
X6.0165Y-1.833
X6.0165Y-1.893
X6.0165Y-1.963
X6.0165Y-3.2718
X6.0165Y-3.3318
X6.0165Y-3.4018
X6.0465Y-1.123
X6.0465Y-1.223
X6.0465Y-1.323
X6.0465Y-2.023
X6.0465Y-2.123
X6.0465Y-2.223
X6.0465Y-2.323
X6.0465Y-2.5618
X6.0465Y-2.6618
X6.0465Y-2.7618
X6.0465Y-3.4618
X6.0465Y-3.5618
X6.0465Y-3.6618
X6.0465Y-3.7618
X6.0965Y-2.173
X6.0965Y-3.6118
X6.1453Y-2.3228
X6.1453Y-3.7616
X6.1465Y-1.123
X6.1465Y-1.223
X6.1465Y-1.323
X6.1465Y-2.023
X6.1465Y-2.123
X6.1465Y-2.223
X6.1465Y-2.5618
X6.1465Y-2.6618
X6.1465Y-2.7618
X6.1465Y-3.4618
X6.1465Y-3.5618
X6.1465Y-3.6618
X6.1765Y-1.963
X6.1765Y-3.4018
X6.1865Y-2.073
X6.1865Y-3.5118
X6.1965Y-1.823
X6.1965Y-3.2618
X6.2065Y-1.663
X6.2065Y-3.1018
X6.2165Y-1.773
X6.2165Y-3.2118
X6.2265Y-1.853
X6.2265Y-3.2918
X6.2465Y-1.323
X6.2465Y-2.183
X6.2465Y-2.7618
X6.2465Y-3.6218
X6.2565Y-2.053
X6.2565Y-3.4918
X6.2765Y-1.463
X6.2765Y-1.853
X6.2765Y-2.9018
X6.2765Y-3.2918
X6.4065Y-2.203
X6.4065Y-3.6418
X6.6252Y-1.323
X6.6252Y-1.423
X6.6252Y-1.523
X6.6252Y-1.623
X6.6252Y-2.023
X6.6252Y-2.123
X6.6252Y-2.7618
X6.6252Y-2.8618
X6.6252Y-2.9618
X6.6252Y-3.0618
X6.6252Y-3.4618
X6.6252Y-3.5618
X6.7252Y-1.323
X6.7252Y-1.423
X6.7252Y-1.523
X6.7252Y-1.623
X6.7252Y-1.823
X6.7252Y-2.023
X6.7252Y-2.123
X6.7252Y-2.7618
X6.7252Y-2.8618
X6.7252Y-2.9618
X6.7252Y-3.0618
X6.7252Y-3.2618
X6.7252Y-3.4618
X6.7252Y-3.5618
X6.8249Y-2.0273
X6.8249Y-3.466
X6.8252Y-1.123
X6.8252Y-1.223
X6.8252Y-1.423
X6.8252Y-1.523
X6.8252Y-1.623
X6.8252Y-1.693
X6.8252Y-2.123
X6.8252Y-2.223
X6.8252Y-2.323
X6.8252Y-2.5618
X6.8252Y-2.6618
X6.8252Y-2.8618
X6.8252Y-2.9618
X6.8252Y-3.0618
X6.8252Y-3.1318
X6.8252Y-3.5618
X6.8252Y-3.6618
X6.8252Y-3.7618
X6.8352Y-1.823
X6.8352Y-3.2618
X6.9252Y-1.123
X6.9252Y-1.223
X6.9252Y-1.423
X6.9252Y-1.523
X6.9252Y-1.623
X6.9252Y-1.693
X6.9252Y-2.023
X6.9252Y-2.223
X6.9252Y-2.323
X6.9252Y-2.5618
X6.9252Y-2.6618
X6.9252Y-2.8618
X6.9252Y-2.9618
X6.9252Y-3.0618
X6.9252Y-3.1318
X6.9252Y-3.4618
X6.9252Y-3.6618
X6.9252Y-3.7618
X6.9262Y-2.1227
X6.9262Y-3.5615
X6.9652Y-1.763
X6.9652Y-1.893
X6.9652Y-3.2018
X6.9652Y-3.3318
X7.0252Y-1.123
X7.0252Y-1.223
X7.0252Y-1.323
X7.0252Y-1.393
X7.0252Y-1.953
X7.0252Y-2.023
X7.0252Y-2.123
X7.0252Y-2.223
X7.0252Y-2.323
X7.0252Y-2.5618
X7.0252Y-2.6618
X7.0252Y-2.7618
X7.0252Y-2.8318
X7.0252Y-3.3918
X7.0252Y-3.4618
X7.0252Y-3.5618
X7.0252Y-3.6618
X7.0252Y-3.7618
X7.0952Y-1.443
X7.0952Y-1.603
X7.0952Y-1.893
X7.0952Y-2.8818
X7.0952Y-3.0418
X7.0952Y-3.3318
X7.1252Y-1.123
X7.1252Y-1.223
X7.1252Y-1.323
X7.1252Y-2.023
X7.1252Y-2.123
X7.1252Y-2.223
X7.1252Y-2.323
X7.1252Y-2.5618
X7.1252Y-2.6618
X7.1252Y-2.7618
X7.1252Y-3.4618
X7.1252Y-3.5618
X7.1252Y-3.6618
X7.1252Y-3.7618
X7.1652Y-1.393
X7.1652Y-1.893
X7.1652Y-2.8318
X7.1652Y-3.3318
X7.2252Y-1.123
X7.2252Y-1.223
X7.2252Y-1.323
X7.2252Y-1.893
X7.2252Y-2.023
X7.2252Y-2.123
X7.2252Y-2.223
X7.2252Y-2.323
X7.2252Y-2.5618
X7.2252Y-2.6618
X7.2252Y-2.7618
X7.2252Y-3.3318
X7.2252Y-3.4618
X7.2252Y-3.5618
X7.2252Y-3.6618
X7.2252Y-3.7618
X7.2352Y-1.413
X7.2352Y-1.613
X7.2352Y-2.8518
X7.2352Y-3.0518
X7.2952Y-1.833
X7.2952Y-1.893
X7.2952Y-1.963
X7.2952Y-3.2718
X7.2952Y-3.3318
X7.2952Y-3.4018
X7.3252Y-1.123
X7.3252Y-1.223
X7.3252Y-1.323
X7.3252Y-2.023
X7.3252Y-2.123
X7.3252Y-2.223
X7.3252Y-2.323
X7.3252Y-2.5618
X7.3252Y-2.6618
X7.3252Y-2.7618
X7.3252Y-3.4618
X7.3252Y-3.5618
X7.3252Y-3.6618
X7.3252Y-3.7618
X7.3752Y-2.173
X7.3752Y-3.6118
X7.4241Y-2.3228
X7.4241Y-3.7616
X7.4252Y-1.123
X7.4252Y-1.223
X7.4252Y-1.323
X7.4252Y-2.023
X7.4252Y-2.123
X7.4252Y-2.223
X7.4252Y-2.5618
X7.4252Y-2.6618
X7.4252Y-2.7618
X7.4252Y-3.4618
X7.4252Y-3.5618
X7.4252Y-3.6618
X7.4552Y-1.963
X7.4552Y-3.4018
X7.4652Y-2.073
X7.4652Y-3.5118
X7.4752Y-1.823
X7.4752Y-3.2618
X7.4852Y-1.663
X7.4852Y-3.1018
X7.4952Y-1.773
X7.4952Y-3.2118
X7.5052Y-1.853
X7.5052Y-3.2918
X7.5252Y-1.323
X7.5252Y-2.183
X7.5252Y-2.7618
X7.5252Y-3.6218
X7.5352Y-2.053
X7.5352Y-3.4918
X7.5552Y-1.463
X7.5552Y-1.853
X7.5552Y-2.9018
X7.5552Y-3.2918
X7.6852Y-2.203
X7.6852Y-3.6418
T3
X4.7458Y-1.523
X4.7458Y-2.9618
X4.8443Y-1.523
X4.8443Y-2.9618
X6.0246Y-1.523
X6.0246Y-2.9618
X6.123Y-1.523
X6.123Y-2.9618
X7.3033Y-1.523
X7.3033Y-2.9618
X7.4017Y-1.523
X7.4017Y-2.9618
T4
X4.0577Y-1.7732
X4.0577Y-1.8732
X4.0577Y-3.2119
X4.0577Y-3.3119
X5.0877Y-1.403
X5.0877Y-1.503
X5.0877Y-1.603
X5.0877Y-1.703
X5.0877Y-1.803
X5.0877Y-1.903
X5.0877Y-2.003
X5.0877Y-2.103
X5.0877Y-2.8418
X5.0877Y-2.9418
X5.0877Y-3.0418
X5.0877Y-3.1418
X5.0877Y-3.2418
X5.0877Y-3.3418
X5.0877Y-3.4418
X5.0877Y-3.5418
X5.3365Y-1.7732
X5.3365Y-1.8732
X5.3365Y-3.2119
X5.3365Y-3.3119
X6.3665Y-1.403
X6.3665Y-1.503
X6.3665Y-1.603
X6.3665Y-1.703
X6.3665Y-1.803
X6.3665Y-1.903
X6.3665Y-2.003
X6.3665Y-2.103
X6.3665Y-2.8418
X6.3665Y-2.9418
X6.3665Y-3.0418
X6.3665Y-3.1418
X6.3665Y-3.2418
X6.3665Y-3.3418
X6.3665Y-3.4418
X6.3665Y-3.5418
X6.6152Y-1.7732
X6.6152Y-1.8732
X6.6152Y-3.2119
X6.6152Y-3.3119
X7.6452Y-1.403
X7.6452Y-1.503
X7.6452Y-1.603
X7.6452Y-1.703
X7.6452Y-1.803
X7.6452Y-1.903
X7.6452Y-2.003
X7.6452Y-2.103
X7.6452Y-2.8418
X7.6452Y-2.9418
X7.6452Y-3.0418
X7.6452Y-3.1418
X7.6452Y-3.2418
X7.6452Y-3.3418
X7.6452Y-3.4418
X7.6452Y-3.5418
M30
