%TF.GenerationSoftware,KiCad,Pcbnew,8.0.4*%
%TF.CreationDate,2024-08-18T00:19:52+02:00*%
%TF.ProjectId,untitled,756e7469-746c-4656-942e-6b696361645f,rev?*%
%TF.SameCoordinates,Original*%
%TF.FileFunction,Legend,Bot*%
%TF.FilePolarity,Positive*%
%FSLAX46Y46*%
G04 Gerber Fmt 4.6, Leading zero omitted, Abs format (unit mm)*
G04 Created by KiCad (PCBNEW 8.0.4) date 2024-08-18 00:19:52*
%MOMM*%
%LPD*%
G01*
G04 APERTURE LIST*
%ADD10C,0.150000*%
%ADD11C,0.120000*%
G04 APERTURE END LIST*
D10*
X150903580Y-37501833D02*
X150951200Y-37454214D01*
X150951200Y-37454214D02*
X150998819Y-37311357D01*
X150998819Y-37311357D02*
X150998819Y-37216119D01*
X150998819Y-37216119D02*
X150951200Y-37073262D01*
X150951200Y-37073262D02*
X150855961Y-36978024D01*
X150855961Y-36978024D02*
X150760723Y-36930405D01*
X150760723Y-36930405D02*
X150570247Y-36882786D01*
X150570247Y-36882786D02*
X150427390Y-36882786D01*
X150427390Y-36882786D02*
X150236914Y-36930405D01*
X150236914Y-36930405D02*
X150141676Y-36978024D01*
X150141676Y-36978024D02*
X150046438Y-37073262D01*
X150046438Y-37073262D02*
X149998819Y-37216119D01*
X149998819Y-37216119D02*
X149998819Y-37311357D01*
X149998819Y-37311357D02*
X150046438Y-37454214D01*
X150046438Y-37454214D02*
X150094057Y-37501833D01*
X149998819Y-38358976D02*
X149998819Y-38168500D01*
X149998819Y-38168500D02*
X150046438Y-38073262D01*
X150046438Y-38073262D02*
X150094057Y-38025643D01*
X150094057Y-38025643D02*
X150236914Y-37930405D01*
X150236914Y-37930405D02*
X150427390Y-37882786D01*
X150427390Y-37882786D02*
X150808342Y-37882786D01*
X150808342Y-37882786D02*
X150903580Y-37930405D01*
X150903580Y-37930405D02*
X150951200Y-37978024D01*
X150951200Y-37978024D02*
X150998819Y-38073262D01*
X150998819Y-38073262D02*
X150998819Y-38263738D01*
X150998819Y-38263738D02*
X150951200Y-38358976D01*
X150951200Y-38358976D02*
X150903580Y-38406595D01*
X150903580Y-38406595D02*
X150808342Y-38454214D01*
X150808342Y-38454214D02*
X150570247Y-38454214D01*
X150570247Y-38454214D02*
X150475009Y-38406595D01*
X150475009Y-38406595D02*
X150427390Y-38358976D01*
X150427390Y-38358976D02*
X150379771Y-38263738D01*
X150379771Y-38263738D02*
X150379771Y-38073262D01*
X150379771Y-38073262D02*
X150427390Y-37978024D01*
X150427390Y-37978024D02*
X150475009Y-37930405D01*
X150475009Y-37930405D02*
X150570247Y-37882786D01*
X145188580Y-36358833D02*
X145236200Y-36311214D01*
X145236200Y-36311214D02*
X145283819Y-36168357D01*
X145283819Y-36168357D02*
X145283819Y-36073119D01*
X145283819Y-36073119D02*
X145236200Y-35930262D01*
X145236200Y-35930262D02*
X145140961Y-35835024D01*
X145140961Y-35835024D02*
X145045723Y-35787405D01*
X145045723Y-35787405D02*
X144855247Y-35739786D01*
X144855247Y-35739786D02*
X144712390Y-35739786D01*
X144712390Y-35739786D02*
X144521914Y-35787405D01*
X144521914Y-35787405D02*
X144426676Y-35835024D01*
X144426676Y-35835024D02*
X144331438Y-35930262D01*
X144331438Y-35930262D02*
X144283819Y-36073119D01*
X144283819Y-36073119D02*
X144283819Y-36168357D01*
X144283819Y-36168357D02*
X144331438Y-36311214D01*
X144331438Y-36311214D02*
X144379057Y-36358833D01*
X144283819Y-36692167D02*
X144283819Y-37311214D01*
X144283819Y-37311214D02*
X144664771Y-36977881D01*
X144664771Y-36977881D02*
X144664771Y-37120738D01*
X144664771Y-37120738D02*
X144712390Y-37215976D01*
X144712390Y-37215976D02*
X144760009Y-37263595D01*
X144760009Y-37263595D02*
X144855247Y-37311214D01*
X144855247Y-37311214D02*
X145093342Y-37311214D01*
X145093342Y-37311214D02*
X145188580Y-37263595D01*
X145188580Y-37263595D02*
X145236200Y-37215976D01*
X145236200Y-37215976D02*
X145283819Y-37120738D01*
X145283819Y-37120738D02*
X145283819Y-36835024D01*
X145283819Y-36835024D02*
X145236200Y-36739786D01*
X145236200Y-36739786D02*
X145188580Y-36692167D01*
X150903580Y-69501833D02*
X150951200Y-69454214D01*
X150951200Y-69454214D02*
X150998819Y-69311357D01*
X150998819Y-69311357D02*
X150998819Y-69216119D01*
X150998819Y-69216119D02*
X150951200Y-69073262D01*
X150951200Y-69073262D02*
X150855961Y-68978024D01*
X150855961Y-68978024D02*
X150760723Y-68930405D01*
X150760723Y-68930405D02*
X150570247Y-68882786D01*
X150570247Y-68882786D02*
X150427390Y-68882786D01*
X150427390Y-68882786D02*
X150236914Y-68930405D01*
X150236914Y-68930405D02*
X150141676Y-68978024D01*
X150141676Y-68978024D02*
X150046438Y-69073262D01*
X150046438Y-69073262D02*
X149998819Y-69216119D01*
X149998819Y-69216119D02*
X149998819Y-69311357D01*
X149998819Y-69311357D02*
X150046438Y-69454214D01*
X150046438Y-69454214D02*
X150094057Y-69501833D01*
X149998819Y-70358976D02*
X149998819Y-70168500D01*
X149998819Y-70168500D02*
X150046438Y-70073262D01*
X150046438Y-70073262D02*
X150094057Y-70025643D01*
X150094057Y-70025643D02*
X150236914Y-69930405D01*
X150236914Y-69930405D02*
X150427390Y-69882786D01*
X150427390Y-69882786D02*
X150808342Y-69882786D01*
X150808342Y-69882786D02*
X150903580Y-69930405D01*
X150903580Y-69930405D02*
X150951200Y-69978024D01*
X150951200Y-69978024D02*
X150998819Y-70073262D01*
X150998819Y-70073262D02*
X150998819Y-70263738D01*
X150998819Y-70263738D02*
X150951200Y-70358976D01*
X150951200Y-70358976D02*
X150903580Y-70406595D01*
X150903580Y-70406595D02*
X150808342Y-70454214D01*
X150808342Y-70454214D02*
X150570247Y-70454214D01*
X150570247Y-70454214D02*
X150475009Y-70406595D01*
X150475009Y-70406595D02*
X150427390Y-70358976D01*
X150427390Y-70358976D02*
X150379771Y-70263738D01*
X150379771Y-70263738D02*
X150379771Y-70073262D01*
X150379771Y-70073262D02*
X150427390Y-69978024D01*
X150427390Y-69978024D02*
X150475009Y-69930405D01*
X150475009Y-69930405D02*
X150570247Y-69882786D01*
X145188580Y-68358833D02*
X145236200Y-68311214D01*
X145236200Y-68311214D02*
X145283819Y-68168357D01*
X145283819Y-68168357D02*
X145283819Y-68073119D01*
X145283819Y-68073119D02*
X145236200Y-67930262D01*
X145236200Y-67930262D02*
X145140961Y-67835024D01*
X145140961Y-67835024D02*
X145045723Y-67787405D01*
X145045723Y-67787405D02*
X144855247Y-67739786D01*
X144855247Y-67739786D02*
X144712390Y-67739786D01*
X144712390Y-67739786D02*
X144521914Y-67787405D01*
X144521914Y-67787405D02*
X144426676Y-67835024D01*
X144426676Y-67835024D02*
X144331438Y-67930262D01*
X144331438Y-67930262D02*
X144283819Y-68073119D01*
X144283819Y-68073119D02*
X144283819Y-68168357D01*
X144283819Y-68168357D02*
X144331438Y-68311214D01*
X144331438Y-68311214D02*
X144379057Y-68358833D01*
X144283819Y-68692167D02*
X144283819Y-69311214D01*
X144283819Y-69311214D02*
X144664771Y-68977881D01*
X144664771Y-68977881D02*
X144664771Y-69120738D01*
X144664771Y-69120738D02*
X144712390Y-69215976D01*
X144712390Y-69215976D02*
X144760009Y-69263595D01*
X144760009Y-69263595D02*
X144855247Y-69311214D01*
X144855247Y-69311214D02*
X145093342Y-69311214D01*
X145093342Y-69311214D02*
X145188580Y-69263595D01*
X145188580Y-69263595D02*
X145236200Y-69215976D01*
X145236200Y-69215976D02*
X145283819Y-69120738D01*
X145283819Y-69120738D02*
X145283819Y-68835024D01*
X145283819Y-68835024D02*
X145236200Y-68739786D01*
X145236200Y-68739786D02*
X145188580Y-68692167D01*
X142775580Y-69501833D02*
X142823200Y-69454214D01*
X142823200Y-69454214D02*
X142870819Y-69311357D01*
X142870819Y-69311357D02*
X142870819Y-69216119D01*
X142870819Y-69216119D02*
X142823200Y-69073262D01*
X142823200Y-69073262D02*
X142727961Y-68978024D01*
X142727961Y-68978024D02*
X142632723Y-68930405D01*
X142632723Y-68930405D02*
X142442247Y-68882786D01*
X142442247Y-68882786D02*
X142299390Y-68882786D01*
X142299390Y-68882786D02*
X142108914Y-68930405D01*
X142108914Y-68930405D02*
X142013676Y-68978024D01*
X142013676Y-68978024D02*
X141918438Y-69073262D01*
X141918438Y-69073262D02*
X141870819Y-69216119D01*
X141870819Y-69216119D02*
X141870819Y-69311357D01*
X141870819Y-69311357D02*
X141918438Y-69454214D01*
X141918438Y-69454214D02*
X141966057Y-69501833D01*
X142204152Y-70358976D02*
X142870819Y-70358976D01*
X141823200Y-70120881D02*
X142537485Y-69882786D01*
X142537485Y-69882786D02*
X142537485Y-70501833D01*
X148363580Y-68485833D02*
X148411200Y-68438214D01*
X148411200Y-68438214D02*
X148458819Y-68295357D01*
X148458819Y-68295357D02*
X148458819Y-68200119D01*
X148458819Y-68200119D02*
X148411200Y-68057262D01*
X148411200Y-68057262D02*
X148315961Y-67962024D01*
X148315961Y-67962024D02*
X148220723Y-67914405D01*
X148220723Y-67914405D02*
X148030247Y-67866786D01*
X148030247Y-67866786D02*
X147887390Y-67866786D01*
X147887390Y-67866786D02*
X147696914Y-67914405D01*
X147696914Y-67914405D02*
X147601676Y-67962024D01*
X147601676Y-67962024D02*
X147506438Y-68057262D01*
X147506438Y-68057262D02*
X147458819Y-68200119D01*
X147458819Y-68200119D02*
X147458819Y-68295357D01*
X147458819Y-68295357D02*
X147506438Y-68438214D01*
X147506438Y-68438214D02*
X147554057Y-68485833D01*
X147458819Y-68819167D02*
X147458819Y-69485833D01*
X147458819Y-69485833D02*
X148458819Y-69057262D01*
X142775580Y-37501833D02*
X142823200Y-37454214D01*
X142823200Y-37454214D02*
X142870819Y-37311357D01*
X142870819Y-37311357D02*
X142870819Y-37216119D01*
X142870819Y-37216119D02*
X142823200Y-37073262D01*
X142823200Y-37073262D02*
X142727961Y-36978024D01*
X142727961Y-36978024D02*
X142632723Y-36930405D01*
X142632723Y-36930405D02*
X142442247Y-36882786D01*
X142442247Y-36882786D02*
X142299390Y-36882786D01*
X142299390Y-36882786D02*
X142108914Y-36930405D01*
X142108914Y-36930405D02*
X142013676Y-36978024D01*
X142013676Y-36978024D02*
X141918438Y-37073262D01*
X141918438Y-37073262D02*
X141870819Y-37216119D01*
X141870819Y-37216119D02*
X141870819Y-37311357D01*
X141870819Y-37311357D02*
X141918438Y-37454214D01*
X141918438Y-37454214D02*
X141966057Y-37501833D01*
X142204152Y-38358976D02*
X142870819Y-38358976D01*
X141823200Y-38120881D02*
X142537485Y-37882786D01*
X142537485Y-37882786D02*
X142537485Y-38501833D01*
X148363580Y-36485833D02*
X148411200Y-36438214D01*
X148411200Y-36438214D02*
X148458819Y-36295357D01*
X148458819Y-36295357D02*
X148458819Y-36200119D01*
X148458819Y-36200119D02*
X148411200Y-36057262D01*
X148411200Y-36057262D02*
X148315961Y-35962024D01*
X148315961Y-35962024D02*
X148220723Y-35914405D01*
X148220723Y-35914405D02*
X148030247Y-35866786D01*
X148030247Y-35866786D02*
X147887390Y-35866786D01*
X147887390Y-35866786D02*
X147696914Y-35914405D01*
X147696914Y-35914405D02*
X147601676Y-35962024D01*
X147601676Y-35962024D02*
X147506438Y-36057262D01*
X147506438Y-36057262D02*
X147458819Y-36200119D01*
X147458819Y-36200119D02*
X147458819Y-36295357D01*
X147458819Y-36295357D02*
X147506438Y-36438214D01*
X147506438Y-36438214D02*
X147554057Y-36485833D01*
X147458819Y-36819167D02*
X147458819Y-37485833D01*
X147458819Y-37485833D02*
X148458819Y-37057262D01*
D11*
%TO.C,C6*%
X149634000Y-33362748D02*
X149634000Y-34785252D01*
X151454000Y-33362748D02*
X151454000Y-34785252D01*
%TO.C,C3*%
X144221000Y-33321748D02*
X144221000Y-33844252D01*
X145691000Y-33321748D02*
X145691000Y-33844252D01*
%TO.C,C6*%
X149634000Y-65362748D02*
X149634000Y-66785252D01*
X151454000Y-65362748D02*
X151454000Y-66785252D01*
%TO.C,C3*%
X144221000Y-65321748D02*
X144221000Y-65844252D01*
X145691000Y-65321748D02*
X145691000Y-65844252D01*
%TO.C,C4*%
X141506000Y-65439748D02*
X141506000Y-66862252D01*
X143326000Y-65439748D02*
X143326000Y-66862252D01*
%TO.C,C7*%
X147269000Y-65321748D02*
X147269000Y-65844252D01*
X148739000Y-65321748D02*
X148739000Y-65844252D01*
%TO.C,C4*%
X141506000Y-33439748D02*
X141506000Y-34862252D01*
X143326000Y-33439748D02*
X143326000Y-34862252D01*
%TO.C,C7*%
X147269000Y-33321748D02*
X147269000Y-33844252D01*
X148739000Y-33321748D02*
X148739000Y-33844252D01*
%TD*%
M02*
