M48
; DRILL file {KiCad 8.0.4} date 2024-08-18T00:19:54+0200
; FORMAT={-:-/ absolute / inch / decimal}
; #@! TF.CreationDate,2024-08-18T00:19:54+02:00
; #@! TF.GenerationSoftware,Kicad,Pcbnew,8.0.4
; #@! TF.FileFunction,NonPlated,1,2,NPTH
FMAT,2
INCH
; #@! TA.AperFunction,NonPlated,NPTH,ComponentDrill
T1C0.0197
; #@! TA.AperFunction,NonPlated,NPTH,ComponentDrill
T2C0.0866
%
G90
G05
T1
X4.9344Y-1.063
X4.9344Y-2.2441
X4.9344Y-2.3229
X4.9344Y-3.504
X4.9738Y-1.063
X4.9738Y-2.2441
X4.9738Y-2.3229
X4.9738Y-3.504
X5.0131Y-1.063
X5.0131Y-2.2441
X5.0131Y-2.3229
X5.0131Y-3.504
X5.0525Y-1.063
X5.0525Y-2.2441
X5.0525Y-2.3229
X5.0525Y-3.504
X5.3609Y-1.063
X5.3609Y-2.2441
X5.3609Y-2.3229
X5.3609Y-3.504
X5.4003Y-1.063
X5.4003Y-2.2441
X5.4003Y-2.3229
X5.4003Y-3.504
X5.4396Y-1.063
X5.4396Y-2.2441
X5.4396Y-2.3229
X5.4396Y-3.504
X5.479Y-1.063
X5.479Y-2.2441
X5.479Y-2.3229
X5.479Y-3.504
X5.7874Y-1.063
X5.7874Y-2.2441
X5.7874Y-2.3229
X5.7874Y-3.504
X5.8268Y-1.063
X5.8268Y-2.2441
X5.8268Y-2.3229
X5.8268Y-3.504
X5.8661Y-1.063
X5.8661Y-2.2441
X5.8661Y-2.3229
X5.8661Y-3.504
X5.9055Y-1.063
X5.9055Y-2.2441
X5.9055Y-2.3229
X5.9055Y-3.504
X6.2139Y-1.063
X6.2139Y-2.2441
X6.2139Y-2.3229
X6.2139Y-3.504
X6.2533Y-1.063
X6.2533Y-2.2441
X6.2533Y-2.3229
X6.2533Y-3.504
X6.2927Y-1.063
X6.2927Y-2.2441
X6.2927Y-2.3229
X6.2927Y-3.504
X6.332Y-1.063
X6.332Y-2.2441
X6.332Y-2.3229
X6.332Y-3.504
X6.6404Y-1.063
X6.6404Y-2.2441
X6.6404Y-2.3229
X6.6404Y-3.504
X6.6798Y-1.063
X6.6798Y-2.2441
X6.6798Y-2.3229
X6.6798Y-3.504
X6.7192Y-1.063
X6.7192Y-2.2441
X6.7192Y-2.3229
X6.7192Y-3.504
X6.7585Y-1.063
X6.7585Y-2.2441
X6.7585Y-2.3229
X6.7585Y-3.504
T2
X4.6869Y-1.183
X4.6869Y-2.123
X4.6869Y-2.4429
X4.6869Y-3.3829
X7.0069Y-1.183
X7.0069Y-2.123
X7.0069Y-2.4429
X7.0069Y-3.3829
M30
