M48
; DRILL file {KiCad 8.0.4} date 2024-08-18T00:19:54+0200
; FORMAT={-:-/ absolute / inch / decimal}
; #@! TF.CreationDate,2024-08-18T00:19:54+02:00
; #@! TF.GenerationSoftware,Kicad,Pcbnew,8.0.4
; #@! TF.FileFunction,Plated,1,2,PTH
FMAT,2
INCH
; #@! TA.AperFunction,Plated,PTH,ViaDrill
T1C0.0118
; #@! TA.AperFunction,Plated,PTH,ViaDrill
T2C0.0197
; #@! TA.AperFunction,Plated,PTH,ComponentDrill
T3C0.0315
; #@! TA.AperFunction,Plated,PTH,ComponentDrill
T4C0.0394
%
G90
G05
T1
X4.6269Y-1.303
X4.6269Y-1.403
X4.6269Y-1.903
X4.6269Y-1.983
X4.6269Y-2.5629
X4.6269Y-2.6629
X4.6269Y-3.1629
X4.6269Y-3.2429
X4.7069Y-1.303
X4.7069Y-1.403
X4.7069Y-2.5629
X4.7069Y-2.6629
X4.7269Y-1.903
X4.7269Y-1.983
X4.7269Y-3.1629
X4.7269Y-3.2429
X4.7869Y-1.663
X4.7869Y-1.743
X4.7869Y-2.9229
X4.7869Y-3.0029
X4.8069Y-1.143
X4.8069Y-1.303
X4.8069Y-1.403
X4.8069Y-1.543
X4.8069Y-2.4029
X4.8069Y-2.5629
X4.8069Y-2.6629
X4.8069Y-2.8029
X4.8071Y-1.2235
X4.8071Y-2.4834
X4.8269Y-1.903
X4.8269Y-1.983
X4.8269Y-2.063
X4.8269Y-2.143
X4.8269Y-3.1629
X4.8269Y-3.2429
X4.8269Y-3.3229
X4.8269Y-3.4029
X4.8669Y-1.363
X4.8669Y-2.6229
X4.9069Y-1.143
X4.9069Y-1.223
X4.9069Y-1.303
X4.9069Y-1.683
X4.9069Y-2.4029
X4.9069Y-2.4829
X4.9069Y-2.5629
X4.9069Y-2.9429
X4.9269Y-1.983
X4.9269Y-2.043
X4.9269Y-3.2429
X4.9269Y-3.3029
X5.0069Y-1.623
X5.0069Y-1.683
X5.0069Y-2.8829
X5.0069Y-2.9429
X5.0219Y-1.968
X5.0219Y-3.2279
X5.0269Y-1.143
X5.0269Y-1.223
X5.0269Y-2.4029
X5.0269Y-2.4829
X5.0419Y-2.063
X5.0419Y-3.3229
X5.1269Y-1.143
X5.1269Y-1.223
X5.1269Y-1.303
X5.1269Y-1.583
X5.1269Y-2.4029
X5.1269Y-2.4829
X5.1269Y-2.5629
X5.1269Y-2.8429
X5.1469Y-1.403
X5.1469Y-1.663
X5.1469Y-2.6629
X5.1469Y-2.9229
X5.1669Y-1.943
X5.1669Y-3.2029
X5.2269Y-1.768
X5.2269Y-3.0279
X5.2469Y-1.143
X5.2469Y-1.223
X5.2469Y-1.303
X5.2469Y-1.403
X5.2469Y-1.583
X5.2469Y-2.4029
X5.2469Y-2.4829
X5.2469Y-2.5629
X5.2469Y-2.6629
X5.2469Y-2.8429
X5.2669Y-1.843
X5.2669Y-3.1029
X5.3269Y-1.723
X5.3269Y-2.003
X5.3269Y-2.9829
X5.3269Y-3.2629
X5.3469Y-1.143
X5.3469Y-1.203
X5.3469Y-1.763
X5.3469Y-2.4029
X5.3469Y-2.4629
X5.3469Y-3.0229
X5.3569Y-1.643
X5.3569Y-2.9029
X5.3669Y-1.483
X5.3669Y-2.7429
X5.3869Y-1.763
X5.3869Y-3.0229
X5.4069Y-1.923
X5.4069Y-3.1829
X5.4269Y-1.143
X5.4269Y-1.203
X5.4269Y-1.603
X5.4269Y-2.4029
X5.4269Y-2.4629
X5.4269Y-2.8629
X5.4469Y-2.043
X5.4469Y-3.3029
X5.4869Y-1.563
X5.4869Y-1.843
X5.4869Y-2.8229
X5.4869Y-3.1029
X5.5069Y-1.143
X5.5069Y-1.203
X5.5069Y-2.4029
X5.5069Y-2.4629
X5.5269Y-1.358
X5.5269Y-1.523
X5.5269Y-1.963
X5.5269Y-2.043
X5.5269Y-2.6179
X5.5269Y-2.7829
X5.5269Y-3.2229
X5.5269Y-3.3029
X5.5469Y-1.463
X5.5469Y-2.7229
X5.5669Y-1.763
X5.5669Y-3.0229
X5.5869Y-1.163
X5.5869Y-2.4229
X5.6069Y-1.883
X5.6069Y-3.1429
X5.6269Y-2.063
X5.6269Y-3.3229
X5.6469Y-1.663
X5.6469Y-2.9229
X5.6669Y-1.723
X5.6669Y-1.923
X5.6669Y-2.9829
X5.6669Y-3.1829
X5.6869Y-1.983
X5.6869Y-3.2429
X5.7069Y-1.643
X5.7069Y-2.9029
X5.7269Y-2.063
X5.7269Y-3.3229
X5.7469Y-1.723
X5.7469Y-2.9829
X5.7569Y-1.413
X5.7569Y-2.6729
X5.7869Y-1.663
X5.7869Y-2.9229
X5.8069Y-1.623
X5.8069Y-2.8829
X5.8469Y-1.223
X5.8469Y-1.723
X5.8469Y-2.063
X5.8469Y-2.4829
X5.8469Y-2.9829
X5.8469Y-3.3229
X5.8669Y-1.583
X5.8669Y-1.643
X5.8669Y-2.8429
X5.8669Y-2.9029
X5.8869Y-1.983
X5.8869Y-3.2429
X5.9469Y-1.223
X5.9469Y-1.663
X5.9469Y-1.723
X5.9469Y-2.043
X5.9469Y-2.4829
X5.9469Y-2.9229
X5.9469Y-2.9829
X5.9469Y-3.3029
X6.0069Y-1.583
X6.0069Y-1.643
X6.0069Y-1.723
X6.0069Y-2.8429
X6.0069Y-2.9029
X6.0069Y-2.9829
X6.0269Y-1.263
X6.0269Y-1.343
X6.0269Y-2.5229
X6.0269Y-2.6029
X6.1069Y-1.563
X6.1069Y-1.643
X6.1069Y-1.723
X6.1069Y-1.803
X6.1069Y-2.8229
X6.1069Y-2.9029
X6.1069Y-2.9829
X6.1069Y-3.0629
X6.1243Y-1.344
X6.1243Y-2.6038
X6.1269Y-1.263
X6.1269Y-1.883
X6.1269Y-2.063
X6.1269Y-2.5229
X6.1269Y-3.1429
X6.1269Y-3.3229
X6.1869Y-1.563
X6.1869Y-1.643
X6.1869Y-1.723
X6.1869Y-1.803
X6.1869Y-2.8229
X6.1869Y-2.9029
X6.1869Y-2.9829
X6.1869Y-3.0629
X6.2269Y-1.263
X6.2269Y-2.5229
X6.2469Y-1.123
X6.2469Y-1.203
X6.2469Y-1.463
X6.2469Y-1.543
X6.2469Y-1.643
X6.2469Y-1.723
X6.2469Y-1.783
X6.2469Y-1.863
X6.2469Y-2.043
X6.2469Y-2.3829
X6.2469Y-2.4629
X6.2469Y-2.7229
X6.2469Y-2.8029
X6.2469Y-2.9029
X6.2469Y-2.9829
X6.2469Y-3.0429
X6.2469Y-3.1229
X6.2469Y-3.3029
X6.3269Y-1.123
X6.3269Y-1.203
X6.3269Y-1.263
X6.3269Y-1.343
X6.3269Y-1.463
X6.3269Y-1.543
X6.3269Y-1.643
X6.3269Y-1.723
X6.3269Y-1.783
X6.3269Y-1.863
X6.3269Y-2.043
X6.3269Y-2.3829
X6.3269Y-2.4629
X6.3269Y-2.5229
X6.3269Y-2.6029
X6.3269Y-2.7229
X6.3269Y-2.8029
X6.3269Y-2.9029
X6.3269Y-2.9829
X6.3269Y-3.0429
X6.3269Y-3.1229
X6.3269Y-3.3029
X6.4269Y-1.123
X6.4269Y-1.203
X6.4269Y-1.303
X6.4269Y-1.383
X6.4269Y-1.463
X6.4269Y-1.543
X6.4269Y-1.643
X6.4269Y-1.723
X6.4269Y-1.823
X6.4269Y-1.903
X6.4269Y-2.043
X6.4269Y-2.3829
X6.4269Y-2.4629
X6.4269Y-2.5629
X6.4269Y-2.6429
X6.4269Y-2.7229
X6.4269Y-2.8029
X6.4269Y-2.9029
X6.4269Y-2.9829
X6.4269Y-3.0829
X6.4269Y-3.1629
X6.4269Y-3.3029
X6.5069Y-1.123
X6.5069Y-1.203
X6.5069Y-1.303
X6.5069Y-1.383
X6.5069Y-1.463
X6.5069Y-1.543
X6.5069Y-1.643
X6.5069Y-1.723
X6.5069Y-1.823
X6.5069Y-1.903
X6.5069Y-2.3829
X6.5069Y-2.4629
X6.5069Y-2.5629
X6.5069Y-2.6429
X6.5069Y-2.7229
X6.5069Y-2.8029
X6.5069Y-2.9029
X6.5069Y-2.9829
X6.5069Y-3.0829
X6.5069Y-3.1629
X6.6069Y-1.123
X6.6069Y-1.203
X6.6069Y-1.303
X6.6069Y-1.383
X6.6069Y-1.463
X6.6069Y-1.563
X6.6069Y-1.643
X6.6069Y-1.743
X6.6069Y-1.843
X6.6069Y-1.923
X6.6069Y-2.3829
X6.6069Y-2.4629
X6.6069Y-2.5629
X6.6069Y-2.6429
X6.6069Y-2.7229
X6.6069Y-2.8229
X6.6069Y-2.9029
X6.6069Y-3.0029
X6.6069Y-3.1029
X6.6069Y-3.1829
X6.6869Y-1.123
X6.6869Y-1.203
X6.6869Y-1.303
X6.6869Y-1.383
X6.6869Y-1.463
X6.6869Y-1.563
X6.6869Y-1.643
X6.6869Y-1.743
X6.6869Y-1.843
X6.6869Y-1.923
X6.6869Y-2.3829
X6.6869Y-2.4629
X6.6869Y-2.5629
X6.6869Y-2.6429
X6.6869Y-2.7229
X6.6869Y-2.8229
X6.6869Y-2.9029
X6.6869Y-3.0029
X6.6869Y-3.1029
X6.6869Y-3.1829
X6.7669Y-1.123
X6.7669Y-1.203
X6.7669Y-1.303
X6.7669Y-1.383
X6.7669Y-1.463
X6.7669Y-1.563
X6.7669Y-1.643
X6.7669Y-1.743
X6.7669Y-1.843
X6.7669Y-1.923
X6.7669Y-2.3829
X6.7669Y-2.4629
X6.7669Y-2.5629
X6.7669Y-2.6429
X6.7669Y-2.7229
X6.7669Y-2.8229
X6.7669Y-2.9029
X6.7669Y-3.0029
X6.7669Y-3.1029
X6.7669Y-3.1829
X6.7869Y-2.003
X6.7869Y-2.083
X6.7869Y-2.163
X6.7869Y-3.2629
X6.7869Y-3.3429
X6.7869Y-3.4229
X6.8469Y-1.123
X6.8469Y-1.203
X6.8469Y-1.303
X6.8469Y-1.383
X6.8469Y-1.463
X6.8469Y-1.563
X6.8469Y-1.643
X6.8469Y-1.743
X6.8469Y-1.843
X6.8469Y-1.923
X6.8469Y-2.3829
X6.8469Y-2.4629
X6.8469Y-2.5629
X6.8469Y-2.6429
X6.8469Y-2.7229
X6.8469Y-2.8229
X6.8469Y-2.9029
X6.8469Y-3.0029
X6.8469Y-3.1029
X6.8469Y-3.1829
X6.8669Y-2.003
X6.8669Y-2.083
X6.8669Y-2.163
X6.8669Y-3.2629
X6.8669Y-3.3429
X6.8669Y-3.4229
X6.9469Y-1.383
X6.9469Y-1.463
X6.9469Y-1.543
X6.9469Y-1.623
X6.9469Y-1.723
X6.9469Y-1.803
X6.9469Y-1.883
X6.9469Y-1.963
X6.9469Y-2.6429
X6.9469Y-2.7229
X6.9469Y-2.8029
X6.9469Y-2.8829
X6.9469Y-2.9829
X6.9469Y-3.0629
X6.9469Y-3.1429
X6.9469Y-3.2229
X7.0269Y-1.383
X7.0269Y-1.463
X7.0269Y-1.543
X7.0269Y-1.623
X7.0269Y-1.723
X7.0269Y-1.803
X7.0269Y-1.883
X7.0269Y-1.963
X7.0269Y-2.6429
X7.0269Y-2.7229
X7.0269Y-2.8029
X7.0269Y-2.8829
X7.0269Y-2.9829
X7.0269Y-3.0629
X7.0269Y-3.1429
X7.0269Y-3.2229
T2
X5.7069Y-1.423
X5.7069Y-2.6829
X5.8069Y-1.423
X5.8069Y-2.6829
T3
X5.0069Y-1.4046
X5.0069Y-1.503
X5.0069Y-1.7765
X5.0069Y-1.8749
X5.0069Y-2.6644
X5.0069Y-2.7629
X5.0069Y-3.0363
X5.0069Y-3.1347
T4
X4.6669Y-1.503
X4.6669Y-1.603
X4.6669Y-1.703
X4.6669Y-1.803
X4.6669Y-2.7629
X4.6669Y-2.8629
X4.6669Y-2.9629
X4.6669Y-3.0629
X4.9869Y-2.143
X4.9869Y-3.4029
X5.0869Y-2.143
X5.0869Y-3.4029
X5.1869Y-2.143
X5.1869Y-3.4029
X5.2869Y-2.143
X5.2869Y-3.4029
X5.3869Y-2.143
X5.3869Y-3.4029
X5.4869Y-2.143
X5.4869Y-3.4029
X5.5869Y-2.143
X5.5869Y-3.4029
X5.6869Y-2.143
X5.6869Y-3.4029
X5.7869Y-1.163
X5.7869Y-2.143
X5.7869Y-2.4229
X5.7869Y-3.4029
X5.8869Y-1.163
X5.8869Y-2.143
X5.8869Y-2.4229
X5.8869Y-3.4029
X5.9869Y-1.163
X5.9869Y-2.143
X5.9869Y-2.4229
X5.9869Y-3.4029
X6.0869Y-2.143
X6.0869Y-3.4029
X6.1869Y-2.143
X6.1869Y-3.4029
X6.2869Y-2.143
X6.2869Y-3.4029
X6.3869Y-2.143
X6.3869Y-3.4029
X6.4869Y-2.143
X6.4869Y-3.4029
X6.5869Y-2.143
X6.5869Y-3.4029
X6.6869Y-2.143
X6.6869Y-3.4029
M30
