%TF.GenerationSoftware,KiCad,Pcbnew,8.0.4*%
%TF.CreationDate,2024-08-18T00:19:52+02:00*%
%TF.ProjectId,untitled,756e7469-746c-4656-942e-6b696361645f,rev?*%
%TF.SameCoordinates,Original*%
%TF.FileFunction,Soldermask,Top*%
%TF.FilePolarity,Negative*%
%FSLAX46Y46*%
G04 Gerber Fmt 4.6, Leading zero omitted, Abs format (unit mm)*
G04 Created by KiCad (PCBNEW 8.0.4) date 2024-08-18 00:19:52*
%MOMM*%
%LPD*%
G01*
G04 APERTURE LIST*
G04 Aperture macros list*
%AMRoundRect*
0 Rectangle with rounded corners*
0 $1 Rounding radius*
0 $2 $3 $4 $5 $6 $7 $8 $9 X,Y pos of 4 corners*
0 Add a 4 corners polygon primitive as box body*
4,1,4,$2,$3,$4,$5,$6,$7,$8,$9,$2,$3,0*
0 Add four circle primitives for the rounded corners*
1,1,$1+$1,$2,$3*
1,1,$1+$1,$4,$5*
1,1,$1+$1,$6,$7*
1,1,$1+$1,$8,$9*
0 Add four rect primitives between the rounded corners*
20,1,$1+$1,$2,$3,$4,$5,0*
20,1,$1+$1,$4,$5,$6,$7,0*
20,1,$1+$1,$6,$7,$8,$9,0*
20,1,$1+$1,$8,$9,$2,$3,0*%
G04 Aperture macros list end*
%ADD10R,1.600000X1.600000*%
%ADD11C,1.600000*%
%ADD12RoundRect,0.250000X-0.350000X-0.450000X0.350000X-0.450000X0.350000X0.450000X-0.350000X0.450000X0*%
%ADD13C,0.500000*%
%ADD14C,2.200000*%
%ADD15RoundRect,0.250000X0.350000X0.450000X-0.350000X0.450000X-0.350000X-0.450000X0.350000X-0.450000X0*%
%ADD16R,0.450000X1.750000*%
%ADD17R,1.700000X1.700000*%
%ADD18O,1.700000X1.700000*%
%ADD19RoundRect,0.250000X-0.337500X-0.475000X0.337500X-0.475000X0.337500X0.475000X-0.337500X0.475000X0*%
G04 APERTURE END LIST*
D10*
%TO.C,C5*%
X127176000Y-35676500D03*
D11*
X127176000Y-38176500D03*
%TD*%
D12*
%TO.C,R2*%
X141940000Y-61540500D03*
X143940000Y-61540500D03*
%TD*%
D13*
%TO.C,KiKit_MB_20_3*%
X169666666Y-89000500D03*
%TD*%
%TO.C,KiKit_MB_15_4*%
X171666666Y-59000500D03*
%TD*%
D14*
%TO.C,REF\u002A\u002A*%
X177976000Y-85924500D03*
%TD*%
D13*
%TO.C,KiKit_MB_6_3*%
X126333334Y-57000500D03*
%TD*%
%TO.C,KiKit_MB_3_3*%
X149000000Y-27000500D03*
%TD*%
%TO.C,KiKit_MB_7_1*%
X139166667Y-57000500D03*
%TD*%
%TO.C,KiKit_MB_11_4*%
X128333334Y-59000500D03*
%TD*%
%TO.C,KiKit_MB_7_3*%
X137166667Y-57000500D03*
%TD*%
D10*
%TO.C,C5*%
X127176000Y-67676500D03*
D11*
X127176000Y-70176500D03*
%TD*%
D13*
%TO.C,KiKit_MB_16_1*%
X128333334Y-89000500D03*
%TD*%
%TO.C,KiKit_MB_17_1*%
X139166667Y-89000500D03*
%TD*%
D15*
%TO.C,R1*%
X155116000Y-35636500D03*
X153116000Y-35636500D03*
%TD*%
D16*
%TO.C,U1*%
X143779000Y-77796500D03*
X144429000Y-77796500D03*
X145079000Y-77796500D03*
X145729000Y-77796500D03*
X146379000Y-77796500D03*
X147029000Y-77796500D03*
X147679000Y-77796500D03*
X148329000Y-77796500D03*
X148979000Y-77796500D03*
X149629000Y-77796500D03*
X150279000Y-77796500D03*
X150929000Y-77796500D03*
X151579000Y-77796500D03*
X152229000Y-77796500D03*
X152229000Y-70596500D03*
X151579000Y-70596500D03*
X150929000Y-70596500D03*
X150279000Y-70596500D03*
X149629000Y-70596500D03*
X148979000Y-70596500D03*
X148329000Y-70596500D03*
X147679000Y-70596500D03*
X147029000Y-70596500D03*
X146379000Y-70596500D03*
X145729000Y-70596500D03*
X145079000Y-70596500D03*
X144429000Y-70596500D03*
X143779000Y-70596500D03*
%TD*%
D13*
%TO.C,KiKit_MB_6_2*%
X127333334Y-57000500D03*
%TD*%
D17*
%TO.C,J3*%
X146988000Y-29540500D03*
D18*
X149528000Y-29540500D03*
X152068000Y-29540500D03*
%TD*%
D13*
%TO.C,KiKit_MB_16_3*%
X126333334Y-89000500D03*
%TD*%
%TO.C,KiKit_MB_13_1*%
X147000000Y-59000500D03*
%TD*%
%TO.C,KiKit_MB_13_4*%
X150000000Y-59000500D03*
%TD*%
%TO.C,KiKit_MB_7_4*%
X136166667Y-57000500D03*
%TD*%
D15*
%TO.C,R3*%
X157116000Y-29540500D03*
X155116000Y-29540500D03*
%TD*%
D13*
%TO.C,KiKit_MB_7_2*%
X138166667Y-57000500D03*
%TD*%
D12*
%TO.C,R2*%
X141940000Y-29540500D03*
X143940000Y-29540500D03*
%TD*%
D13*
%TO.C,KiKit_MB_19_4*%
X157833333Y-89000500D03*
%TD*%
D16*
%TO.C,U1*%
X143779000Y-45796500D03*
X144429000Y-45796500D03*
X145079000Y-45796500D03*
X145729000Y-45796500D03*
X146379000Y-45796500D03*
X147029000Y-45796500D03*
X147679000Y-45796500D03*
X148329000Y-45796500D03*
X148979000Y-45796500D03*
X149629000Y-45796500D03*
X150279000Y-45796500D03*
X150929000Y-45796500D03*
X151579000Y-45796500D03*
X152229000Y-45796500D03*
X152229000Y-38596500D03*
X151579000Y-38596500D03*
X150929000Y-38596500D03*
X150279000Y-38596500D03*
X149629000Y-38596500D03*
X148979000Y-38596500D03*
X148329000Y-38596500D03*
X147679000Y-38596500D03*
X147029000Y-38596500D03*
X146379000Y-38596500D03*
X145729000Y-38596500D03*
X145079000Y-38596500D03*
X144429000Y-38596500D03*
X143779000Y-38596500D03*
%TD*%
D19*
%TO.C,C8*%
X136277000Y-64118500D03*
X138352000Y-64118500D03*
%TD*%
D13*
%TO.C,KiKit_MB_9_1*%
X160833333Y-57000500D03*
%TD*%
%TO.C,KiKit_MB_2_1*%
X136166667Y-27000500D03*
%TD*%
D17*
%TO.C,J2*%
X169848000Y-86432500D03*
D18*
X167308000Y-86432500D03*
X164768000Y-86432500D03*
X162228000Y-86432500D03*
X159688000Y-86432500D03*
X157148000Y-86432500D03*
X154608000Y-86432500D03*
X152068000Y-86432500D03*
X149528000Y-86432500D03*
X146988000Y-86432500D03*
X144448000Y-86432500D03*
X141908000Y-86432500D03*
X139368000Y-86432500D03*
X136828000Y-86432500D03*
X134288000Y-86432500D03*
X131748000Y-86432500D03*
X129208000Y-86432500D03*
X126668000Y-86432500D03*
%TD*%
D13*
%TO.C,KiKit_MB_9_2*%
X159833333Y-57000500D03*
%TD*%
%TO.C,KiKit_MB_3_2*%
X148000000Y-27000500D03*
%TD*%
%TO.C,KiKit_MB_12_2*%
X137166667Y-59000500D03*
%TD*%
%TO.C,KiKit_MB_5_3*%
X170666666Y-27000500D03*
%TD*%
%TO.C,KiKit_MB_12_3*%
X138166667Y-59000500D03*
%TD*%
%TO.C,KiKit_MB_19_2*%
X159833333Y-89000500D03*
%TD*%
%TO.C,KiKit_MB_4_3*%
X159833333Y-27000500D03*
%TD*%
%TO.C,KiKit_MB_17_2*%
X138166667Y-89000500D03*
%TD*%
%TO.C,KiKit_MB_20_2*%
X170666666Y-89000500D03*
%TD*%
D17*
%TO.C,J2*%
X169848000Y-54432500D03*
D18*
X167308000Y-54432500D03*
X164768000Y-54432500D03*
X162228000Y-54432500D03*
X159688000Y-54432500D03*
X157148000Y-54432500D03*
X154608000Y-54432500D03*
X152068000Y-54432500D03*
X149528000Y-54432500D03*
X146988000Y-54432500D03*
X144448000Y-54432500D03*
X141908000Y-54432500D03*
X139368000Y-54432500D03*
X136828000Y-54432500D03*
X134288000Y-54432500D03*
X131748000Y-54432500D03*
X129208000Y-54432500D03*
X126668000Y-54432500D03*
%TD*%
D13*
%TO.C,KiKit_MB_19_3*%
X158833333Y-89000500D03*
%TD*%
%TO.C,KiKit_MB_18_4*%
X147000000Y-89000500D03*
%TD*%
D14*
%TO.C,REF\u002A\u002A*%
X177976000Y-30048500D03*
%TD*%
D13*
%TO.C,KiKit_MB_4_4*%
X160833333Y-27000500D03*
%TD*%
%TO.C,KiKit_MB_2_3*%
X138166667Y-27000500D03*
%TD*%
D19*
%TO.C,C1*%
X157126500Y-67636500D03*
X159201500Y-67636500D03*
%TD*%
D13*
%TO.C,KiKit_MB_5_2*%
X169666666Y-27000500D03*
%TD*%
D15*
%TO.C,R1*%
X155116000Y-67636500D03*
X153116000Y-67636500D03*
%TD*%
D14*
%TO.C,REF\u002A\u002A*%
X177976000Y-62048500D03*
%TD*%
D13*
%TO.C,KiKit_MB_16_2*%
X127333334Y-89000500D03*
%TD*%
%TO.C,KiKit_MB_3_4*%
X150000000Y-27000500D03*
%TD*%
%TO.C,KiKit_MB_6_1*%
X128333334Y-57000500D03*
%TD*%
%TO.C,KiKit_MB_20_1*%
X171666666Y-89000500D03*
%TD*%
%TO.C,KiKit_MB_12_1*%
X136166667Y-59000500D03*
%TD*%
%TO.C,KiKit_MB_5_4*%
X171666666Y-27000500D03*
%TD*%
D14*
%TO.C,REF\u002A\u002A*%
X119048000Y-62048500D03*
%TD*%
D13*
%TO.C,KiKit_MB_8_4*%
X147000000Y-57000500D03*
%TD*%
D14*
%TO.C,REF\u002A\u002A*%
X119048000Y-30048500D03*
%TD*%
D13*
%TO.C,KiKit_MB_9_3*%
X158833333Y-57000500D03*
%TD*%
%TO.C,KiKit_MB_10_2*%
X170666666Y-57000500D03*
%TD*%
%TO.C,KiKit_MB_11_1*%
X125333334Y-59000500D03*
%TD*%
D10*
%TO.C,C2*%
X127176000Y-45122121D03*
D11*
X127176000Y-47622121D03*
%TD*%
D13*
%TO.C,KiKit_MB_1_2*%
X126333334Y-27000500D03*
%TD*%
%TO.C,KiKit_MB_17_3*%
X137166667Y-89000500D03*
%TD*%
D19*
%TO.C,C8*%
X136277000Y-32118500D03*
X138352000Y-32118500D03*
%TD*%
D13*
%TO.C,KiKit_MB_11_2*%
X126333334Y-59000500D03*
%TD*%
%TO.C,KiKit_MB_14_3*%
X159833333Y-59000500D03*
%TD*%
%TO.C,KiKit_MB_6_4*%
X125333334Y-57000500D03*
%TD*%
%TO.C,KiKit_MB_2_2*%
X137166667Y-27000500D03*
%TD*%
%TO.C,KiKit_MB_17_4*%
X136166667Y-89000500D03*
%TD*%
D19*
%TO.C,C9*%
X136277000Y-66620500D03*
X138352000Y-66620500D03*
%TD*%
D17*
%TO.C,J4*%
X118540000Y-38176500D03*
D18*
X118540000Y-40716500D03*
X118540000Y-43256500D03*
X118540000Y-45796500D03*
%TD*%
D13*
%TO.C,KiKit_MB_18_2*%
X149000000Y-89000500D03*
%TD*%
%TO.C,KiKit_MB_20_4*%
X168666666Y-89000500D03*
%TD*%
D14*
%TO.C,REF\u002A\u002A*%
X177976000Y-53924500D03*
%TD*%
D19*
%TO.C,C9*%
X136277000Y-34620500D03*
X138352000Y-34620500D03*
%TD*%
D13*
%TO.C,KiKit_MB_14_1*%
X157833333Y-59000500D03*
%TD*%
%TO.C,KiKit_MB_8_3*%
X148000000Y-57000500D03*
%TD*%
%TO.C,KiKit_MB_15_2*%
X169666666Y-59000500D03*
%TD*%
D17*
%TO.C,J4*%
X118540000Y-70176500D03*
D18*
X118540000Y-72716500D03*
X118540000Y-75256500D03*
X118540000Y-77796500D03*
%TD*%
D13*
%TO.C,KiKit_MB_1_4*%
X128333334Y-27000500D03*
%TD*%
%TO.C,KiKit_MB_16_4*%
X125333334Y-89000500D03*
%TD*%
%TO.C,KiKit_MB_14_4*%
X160833333Y-59000500D03*
%TD*%
%TO.C,KiKit_MB_11_3*%
X127333334Y-59000500D03*
%TD*%
D14*
%TO.C,REF\u002A\u002A*%
X119048000Y-53924500D03*
%TD*%
D13*
%TO.C,KiKit_MB_18_1*%
X150000000Y-89000500D03*
%TD*%
%TO.C,KiKit_MB_13_2*%
X148000000Y-59000500D03*
%TD*%
%TO.C,KiKit_MB_12_4*%
X139166667Y-59000500D03*
%TD*%
%TO.C,KiKit_MB_10_4*%
X168666666Y-57000500D03*
%TD*%
%TO.C,KiKit_MB_5_1*%
X168666666Y-27000500D03*
%TD*%
%TO.C,KiKit_MB_15_1*%
X168666666Y-59000500D03*
%TD*%
%TO.C,KiKit_MB_8_2*%
X149000000Y-57000500D03*
%TD*%
%TO.C,KiKit_MB_19_1*%
X160833333Y-89000500D03*
%TD*%
%TO.C,KiKit_MB_8_1*%
X150000000Y-57000500D03*
%TD*%
D19*
%TO.C,C1*%
X157126500Y-35636500D03*
X159201500Y-35636500D03*
%TD*%
D15*
%TO.C,R3*%
X157116000Y-61540500D03*
X155116000Y-61540500D03*
%TD*%
D13*
%TO.C,KiKit_MB_4_2*%
X158833333Y-27000500D03*
%TD*%
%TO.C,KiKit_MB_14_2*%
X158833333Y-59000500D03*
%TD*%
%TO.C,KiKit_MB_15_3*%
X170666666Y-59000500D03*
%TD*%
%TO.C,KiKit_MB_18_3*%
X148000000Y-89000500D03*
%TD*%
%TO.C,KiKit_MB_1_3*%
X127333334Y-27000500D03*
%TD*%
%TO.C,KiKit_MB_10_1*%
X171666666Y-57000500D03*
%TD*%
%TO.C,KiKit_MB_3_1*%
X147000000Y-27000500D03*
%TD*%
D14*
%TO.C,REF\u002A\u002A*%
X119048000Y-85924500D03*
%TD*%
D17*
%TO.C,J3*%
X146988000Y-61540500D03*
D18*
X149528000Y-61540500D03*
X152068000Y-61540500D03*
%TD*%
D13*
%TO.C,KiKit_MB_1_1*%
X125333334Y-27000500D03*
%TD*%
%TO.C,KiKit_MB_10_3*%
X169666666Y-57000500D03*
%TD*%
%TO.C,KiKit_MB_2_4*%
X139166667Y-27000500D03*
%TD*%
%TO.C,KiKit_MB_9_4*%
X157833333Y-57000500D03*
%TD*%
D10*
%TO.C,C2*%
X127176000Y-77122121D03*
D11*
X127176000Y-79622121D03*
%TD*%
D13*
%TO.C,KiKit_MB_4_1*%
X157833333Y-27000500D03*
%TD*%
%TO.C,KiKit_MB_13_3*%
X149000000Y-59000500D03*
%TD*%
M02*
