%TF.GenerationSoftware,KiCad,Pcbnew,8.0.4*%
%TF.CreationDate,2024-08-18T00:19:52+02:00*%
%TF.ProjectId,untitled,756e7469-746c-4656-942e-6b696361645f,rev?*%
%TF.SameCoordinates,Original*%
%TF.FileFunction,Copper,L2,Bot*%
%TF.FilePolarity,Positive*%
%FSLAX46Y46*%
G04 Gerber Fmt 4.6, Leading zero omitted, Abs format (unit mm)*
G04 Created by KiCad (PCBNEW 8.0.4) date 2024-08-18 00:19:52*
%MOMM*%
%LPD*%
G01*
G04 APERTURE LIST*
G04 Aperture macros list*
%AMRoundRect*
0 Rectangle with rounded corners*
0 $1 Rounding radius*
0 $2 $3 $4 $5 $6 $7 $8 $9 X,Y pos of 4 corners*
0 Add a 4 corners polygon primitive as box body*
4,1,4,$2,$3,$4,$5,$6,$7,$8,$9,$2,$3,0*
0 Add four circle primitives for the rounded corners*
1,1,$1+$1,$2,$3*
1,1,$1+$1,$4,$5*
1,1,$1+$1,$6,$7*
1,1,$1+$1,$8,$9*
0 Add four rect primitives between the rounded corners*
20,1,$1+$1,$2,$3,$4,$5,0*
20,1,$1+$1,$4,$5,$6,$7,0*
20,1,$1+$1,$6,$7,$8,$9,0*
20,1,$1+$1,$8,$9,$2,$3,0*%
G04 Aperture macros list end*
%TA.AperFunction,SMDPad,CuDef*%
%ADD10RoundRect,0.250000X0.650000X-0.412500X0.650000X0.412500X-0.650000X0.412500X-0.650000X-0.412500X0*%
%TD*%
%TA.AperFunction,SMDPad,CuDef*%
%ADD11RoundRect,0.250000X0.475000X-0.337500X0.475000X0.337500X-0.475000X0.337500X-0.475000X-0.337500X0*%
%TD*%
%TA.AperFunction,ComponentPad*%
%ADD12R,1.600000X1.600000*%
%TD*%
%TA.AperFunction,ComponentPad*%
%ADD13C,1.600000*%
%TD*%
%TA.AperFunction,ComponentPad*%
%ADD14R,1.700000X1.700000*%
%TD*%
%TA.AperFunction,ComponentPad*%
%ADD15O,1.700000X1.700000*%
%TD*%
%TA.AperFunction,ViaPad*%
%ADD16C,0.600000*%
%TD*%
%TA.AperFunction,ViaPad*%
%ADD17C,0.900000*%
%TD*%
%TA.AperFunction,Conductor*%
%ADD18C,0.400000*%
%TD*%
%TA.AperFunction,Conductor*%
%ADD19C,1.000000*%
%TD*%
G04 APERTURE END LIST*
D10*
%TO.P,C6,1*%
%TO.N,Board_0-/-5V*%
X150544000Y-35636500D03*
%TO.P,C6,2*%
%TO.N,Board_0-GND*%
X150544000Y-32511500D03*
%TD*%
D11*
%TO.P,C3,1*%
%TO.N,Board_0-/+5V*%
X144956000Y-34620500D03*
%TO.P,C3,2*%
%TO.N,Board_0-GND*%
X144956000Y-32545500D03*
%TD*%
D10*
%TO.P,C6,1*%
%TO.N,Board_1-/-5V*%
X150544000Y-67636500D03*
%TO.P,C6,2*%
%TO.N,Board_1-GND*%
X150544000Y-64511500D03*
%TD*%
D11*
%TO.P,C3,1*%
%TO.N,Board_1-/+5V*%
X144956000Y-66620500D03*
%TO.P,C3,2*%
%TO.N,Board_1-GND*%
X144956000Y-64545500D03*
%TD*%
D10*
%TO.P,C4,1*%
%TO.N,Board_1-/+5V*%
X142416000Y-67713500D03*
%TO.P,C4,2*%
%TO.N,Board_1-GND*%
X142416000Y-64588500D03*
%TD*%
D11*
%TO.P,C7,1*%
%TO.N,Board_1-/-5V*%
X148004000Y-66620500D03*
%TO.P,C7,2*%
%TO.N,Board_1-GND*%
X148004000Y-64545500D03*
%TD*%
D10*
%TO.P,C4,1*%
%TO.N,Board_0-/+5V*%
X142416000Y-35713500D03*
%TO.P,C4,2*%
%TO.N,Board_0-GND*%
X142416000Y-32588500D03*
%TD*%
D11*
%TO.P,C7,1*%
%TO.N,Board_0-/-5V*%
X148004000Y-34620500D03*
%TO.P,C7,2*%
%TO.N,Board_0-GND*%
X148004000Y-32545500D03*
%TD*%
D12*
%TO.P,C5,1*%
%TO.N,Board_0-GND*%
X127176000Y-35676500D03*
D13*
%TO.P,C5,2*%
%TO.N,Board_0-/-5V*%
X127176000Y-38176500D03*
%TD*%
D12*
%TO.P,C5,1*%
%TO.N,Board_1-GND*%
X127176000Y-67676500D03*
D13*
%TO.P,C5,2*%
%TO.N,Board_1-/-5V*%
X127176000Y-70176500D03*
%TD*%
D14*
%TO.P,J3,1,Pin_1*%
%TO.N,Board_0-/VOUT+*%
X146988000Y-29540500D03*
D15*
%TO.P,J3,2,Pin_2*%
%TO.N,Board_0-GND*%
X149528000Y-29540500D03*
%TO.P,J3,3,Pin_3*%
%TO.N,Board_0-/VOUT-*%
X152068000Y-29540500D03*
%TD*%
D14*
%TO.P,J2,1,Pin_1*%
%TO.N,Board_1-GND*%
X169848000Y-86432500D03*
D15*
%TO.P,J2,2,Pin_2*%
%TO.N,Board_1-Net-(J2-Pin_2)*%
X167308000Y-86432500D03*
%TO.P,J2,3,Pin_3*%
%TO.N,Board_1-Net-(J2-Pin_3)*%
X164768000Y-86432500D03*
%TO.P,J2,4,Pin_4*%
%TO.N,Board_1-Net-(J2-Pin_4)*%
X162228000Y-86432500D03*
%TO.P,J2,5,Pin_5*%
%TO.N,Board_1-Net-(J2-Pin_5)*%
X159688000Y-86432500D03*
%TO.P,J2,6,Pin_6*%
%TO.N,Board_1-Net-(J2-Pin_6)*%
X157148000Y-86432500D03*
%TO.P,J2,7,Pin_7*%
%TO.N,Board_1-Net-(J2-Pin_7)*%
X154608000Y-86432500D03*
%TO.P,J2,8,Pin_8*%
%TO.N,Board_1-Net-(J2-Pin_8)*%
X152068000Y-86432500D03*
%TO.P,J2,9,Pin_9*%
%TO.N,Board_1-Net-(J2-Pin_9)*%
X149528000Y-86432500D03*
%TO.P,J2,10,Pin_10*%
%TO.N,Board_1-Net-(J2-Pin_10)*%
X146988000Y-86432500D03*
%TO.P,J2,11,Pin_11*%
%TO.N,Board_1-Net-(J2-Pin_11)*%
X144448000Y-86432500D03*
%TO.P,J2,12,Pin_12*%
%TO.N,Board_1-Net-(J2-Pin_12)*%
X141908000Y-86432500D03*
%TO.P,J2,13,Pin_13*%
%TO.N,Board_1-Net-(J2-Pin_13)*%
X139368000Y-86432500D03*
%TO.P,J2,14,Pin_14*%
%TO.N,Board_1-Net-(J2-Pin_14)*%
X136828000Y-86432500D03*
%TO.P,J2,15,Pin_15*%
%TO.N,Board_1-Net-(J2-Pin_15)*%
X134288000Y-86432500D03*
%TO.P,J2,16,Pin_16*%
%TO.N,Board_1-Net-(J2-Pin_16)*%
X131748000Y-86432500D03*
%TO.P,J2,17,Pin_17*%
%TO.N,Board_1-Net-(J2-Pin_17)*%
X129208000Y-86432500D03*
%TO.P,J2,18,Pin_18*%
%TO.N,Board_1-Net-(J2-Pin_18)*%
X126668000Y-86432500D03*
%TD*%
D14*
%TO.P,J2,1,Pin_1*%
%TO.N,Board_0-GND*%
X169848000Y-54432500D03*
D15*
%TO.P,J2,2,Pin_2*%
%TO.N,Board_0-Net-(J2-Pin_2)*%
X167308000Y-54432500D03*
%TO.P,J2,3,Pin_3*%
%TO.N,Board_0-Net-(J2-Pin_3)*%
X164768000Y-54432500D03*
%TO.P,J2,4,Pin_4*%
%TO.N,Board_0-Net-(J2-Pin_4)*%
X162228000Y-54432500D03*
%TO.P,J2,5,Pin_5*%
%TO.N,Board_0-Net-(J2-Pin_5)*%
X159688000Y-54432500D03*
%TO.P,J2,6,Pin_6*%
%TO.N,Board_0-Net-(J2-Pin_6)*%
X157148000Y-54432500D03*
%TO.P,J2,7,Pin_7*%
%TO.N,Board_0-Net-(J2-Pin_7)*%
X154608000Y-54432500D03*
%TO.P,J2,8,Pin_8*%
%TO.N,Board_0-Net-(J2-Pin_8)*%
X152068000Y-54432500D03*
%TO.P,J2,9,Pin_9*%
%TO.N,Board_0-Net-(J2-Pin_9)*%
X149528000Y-54432500D03*
%TO.P,J2,10,Pin_10*%
%TO.N,Board_0-Net-(J2-Pin_10)*%
X146988000Y-54432500D03*
%TO.P,J2,11,Pin_11*%
%TO.N,Board_0-Net-(J2-Pin_11)*%
X144448000Y-54432500D03*
%TO.P,J2,12,Pin_12*%
%TO.N,Board_0-Net-(J2-Pin_12)*%
X141908000Y-54432500D03*
%TO.P,J2,13,Pin_13*%
%TO.N,Board_0-Net-(J2-Pin_13)*%
X139368000Y-54432500D03*
%TO.P,J2,14,Pin_14*%
%TO.N,Board_0-Net-(J2-Pin_14)*%
X136828000Y-54432500D03*
%TO.P,J2,15,Pin_15*%
%TO.N,Board_0-Net-(J2-Pin_15)*%
X134288000Y-54432500D03*
%TO.P,J2,16,Pin_16*%
%TO.N,Board_0-Net-(J2-Pin_16)*%
X131748000Y-54432500D03*
%TO.P,J2,17,Pin_17*%
%TO.N,Board_0-Net-(J2-Pin_17)*%
X129208000Y-54432500D03*
%TO.P,J2,18,Pin_18*%
%TO.N,Board_0-Net-(J2-Pin_18)*%
X126668000Y-54432500D03*
%TD*%
D12*
%TO.P,C2,1*%
%TO.N,Board_0-/+5V*%
X127176000Y-45122121D03*
D13*
%TO.P,C2,2*%
%TO.N,Board_0-GND*%
X127176000Y-47622121D03*
%TD*%
D14*
%TO.P,J4,1,Pin_1*%
%TO.N,Board_0-GND*%
X118540000Y-38176500D03*
D15*
%TO.P,J4,2,Pin_2*%
%TO.N,Board_0-/-5V*%
X118540000Y-40716500D03*
%TO.P,J4,3,Pin_3*%
%TO.N,Board_0-GND*%
X118540000Y-43256500D03*
%TO.P,J4,4,Pin_4*%
%TO.N,Board_0-/+5V*%
X118540000Y-45796500D03*
%TD*%
D14*
%TO.P,J4,1,Pin_1*%
%TO.N,Board_1-GND*%
X118540000Y-70176500D03*
D15*
%TO.P,J4,2,Pin_2*%
%TO.N,Board_1-/-5V*%
X118540000Y-72716500D03*
%TO.P,J4,3,Pin_3*%
%TO.N,Board_1-GND*%
X118540000Y-75256500D03*
%TO.P,J4,4,Pin_4*%
%TO.N,Board_1-/+5V*%
X118540000Y-77796500D03*
%TD*%
D14*
%TO.P,J3,1,Pin_1*%
%TO.N,Board_1-/VOUT+*%
X146988000Y-61540500D03*
D15*
%TO.P,J3,2,Pin_2*%
%TO.N,Board_1-GND*%
X149528000Y-61540500D03*
%TO.P,J3,3,Pin_3*%
%TO.N,Board_1-/VOUT-*%
X152068000Y-61540500D03*
%TD*%
D12*
%TO.P,C2,1*%
%TO.N,Board_1-/+5V*%
X127176000Y-77122121D03*
D13*
%TO.P,C2,2*%
%TO.N,Board_1-GND*%
X127176000Y-79622121D03*
%TD*%
D16*
%TO.N,Board_1-Net-(U1-COMP2)*%
X139368000Y-71700500D03*
X147496000Y-73224500D03*
%TO.N,Board_1-Net-(J2-Pin_18)*%
X135304000Y-75764500D03*
X143432000Y-74240500D03*
%TO.N,Board_1-Net-(J2-Pin_16)*%
X136828000Y-76780500D03*
%TO.N,Board_1-GND*%
X160704000Y-62556500D03*
X165276000Y-65096500D03*
X133272000Y-61032500D03*
X127684000Y-61032500D03*
X146988000Y-74240500D03*
X169848000Y-80844500D03*
X125144000Y-83892500D03*
X157148000Y-73732500D03*
X160704000Y-83892500D03*
X165276000Y-67128500D03*
X136320000Y-69668500D03*
X178484000Y-73224500D03*
X176452000Y-69160500D03*
X173912000Y-78812500D03*
X163244000Y-69160500D03*
X155116000Y-77796500D03*
X130224000Y-72208500D03*
X165276000Y-78304500D03*
X148512000Y-63064500D03*
X122099511Y-63078154D03*
X171880000Y-62556500D03*
X140384000Y-81860500D03*
X139368000Y-78812500D03*
X133272000Y-65096500D03*
X155624000Y-84400500D03*
X142924000Y-84400500D03*
X137844000Y-62556500D03*
X174420000Y-86940500D03*
X173912000Y-73732500D03*
X155624000Y-79828500D03*
X158672000Y-75764500D03*
X176452000Y-71192500D03*
X120064000Y-82368500D03*
X140384000Y-83892500D03*
X117524000Y-82368500D03*
X137336000Y-80844500D03*
X133780000Y-78812500D03*
X139876000Y-61032500D03*
X157148000Y-71700500D03*
X172388000Y-84908500D03*
X165276000Y-80336500D03*
X178484000Y-77796500D03*
X122096000Y-71192500D03*
X176452000Y-77796500D03*
X160704000Y-66112500D03*
X135812000Y-76780500D03*
X173912000Y-65096500D03*
X122096000Y-67636500D03*
X122096000Y-61032500D03*
X127176000Y-73224500D03*
X128065000Y-84400500D03*
X171880000Y-78812500D03*
X135304000Y-82876500D03*
X160704000Y-75764500D03*
X173912000Y-80844500D03*
X127176000Y-74748500D03*
X117524000Y-65096500D03*
X163244000Y-65096500D03*
X173912000Y-76272500D03*
X152576000Y-75764500D03*
X169848000Y-60524500D03*
X119556000Y-65096500D03*
X142416000Y-79828500D03*
X140384000Y-70684500D03*
X176452000Y-81860500D03*
X160704000Y-79320500D03*
X146226000Y-67890500D03*
X174420000Y-84908500D03*
X123620000Y-66620500D03*
X151052000Y-75764500D03*
X169848000Y-78812500D03*
X178484000Y-79828500D03*
X165276000Y-75764500D03*
X178484000Y-81860500D03*
X176452000Y-73224500D03*
X155116000Y-73732500D03*
X165276000Y-73732500D03*
X171880000Y-71700500D03*
X163244000Y-83892500D03*
X130732000Y-74240500D03*
X173912000Y-67128500D03*
X124636000Y-65096500D03*
X124636000Y-61032500D03*
X124636000Y-63064500D03*
X163244000Y-60524500D03*
X160704000Y-64080500D03*
X143940000Y-80844500D03*
X144448000Y-82368500D03*
X178484000Y-67128500D03*
X163244000Y-75764500D03*
X132764000Y-76907500D03*
X158672000Y-77288500D03*
X160704000Y-69160500D03*
X169848000Y-73732500D03*
X167816000Y-62556500D03*
X122604000Y-86432500D03*
X130224000Y-61032500D03*
X171880000Y-60524500D03*
X169848000Y-65096500D03*
X122604000Y-82368500D03*
X163244000Y-80336500D03*
X176452000Y-79828500D03*
X149020000Y-73732500D03*
X167816000Y-76272500D03*
X140892000Y-69160500D03*
X157148000Y-77796500D03*
X148512000Y-75764500D03*
X127557000Y-81987500D03*
X172388000Y-86940500D03*
X144956000Y-73732500D03*
X171880000Y-80844500D03*
X143940000Y-75764500D03*
X133272000Y-67636500D03*
X165276000Y-71192500D03*
X117524000Y-67636500D03*
X158672000Y-73732500D03*
X155116000Y-71700500D03*
X140384000Y-66493500D03*
X160704000Y-60524500D03*
X130732000Y-67636500D03*
X155558381Y-66137622D03*
X130224000Y-63064500D03*
X125144000Y-82368500D03*
X158672000Y-62556500D03*
X167816000Y-71700500D03*
X122096000Y-65096500D03*
X151052000Y-63064500D03*
X176452000Y-67128500D03*
X152576000Y-72208500D03*
X137844000Y-72716500D03*
X167816000Y-65096500D03*
X136066000Y-73732500D03*
X155624000Y-64080500D03*
X167816000Y-67128500D03*
X120064000Y-80336500D03*
X148512000Y-84400500D03*
X178484000Y-69160500D03*
X139876000Y-62556500D03*
X169848000Y-62556500D03*
X169848000Y-71700500D03*
X153084000Y-66112500D03*
X158672000Y-60524500D03*
X173912000Y-60524500D03*
X171880000Y-73732500D03*
X155116000Y-75764500D03*
X165276000Y-62556500D03*
X149528000Y-82368500D03*
X173912000Y-71700500D03*
X141908000Y-61540500D03*
X167816000Y-69160500D03*
X178484000Y-71192500D03*
X163244000Y-73732500D03*
X158164000Y-64080500D03*
X122604000Y-84400500D03*
X141400000Y-76780500D03*
X167816000Y-78812500D03*
X151052000Y-83892500D03*
X160704000Y-71192500D03*
X145464000Y-84400500D03*
X171880000Y-67128500D03*
X169848000Y-69160500D03*
X176452000Y-75764500D03*
X167816000Y-60524500D03*
X160704000Y-77288500D03*
X174420000Y-82876500D03*
X163244000Y-67128500D03*
X149020000Y-72208500D03*
X158672000Y-83892500D03*
X171880000Y-65096500D03*
X158672000Y-69160500D03*
X138352000Y-83892500D03*
X122604000Y-80336500D03*
X151052000Y-74240500D03*
X165276000Y-69160500D03*
X160704000Y-73732500D03*
X178484000Y-75764500D03*
X121588000Y-74240500D03*
X163244000Y-62556500D03*
X121588000Y-76272500D03*
X158672000Y-79320500D03*
X137844000Y-61032500D03*
X133272000Y-63064500D03*
X163244000Y-78304500D03*
X135812000Y-61032500D03*
X131240000Y-81352500D03*
X153084000Y-64080500D03*
X165276000Y-60524500D03*
X172388000Y-82876500D03*
X133272000Y-72208500D03*
X157148000Y-75764500D03*
X145972000Y-75764500D03*
X135812000Y-62556500D03*
X158672000Y-71192500D03*
X167816000Y-80844500D03*
X167816000Y-73732500D03*
X163244000Y-71192500D03*
X124636000Y-74748500D03*
X152576000Y-73732500D03*
X169848000Y-67128500D03*
X127684000Y-63064500D03*
X130224000Y-65096500D03*
X117524000Y-80336500D03*
X173912000Y-62556500D03*
X119556000Y-67636500D03*
X171880000Y-76272500D03*
X171880000Y-69160500D03*
X169848000Y-76272500D03*
X173912000Y-69160500D03*
D17*
%TO.N,Board_1-/-5V*%
X147496000Y-68144500D03*
%TO.N,Board_1-/+5V*%
X144956000Y-68144500D03*
D16*
%TO.N,Board_0-Net-(U1-COMP2)*%
X139368000Y-39700500D03*
X147496000Y-41224500D03*
%TO.N,Board_0-Net-(J2-Pin_18)*%
X135304000Y-43764500D03*
X143432000Y-42240500D03*
%TO.N,Board_0-Net-(J2-Pin_16)*%
X136828000Y-44780500D03*
%TO.N,Board_0-GND*%
X158672000Y-41732500D03*
X169848000Y-48844500D03*
X172388000Y-50876500D03*
X163244000Y-48336500D03*
X151052000Y-31064500D03*
X178484000Y-45796500D03*
X128065000Y-52400500D03*
X155624000Y-32080500D03*
X157148000Y-45796500D03*
X152576000Y-43764500D03*
X169848000Y-39700500D03*
X163244000Y-41732500D03*
X117524000Y-33096500D03*
X137844000Y-29032500D03*
X140384000Y-49860500D03*
X143940000Y-48844500D03*
X160704000Y-37160500D03*
X176452000Y-35128500D03*
X173912000Y-41732500D03*
X160704000Y-32080500D03*
X165276000Y-35128500D03*
X167816000Y-44272500D03*
X171880000Y-41732500D03*
X155558381Y-34137622D03*
X160704000Y-28524500D03*
X165276000Y-43764500D03*
X173912000Y-48844500D03*
X178484000Y-35128500D03*
X171880000Y-46812500D03*
X158672000Y-43764500D03*
X117524000Y-35636500D03*
X122604000Y-52400500D03*
X171880000Y-30556500D03*
X174420000Y-50876500D03*
X155116000Y-45796500D03*
X138352000Y-51892500D03*
X158672000Y-51892500D03*
X165276000Y-41732500D03*
X132764000Y-44907500D03*
X121588000Y-44272500D03*
X155624000Y-47828500D03*
X173912000Y-28524500D03*
X160704000Y-47320500D03*
X149020000Y-40208500D03*
X165276000Y-39192500D03*
X148512000Y-43764500D03*
X158672000Y-28524500D03*
X165276000Y-37160500D03*
X139876000Y-30556500D03*
X135812000Y-29032500D03*
X130732000Y-35636500D03*
X176452000Y-47828500D03*
X135812000Y-44780500D03*
X176452000Y-41224500D03*
X122604000Y-48336500D03*
X176452000Y-37160500D03*
X171880000Y-35128500D03*
X124636000Y-31064500D03*
X127684000Y-31064500D03*
X155116000Y-41732500D03*
X130732000Y-42240500D03*
X158672000Y-30556500D03*
X149020000Y-41732500D03*
X157148000Y-39700500D03*
X141400000Y-44780500D03*
X176452000Y-45796500D03*
X127176000Y-41224500D03*
X158672000Y-37160500D03*
X133272000Y-31064500D03*
X122096000Y-39192500D03*
X130224000Y-29032500D03*
X136320000Y-37668500D03*
X122099511Y-31078154D03*
X130224000Y-31064500D03*
X169848000Y-33096500D03*
X124636000Y-29032500D03*
X160704000Y-30556500D03*
X144448000Y-50368500D03*
X171880000Y-33096500D03*
X140384000Y-51892500D03*
X165276000Y-48336500D03*
X173912000Y-44272500D03*
X145464000Y-52400500D03*
X158164000Y-32080500D03*
X167816000Y-35128500D03*
X173912000Y-30556500D03*
X171880000Y-48844500D03*
X178484000Y-41224500D03*
X163244000Y-43764500D03*
X173912000Y-37160500D03*
X153084000Y-32080500D03*
X139368000Y-46812500D03*
X163244000Y-35128500D03*
X143940000Y-43764500D03*
X173912000Y-35128500D03*
X167816000Y-41732500D03*
X124636000Y-42748500D03*
X127176000Y-42748500D03*
X125144000Y-51892500D03*
X137844000Y-30556500D03*
X158672000Y-47320500D03*
X140892000Y-37160500D03*
X167816000Y-48844500D03*
X127684000Y-29032500D03*
X122096000Y-29032500D03*
X163244000Y-33096500D03*
X160704000Y-51892500D03*
X155624000Y-52400500D03*
X165276000Y-46304500D03*
X137336000Y-48844500D03*
X140384000Y-34493500D03*
X133780000Y-46812500D03*
X176452000Y-43764500D03*
X117524000Y-48336500D03*
X131240000Y-49352500D03*
X167816000Y-33096500D03*
X133272000Y-29032500D03*
X163244000Y-37160500D03*
X163244000Y-28524500D03*
X167816000Y-37160500D03*
X155116000Y-43764500D03*
X169848000Y-37160500D03*
X144956000Y-41732500D03*
X146226000Y-35890500D03*
X149528000Y-50368500D03*
X167816000Y-30556500D03*
X124636000Y-33096500D03*
X135812000Y-30556500D03*
X121588000Y-42240500D03*
X169848000Y-30556500D03*
X151052000Y-42240500D03*
X178484000Y-43764500D03*
X135304000Y-50876500D03*
X122604000Y-50368500D03*
X125144000Y-50368500D03*
X148512000Y-52400500D03*
X145972000Y-43764500D03*
X163244000Y-39192500D03*
X133272000Y-33096500D03*
X122096000Y-33096500D03*
X120064000Y-50368500D03*
X163244000Y-30556500D03*
X148512000Y-31064500D03*
X133272000Y-40208500D03*
X157148000Y-43764500D03*
X160704000Y-43764500D03*
X119556000Y-33096500D03*
X123620000Y-34620500D03*
X157148000Y-41732500D03*
X152576000Y-41732500D03*
X178484000Y-47828500D03*
X151052000Y-51892500D03*
X171880000Y-39700500D03*
X160704000Y-41732500D03*
X137844000Y-40716500D03*
X141908000Y-29540500D03*
X140384000Y-38684500D03*
X169848000Y-46812500D03*
X176452000Y-49860500D03*
X173912000Y-33096500D03*
X146988000Y-42240500D03*
X160704000Y-39192500D03*
X158672000Y-45288500D03*
X167816000Y-28524500D03*
X127557000Y-49987500D03*
X139876000Y-29032500D03*
X133272000Y-35636500D03*
X171880000Y-28524500D03*
X169848000Y-41732500D03*
X169848000Y-35128500D03*
X173912000Y-39700500D03*
X172388000Y-54940500D03*
X136066000Y-41732500D03*
X122096000Y-35636500D03*
X160704000Y-34112500D03*
X142924000Y-52400500D03*
X169848000Y-28524500D03*
X122604000Y-54432500D03*
X169848000Y-44272500D03*
X130224000Y-33096500D03*
X167816000Y-46812500D03*
X174420000Y-52908500D03*
X119556000Y-35636500D03*
X160704000Y-45288500D03*
X171880000Y-44272500D03*
X165276000Y-30556500D03*
X163244000Y-46304500D03*
X151052000Y-43764500D03*
X163244000Y-51892500D03*
X178484000Y-49860500D03*
X130224000Y-40208500D03*
X167816000Y-39700500D03*
X120064000Y-48336500D03*
X142416000Y-47828500D03*
X155116000Y-39700500D03*
X172388000Y-52908500D03*
X158672000Y-39192500D03*
X153084000Y-34112500D03*
X178484000Y-37160500D03*
X152576000Y-40208500D03*
X173912000Y-46812500D03*
X171880000Y-37160500D03*
X174420000Y-54940500D03*
X178484000Y-39192500D03*
X165276000Y-28524500D03*
X165276000Y-33096500D03*
X176452000Y-39192500D03*
X117524000Y-50368500D03*
D17*
%TO.N,Board_0-/-5V*%
X147496000Y-36144500D03*
%TO.N,Board_0-/+5V*%
X144956000Y-36144500D03*
%TD*%
D18*
%TO.N,Board_1-Net-(U1-COMP2)*%
X145972000Y-71700500D02*
X139368000Y-71700500D01*
X147496000Y-73224500D02*
X145972000Y-71700500D01*
%TO.N,Board_1-Net-(J2-Pin_18)*%
X136828000Y-74240500D02*
X143432000Y-74240500D01*
X135304000Y-75764500D02*
X136828000Y-74240500D01*
%TO.N,Board_1-Net-(J2-Pin_16)*%
X136828000Y-79320500D02*
X131748000Y-84400500D01*
X136828000Y-76780500D02*
X136828000Y-79320500D01*
X131748000Y-84400500D02*
X131748000Y-86432500D01*
D19*
%TO.N,Board_1-/-5V*%
X150544000Y-67636500D02*
X149528000Y-66620500D01*
D18*
X148004000Y-67255500D02*
X148004000Y-66620500D01*
D19*
X149528000Y-66620500D02*
X148004000Y-66620500D01*
X148004000Y-67636500D02*
X148004000Y-67255500D01*
X147496000Y-68144500D02*
X148004000Y-67636500D01*
%TO.N,Board_1-/+5V*%
X130898379Y-77122121D02*
X140307000Y-67713500D01*
X127176000Y-77122121D02*
X130898379Y-77122121D01*
X143509000Y-66620500D02*
X142416000Y-67713500D01*
X144956000Y-66620500D02*
X143509000Y-66620500D01*
X144956000Y-68144500D02*
X144956000Y-66620500D01*
X140307000Y-67713500D02*
X142416000Y-67713500D01*
D18*
%TO.N,Board_0-Net-(U1-COMP2)*%
X147496000Y-41224500D02*
X145972000Y-39700500D01*
X145972000Y-39700500D02*
X139368000Y-39700500D01*
%TO.N,Board_0-Net-(J2-Pin_18)*%
X135304000Y-43764500D02*
X136828000Y-42240500D01*
X136828000Y-42240500D02*
X143432000Y-42240500D01*
%TO.N,Board_0-Net-(J2-Pin_16)*%
X136828000Y-47320500D02*
X131748000Y-52400500D01*
X131748000Y-52400500D02*
X131748000Y-54432500D01*
X136828000Y-44780500D02*
X136828000Y-47320500D01*
%TO.N,Board_0-/-5V*%
X148004000Y-35255500D02*
X148004000Y-34620500D01*
D19*
X147496000Y-36144500D02*
X148004000Y-35636500D01*
X148004000Y-35636500D02*
X148004000Y-35255500D01*
X150544000Y-35636500D02*
X149528000Y-34620500D01*
X149528000Y-34620500D02*
X148004000Y-34620500D01*
%TO.N,Board_0-/+5V*%
X130898379Y-45122121D02*
X140307000Y-35713500D01*
X144956000Y-36144500D02*
X144956000Y-34620500D01*
X140307000Y-35713500D02*
X142416000Y-35713500D01*
X127176000Y-45122121D02*
X130898379Y-45122121D01*
X143509000Y-34620500D02*
X142416000Y-35713500D01*
X144956000Y-34620500D02*
X143509000Y-34620500D01*
%TD*%
%TA.AperFunction,Conductor*%
%TO.N,Board_0-GND*%
G36*
X180442539Y-27528185D02*
G01*
X180488294Y-27580989D01*
X180499500Y-27632500D01*
X180499500Y-56340500D01*
X180479815Y-56407539D01*
X180427011Y-56453294D01*
X180375500Y-56464500D01*
X116632000Y-56464500D01*
X116564961Y-56444815D01*
X116519206Y-56392011D01*
X116508000Y-56340500D01*
X116508000Y-53818213D01*
X117697500Y-53818213D01*
X117697500Y-54030786D01*
X117730753Y-54240739D01*
X117796444Y-54442914D01*
X117892951Y-54632320D01*
X118017890Y-54804286D01*
X118168213Y-54954609D01*
X118340179Y-55079548D01*
X118340181Y-55079549D01*
X118340184Y-55079551D01*
X118529588Y-55176057D01*
X118731757Y-55241746D01*
X118941713Y-55275000D01*
X118941714Y-55275000D01*
X119154286Y-55275000D01*
X119154287Y-55275000D01*
X119364243Y-55241746D01*
X119566412Y-55176057D01*
X119755816Y-55079551D01*
X119777789Y-55063586D01*
X119927786Y-54954609D01*
X119927788Y-54954606D01*
X119927792Y-54954604D01*
X120078104Y-54804292D01*
X120078106Y-54804288D01*
X120078109Y-54804286D01*
X120203048Y-54632320D01*
X120203047Y-54632320D01*
X120203051Y-54632316D01*
X120299557Y-54442912D01*
X120302940Y-54432499D01*
X125312341Y-54432499D01*
X125312341Y-54432500D01*
X125332936Y-54667903D01*
X125332938Y-54667913D01*
X125394094Y-54896155D01*
X125394096Y-54896159D01*
X125394097Y-54896163D01*
X125488703Y-55099046D01*
X125493965Y-55110330D01*
X125493967Y-55110334D01*
X125602281Y-55265021D01*
X125629505Y-55303901D01*
X125796599Y-55470995D01*
X125873135Y-55524586D01*
X125990165Y-55606532D01*
X125990167Y-55606533D01*
X125990170Y-55606535D01*
X126204337Y-55706403D01*
X126432592Y-55767563D01*
X126603319Y-55782500D01*
X126667999Y-55788159D01*
X126668000Y-55788159D01*
X126668001Y-55788159D01*
X126732681Y-55782500D01*
X126903408Y-55767563D01*
X127131663Y-55706403D01*
X127345830Y-55606535D01*
X127539401Y-55470995D01*
X127706495Y-55303901D01*
X127836425Y-55118342D01*
X127891002Y-55074717D01*
X127960500Y-55067523D01*
X128022855Y-55099046D01*
X128039575Y-55118342D01*
X128169500Y-55303895D01*
X128169505Y-55303901D01*
X128336599Y-55470995D01*
X128413135Y-55524586D01*
X128530165Y-55606532D01*
X128530167Y-55606533D01*
X128530170Y-55606535D01*
X128744337Y-55706403D01*
X128972592Y-55767563D01*
X129143319Y-55782500D01*
X129207999Y-55788159D01*
X129208000Y-55788159D01*
X129208001Y-55788159D01*
X129272681Y-55782500D01*
X129443408Y-55767563D01*
X129671663Y-55706403D01*
X129885830Y-55606535D01*
X130079401Y-55470995D01*
X130246495Y-55303901D01*
X130376425Y-55118342D01*
X130431002Y-55074717D01*
X130500500Y-55067523D01*
X130562855Y-55099046D01*
X130579575Y-55118342D01*
X130709500Y-55303895D01*
X130709505Y-55303901D01*
X130876599Y-55470995D01*
X130953135Y-55524586D01*
X131070165Y-55606532D01*
X131070167Y-55606533D01*
X131070170Y-55606535D01*
X131284337Y-55706403D01*
X131512592Y-55767563D01*
X131683319Y-55782500D01*
X131747999Y-55788159D01*
X131748000Y-55788159D01*
X131748001Y-55788159D01*
X131812681Y-55782500D01*
X131983408Y-55767563D01*
X132211663Y-55706403D01*
X132425830Y-55606535D01*
X132619401Y-55470995D01*
X132786495Y-55303901D01*
X132916425Y-55118342D01*
X132971002Y-55074717D01*
X133040500Y-55067523D01*
X133102855Y-55099046D01*
X133119575Y-55118342D01*
X133249500Y-55303895D01*
X133249505Y-55303901D01*
X133416599Y-55470995D01*
X133493135Y-55524586D01*
X133610165Y-55606532D01*
X133610167Y-55606533D01*
X133610170Y-55606535D01*
X133824337Y-55706403D01*
X134052592Y-55767563D01*
X134223319Y-55782500D01*
X134287999Y-55788159D01*
X134288000Y-55788159D01*
X134288001Y-55788159D01*
X134352681Y-55782500D01*
X134523408Y-55767563D01*
X134751663Y-55706403D01*
X134965830Y-55606535D01*
X135159401Y-55470995D01*
X135326495Y-55303901D01*
X135456425Y-55118342D01*
X135511002Y-55074717D01*
X135580500Y-55067523D01*
X135642855Y-55099046D01*
X135659575Y-55118342D01*
X135789500Y-55303895D01*
X135789505Y-55303901D01*
X135956599Y-55470995D01*
X136033135Y-55524586D01*
X136150165Y-55606532D01*
X136150167Y-55606533D01*
X136150170Y-55606535D01*
X136364337Y-55706403D01*
X136592592Y-55767563D01*
X136763319Y-55782500D01*
X136827999Y-55788159D01*
X136828000Y-55788159D01*
X136828001Y-55788159D01*
X136892681Y-55782500D01*
X137063408Y-55767563D01*
X137291663Y-55706403D01*
X137505830Y-55606535D01*
X137699401Y-55470995D01*
X137866495Y-55303901D01*
X137996425Y-55118342D01*
X138051002Y-55074717D01*
X138120500Y-55067523D01*
X138182855Y-55099046D01*
X138199575Y-55118342D01*
X138329500Y-55303895D01*
X138329505Y-55303901D01*
X138496599Y-55470995D01*
X138573135Y-55524586D01*
X138690165Y-55606532D01*
X138690167Y-55606533D01*
X138690170Y-55606535D01*
X138904337Y-55706403D01*
X139132592Y-55767563D01*
X139303319Y-55782500D01*
X139367999Y-55788159D01*
X139368000Y-55788159D01*
X139368001Y-55788159D01*
X139432681Y-55782500D01*
X139603408Y-55767563D01*
X139831663Y-55706403D01*
X140045830Y-55606535D01*
X140239401Y-55470995D01*
X140406495Y-55303901D01*
X140536425Y-55118342D01*
X140591002Y-55074717D01*
X140660500Y-55067523D01*
X140722855Y-55099046D01*
X140739575Y-55118342D01*
X140869500Y-55303895D01*
X140869505Y-55303901D01*
X141036599Y-55470995D01*
X141113135Y-55524586D01*
X141230165Y-55606532D01*
X141230167Y-55606533D01*
X141230170Y-55606535D01*
X141444337Y-55706403D01*
X141672592Y-55767563D01*
X141843319Y-55782500D01*
X141907999Y-55788159D01*
X141908000Y-55788159D01*
X141908001Y-55788159D01*
X141972681Y-55782500D01*
X142143408Y-55767563D01*
X142371663Y-55706403D01*
X142585830Y-55606535D01*
X142779401Y-55470995D01*
X142946495Y-55303901D01*
X143076425Y-55118342D01*
X143131002Y-55074717D01*
X143200500Y-55067523D01*
X143262855Y-55099046D01*
X143279575Y-55118342D01*
X143409500Y-55303895D01*
X143409505Y-55303901D01*
X143576599Y-55470995D01*
X143653135Y-55524586D01*
X143770165Y-55606532D01*
X143770167Y-55606533D01*
X143770170Y-55606535D01*
X143984337Y-55706403D01*
X144212592Y-55767563D01*
X144383319Y-55782500D01*
X144447999Y-55788159D01*
X144448000Y-55788159D01*
X144448001Y-55788159D01*
X144512681Y-55782500D01*
X144683408Y-55767563D01*
X144911663Y-55706403D01*
X145125830Y-55606535D01*
X145319401Y-55470995D01*
X145486495Y-55303901D01*
X145616425Y-55118342D01*
X145671002Y-55074717D01*
X145740500Y-55067523D01*
X145802855Y-55099046D01*
X145819575Y-55118342D01*
X145949500Y-55303895D01*
X145949505Y-55303901D01*
X146116599Y-55470995D01*
X146193135Y-55524586D01*
X146310165Y-55606532D01*
X146310167Y-55606533D01*
X146310170Y-55606535D01*
X146524337Y-55706403D01*
X146752592Y-55767563D01*
X146923319Y-55782500D01*
X146987999Y-55788159D01*
X146988000Y-55788159D01*
X146988001Y-55788159D01*
X147052681Y-55782500D01*
X147223408Y-55767563D01*
X147451663Y-55706403D01*
X147665830Y-55606535D01*
X147859401Y-55470995D01*
X148026495Y-55303901D01*
X148156425Y-55118342D01*
X148211002Y-55074717D01*
X148280500Y-55067523D01*
X148342855Y-55099046D01*
X148359575Y-55118342D01*
X148489500Y-55303895D01*
X148489505Y-55303901D01*
X148656599Y-55470995D01*
X148733135Y-55524586D01*
X148850165Y-55606532D01*
X148850167Y-55606533D01*
X148850170Y-55606535D01*
X149064337Y-55706403D01*
X149292592Y-55767563D01*
X149463319Y-55782500D01*
X149527999Y-55788159D01*
X149528000Y-55788159D01*
X149528001Y-55788159D01*
X149592681Y-55782500D01*
X149763408Y-55767563D01*
X149991663Y-55706403D01*
X150205830Y-55606535D01*
X150399401Y-55470995D01*
X150566495Y-55303901D01*
X150696425Y-55118342D01*
X150751002Y-55074717D01*
X150820500Y-55067523D01*
X150882855Y-55099046D01*
X150899575Y-55118342D01*
X151029500Y-55303895D01*
X151029505Y-55303901D01*
X151196599Y-55470995D01*
X151273135Y-55524586D01*
X151390165Y-55606532D01*
X151390167Y-55606533D01*
X151390170Y-55606535D01*
X151604337Y-55706403D01*
X151832592Y-55767563D01*
X152003319Y-55782500D01*
X152067999Y-55788159D01*
X152068000Y-55788159D01*
X152068001Y-55788159D01*
X152132681Y-55782500D01*
X152303408Y-55767563D01*
X152531663Y-55706403D01*
X152745830Y-55606535D01*
X152939401Y-55470995D01*
X153106495Y-55303901D01*
X153236425Y-55118342D01*
X153291002Y-55074717D01*
X153360500Y-55067523D01*
X153422855Y-55099046D01*
X153439575Y-55118342D01*
X153569500Y-55303895D01*
X153569505Y-55303901D01*
X153736599Y-55470995D01*
X153813135Y-55524586D01*
X153930165Y-55606532D01*
X153930167Y-55606533D01*
X153930170Y-55606535D01*
X154144337Y-55706403D01*
X154372592Y-55767563D01*
X154543319Y-55782500D01*
X154607999Y-55788159D01*
X154608000Y-55788159D01*
X154608001Y-55788159D01*
X154672681Y-55782500D01*
X154843408Y-55767563D01*
X155071663Y-55706403D01*
X155285830Y-55606535D01*
X155479401Y-55470995D01*
X155646495Y-55303901D01*
X155776425Y-55118342D01*
X155831002Y-55074717D01*
X155900500Y-55067523D01*
X155962855Y-55099046D01*
X155979575Y-55118342D01*
X156109500Y-55303895D01*
X156109505Y-55303901D01*
X156276599Y-55470995D01*
X156353135Y-55524586D01*
X156470165Y-55606532D01*
X156470167Y-55606533D01*
X156470170Y-55606535D01*
X156684337Y-55706403D01*
X156912592Y-55767563D01*
X157083319Y-55782500D01*
X157147999Y-55788159D01*
X157148000Y-55788159D01*
X157148001Y-55788159D01*
X157212681Y-55782500D01*
X157383408Y-55767563D01*
X157611663Y-55706403D01*
X157825830Y-55606535D01*
X158019401Y-55470995D01*
X158186495Y-55303901D01*
X158316425Y-55118342D01*
X158371002Y-55074717D01*
X158440500Y-55067523D01*
X158502855Y-55099046D01*
X158519575Y-55118342D01*
X158649500Y-55303895D01*
X158649505Y-55303901D01*
X158816599Y-55470995D01*
X158893135Y-55524586D01*
X159010165Y-55606532D01*
X159010167Y-55606533D01*
X159010170Y-55606535D01*
X159224337Y-55706403D01*
X159452592Y-55767563D01*
X159623319Y-55782500D01*
X159687999Y-55788159D01*
X159688000Y-55788159D01*
X159688001Y-55788159D01*
X159752681Y-55782500D01*
X159923408Y-55767563D01*
X160151663Y-55706403D01*
X160365830Y-55606535D01*
X160559401Y-55470995D01*
X160726495Y-55303901D01*
X160856425Y-55118342D01*
X160911002Y-55074717D01*
X160980500Y-55067523D01*
X161042855Y-55099046D01*
X161059575Y-55118342D01*
X161189500Y-55303895D01*
X161189505Y-55303901D01*
X161356599Y-55470995D01*
X161433135Y-55524586D01*
X161550165Y-55606532D01*
X161550167Y-55606533D01*
X161550170Y-55606535D01*
X161764337Y-55706403D01*
X161992592Y-55767563D01*
X162163319Y-55782500D01*
X162227999Y-55788159D01*
X162228000Y-55788159D01*
X162228001Y-55788159D01*
X162292681Y-55782500D01*
X162463408Y-55767563D01*
X162691663Y-55706403D01*
X162905830Y-55606535D01*
X163099401Y-55470995D01*
X163266495Y-55303901D01*
X163396425Y-55118342D01*
X163451002Y-55074717D01*
X163520500Y-55067523D01*
X163582855Y-55099046D01*
X163599575Y-55118342D01*
X163729500Y-55303895D01*
X163729505Y-55303901D01*
X163896599Y-55470995D01*
X163973135Y-55524586D01*
X164090165Y-55606532D01*
X164090167Y-55606533D01*
X164090170Y-55606535D01*
X164304337Y-55706403D01*
X164532592Y-55767563D01*
X164703319Y-55782500D01*
X164767999Y-55788159D01*
X164768000Y-55788159D01*
X164768001Y-55788159D01*
X164832681Y-55782500D01*
X165003408Y-55767563D01*
X165231663Y-55706403D01*
X165445830Y-55606535D01*
X165639401Y-55470995D01*
X165806495Y-55303901D01*
X165936425Y-55118342D01*
X165991002Y-55074717D01*
X166060500Y-55067523D01*
X166122855Y-55099046D01*
X166139575Y-55118342D01*
X166269500Y-55303895D01*
X166269505Y-55303901D01*
X166436599Y-55470995D01*
X166513135Y-55524586D01*
X166630165Y-55606532D01*
X166630167Y-55606533D01*
X166630170Y-55606535D01*
X166844337Y-55706403D01*
X167072592Y-55767563D01*
X167243319Y-55782500D01*
X167307999Y-55788159D01*
X167308000Y-55788159D01*
X167308001Y-55788159D01*
X167372681Y-55782500D01*
X167543408Y-55767563D01*
X167771663Y-55706403D01*
X167985830Y-55606535D01*
X168179401Y-55470995D01*
X168301717Y-55348678D01*
X168363036Y-55315196D01*
X168432728Y-55320180D01*
X168488662Y-55362051D01*
X168505577Y-55393028D01*
X168554646Y-55524588D01*
X168554649Y-55524593D01*
X168640809Y-55639687D01*
X168640812Y-55639690D01*
X168755906Y-55725850D01*
X168755913Y-55725854D01*
X168890620Y-55776096D01*
X168890627Y-55776098D01*
X168950155Y-55782499D01*
X168950172Y-55782500D01*
X169598000Y-55782500D01*
X169598000Y-54865512D01*
X169655007Y-54898425D01*
X169782174Y-54932500D01*
X169913826Y-54932500D01*
X170040993Y-54898425D01*
X170098000Y-54865512D01*
X170098000Y-55782500D01*
X170745828Y-55782500D01*
X170745844Y-55782499D01*
X170805372Y-55776098D01*
X170805379Y-55776096D01*
X170940086Y-55725854D01*
X170940093Y-55725850D01*
X171055187Y-55639690D01*
X171055190Y-55639687D01*
X171141350Y-55524593D01*
X171141354Y-55524586D01*
X171191596Y-55389879D01*
X171191598Y-55389872D01*
X171197999Y-55330344D01*
X171198000Y-55330327D01*
X171198000Y-54682500D01*
X170281012Y-54682500D01*
X170313925Y-54625493D01*
X170348000Y-54498326D01*
X170348000Y-54366674D01*
X170313925Y-54239507D01*
X170281012Y-54182500D01*
X171198000Y-54182500D01*
X171198000Y-53818213D01*
X176625500Y-53818213D01*
X176625500Y-54030786D01*
X176658753Y-54240739D01*
X176724444Y-54442914D01*
X176820951Y-54632320D01*
X176945890Y-54804286D01*
X177096213Y-54954609D01*
X177268179Y-55079548D01*
X177268181Y-55079549D01*
X177268184Y-55079551D01*
X177457588Y-55176057D01*
X177659757Y-55241746D01*
X177869713Y-55275000D01*
X177869714Y-55275000D01*
X178082286Y-55275000D01*
X178082287Y-55275000D01*
X178292243Y-55241746D01*
X178494412Y-55176057D01*
X178683816Y-55079551D01*
X178705789Y-55063586D01*
X178855786Y-54954609D01*
X178855788Y-54954606D01*
X178855792Y-54954604D01*
X179006104Y-54804292D01*
X179006106Y-54804288D01*
X179006109Y-54804286D01*
X179131048Y-54632320D01*
X179131047Y-54632320D01*
X179131051Y-54632316D01*
X179227557Y-54442912D01*
X179293246Y-54240743D01*
X179326500Y-54030787D01*
X179326500Y-53818213D01*
X179293246Y-53608257D01*
X179227557Y-53406088D01*
X179131051Y-53216684D01*
X179131049Y-53216681D01*
X179131048Y-53216679D01*
X179006109Y-53044713D01*
X178855786Y-52894390D01*
X178683820Y-52769451D01*
X178494414Y-52672944D01*
X178494413Y-52672943D01*
X178494412Y-52672943D01*
X178292243Y-52607254D01*
X178292241Y-52607253D01*
X178292240Y-52607253D01*
X178130957Y-52581708D01*
X178082287Y-52574000D01*
X177869713Y-52574000D01*
X177821042Y-52581708D01*
X177659760Y-52607253D01*
X177457585Y-52672944D01*
X177268179Y-52769451D01*
X177096213Y-52894390D01*
X176945890Y-53044713D01*
X176820951Y-53216679D01*
X176724444Y-53406085D01*
X176658753Y-53608260D01*
X176625500Y-53818213D01*
X171198000Y-53818213D01*
X171198000Y-53534672D01*
X171197999Y-53534655D01*
X171191598Y-53475127D01*
X171191596Y-53475120D01*
X171141354Y-53340413D01*
X171141350Y-53340406D01*
X171055190Y-53225312D01*
X171055187Y-53225309D01*
X170940093Y-53139149D01*
X170940086Y-53139145D01*
X170805379Y-53088903D01*
X170805372Y-53088901D01*
X170745844Y-53082500D01*
X170098000Y-53082500D01*
X170098000Y-53999488D01*
X170040993Y-53966575D01*
X169913826Y-53932500D01*
X169782174Y-53932500D01*
X169655007Y-53966575D01*
X169598000Y-53999488D01*
X169598000Y-53082500D01*
X168950155Y-53082500D01*
X168890627Y-53088901D01*
X168890620Y-53088903D01*
X168755913Y-53139145D01*
X168755906Y-53139149D01*
X168640812Y-53225309D01*
X168640809Y-53225312D01*
X168554649Y-53340406D01*
X168554645Y-53340413D01*
X168505578Y-53471970D01*
X168463707Y-53527904D01*
X168398242Y-53552321D01*
X168329969Y-53537469D01*
X168301715Y-53516319D01*
X168257366Y-53471970D01*
X168179401Y-53394005D01*
X168179397Y-53394002D01*
X168179396Y-53394001D01*
X167985834Y-53258467D01*
X167985830Y-53258465D01*
X167914727Y-53225309D01*
X167771663Y-53158597D01*
X167771659Y-53158596D01*
X167771655Y-53158594D01*
X167543413Y-53097438D01*
X167543403Y-53097436D01*
X167308001Y-53076841D01*
X167307999Y-53076841D01*
X167072596Y-53097436D01*
X167072586Y-53097438D01*
X166844344Y-53158594D01*
X166844335Y-53158598D01*
X166630171Y-53258464D01*
X166630169Y-53258465D01*
X166436597Y-53394005D01*
X166269505Y-53561097D01*
X166139575Y-53746658D01*
X166084998Y-53790283D01*
X166015500Y-53797477D01*
X165953145Y-53765954D01*
X165936425Y-53746658D01*
X165806494Y-53561097D01*
X165639402Y-53394006D01*
X165639395Y-53394001D01*
X165445834Y-53258467D01*
X165445830Y-53258465D01*
X165374727Y-53225309D01*
X165231663Y-53158597D01*
X165231659Y-53158596D01*
X165231655Y-53158594D01*
X165003413Y-53097438D01*
X165003403Y-53097436D01*
X164768001Y-53076841D01*
X164767999Y-53076841D01*
X164532596Y-53097436D01*
X164532586Y-53097438D01*
X164304344Y-53158594D01*
X164304335Y-53158598D01*
X164090171Y-53258464D01*
X164090169Y-53258465D01*
X163896597Y-53394005D01*
X163729505Y-53561097D01*
X163599575Y-53746658D01*
X163544998Y-53790283D01*
X163475500Y-53797477D01*
X163413145Y-53765954D01*
X163396425Y-53746658D01*
X163266494Y-53561097D01*
X163099402Y-53394006D01*
X163099395Y-53394001D01*
X162905834Y-53258467D01*
X162905830Y-53258465D01*
X162834727Y-53225309D01*
X162691663Y-53158597D01*
X162691659Y-53158596D01*
X162691655Y-53158594D01*
X162463413Y-53097438D01*
X162463403Y-53097436D01*
X162228001Y-53076841D01*
X162227999Y-53076841D01*
X161992596Y-53097436D01*
X161992586Y-53097438D01*
X161764344Y-53158594D01*
X161764335Y-53158598D01*
X161550171Y-53258464D01*
X161550169Y-53258465D01*
X161356597Y-53394005D01*
X161189505Y-53561097D01*
X161059575Y-53746658D01*
X161004998Y-53790283D01*
X160935500Y-53797477D01*
X160873145Y-53765954D01*
X160856425Y-53746658D01*
X160726494Y-53561097D01*
X160559402Y-53394006D01*
X160559395Y-53394001D01*
X160365834Y-53258467D01*
X160365830Y-53258465D01*
X160294727Y-53225309D01*
X160151663Y-53158597D01*
X160151659Y-53158596D01*
X160151655Y-53158594D01*
X159923413Y-53097438D01*
X159923403Y-53097436D01*
X159688001Y-53076841D01*
X159687999Y-53076841D01*
X159452596Y-53097436D01*
X159452586Y-53097438D01*
X159224344Y-53158594D01*
X159224335Y-53158598D01*
X159010171Y-53258464D01*
X159010169Y-53258465D01*
X158816597Y-53394005D01*
X158649505Y-53561097D01*
X158519575Y-53746658D01*
X158464998Y-53790283D01*
X158395500Y-53797477D01*
X158333145Y-53765954D01*
X158316425Y-53746658D01*
X158186494Y-53561097D01*
X158019402Y-53394006D01*
X158019395Y-53394001D01*
X157825834Y-53258467D01*
X157825830Y-53258465D01*
X157754727Y-53225309D01*
X157611663Y-53158597D01*
X157611659Y-53158596D01*
X157611655Y-53158594D01*
X157383413Y-53097438D01*
X157383403Y-53097436D01*
X157148001Y-53076841D01*
X157147999Y-53076841D01*
X156912596Y-53097436D01*
X156912586Y-53097438D01*
X156684344Y-53158594D01*
X156684335Y-53158598D01*
X156470171Y-53258464D01*
X156470169Y-53258465D01*
X156276597Y-53394005D01*
X156109505Y-53561097D01*
X155979575Y-53746658D01*
X155924998Y-53790283D01*
X155855500Y-53797477D01*
X155793145Y-53765954D01*
X155776425Y-53746658D01*
X155646494Y-53561097D01*
X155479402Y-53394006D01*
X155479395Y-53394001D01*
X155285834Y-53258467D01*
X155285830Y-53258465D01*
X155214727Y-53225309D01*
X155071663Y-53158597D01*
X155071659Y-53158596D01*
X155071655Y-53158594D01*
X154843413Y-53097438D01*
X154843403Y-53097436D01*
X154608001Y-53076841D01*
X154607999Y-53076841D01*
X154372596Y-53097436D01*
X154372586Y-53097438D01*
X154144344Y-53158594D01*
X154144335Y-53158598D01*
X153930171Y-53258464D01*
X153930169Y-53258465D01*
X153736597Y-53394005D01*
X153569505Y-53561097D01*
X153439575Y-53746658D01*
X153384998Y-53790283D01*
X153315500Y-53797477D01*
X153253145Y-53765954D01*
X153236425Y-53746658D01*
X153106494Y-53561097D01*
X152939402Y-53394006D01*
X152939395Y-53394001D01*
X152745834Y-53258467D01*
X152745830Y-53258465D01*
X152674727Y-53225309D01*
X152531663Y-53158597D01*
X152531659Y-53158596D01*
X152531655Y-53158594D01*
X152303413Y-53097438D01*
X152303403Y-53097436D01*
X152068001Y-53076841D01*
X152067999Y-53076841D01*
X151832596Y-53097436D01*
X151832586Y-53097438D01*
X151604344Y-53158594D01*
X151604335Y-53158598D01*
X151390171Y-53258464D01*
X151390169Y-53258465D01*
X151196597Y-53394005D01*
X151029505Y-53561097D01*
X150899575Y-53746658D01*
X150844998Y-53790283D01*
X150775500Y-53797477D01*
X150713145Y-53765954D01*
X150696425Y-53746658D01*
X150566494Y-53561097D01*
X150399402Y-53394006D01*
X150399395Y-53394001D01*
X150205834Y-53258467D01*
X150205830Y-53258465D01*
X150134727Y-53225309D01*
X149991663Y-53158597D01*
X149991659Y-53158596D01*
X149991655Y-53158594D01*
X149763413Y-53097438D01*
X149763403Y-53097436D01*
X149528001Y-53076841D01*
X149527999Y-53076841D01*
X149292596Y-53097436D01*
X149292586Y-53097438D01*
X149064344Y-53158594D01*
X149064335Y-53158598D01*
X148850171Y-53258464D01*
X148850169Y-53258465D01*
X148656597Y-53394005D01*
X148489505Y-53561097D01*
X148359575Y-53746658D01*
X148304998Y-53790283D01*
X148235500Y-53797477D01*
X148173145Y-53765954D01*
X148156425Y-53746658D01*
X148026494Y-53561097D01*
X147859402Y-53394006D01*
X147859395Y-53394001D01*
X147665834Y-53258467D01*
X147665830Y-53258465D01*
X147594727Y-53225309D01*
X147451663Y-53158597D01*
X147451659Y-53158596D01*
X147451655Y-53158594D01*
X147223413Y-53097438D01*
X147223403Y-53097436D01*
X146988001Y-53076841D01*
X146987999Y-53076841D01*
X146752596Y-53097436D01*
X146752586Y-53097438D01*
X146524344Y-53158594D01*
X146524335Y-53158598D01*
X146310171Y-53258464D01*
X146310169Y-53258465D01*
X146116597Y-53394005D01*
X145949505Y-53561097D01*
X145819575Y-53746658D01*
X145764998Y-53790283D01*
X145695500Y-53797477D01*
X145633145Y-53765954D01*
X145616425Y-53746658D01*
X145486494Y-53561097D01*
X145319402Y-53394006D01*
X145319395Y-53394001D01*
X145125834Y-53258467D01*
X145125830Y-53258465D01*
X145054727Y-53225309D01*
X144911663Y-53158597D01*
X144911659Y-53158596D01*
X144911655Y-53158594D01*
X144683413Y-53097438D01*
X144683403Y-53097436D01*
X144448001Y-53076841D01*
X144447999Y-53076841D01*
X144212596Y-53097436D01*
X144212586Y-53097438D01*
X143984344Y-53158594D01*
X143984335Y-53158598D01*
X143770171Y-53258464D01*
X143770169Y-53258465D01*
X143576597Y-53394005D01*
X143409505Y-53561097D01*
X143279575Y-53746658D01*
X143224998Y-53790283D01*
X143155500Y-53797477D01*
X143093145Y-53765954D01*
X143076425Y-53746658D01*
X142946494Y-53561097D01*
X142779402Y-53394006D01*
X142779395Y-53394001D01*
X142585834Y-53258467D01*
X142585830Y-53258465D01*
X142514727Y-53225309D01*
X142371663Y-53158597D01*
X142371659Y-53158596D01*
X142371655Y-53158594D01*
X142143413Y-53097438D01*
X142143403Y-53097436D01*
X141908001Y-53076841D01*
X141907999Y-53076841D01*
X141672596Y-53097436D01*
X141672586Y-53097438D01*
X141444344Y-53158594D01*
X141444335Y-53158598D01*
X141230171Y-53258464D01*
X141230169Y-53258465D01*
X141036597Y-53394005D01*
X140869505Y-53561097D01*
X140739575Y-53746658D01*
X140684998Y-53790283D01*
X140615500Y-53797477D01*
X140553145Y-53765954D01*
X140536425Y-53746658D01*
X140406494Y-53561097D01*
X140239402Y-53394006D01*
X140239395Y-53394001D01*
X140045834Y-53258467D01*
X140045830Y-53258465D01*
X139974727Y-53225309D01*
X139831663Y-53158597D01*
X139831659Y-53158596D01*
X139831655Y-53158594D01*
X139603413Y-53097438D01*
X139603403Y-53097436D01*
X139368001Y-53076841D01*
X139367999Y-53076841D01*
X139132596Y-53097436D01*
X139132586Y-53097438D01*
X138904344Y-53158594D01*
X138904335Y-53158598D01*
X138690171Y-53258464D01*
X138690169Y-53258465D01*
X138496597Y-53394005D01*
X138329505Y-53561097D01*
X138199575Y-53746658D01*
X138144998Y-53790283D01*
X138075500Y-53797477D01*
X138013145Y-53765954D01*
X137996425Y-53746658D01*
X137866494Y-53561097D01*
X137699402Y-53394006D01*
X137699395Y-53394001D01*
X137505834Y-53258467D01*
X137505830Y-53258465D01*
X137434727Y-53225309D01*
X137291663Y-53158597D01*
X137291659Y-53158596D01*
X137291655Y-53158594D01*
X137063413Y-53097438D01*
X137063403Y-53097436D01*
X136828001Y-53076841D01*
X136827999Y-53076841D01*
X136592596Y-53097436D01*
X136592586Y-53097438D01*
X136364344Y-53158594D01*
X136364335Y-53158598D01*
X136150171Y-53258464D01*
X136150169Y-53258465D01*
X135956597Y-53394005D01*
X135789505Y-53561097D01*
X135659575Y-53746658D01*
X135604998Y-53790283D01*
X135535500Y-53797477D01*
X135473145Y-53765954D01*
X135456425Y-53746658D01*
X135326494Y-53561097D01*
X135159402Y-53394006D01*
X135159395Y-53394001D01*
X134965834Y-53258467D01*
X134965830Y-53258465D01*
X134894727Y-53225309D01*
X134751663Y-53158597D01*
X134751659Y-53158596D01*
X134751655Y-53158594D01*
X134523413Y-53097438D01*
X134523403Y-53097436D01*
X134288001Y-53076841D01*
X134287999Y-53076841D01*
X134052596Y-53097436D01*
X134052586Y-53097438D01*
X133824344Y-53158594D01*
X133824335Y-53158598D01*
X133610171Y-53258464D01*
X133610169Y-53258465D01*
X133416597Y-53394005D01*
X133249505Y-53561097D01*
X133119575Y-53746658D01*
X133064998Y-53790283D01*
X132995500Y-53797477D01*
X132933145Y-53765954D01*
X132916425Y-53746658D01*
X132786494Y-53561097D01*
X132619404Y-53394008D01*
X132619402Y-53394006D01*
X132619401Y-53394005D01*
X132619396Y-53394001D01*
X132619393Y-53393999D01*
X132501376Y-53311361D01*
X132457751Y-53256784D01*
X132448500Y-53209787D01*
X132448500Y-52742019D01*
X132468185Y-52674980D01*
X132484819Y-52654338D01*
X137372112Y-47767045D01*
X137372114Y-47767043D01*
X137448775Y-47652311D01*
X137461281Y-47622120D01*
X137501578Y-47524832D01*
X137501580Y-47524828D01*
X137512938Y-47467727D01*
X137528500Y-47389496D01*
X137528500Y-45205993D01*
X137547508Y-45140019D01*
X137553787Y-45130025D01*
X137553786Y-45130025D01*
X137553789Y-45130022D01*
X137613368Y-44959755D01*
X137633565Y-44780500D01*
X137631030Y-44758005D01*
X137613369Y-44601250D01*
X137613368Y-44601245D01*
X137553788Y-44430976D01*
X137457815Y-44278237D01*
X137330262Y-44150684D01*
X137177523Y-44054711D01*
X137007254Y-43995131D01*
X137007249Y-43995130D01*
X136828004Y-43974935D01*
X136827996Y-43974935D01*
X136648750Y-43995130D01*
X136648745Y-43995131D01*
X136478476Y-44054711D01*
X136325739Y-44150683D01*
X136234914Y-44241508D01*
X136173590Y-44274992D01*
X136103899Y-44270008D01*
X136047965Y-44228136D01*
X136023549Y-44162671D01*
X136030191Y-44112872D01*
X136039838Y-44085302D01*
X136066008Y-44010511D01*
X136095366Y-43963789D01*
X137081837Y-42977319D01*
X137143160Y-42943834D01*
X137169518Y-42941000D01*
X143006506Y-42941000D01*
X143072477Y-42960006D01*
X143082474Y-42966287D01*
X143082475Y-42966287D01*
X143082478Y-42966289D01*
X143252745Y-43025868D01*
X143252750Y-43025869D01*
X143431996Y-43046065D01*
X143432000Y-43046065D01*
X143432004Y-43046065D01*
X143611249Y-43025869D01*
X143611252Y-43025868D01*
X143611255Y-43025868D01*
X143781522Y-42966289D01*
X143934262Y-42870316D01*
X144061816Y-42742762D01*
X144157789Y-42590022D01*
X144217368Y-42419755D01*
X144237565Y-42240500D01*
X144220425Y-42088380D01*
X144217369Y-42061250D01*
X144217368Y-42061245D01*
X144157788Y-41890976D01*
X144061815Y-41738237D01*
X143934262Y-41610684D01*
X143781523Y-41514711D01*
X143611254Y-41455131D01*
X143611249Y-41455130D01*
X143432004Y-41434935D01*
X143431996Y-41434935D01*
X143252750Y-41455130D01*
X143252745Y-41455131D01*
X143082474Y-41514712D01*
X143072477Y-41520994D01*
X143006506Y-41540000D01*
X136759003Y-41540000D01*
X136650590Y-41561565D01*
X136650589Y-41561565D01*
X136634379Y-41564789D01*
X136623669Y-41566920D01*
X136606528Y-41574021D01*
X136606526Y-41574022D01*
X136496191Y-41619723D01*
X136419387Y-41671043D01*
X136419386Y-41671044D01*
X136381454Y-41696388D01*
X136381453Y-41696389D01*
X135104710Y-42973131D01*
X135057985Y-43002491D01*
X134954476Y-43038711D01*
X134954475Y-43038712D01*
X134801737Y-43134684D01*
X134674184Y-43262237D01*
X134578211Y-43414976D01*
X134518631Y-43585245D01*
X134518630Y-43585250D01*
X134498435Y-43764496D01*
X134498435Y-43764503D01*
X134518630Y-43943749D01*
X134518631Y-43943754D01*
X134578211Y-44114023D01*
X134658316Y-44241508D01*
X134674184Y-44266762D01*
X134801738Y-44394316D01*
X134801740Y-44394317D01*
X134936823Y-44479196D01*
X134954478Y-44490289D01*
X135046809Y-44522597D01*
X135124745Y-44549868D01*
X135124750Y-44549869D01*
X135303996Y-44570065D01*
X135304000Y-44570065D01*
X135304004Y-44570065D01*
X135483249Y-44549869D01*
X135483252Y-44549868D01*
X135483255Y-44549868D01*
X135653522Y-44490289D01*
X135806262Y-44394316D01*
X135897088Y-44303489D01*
X135958407Y-44270007D01*
X136028099Y-44274991D01*
X136084033Y-44316862D01*
X136108450Y-44382326D01*
X136101808Y-44432127D01*
X136042632Y-44601242D01*
X136042630Y-44601250D01*
X136022435Y-44780496D01*
X136022435Y-44780503D01*
X136042630Y-44959749D01*
X136042631Y-44959754D01*
X136102212Y-45130025D01*
X136108492Y-45140019D01*
X136127500Y-45205993D01*
X136127500Y-46978980D01*
X136107815Y-47046019D01*
X136091181Y-47066661D01*
X131203888Y-51953953D01*
X131203887Y-51953954D01*
X131127222Y-52068692D01*
X131074421Y-52196167D01*
X131074418Y-52196177D01*
X131047500Y-52331504D01*
X131047500Y-53209788D01*
X131027815Y-53276827D01*
X130994624Y-53311363D01*
X130876594Y-53394008D01*
X130709505Y-53561097D01*
X130579575Y-53746658D01*
X130524998Y-53790283D01*
X130455500Y-53797477D01*
X130393145Y-53765954D01*
X130376425Y-53746658D01*
X130246494Y-53561097D01*
X130079402Y-53394006D01*
X130079395Y-53394001D01*
X129885834Y-53258467D01*
X129885830Y-53258465D01*
X129814727Y-53225309D01*
X129671663Y-53158597D01*
X129671659Y-53158596D01*
X129671655Y-53158594D01*
X129443413Y-53097438D01*
X129443403Y-53097436D01*
X129208001Y-53076841D01*
X129207999Y-53076841D01*
X128972596Y-53097436D01*
X128972586Y-53097438D01*
X128744344Y-53158594D01*
X128744335Y-53158598D01*
X128530171Y-53258464D01*
X128530169Y-53258465D01*
X128336597Y-53394005D01*
X128169505Y-53561097D01*
X128039575Y-53746658D01*
X127984998Y-53790283D01*
X127915500Y-53797477D01*
X127853145Y-53765954D01*
X127836425Y-53746658D01*
X127706494Y-53561097D01*
X127539402Y-53394006D01*
X127539395Y-53394001D01*
X127345834Y-53258467D01*
X127345830Y-53258465D01*
X127274727Y-53225309D01*
X127131663Y-53158597D01*
X127131659Y-53158596D01*
X127131655Y-53158594D01*
X126903413Y-53097438D01*
X126903403Y-53097436D01*
X126668001Y-53076841D01*
X126667999Y-53076841D01*
X126432596Y-53097436D01*
X126432586Y-53097438D01*
X126204344Y-53158594D01*
X126204335Y-53158598D01*
X125990171Y-53258464D01*
X125990169Y-53258465D01*
X125796597Y-53394005D01*
X125629505Y-53561097D01*
X125493965Y-53754669D01*
X125493964Y-53754671D01*
X125394098Y-53968835D01*
X125394094Y-53968844D01*
X125332938Y-54197086D01*
X125332936Y-54197096D01*
X125312341Y-54432499D01*
X120302940Y-54432499D01*
X120365246Y-54240743D01*
X120398500Y-54030787D01*
X120398500Y-53818213D01*
X120365246Y-53608257D01*
X120299557Y-53406088D01*
X120203051Y-53216684D01*
X120203049Y-53216681D01*
X120203048Y-53216679D01*
X120078109Y-53044713D01*
X119927786Y-52894390D01*
X119755820Y-52769451D01*
X119566414Y-52672944D01*
X119566413Y-52672943D01*
X119566412Y-52672943D01*
X119364243Y-52607254D01*
X119364241Y-52607253D01*
X119364240Y-52607253D01*
X119202957Y-52581708D01*
X119154287Y-52574000D01*
X118941713Y-52574000D01*
X118893042Y-52581708D01*
X118731760Y-52607253D01*
X118529585Y-52672944D01*
X118340179Y-52769451D01*
X118168213Y-52894390D01*
X118017890Y-53044713D01*
X117892951Y-53216679D01*
X117796444Y-53406085D01*
X117730753Y-53608260D01*
X117697500Y-53818213D01*
X116508000Y-53818213D01*
X116508000Y-47622118D01*
X125871034Y-47622118D01*
X125871034Y-47622123D01*
X125890858Y-47848720D01*
X125890860Y-47848731D01*
X125949730Y-48068438D01*
X125949735Y-48068452D01*
X126045863Y-48274599D01*
X126096974Y-48347593D01*
X126776000Y-47668567D01*
X126776000Y-47674782D01*
X126803259Y-47776515D01*
X126855920Y-47867727D01*
X126930394Y-47942201D01*
X127021606Y-47994862D01*
X127123339Y-48022121D01*
X127129553Y-48022121D01*
X126450526Y-48701146D01*
X126523513Y-48752253D01*
X126523521Y-48752257D01*
X126729668Y-48848385D01*
X126729682Y-48848390D01*
X126949389Y-48907260D01*
X126949400Y-48907262D01*
X127175998Y-48927087D01*
X127176002Y-48927087D01*
X127402599Y-48907262D01*
X127402610Y-48907260D01*
X127622317Y-48848390D01*
X127622331Y-48848385D01*
X127828478Y-48752257D01*
X127901471Y-48701145D01*
X127222447Y-48022121D01*
X127228661Y-48022121D01*
X127330394Y-47994862D01*
X127421606Y-47942201D01*
X127496080Y-47867727D01*
X127548741Y-47776515D01*
X127576000Y-47674782D01*
X127576000Y-47668568D01*
X128255024Y-48347592D01*
X128306136Y-48274599D01*
X128402264Y-48068452D01*
X128402269Y-48068438D01*
X128461139Y-47848731D01*
X128461141Y-47848720D01*
X128480966Y-47622123D01*
X128480966Y-47622118D01*
X128461141Y-47395521D01*
X128461139Y-47395510D01*
X128402269Y-47175803D01*
X128402264Y-47175789D01*
X128306136Y-46969642D01*
X128306132Y-46969634D01*
X128255025Y-46896647D01*
X127576000Y-47575672D01*
X127576000Y-47569460D01*
X127548741Y-47467727D01*
X127496080Y-47376515D01*
X127421606Y-47302041D01*
X127330394Y-47249380D01*
X127228661Y-47222121D01*
X127222448Y-47222121D01*
X127906645Y-46537922D01*
X127916492Y-46488928D01*
X127965107Y-46438745D01*
X128020633Y-46424102D01*
X128020576Y-46423021D01*
X128020571Y-46422975D01*
X128020573Y-46422974D01*
X128020564Y-46422797D01*
X128023857Y-46422620D01*
X128023872Y-46422620D01*
X128083483Y-46416212D01*
X128218331Y-46365917D01*
X128333546Y-46279667D01*
X128413914Y-46172309D01*
X128469847Y-46130439D01*
X128513180Y-46122621D01*
X130996921Y-46122621D01*
X131016249Y-46118776D01*
X131093567Y-46103396D01*
X131190215Y-46084172D01*
X131243544Y-46062082D01*
X131372293Y-46008753D01*
X131536161Y-45899260D01*
X131675518Y-45759903D01*
X131675518Y-45759901D01*
X131685726Y-45749694D01*
X131685727Y-45749691D01*
X137734924Y-39700496D01*
X138562435Y-39700496D01*
X138562435Y-39700503D01*
X138582630Y-39879749D01*
X138582631Y-39879754D01*
X138642211Y-40050023D01*
X138738184Y-40202762D01*
X138865738Y-40330316D01*
X138956080Y-40387082D01*
X139018474Y-40426287D01*
X139018478Y-40426289D01*
X139175079Y-40481086D01*
X139188745Y-40485868D01*
X139188750Y-40485869D01*
X139367996Y-40506065D01*
X139368000Y-40506065D01*
X139368004Y-40506065D01*
X139547249Y-40485869D01*
X139547252Y-40485868D01*
X139547255Y-40485868D01*
X139717522Y-40426289D01*
X139718488Y-40425681D01*
X139727523Y-40420006D01*
X139793494Y-40401000D01*
X145630481Y-40401000D01*
X145697520Y-40420685D01*
X145718162Y-40437319D01*
X146704631Y-41423787D01*
X146733991Y-41470513D01*
X146758306Y-41540000D01*
X146770211Y-41574022D01*
X146866184Y-41726762D01*
X146993738Y-41854316D01*
X147146478Y-41950289D01*
X147315136Y-42009305D01*
X147316745Y-42009868D01*
X147316750Y-42009869D01*
X147495996Y-42030065D01*
X147496000Y-42030065D01*
X147496004Y-42030065D01*
X147675249Y-42009869D01*
X147675252Y-42009868D01*
X147675255Y-42009868D01*
X147845522Y-41950289D01*
X147998262Y-41854316D01*
X148125816Y-41726762D01*
X148221789Y-41574022D01*
X148281368Y-41403755D01*
X148281369Y-41403749D01*
X148301565Y-41224503D01*
X148301565Y-41224496D01*
X148281369Y-41045250D01*
X148281368Y-41045245D01*
X148221788Y-40874976D01*
X148125815Y-40722237D01*
X147998262Y-40594684D01*
X147845524Y-40498712D01*
X147845520Y-40498710D01*
X147742013Y-40462491D01*
X147695287Y-40433131D01*
X146418546Y-39156388D01*
X146418545Y-39156387D01*
X146303807Y-39079722D01*
X146176332Y-39026921D01*
X146176322Y-39026918D01*
X146040996Y-39000000D01*
X146040994Y-39000000D01*
X146040993Y-39000000D01*
X139793494Y-39000000D01*
X139727523Y-38980994D01*
X139717525Y-38974712D01*
X139547254Y-38915131D01*
X139547249Y-38915130D01*
X139368004Y-38894935D01*
X139367996Y-38894935D01*
X139188750Y-38915130D01*
X139188745Y-38915131D01*
X139018476Y-38974711D01*
X138865737Y-39070684D01*
X138738184Y-39198237D01*
X138642211Y-39350976D01*
X138582631Y-39521245D01*
X138582630Y-39521250D01*
X138562435Y-39700496D01*
X137734924Y-39700496D01*
X140685102Y-36750319D01*
X140746425Y-36716834D01*
X140772783Y-36714000D01*
X141254539Y-36714000D01*
X141319633Y-36732460D01*
X141446666Y-36810814D01*
X141613203Y-36865999D01*
X141715991Y-36876500D01*
X143116008Y-36876499D01*
X143218797Y-36865999D01*
X143385334Y-36810814D01*
X143534656Y-36718712D01*
X143658712Y-36594656D01*
X143750814Y-36445334D01*
X143756249Y-36428929D01*
X143796021Y-36371486D01*
X143860536Y-36344662D01*
X143929312Y-36356976D01*
X143980513Y-36404519D01*
X143992616Y-36431939D01*
X143993951Y-36436341D01*
X144069364Y-36618407D01*
X144069371Y-36618420D01*
X144178860Y-36782281D01*
X144178863Y-36782285D01*
X144318214Y-36921636D01*
X144318218Y-36921639D01*
X144482079Y-37031128D01*
X144482092Y-37031135D01*
X144664160Y-37106549D01*
X144664165Y-37106551D01*
X144664169Y-37106551D01*
X144664170Y-37106552D01*
X144857456Y-37145000D01*
X144857459Y-37145000D01*
X145054543Y-37145000D01*
X145187849Y-37118483D01*
X145247835Y-37106551D01*
X145429914Y-37031132D01*
X145593782Y-36921639D01*
X145733139Y-36782282D01*
X145842632Y-36618414D01*
X145918051Y-36436335D01*
X145950287Y-36274276D01*
X145956500Y-36243043D01*
X145956500Y-36045955D01*
X146495500Y-36045955D01*
X146495500Y-36243044D01*
X146533947Y-36436328D01*
X146533949Y-36436336D01*
X146609367Y-36618410D01*
X146609372Y-36618420D01*
X146718860Y-36782280D01*
X146718863Y-36782284D01*
X146858215Y-36921636D01*
X146858219Y-36921639D01*
X147022079Y-37031127D01*
X147022083Y-37031129D01*
X147022086Y-37031131D01*
X147204164Y-37106551D01*
X147397455Y-37144999D01*
X147397458Y-37145000D01*
X147397460Y-37145000D01*
X147594542Y-37145000D01*
X147594543Y-37144999D01*
X147787836Y-37106551D01*
X147969914Y-37031131D01*
X148133781Y-36921639D01*
X148781139Y-36274282D01*
X148781140Y-36274281D01*
X148890632Y-36110414D01*
X148906415Y-36072308D01*
X148950253Y-36017908D01*
X149016547Y-35995842D01*
X149084246Y-36013120D01*
X149131858Y-36064256D01*
X149144333Y-36107161D01*
X149154001Y-36201797D01*
X149154001Y-36201799D01*
X149178020Y-36274282D01*
X149209186Y-36368334D01*
X149301288Y-36517656D01*
X149425344Y-36641712D01*
X149574666Y-36733814D01*
X149741203Y-36788999D01*
X149843991Y-36799500D01*
X151244008Y-36799499D01*
X151346797Y-36788999D01*
X151513334Y-36733814D01*
X151662656Y-36641712D01*
X151786712Y-36517656D01*
X151878814Y-36368334D01*
X151933999Y-36201797D01*
X151944500Y-36099009D01*
X151944499Y-35173992D01*
X151938043Y-35110796D01*
X151933999Y-35071203D01*
X151933998Y-35071200D01*
X151913061Y-35008016D01*
X151878814Y-34904666D01*
X151786712Y-34755344D01*
X151662656Y-34631288D01*
X151531677Y-34550500D01*
X151513336Y-34539187D01*
X151513331Y-34539185D01*
X151453349Y-34519309D01*
X151346797Y-34484001D01*
X151346795Y-34484000D01*
X151244016Y-34473500D01*
X151244009Y-34473500D01*
X150847282Y-34473500D01*
X150780243Y-34453815D01*
X150759601Y-34437181D01*
X150309479Y-33987059D01*
X150309459Y-33987037D01*
X150208102Y-33885680D01*
X150174617Y-33824357D01*
X150179601Y-33754665D01*
X150221473Y-33698732D01*
X150286937Y-33674315D01*
X150293933Y-33674065D01*
X150294000Y-33673999D01*
X150794000Y-33673999D01*
X151243972Y-33673999D01*
X151243986Y-33673998D01*
X151346697Y-33663505D01*
X151513119Y-33608358D01*
X151513124Y-33608356D01*
X151662345Y-33516315D01*
X151786315Y-33392345D01*
X151878356Y-33243124D01*
X151878358Y-33243119D01*
X151933505Y-33076697D01*
X151933506Y-33076690D01*
X151943999Y-32973986D01*
X151944000Y-32973973D01*
X151944000Y-32761500D01*
X150794000Y-32761500D01*
X150794000Y-33673999D01*
X150294000Y-33673999D01*
X150294000Y-32761500D01*
X149270072Y-32761500D01*
X149212996Y-32792666D01*
X149186638Y-32795500D01*
X146779001Y-32795500D01*
X146779001Y-32932986D01*
X146789494Y-33035697D01*
X146844641Y-33202119D01*
X146844643Y-33202124D01*
X146936684Y-33351345D01*
X147060655Y-33475316D01*
X147060659Y-33475319D01*
X147063656Y-33477168D01*
X147065279Y-33478972D01*
X147066323Y-33479798D01*
X147066181Y-33479976D01*
X147110381Y-33529116D01*
X147121602Y-33598079D01*
X147093759Y-33662161D01*
X147063661Y-33688241D01*
X147060349Y-33690283D01*
X147060343Y-33690288D01*
X146936289Y-33814342D01*
X146844187Y-33963663D01*
X146844185Y-33963668D01*
X146836434Y-33987059D01*
X146789001Y-34130203D01*
X146789001Y-34130204D01*
X146789000Y-34130204D01*
X146778500Y-34232983D01*
X146778500Y-35008001D01*
X146778501Y-35008019D01*
X146789000Y-35110796D01*
X146789001Y-35110799D01*
X146846027Y-35282890D01*
X146848429Y-35352718D01*
X146816004Y-35409574D01*
X146718858Y-35506722D01*
X146609372Y-35670579D01*
X146609367Y-35670589D01*
X146533949Y-35852663D01*
X146533947Y-35852671D01*
X146495500Y-36045955D01*
X145956500Y-36045955D01*
X145956500Y-35545230D01*
X145976185Y-35478191D01*
X145992819Y-35457549D01*
X146023712Y-35426656D01*
X146115814Y-35277334D01*
X146170999Y-35110797D01*
X146181500Y-35008009D01*
X146181499Y-34232992D01*
X146170999Y-34130203D01*
X146115814Y-33963666D01*
X146023712Y-33814344D01*
X145899656Y-33690288D01*
X145896342Y-33688243D01*
X145894546Y-33686248D01*
X145893989Y-33685807D01*
X145894064Y-33685711D01*
X145849618Y-33636297D01*
X145838397Y-33567334D01*
X145866240Y-33503252D01*
X145896348Y-33477165D01*
X145899342Y-33475318D01*
X146023315Y-33351345D01*
X146115356Y-33202124D01*
X146115358Y-33202119D01*
X146170505Y-33035697D01*
X146170506Y-33035690D01*
X146180999Y-32932986D01*
X146181000Y-32932973D01*
X146181000Y-32795500D01*
X143859000Y-32795500D01*
X143852319Y-32802181D01*
X143790996Y-32835666D01*
X143764638Y-32838500D01*
X142666000Y-32838500D01*
X142666000Y-33750999D01*
X142666741Y-33751740D01*
X142731256Y-33770684D01*
X142777011Y-33823488D01*
X142786955Y-33892646D01*
X142757930Y-33956202D01*
X142751898Y-33962680D01*
X142200396Y-34514181D01*
X142139073Y-34547666D01*
X142112715Y-34550500D01*
X141715998Y-34550500D01*
X141715980Y-34550501D01*
X141613203Y-34561000D01*
X141613200Y-34561001D01*
X141446668Y-34616185D01*
X141446663Y-34616187D01*
X141378484Y-34658240D01*
X141319633Y-34694539D01*
X141254539Y-34713000D01*
X140208456Y-34713000D01*
X140015171Y-34751447D01*
X140015163Y-34751449D01*
X139942407Y-34781586D01*
X139942406Y-34781586D01*
X139833092Y-34826864D01*
X139833079Y-34826871D01*
X139705174Y-34912336D01*
X139705173Y-34912337D01*
X139669215Y-34936362D01*
X139669214Y-34936363D01*
X130520278Y-44085302D01*
X130458955Y-44118787D01*
X130432597Y-44121621D01*
X128513180Y-44121621D01*
X128446141Y-44101936D01*
X128413913Y-44071932D01*
X128333546Y-43964575D01*
X128305726Y-43943749D01*
X128218335Y-43878327D01*
X128218328Y-43878323D01*
X128083482Y-43828029D01*
X128083483Y-43828029D01*
X128023883Y-43821622D01*
X128023881Y-43821621D01*
X128023873Y-43821621D01*
X128023864Y-43821621D01*
X126328129Y-43821621D01*
X126328123Y-43821622D01*
X126268516Y-43828029D01*
X126133671Y-43878323D01*
X126133664Y-43878327D01*
X126018455Y-43964573D01*
X126018452Y-43964576D01*
X125932206Y-44079785D01*
X125932202Y-44079792D01*
X125881908Y-44214638D01*
X125875501Y-44274237D01*
X125875500Y-44274256D01*
X125875500Y-45969991D01*
X125875501Y-45969997D01*
X125881908Y-46029604D01*
X125932202Y-46164449D01*
X125932206Y-46164456D01*
X126018452Y-46279665D01*
X126018455Y-46279668D01*
X126133664Y-46365914D01*
X126133671Y-46365918D01*
X126178618Y-46382682D01*
X126268517Y-46416212D01*
X126328127Y-46422621D01*
X126328153Y-46422620D01*
X126331453Y-46422799D01*
X126331372Y-46424304D01*
X126392672Y-46442233D01*
X126438483Y-46494988D01*
X126446016Y-46538585D01*
X127129553Y-47222121D01*
X127123339Y-47222121D01*
X127021606Y-47249380D01*
X126930394Y-47302041D01*
X126855920Y-47376515D01*
X126803259Y-47467727D01*
X126776000Y-47569460D01*
X126776000Y-47575673D01*
X126096974Y-46896647D01*
X126096973Y-46896647D01*
X126045868Y-46969633D01*
X126045866Y-46969637D01*
X125949734Y-47175794D01*
X125949730Y-47175803D01*
X125890860Y-47395510D01*
X125890858Y-47395521D01*
X125871034Y-47622118D01*
X116508000Y-47622118D01*
X116508000Y-40716499D01*
X117184341Y-40716499D01*
X117184341Y-40716500D01*
X117204936Y-40951903D01*
X117204938Y-40951913D01*
X117266094Y-41180155D01*
X117266096Y-41180159D01*
X117266097Y-41180163D01*
X117365965Y-41394330D01*
X117365967Y-41394334D01*
X117408538Y-41455131D01*
X117491785Y-41574020D01*
X117501501Y-41587895D01*
X117501506Y-41587902D01*
X117668597Y-41754993D01*
X117668603Y-41754998D01*
X117854594Y-41885230D01*
X117898219Y-41939807D01*
X117905413Y-42009305D01*
X117873890Y-42071660D01*
X117854595Y-42088380D01*
X117668922Y-42218390D01*
X117668920Y-42218391D01*
X117501891Y-42385420D01*
X117501886Y-42385426D01*
X117366400Y-42578920D01*
X117366399Y-42578922D01*
X117266570Y-42793007D01*
X117266567Y-42793013D01*
X117209364Y-43006499D01*
X117209364Y-43006500D01*
X118106988Y-43006500D01*
X118074075Y-43063507D01*
X118040000Y-43190674D01*
X118040000Y-43322326D01*
X118074075Y-43449493D01*
X118106988Y-43506500D01*
X117209364Y-43506500D01*
X117266567Y-43719986D01*
X117266570Y-43719992D01*
X117366399Y-43934078D01*
X117501894Y-44127582D01*
X117668917Y-44294605D01*
X117854595Y-44424619D01*
X117898219Y-44479196D01*
X117905412Y-44548695D01*
X117873890Y-44611049D01*
X117854595Y-44627769D01*
X117668594Y-44758008D01*
X117501505Y-44925097D01*
X117365965Y-45118669D01*
X117365964Y-45118671D01*
X117266098Y-45332835D01*
X117266094Y-45332844D01*
X117204938Y-45561086D01*
X117204936Y-45561096D01*
X117184341Y-45796499D01*
X117184341Y-45796500D01*
X117204936Y-46031903D01*
X117204938Y-46031913D01*
X117266094Y-46260155D01*
X117266096Y-46260159D01*
X117266097Y-46260163D01*
X117349371Y-46438745D01*
X117365965Y-46474330D01*
X117365967Y-46474334D01*
X117474281Y-46629021D01*
X117501505Y-46667901D01*
X117668599Y-46834995D01*
X117756647Y-46896647D01*
X117862165Y-46970532D01*
X117862167Y-46970533D01*
X117862170Y-46970535D01*
X118076337Y-47070403D01*
X118304592Y-47131563D01*
X118492918Y-47148039D01*
X118539999Y-47152159D01*
X118540000Y-47152159D01*
X118540001Y-47152159D01*
X118579234Y-47148726D01*
X118775408Y-47131563D01*
X119003663Y-47070403D01*
X119217830Y-46970535D01*
X119411401Y-46834995D01*
X119578495Y-46667901D01*
X119714035Y-46474330D01*
X119813903Y-46260163D01*
X119875063Y-46031908D01*
X119895659Y-45796500D01*
X119875063Y-45561092D01*
X119813903Y-45332837D01*
X119714035Y-45118671D01*
X119602762Y-44959755D01*
X119578494Y-44925097D01*
X119411402Y-44758006D01*
X119411401Y-44758005D01*
X119225405Y-44627769D01*
X119181781Y-44573192D01*
X119174588Y-44503693D01*
X119206110Y-44441339D01*
X119225405Y-44424619D01*
X119411082Y-44294605D01*
X119578105Y-44127582D01*
X119713600Y-43934078D01*
X119813429Y-43719992D01*
X119813432Y-43719986D01*
X119870636Y-43506500D01*
X118973012Y-43506500D01*
X119005925Y-43449493D01*
X119040000Y-43322326D01*
X119040000Y-43190674D01*
X119005925Y-43063507D01*
X118973012Y-43006500D01*
X119870636Y-43006500D01*
X119870635Y-43006499D01*
X119813432Y-42793013D01*
X119813429Y-42793007D01*
X119713600Y-42578922D01*
X119713599Y-42578920D01*
X119578113Y-42385426D01*
X119578108Y-42385420D01*
X119411078Y-42218390D01*
X119225405Y-42088379D01*
X119181780Y-42033802D01*
X119174588Y-41964304D01*
X119206110Y-41901949D01*
X119225406Y-41885230D01*
X119269557Y-41854315D01*
X119411401Y-41754995D01*
X119578495Y-41587901D01*
X119714035Y-41394330D01*
X119813903Y-41180163D01*
X119875063Y-40951908D01*
X119895659Y-40716500D01*
X119875063Y-40481092D01*
X119813903Y-40252837D01*
X119714035Y-40038671D01*
X119602761Y-39879755D01*
X119578496Y-39845100D01*
X119578495Y-39845099D01*
X119456179Y-39722783D01*
X119422696Y-39661463D01*
X119427680Y-39591771D01*
X119469551Y-39535837D01*
X119500529Y-39518922D01*
X119632086Y-39469854D01*
X119632093Y-39469850D01*
X119747187Y-39383690D01*
X119747190Y-39383687D01*
X119833350Y-39268593D01*
X119833354Y-39268586D01*
X119883596Y-39133879D01*
X119883598Y-39133872D01*
X119889999Y-39074344D01*
X119890000Y-39074327D01*
X119890000Y-38426500D01*
X118973012Y-38426500D01*
X119005925Y-38369493D01*
X119040000Y-38242326D01*
X119040000Y-38176498D01*
X125870532Y-38176498D01*
X125870532Y-38176501D01*
X125890364Y-38403186D01*
X125890366Y-38403197D01*
X125949258Y-38622988D01*
X125949261Y-38622997D01*
X126045431Y-38829232D01*
X126045432Y-38829234D01*
X126175954Y-39015641D01*
X126336858Y-39176545D01*
X126336861Y-39176547D01*
X126523266Y-39307068D01*
X126729504Y-39403239D01*
X126949308Y-39462135D01*
X127111230Y-39476301D01*
X127175998Y-39481968D01*
X127176000Y-39481968D01*
X127176002Y-39481968D01*
X127232673Y-39477009D01*
X127402692Y-39462135D01*
X127622496Y-39403239D01*
X127828734Y-39307068D01*
X128015139Y-39176547D01*
X128176047Y-39015639D01*
X128306568Y-38829234D01*
X128402739Y-38622996D01*
X128461635Y-38403192D01*
X128481468Y-38176500D01*
X128461635Y-37949808D01*
X128402739Y-37730004D01*
X128306568Y-37523766D01*
X128176047Y-37337361D01*
X128176045Y-37337358D01*
X128018493Y-37179806D01*
X127985008Y-37118483D01*
X127989992Y-37048791D01*
X128031864Y-36992858D01*
X128077667Y-36971446D01*
X128083381Y-36970095D01*
X128218086Y-36919854D01*
X128218093Y-36919850D01*
X128333187Y-36833690D01*
X128333190Y-36833687D01*
X128419350Y-36718593D01*
X128419354Y-36718586D01*
X128469596Y-36583879D01*
X128469598Y-36583872D01*
X128475999Y-36524344D01*
X128476000Y-36524327D01*
X128476000Y-35926500D01*
X127491686Y-35926500D01*
X127496080Y-35922106D01*
X127548741Y-35830894D01*
X127576000Y-35729161D01*
X127576000Y-35623839D01*
X127548741Y-35522106D01*
X127496080Y-35430894D01*
X127491686Y-35426500D01*
X128476000Y-35426500D01*
X128476000Y-34828672D01*
X128475999Y-34828655D01*
X128469598Y-34769127D01*
X128469596Y-34769120D01*
X128419354Y-34634413D01*
X128419350Y-34634406D01*
X128333190Y-34519312D01*
X128333187Y-34519309D01*
X128218093Y-34433149D01*
X128218086Y-34433145D01*
X128083379Y-34382903D01*
X128083372Y-34382901D01*
X128023844Y-34376500D01*
X127426000Y-34376500D01*
X127426000Y-35360814D01*
X127421606Y-35356420D01*
X127330394Y-35303759D01*
X127228661Y-35276500D01*
X127123339Y-35276500D01*
X127021606Y-35303759D01*
X126930394Y-35356420D01*
X126926000Y-35360814D01*
X126926000Y-34376500D01*
X126328155Y-34376500D01*
X126268627Y-34382901D01*
X126268620Y-34382903D01*
X126133913Y-34433145D01*
X126133906Y-34433149D01*
X126018812Y-34519309D01*
X126018809Y-34519312D01*
X125932649Y-34634406D01*
X125932645Y-34634413D01*
X125882403Y-34769120D01*
X125882401Y-34769127D01*
X125876000Y-34828655D01*
X125876000Y-35426500D01*
X126860314Y-35426500D01*
X126855920Y-35430894D01*
X126803259Y-35522106D01*
X126776000Y-35623839D01*
X126776000Y-35729161D01*
X126803259Y-35830894D01*
X126855920Y-35922106D01*
X126860314Y-35926500D01*
X125876000Y-35926500D01*
X125876000Y-36524344D01*
X125882401Y-36583872D01*
X125882403Y-36583879D01*
X125932645Y-36718586D01*
X125932649Y-36718593D01*
X126018809Y-36833687D01*
X126018812Y-36833690D01*
X126133906Y-36919850D01*
X126133913Y-36919854D01*
X126268622Y-36970097D01*
X126274334Y-36971447D01*
X126335052Y-37006017D01*
X126367441Y-37067927D01*
X126361218Y-37137518D01*
X126333507Y-37179806D01*
X126175951Y-37337362D01*
X126045432Y-37523765D01*
X126045431Y-37523767D01*
X125949261Y-37730002D01*
X125949258Y-37730011D01*
X125890366Y-37949802D01*
X125890364Y-37949813D01*
X125870532Y-38176498D01*
X119040000Y-38176498D01*
X119040000Y-38110674D01*
X119005925Y-37983507D01*
X118973012Y-37926500D01*
X119890000Y-37926500D01*
X119890000Y-37278672D01*
X119889999Y-37278655D01*
X119883598Y-37219127D01*
X119883596Y-37219120D01*
X119833354Y-37084413D01*
X119833350Y-37084406D01*
X119747190Y-36969312D01*
X119747187Y-36969309D01*
X119632093Y-36883149D01*
X119632086Y-36883145D01*
X119497379Y-36832903D01*
X119497372Y-36832901D01*
X119437844Y-36826500D01*
X118790000Y-36826500D01*
X118790000Y-37743488D01*
X118732993Y-37710575D01*
X118605826Y-37676500D01*
X118474174Y-37676500D01*
X118347007Y-37710575D01*
X118290000Y-37743488D01*
X118290000Y-36826500D01*
X117642155Y-36826500D01*
X117582627Y-36832901D01*
X117582620Y-36832903D01*
X117447913Y-36883145D01*
X117447906Y-36883149D01*
X117332812Y-36969309D01*
X117332809Y-36969312D01*
X117246649Y-37084406D01*
X117246645Y-37084413D01*
X117196403Y-37219120D01*
X117196401Y-37219127D01*
X117190000Y-37278655D01*
X117190000Y-37926500D01*
X118106988Y-37926500D01*
X118074075Y-37983507D01*
X118040000Y-38110674D01*
X118040000Y-38242326D01*
X118074075Y-38369493D01*
X118106988Y-38426500D01*
X117190000Y-38426500D01*
X117190000Y-39074344D01*
X117196401Y-39133872D01*
X117196403Y-39133879D01*
X117246645Y-39268586D01*
X117246649Y-39268593D01*
X117332809Y-39383687D01*
X117332812Y-39383690D01*
X117447906Y-39469850D01*
X117447913Y-39469854D01*
X117579470Y-39518921D01*
X117635403Y-39560792D01*
X117659821Y-39626256D01*
X117644970Y-39694529D01*
X117623819Y-39722784D01*
X117501503Y-39845100D01*
X117365965Y-40038669D01*
X117365964Y-40038671D01*
X117266098Y-40252835D01*
X117266094Y-40252844D01*
X117204938Y-40481086D01*
X117204936Y-40481096D01*
X117184341Y-40716499D01*
X116508000Y-40716499D01*
X116508000Y-33050986D01*
X141016001Y-33050986D01*
X141026494Y-33153697D01*
X141081641Y-33320119D01*
X141081643Y-33320124D01*
X141173684Y-33469345D01*
X141297654Y-33593315D01*
X141446875Y-33685356D01*
X141446880Y-33685358D01*
X141613302Y-33740505D01*
X141613309Y-33740506D01*
X141716019Y-33750999D01*
X142165999Y-33750999D01*
X142166000Y-33750998D01*
X142166000Y-32838500D01*
X141016001Y-32838500D01*
X141016001Y-33050986D01*
X116508000Y-33050986D01*
X116508000Y-32126013D01*
X141016000Y-32126013D01*
X141016000Y-32338500D01*
X142166000Y-32338500D01*
X142666000Y-32338500D01*
X143688000Y-32338500D01*
X143694681Y-32331819D01*
X143756004Y-32298334D01*
X143782362Y-32295500D01*
X144706000Y-32295500D01*
X145206000Y-32295500D01*
X146180999Y-32295500D01*
X146180999Y-32158028D01*
X146180998Y-32158013D01*
X146779000Y-32158013D01*
X146779000Y-32295500D01*
X147754000Y-32295500D01*
X147754000Y-31458000D01*
X148254000Y-31458000D01*
X148254000Y-32295500D01*
X149102928Y-32295500D01*
X149160004Y-32264334D01*
X149186362Y-32261500D01*
X150294000Y-32261500D01*
X150794000Y-32261500D01*
X151943999Y-32261500D01*
X151943999Y-32049028D01*
X151943998Y-32049013D01*
X151933505Y-31946302D01*
X151878358Y-31779880D01*
X151878356Y-31779875D01*
X151786315Y-31630654D01*
X151662345Y-31506684D01*
X151513124Y-31414643D01*
X151513119Y-31414641D01*
X151346697Y-31359494D01*
X151346690Y-31359493D01*
X151243986Y-31349000D01*
X150794000Y-31349000D01*
X150794000Y-32261500D01*
X150294000Y-32261500D01*
X150294000Y-31349000D01*
X149844028Y-31349000D01*
X149844012Y-31349001D01*
X149741302Y-31359494D01*
X149574880Y-31414641D01*
X149574875Y-31414643D01*
X149425654Y-31506684D01*
X149301682Y-31630656D01*
X149254543Y-31707080D01*
X149202594Y-31753804D01*
X149133632Y-31765025D01*
X149069550Y-31737181D01*
X149061324Y-31729663D01*
X148947345Y-31615684D01*
X148798124Y-31523643D01*
X148798119Y-31523641D01*
X148631697Y-31468494D01*
X148631690Y-31468493D01*
X148528986Y-31458000D01*
X148254000Y-31458000D01*
X147754000Y-31458000D01*
X147479029Y-31458000D01*
X147479012Y-31458001D01*
X147376302Y-31468494D01*
X147209880Y-31523641D01*
X147209875Y-31523643D01*
X147060654Y-31615684D01*
X146936684Y-31739654D01*
X146844643Y-31888875D01*
X146844641Y-31888880D01*
X146789494Y-32055302D01*
X146789493Y-32055309D01*
X146779000Y-32158013D01*
X146180998Y-32158013D01*
X146170505Y-32055302D01*
X146115358Y-31888880D01*
X146115356Y-31888875D01*
X146023315Y-31739654D01*
X145899345Y-31615684D01*
X145750124Y-31523643D01*
X145750119Y-31523641D01*
X145583697Y-31468494D01*
X145583690Y-31468493D01*
X145480986Y-31458000D01*
X145206000Y-31458000D01*
X145206000Y-32295500D01*
X144706000Y-32295500D01*
X144706000Y-31458000D01*
X144431029Y-31458000D01*
X144431012Y-31458001D01*
X144328302Y-31468494D01*
X144161880Y-31523641D01*
X144161875Y-31523643D01*
X144012654Y-31615684D01*
X143888683Y-31739655D01*
X143884202Y-31745323D01*
X143883139Y-31744483D01*
X143836945Y-31786023D01*
X143767981Y-31797237D01*
X143703902Y-31769385D01*
X143677828Y-31739290D01*
X143658315Y-31707654D01*
X143534345Y-31583684D01*
X143385124Y-31491643D01*
X143385119Y-31491641D01*
X143218697Y-31436494D01*
X143218690Y-31436493D01*
X143115986Y-31426000D01*
X142666000Y-31426000D01*
X142666000Y-32338500D01*
X142166000Y-32338500D01*
X142166000Y-31426000D01*
X141716028Y-31426000D01*
X141716012Y-31426001D01*
X141613302Y-31436494D01*
X141446880Y-31491641D01*
X141446875Y-31491643D01*
X141297654Y-31583684D01*
X141173684Y-31707654D01*
X141081643Y-31856875D01*
X141081641Y-31856880D01*
X141026494Y-32023302D01*
X141026493Y-32023309D01*
X141016000Y-32126013D01*
X116508000Y-32126013D01*
X116508000Y-29942213D01*
X117697500Y-29942213D01*
X117697500Y-30154787D01*
X117730754Y-30364743D01*
X117753712Y-30435401D01*
X117796444Y-30566914D01*
X117892951Y-30756320D01*
X118017890Y-30928286D01*
X118168213Y-31078609D01*
X118340179Y-31203548D01*
X118340181Y-31203549D01*
X118340184Y-31203551D01*
X118529588Y-31300057D01*
X118731757Y-31365746D01*
X118941713Y-31399000D01*
X118941714Y-31399000D01*
X119154286Y-31399000D01*
X119154287Y-31399000D01*
X119364243Y-31365746D01*
X119566412Y-31300057D01*
X119755816Y-31203551D01*
X119777789Y-31187586D01*
X119927786Y-31078609D01*
X119927788Y-31078606D01*
X119927792Y-31078604D01*
X120078104Y-30928292D01*
X120078106Y-30928288D01*
X120078109Y-30928286D01*
X120203048Y-30756320D01*
X120203047Y-30756320D01*
X120203051Y-30756316D01*
X120299557Y-30566912D01*
X120365246Y-30364743D01*
X120398500Y-30154787D01*
X120398500Y-29942213D01*
X120365246Y-29732257D01*
X120299557Y-29530088D01*
X120203051Y-29340684D01*
X120203049Y-29340681D01*
X120203048Y-29340679D01*
X120078109Y-29168713D01*
X119927786Y-29018390D01*
X119755820Y-28893451D01*
X119566414Y-28796944D01*
X119566413Y-28796943D01*
X119566412Y-28796943D01*
X119364243Y-28731254D01*
X119364241Y-28731253D01*
X119364240Y-28731253D01*
X119202957Y-28705708D01*
X119154287Y-28698000D01*
X118941713Y-28698000D01*
X118893042Y-28705708D01*
X118731760Y-28731253D01*
X118529585Y-28796944D01*
X118340179Y-28893451D01*
X118168213Y-29018390D01*
X118017890Y-29168713D01*
X117892951Y-29340679D01*
X117796444Y-29530085D01*
X117730753Y-29732260D01*
X117712500Y-29847507D01*
X117697500Y-29942213D01*
X116508000Y-29942213D01*
X116508000Y-28642635D01*
X145637500Y-28642635D01*
X145637500Y-30438370D01*
X145637501Y-30438376D01*
X145643908Y-30497983D01*
X145694202Y-30632828D01*
X145694206Y-30632835D01*
X145780452Y-30748044D01*
X145780455Y-30748047D01*
X145895664Y-30834293D01*
X145895671Y-30834297D01*
X146030517Y-30884591D01*
X146030516Y-30884591D01*
X146037444Y-30885335D01*
X146090127Y-30891000D01*
X147885872Y-30890999D01*
X147945483Y-30884591D01*
X148080331Y-30834296D01*
X148195546Y-30748046D01*
X148281796Y-30632831D01*
X148331002Y-30500901D01*
X148372872Y-30444968D01*
X148438337Y-30420550D01*
X148506610Y-30435401D01*
X148534865Y-30456553D01*
X148656917Y-30578605D01*
X148850421Y-30714100D01*
X149064507Y-30813929D01*
X149064516Y-30813933D01*
X149278000Y-30871134D01*
X149278000Y-29973512D01*
X149335007Y-30006425D01*
X149462174Y-30040500D01*
X149593826Y-30040500D01*
X149720993Y-30006425D01*
X149778000Y-29973512D01*
X149778000Y-30871133D01*
X149991483Y-30813933D01*
X149991492Y-30813929D01*
X150205578Y-30714100D01*
X150399082Y-30578605D01*
X150566105Y-30411582D01*
X150696119Y-30225905D01*
X150750696Y-30182281D01*
X150820195Y-30175088D01*
X150882549Y-30206610D01*
X150899269Y-30225905D01*
X151029505Y-30411901D01*
X151196599Y-30578995D01*
X151293384Y-30646765D01*
X151390165Y-30714532D01*
X151390167Y-30714533D01*
X151390170Y-30714535D01*
X151604337Y-30814403D01*
X151832592Y-30875563D01*
X152009034Y-30891000D01*
X152067999Y-30896159D01*
X152068000Y-30896159D01*
X152068001Y-30896159D01*
X152126966Y-30891000D01*
X152303408Y-30875563D01*
X152531663Y-30814403D01*
X152745830Y-30714535D01*
X152939401Y-30578995D01*
X153106495Y-30411901D01*
X153242035Y-30218330D01*
X153341903Y-30004163D01*
X153358502Y-29942213D01*
X176625500Y-29942213D01*
X176625500Y-30154787D01*
X176658754Y-30364743D01*
X176681712Y-30435401D01*
X176724444Y-30566914D01*
X176820951Y-30756320D01*
X176945890Y-30928286D01*
X177096213Y-31078609D01*
X177268179Y-31203548D01*
X177268181Y-31203549D01*
X177268184Y-31203551D01*
X177457588Y-31300057D01*
X177659757Y-31365746D01*
X177869713Y-31399000D01*
X177869714Y-31399000D01*
X178082286Y-31399000D01*
X178082287Y-31399000D01*
X178292243Y-31365746D01*
X178494412Y-31300057D01*
X178683816Y-31203551D01*
X178705789Y-31187586D01*
X178855786Y-31078609D01*
X178855788Y-31078606D01*
X178855792Y-31078604D01*
X179006104Y-30928292D01*
X179006106Y-30928288D01*
X179006109Y-30928286D01*
X179131048Y-30756320D01*
X179131047Y-30756320D01*
X179131051Y-30756316D01*
X179227557Y-30566912D01*
X179293246Y-30364743D01*
X179326500Y-30154787D01*
X179326500Y-29942213D01*
X179293246Y-29732257D01*
X179227557Y-29530088D01*
X179131051Y-29340684D01*
X179131049Y-29340681D01*
X179131048Y-29340679D01*
X179006109Y-29168713D01*
X178855786Y-29018390D01*
X178683820Y-28893451D01*
X178494414Y-28796944D01*
X178494413Y-28796943D01*
X178494412Y-28796943D01*
X178292243Y-28731254D01*
X178292241Y-28731253D01*
X178292240Y-28731253D01*
X178130957Y-28705708D01*
X178082287Y-28698000D01*
X177869713Y-28698000D01*
X177821042Y-28705708D01*
X177659760Y-28731253D01*
X177457585Y-28796944D01*
X177268179Y-28893451D01*
X177096213Y-29018390D01*
X176945890Y-29168713D01*
X176820951Y-29340679D01*
X176724444Y-29530085D01*
X176658753Y-29732260D01*
X176640500Y-29847507D01*
X176625500Y-29942213D01*
X153358502Y-29942213D01*
X153403063Y-29775908D01*
X153423659Y-29540500D01*
X153403063Y-29305092D01*
X153341903Y-29076837D01*
X153242035Y-28862671D01*
X153236731Y-28855095D01*
X153106494Y-28669097D01*
X152939402Y-28502006D01*
X152939395Y-28502001D01*
X152745834Y-28366467D01*
X152745830Y-28366465D01*
X152745828Y-28366464D01*
X152531663Y-28266597D01*
X152531659Y-28266596D01*
X152531655Y-28266594D01*
X152303413Y-28205438D01*
X152303403Y-28205436D01*
X152068001Y-28184841D01*
X152067999Y-28184841D01*
X151832596Y-28205436D01*
X151832586Y-28205438D01*
X151604344Y-28266594D01*
X151604335Y-28266598D01*
X151390171Y-28366464D01*
X151390169Y-28366465D01*
X151196597Y-28502005D01*
X151029508Y-28669094D01*
X150899269Y-28855095D01*
X150844692Y-28898719D01*
X150775193Y-28905912D01*
X150712839Y-28874390D01*
X150696119Y-28855094D01*
X150566113Y-28669426D01*
X150566108Y-28669420D01*
X150399082Y-28502394D01*
X150205578Y-28366899D01*
X149991492Y-28267070D01*
X149991486Y-28267067D01*
X149778000Y-28209864D01*
X149778000Y-29107488D01*
X149720993Y-29074575D01*
X149593826Y-29040500D01*
X149462174Y-29040500D01*
X149335007Y-29074575D01*
X149278000Y-29107488D01*
X149278000Y-28209864D01*
X149277999Y-28209864D01*
X149064513Y-28267067D01*
X149064507Y-28267070D01*
X148850422Y-28366899D01*
X148850420Y-28366900D01*
X148656926Y-28502386D01*
X148534865Y-28624447D01*
X148473542Y-28657931D01*
X148403850Y-28652947D01*
X148347917Y-28611075D01*
X148331002Y-28580098D01*
X148281797Y-28448171D01*
X148281793Y-28448164D01*
X148195547Y-28332955D01*
X148195544Y-28332952D01*
X148080335Y-28246706D01*
X148080328Y-28246702D01*
X147945482Y-28196408D01*
X147945483Y-28196408D01*
X147885883Y-28190001D01*
X147885881Y-28190000D01*
X147885873Y-28190000D01*
X147885864Y-28190000D01*
X146090129Y-28190000D01*
X146090123Y-28190001D01*
X146030516Y-28196408D01*
X145895671Y-28246702D01*
X145895664Y-28246706D01*
X145780455Y-28332952D01*
X145780452Y-28332955D01*
X145694206Y-28448164D01*
X145694202Y-28448171D01*
X145643908Y-28583017D01*
X145637501Y-28642616D01*
X145637500Y-28642635D01*
X116508000Y-28642635D01*
X116508000Y-27632500D01*
X116527685Y-27565461D01*
X116580489Y-27519706D01*
X116632000Y-27508500D01*
X180375500Y-27508500D01*
X180442539Y-27528185D01*
G37*
%TD.AperFunction*%
%TD*%
%TA.AperFunction,Conductor*%
%TO.N,Board_1-GND*%
G36*
X180442539Y-59528185D02*
G01*
X180488294Y-59580989D01*
X180499500Y-59632500D01*
X180499500Y-88340500D01*
X180479815Y-88407539D01*
X180427011Y-88453294D01*
X180375500Y-88464500D01*
X116632000Y-88464500D01*
X116564961Y-88444815D01*
X116519206Y-88392011D01*
X116508000Y-88340500D01*
X116508000Y-85818213D01*
X117697500Y-85818213D01*
X117697500Y-86030786D01*
X117730753Y-86240739D01*
X117796444Y-86442914D01*
X117892951Y-86632320D01*
X118017890Y-86804286D01*
X118168213Y-86954609D01*
X118340179Y-87079548D01*
X118340181Y-87079549D01*
X118340184Y-87079551D01*
X118529588Y-87176057D01*
X118731757Y-87241746D01*
X118941713Y-87275000D01*
X118941714Y-87275000D01*
X119154286Y-87275000D01*
X119154287Y-87275000D01*
X119364243Y-87241746D01*
X119566412Y-87176057D01*
X119755816Y-87079551D01*
X119777789Y-87063586D01*
X119927786Y-86954609D01*
X119927788Y-86954606D01*
X119927792Y-86954604D01*
X120078104Y-86804292D01*
X120078106Y-86804288D01*
X120078109Y-86804286D01*
X120203048Y-86632320D01*
X120203047Y-86632320D01*
X120203051Y-86632316D01*
X120299557Y-86442912D01*
X120302940Y-86432499D01*
X125312341Y-86432499D01*
X125312341Y-86432500D01*
X125332936Y-86667903D01*
X125332938Y-86667913D01*
X125394094Y-86896155D01*
X125394096Y-86896159D01*
X125394097Y-86896163D01*
X125488703Y-87099046D01*
X125493965Y-87110330D01*
X125493967Y-87110334D01*
X125602281Y-87265021D01*
X125629505Y-87303901D01*
X125796599Y-87470995D01*
X125873135Y-87524586D01*
X125990165Y-87606532D01*
X125990167Y-87606533D01*
X125990170Y-87606535D01*
X126204337Y-87706403D01*
X126432592Y-87767563D01*
X126603319Y-87782500D01*
X126667999Y-87788159D01*
X126668000Y-87788159D01*
X126668001Y-87788159D01*
X126732681Y-87782500D01*
X126903408Y-87767563D01*
X127131663Y-87706403D01*
X127345830Y-87606535D01*
X127539401Y-87470995D01*
X127706495Y-87303901D01*
X127836425Y-87118342D01*
X127891002Y-87074717D01*
X127960500Y-87067523D01*
X128022855Y-87099046D01*
X128039575Y-87118342D01*
X128169500Y-87303895D01*
X128169505Y-87303901D01*
X128336599Y-87470995D01*
X128413135Y-87524586D01*
X128530165Y-87606532D01*
X128530167Y-87606533D01*
X128530170Y-87606535D01*
X128744337Y-87706403D01*
X128972592Y-87767563D01*
X129143319Y-87782500D01*
X129207999Y-87788159D01*
X129208000Y-87788159D01*
X129208001Y-87788159D01*
X129272681Y-87782500D01*
X129443408Y-87767563D01*
X129671663Y-87706403D01*
X129885830Y-87606535D01*
X130079401Y-87470995D01*
X130246495Y-87303901D01*
X130376425Y-87118342D01*
X130431002Y-87074717D01*
X130500500Y-87067523D01*
X130562855Y-87099046D01*
X130579575Y-87118342D01*
X130709500Y-87303895D01*
X130709505Y-87303901D01*
X130876599Y-87470995D01*
X130953135Y-87524586D01*
X131070165Y-87606532D01*
X131070167Y-87606533D01*
X131070170Y-87606535D01*
X131284337Y-87706403D01*
X131512592Y-87767563D01*
X131683319Y-87782500D01*
X131747999Y-87788159D01*
X131748000Y-87788159D01*
X131748001Y-87788159D01*
X131812681Y-87782500D01*
X131983408Y-87767563D01*
X132211663Y-87706403D01*
X132425830Y-87606535D01*
X132619401Y-87470995D01*
X132786495Y-87303901D01*
X132916425Y-87118342D01*
X132971002Y-87074717D01*
X133040500Y-87067523D01*
X133102855Y-87099046D01*
X133119575Y-87118342D01*
X133249500Y-87303895D01*
X133249505Y-87303901D01*
X133416599Y-87470995D01*
X133493135Y-87524586D01*
X133610165Y-87606532D01*
X133610167Y-87606533D01*
X133610170Y-87606535D01*
X133824337Y-87706403D01*
X134052592Y-87767563D01*
X134223319Y-87782500D01*
X134287999Y-87788159D01*
X134288000Y-87788159D01*
X134288001Y-87788159D01*
X134352681Y-87782500D01*
X134523408Y-87767563D01*
X134751663Y-87706403D01*
X134965830Y-87606535D01*
X135159401Y-87470995D01*
X135326495Y-87303901D01*
X135456425Y-87118342D01*
X135511002Y-87074717D01*
X135580500Y-87067523D01*
X135642855Y-87099046D01*
X135659575Y-87118342D01*
X135789500Y-87303895D01*
X135789505Y-87303901D01*
X135956599Y-87470995D01*
X136033135Y-87524586D01*
X136150165Y-87606532D01*
X136150167Y-87606533D01*
X136150170Y-87606535D01*
X136364337Y-87706403D01*
X136592592Y-87767563D01*
X136763319Y-87782500D01*
X136827999Y-87788159D01*
X136828000Y-87788159D01*
X136828001Y-87788159D01*
X136892681Y-87782500D01*
X137063408Y-87767563D01*
X137291663Y-87706403D01*
X137505830Y-87606535D01*
X137699401Y-87470995D01*
X137866495Y-87303901D01*
X137996425Y-87118342D01*
X138051002Y-87074717D01*
X138120500Y-87067523D01*
X138182855Y-87099046D01*
X138199575Y-87118342D01*
X138329500Y-87303895D01*
X138329505Y-87303901D01*
X138496599Y-87470995D01*
X138573135Y-87524586D01*
X138690165Y-87606532D01*
X138690167Y-87606533D01*
X138690170Y-87606535D01*
X138904337Y-87706403D01*
X139132592Y-87767563D01*
X139303319Y-87782500D01*
X139367999Y-87788159D01*
X139368000Y-87788159D01*
X139368001Y-87788159D01*
X139432681Y-87782500D01*
X139603408Y-87767563D01*
X139831663Y-87706403D01*
X140045830Y-87606535D01*
X140239401Y-87470995D01*
X140406495Y-87303901D01*
X140536425Y-87118342D01*
X140591002Y-87074717D01*
X140660500Y-87067523D01*
X140722855Y-87099046D01*
X140739575Y-87118342D01*
X140869500Y-87303895D01*
X140869505Y-87303901D01*
X141036599Y-87470995D01*
X141113135Y-87524586D01*
X141230165Y-87606532D01*
X141230167Y-87606533D01*
X141230170Y-87606535D01*
X141444337Y-87706403D01*
X141672592Y-87767563D01*
X141843319Y-87782500D01*
X141907999Y-87788159D01*
X141908000Y-87788159D01*
X141908001Y-87788159D01*
X141972681Y-87782500D01*
X142143408Y-87767563D01*
X142371663Y-87706403D01*
X142585830Y-87606535D01*
X142779401Y-87470995D01*
X142946495Y-87303901D01*
X143076425Y-87118342D01*
X143131002Y-87074717D01*
X143200500Y-87067523D01*
X143262855Y-87099046D01*
X143279575Y-87118342D01*
X143409500Y-87303895D01*
X143409505Y-87303901D01*
X143576599Y-87470995D01*
X143653135Y-87524586D01*
X143770165Y-87606532D01*
X143770167Y-87606533D01*
X143770170Y-87606535D01*
X143984337Y-87706403D01*
X144212592Y-87767563D01*
X144383319Y-87782500D01*
X144447999Y-87788159D01*
X144448000Y-87788159D01*
X144448001Y-87788159D01*
X144512681Y-87782500D01*
X144683408Y-87767563D01*
X144911663Y-87706403D01*
X145125830Y-87606535D01*
X145319401Y-87470995D01*
X145486495Y-87303901D01*
X145616425Y-87118342D01*
X145671002Y-87074717D01*
X145740500Y-87067523D01*
X145802855Y-87099046D01*
X145819575Y-87118342D01*
X145949500Y-87303895D01*
X145949505Y-87303901D01*
X146116599Y-87470995D01*
X146193135Y-87524586D01*
X146310165Y-87606532D01*
X146310167Y-87606533D01*
X146310170Y-87606535D01*
X146524337Y-87706403D01*
X146752592Y-87767563D01*
X146923319Y-87782500D01*
X146987999Y-87788159D01*
X146988000Y-87788159D01*
X146988001Y-87788159D01*
X147052681Y-87782500D01*
X147223408Y-87767563D01*
X147451663Y-87706403D01*
X147665830Y-87606535D01*
X147859401Y-87470995D01*
X148026495Y-87303901D01*
X148156425Y-87118342D01*
X148211002Y-87074717D01*
X148280500Y-87067523D01*
X148342855Y-87099046D01*
X148359575Y-87118342D01*
X148489500Y-87303895D01*
X148489505Y-87303901D01*
X148656599Y-87470995D01*
X148733135Y-87524586D01*
X148850165Y-87606532D01*
X148850167Y-87606533D01*
X148850170Y-87606535D01*
X149064337Y-87706403D01*
X149292592Y-87767563D01*
X149463319Y-87782500D01*
X149527999Y-87788159D01*
X149528000Y-87788159D01*
X149528001Y-87788159D01*
X149592681Y-87782500D01*
X149763408Y-87767563D01*
X149991663Y-87706403D01*
X150205830Y-87606535D01*
X150399401Y-87470995D01*
X150566495Y-87303901D01*
X150696425Y-87118342D01*
X150751002Y-87074717D01*
X150820500Y-87067523D01*
X150882855Y-87099046D01*
X150899575Y-87118342D01*
X151029500Y-87303895D01*
X151029505Y-87303901D01*
X151196599Y-87470995D01*
X151273135Y-87524586D01*
X151390165Y-87606532D01*
X151390167Y-87606533D01*
X151390170Y-87606535D01*
X151604337Y-87706403D01*
X151832592Y-87767563D01*
X152003319Y-87782500D01*
X152067999Y-87788159D01*
X152068000Y-87788159D01*
X152068001Y-87788159D01*
X152132681Y-87782500D01*
X152303408Y-87767563D01*
X152531663Y-87706403D01*
X152745830Y-87606535D01*
X152939401Y-87470995D01*
X153106495Y-87303901D01*
X153236425Y-87118342D01*
X153291002Y-87074717D01*
X153360500Y-87067523D01*
X153422855Y-87099046D01*
X153439575Y-87118342D01*
X153569500Y-87303895D01*
X153569505Y-87303901D01*
X153736599Y-87470995D01*
X153813135Y-87524586D01*
X153930165Y-87606532D01*
X153930167Y-87606533D01*
X153930170Y-87606535D01*
X154144337Y-87706403D01*
X154372592Y-87767563D01*
X154543319Y-87782500D01*
X154607999Y-87788159D01*
X154608000Y-87788159D01*
X154608001Y-87788159D01*
X154672681Y-87782500D01*
X154843408Y-87767563D01*
X155071663Y-87706403D01*
X155285830Y-87606535D01*
X155479401Y-87470995D01*
X155646495Y-87303901D01*
X155776425Y-87118342D01*
X155831002Y-87074717D01*
X155900500Y-87067523D01*
X155962855Y-87099046D01*
X155979575Y-87118342D01*
X156109500Y-87303895D01*
X156109505Y-87303901D01*
X156276599Y-87470995D01*
X156353135Y-87524586D01*
X156470165Y-87606532D01*
X156470167Y-87606533D01*
X156470170Y-87606535D01*
X156684337Y-87706403D01*
X156912592Y-87767563D01*
X157083319Y-87782500D01*
X157147999Y-87788159D01*
X157148000Y-87788159D01*
X157148001Y-87788159D01*
X157212681Y-87782500D01*
X157383408Y-87767563D01*
X157611663Y-87706403D01*
X157825830Y-87606535D01*
X158019401Y-87470995D01*
X158186495Y-87303901D01*
X158316425Y-87118342D01*
X158371002Y-87074717D01*
X158440500Y-87067523D01*
X158502855Y-87099046D01*
X158519575Y-87118342D01*
X158649500Y-87303895D01*
X158649505Y-87303901D01*
X158816599Y-87470995D01*
X158893135Y-87524586D01*
X159010165Y-87606532D01*
X159010167Y-87606533D01*
X159010170Y-87606535D01*
X159224337Y-87706403D01*
X159452592Y-87767563D01*
X159623319Y-87782500D01*
X159687999Y-87788159D01*
X159688000Y-87788159D01*
X159688001Y-87788159D01*
X159752681Y-87782500D01*
X159923408Y-87767563D01*
X160151663Y-87706403D01*
X160365830Y-87606535D01*
X160559401Y-87470995D01*
X160726495Y-87303901D01*
X160856425Y-87118342D01*
X160911002Y-87074717D01*
X160980500Y-87067523D01*
X161042855Y-87099046D01*
X161059575Y-87118342D01*
X161189500Y-87303895D01*
X161189505Y-87303901D01*
X161356599Y-87470995D01*
X161433135Y-87524586D01*
X161550165Y-87606532D01*
X161550167Y-87606533D01*
X161550170Y-87606535D01*
X161764337Y-87706403D01*
X161992592Y-87767563D01*
X162163319Y-87782500D01*
X162227999Y-87788159D01*
X162228000Y-87788159D01*
X162228001Y-87788159D01*
X162292681Y-87782500D01*
X162463408Y-87767563D01*
X162691663Y-87706403D01*
X162905830Y-87606535D01*
X163099401Y-87470995D01*
X163266495Y-87303901D01*
X163396425Y-87118342D01*
X163451002Y-87074717D01*
X163520500Y-87067523D01*
X163582855Y-87099046D01*
X163599575Y-87118342D01*
X163729500Y-87303895D01*
X163729505Y-87303901D01*
X163896599Y-87470995D01*
X163973135Y-87524586D01*
X164090165Y-87606532D01*
X164090167Y-87606533D01*
X164090170Y-87606535D01*
X164304337Y-87706403D01*
X164532592Y-87767563D01*
X164703319Y-87782500D01*
X164767999Y-87788159D01*
X164768000Y-87788159D01*
X164768001Y-87788159D01*
X164832681Y-87782500D01*
X165003408Y-87767563D01*
X165231663Y-87706403D01*
X165445830Y-87606535D01*
X165639401Y-87470995D01*
X165806495Y-87303901D01*
X165936425Y-87118342D01*
X165991002Y-87074717D01*
X166060500Y-87067523D01*
X166122855Y-87099046D01*
X166139575Y-87118342D01*
X166269500Y-87303895D01*
X166269505Y-87303901D01*
X166436599Y-87470995D01*
X166513135Y-87524586D01*
X166630165Y-87606532D01*
X166630167Y-87606533D01*
X166630170Y-87606535D01*
X166844337Y-87706403D01*
X167072592Y-87767563D01*
X167243319Y-87782500D01*
X167307999Y-87788159D01*
X167308000Y-87788159D01*
X167308001Y-87788159D01*
X167372681Y-87782500D01*
X167543408Y-87767563D01*
X167771663Y-87706403D01*
X167985830Y-87606535D01*
X168179401Y-87470995D01*
X168301717Y-87348678D01*
X168363036Y-87315196D01*
X168432728Y-87320180D01*
X168488662Y-87362051D01*
X168505577Y-87393028D01*
X168554646Y-87524588D01*
X168554649Y-87524593D01*
X168640809Y-87639687D01*
X168640812Y-87639690D01*
X168755906Y-87725850D01*
X168755913Y-87725854D01*
X168890620Y-87776096D01*
X168890627Y-87776098D01*
X168950155Y-87782499D01*
X168950172Y-87782500D01*
X169598000Y-87782500D01*
X169598000Y-86865512D01*
X169655007Y-86898425D01*
X169782174Y-86932500D01*
X169913826Y-86932500D01*
X170040993Y-86898425D01*
X170098000Y-86865512D01*
X170098000Y-87782500D01*
X170745828Y-87782500D01*
X170745844Y-87782499D01*
X170805372Y-87776098D01*
X170805379Y-87776096D01*
X170940086Y-87725854D01*
X170940093Y-87725850D01*
X171055187Y-87639690D01*
X171055190Y-87639687D01*
X171141350Y-87524593D01*
X171141354Y-87524586D01*
X171191596Y-87389879D01*
X171191598Y-87389872D01*
X171197999Y-87330344D01*
X171198000Y-87330327D01*
X171198000Y-86682500D01*
X170281012Y-86682500D01*
X170313925Y-86625493D01*
X170348000Y-86498326D01*
X170348000Y-86366674D01*
X170313925Y-86239507D01*
X170281012Y-86182500D01*
X171198000Y-86182500D01*
X171198000Y-85818213D01*
X176625500Y-85818213D01*
X176625500Y-86030786D01*
X176658753Y-86240739D01*
X176724444Y-86442914D01*
X176820951Y-86632320D01*
X176945890Y-86804286D01*
X177096213Y-86954609D01*
X177268179Y-87079548D01*
X177268181Y-87079549D01*
X177268184Y-87079551D01*
X177457588Y-87176057D01*
X177659757Y-87241746D01*
X177869713Y-87275000D01*
X177869714Y-87275000D01*
X178082286Y-87275000D01*
X178082287Y-87275000D01*
X178292243Y-87241746D01*
X178494412Y-87176057D01*
X178683816Y-87079551D01*
X178705789Y-87063586D01*
X178855786Y-86954609D01*
X178855788Y-86954606D01*
X178855792Y-86954604D01*
X179006104Y-86804292D01*
X179006106Y-86804288D01*
X179006109Y-86804286D01*
X179131048Y-86632320D01*
X179131047Y-86632320D01*
X179131051Y-86632316D01*
X179227557Y-86442912D01*
X179293246Y-86240743D01*
X179326500Y-86030787D01*
X179326500Y-85818213D01*
X179293246Y-85608257D01*
X179227557Y-85406088D01*
X179131051Y-85216684D01*
X179131049Y-85216681D01*
X179131048Y-85216679D01*
X179006109Y-85044713D01*
X178855786Y-84894390D01*
X178683820Y-84769451D01*
X178494414Y-84672944D01*
X178494413Y-84672943D01*
X178494412Y-84672943D01*
X178292243Y-84607254D01*
X178292241Y-84607253D01*
X178292240Y-84607253D01*
X178130957Y-84581708D01*
X178082287Y-84574000D01*
X177869713Y-84574000D01*
X177821042Y-84581708D01*
X177659760Y-84607253D01*
X177457585Y-84672944D01*
X177268179Y-84769451D01*
X177096213Y-84894390D01*
X176945890Y-85044713D01*
X176820951Y-85216679D01*
X176724444Y-85406085D01*
X176658753Y-85608260D01*
X176625500Y-85818213D01*
X171198000Y-85818213D01*
X171198000Y-85534672D01*
X171197999Y-85534655D01*
X171191598Y-85475127D01*
X171191596Y-85475120D01*
X171141354Y-85340413D01*
X171141350Y-85340406D01*
X171055190Y-85225312D01*
X171055187Y-85225309D01*
X170940093Y-85139149D01*
X170940086Y-85139145D01*
X170805379Y-85088903D01*
X170805372Y-85088901D01*
X170745844Y-85082500D01*
X170098000Y-85082500D01*
X170098000Y-85999488D01*
X170040993Y-85966575D01*
X169913826Y-85932500D01*
X169782174Y-85932500D01*
X169655007Y-85966575D01*
X169598000Y-85999488D01*
X169598000Y-85082500D01*
X168950155Y-85082500D01*
X168890627Y-85088901D01*
X168890620Y-85088903D01*
X168755913Y-85139145D01*
X168755906Y-85139149D01*
X168640812Y-85225309D01*
X168640809Y-85225312D01*
X168554649Y-85340406D01*
X168554645Y-85340413D01*
X168505578Y-85471970D01*
X168463707Y-85527904D01*
X168398242Y-85552321D01*
X168329969Y-85537469D01*
X168301715Y-85516319D01*
X168257366Y-85471970D01*
X168179401Y-85394005D01*
X168179397Y-85394002D01*
X168179396Y-85394001D01*
X167985834Y-85258467D01*
X167985830Y-85258465D01*
X167914727Y-85225309D01*
X167771663Y-85158597D01*
X167771659Y-85158596D01*
X167771655Y-85158594D01*
X167543413Y-85097438D01*
X167543403Y-85097436D01*
X167308001Y-85076841D01*
X167307999Y-85076841D01*
X167072596Y-85097436D01*
X167072586Y-85097438D01*
X166844344Y-85158594D01*
X166844335Y-85158598D01*
X166630171Y-85258464D01*
X166630169Y-85258465D01*
X166436597Y-85394005D01*
X166269505Y-85561097D01*
X166139575Y-85746658D01*
X166084998Y-85790283D01*
X166015500Y-85797477D01*
X165953145Y-85765954D01*
X165936425Y-85746658D01*
X165806494Y-85561097D01*
X165639402Y-85394006D01*
X165639395Y-85394001D01*
X165445834Y-85258467D01*
X165445830Y-85258465D01*
X165374727Y-85225309D01*
X165231663Y-85158597D01*
X165231659Y-85158596D01*
X165231655Y-85158594D01*
X165003413Y-85097438D01*
X165003403Y-85097436D01*
X164768001Y-85076841D01*
X164767999Y-85076841D01*
X164532596Y-85097436D01*
X164532586Y-85097438D01*
X164304344Y-85158594D01*
X164304335Y-85158598D01*
X164090171Y-85258464D01*
X164090169Y-85258465D01*
X163896597Y-85394005D01*
X163729505Y-85561097D01*
X163599575Y-85746658D01*
X163544998Y-85790283D01*
X163475500Y-85797477D01*
X163413145Y-85765954D01*
X163396425Y-85746658D01*
X163266494Y-85561097D01*
X163099402Y-85394006D01*
X163099395Y-85394001D01*
X162905834Y-85258467D01*
X162905830Y-85258465D01*
X162834727Y-85225309D01*
X162691663Y-85158597D01*
X162691659Y-85158596D01*
X162691655Y-85158594D01*
X162463413Y-85097438D01*
X162463403Y-85097436D01*
X162228001Y-85076841D01*
X162227999Y-85076841D01*
X161992596Y-85097436D01*
X161992586Y-85097438D01*
X161764344Y-85158594D01*
X161764335Y-85158598D01*
X161550171Y-85258464D01*
X161550169Y-85258465D01*
X161356597Y-85394005D01*
X161189505Y-85561097D01*
X161059575Y-85746658D01*
X161004998Y-85790283D01*
X160935500Y-85797477D01*
X160873145Y-85765954D01*
X160856425Y-85746658D01*
X160726494Y-85561097D01*
X160559402Y-85394006D01*
X160559395Y-85394001D01*
X160365834Y-85258467D01*
X160365830Y-85258465D01*
X160294727Y-85225309D01*
X160151663Y-85158597D01*
X160151659Y-85158596D01*
X160151655Y-85158594D01*
X159923413Y-85097438D01*
X159923403Y-85097436D01*
X159688001Y-85076841D01*
X159687999Y-85076841D01*
X159452596Y-85097436D01*
X159452586Y-85097438D01*
X159224344Y-85158594D01*
X159224335Y-85158598D01*
X159010171Y-85258464D01*
X159010169Y-85258465D01*
X158816597Y-85394005D01*
X158649505Y-85561097D01*
X158519575Y-85746658D01*
X158464998Y-85790283D01*
X158395500Y-85797477D01*
X158333145Y-85765954D01*
X158316425Y-85746658D01*
X158186494Y-85561097D01*
X158019402Y-85394006D01*
X158019395Y-85394001D01*
X157825834Y-85258467D01*
X157825830Y-85258465D01*
X157754727Y-85225309D01*
X157611663Y-85158597D01*
X157611659Y-85158596D01*
X157611655Y-85158594D01*
X157383413Y-85097438D01*
X157383403Y-85097436D01*
X157148001Y-85076841D01*
X157147999Y-85076841D01*
X156912596Y-85097436D01*
X156912586Y-85097438D01*
X156684344Y-85158594D01*
X156684335Y-85158598D01*
X156470171Y-85258464D01*
X156470169Y-85258465D01*
X156276597Y-85394005D01*
X156109505Y-85561097D01*
X155979575Y-85746658D01*
X155924998Y-85790283D01*
X155855500Y-85797477D01*
X155793145Y-85765954D01*
X155776425Y-85746658D01*
X155646494Y-85561097D01*
X155479402Y-85394006D01*
X155479395Y-85394001D01*
X155285834Y-85258467D01*
X155285830Y-85258465D01*
X155214727Y-85225309D01*
X155071663Y-85158597D01*
X155071659Y-85158596D01*
X155071655Y-85158594D01*
X154843413Y-85097438D01*
X154843403Y-85097436D01*
X154608001Y-85076841D01*
X154607999Y-85076841D01*
X154372596Y-85097436D01*
X154372586Y-85097438D01*
X154144344Y-85158594D01*
X154144335Y-85158598D01*
X153930171Y-85258464D01*
X153930169Y-85258465D01*
X153736597Y-85394005D01*
X153569505Y-85561097D01*
X153439575Y-85746658D01*
X153384998Y-85790283D01*
X153315500Y-85797477D01*
X153253145Y-85765954D01*
X153236425Y-85746658D01*
X153106494Y-85561097D01*
X152939402Y-85394006D01*
X152939395Y-85394001D01*
X152745834Y-85258467D01*
X152745830Y-85258465D01*
X152674727Y-85225309D01*
X152531663Y-85158597D01*
X152531659Y-85158596D01*
X152531655Y-85158594D01*
X152303413Y-85097438D01*
X152303403Y-85097436D01*
X152068001Y-85076841D01*
X152067999Y-85076841D01*
X151832596Y-85097436D01*
X151832586Y-85097438D01*
X151604344Y-85158594D01*
X151604335Y-85158598D01*
X151390171Y-85258464D01*
X151390169Y-85258465D01*
X151196597Y-85394005D01*
X151029505Y-85561097D01*
X150899575Y-85746658D01*
X150844998Y-85790283D01*
X150775500Y-85797477D01*
X150713145Y-85765954D01*
X150696425Y-85746658D01*
X150566494Y-85561097D01*
X150399402Y-85394006D01*
X150399395Y-85394001D01*
X150205834Y-85258467D01*
X150205830Y-85258465D01*
X150134727Y-85225309D01*
X149991663Y-85158597D01*
X149991659Y-85158596D01*
X149991655Y-85158594D01*
X149763413Y-85097438D01*
X149763403Y-85097436D01*
X149528001Y-85076841D01*
X149527999Y-85076841D01*
X149292596Y-85097436D01*
X149292586Y-85097438D01*
X149064344Y-85158594D01*
X149064335Y-85158598D01*
X148850171Y-85258464D01*
X148850169Y-85258465D01*
X148656597Y-85394005D01*
X148489505Y-85561097D01*
X148359575Y-85746658D01*
X148304998Y-85790283D01*
X148235500Y-85797477D01*
X148173145Y-85765954D01*
X148156425Y-85746658D01*
X148026494Y-85561097D01*
X147859402Y-85394006D01*
X147859395Y-85394001D01*
X147665834Y-85258467D01*
X147665830Y-85258465D01*
X147594727Y-85225309D01*
X147451663Y-85158597D01*
X147451659Y-85158596D01*
X147451655Y-85158594D01*
X147223413Y-85097438D01*
X147223403Y-85097436D01*
X146988001Y-85076841D01*
X146987999Y-85076841D01*
X146752596Y-85097436D01*
X146752586Y-85097438D01*
X146524344Y-85158594D01*
X146524335Y-85158598D01*
X146310171Y-85258464D01*
X146310169Y-85258465D01*
X146116597Y-85394005D01*
X145949505Y-85561097D01*
X145819575Y-85746658D01*
X145764998Y-85790283D01*
X145695500Y-85797477D01*
X145633145Y-85765954D01*
X145616425Y-85746658D01*
X145486494Y-85561097D01*
X145319402Y-85394006D01*
X145319395Y-85394001D01*
X145125834Y-85258467D01*
X145125830Y-85258465D01*
X145054727Y-85225309D01*
X144911663Y-85158597D01*
X144911659Y-85158596D01*
X144911655Y-85158594D01*
X144683413Y-85097438D01*
X144683403Y-85097436D01*
X144448001Y-85076841D01*
X144447999Y-85076841D01*
X144212596Y-85097436D01*
X144212586Y-85097438D01*
X143984344Y-85158594D01*
X143984335Y-85158598D01*
X143770171Y-85258464D01*
X143770169Y-85258465D01*
X143576597Y-85394005D01*
X143409505Y-85561097D01*
X143279575Y-85746658D01*
X143224998Y-85790283D01*
X143155500Y-85797477D01*
X143093145Y-85765954D01*
X143076425Y-85746658D01*
X142946494Y-85561097D01*
X142779402Y-85394006D01*
X142779395Y-85394001D01*
X142585834Y-85258467D01*
X142585830Y-85258465D01*
X142514727Y-85225309D01*
X142371663Y-85158597D01*
X142371659Y-85158596D01*
X142371655Y-85158594D01*
X142143413Y-85097438D01*
X142143403Y-85097436D01*
X141908001Y-85076841D01*
X141907999Y-85076841D01*
X141672596Y-85097436D01*
X141672586Y-85097438D01*
X141444344Y-85158594D01*
X141444335Y-85158598D01*
X141230171Y-85258464D01*
X141230169Y-85258465D01*
X141036597Y-85394005D01*
X140869505Y-85561097D01*
X140739575Y-85746658D01*
X140684998Y-85790283D01*
X140615500Y-85797477D01*
X140553145Y-85765954D01*
X140536425Y-85746658D01*
X140406494Y-85561097D01*
X140239402Y-85394006D01*
X140239395Y-85394001D01*
X140045834Y-85258467D01*
X140045830Y-85258465D01*
X139974727Y-85225309D01*
X139831663Y-85158597D01*
X139831659Y-85158596D01*
X139831655Y-85158594D01*
X139603413Y-85097438D01*
X139603403Y-85097436D01*
X139368001Y-85076841D01*
X139367999Y-85076841D01*
X139132596Y-85097436D01*
X139132586Y-85097438D01*
X138904344Y-85158594D01*
X138904335Y-85158598D01*
X138690171Y-85258464D01*
X138690169Y-85258465D01*
X138496597Y-85394005D01*
X138329505Y-85561097D01*
X138199575Y-85746658D01*
X138144998Y-85790283D01*
X138075500Y-85797477D01*
X138013145Y-85765954D01*
X137996425Y-85746658D01*
X137866494Y-85561097D01*
X137699402Y-85394006D01*
X137699395Y-85394001D01*
X137505834Y-85258467D01*
X137505830Y-85258465D01*
X137434727Y-85225309D01*
X137291663Y-85158597D01*
X137291659Y-85158596D01*
X137291655Y-85158594D01*
X137063413Y-85097438D01*
X137063403Y-85097436D01*
X136828001Y-85076841D01*
X136827999Y-85076841D01*
X136592596Y-85097436D01*
X136592586Y-85097438D01*
X136364344Y-85158594D01*
X136364335Y-85158598D01*
X136150171Y-85258464D01*
X136150169Y-85258465D01*
X135956597Y-85394005D01*
X135789505Y-85561097D01*
X135659575Y-85746658D01*
X135604998Y-85790283D01*
X135535500Y-85797477D01*
X135473145Y-85765954D01*
X135456425Y-85746658D01*
X135326494Y-85561097D01*
X135159402Y-85394006D01*
X135159395Y-85394001D01*
X134965834Y-85258467D01*
X134965830Y-85258465D01*
X134894727Y-85225309D01*
X134751663Y-85158597D01*
X134751659Y-85158596D01*
X134751655Y-85158594D01*
X134523413Y-85097438D01*
X134523403Y-85097436D01*
X134288001Y-85076841D01*
X134287999Y-85076841D01*
X134052596Y-85097436D01*
X134052586Y-85097438D01*
X133824344Y-85158594D01*
X133824335Y-85158598D01*
X133610171Y-85258464D01*
X133610169Y-85258465D01*
X133416597Y-85394005D01*
X133249505Y-85561097D01*
X133119575Y-85746658D01*
X133064998Y-85790283D01*
X132995500Y-85797477D01*
X132933145Y-85765954D01*
X132916425Y-85746658D01*
X132786494Y-85561097D01*
X132619404Y-85394008D01*
X132619402Y-85394006D01*
X132619401Y-85394005D01*
X132619396Y-85394001D01*
X132619393Y-85393999D01*
X132501376Y-85311361D01*
X132457751Y-85256784D01*
X132448500Y-85209787D01*
X132448500Y-84742019D01*
X132468185Y-84674980D01*
X132484819Y-84654338D01*
X137372112Y-79767045D01*
X137372114Y-79767043D01*
X137448775Y-79652311D01*
X137461281Y-79622120D01*
X137501578Y-79524832D01*
X137501580Y-79524828D01*
X137512938Y-79467727D01*
X137528500Y-79389496D01*
X137528500Y-77205993D01*
X137547508Y-77140019D01*
X137553787Y-77130025D01*
X137553786Y-77130025D01*
X137553789Y-77130022D01*
X137613368Y-76959755D01*
X137633565Y-76780500D01*
X137631030Y-76758005D01*
X137613369Y-76601250D01*
X137613368Y-76601245D01*
X137553788Y-76430976D01*
X137457815Y-76278237D01*
X137330262Y-76150684D01*
X137177523Y-76054711D01*
X137007254Y-75995131D01*
X137007249Y-75995130D01*
X136828004Y-75974935D01*
X136827996Y-75974935D01*
X136648750Y-75995130D01*
X136648745Y-75995131D01*
X136478476Y-76054711D01*
X136325739Y-76150683D01*
X136234914Y-76241508D01*
X136173590Y-76274992D01*
X136103899Y-76270008D01*
X136047965Y-76228136D01*
X136023549Y-76162671D01*
X136030191Y-76112872D01*
X136039838Y-76085302D01*
X136066008Y-76010511D01*
X136095366Y-75963789D01*
X137081837Y-74977319D01*
X137143160Y-74943834D01*
X137169518Y-74941000D01*
X143006506Y-74941000D01*
X143072477Y-74960006D01*
X143082474Y-74966287D01*
X143082475Y-74966287D01*
X143082478Y-74966289D01*
X143252745Y-75025868D01*
X143252750Y-75025869D01*
X143431996Y-75046065D01*
X143432000Y-75046065D01*
X143432004Y-75046065D01*
X143611249Y-75025869D01*
X143611252Y-75025868D01*
X143611255Y-75025868D01*
X143781522Y-74966289D01*
X143934262Y-74870316D01*
X144061816Y-74742762D01*
X144157789Y-74590022D01*
X144217368Y-74419755D01*
X144237565Y-74240500D01*
X144220425Y-74088380D01*
X144217369Y-74061250D01*
X144217368Y-74061245D01*
X144157788Y-73890976D01*
X144061815Y-73738237D01*
X143934262Y-73610684D01*
X143781523Y-73514711D01*
X143611254Y-73455131D01*
X143611249Y-73455130D01*
X143432004Y-73434935D01*
X143431996Y-73434935D01*
X143252750Y-73455130D01*
X143252745Y-73455131D01*
X143082474Y-73514712D01*
X143072477Y-73520994D01*
X143006506Y-73540000D01*
X136759003Y-73540000D01*
X136650590Y-73561565D01*
X136650589Y-73561565D01*
X136634379Y-73564789D01*
X136623669Y-73566920D01*
X136606528Y-73574021D01*
X136606526Y-73574022D01*
X136496191Y-73619723D01*
X136419387Y-73671043D01*
X136419386Y-73671044D01*
X136381454Y-73696388D01*
X136381453Y-73696389D01*
X135104710Y-74973131D01*
X135057985Y-75002491D01*
X134954476Y-75038711D01*
X134954475Y-75038712D01*
X134801737Y-75134684D01*
X134674184Y-75262237D01*
X134578211Y-75414976D01*
X134518631Y-75585245D01*
X134518630Y-75585250D01*
X134498435Y-75764496D01*
X134498435Y-75764503D01*
X134518630Y-75943749D01*
X134518631Y-75943754D01*
X134578211Y-76114023D01*
X134658316Y-76241508D01*
X134674184Y-76266762D01*
X134801738Y-76394316D01*
X134801740Y-76394317D01*
X134936823Y-76479196D01*
X134954478Y-76490289D01*
X135046809Y-76522597D01*
X135124745Y-76549868D01*
X135124750Y-76549869D01*
X135303996Y-76570065D01*
X135304000Y-76570065D01*
X135304004Y-76570065D01*
X135483249Y-76549869D01*
X135483252Y-76549868D01*
X135483255Y-76549868D01*
X135653522Y-76490289D01*
X135806262Y-76394316D01*
X135897088Y-76303489D01*
X135958407Y-76270007D01*
X136028099Y-76274991D01*
X136084033Y-76316862D01*
X136108450Y-76382326D01*
X136101808Y-76432127D01*
X136042632Y-76601242D01*
X136042630Y-76601250D01*
X136022435Y-76780496D01*
X136022435Y-76780503D01*
X136042630Y-76959749D01*
X136042631Y-76959754D01*
X136102212Y-77130025D01*
X136108492Y-77140019D01*
X136127500Y-77205993D01*
X136127500Y-78978980D01*
X136107815Y-79046019D01*
X136091181Y-79066661D01*
X131203888Y-83953953D01*
X131203887Y-83953954D01*
X131127222Y-84068692D01*
X131074421Y-84196167D01*
X131074418Y-84196177D01*
X131047500Y-84331504D01*
X131047500Y-85209788D01*
X131027815Y-85276827D01*
X130994624Y-85311363D01*
X130876594Y-85394008D01*
X130709505Y-85561097D01*
X130579575Y-85746658D01*
X130524998Y-85790283D01*
X130455500Y-85797477D01*
X130393145Y-85765954D01*
X130376425Y-85746658D01*
X130246494Y-85561097D01*
X130079402Y-85394006D01*
X130079395Y-85394001D01*
X129885834Y-85258467D01*
X129885830Y-85258465D01*
X129814727Y-85225309D01*
X129671663Y-85158597D01*
X129671659Y-85158596D01*
X129671655Y-85158594D01*
X129443413Y-85097438D01*
X129443403Y-85097436D01*
X129208001Y-85076841D01*
X129207999Y-85076841D01*
X128972596Y-85097436D01*
X128972586Y-85097438D01*
X128744344Y-85158594D01*
X128744335Y-85158598D01*
X128530171Y-85258464D01*
X128530169Y-85258465D01*
X128336597Y-85394005D01*
X128169505Y-85561097D01*
X128039575Y-85746658D01*
X127984998Y-85790283D01*
X127915500Y-85797477D01*
X127853145Y-85765954D01*
X127836425Y-85746658D01*
X127706494Y-85561097D01*
X127539402Y-85394006D01*
X127539395Y-85394001D01*
X127345834Y-85258467D01*
X127345830Y-85258465D01*
X127274727Y-85225309D01*
X127131663Y-85158597D01*
X127131659Y-85158596D01*
X127131655Y-85158594D01*
X126903413Y-85097438D01*
X126903403Y-85097436D01*
X126668001Y-85076841D01*
X126667999Y-85076841D01*
X126432596Y-85097436D01*
X126432586Y-85097438D01*
X126204344Y-85158594D01*
X126204335Y-85158598D01*
X125990171Y-85258464D01*
X125990169Y-85258465D01*
X125796597Y-85394005D01*
X125629505Y-85561097D01*
X125493965Y-85754669D01*
X125493964Y-85754671D01*
X125394098Y-85968835D01*
X125394094Y-85968844D01*
X125332938Y-86197086D01*
X125332936Y-86197096D01*
X125312341Y-86432499D01*
X120302940Y-86432499D01*
X120365246Y-86240743D01*
X120398500Y-86030787D01*
X120398500Y-85818213D01*
X120365246Y-85608257D01*
X120299557Y-85406088D01*
X120203051Y-85216684D01*
X120203049Y-85216681D01*
X120203048Y-85216679D01*
X120078109Y-85044713D01*
X119927786Y-84894390D01*
X119755820Y-84769451D01*
X119566414Y-84672944D01*
X119566413Y-84672943D01*
X119566412Y-84672943D01*
X119364243Y-84607254D01*
X119364241Y-84607253D01*
X119364240Y-84607253D01*
X119202957Y-84581708D01*
X119154287Y-84574000D01*
X118941713Y-84574000D01*
X118893042Y-84581708D01*
X118731760Y-84607253D01*
X118529585Y-84672944D01*
X118340179Y-84769451D01*
X118168213Y-84894390D01*
X118017890Y-85044713D01*
X117892951Y-85216679D01*
X117796444Y-85406085D01*
X117730753Y-85608260D01*
X117697500Y-85818213D01*
X116508000Y-85818213D01*
X116508000Y-79622118D01*
X125871034Y-79622118D01*
X125871034Y-79622123D01*
X125890858Y-79848720D01*
X125890860Y-79848731D01*
X125949730Y-80068438D01*
X125949735Y-80068452D01*
X126045863Y-80274599D01*
X126096974Y-80347593D01*
X126776000Y-79668567D01*
X126776000Y-79674782D01*
X126803259Y-79776515D01*
X126855920Y-79867727D01*
X126930394Y-79942201D01*
X127021606Y-79994862D01*
X127123339Y-80022121D01*
X127129553Y-80022121D01*
X126450526Y-80701146D01*
X126523513Y-80752253D01*
X126523521Y-80752257D01*
X126729668Y-80848385D01*
X126729682Y-80848390D01*
X126949389Y-80907260D01*
X126949400Y-80907262D01*
X127175998Y-80927087D01*
X127176002Y-80927087D01*
X127402599Y-80907262D01*
X127402610Y-80907260D01*
X127622317Y-80848390D01*
X127622331Y-80848385D01*
X127828478Y-80752257D01*
X127901471Y-80701145D01*
X127222447Y-80022121D01*
X127228661Y-80022121D01*
X127330394Y-79994862D01*
X127421606Y-79942201D01*
X127496080Y-79867727D01*
X127548741Y-79776515D01*
X127576000Y-79674782D01*
X127576000Y-79668568D01*
X128255024Y-80347592D01*
X128306136Y-80274599D01*
X128402264Y-80068452D01*
X128402269Y-80068438D01*
X128461139Y-79848731D01*
X128461141Y-79848720D01*
X128480966Y-79622123D01*
X128480966Y-79622118D01*
X128461141Y-79395521D01*
X128461139Y-79395510D01*
X128402269Y-79175803D01*
X128402264Y-79175789D01*
X128306136Y-78969642D01*
X128306132Y-78969634D01*
X128255025Y-78896647D01*
X127576000Y-79575672D01*
X127576000Y-79569460D01*
X127548741Y-79467727D01*
X127496080Y-79376515D01*
X127421606Y-79302041D01*
X127330394Y-79249380D01*
X127228661Y-79222121D01*
X127222448Y-79222121D01*
X127906645Y-78537922D01*
X127916492Y-78488928D01*
X127965107Y-78438745D01*
X128020633Y-78424102D01*
X128020576Y-78423021D01*
X128020571Y-78422975D01*
X128020573Y-78422974D01*
X128020564Y-78422797D01*
X128023857Y-78422620D01*
X128023872Y-78422620D01*
X128083483Y-78416212D01*
X128218331Y-78365917D01*
X128333546Y-78279667D01*
X128413914Y-78172309D01*
X128469847Y-78130439D01*
X128513180Y-78122621D01*
X130996921Y-78122621D01*
X131016249Y-78118776D01*
X131093567Y-78103396D01*
X131190215Y-78084172D01*
X131243544Y-78062082D01*
X131372293Y-78008753D01*
X131536161Y-77899260D01*
X131675518Y-77759903D01*
X131675518Y-77759901D01*
X131685726Y-77749694D01*
X131685727Y-77749691D01*
X137734924Y-71700496D01*
X138562435Y-71700496D01*
X138562435Y-71700503D01*
X138582630Y-71879749D01*
X138582631Y-71879754D01*
X138642211Y-72050023D01*
X138738184Y-72202762D01*
X138865738Y-72330316D01*
X138956080Y-72387082D01*
X139018474Y-72426287D01*
X139018478Y-72426289D01*
X139175079Y-72481086D01*
X139188745Y-72485868D01*
X139188750Y-72485869D01*
X139367996Y-72506065D01*
X139368000Y-72506065D01*
X139368004Y-72506065D01*
X139547249Y-72485869D01*
X139547252Y-72485868D01*
X139547255Y-72485868D01*
X139717522Y-72426289D01*
X139718488Y-72425681D01*
X139727523Y-72420006D01*
X139793494Y-72401000D01*
X145630481Y-72401000D01*
X145697520Y-72420685D01*
X145718162Y-72437319D01*
X146704631Y-73423787D01*
X146733991Y-73470513D01*
X146758306Y-73540000D01*
X146770211Y-73574022D01*
X146866184Y-73726762D01*
X146993738Y-73854316D01*
X147146478Y-73950289D01*
X147315136Y-74009305D01*
X147316745Y-74009868D01*
X147316750Y-74009869D01*
X147495996Y-74030065D01*
X147496000Y-74030065D01*
X147496004Y-74030065D01*
X147675249Y-74009869D01*
X147675252Y-74009868D01*
X147675255Y-74009868D01*
X147845522Y-73950289D01*
X147998262Y-73854316D01*
X148125816Y-73726762D01*
X148221789Y-73574022D01*
X148281368Y-73403755D01*
X148281369Y-73403749D01*
X148301565Y-73224503D01*
X148301565Y-73224496D01*
X148281369Y-73045250D01*
X148281368Y-73045245D01*
X148221788Y-72874976D01*
X148125815Y-72722237D01*
X147998262Y-72594684D01*
X147845524Y-72498712D01*
X147845520Y-72498710D01*
X147742013Y-72462491D01*
X147695287Y-72433131D01*
X146418546Y-71156388D01*
X146418545Y-71156387D01*
X146303807Y-71079722D01*
X146176332Y-71026921D01*
X146176322Y-71026918D01*
X146040996Y-71000000D01*
X146040994Y-71000000D01*
X146040993Y-71000000D01*
X139793494Y-71000000D01*
X139727523Y-70980994D01*
X139717525Y-70974712D01*
X139547254Y-70915131D01*
X139547249Y-70915130D01*
X139368004Y-70894935D01*
X139367996Y-70894935D01*
X139188750Y-70915130D01*
X139188745Y-70915131D01*
X139018476Y-70974711D01*
X138865737Y-71070684D01*
X138738184Y-71198237D01*
X138642211Y-71350976D01*
X138582631Y-71521245D01*
X138582630Y-71521250D01*
X138562435Y-71700496D01*
X137734924Y-71700496D01*
X140685102Y-68750319D01*
X140746425Y-68716834D01*
X140772783Y-68714000D01*
X141254539Y-68714000D01*
X141319633Y-68732460D01*
X141446666Y-68810814D01*
X141613203Y-68865999D01*
X141715991Y-68876500D01*
X143116008Y-68876499D01*
X143218797Y-68865999D01*
X143385334Y-68810814D01*
X143534656Y-68718712D01*
X143658712Y-68594656D01*
X143750814Y-68445334D01*
X143756249Y-68428929D01*
X143796021Y-68371486D01*
X143860536Y-68344662D01*
X143929312Y-68356976D01*
X143980513Y-68404519D01*
X143992616Y-68431939D01*
X143993951Y-68436341D01*
X144069364Y-68618407D01*
X144069371Y-68618420D01*
X144178860Y-68782281D01*
X144178863Y-68782285D01*
X144318214Y-68921636D01*
X144318218Y-68921639D01*
X144482079Y-69031128D01*
X144482092Y-69031135D01*
X144664160Y-69106549D01*
X144664165Y-69106551D01*
X144664169Y-69106551D01*
X144664170Y-69106552D01*
X144857456Y-69145000D01*
X144857459Y-69145000D01*
X145054543Y-69145000D01*
X145187849Y-69118483D01*
X145247835Y-69106551D01*
X145429914Y-69031132D01*
X145593782Y-68921639D01*
X145733139Y-68782282D01*
X145842632Y-68618414D01*
X145918051Y-68436335D01*
X145950287Y-68274276D01*
X145956500Y-68243043D01*
X145956500Y-68045955D01*
X146495500Y-68045955D01*
X146495500Y-68243044D01*
X146533947Y-68436328D01*
X146533949Y-68436336D01*
X146609367Y-68618410D01*
X146609372Y-68618420D01*
X146718860Y-68782280D01*
X146718863Y-68782284D01*
X146858215Y-68921636D01*
X146858219Y-68921639D01*
X147022079Y-69031127D01*
X147022083Y-69031129D01*
X147022086Y-69031131D01*
X147204164Y-69106551D01*
X147397455Y-69144999D01*
X147397458Y-69145000D01*
X147397460Y-69145000D01*
X147594542Y-69145000D01*
X147594543Y-69144999D01*
X147787836Y-69106551D01*
X147969914Y-69031131D01*
X148133781Y-68921639D01*
X148781139Y-68274282D01*
X148781140Y-68274281D01*
X148890632Y-68110414D01*
X148906415Y-68072308D01*
X148950253Y-68017908D01*
X149016547Y-67995842D01*
X149084246Y-68013120D01*
X149131858Y-68064256D01*
X149144333Y-68107161D01*
X149154001Y-68201797D01*
X149154001Y-68201799D01*
X149178020Y-68274282D01*
X149209186Y-68368334D01*
X149301288Y-68517656D01*
X149425344Y-68641712D01*
X149574666Y-68733814D01*
X149741203Y-68788999D01*
X149843991Y-68799500D01*
X151244008Y-68799499D01*
X151346797Y-68788999D01*
X151513334Y-68733814D01*
X151662656Y-68641712D01*
X151786712Y-68517656D01*
X151878814Y-68368334D01*
X151933999Y-68201797D01*
X151944500Y-68099009D01*
X151944499Y-67173992D01*
X151938043Y-67110796D01*
X151933999Y-67071203D01*
X151933998Y-67071200D01*
X151913061Y-67008016D01*
X151878814Y-66904666D01*
X151786712Y-66755344D01*
X151662656Y-66631288D01*
X151531677Y-66550500D01*
X151513336Y-66539187D01*
X151513331Y-66539185D01*
X151453349Y-66519309D01*
X151346797Y-66484001D01*
X151346795Y-66484000D01*
X151244016Y-66473500D01*
X151244009Y-66473500D01*
X150847282Y-66473500D01*
X150780243Y-66453815D01*
X150759601Y-66437181D01*
X150309479Y-65987059D01*
X150309459Y-65987037D01*
X150208102Y-65885680D01*
X150174617Y-65824357D01*
X150179601Y-65754665D01*
X150221473Y-65698732D01*
X150286937Y-65674315D01*
X150293933Y-65674065D01*
X150294000Y-65673999D01*
X150794000Y-65673999D01*
X151243972Y-65673999D01*
X151243986Y-65673998D01*
X151346697Y-65663505D01*
X151513119Y-65608358D01*
X151513124Y-65608356D01*
X151662345Y-65516315D01*
X151786315Y-65392345D01*
X151878356Y-65243124D01*
X151878358Y-65243119D01*
X151933505Y-65076697D01*
X151933506Y-65076690D01*
X151943999Y-64973986D01*
X151944000Y-64973973D01*
X151944000Y-64761500D01*
X150794000Y-64761500D01*
X150794000Y-65673999D01*
X150294000Y-65673999D01*
X150294000Y-64761500D01*
X149270072Y-64761500D01*
X149212996Y-64792666D01*
X149186638Y-64795500D01*
X146779001Y-64795500D01*
X146779001Y-64932986D01*
X146789494Y-65035697D01*
X146844641Y-65202119D01*
X146844643Y-65202124D01*
X146936684Y-65351345D01*
X147060655Y-65475316D01*
X147060659Y-65475319D01*
X147063656Y-65477168D01*
X147065279Y-65478972D01*
X147066323Y-65479798D01*
X147066181Y-65479976D01*
X147110381Y-65529116D01*
X147121602Y-65598079D01*
X147093759Y-65662161D01*
X147063661Y-65688241D01*
X147060349Y-65690283D01*
X147060343Y-65690288D01*
X146936289Y-65814342D01*
X146844187Y-65963663D01*
X146844185Y-65963668D01*
X146836434Y-65987059D01*
X146789001Y-66130203D01*
X146789001Y-66130204D01*
X146789000Y-66130204D01*
X146778500Y-66232983D01*
X146778500Y-67008001D01*
X146778501Y-67008019D01*
X146789000Y-67110796D01*
X146789001Y-67110799D01*
X146846027Y-67282890D01*
X146848429Y-67352718D01*
X146816004Y-67409574D01*
X146718858Y-67506722D01*
X146609372Y-67670579D01*
X146609367Y-67670589D01*
X146533949Y-67852663D01*
X146533947Y-67852671D01*
X146495500Y-68045955D01*
X145956500Y-68045955D01*
X145956500Y-67545230D01*
X145976185Y-67478191D01*
X145992819Y-67457549D01*
X146023712Y-67426656D01*
X146115814Y-67277334D01*
X146170999Y-67110797D01*
X146181500Y-67008009D01*
X146181499Y-66232992D01*
X146170999Y-66130203D01*
X146115814Y-65963666D01*
X146023712Y-65814344D01*
X145899656Y-65690288D01*
X145896342Y-65688243D01*
X145894546Y-65686248D01*
X145893989Y-65685807D01*
X145894064Y-65685711D01*
X145849618Y-65636297D01*
X145838397Y-65567334D01*
X145866240Y-65503252D01*
X145896348Y-65477165D01*
X145899342Y-65475318D01*
X146023315Y-65351345D01*
X146115356Y-65202124D01*
X146115358Y-65202119D01*
X146170505Y-65035697D01*
X146170506Y-65035690D01*
X146180999Y-64932986D01*
X146181000Y-64932973D01*
X146181000Y-64795500D01*
X143859000Y-64795500D01*
X143852319Y-64802181D01*
X143790996Y-64835666D01*
X143764638Y-64838500D01*
X142666000Y-64838500D01*
X142666000Y-65750999D01*
X142666741Y-65751740D01*
X142731256Y-65770684D01*
X142777011Y-65823488D01*
X142786955Y-65892646D01*
X142757930Y-65956202D01*
X142751898Y-65962680D01*
X142200396Y-66514181D01*
X142139073Y-66547666D01*
X142112715Y-66550500D01*
X141715998Y-66550500D01*
X141715980Y-66550501D01*
X141613203Y-66561000D01*
X141613200Y-66561001D01*
X141446668Y-66616185D01*
X141446663Y-66616187D01*
X141378484Y-66658240D01*
X141319633Y-66694539D01*
X141254539Y-66713000D01*
X140208456Y-66713000D01*
X140015171Y-66751447D01*
X140015163Y-66751449D01*
X139942407Y-66781586D01*
X139942406Y-66781586D01*
X139833092Y-66826864D01*
X139833079Y-66826871D01*
X139705174Y-66912336D01*
X139705173Y-66912337D01*
X139669215Y-66936362D01*
X139669214Y-66936363D01*
X130520278Y-76085302D01*
X130458955Y-76118787D01*
X130432597Y-76121621D01*
X128513180Y-76121621D01*
X128446141Y-76101936D01*
X128413913Y-76071932D01*
X128333546Y-75964575D01*
X128305726Y-75943749D01*
X128218335Y-75878327D01*
X128218328Y-75878323D01*
X128083482Y-75828029D01*
X128083483Y-75828029D01*
X128023883Y-75821622D01*
X128023881Y-75821621D01*
X128023873Y-75821621D01*
X128023864Y-75821621D01*
X126328129Y-75821621D01*
X126328123Y-75821622D01*
X126268516Y-75828029D01*
X126133671Y-75878323D01*
X126133664Y-75878327D01*
X126018455Y-75964573D01*
X126018452Y-75964576D01*
X125932206Y-76079785D01*
X125932202Y-76079792D01*
X125881908Y-76214638D01*
X125875501Y-76274237D01*
X125875500Y-76274256D01*
X125875500Y-77969991D01*
X125875501Y-77969997D01*
X125881908Y-78029604D01*
X125932202Y-78164449D01*
X125932206Y-78164456D01*
X126018452Y-78279665D01*
X126018455Y-78279668D01*
X126133664Y-78365914D01*
X126133671Y-78365918D01*
X126178618Y-78382682D01*
X126268517Y-78416212D01*
X126328127Y-78422621D01*
X126328153Y-78422620D01*
X126331453Y-78422799D01*
X126331372Y-78424304D01*
X126392672Y-78442233D01*
X126438483Y-78494988D01*
X126446016Y-78538585D01*
X127129553Y-79222121D01*
X127123339Y-79222121D01*
X127021606Y-79249380D01*
X126930394Y-79302041D01*
X126855920Y-79376515D01*
X126803259Y-79467727D01*
X126776000Y-79569460D01*
X126776000Y-79575673D01*
X126096974Y-78896647D01*
X126096973Y-78896647D01*
X126045868Y-78969633D01*
X126045866Y-78969637D01*
X125949734Y-79175794D01*
X125949730Y-79175803D01*
X125890860Y-79395510D01*
X125890858Y-79395521D01*
X125871034Y-79622118D01*
X116508000Y-79622118D01*
X116508000Y-72716499D01*
X117184341Y-72716499D01*
X117184341Y-72716500D01*
X117204936Y-72951903D01*
X117204938Y-72951913D01*
X117266094Y-73180155D01*
X117266096Y-73180159D01*
X117266097Y-73180163D01*
X117365965Y-73394330D01*
X117365967Y-73394334D01*
X117408538Y-73455131D01*
X117491785Y-73574020D01*
X117501501Y-73587895D01*
X117501506Y-73587902D01*
X117668597Y-73754993D01*
X117668603Y-73754998D01*
X117854594Y-73885230D01*
X117898219Y-73939807D01*
X117905413Y-74009305D01*
X117873890Y-74071660D01*
X117854595Y-74088380D01*
X117668922Y-74218390D01*
X117668920Y-74218391D01*
X117501891Y-74385420D01*
X117501886Y-74385426D01*
X117366400Y-74578920D01*
X117366399Y-74578922D01*
X117266570Y-74793007D01*
X117266567Y-74793013D01*
X117209364Y-75006499D01*
X117209364Y-75006500D01*
X118106988Y-75006500D01*
X118074075Y-75063507D01*
X118040000Y-75190674D01*
X118040000Y-75322326D01*
X118074075Y-75449493D01*
X118106988Y-75506500D01*
X117209364Y-75506500D01*
X117266567Y-75719986D01*
X117266570Y-75719992D01*
X117366399Y-75934078D01*
X117501894Y-76127582D01*
X117668917Y-76294605D01*
X117854595Y-76424619D01*
X117898219Y-76479196D01*
X117905412Y-76548695D01*
X117873890Y-76611049D01*
X117854595Y-76627769D01*
X117668594Y-76758008D01*
X117501505Y-76925097D01*
X117365965Y-77118669D01*
X117365964Y-77118671D01*
X117266098Y-77332835D01*
X117266094Y-77332844D01*
X117204938Y-77561086D01*
X117204936Y-77561096D01*
X117184341Y-77796499D01*
X117184341Y-77796500D01*
X117204936Y-78031903D01*
X117204938Y-78031913D01*
X117266094Y-78260155D01*
X117266096Y-78260159D01*
X117266097Y-78260163D01*
X117349371Y-78438745D01*
X117365965Y-78474330D01*
X117365967Y-78474334D01*
X117474281Y-78629021D01*
X117501505Y-78667901D01*
X117668599Y-78834995D01*
X117756647Y-78896647D01*
X117862165Y-78970532D01*
X117862167Y-78970533D01*
X117862170Y-78970535D01*
X118076337Y-79070403D01*
X118304592Y-79131563D01*
X118492918Y-79148039D01*
X118539999Y-79152159D01*
X118540000Y-79152159D01*
X118540001Y-79152159D01*
X118579234Y-79148726D01*
X118775408Y-79131563D01*
X119003663Y-79070403D01*
X119217830Y-78970535D01*
X119411401Y-78834995D01*
X119578495Y-78667901D01*
X119714035Y-78474330D01*
X119813903Y-78260163D01*
X119875063Y-78031908D01*
X119895659Y-77796500D01*
X119875063Y-77561092D01*
X119813903Y-77332837D01*
X119714035Y-77118671D01*
X119602762Y-76959755D01*
X119578494Y-76925097D01*
X119411402Y-76758006D01*
X119411401Y-76758005D01*
X119225405Y-76627769D01*
X119181781Y-76573192D01*
X119174588Y-76503693D01*
X119206110Y-76441339D01*
X119225405Y-76424619D01*
X119411082Y-76294605D01*
X119578105Y-76127582D01*
X119713600Y-75934078D01*
X119813429Y-75719992D01*
X119813432Y-75719986D01*
X119870636Y-75506500D01*
X118973012Y-75506500D01*
X119005925Y-75449493D01*
X119040000Y-75322326D01*
X119040000Y-75190674D01*
X119005925Y-75063507D01*
X118973012Y-75006500D01*
X119870636Y-75006500D01*
X119870635Y-75006499D01*
X119813432Y-74793013D01*
X119813429Y-74793007D01*
X119713600Y-74578922D01*
X119713599Y-74578920D01*
X119578113Y-74385426D01*
X119578108Y-74385420D01*
X119411078Y-74218390D01*
X119225405Y-74088379D01*
X119181780Y-74033802D01*
X119174588Y-73964304D01*
X119206110Y-73901949D01*
X119225406Y-73885230D01*
X119269557Y-73854315D01*
X119411401Y-73754995D01*
X119578495Y-73587901D01*
X119714035Y-73394330D01*
X119813903Y-73180163D01*
X119875063Y-72951908D01*
X119895659Y-72716500D01*
X119875063Y-72481092D01*
X119813903Y-72252837D01*
X119714035Y-72038671D01*
X119602761Y-71879755D01*
X119578496Y-71845100D01*
X119578495Y-71845099D01*
X119456179Y-71722783D01*
X119422696Y-71661463D01*
X119427680Y-71591771D01*
X119469551Y-71535837D01*
X119500529Y-71518922D01*
X119632086Y-71469854D01*
X119632093Y-71469850D01*
X119747187Y-71383690D01*
X119747190Y-71383687D01*
X119833350Y-71268593D01*
X119833354Y-71268586D01*
X119883596Y-71133879D01*
X119883598Y-71133872D01*
X119889999Y-71074344D01*
X119890000Y-71074327D01*
X119890000Y-70426500D01*
X118973012Y-70426500D01*
X119005925Y-70369493D01*
X119040000Y-70242326D01*
X119040000Y-70176498D01*
X125870532Y-70176498D01*
X125870532Y-70176501D01*
X125890364Y-70403186D01*
X125890366Y-70403197D01*
X125949258Y-70622988D01*
X125949261Y-70622997D01*
X126045431Y-70829232D01*
X126045432Y-70829234D01*
X126175954Y-71015641D01*
X126336858Y-71176545D01*
X126336861Y-71176547D01*
X126523266Y-71307068D01*
X126729504Y-71403239D01*
X126949308Y-71462135D01*
X127111230Y-71476301D01*
X127175998Y-71481968D01*
X127176000Y-71481968D01*
X127176002Y-71481968D01*
X127232673Y-71477009D01*
X127402692Y-71462135D01*
X127622496Y-71403239D01*
X127828734Y-71307068D01*
X128015139Y-71176547D01*
X128176047Y-71015639D01*
X128306568Y-70829234D01*
X128402739Y-70622996D01*
X128461635Y-70403192D01*
X128481468Y-70176500D01*
X128461635Y-69949808D01*
X128402739Y-69730004D01*
X128306568Y-69523766D01*
X128176047Y-69337361D01*
X128176045Y-69337358D01*
X128018493Y-69179806D01*
X127985008Y-69118483D01*
X127989992Y-69048791D01*
X128031864Y-68992858D01*
X128077667Y-68971446D01*
X128083381Y-68970095D01*
X128218086Y-68919854D01*
X128218093Y-68919850D01*
X128333187Y-68833690D01*
X128333190Y-68833687D01*
X128419350Y-68718593D01*
X128419354Y-68718586D01*
X128469596Y-68583879D01*
X128469598Y-68583872D01*
X128475999Y-68524344D01*
X128476000Y-68524327D01*
X128476000Y-67926500D01*
X127491686Y-67926500D01*
X127496080Y-67922106D01*
X127548741Y-67830894D01*
X127576000Y-67729161D01*
X127576000Y-67623839D01*
X127548741Y-67522106D01*
X127496080Y-67430894D01*
X127491686Y-67426500D01*
X128476000Y-67426500D01*
X128476000Y-66828672D01*
X128475999Y-66828655D01*
X128469598Y-66769127D01*
X128469596Y-66769120D01*
X128419354Y-66634413D01*
X128419350Y-66634406D01*
X128333190Y-66519312D01*
X128333187Y-66519309D01*
X128218093Y-66433149D01*
X128218086Y-66433145D01*
X128083379Y-66382903D01*
X128083372Y-66382901D01*
X128023844Y-66376500D01*
X127426000Y-66376500D01*
X127426000Y-67360814D01*
X127421606Y-67356420D01*
X127330394Y-67303759D01*
X127228661Y-67276500D01*
X127123339Y-67276500D01*
X127021606Y-67303759D01*
X126930394Y-67356420D01*
X126926000Y-67360814D01*
X126926000Y-66376500D01*
X126328155Y-66376500D01*
X126268627Y-66382901D01*
X126268620Y-66382903D01*
X126133913Y-66433145D01*
X126133906Y-66433149D01*
X126018812Y-66519309D01*
X126018809Y-66519312D01*
X125932649Y-66634406D01*
X125932645Y-66634413D01*
X125882403Y-66769120D01*
X125882401Y-66769127D01*
X125876000Y-66828655D01*
X125876000Y-67426500D01*
X126860314Y-67426500D01*
X126855920Y-67430894D01*
X126803259Y-67522106D01*
X126776000Y-67623839D01*
X126776000Y-67729161D01*
X126803259Y-67830894D01*
X126855920Y-67922106D01*
X126860314Y-67926500D01*
X125876000Y-67926500D01*
X125876000Y-68524344D01*
X125882401Y-68583872D01*
X125882403Y-68583879D01*
X125932645Y-68718586D01*
X125932649Y-68718593D01*
X126018809Y-68833687D01*
X126018812Y-68833690D01*
X126133906Y-68919850D01*
X126133913Y-68919854D01*
X126268622Y-68970097D01*
X126274334Y-68971447D01*
X126335052Y-69006017D01*
X126367441Y-69067927D01*
X126361218Y-69137518D01*
X126333507Y-69179806D01*
X126175951Y-69337362D01*
X126045432Y-69523765D01*
X126045431Y-69523767D01*
X125949261Y-69730002D01*
X125949258Y-69730011D01*
X125890366Y-69949802D01*
X125890364Y-69949813D01*
X125870532Y-70176498D01*
X119040000Y-70176498D01*
X119040000Y-70110674D01*
X119005925Y-69983507D01*
X118973012Y-69926500D01*
X119890000Y-69926500D01*
X119890000Y-69278672D01*
X119889999Y-69278655D01*
X119883598Y-69219127D01*
X119883596Y-69219120D01*
X119833354Y-69084413D01*
X119833350Y-69084406D01*
X119747190Y-68969312D01*
X119747187Y-68969309D01*
X119632093Y-68883149D01*
X119632086Y-68883145D01*
X119497379Y-68832903D01*
X119497372Y-68832901D01*
X119437844Y-68826500D01*
X118790000Y-68826500D01*
X118790000Y-69743488D01*
X118732993Y-69710575D01*
X118605826Y-69676500D01*
X118474174Y-69676500D01*
X118347007Y-69710575D01*
X118290000Y-69743488D01*
X118290000Y-68826500D01*
X117642155Y-68826500D01*
X117582627Y-68832901D01*
X117582620Y-68832903D01*
X117447913Y-68883145D01*
X117447906Y-68883149D01*
X117332812Y-68969309D01*
X117332809Y-68969312D01*
X117246649Y-69084406D01*
X117246645Y-69084413D01*
X117196403Y-69219120D01*
X117196401Y-69219127D01*
X117190000Y-69278655D01*
X117190000Y-69926500D01*
X118106988Y-69926500D01*
X118074075Y-69983507D01*
X118040000Y-70110674D01*
X118040000Y-70242326D01*
X118074075Y-70369493D01*
X118106988Y-70426500D01*
X117190000Y-70426500D01*
X117190000Y-71074344D01*
X117196401Y-71133872D01*
X117196403Y-71133879D01*
X117246645Y-71268586D01*
X117246649Y-71268593D01*
X117332809Y-71383687D01*
X117332812Y-71383690D01*
X117447906Y-71469850D01*
X117447913Y-71469854D01*
X117579470Y-71518921D01*
X117635403Y-71560792D01*
X117659821Y-71626256D01*
X117644970Y-71694529D01*
X117623819Y-71722784D01*
X117501503Y-71845100D01*
X117365965Y-72038669D01*
X117365964Y-72038671D01*
X117266098Y-72252835D01*
X117266094Y-72252844D01*
X117204938Y-72481086D01*
X117204936Y-72481096D01*
X117184341Y-72716499D01*
X116508000Y-72716499D01*
X116508000Y-65050986D01*
X141016001Y-65050986D01*
X141026494Y-65153697D01*
X141081641Y-65320119D01*
X141081643Y-65320124D01*
X141173684Y-65469345D01*
X141297654Y-65593315D01*
X141446875Y-65685356D01*
X141446880Y-65685358D01*
X141613302Y-65740505D01*
X141613309Y-65740506D01*
X141716019Y-65750999D01*
X142165999Y-65750999D01*
X142166000Y-65750998D01*
X142166000Y-64838500D01*
X141016001Y-64838500D01*
X141016001Y-65050986D01*
X116508000Y-65050986D01*
X116508000Y-64126013D01*
X141016000Y-64126013D01*
X141016000Y-64338500D01*
X142166000Y-64338500D01*
X142666000Y-64338500D01*
X143688000Y-64338500D01*
X143694681Y-64331819D01*
X143756004Y-64298334D01*
X143782362Y-64295500D01*
X144706000Y-64295500D01*
X145206000Y-64295500D01*
X146180999Y-64295500D01*
X146180999Y-64158028D01*
X146180998Y-64158013D01*
X146779000Y-64158013D01*
X146779000Y-64295500D01*
X147754000Y-64295500D01*
X147754000Y-63458000D01*
X148254000Y-63458000D01*
X148254000Y-64295500D01*
X149102928Y-64295500D01*
X149160004Y-64264334D01*
X149186362Y-64261500D01*
X150294000Y-64261500D01*
X150794000Y-64261500D01*
X151943999Y-64261500D01*
X151943999Y-64049028D01*
X151943998Y-64049013D01*
X151933505Y-63946302D01*
X151878358Y-63779880D01*
X151878356Y-63779875D01*
X151786315Y-63630654D01*
X151662345Y-63506684D01*
X151513124Y-63414643D01*
X151513119Y-63414641D01*
X151346697Y-63359494D01*
X151346690Y-63359493D01*
X151243986Y-63349000D01*
X150794000Y-63349000D01*
X150794000Y-64261500D01*
X150294000Y-64261500D01*
X150294000Y-63349000D01*
X149844028Y-63349000D01*
X149844012Y-63349001D01*
X149741302Y-63359494D01*
X149574880Y-63414641D01*
X149574875Y-63414643D01*
X149425654Y-63506684D01*
X149301682Y-63630656D01*
X149254543Y-63707080D01*
X149202594Y-63753804D01*
X149133632Y-63765025D01*
X149069550Y-63737181D01*
X149061324Y-63729663D01*
X148947345Y-63615684D01*
X148798124Y-63523643D01*
X148798119Y-63523641D01*
X148631697Y-63468494D01*
X148631690Y-63468493D01*
X148528986Y-63458000D01*
X148254000Y-63458000D01*
X147754000Y-63458000D01*
X147479029Y-63458000D01*
X147479012Y-63458001D01*
X147376302Y-63468494D01*
X147209880Y-63523641D01*
X147209875Y-63523643D01*
X147060654Y-63615684D01*
X146936684Y-63739654D01*
X146844643Y-63888875D01*
X146844641Y-63888880D01*
X146789494Y-64055302D01*
X146789493Y-64055309D01*
X146779000Y-64158013D01*
X146180998Y-64158013D01*
X146170505Y-64055302D01*
X146115358Y-63888880D01*
X146115356Y-63888875D01*
X146023315Y-63739654D01*
X145899345Y-63615684D01*
X145750124Y-63523643D01*
X145750119Y-63523641D01*
X145583697Y-63468494D01*
X145583690Y-63468493D01*
X145480986Y-63458000D01*
X145206000Y-63458000D01*
X145206000Y-64295500D01*
X144706000Y-64295500D01*
X144706000Y-63458000D01*
X144431029Y-63458000D01*
X144431012Y-63458001D01*
X144328302Y-63468494D01*
X144161880Y-63523641D01*
X144161875Y-63523643D01*
X144012654Y-63615684D01*
X143888683Y-63739655D01*
X143884202Y-63745323D01*
X143883139Y-63744483D01*
X143836945Y-63786023D01*
X143767981Y-63797237D01*
X143703902Y-63769385D01*
X143677828Y-63739290D01*
X143658315Y-63707654D01*
X143534345Y-63583684D01*
X143385124Y-63491643D01*
X143385119Y-63491641D01*
X143218697Y-63436494D01*
X143218690Y-63436493D01*
X143115986Y-63426000D01*
X142666000Y-63426000D01*
X142666000Y-64338500D01*
X142166000Y-64338500D01*
X142166000Y-63426000D01*
X141716028Y-63426000D01*
X141716012Y-63426001D01*
X141613302Y-63436494D01*
X141446880Y-63491641D01*
X141446875Y-63491643D01*
X141297654Y-63583684D01*
X141173684Y-63707654D01*
X141081643Y-63856875D01*
X141081641Y-63856880D01*
X141026494Y-64023302D01*
X141026493Y-64023309D01*
X141016000Y-64126013D01*
X116508000Y-64126013D01*
X116508000Y-61942213D01*
X117697500Y-61942213D01*
X117697500Y-62154787D01*
X117730754Y-62364743D01*
X117753712Y-62435401D01*
X117796444Y-62566914D01*
X117892951Y-62756320D01*
X118017890Y-62928286D01*
X118168213Y-63078609D01*
X118340179Y-63203548D01*
X118340181Y-63203549D01*
X118340184Y-63203551D01*
X118529588Y-63300057D01*
X118731757Y-63365746D01*
X118941713Y-63399000D01*
X118941714Y-63399000D01*
X119154286Y-63399000D01*
X119154287Y-63399000D01*
X119364243Y-63365746D01*
X119566412Y-63300057D01*
X119755816Y-63203551D01*
X119777789Y-63187586D01*
X119927786Y-63078609D01*
X119927788Y-63078606D01*
X119927792Y-63078604D01*
X120078104Y-62928292D01*
X120078106Y-62928288D01*
X120078109Y-62928286D01*
X120203048Y-62756320D01*
X120203047Y-62756320D01*
X120203051Y-62756316D01*
X120299557Y-62566912D01*
X120365246Y-62364743D01*
X120398500Y-62154787D01*
X120398500Y-61942213D01*
X120365246Y-61732257D01*
X120299557Y-61530088D01*
X120203051Y-61340684D01*
X120203049Y-61340681D01*
X120203048Y-61340679D01*
X120078109Y-61168713D01*
X119927786Y-61018390D01*
X119755820Y-60893451D01*
X119566414Y-60796944D01*
X119566413Y-60796943D01*
X119566412Y-60796943D01*
X119364243Y-60731254D01*
X119364241Y-60731253D01*
X119364240Y-60731253D01*
X119202957Y-60705708D01*
X119154287Y-60698000D01*
X118941713Y-60698000D01*
X118893042Y-60705708D01*
X118731760Y-60731253D01*
X118529585Y-60796944D01*
X118340179Y-60893451D01*
X118168213Y-61018390D01*
X118017890Y-61168713D01*
X117892951Y-61340679D01*
X117796444Y-61530085D01*
X117730753Y-61732260D01*
X117712500Y-61847507D01*
X117697500Y-61942213D01*
X116508000Y-61942213D01*
X116508000Y-60642635D01*
X145637500Y-60642635D01*
X145637500Y-62438370D01*
X145637501Y-62438376D01*
X145643908Y-62497983D01*
X145694202Y-62632828D01*
X145694206Y-62632835D01*
X145780452Y-62748044D01*
X145780455Y-62748047D01*
X145895664Y-62834293D01*
X145895671Y-62834297D01*
X146030517Y-62884591D01*
X146030516Y-62884591D01*
X146037444Y-62885335D01*
X146090127Y-62891000D01*
X147885872Y-62890999D01*
X147945483Y-62884591D01*
X148080331Y-62834296D01*
X148195546Y-62748046D01*
X148281796Y-62632831D01*
X148331002Y-62500901D01*
X148372872Y-62444968D01*
X148438337Y-62420550D01*
X148506610Y-62435401D01*
X148534865Y-62456553D01*
X148656917Y-62578605D01*
X148850421Y-62714100D01*
X149064507Y-62813929D01*
X149064516Y-62813933D01*
X149278000Y-62871134D01*
X149278000Y-61973512D01*
X149335007Y-62006425D01*
X149462174Y-62040500D01*
X149593826Y-62040500D01*
X149720993Y-62006425D01*
X149778000Y-61973512D01*
X149778000Y-62871133D01*
X149991483Y-62813933D01*
X149991492Y-62813929D01*
X150205578Y-62714100D01*
X150399082Y-62578605D01*
X150566105Y-62411582D01*
X150696119Y-62225905D01*
X150750696Y-62182281D01*
X150820195Y-62175088D01*
X150882549Y-62206610D01*
X150899269Y-62225905D01*
X151029505Y-62411901D01*
X151196599Y-62578995D01*
X151293384Y-62646765D01*
X151390165Y-62714532D01*
X151390167Y-62714533D01*
X151390170Y-62714535D01*
X151604337Y-62814403D01*
X151832592Y-62875563D01*
X152009034Y-62891000D01*
X152067999Y-62896159D01*
X152068000Y-62896159D01*
X152068001Y-62896159D01*
X152126966Y-62891000D01*
X152303408Y-62875563D01*
X152531663Y-62814403D01*
X152745830Y-62714535D01*
X152939401Y-62578995D01*
X153106495Y-62411901D01*
X153242035Y-62218330D01*
X153341903Y-62004163D01*
X153358502Y-61942213D01*
X176625500Y-61942213D01*
X176625500Y-62154787D01*
X176658754Y-62364743D01*
X176681712Y-62435401D01*
X176724444Y-62566914D01*
X176820951Y-62756320D01*
X176945890Y-62928286D01*
X177096213Y-63078609D01*
X177268179Y-63203548D01*
X177268181Y-63203549D01*
X177268184Y-63203551D01*
X177457588Y-63300057D01*
X177659757Y-63365746D01*
X177869713Y-63399000D01*
X177869714Y-63399000D01*
X178082286Y-63399000D01*
X178082287Y-63399000D01*
X178292243Y-63365746D01*
X178494412Y-63300057D01*
X178683816Y-63203551D01*
X178705789Y-63187586D01*
X178855786Y-63078609D01*
X178855788Y-63078606D01*
X178855792Y-63078604D01*
X179006104Y-62928292D01*
X179006106Y-62928288D01*
X179006109Y-62928286D01*
X179131048Y-62756320D01*
X179131047Y-62756320D01*
X179131051Y-62756316D01*
X179227557Y-62566912D01*
X179293246Y-62364743D01*
X179326500Y-62154787D01*
X179326500Y-61942213D01*
X179293246Y-61732257D01*
X179227557Y-61530088D01*
X179131051Y-61340684D01*
X179131049Y-61340681D01*
X179131048Y-61340679D01*
X179006109Y-61168713D01*
X178855786Y-61018390D01*
X178683820Y-60893451D01*
X178494414Y-60796944D01*
X178494413Y-60796943D01*
X178494412Y-60796943D01*
X178292243Y-60731254D01*
X178292241Y-60731253D01*
X178292240Y-60731253D01*
X178130957Y-60705708D01*
X178082287Y-60698000D01*
X177869713Y-60698000D01*
X177821042Y-60705708D01*
X177659760Y-60731253D01*
X177457585Y-60796944D01*
X177268179Y-60893451D01*
X177096213Y-61018390D01*
X176945890Y-61168713D01*
X176820951Y-61340679D01*
X176724444Y-61530085D01*
X176658753Y-61732260D01*
X176640500Y-61847507D01*
X176625500Y-61942213D01*
X153358502Y-61942213D01*
X153403063Y-61775908D01*
X153423659Y-61540500D01*
X153403063Y-61305092D01*
X153341903Y-61076837D01*
X153242035Y-60862671D01*
X153236731Y-60855095D01*
X153106494Y-60669097D01*
X152939402Y-60502006D01*
X152939395Y-60502001D01*
X152745834Y-60366467D01*
X152745830Y-60366465D01*
X152745828Y-60366464D01*
X152531663Y-60266597D01*
X152531659Y-60266596D01*
X152531655Y-60266594D01*
X152303413Y-60205438D01*
X152303403Y-60205436D01*
X152068001Y-60184841D01*
X152067999Y-60184841D01*
X151832596Y-60205436D01*
X151832586Y-60205438D01*
X151604344Y-60266594D01*
X151604335Y-60266598D01*
X151390171Y-60366464D01*
X151390169Y-60366465D01*
X151196597Y-60502005D01*
X151029508Y-60669094D01*
X150899269Y-60855095D01*
X150844692Y-60898719D01*
X150775193Y-60905912D01*
X150712839Y-60874390D01*
X150696119Y-60855094D01*
X150566113Y-60669426D01*
X150566108Y-60669420D01*
X150399082Y-60502394D01*
X150205578Y-60366899D01*
X149991492Y-60267070D01*
X149991486Y-60267067D01*
X149778000Y-60209864D01*
X149778000Y-61107488D01*
X149720993Y-61074575D01*
X149593826Y-61040500D01*
X149462174Y-61040500D01*
X149335007Y-61074575D01*
X149278000Y-61107488D01*
X149278000Y-60209864D01*
X149277999Y-60209864D01*
X149064513Y-60267067D01*
X149064507Y-60267070D01*
X148850422Y-60366899D01*
X148850420Y-60366900D01*
X148656926Y-60502386D01*
X148534865Y-60624447D01*
X148473542Y-60657931D01*
X148403850Y-60652947D01*
X148347917Y-60611075D01*
X148331002Y-60580098D01*
X148281797Y-60448171D01*
X148281793Y-60448164D01*
X148195547Y-60332955D01*
X148195544Y-60332952D01*
X148080335Y-60246706D01*
X148080328Y-60246702D01*
X147945482Y-60196408D01*
X147945483Y-60196408D01*
X147885883Y-60190001D01*
X147885881Y-60190000D01*
X147885873Y-60190000D01*
X147885864Y-60190000D01*
X146090129Y-60190000D01*
X146090123Y-60190001D01*
X146030516Y-60196408D01*
X145895671Y-60246702D01*
X145895664Y-60246706D01*
X145780455Y-60332952D01*
X145780452Y-60332955D01*
X145694206Y-60448164D01*
X145694202Y-60448171D01*
X145643908Y-60583017D01*
X145637501Y-60642616D01*
X145637500Y-60642635D01*
X116508000Y-60642635D01*
X116508000Y-59632500D01*
X116527685Y-59565461D01*
X116580489Y-59519706D01*
X116632000Y-59508500D01*
X180375500Y-59508500D01*
X180442539Y-59528185D01*
G37*
%TD.AperFunction*%
%TD*%
M02*
