%TF.GenerationSoftware,KiCad,Pcbnew,8.0.4*%
%TF.CreationDate,2024-08-18T00:19:55+02:00*%
%TF.ProjectId,untitled,756e7469-746c-4656-942e-6b696361645f,rev?*%
%TF.SameCoordinates,Original*%
%TF.FileFunction,Drillmap*%
%TF.FilePolarity,Positive*%
%FSLAX45Y45*%
G04 Gerber Fmt 4.5, Leading zero omitted, Abs format (unit mm)*
G04 Created by KiCad (PCBNEW 8.0.4) date 2024-08-18 00:19:55*
%MOMM*%
%LPD*%
G01*
G04 APERTURE LIST*
%ADD10C,0.100000*%
%ADD11C,0.200000*%
%ADD12C,0.220000*%
G04 APERTURE END LIST*
D10*
X16083333Y-5700050D02*
X16866667Y-5700050D01*
X12533333Y-5799950D02*
X12533333Y-5800150D01*
X15000000Y-5800150D02*
X15000000Y-5799950D01*
X16083333Y-2700050D02*
X16083333Y-2500000D01*
X15783333Y-5800150D02*
X15783333Y-5900050D01*
X14700000Y-5700050D02*
X14700000Y-5799950D01*
X16083333Y-2500000D02*
X16866667Y-2500000D01*
X12833333Y-2500000D02*
X13616667Y-2500000D01*
X12833333Y-9100150D02*
X12833333Y-8900050D01*
X13616667Y-5800150D02*
X13616667Y-5900050D01*
X15783333Y-2700050D02*
X15000000Y-2700050D01*
X18100000Y-9600150D02*
X18100000Y-9100150D01*
X18100000Y-9100150D02*
X17166667Y-9100150D01*
X13916667Y-2500000D02*
X14700000Y-2500000D01*
X11600000Y-9100150D02*
X11600000Y-9600150D01*
X11600000Y-9600150D02*
X18100000Y-9600150D01*
X18100000Y-2500000D02*
X18100000Y-2000000D01*
X12533333Y-2500000D02*
X12533333Y-2700050D01*
X16866667Y-5800150D02*
X16866667Y-5900050D01*
X16866667Y-9100150D02*
X16083333Y-9100150D01*
X12533333Y-5700050D02*
X12533333Y-5799950D01*
X16083333Y-5799950D02*
X16083333Y-5700050D01*
X16866667Y-5700050D02*
X16866667Y-5799950D01*
X16083333Y-5800150D02*
X16083333Y-5799950D01*
X12833333Y-5700050D02*
X13616667Y-5700050D01*
X12833333Y-2700050D02*
X12833333Y-2500000D01*
X12533333Y-5800150D02*
X12533333Y-5900050D01*
X15000000Y-5799950D02*
X15000000Y-5700050D01*
X14700000Y-5900050D02*
X13916667Y-5900050D01*
X11600000Y-5900050D02*
X11600000Y-8900050D01*
X16866667Y-2500000D02*
X16866667Y-2700050D01*
X15000000Y-9100150D02*
X15000000Y-8900050D01*
X15783333Y-8900050D02*
X15783333Y-9100150D01*
X15000000Y-8900050D02*
X15783333Y-8900050D01*
X13616667Y-5799950D02*
X13616667Y-5800150D01*
X15000000Y-5900050D02*
X15000000Y-5800150D01*
X16083333Y-8900050D02*
X16866667Y-8900050D01*
X12833333Y-5800150D02*
X12833333Y-5799950D01*
X12833333Y-5900050D02*
X12833333Y-5800150D01*
X13616667Y-9100150D02*
X12833333Y-9100150D01*
X13916667Y-2700050D02*
X13916667Y-2500000D01*
X14700000Y-5800150D02*
X14700000Y-5900050D01*
X15783333Y-5799950D02*
X15783333Y-5800150D01*
X11600000Y-2700050D02*
X11600000Y-5700050D01*
X12533333Y-8900050D02*
X12533333Y-9100150D01*
X13916667Y-5900050D02*
X13916667Y-5800150D01*
X17166667Y-8900050D02*
X18100000Y-8900050D01*
X15783333Y-5700050D02*
X15783333Y-5799950D01*
X16866667Y-8900050D02*
X16866667Y-9100150D01*
X18100000Y-5700050D02*
X18100000Y-2700050D01*
X14700000Y-5799950D02*
X14700000Y-5800150D01*
X13916667Y-5800150D02*
X13916667Y-5799950D01*
X16866667Y-2700050D02*
X16083333Y-2700050D01*
X11600000Y-2000000D02*
X11600000Y-2500000D01*
X14700000Y-2700050D02*
X13916667Y-2700050D01*
X16866667Y-5799950D02*
X16866667Y-5800150D01*
X15000000Y-2500000D02*
X15783333Y-2500000D01*
X12533333Y-9100150D02*
X11600000Y-9100150D01*
X18100000Y-2000000D02*
X11600000Y-2000000D01*
X17166667Y-5800150D02*
X17166667Y-5799950D01*
X12833333Y-8900050D02*
X13616667Y-8900050D01*
X15783333Y-9100150D02*
X15000000Y-9100150D01*
X12533333Y-5900050D02*
X11600000Y-5900050D01*
X13916667Y-8900050D02*
X14700000Y-8900050D01*
X18100000Y-5900050D02*
X17166667Y-5900050D01*
X17166667Y-2700050D02*
X17166667Y-2500000D01*
X11600000Y-8900050D02*
X12533333Y-8900050D01*
X14700000Y-2500000D02*
X14700000Y-2700050D01*
X11600000Y-2500000D02*
X12533333Y-2500000D01*
X12833333Y-5799950D02*
X12833333Y-5700050D01*
X13616667Y-5700050D02*
X13616667Y-5799950D01*
X15783333Y-2500000D02*
X15783333Y-2700050D01*
X17166667Y-9100150D02*
X17166667Y-8900050D01*
X18100000Y-8900050D02*
X18100000Y-5900050D01*
X18100000Y-2700050D02*
X17166667Y-2700050D01*
X13616667Y-5900050D02*
X12833333Y-5900050D01*
X17166667Y-5799950D02*
X17166667Y-5700050D01*
X13916667Y-5700050D02*
X14700000Y-5700050D01*
X12533333Y-2700050D02*
X11600000Y-2700050D01*
X14700000Y-9100150D02*
X13916667Y-9100150D01*
X13616667Y-2500000D02*
X13616667Y-2700050D01*
X16866667Y-5900050D02*
X16083333Y-5900050D01*
X17166667Y-5700050D02*
X18100000Y-5700050D01*
X13916667Y-5799950D02*
X13916667Y-5700050D01*
X15000000Y-5700050D02*
X15783333Y-5700050D01*
X13616667Y-8900050D02*
X13616667Y-9100150D01*
X16083333Y-5900050D02*
X16083333Y-5800150D01*
X15783333Y-5900050D02*
X15000000Y-5900050D01*
X17166667Y-2500000D02*
X18100000Y-2500000D01*
X16083333Y-9100150D02*
X16083333Y-8900050D01*
X17166667Y-5900050D02*
X17166667Y-5800150D01*
X13916667Y-9100150D02*
X13916667Y-8900050D01*
X15000000Y-2700050D02*
X15000000Y-2500000D01*
X13616667Y-2700050D02*
X12833333Y-2700050D01*
X11600000Y-5700050D02*
X12533333Y-5700050D01*
X14700000Y-8900050D02*
X14700000Y-9100150D01*
D11*
D10*
X12508333Y-2675050D02*
X12558333Y-2725050D01*
X12558333Y-2675050D02*
X12508333Y-2725050D01*
X12508333Y-5675050D02*
X12558333Y-5725050D01*
X12558333Y-5675050D02*
X12508333Y-5725050D01*
X12508333Y-5875050D02*
X12558333Y-5925050D01*
X12558333Y-5875050D02*
X12508333Y-5925050D01*
X12508333Y-8875050D02*
X12558333Y-8925050D01*
X12558333Y-8875050D02*
X12508333Y-8925050D01*
X12608333Y-2675050D02*
X12658333Y-2725050D01*
X12658333Y-2675050D02*
X12608333Y-2725050D01*
X12608333Y-5675050D02*
X12658333Y-5725050D01*
X12658333Y-5675050D02*
X12608333Y-5725050D01*
X12608333Y-5875050D02*
X12658333Y-5925050D01*
X12658333Y-5875050D02*
X12608333Y-5925050D01*
X12608333Y-8875050D02*
X12658333Y-8925050D01*
X12658333Y-8875050D02*
X12608333Y-8925050D01*
X12708333Y-2675050D02*
X12758333Y-2725050D01*
X12758333Y-2675050D02*
X12708333Y-2725050D01*
X12708333Y-5675050D02*
X12758333Y-5725050D01*
X12758333Y-5675050D02*
X12708333Y-5725050D01*
X12708333Y-5875050D02*
X12758333Y-5925050D01*
X12758333Y-5875050D02*
X12708333Y-5925050D01*
X12708333Y-8875050D02*
X12758333Y-8925050D01*
X12758333Y-8875050D02*
X12708333Y-8925050D01*
X12808333Y-2675050D02*
X12858333Y-2725050D01*
X12858333Y-2675050D02*
X12808333Y-2725050D01*
X12808333Y-5675050D02*
X12858333Y-5725050D01*
X12858333Y-5675050D02*
X12808333Y-5725050D01*
X12808333Y-5875050D02*
X12858333Y-5925050D01*
X12858333Y-5875050D02*
X12808333Y-5925050D01*
X12808333Y-8875050D02*
X12858333Y-8925050D01*
X12858333Y-8875050D02*
X12808333Y-8925050D01*
X13591667Y-2675050D02*
X13641667Y-2725050D01*
X13641667Y-2675050D02*
X13591667Y-2725050D01*
X13591667Y-5675050D02*
X13641667Y-5725050D01*
X13641667Y-5675050D02*
X13591667Y-5725050D01*
X13591667Y-5875050D02*
X13641667Y-5925050D01*
X13641667Y-5875050D02*
X13591667Y-5925050D01*
X13591667Y-8875050D02*
X13641667Y-8925050D01*
X13641667Y-8875050D02*
X13591667Y-8925050D01*
X13691667Y-2675050D02*
X13741667Y-2725050D01*
X13741667Y-2675050D02*
X13691667Y-2725050D01*
X13691667Y-5675050D02*
X13741667Y-5725050D01*
X13741667Y-5675050D02*
X13691667Y-5725050D01*
X13691667Y-5875050D02*
X13741667Y-5925050D01*
X13741667Y-5875050D02*
X13691667Y-5925050D01*
X13691667Y-8875050D02*
X13741667Y-8925050D01*
X13741667Y-8875050D02*
X13691667Y-8925050D01*
X13791667Y-2675050D02*
X13841667Y-2725050D01*
X13841667Y-2675050D02*
X13791667Y-2725050D01*
X13791667Y-5675050D02*
X13841667Y-5725050D01*
X13841667Y-5675050D02*
X13791667Y-5725050D01*
X13791667Y-5875050D02*
X13841667Y-5925050D01*
X13841667Y-5875050D02*
X13791667Y-5925050D01*
X13791667Y-8875050D02*
X13841667Y-8925050D01*
X13841667Y-8875050D02*
X13791667Y-8925050D01*
X13891667Y-2675050D02*
X13941667Y-2725050D01*
X13941667Y-2675050D02*
X13891667Y-2725050D01*
X13891667Y-5675050D02*
X13941667Y-5725050D01*
X13941667Y-5675050D02*
X13891667Y-5725050D01*
X13891667Y-5875050D02*
X13941667Y-5925050D01*
X13941667Y-5875050D02*
X13891667Y-5925050D01*
X13891667Y-8875050D02*
X13941667Y-8925050D01*
X13941667Y-8875050D02*
X13891667Y-8925050D01*
X14675000Y-2675050D02*
X14725000Y-2725050D01*
X14725000Y-2675050D02*
X14675000Y-2725050D01*
X14675000Y-5675050D02*
X14725000Y-5725050D01*
X14725000Y-5675050D02*
X14675000Y-5725050D01*
X14675000Y-5875050D02*
X14725000Y-5925050D01*
X14725000Y-5875050D02*
X14675000Y-5925050D01*
X14675000Y-8875050D02*
X14725000Y-8925050D01*
X14725000Y-8875050D02*
X14675000Y-8925050D01*
X14775000Y-2675050D02*
X14825000Y-2725050D01*
X14825000Y-2675050D02*
X14775000Y-2725050D01*
X14775000Y-5675050D02*
X14825000Y-5725050D01*
X14825000Y-5675050D02*
X14775000Y-5725050D01*
X14775000Y-5875050D02*
X14825000Y-5925050D01*
X14825000Y-5875050D02*
X14775000Y-5925050D01*
X14775000Y-8875050D02*
X14825000Y-8925050D01*
X14825000Y-8875050D02*
X14775000Y-8925050D01*
X14875000Y-2675050D02*
X14925000Y-2725050D01*
X14925000Y-2675050D02*
X14875000Y-2725050D01*
X14875000Y-5675050D02*
X14925000Y-5725050D01*
X14925000Y-5675050D02*
X14875000Y-5725050D01*
X14875000Y-5875050D02*
X14925000Y-5925050D01*
X14925000Y-5875050D02*
X14875000Y-5925050D01*
X14875000Y-8875050D02*
X14925000Y-8925050D01*
X14925000Y-8875050D02*
X14875000Y-8925050D01*
X14975000Y-2675050D02*
X15025000Y-2725050D01*
X15025000Y-2675050D02*
X14975000Y-2725050D01*
X14975000Y-5675050D02*
X15025000Y-5725050D01*
X15025000Y-5675050D02*
X14975000Y-5725050D01*
X14975000Y-5875050D02*
X15025000Y-5925050D01*
X15025000Y-5875050D02*
X14975000Y-5925050D01*
X14975000Y-8875050D02*
X15025000Y-8925050D01*
X15025000Y-8875050D02*
X14975000Y-8925050D01*
X15758333Y-2675050D02*
X15808333Y-2725050D01*
X15808333Y-2675050D02*
X15758333Y-2725050D01*
X15758333Y-5675050D02*
X15808333Y-5725050D01*
X15808333Y-5675050D02*
X15758333Y-5725050D01*
X15758333Y-5875050D02*
X15808333Y-5925050D01*
X15808333Y-5875050D02*
X15758333Y-5925050D01*
X15758333Y-8875050D02*
X15808333Y-8925050D01*
X15808333Y-8875050D02*
X15758333Y-8925050D01*
X15858333Y-2675050D02*
X15908333Y-2725050D01*
X15908333Y-2675050D02*
X15858333Y-2725050D01*
X15858333Y-5675050D02*
X15908333Y-5725050D01*
X15908333Y-5675050D02*
X15858333Y-5725050D01*
X15858333Y-5875050D02*
X15908333Y-5925050D01*
X15908333Y-5875050D02*
X15858333Y-5925050D01*
X15858333Y-8875050D02*
X15908333Y-8925050D01*
X15908333Y-8875050D02*
X15858333Y-8925050D01*
X15958333Y-2675050D02*
X16008333Y-2725050D01*
X16008333Y-2675050D02*
X15958333Y-2725050D01*
X15958333Y-5675050D02*
X16008333Y-5725050D01*
X16008333Y-5675050D02*
X15958333Y-5725050D01*
X15958333Y-5875050D02*
X16008333Y-5925050D01*
X16008333Y-5875050D02*
X15958333Y-5925050D01*
X15958333Y-8875050D02*
X16008333Y-8925050D01*
X16008333Y-8875050D02*
X15958333Y-8925050D01*
X16058333Y-2675050D02*
X16108333Y-2725050D01*
X16108333Y-2675050D02*
X16058333Y-2725050D01*
X16058333Y-5675050D02*
X16108333Y-5725050D01*
X16108333Y-5675050D02*
X16058333Y-5725050D01*
X16058333Y-5875050D02*
X16108333Y-5925050D01*
X16108333Y-5875050D02*
X16058333Y-5925050D01*
X16058333Y-8875050D02*
X16108333Y-8925050D01*
X16108333Y-8875050D02*
X16058333Y-8925050D01*
X16841667Y-2675050D02*
X16891667Y-2725050D01*
X16891667Y-2675050D02*
X16841667Y-2725050D01*
X16841667Y-5675050D02*
X16891667Y-5725050D01*
X16891667Y-5675050D02*
X16841667Y-5725050D01*
X16841667Y-5875050D02*
X16891667Y-5925050D01*
X16891667Y-5875050D02*
X16841667Y-5925050D01*
X16841667Y-8875050D02*
X16891667Y-8925050D01*
X16891667Y-8875050D02*
X16841667Y-8925050D01*
X16941667Y-2675050D02*
X16991667Y-2725050D01*
X16991667Y-2675050D02*
X16941667Y-2725050D01*
X16941667Y-5675050D02*
X16991667Y-5725050D01*
X16991667Y-5675050D02*
X16941667Y-5725050D01*
X16941667Y-5875050D02*
X16991667Y-5925050D01*
X16991667Y-5875050D02*
X16941667Y-5925050D01*
X16941667Y-8875050D02*
X16991667Y-8925050D01*
X16991667Y-8875050D02*
X16941667Y-8925050D01*
X17041667Y-2675050D02*
X17091667Y-2725050D01*
X17091667Y-2675050D02*
X17041667Y-2725050D01*
X17041667Y-5675050D02*
X17091667Y-5725050D01*
X17091667Y-5675050D02*
X17041667Y-5725050D01*
X17041667Y-5875050D02*
X17091667Y-5925050D01*
X17091667Y-5875050D02*
X17041667Y-5925050D01*
X17041667Y-8875050D02*
X17091667Y-8925050D01*
X17091667Y-8875050D02*
X17041667Y-8925050D01*
X17141667Y-2675050D02*
X17191667Y-2725050D01*
X17191667Y-2675050D02*
X17141667Y-2725050D01*
X17141667Y-5675050D02*
X17191667Y-5725050D01*
X17191667Y-5675050D02*
X17141667Y-5725050D01*
X17141667Y-5875050D02*
X17191667Y-5925050D01*
X17191667Y-5875050D02*
X17141667Y-5925050D01*
X17141667Y-8875050D02*
X17191667Y-8925050D01*
X17191667Y-8875050D02*
X17141667Y-8925050D01*
D12*
X12014800Y-3004850D02*
G75*
G02*
X11794800Y-3004850I-110000J0D01*
G01*
X11794800Y-3004850D02*
G75*
G02*
X12014800Y-3004850I110000J0D01*
G01*
X12014800Y-5392450D02*
G75*
G02*
X11794800Y-5392450I-110000J0D01*
G01*
X11794800Y-5392450D02*
G75*
G02*
X12014800Y-5392450I110000J0D01*
G01*
X12014800Y-6204850D02*
G75*
G02*
X11794800Y-6204850I-110000J0D01*
G01*
X11794800Y-6204850D02*
G75*
G02*
X12014800Y-6204850I110000J0D01*
G01*
X12014800Y-8592450D02*
G75*
G02*
X11794800Y-8592450I-110000J0D01*
G01*
X11794800Y-8592450D02*
G75*
G02*
X12014800Y-8592450I110000J0D01*
G01*
X17907600Y-3004850D02*
G75*
G02*
X17687600Y-3004850I-110000J0D01*
G01*
X17687600Y-3004850D02*
G75*
G02*
X17907600Y-3004850I110000J0D01*
G01*
X17907600Y-5392450D02*
G75*
G02*
X17687600Y-5392450I-110000J0D01*
G01*
X17687600Y-5392450D02*
G75*
G02*
X17907600Y-5392450I110000J0D01*
G01*
X17907600Y-6204850D02*
G75*
G02*
X17687600Y-6204850I-110000J0D01*
G01*
X17687600Y-6204850D02*
G75*
G02*
X17907600Y-6204850I110000J0D01*
G01*
X17907600Y-8592450D02*
G75*
G02*
X17687600Y-8592450I-110000J0D01*
G01*
X17687600Y-8592450D02*
G75*
G02*
X17907600Y-8592450I110000J0D01*
G01*
D11*
X11855777Y-9916634D02*
X11855777Y-9716634D01*
X11855777Y-9716634D02*
X11903396Y-9716634D01*
X11903396Y-9716634D02*
X11931967Y-9726158D01*
X11931967Y-9726158D02*
X11951015Y-9745205D01*
X11951015Y-9745205D02*
X11960539Y-9764253D01*
X11960539Y-9764253D02*
X11970062Y-9802348D01*
X11970062Y-9802348D02*
X11970062Y-9830920D01*
X11970062Y-9830920D02*
X11960539Y-9869015D01*
X11960539Y-9869015D02*
X11951015Y-9888062D01*
X11951015Y-9888062D02*
X11931967Y-9907110D01*
X11931967Y-9907110D02*
X11903396Y-9916634D01*
X11903396Y-9916634D02*
X11855777Y-9916634D01*
X12055777Y-9916634D02*
X12055777Y-9783300D01*
X12055777Y-9821396D02*
X12065301Y-9802348D01*
X12065301Y-9802348D02*
X12074824Y-9792824D01*
X12074824Y-9792824D02*
X12093872Y-9783300D01*
X12093872Y-9783300D02*
X12112920Y-9783300D01*
X12179586Y-9916634D02*
X12179586Y-9783300D01*
X12179586Y-9716634D02*
X12170062Y-9726158D01*
X12170062Y-9726158D02*
X12179586Y-9735681D01*
X12179586Y-9735681D02*
X12189110Y-9726158D01*
X12189110Y-9726158D02*
X12179586Y-9716634D01*
X12179586Y-9716634D02*
X12179586Y-9735681D01*
X12303396Y-9916634D02*
X12284348Y-9907110D01*
X12284348Y-9907110D02*
X12274824Y-9888062D01*
X12274824Y-9888062D02*
X12274824Y-9716634D01*
X12408158Y-9916634D02*
X12389110Y-9907110D01*
X12389110Y-9907110D02*
X12379586Y-9888062D01*
X12379586Y-9888062D02*
X12379586Y-9716634D01*
X12636729Y-9916634D02*
X12636729Y-9716634D01*
X12636729Y-9716634D02*
X12703396Y-9859491D01*
X12703396Y-9859491D02*
X12770062Y-9716634D01*
X12770062Y-9716634D02*
X12770062Y-9916634D01*
X12951015Y-9916634D02*
X12951015Y-9811872D01*
X12951015Y-9811872D02*
X12941491Y-9792824D01*
X12941491Y-9792824D02*
X12922443Y-9783300D01*
X12922443Y-9783300D02*
X12884348Y-9783300D01*
X12884348Y-9783300D02*
X12865301Y-9792824D01*
X12951015Y-9907110D02*
X12931967Y-9916634D01*
X12931967Y-9916634D02*
X12884348Y-9916634D01*
X12884348Y-9916634D02*
X12865301Y-9907110D01*
X12865301Y-9907110D02*
X12855777Y-9888062D01*
X12855777Y-9888062D02*
X12855777Y-9869015D01*
X12855777Y-9869015D02*
X12865301Y-9849967D01*
X12865301Y-9849967D02*
X12884348Y-9840443D01*
X12884348Y-9840443D02*
X12931967Y-9840443D01*
X12931967Y-9840443D02*
X12951015Y-9830920D01*
X13046253Y-9783300D02*
X13046253Y-9983300D01*
X13046253Y-9792824D02*
X13065301Y-9783300D01*
X13065301Y-9783300D02*
X13103396Y-9783300D01*
X13103396Y-9783300D02*
X13122443Y-9792824D01*
X13122443Y-9792824D02*
X13131967Y-9802348D01*
X13131967Y-9802348D02*
X13141491Y-9821396D01*
X13141491Y-9821396D02*
X13141491Y-9878539D01*
X13141491Y-9878539D02*
X13131967Y-9897586D01*
X13131967Y-9897586D02*
X13122443Y-9907110D01*
X13122443Y-9907110D02*
X13103396Y-9916634D01*
X13103396Y-9916634D02*
X13065301Y-9916634D01*
X13065301Y-9916634D02*
X13046253Y-9907110D01*
X13227205Y-9897586D02*
X13236729Y-9907110D01*
X13236729Y-9907110D02*
X13227205Y-9916634D01*
X13227205Y-9916634D02*
X13217682Y-9907110D01*
X13217682Y-9907110D02*
X13227205Y-9897586D01*
X13227205Y-9897586D02*
X13227205Y-9916634D01*
X13227205Y-9792824D02*
X13236729Y-9802348D01*
X13236729Y-9802348D02*
X13227205Y-9811872D01*
X13227205Y-9811872D02*
X13217682Y-9802348D01*
X13217682Y-9802348D02*
X13227205Y-9792824D01*
X13227205Y-9792824D02*
X13227205Y-9811872D01*
D10*
X11545000Y-10220150D02*
X11595000Y-10270150D01*
X11595000Y-10220150D02*
X11545000Y-10270150D01*
D11*
X11893872Y-10136634D02*
X11912920Y-10136634D01*
X11912920Y-10136634D02*
X11931967Y-10146158D01*
X11931967Y-10146158D02*
X11941491Y-10155681D01*
X11941491Y-10155681D02*
X11951015Y-10174729D01*
X11951015Y-10174729D02*
X11960539Y-10212824D01*
X11960539Y-10212824D02*
X11960539Y-10260443D01*
X11960539Y-10260443D02*
X11951015Y-10298539D01*
X11951015Y-10298539D02*
X11941491Y-10317586D01*
X11941491Y-10317586D02*
X11931967Y-10327110D01*
X11931967Y-10327110D02*
X11912920Y-10336634D01*
X11912920Y-10336634D02*
X11893872Y-10336634D01*
X11893872Y-10336634D02*
X11874824Y-10327110D01*
X11874824Y-10327110D02*
X11865301Y-10317586D01*
X11865301Y-10317586D02*
X11855777Y-10298539D01*
X11855777Y-10298539D02*
X11846253Y-10260443D01*
X11846253Y-10260443D02*
X11846253Y-10212824D01*
X11846253Y-10212824D02*
X11855777Y-10174729D01*
X11855777Y-10174729D02*
X11865301Y-10155681D01*
X11865301Y-10155681D02*
X11874824Y-10146158D01*
X11874824Y-10146158D02*
X11893872Y-10136634D01*
X12046253Y-10317586D02*
X12055777Y-10327110D01*
X12055777Y-10327110D02*
X12046253Y-10336634D01*
X12046253Y-10336634D02*
X12036729Y-10327110D01*
X12036729Y-10327110D02*
X12046253Y-10317586D01*
X12046253Y-10317586D02*
X12046253Y-10336634D01*
X12236729Y-10136634D02*
X12141491Y-10136634D01*
X12141491Y-10136634D02*
X12131967Y-10231872D01*
X12131967Y-10231872D02*
X12141491Y-10222348D01*
X12141491Y-10222348D02*
X12160539Y-10212824D01*
X12160539Y-10212824D02*
X12208158Y-10212824D01*
X12208158Y-10212824D02*
X12227205Y-10222348D01*
X12227205Y-10222348D02*
X12236729Y-10231872D01*
X12236729Y-10231872D02*
X12246253Y-10250920D01*
X12246253Y-10250920D02*
X12246253Y-10298539D01*
X12246253Y-10298539D02*
X12236729Y-10317586D01*
X12236729Y-10317586D02*
X12227205Y-10327110D01*
X12227205Y-10327110D02*
X12208158Y-10336634D01*
X12208158Y-10336634D02*
X12160539Y-10336634D01*
X12160539Y-10336634D02*
X12141491Y-10327110D01*
X12141491Y-10327110D02*
X12131967Y-10317586D01*
X12370062Y-10136634D02*
X12389110Y-10136634D01*
X12389110Y-10136634D02*
X12408158Y-10146158D01*
X12408158Y-10146158D02*
X12417682Y-10155681D01*
X12417682Y-10155681D02*
X12427205Y-10174729D01*
X12427205Y-10174729D02*
X12436729Y-10212824D01*
X12436729Y-10212824D02*
X12436729Y-10260443D01*
X12436729Y-10260443D02*
X12427205Y-10298539D01*
X12427205Y-10298539D02*
X12417682Y-10317586D01*
X12417682Y-10317586D02*
X12408158Y-10327110D01*
X12408158Y-10327110D02*
X12389110Y-10336634D01*
X12389110Y-10336634D02*
X12370062Y-10336634D01*
X12370062Y-10336634D02*
X12351015Y-10327110D01*
X12351015Y-10327110D02*
X12341491Y-10317586D01*
X12341491Y-10317586D02*
X12331967Y-10298539D01*
X12331967Y-10298539D02*
X12322443Y-10260443D01*
X12322443Y-10260443D02*
X12322443Y-10212824D01*
X12322443Y-10212824D02*
X12331967Y-10174729D01*
X12331967Y-10174729D02*
X12341491Y-10155681D01*
X12341491Y-10155681D02*
X12351015Y-10146158D01*
X12351015Y-10146158D02*
X12370062Y-10136634D01*
X12560539Y-10136634D02*
X12579586Y-10136634D01*
X12579586Y-10136634D02*
X12598634Y-10146158D01*
X12598634Y-10146158D02*
X12608158Y-10155681D01*
X12608158Y-10155681D02*
X12617682Y-10174729D01*
X12617682Y-10174729D02*
X12627205Y-10212824D01*
X12627205Y-10212824D02*
X12627205Y-10260443D01*
X12627205Y-10260443D02*
X12617682Y-10298539D01*
X12617682Y-10298539D02*
X12608158Y-10317586D01*
X12608158Y-10317586D02*
X12598634Y-10327110D01*
X12598634Y-10327110D02*
X12579586Y-10336634D01*
X12579586Y-10336634D02*
X12560539Y-10336634D01*
X12560539Y-10336634D02*
X12541491Y-10327110D01*
X12541491Y-10327110D02*
X12531967Y-10317586D01*
X12531967Y-10317586D02*
X12522443Y-10298539D01*
X12522443Y-10298539D02*
X12512920Y-10260443D01*
X12512920Y-10260443D02*
X12512920Y-10212824D01*
X12512920Y-10212824D02*
X12522443Y-10174729D01*
X12522443Y-10174729D02*
X12531967Y-10155681D01*
X12531967Y-10155681D02*
X12541491Y-10146158D01*
X12541491Y-10146158D02*
X12560539Y-10136634D01*
X12712920Y-10336634D02*
X12712920Y-10203300D01*
X12712920Y-10222348D02*
X12722443Y-10212824D01*
X12722443Y-10212824D02*
X12741491Y-10203300D01*
X12741491Y-10203300D02*
X12770063Y-10203300D01*
X12770063Y-10203300D02*
X12789110Y-10212824D01*
X12789110Y-10212824D02*
X12798634Y-10231872D01*
X12798634Y-10231872D02*
X12798634Y-10336634D01*
X12798634Y-10231872D02*
X12808158Y-10212824D01*
X12808158Y-10212824D02*
X12827205Y-10203300D01*
X12827205Y-10203300D02*
X12855777Y-10203300D01*
X12855777Y-10203300D02*
X12874824Y-10212824D01*
X12874824Y-10212824D02*
X12884348Y-10231872D01*
X12884348Y-10231872D02*
X12884348Y-10336634D01*
X12979586Y-10336634D02*
X12979586Y-10203300D01*
X12979586Y-10222348D02*
X12989110Y-10212824D01*
X12989110Y-10212824D02*
X13008158Y-10203300D01*
X13008158Y-10203300D02*
X13036729Y-10203300D01*
X13036729Y-10203300D02*
X13055777Y-10212824D01*
X13055777Y-10212824D02*
X13065301Y-10231872D01*
X13065301Y-10231872D02*
X13065301Y-10336634D01*
X13065301Y-10231872D02*
X13074824Y-10212824D01*
X13074824Y-10212824D02*
X13093872Y-10203300D01*
X13093872Y-10203300D02*
X13122443Y-10203300D01*
X13122443Y-10203300D02*
X13141491Y-10212824D01*
X13141491Y-10212824D02*
X13151015Y-10231872D01*
X13151015Y-10231872D02*
X13151015Y-10336634D01*
X13541491Y-10127110D02*
X13370063Y-10384253D01*
X13798634Y-10136634D02*
X13817682Y-10136634D01*
X13817682Y-10136634D02*
X13836729Y-10146158D01*
X13836729Y-10146158D02*
X13846253Y-10155681D01*
X13846253Y-10155681D02*
X13855777Y-10174729D01*
X13855777Y-10174729D02*
X13865301Y-10212824D01*
X13865301Y-10212824D02*
X13865301Y-10260443D01*
X13865301Y-10260443D02*
X13855777Y-10298539D01*
X13855777Y-10298539D02*
X13846253Y-10317586D01*
X13846253Y-10317586D02*
X13836729Y-10327110D01*
X13836729Y-10327110D02*
X13817682Y-10336634D01*
X13817682Y-10336634D02*
X13798634Y-10336634D01*
X13798634Y-10336634D02*
X13779586Y-10327110D01*
X13779586Y-10327110D02*
X13770063Y-10317586D01*
X13770063Y-10317586D02*
X13760539Y-10298539D01*
X13760539Y-10298539D02*
X13751015Y-10260443D01*
X13751015Y-10260443D02*
X13751015Y-10212824D01*
X13751015Y-10212824D02*
X13760539Y-10174729D01*
X13760539Y-10174729D02*
X13770063Y-10155681D01*
X13770063Y-10155681D02*
X13779586Y-10146158D01*
X13779586Y-10146158D02*
X13798634Y-10136634D01*
X13951015Y-10317586D02*
X13960539Y-10327110D01*
X13960539Y-10327110D02*
X13951015Y-10336634D01*
X13951015Y-10336634D02*
X13941491Y-10327110D01*
X13941491Y-10327110D02*
X13951015Y-10317586D01*
X13951015Y-10317586D02*
X13951015Y-10336634D01*
X14084348Y-10136634D02*
X14103396Y-10136634D01*
X14103396Y-10136634D02*
X14122444Y-10146158D01*
X14122444Y-10146158D02*
X14131967Y-10155681D01*
X14131967Y-10155681D02*
X14141491Y-10174729D01*
X14141491Y-10174729D02*
X14151015Y-10212824D01*
X14151015Y-10212824D02*
X14151015Y-10260443D01*
X14151015Y-10260443D02*
X14141491Y-10298539D01*
X14141491Y-10298539D02*
X14131967Y-10317586D01*
X14131967Y-10317586D02*
X14122444Y-10327110D01*
X14122444Y-10327110D02*
X14103396Y-10336634D01*
X14103396Y-10336634D02*
X14084348Y-10336634D01*
X14084348Y-10336634D02*
X14065301Y-10327110D01*
X14065301Y-10327110D02*
X14055777Y-10317586D01*
X14055777Y-10317586D02*
X14046253Y-10298539D01*
X14046253Y-10298539D02*
X14036729Y-10260443D01*
X14036729Y-10260443D02*
X14036729Y-10212824D01*
X14036729Y-10212824D02*
X14046253Y-10174729D01*
X14046253Y-10174729D02*
X14055777Y-10155681D01*
X14055777Y-10155681D02*
X14065301Y-10146158D01*
X14065301Y-10146158D02*
X14084348Y-10136634D01*
X14341491Y-10336634D02*
X14227206Y-10336634D01*
X14284348Y-10336634D02*
X14284348Y-10136634D01*
X14284348Y-10136634D02*
X14265301Y-10165205D01*
X14265301Y-10165205D02*
X14246253Y-10184253D01*
X14246253Y-10184253D02*
X14227206Y-10193777D01*
X14436729Y-10336634D02*
X14474825Y-10336634D01*
X14474825Y-10336634D02*
X14493872Y-10327110D01*
X14493872Y-10327110D02*
X14503396Y-10317586D01*
X14503396Y-10317586D02*
X14522444Y-10289015D01*
X14522444Y-10289015D02*
X14531967Y-10250920D01*
X14531967Y-10250920D02*
X14531967Y-10174729D01*
X14531967Y-10174729D02*
X14522444Y-10155681D01*
X14522444Y-10155681D02*
X14512920Y-10146158D01*
X14512920Y-10146158D02*
X14493872Y-10136634D01*
X14493872Y-10136634D02*
X14455777Y-10136634D01*
X14455777Y-10136634D02*
X14436729Y-10146158D01*
X14436729Y-10146158D02*
X14427206Y-10155681D01*
X14427206Y-10155681D02*
X14417682Y-10174729D01*
X14417682Y-10174729D02*
X14417682Y-10222348D01*
X14417682Y-10222348D02*
X14427206Y-10241396D01*
X14427206Y-10241396D02*
X14436729Y-10250920D01*
X14436729Y-10250920D02*
X14455777Y-10260443D01*
X14455777Y-10260443D02*
X14493872Y-10260443D01*
X14493872Y-10260443D02*
X14512920Y-10250920D01*
X14512920Y-10250920D02*
X14522444Y-10241396D01*
X14522444Y-10241396D02*
X14531967Y-10222348D01*
X14598634Y-10136634D02*
X14731967Y-10136634D01*
X14731967Y-10136634D02*
X14646253Y-10336634D01*
X14798634Y-10136634D02*
X14798634Y-10174729D01*
X14874825Y-10136634D02*
X14874825Y-10174729D01*
X15170063Y-10412824D02*
X15160539Y-10403300D01*
X15160539Y-10403300D02*
X15141491Y-10374729D01*
X15141491Y-10374729D02*
X15131968Y-10355681D01*
X15131968Y-10355681D02*
X15122444Y-10327110D01*
X15122444Y-10327110D02*
X15112920Y-10279491D01*
X15112920Y-10279491D02*
X15112920Y-10241396D01*
X15112920Y-10241396D02*
X15122444Y-10193777D01*
X15122444Y-10193777D02*
X15131968Y-10165205D01*
X15131968Y-10165205D02*
X15141491Y-10146158D01*
X15141491Y-10146158D02*
X15160539Y-10117586D01*
X15160539Y-10117586D02*
X15170063Y-10108062D01*
X15274825Y-10222348D02*
X15255777Y-10212824D01*
X15255777Y-10212824D02*
X15246253Y-10203300D01*
X15246253Y-10203300D02*
X15236729Y-10184253D01*
X15236729Y-10184253D02*
X15236729Y-10174729D01*
X15236729Y-10174729D02*
X15246253Y-10155681D01*
X15246253Y-10155681D02*
X15255777Y-10146158D01*
X15255777Y-10146158D02*
X15274825Y-10136634D01*
X15274825Y-10136634D02*
X15312920Y-10136634D01*
X15312920Y-10136634D02*
X15331968Y-10146158D01*
X15331968Y-10146158D02*
X15341491Y-10155681D01*
X15341491Y-10155681D02*
X15351015Y-10174729D01*
X15351015Y-10174729D02*
X15351015Y-10184253D01*
X15351015Y-10184253D02*
X15341491Y-10203300D01*
X15341491Y-10203300D02*
X15331968Y-10212824D01*
X15331968Y-10212824D02*
X15312920Y-10222348D01*
X15312920Y-10222348D02*
X15274825Y-10222348D01*
X15274825Y-10222348D02*
X15255777Y-10231872D01*
X15255777Y-10231872D02*
X15246253Y-10241396D01*
X15246253Y-10241396D02*
X15236729Y-10260443D01*
X15236729Y-10260443D02*
X15236729Y-10298539D01*
X15236729Y-10298539D02*
X15246253Y-10317586D01*
X15246253Y-10317586D02*
X15255777Y-10327110D01*
X15255777Y-10327110D02*
X15274825Y-10336634D01*
X15274825Y-10336634D02*
X15312920Y-10336634D01*
X15312920Y-10336634D02*
X15331968Y-10327110D01*
X15331968Y-10327110D02*
X15341491Y-10317586D01*
X15341491Y-10317586D02*
X15351015Y-10298539D01*
X15351015Y-10298539D02*
X15351015Y-10260443D01*
X15351015Y-10260443D02*
X15341491Y-10241396D01*
X15341491Y-10241396D02*
X15331968Y-10231872D01*
X15331968Y-10231872D02*
X15312920Y-10222348D01*
X15474825Y-10136634D02*
X15493872Y-10136634D01*
X15493872Y-10136634D02*
X15512920Y-10146158D01*
X15512920Y-10146158D02*
X15522444Y-10155681D01*
X15522444Y-10155681D02*
X15531968Y-10174729D01*
X15531968Y-10174729D02*
X15541491Y-10212824D01*
X15541491Y-10212824D02*
X15541491Y-10260443D01*
X15541491Y-10260443D02*
X15531968Y-10298539D01*
X15531968Y-10298539D02*
X15522444Y-10317586D01*
X15522444Y-10317586D02*
X15512920Y-10327110D01*
X15512920Y-10327110D02*
X15493872Y-10336634D01*
X15493872Y-10336634D02*
X15474825Y-10336634D01*
X15474825Y-10336634D02*
X15455777Y-10327110D01*
X15455777Y-10327110D02*
X15446253Y-10317586D01*
X15446253Y-10317586D02*
X15436729Y-10298539D01*
X15436729Y-10298539D02*
X15427206Y-10260443D01*
X15427206Y-10260443D02*
X15427206Y-10212824D01*
X15427206Y-10212824D02*
X15436729Y-10174729D01*
X15436729Y-10174729D02*
X15446253Y-10155681D01*
X15446253Y-10155681D02*
X15455777Y-10146158D01*
X15455777Y-10146158D02*
X15474825Y-10136634D01*
X15779587Y-10336634D02*
X15779587Y-10136634D01*
X15865301Y-10336634D02*
X15865301Y-10231872D01*
X15865301Y-10231872D02*
X15855777Y-10212824D01*
X15855777Y-10212824D02*
X15836730Y-10203300D01*
X15836730Y-10203300D02*
X15808158Y-10203300D01*
X15808158Y-10203300D02*
X15789110Y-10212824D01*
X15789110Y-10212824D02*
X15779587Y-10222348D01*
X15989110Y-10336634D02*
X15970063Y-10327110D01*
X15970063Y-10327110D02*
X15960539Y-10317586D01*
X15960539Y-10317586D02*
X15951015Y-10298539D01*
X15951015Y-10298539D02*
X15951015Y-10241396D01*
X15951015Y-10241396D02*
X15960539Y-10222348D01*
X15960539Y-10222348D02*
X15970063Y-10212824D01*
X15970063Y-10212824D02*
X15989110Y-10203300D01*
X15989110Y-10203300D02*
X16017682Y-10203300D01*
X16017682Y-10203300D02*
X16036730Y-10212824D01*
X16036730Y-10212824D02*
X16046253Y-10222348D01*
X16046253Y-10222348D02*
X16055777Y-10241396D01*
X16055777Y-10241396D02*
X16055777Y-10298539D01*
X16055777Y-10298539D02*
X16046253Y-10317586D01*
X16046253Y-10317586D02*
X16036730Y-10327110D01*
X16036730Y-10327110D02*
X16017682Y-10336634D01*
X16017682Y-10336634D02*
X15989110Y-10336634D01*
X16170063Y-10336634D02*
X16151015Y-10327110D01*
X16151015Y-10327110D02*
X16141491Y-10308062D01*
X16141491Y-10308062D02*
X16141491Y-10136634D01*
X16322444Y-10327110D02*
X16303396Y-10336634D01*
X16303396Y-10336634D02*
X16265301Y-10336634D01*
X16265301Y-10336634D02*
X16246253Y-10327110D01*
X16246253Y-10327110D02*
X16236730Y-10308062D01*
X16236730Y-10308062D02*
X16236730Y-10231872D01*
X16236730Y-10231872D02*
X16246253Y-10212824D01*
X16246253Y-10212824D02*
X16265301Y-10203300D01*
X16265301Y-10203300D02*
X16303396Y-10203300D01*
X16303396Y-10203300D02*
X16322444Y-10212824D01*
X16322444Y-10212824D02*
X16331968Y-10231872D01*
X16331968Y-10231872D02*
X16331968Y-10250920D01*
X16331968Y-10250920D02*
X16236730Y-10269967D01*
X16408158Y-10327110D02*
X16427206Y-10336634D01*
X16427206Y-10336634D02*
X16465301Y-10336634D01*
X16465301Y-10336634D02*
X16484349Y-10327110D01*
X16484349Y-10327110D02*
X16493872Y-10308062D01*
X16493872Y-10308062D02*
X16493872Y-10298539D01*
X16493872Y-10298539D02*
X16484349Y-10279491D01*
X16484349Y-10279491D02*
X16465301Y-10269967D01*
X16465301Y-10269967D02*
X16436730Y-10269967D01*
X16436730Y-10269967D02*
X16417682Y-10260443D01*
X16417682Y-10260443D02*
X16408158Y-10241396D01*
X16408158Y-10241396D02*
X16408158Y-10231872D01*
X16408158Y-10231872D02*
X16417682Y-10212824D01*
X16417682Y-10212824D02*
X16436730Y-10203300D01*
X16436730Y-10203300D02*
X16465301Y-10203300D01*
X16465301Y-10203300D02*
X16484349Y-10212824D01*
X16560539Y-10412824D02*
X16570063Y-10403300D01*
X16570063Y-10403300D02*
X16589111Y-10374729D01*
X16589111Y-10374729D02*
X16598634Y-10355681D01*
X16598634Y-10355681D02*
X16608158Y-10327110D01*
X16608158Y-10327110D02*
X16617682Y-10279491D01*
X16617682Y-10279491D02*
X16617682Y-10241396D01*
X16617682Y-10241396D02*
X16608158Y-10193777D01*
X16608158Y-10193777D02*
X16598634Y-10165205D01*
X16598634Y-10165205D02*
X16589111Y-10146158D01*
X16589111Y-10146158D02*
X16570063Y-10117586D01*
X16570063Y-10117586D02*
X16560539Y-10108062D01*
X16922444Y-10412824D02*
X16912920Y-10403300D01*
X16912920Y-10403300D02*
X16893873Y-10374729D01*
X16893873Y-10374729D02*
X16884349Y-10355681D01*
X16884349Y-10355681D02*
X16874825Y-10327110D01*
X16874825Y-10327110D02*
X16865301Y-10279491D01*
X16865301Y-10279491D02*
X16865301Y-10241396D01*
X16865301Y-10241396D02*
X16874825Y-10193777D01*
X16874825Y-10193777D02*
X16884349Y-10165205D01*
X16884349Y-10165205D02*
X16893873Y-10146158D01*
X16893873Y-10146158D02*
X16912920Y-10117586D01*
X16912920Y-10117586D02*
X16922444Y-10108062D01*
X16998634Y-10203300D02*
X16998634Y-10336634D01*
X16998634Y-10222348D02*
X17008158Y-10212824D01*
X17008158Y-10212824D02*
X17027206Y-10203300D01*
X17027206Y-10203300D02*
X17055777Y-10203300D01*
X17055777Y-10203300D02*
X17074825Y-10212824D01*
X17074825Y-10212824D02*
X17084349Y-10231872D01*
X17084349Y-10231872D02*
X17084349Y-10336634D01*
X17208158Y-10336634D02*
X17189111Y-10327110D01*
X17189111Y-10327110D02*
X17179587Y-10317586D01*
X17179587Y-10317586D02*
X17170063Y-10298539D01*
X17170063Y-10298539D02*
X17170063Y-10241396D01*
X17170063Y-10241396D02*
X17179587Y-10222348D01*
X17179587Y-10222348D02*
X17189111Y-10212824D01*
X17189111Y-10212824D02*
X17208158Y-10203300D01*
X17208158Y-10203300D02*
X17236730Y-10203300D01*
X17236730Y-10203300D02*
X17255777Y-10212824D01*
X17255777Y-10212824D02*
X17265301Y-10222348D01*
X17265301Y-10222348D02*
X17274825Y-10241396D01*
X17274825Y-10241396D02*
X17274825Y-10298539D01*
X17274825Y-10298539D02*
X17265301Y-10317586D01*
X17265301Y-10317586D02*
X17255777Y-10327110D01*
X17255777Y-10327110D02*
X17236730Y-10336634D01*
X17236730Y-10336634D02*
X17208158Y-10336634D01*
X17331968Y-10203300D02*
X17408158Y-10203300D01*
X17360539Y-10136634D02*
X17360539Y-10308062D01*
X17360539Y-10308062D02*
X17370063Y-10327110D01*
X17370063Y-10327110D02*
X17389111Y-10336634D01*
X17389111Y-10336634D02*
X17408158Y-10336634D01*
X17627206Y-10203300D02*
X17627206Y-10403300D01*
X17627206Y-10212824D02*
X17646254Y-10203300D01*
X17646254Y-10203300D02*
X17684349Y-10203300D01*
X17684349Y-10203300D02*
X17703396Y-10212824D01*
X17703396Y-10212824D02*
X17712920Y-10222348D01*
X17712920Y-10222348D02*
X17722444Y-10241396D01*
X17722444Y-10241396D02*
X17722444Y-10298539D01*
X17722444Y-10298539D02*
X17712920Y-10317586D01*
X17712920Y-10317586D02*
X17703396Y-10327110D01*
X17703396Y-10327110D02*
X17684349Y-10336634D01*
X17684349Y-10336634D02*
X17646254Y-10336634D01*
X17646254Y-10336634D02*
X17627206Y-10327110D01*
X17836730Y-10336634D02*
X17817682Y-10327110D01*
X17817682Y-10327110D02*
X17808158Y-10308062D01*
X17808158Y-10308062D02*
X17808158Y-10136634D01*
X17998635Y-10336634D02*
X17998635Y-10231872D01*
X17998635Y-10231872D02*
X17989111Y-10212824D01*
X17989111Y-10212824D02*
X17970063Y-10203300D01*
X17970063Y-10203300D02*
X17931968Y-10203300D01*
X17931968Y-10203300D02*
X17912920Y-10212824D01*
X17998635Y-10327110D02*
X17979587Y-10336634D01*
X17979587Y-10336634D02*
X17931968Y-10336634D01*
X17931968Y-10336634D02*
X17912920Y-10327110D01*
X17912920Y-10327110D02*
X17903396Y-10308062D01*
X17903396Y-10308062D02*
X17903396Y-10289015D01*
X17903396Y-10289015D02*
X17912920Y-10269967D01*
X17912920Y-10269967D02*
X17931968Y-10260443D01*
X17931968Y-10260443D02*
X17979587Y-10260443D01*
X17979587Y-10260443D02*
X17998635Y-10250920D01*
X18065301Y-10203300D02*
X18141492Y-10203300D01*
X18093873Y-10136634D02*
X18093873Y-10308062D01*
X18093873Y-10308062D02*
X18103396Y-10327110D01*
X18103396Y-10327110D02*
X18122444Y-10336634D01*
X18122444Y-10336634D02*
X18141492Y-10336634D01*
X18284349Y-10327110D02*
X18265301Y-10336634D01*
X18265301Y-10336634D02*
X18227206Y-10336634D01*
X18227206Y-10336634D02*
X18208158Y-10327110D01*
X18208158Y-10327110D02*
X18198635Y-10308062D01*
X18198635Y-10308062D02*
X18198635Y-10231872D01*
X18198635Y-10231872D02*
X18208158Y-10212824D01*
X18208158Y-10212824D02*
X18227206Y-10203300D01*
X18227206Y-10203300D02*
X18265301Y-10203300D01*
X18265301Y-10203300D02*
X18284349Y-10212824D01*
X18284349Y-10212824D02*
X18293873Y-10231872D01*
X18293873Y-10231872D02*
X18293873Y-10250920D01*
X18293873Y-10250920D02*
X18198635Y-10269967D01*
X18465301Y-10336634D02*
X18465301Y-10136634D01*
X18465301Y-10327110D02*
X18446254Y-10336634D01*
X18446254Y-10336634D02*
X18408158Y-10336634D01*
X18408158Y-10336634D02*
X18389111Y-10327110D01*
X18389111Y-10327110D02*
X18379587Y-10317586D01*
X18379587Y-10317586D02*
X18370063Y-10298539D01*
X18370063Y-10298539D02*
X18370063Y-10241396D01*
X18370063Y-10241396D02*
X18379587Y-10222348D01*
X18379587Y-10222348D02*
X18389111Y-10212824D01*
X18389111Y-10212824D02*
X18408158Y-10203300D01*
X18408158Y-10203300D02*
X18446254Y-10203300D01*
X18446254Y-10203300D02*
X18465301Y-10212824D01*
X18541492Y-10412824D02*
X18551016Y-10403300D01*
X18551016Y-10403300D02*
X18570063Y-10374729D01*
X18570063Y-10374729D02*
X18579587Y-10355681D01*
X18579587Y-10355681D02*
X18589111Y-10327110D01*
X18589111Y-10327110D02*
X18598635Y-10279491D01*
X18598635Y-10279491D02*
X18598635Y-10241396D01*
X18598635Y-10241396D02*
X18589111Y-10193777D01*
X18589111Y-10193777D02*
X18579587Y-10165205D01*
X18579587Y-10165205D02*
X18570063Y-10146158D01*
X18570063Y-10146158D02*
X18551016Y-10117586D01*
X18551016Y-10117586D02*
X18541492Y-10108062D01*
X11595000Y-10509150D02*
G75*
G02*
X11395000Y-10509150I-100000J0D01*
G01*
X11395000Y-10509150D02*
G75*
G02*
X11595000Y-10509150I100000J0D01*
G01*
X11846253Y-10419681D02*
X11855777Y-10410158D01*
X11855777Y-10410158D02*
X11874824Y-10400634D01*
X11874824Y-10400634D02*
X11922443Y-10400634D01*
X11922443Y-10400634D02*
X11941491Y-10410158D01*
X11941491Y-10410158D02*
X11951015Y-10419681D01*
X11951015Y-10419681D02*
X11960539Y-10438729D01*
X11960539Y-10438729D02*
X11960539Y-10457777D01*
X11960539Y-10457777D02*
X11951015Y-10486348D01*
X11951015Y-10486348D02*
X11836729Y-10600634D01*
X11836729Y-10600634D02*
X11960539Y-10600634D01*
X12046253Y-10581586D02*
X12055777Y-10591110D01*
X12055777Y-10591110D02*
X12046253Y-10600634D01*
X12046253Y-10600634D02*
X12036729Y-10591110D01*
X12036729Y-10591110D02*
X12046253Y-10581586D01*
X12046253Y-10581586D02*
X12046253Y-10600634D01*
X12131967Y-10419681D02*
X12141491Y-10410158D01*
X12141491Y-10410158D02*
X12160539Y-10400634D01*
X12160539Y-10400634D02*
X12208158Y-10400634D01*
X12208158Y-10400634D02*
X12227205Y-10410158D01*
X12227205Y-10410158D02*
X12236729Y-10419681D01*
X12236729Y-10419681D02*
X12246253Y-10438729D01*
X12246253Y-10438729D02*
X12246253Y-10457777D01*
X12246253Y-10457777D02*
X12236729Y-10486348D01*
X12236729Y-10486348D02*
X12122443Y-10600634D01*
X12122443Y-10600634D02*
X12246253Y-10600634D01*
X12370062Y-10400634D02*
X12389110Y-10400634D01*
X12389110Y-10400634D02*
X12408158Y-10410158D01*
X12408158Y-10410158D02*
X12417682Y-10419681D01*
X12417682Y-10419681D02*
X12427205Y-10438729D01*
X12427205Y-10438729D02*
X12436729Y-10476824D01*
X12436729Y-10476824D02*
X12436729Y-10524443D01*
X12436729Y-10524443D02*
X12427205Y-10562539D01*
X12427205Y-10562539D02*
X12417682Y-10581586D01*
X12417682Y-10581586D02*
X12408158Y-10591110D01*
X12408158Y-10591110D02*
X12389110Y-10600634D01*
X12389110Y-10600634D02*
X12370062Y-10600634D01*
X12370062Y-10600634D02*
X12351015Y-10591110D01*
X12351015Y-10591110D02*
X12341491Y-10581586D01*
X12341491Y-10581586D02*
X12331967Y-10562539D01*
X12331967Y-10562539D02*
X12322443Y-10524443D01*
X12322443Y-10524443D02*
X12322443Y-10476824D01*
X12322443Y-10476824D02*
X12331967Y-10438729D01*
X12331967Y-10438729D02*
X12341491Y-10419681D01*
X12341491Y-10419681D02*
X12351015Y-10410158D01*
X12351015Y-10410158D02*
X12370062Y-10400634D01*
X12560539Y-10400634D02*
X12579586Y-10400634D01*
X12579586Y-10400634D02*
X12598634Y-10410158D01*
X12598634Y-10410158D02*
X12608158Y-10419681D01*
X12608158Y-10419681D02*
X12617682Y-10438729D01*
X12617682Y-10438729D02*
X12627205Y-10476824D01*
X12627205Y-10476824D02*
X12627205Y-10524443D01*
X12627205Y-10524443D02*
X12617682Y-10562539D01*
X12617682Y-10562539D02*
X12608158Y-10581586D01*
X12608158Y-10581586D02*
X12598634Y-10591110D01*
X12598634Y-10591110D02*
X12579586Y-10600634D01*
X12579586Y-10600634D02*
X12560539Y-10600634D01*
X12560539Y-10600634D02*
X12541491Y-10591110D01*
X12541491Y-10591110D02*
X12531967Y-10581586D01*
X12531967Y-10581586D02*
X12522443Y-10562539D01*
X12522443Y-10562539D02*
X12512920Y-10524443D01*
X12512920Y-10524443D02*
X12512920Y-10476824D01*
X12512920Y-10476824D02*
X12522443Y-10438729D01*
X12522443Y-10438729D02*
X12531967Y-10419681D01*
X12531967Y-10419681D02*
X12541491Y-10410158D01*
X12541491Y-10410158D02*
X12560539Y-10400634D01*
X12712920Y-10600634D02*
X12712920Y-10467300D01*
X12712920Y-10486348D02*
X12722443Y-10476824D01*
X12722443Y-10476824D02*
X12741491Y-10467300D01*
X12741491Y-10467300D02*
X12770063Y-10467300D01*
X12770063Y-10467300D02*
X12789110Y-10476824D01*
X12789110Y-10476824D02*
X12798634Y-10495872D01*
X12798634Y-10495872D02*
X12798634Y-10600634D01*
X12798634Y-10495872D02*
X12808158Y-10476824D01*
X12808158Y-10476824D02*
X12827205Y-10467300D01*
X12827205Y-10467300D02*
X12855777Y-10467300D01*
X12855777Y-10467300D02*
X12874824Y-10476824D01*
X12874824Y-10476824D02*
X12884348Y-10495872D01*
X12884348Y-10495872D02*
X12884348Y-10600634D01*
X12979586Y-10600634D02*
X12979586Y-10467300D01*
X12979586Y-10486348D02*
X12989110Y-10476824D01*
X12989110Y-10476824D02*
X13008158Y-10467300D01*
X13008158Y-10467300D02*
X13036729Y-10467300D01*
X13036729Y-10467300D02*
X13055777Y-10476824D01*
X13055777Y-10476824D02*
X13065301Y-10495872D01*
X13065301Y-10495872D02*
X13065301Y-10600634D01*
X13065301Y-10495872D02*
X13074824Y-10476824D01*
X13074824Y-10476824D02*
X13093872Y-10467300D01*
X13093872Y-10467300D02*
X13122443Y-10467300D01*
X13122443Y-10467300D02*
X13141491Y-10476824D01*
X13141491Y-10476824D02*
X13151015Y-10495872D01*
X13151015Y-10495872D02*
X13151015Y-10600634D01*
X13541491Y-10391110D02*
X13370063Y-10648253D01*
X13798634Y-10400634D02*
X13817682Y-10400634D01*
X13817682Y-10400634D02*
X13836729Y-10410158D01*
X13836729Y-10410158D02*
X13846253Y-10419681D01*
X13846253Y-10419681D02*
X13855777Y-10438729D01*
X13855777Y-10438729D02*
X13865301Y-10476824D01*
X13865301Y-10476824D02*
X13865301Y-10524443D01*
X13865301Y-10524443D02*
X13855777Y-10562539D01*
X13855777Y-10562539D02*
X13846253Y-10581586D01*
X13846253Y-10581586D02*
X13836729Y-10591110D01*
X13836729Y-10591110D02*
X13817682Y-10600634D01*
X13817682Y-10600634D02*
X13798634Y-10600634D01*
X13798634Y-10600634D02*
X13779586Y-10591110D01*
X13779586Y-10591110D02*
X13770063Y-10581586D01*
X13770063Y-10581586D02*
X13760539Y-10562539D01*
X13760539Y-10562539D02*
X13751015Y-10524443D01*
X13751015Y-10524443D02*
X13751015Y-10476824D01*
X13751015Y-10476824D02*
X13760539Y-10438729D01*
X13760539Y-10438729D02*
X13770063Y-10419681D01*
X13770063Y-10419681D02*
X13779586Y-10410158D01*
X13779586Y-10410158D02*
X13798634Y-10400634D01*
X13951015Y-10581586D02*
X13960539Y-10591110D01*
X13960539Y-10591110D02*
X13951015Y-10600634D01*
X13951015Y-10600634D02*
X13941491Y-10591110D01*
X13941491Y-10591110D02*
X13951015Y-10581586D01*
X13951015Y-10581586D02*
X13951015Y-10600634D01*
X14084348Y-10400634D02*
X14103396Y-10400634D01*
X14103396Y-10400634D02*
X14122444Y-10410158D01*
X14122444Y-10410158D02*
X14131967Y-10419681D01*
X14131967Y-10419681D02*
X14141491Y-10438729D01*
X14141491Y-10438729D02*
X14151015Y-10476824D01*
X14151015Y-10476824D02*
X14151015Y-10524443D01*
X14151015Y-10524443D02*
X14141491Y-10562539D01*
X14141491Y-10562539D02*
X14131967Y-10581586D01*
X14131967Y-10581586D02*
X14122444Y-10591110D01*
X14122444Y-10591110D02*
X14103396Y-10600634D01*
X14103396Y-10600634D02*
X14084348Y-10600634D01*
X14084348Y-10600634D02*
X14065301Y-10591110D01*
X14065301Y-10591110D02*
X14055777Y-10581586D01*
X14055777Y-10581586D02*
X14046253Y-10562539D01*
X14046253Y-10562539D02*
X14036729Y-10524443D01*
X14036729Y-10524443D02*
X14036729Y-10476824D01*
X14036729Y-10476824D02*
X14046253Y-10438729D01*
X14046253Y-10438729D02*
X14055777Y-10419681D01*
X14055777Y-10419681D02*
X14065301Y-10410158D01*
X14065301Y-10410158D02*
X14084348Y-10400634D01*
X14265301Y-10486348D02*
X14246253Y-10476824D01*
X14246253Y-10476824D02*
X14236729Y-10467300D01*
X14236729Y-10467300D02*
X14227206Y-10448253D01*
X14227206Y-10448253D02*
X14227206Y-10438729D01*
X14227206Y-10438729D02*
X14236729Y-10419681D01*
X14236729Y-10419681D02*
X14246253Y-10410158D01*
X14246253Y-10410158D02*
X14265301Y-10400634D01*
X14265301Y-10400634D02*
X14303396Y-10400634D01*
X14303396Y-10400634D02*
X14322444Y-10410158D01*
X14322444Y-10410158D02*
X14331967Y-10419681D01*
X14331967Y-10419681D02*
X14341491Y-10438729D01*
X14341491Y-10438729D02*
X14341491Y-10448253D01*
X14341491Y-10448253D02*
X14331967Y-10467300D01*
X14331967Y-10467300D02*
X14322444Y-10476824D01*
X14322444Y-10476824D02*
X14303396Y-10486348D01*
X14303396Y-10486348D02*
X14265301Y-10486348D01*
X14265301Y-10486348D02*
X14246253Y-10495872D01*
X14246253Y-10495872D02*
X14236729Y-10505396D01*
X14236729Y-10505396D02*
X14227206Y-10524443D01*
X14227206Y-10524443D02*
X14227206Y-10562539D01*
X14227206Y-10562539D02*
X14236729Y-10581586D01*
X14236729Y-10581586D02*
X14246253Y-10591110D01*
X14246253Y-10591110D02*
X14265301Y-10600634D01*
X14265301Y-10600634D02*
X14303396Y-10600634D01*
X14303396Y-10600634D02*
X14322444Y-10591110D01*
X14322444Y-10591110D02*
X14331967Y-10581586D01*
X14331967Y-10581586D02*
X14341491Y-10562539D01*
X14341491Y-10562539D02*
X14341491Y-10524443D01*
X14341491Y-10524443D02*
X14331967Y-10505396D01*
X14331967Y-10505396D02*
X14322444Y-10495872D01*
X14322444Y-10495872D02*
X14303396Y-10486348D01*
X14512920Y-10400634D02*
X14474825Y-10400634D01*
X14474825Y-10400634D02*
X14455777Y-10410158D01*
X14455777Y-10410158D02*
X14446253Y-10419681D01*
X14446253Y-10419681D02*
X14427206Y-10448253D01*
X14427206Y-10448253D02*
X14417682Y-10486348D01*
X14417682Y-10486348D02*
X14417682Y-10562539D01*
X14417682Y-10562539D02*
X14427206Y-10581586D01*
X14427206Y-10581586D02*
X14436729Y-10591110D01*
X14436729Y-10591110D02*
X14455777Y-10600634D01*
X14455777Y-10600634D02*
X14493872Y-10600634D01*
X14493872Y-10600634D02*
X14512920Y-10591110D01*
X14512920Y-10591110D02*
X14522444Y-10581586D01*
X14522444Y-10581586D02*
X14531967Y-10562539D01*
X14531967Y-10562539D02*
X14531967Y-10514920D01*
X14531967Y-10514920D02*
X14522444Y-10495872D01*
X14522444Y-10495872D02*
X14512920Y-10486348D01*
X14512920Y-10486348D02*
X14493872Y-10476824D01*
X14493872Y-10476824D02*
X14455777Y-10476824D01*
X14455777Y-10476824D02*
X14436729Y-10486348D01*
X14436729Y-10486348D02*
X14427206Y-10495872D01*
X14427206Y-10495872D02*
X14417682Y-10514920D01*
X14703396Y-10400634D02*
X14665301Y-10400634D01*
X14665301Y-10400634D02*
X14646253Y-10410158D01*
X14646253Y-10410158D02*
X14636729Y-10419681D01*
X14636729Y-10419681D02*
X14617682Y-10448253D01*
X14617682Y-10448253D02*
X14608158Y-10486348D01*
X14608158Y-10486348D02*
X14608158Y-10562539D01*
X14608158Y-10562539D02*
X14617682Y-10581586D01*
X14617682Y-10581586D02*
X14627206Y-10591110D01*
X14627206Y-10591110D02*
X14646253Y-10600634D01*
X14646253Y-10600634D02*
X14684348Y-10600634D01*
X14684348Y-10600634D02*
X14703396Y-10591110D01*
X14703396Y-10591110D02*
X14712920Y-10581586D01*
X14712920Y-10581586D02*
X14722444Y-10562539D01*
X14722444Y-10562539D02*
X14722444Y-10514920D01*
X14722444Y-10514920D02*
X14712920Y-10495872D01*
X14712920Y-10495872D02*
X14703396Y-10486348D01*
X14703396Y-10486348D02*
X14684348Y-10476824D01*
X14684348Y-10476824D02*
X14646253Y-10476824D01*
X14646253Y-10476824D02*
X14627206Y-10486348D01*
X14627206Y-10486348D02*
X14617682Y-10495872D01*
X14617682Y-10495872D02*
X14608158Y-10514920D01*
X14798634Y-10400634D02*
X14798634Y-10438729D01*
X14874825Y-10400634D02*
X14874825Y-10438729D01*
X15170063Y-10676824D02*
X15160539Y-10667300D01*
X15160539Y-10667300D02*
X15141491Y-10638729D01*
X15141491Y-10638729D02*
X15131968Y-10619681D01*
X15131968Y-10619681D02*
X15122444Y-10591110D01*
X15122444Y-10591110D02*
X15112920Y-10543491D01*
X15112920Y-10543491D02*
X15112920Y-10505396D01*
X15112920Y-10505396D02*
X15122444Y-10457777D01*
X15122444Y-10457777D02*
X15131968Y-10429205D01*
X15131968Y-10429205D02*
X15141491Y-10410158D01*
X15141491Y-10410158D02*
X15160539Y-10381586D01*
X15160539Y-10381586D02*
X15170063Y-10372062D01*
X15274825Y-10486348D02*
X15255777Y-10476824D01*
X15255777Y-10476824D02*
X15246253Y-10467300D01*
X15246253Y-10467300D02*
X15236729Y-10448253D01*
X15236729Y-10448253D02*
X15236729Y-10438729D01*
X15236729Y-10438729D02*
X15246253Y-10419681D01*
X15246253Y-10419681D02*
X15255777Y-10410158D01*
X15255777Y-10410158D02*
X15274825Y-10400634D01*
X15274825Y-10400634D02*
X15312920Y-10400634D01*
X15312920Y-10400634D02*
X15331968Y-10410158D01*
X15331968Y-10410158D02*
X15341491Y-10419681D01*
X15341491Y-10419681D02*
X15351015Y-10438729D01*
X15351015Y-10438729D02*
X15351015Y-10448253D01*
X15351015Y-10448253D02*
X15341491Y-10467300D01*
X15341491Y-10467300D02*
X15331968Y-10476824D01*
X15331968Y-10476824D02*
X15312920Y-10486348D01*
X15312920Y-10486348D02*
X15274825Y-10486348D01*
X15274825Y-10486348D02*
X15255777Y-10495872D01*
X15255777Y-10495872D02*
X15246253Y-10505396D01*
X15246253Y-10505396D02*
X15236729Y-10524443D01*
X15236729Y-10524443D02*
X15236729Y-10562539D01*
X15236729Y-10562539D02*
X15246253Y-10581586D01*
X15246253Y-10581586D02*
X15255777Y-10591110D01*
X15255777Y-10591110D02*
X15274825Y-10600634D01*
X15274825Y-10600634D02*
X15312920Y-10600634D01*
X15312920Y-10600634D02*
X15331968Y-10591110D01*
X15331968Y-10591110D02*
X15341491Y-10581586D01*
X15341491Y-10581586D02*
X15351015Y-10562539D01*
X15351015Y-10562539D02*
X15351015Y-10524443D01*
X15351015Y-10524443D02*
X15341491Y-10505396D01*
X15341491Y-10505396D02*
X15331968Y-10495872D01*
X15331968Y-10495872D02*
X15312920Y-10486348D01*
X15589110Y-10600634D02*
X15589110Y-10400634D01*
X15674825Y-10600634D02*
X15674825Y-10495872D01*
X15674825Y-10495872D02*
X15665301Y-10476824D01*
X15665301Y-10476824D02*
X15646253Y-10467300D01*
X15646253Y-10467300D02*
X15617682Y-10467300D01*
X15617682Y-10467300D02*
X15598634Y-10476824D01*
X15598634Y-10476824D02*
X15589110Y-10486348D01*
X15798634Y-10600634D02*
X15779587Y-10591110D01*
X15779587Y-10591110D02*
X15770063Y-10581586D01*
X15770063Y-10581586D02*
X15760539Y-10562539D01*
X15760539Y-10562539D02*
X15760539Y-10505396D01*
X15760539Y-10505396D02*
X15770063Y-10486348D01*
X15770063Y-10486348D02*
X15779587Y-10476824D01*
X15779587Y-10476824D02*
X15798634Y-10467300D01*
X15798634Y-10467300D02*
X15827206Y-10467300D01*
X15827206Y-10467300D02*
X15846253Y-10476824D01*
X15846253Y-10476824D02*
X15855777Y-10486348D01*
X15855777Y-10486348D02*
X15865301Y-10505396D01*
X15865301Y-10505396D02*
X15865301Y-10562539D01*
X15865301Y-10562539D02*
X15855777Y-10581586D01*
X15855777Y-10581586D02*
X15846253Y-10591110D01*
X15846253Y-10591110D02*
X15827206Y-10600634D01*
X15827206Y-10600634D02*
X15798634Y-10600634D01*
X15979587Y-10600634D02*
X15960539Y-10591110D01*
X15960539Y-10591110D02*
X15951015Y-10572062D01*
X15951015Y-10572062D02*
X15951015Y-10400634D01*
X16131968Y-10591110D02*
X16112920Y-10600634D01*
X16112920Y-10600634D02*
X16074825Y-10600634D01*
X16074825Y-10600634D02*
X16055777Y-10591110D01*
X16055777Y-10591110D02*
X16046253Y-10572062D01*
X16046253Y-10572062D02*
X16046253Y-10495872D01*
X16046253Y-10495872D02*
X16055777Y-10476824D01*
X16055777Y-10476824D02*
X16074825Y-10467300D01*
X16074825Y-10467300D02*
X16112920Y-10467300D01*
X16112920Y-10467300D02*
X16131968Y-10476824D01*
X16131968Y-10476824D02*
X16141491Y-10495872D01*
X16141491Y-10495872D02*
X16141491Y-10514920D01*
X16141491Y-10514920D02*
X16046253Y-10533967D01*
X16217682Y-10591110D02*
X16236730Y-10600634D01*
X16236730Y-10600634D02*
X16274825Y-10600634D01*
X16274825Y-10600634D02*
X16293872Y-10591110D01*
X16293872Y-10591110D02*
X16303396Y-10572062D01*
X16303396Y-10572062D02*
X16303396Y-10562539D01*
X16303396Y-10562539D02*
X16293872Y-10543491D01*
X16293872Y-10543491D02*
X16274825Y-10533967D01*
X16274825Y-10533967D02*
X16246253Y-10533967D01*
X16246253Y-10533967D02*
X16227206Y-10524443D01*
X16227206Y-10524443D02*
X16217682Y-10505396D01*
X16217682Y-10505396D02*
X16217682Y-10495872D01*
X16217682Y-10495872D02*
X16227206Y-10476824D01*
X16227206Y-10476824D02*
X16246253Y-10467300D01*
X16246253Y-10467300D02*
X16274825Y-10467300D01*
X16274825Y-10467300D02*
X16293872Y-10476824D01*
X16370063Y-10676824D02*
X16379587Y-10667300D01*
X16379587Y-10667300D02*
X16398634Y-10638729D01*
X16398634Y-10638729D02*
X16408158Y-10619681D01*
X16408158Y-10619681D02*
X16417682Y-10591110D01*
X16417682Y-10591110D02*
X16427206Y-10543491D01*
X16427206Y-10543491D02*
X16427206Y-10505396D01*
X16427206Y-10505396D02*
X16417682Y-10457777D01*
X16417682Y-10457777D02*
X16408158Y-10429205D01*
X16408158Y-10429205D02*
X16398634Y-10410158D01*
X16398634Y-10410158D02*
X16379587Y-10381586D01*
X16379587Y-10381586D02*
X16370063Y-10372062D01*
X16731968Y-10676824D02*
X16722444Y-10667300D01*
X16722444Y-10667300D02*
X16703396Y-10638729D01*
X16703396Y-10638729D02*
X16693872Y-10619681D01*
X16693872Y-10619681D02*
X16684349Y-10591110D01*
X16684349Y-10591110D02*
X16674825Y-10543491D01*
X16674825Y-10543491D02*
X16674825Y-10505396D01*
X16674825Y-10505396D02*
X16684349Y-10457777D01*
X16684349Y-10457777D02*
X16693872Y-10429205D01*
X16693872Y-10429205D02*
X16703396Y-10410158D01*
X16703396Y-10410158D02*
X16722444Y-10381586D01*
X16722444Y-10381586D02*
X16731968Y-10372062D01*
X16808158Y-10467300D02*
X16808158Y-10600634D01*
X16808158Y-10486348D02*
X16817682Y-10476824D01*
X16817682Y-10476824D02*
X16836730Y-10467300D01*
X16836730Y-10467300D02*
X16865301Y-10467300D01*
X16865301Y-10467300D02*
X16884349Y-10476824D01*
X16884349Y-10476824D02*
X16893873Y-10495872D01*
X16893873Y-10495872D02*
X16893873Y-10600634D01*
X17017682Y-10600634D02*
X16998634Y-10591110D01*
X16998634Y-10591110D02*
X16989111Y-10581586D01*
X16989111Y-10581586D02*
X16979587Y-10562539D01*
X16979587Y-10562539D02*
X16979587Y-10505396D01*
X16979587Y-10505396D02*
X16989111Y-10486348D01*
X16989111Y-10486348D02*
X16998634Y-10476824D01*
X16998634Y-10476824D02*
X17017682Y-10467300D01*
X17017682Y-10467300D02*
X17046254Y-10467300D01*
X17046254Y-10467300D02*
X17065301Y-10476824D01*
X17065301Y-10476824D02*
X17074825Y-10486348D01*
X17074825Y-10486348D02*
X17084349Y-10505396D01*
X17084349Y-10505396D02*
X17084349Y-10562539D01*
X17084349Y-10562539D02*
X17074825Y-10581586D01*
X17074825Y-10581586D02*
X17065301Y-10591110D01*
X17065301Y-10591110D02*
X17046254Y-10600634D01*
X17046254Y-10600634D02*
X17017682Y-10600634D01*
X17141492Y-10467300D02*
X17217682Y-10467300D01*
X17170063Y-10400634D02*
X17170063Y-10572062D01*
X17170063Y-10572062D02*
X17179587Y-10591110D01*
X17179587Y-10591110D02*
X17198634Y-10600634D01*
X17198634Y-10600634D02*
X17217682Y-10600634D01*
X17436730Y-10467300D02*
X17436730Y-10667300D01*
X17436730Y-10476824D02*
X17455777Y-10467300D01*
X17455777Y-10467300D02*
X17493873Y-10467300D01*
X17493873Y-10467300D02*
X17512920Y-10476824D01*
X17512920Y-10476824D02*
X17522444Y-10486348D01*
X17522444Y-10486348D02*
X17531968Y-10505396D01*
X17531968Y-10505396D02*
X17531968Y-10562539D01*
X17531968Y-10562539D02*
X17522444Y-10581586D01*
X17522444Y-10581586D02*
X17512920Y-10591110D01*
X17512920Y-10591110D02*
X17493873Y-10600634D01*
X17493873Y-10600634D02*
X17455777Y-10600634D01*
X17455777Y-10600634D02*
X17436730Y-10591110D01*
X17646254Y-10600634D02*
X17627206Y-10591110D01*
X17627206Y-10591110D02*
X17617682Y-10572062D01*
X17617682Y-10572062D02*
X17617682Y-10400634D01*
X17808158Y-10600634D02*
X17808158Y-10495872D01*
X17808158Y-10495872D02*
X17798635Y-10476824D01*
X17798635Y-10476824D02*
X17779587Y-10467300D01*
X17779587Y-10467300D02*
X17741492Y-10467300D01*
X17741492Y-10467300D02*
X17722444Y-10476824D01*
X17808158Y-10591110D02*
X17789111Y-10600634D01*
X17789111Y-10600634D02*
X17741492Y-10600634D01*
X17741492Y-10600634D02*
X17722444Y-10591110D01*
X17722444Y-10591110D02*
X17712920Y-10572062D01*
X17712920Y-10572062D02*
X17712920Y-10553015D01*
X17712920Y-10553015D02*
X17722444Y-10533967D01*
X17722444Y-10533967D02*
X17741492Y-10524443D01*
X17741492Y-10524443D02*
X17789111Y-10524443D01*
X17789111Y-10524443D02*
X17808158Y-10514920D01*
X17874825Y-10467300D02*
X17951015Y-10467300D01*
X17903396Y-10400634D02*
X17903396Y-10572062D01*
X17903396Y-10572062D02*
X17912920Y-10591110D01*
X17912920Y-10591110D02*
X17931968Y-10600634D01*
X17931968Y-10600634D02*
X17951015Y-10600634D01*
X18093873Y-10591110D02*
X18074825Y-10600634D01*
X18074825Y-10600634D02*
X18036730Y-10600634D01*
X18036730Y-10600634D02*
X18017682Y-10591110D01*
X18017682Y-10591110D02*
X18008158Y-10572062D01*
X18008158Y-10572062D02*
X18008158Y-10495872D01*
X18008158Y-10495872D02*
X18017682Y-10476824D01*
X18017682Y-10476824D02*
X18036730Y-10467300D01*
X18036730Y-10467300D02*
X18074825Y-10467300D01*
X18074825Y-10467300D02*
X18093873Y-10476824D01*
X18093873Y-10476824D02*
X18103396Y-10495872D01*
X18103396Y-10495872D02*
X18103396Y-10514920D01*
X18103396Y-10514920D02*
X18008158Y-10533967D01*
X18274825Y-10600634D02*
X18274825Y-10400634D01*
X18274825Y-10591110D02*
X18255777Y-10600634D01*
X18255777Y-10600634D02*
X18217682Y-10600634D01*
X18217682Y-10600634D02*
X18198635Y-10591110D01*
X18198635Y-10591110D02*
X18189111Y-10581586D01*
X18189111Y-10581586D02*
X18179587Y-10562539D01*
X18179587Y-10562539D02*
X18179587Y-10505396D01*
X18179587Y-10505396D02*
X18189111Y-10486348D01*
X18189111Y-10486348D02*
X18198635Y-10476824D01*
X18198635Y-10476824D02*
X18217682Y-10467300D01*
X18217682Y-10467300D02*
X18255777Y-10467300D01*
X18255777Y-10467300D02*
X18274825Y-10476824D01*
X18351016Y-10676824D02*
X18360539Y-10667300D01*
X18360539Y-10667300D02*
X18379587Y-10638729D01*
X18379587Y-10638729D02*
X18389111Y-10619681D01*
X18389111Y-10619681D02*
X18398635Y-10591110D01*
X18398635Y-10591110D02*
X18408158Y-10543491D01*
X18408158Y-10543491D02*
X18408158Y-10505396D01*
X18408158Y-10505396D02*
X18398635Y-10457777D01*
X18398635Y-10457777D02*
X18389111Y-10429205D01*
X18389111Y-10429205D02*
X18379587Y-10410158D01*
X18379587Y-10410158D02*
X18360539Y-10381586D01*
X18360539Y-10381586D02*
X18351016Y-10372062D01*
M02*
