%TF.GenerationSoftware,KiCad,Pcbnew,8.0.4*%
%TF.CreationDate,2024-08-18T00:19:55+02:00*%
%TF.ProjectId,untitled,756e7469-746c-4656-942e-6b696361645f,rev?*%
%TF.SameCoordinates,Original*%
%TF.FileFunction,Drillmap*%
%TF.FilePolarity,Positive*%
%FSLAX45Y45*%
G04 Gerber Fmt 4.5, Leading zero omitted, Abs format (unit mm)*
G04 Created by KiCad (PCBNEW 8.0.4) date 2024-08-18 00:19:55*
%MOMM*%
%LPD*%
G01*
G04 APERTURE LIST*
%ADD10C,0.100000*%
%ADD11C,0.200000*%
G04 APERTURE END LIST*
D10*
X16083333Y-5700050D02*
X16866667Y-5700050D01*
X12533333Y-5799950D02*
X12533333Y-5800150D01*
X15000000Y-5800150D02*
X15000000Y-5799950D01*
X16083333Y-2700050D02*
X16083333Y-2500000D01*
X15783333Y-5800150D02*
X15783333Y-5900050D01*
X14700000Y-5700050D02*
X14700000Y-5799950D01*
X16083333Y-2500000D02*
X16866667Y-2500000D01*
X12833333Y-2500000D02*
X13616667Y-2500000D01*
X12833333Y-9100150D02*
X12833333Y-8900050D01*
X13616667Y-5800150D02*
X13616667Y-5900050D01*
X15783333Y-2700050D02*
X15000000Y-2700050D01*
X18100000Y-9600150D02*
X18100000Y-9100150D01*
X18100000Y-9100150D02*
X17166667Y-9100150D01*
X13916667Y-2500000D02*
X14700000Y-2500000D01*
X11600000Y-9100150D02*
X11600000Y-9600150D01*
X11600000Y-9600150D02*
X18100000Y-9600150D01*
X18100000Y-2500000D02*
X18100000Y-2000000D01*
X12533333Y-2500000D02*
X12533333Y-2700050D01*
X16866667Y-5800150D02*
X16866667Y-5900050D01*
X16866667Y-9100150D02*
X16083333Y-9100150D01*
X12533333Y-5700050D02*
X12533333Y-5799950D01*
X16083333Y-5799950D02*
X16083333Y-5700050D01*
X16866667Y-5700050D02*
X16866667Y-5799950D01*
X16083333Y-5800150D02*
X16083333Y-5799950D01*
X12833333Y-5700050D02*
X13616667Y-5700050D01*
X12833333Y-2700050D02*
X12833333Y-2500000D01*
X12533333Y-5800150D02*
X12533333Y-5900050D01*
X15000000Y-5799950D02*
X15000000Y-5700050D01*
X14700000Y-5900050D02*
X13916667Y-5900050D01*
X11600000Y-5900050D02*
X11600000Y-8900050D01*
X16866667Y-2500000D02*
X16866667Y-2700050D01*
X15000000Y-9100150D02*
X15000000Y-8900050D01*
X15783333Y-8900050D02*
X15783333Y-9100150D01*
X15000000Y-8900050D02*
X15783333Y-8900050D01*
X13616667Y-5799950D02*
X13616667Y-5800150D01*
X15000000Y-5900050D02*
X15000000Y-5800150D01*
X16083333Y-8900050D02*
X16866667Y-8900050D01*
X12833333Y-5800150D02*
X12833333Y-5799950D01*
X12833333Y-5900050D02*
X12833333Y-5800150D01*
X13616667Y-9100150D02*
X12833333Y-9100150D01*
X13916667Y-2700050D02*
X13916667Y-2500000D01*
X14700000Y-5800150D02*
X14700000Y-5900050D01*
X15783333Y-5799950D02*
X15783333Y-5800150D01*
X11600000Y-2700050D02*
X11600000Y-5700050D01*
X12533333Y-8900050D02*
X12533333Y-9100150D01*
X13916667Y-5900050D02*
X13916667Y-5800150D01*
X17166667Y-8900050D02*
X18100000Y-8900050D01*
X15783333Y-5700050D02*
X15783333Y-5799950D01*
X16866667Y-8900050D02*
X16866667Y-9100150D01*
X18100000Y-5700050D02*
X18100000Y-2700050D01*
X14700000Y-5799950D02*
X14700000Y-5800150D01*
X13916667Y-5800150D02*
X13916667Y-5799950D01*
X16866667Y-2700050D02*
X16083333Y-2700050D01*
X11600000Y-2000000D02*
X11600000Y-2500000D01*
X14700000Y-2700050D02*
X13916667Y-2700050D01*
X16866667Y-5799950D02*
X16866667Y-5800150D01*
X15000000Y-2500000D02*
X15783333Y-2500000D01*
X12533333Y-9100150D02*
X11600000Y-9100150D01*
X18100000Y-2000000D02*
X11600000Y-2000000D01*
X17166667Y-5800150D02*
X17166667Y-5799950D01*
X12833333Y-8900050D02*
X13616667Y-8900050D01*
X15783333Y-9100150D02*
X15000000Y-9100150D01*
X12533333Y-5900050D02*
X11600000Y-5900050D01*
X13916667Y-8900050D02*
X14700000Y-8900050D01*
X18100000Y-5900050D02*
X17166667Y-5900050D01*
X17166667Y-2700050D02*
X17166667Y-2500000D01*
X11600000Y-8900050D02*
X12533333Y-8900050D01*
X14700000Y-2500000D02*
X14700000Y-2700050D01*
X11600000Y-2500000D02*
X12533333Y-2500000D01*
X12833333Y-5799950D02*
X12833333Y-5700050D01*
X13616667Y-5700050D02*
X13616667Y-5799950D01*
X15783333Y-2500000D02*
X15783333Y-2700050D01*
X17166667Y-9100150D02*
X17166667Y-8900050D01*
X18100000Y-8900050D02*
X18100000Y-5900050D01*
X18100000Y-2700050D02*
X17166667Y-2700050D01*
X13616667Y-5900050D02*
X12833333Y-5900050D01*
X17166667Y-5799950D02*
X17166667Y-5700050D01*
X13916667Y-5700050D02*
X14700000Y-5700050D01*
X12533333Y-2700050D02*
X11600000Y-2700050D01*
X14700000Y-9100150D02*
X13916667Y-9100150D01*
X13616667Y-2500000D02*
X13616667Y-2700050D01*
X16866667Y-5900050D02*
X16083333Y-5900050D01*
X17166667Y-5700050D02*
X18100000Y-5700050D01*
X13916667Y-5799950D02*
X13916667Y-5700050D01*
X15000000Y-5700050D02*
X15783333Y-5700050D01*
X13616667Y-8900050D02*
X13616667Y-9100150D01*
X16083333Y-5900050D02*
X16083333Y-5800150D01*
X15783333Y-5900050D02*
X15000000Y-5900050D01*
X17166667Y-2500000D02*
X18100000Y-2500000D01*
X16083333Y-9100150D02*
X16083333Y-8900050D01*
X17166667Y-5900050D02*
X17166667Y-5800150D01*
X13916667Y-9100150D02*
X13916667Y-8900050D01*
X15000000Y-2700050D02*
X15000000Y-2500000D01*
X13616667Y-2700050D02*
X12833333Y-2700050D01*
X11600000Y-5700050D02*
X12533333Y-5700050D01*
X14700000Y-8900050D02*
X14700000Y-9100150D01*
D11*
D10*
X11737400Y-3294650D02*
X11767400Y-3324650D01*
X11767400Y-3294650D02*
X11737400Y-3324650D01*
X11737400Y-3548650D02*
X11767400Y-3578650D01*
X11767400Y-3548650D02*
X11737400Y-3578650D01*
X11737400Y-4818650D02*
X11767400Y-4848650D01*
X11767400Y-4818650D02*
X11737400Y-4848650D01*
X11737400Y-5021850D02*
X11767400Y-5051850D01*
X11767400Y-5021850D02*
X11737400Y-5051850D01*
X11737400Y-6494650D02*
X11767400Y-6524650D01*
X11767400Y-6494650D02*
X11737400Y-6524650D01*
X11737400Y-6748650D02*
X11767400Y-6778650D01*
X11767400Y-6748650D02*
X11737400Y-6778650D01*
X11737400Y-8018650D02*
X11767400Y-8048650D01*
X11767400Y-8018650D02*
X11737400Y-8048650D01*
X11737400Y-8221850D02*
X11767400Y-8251850D01*
X11767400Y-8221850D02*
X11737400Y-8251850D01*
X11940600Y-3294650D02*
X11970600Y-3324650D01*
X11970600Y-3294650D02*
X11940600Y-3324650D01*
X11940600Y-3548650D02*
X11970600Y-3578650D01*
X11970600Y-3548650D02*
X11940600Y-3578650D01*
X11940600Y-6494650D02*
X11970600Y-6524650D01*
X11970600Y-6494650D02*
X11940600Y-6524650D01*
X11940600Y-6748650D02*
X11970600Y-6778650D01*
X11970600Y-6748650D02*
X11940600Y-6778650D01*
X11991400Y-4818650D02*
X12021400Y-4848650D01*
X12021400Y-4818650D02*
X11991400Y-4848650D01*
X11991400Y-5021850D02*
X12021400Y-5051850D01*
X12021400Y-5021850D02*
X11991400Y-5051850D01*
X11991400Y-8018650D02*
X12021400Y-8048650D01*
X12021400Y-8018650D02*
X11991400Y-8048650D01*
X11991400Y-8221850D02*
X12021400Y-8251850D01*
X12021400Y-8221850D02*
X11991400Y-8251850D01*
X12143800Y-4209050D02*
X12173800Y-4239050D01*
X12173800Y-4209050D02*
X12143800Y-4239050D01*
X12143800Y-4412250D02*
X12173800Y-4442250D01*
X12173800Y-4412250D02*
X12143800Y-4442250D01*
X12143800Y-7409050D02*
X12173800Y-7439050D01*
X12173800Y-7409050D02*
X12143800Y-7439050D01*
X12143800Y-7612250D02*
X12173800Y-7642250D01*
X12173800Y-7612250D02*
X12143800Y-7642250D01*
X12194600Y-2888250D02*
X12224600Y-2918250D01*
X12224600Y-2888250D02*
X12194600Y-2918250D01*
X12194600Y-3294650D02*
X12224600Y-3324650D01*
X12224600Y-3294650D02*
X12194600Y-3324650D01*
X12194600Y-3548650D02*
X12224600Y-3578650D01*
X12224600Y-3548650D02*
X12194600Y-3578650D01*
X12194600Y-3904250D02*
X12224600Y-3934250D01*
X12224600Y-3904250D02*
X12194600Y-3934250D01*
X12194600Y-6088250D02*
X12224600Y-6118250D01*
X12224600Y-6088250D02*
X12194600Y-6118250D01*
X12194600Y-6494650D02*
X12224600Y-6524650D01*
X12224600Y-6494650D02*
X12194600Y-6524650D01*
X12194600Y-6748650D02*
X12224600Y-6778650D01*
X12224600Y-6748650D02*
X12194600Y-6778650D01*
X12194600Y-7104250D02*
X12224600Y-7134250D01*
X12224600Y-7104250D02*
X12194600Y-7134250D01*
X12194951Y-3092815D02*
X12224951Y-3122815D01*
X12224951Y-3092815D02*
X12194951Y-3122815D01*
X12194951Y-6292815D02*
X12224951Y-6322815D01*
X12224951Y-6292815D02*
X12194951Y-6322815D01*
X12245400Y-4818650D02*
X12275400Y-4848650D01*
X12275400Y-4818650D02*
X12245400Y-4848650D01*
X12245400Y-5021850D02*
X12275400Y-5051850D01*
X12275400Y-5021850D02*
X12245400Y-5051850D01*
X12245400Y-5225050D02*
X12275400Y-5255050D01*
X12275400Y-5225050D02*
X12245400Y-5255050D01*
X12245400Y-5428250D02*
X12275400Y-5458250D01*
X12275400Y-5428250D02*
X12245400Y-5458250D01*
X12245400Y-8018650D02*
X12275400Y-8048650D01*
X12275400Y-8018650D02*
X12245400Y-8048650D01*
X12245400Y-8221850D02*
X12275400Y-8251850D01*
X12275400Y-8221850D02*
X12245400Y-8251850D01*
X12245400Y-8425050D02*
X12275400Y-8455050D01*
X12275400Y-8425050D02*
X12245400Y-8455050D01*
X12245400Y-8628250D02*
X12275400Y-8658250D01*
X12275400Y-8628250D02*
X12245400Y-8658250D01*
X12347000Y-3447050D02*
X12377000Y-3477050D01*
X12377000Y-3447050D02*
X12347000Y-3477050D01*
X12347000Y-6647050D02*
X12377000Y-6677050D01*
X12377000Y-6647050D02*
X12347000Y-6677050D01*
X12448600Y-2888250D02*
X12478600Y-2918250D01*
X12478600Y-2888250D02*
X12448600Y-2918250D01*
X12448600Y-3091450D02*
X12478600Y-3121450D01*
X12478600Y-3091450D02*
X12448600Y-3121450D01*
X12448600Y-3294650D02*
X12478600Y-3324650D01*
X12478600Y-3294650D02*
X12448600Y-3324650D01*
X12448600Y-4259850D02*
X12478600Y-4289850D01*
X12478600Y-4259850D02*
X12448600Y-4289850D01*
X12448600Y-6088250D02*
X12478600Y-6118250D01*
X12478600Y-6088250D02*
X12448600Y-6118250D01*
X12448600Y-6291450D02*
X12478600Y-6321450D01*
X12478600Y-6291450D02*
X12448600Y-6321450D01*
X12448600Y-6494650D02*
X12478600Y-6524650D01*
X12478600Y-6494650D02*
X12448600Y-6524650D01*
X12448600Y-7459850D02*
X12478600Y-7489850D01*
X12478600Y-7459850D02*
X12448600Y-7489850D01*
X12499400Y-5021850D02*
X12529400Y-5051850D01*
X12529400Y-5021850D02*
X12499400Y-5051850D01*
X12499400Y-5174250D02*
X12529400Y-5204250D01*
X12529400Y-5174250D02*
X12499400Y-5204250D01*
X12499400Y-8221850D02*
X12529400Y-8251850D01*
X12529400Y-8221850D02*
X12499400Y-8251850D01*
X12499400Y-8374250D02*
X12529400Y-8404250D01*
X12529400Y-8374250D02*
X12499400Y-8404250D01*
X12702600Y-4107450D02*
X12732600Y-4137450D01*
X12732600Y-4107450D02*
X12702600Y-4137450D01*
X12702600Y-4259850D02*
X12732600Y-4289850D01*
X12732600Y-4259850D02*
X12702600Y-4289850D01*
X12702600Y-7307450D02*
X12732600Y-7337450D01*
X12732600Y-7307450D02*
X12702600Y-7337450D01*
X12702600Y-7459850D02*
X12732600Y-7489850D01*
X12732600Y-7459850D02*
X12702600Y-7489850D01*
X12740700Y-4983750D02*
X12770700Y-5013750D01*
X12770700Y-4983750D02*
X12740700Y-5013750D01*
X12740700Y-8183750D02*
X12770700Y-8213750D01*
X12770700Y-8183750D02*
X12740700Y-8213750D01*
X12753400Y-2888250D02*
X12783400Y-2918250D01*
X12783400Y-2888250D02*
X12753400Y-2918250D01*
X12753400Y-3091450D02*
X12783400Y-3121450D01*
X12783400Y-3091450D02*
X12753400Y-3121450D01*
X12753400Y-6088250D02*
X12783400Y-6118250D01*
X12783400Y-6088250D02*
X12753400Y-6118250D01*
X12753400Y-6291450D02*
X12783400Y-6321450D01*
X12783400Y-6291450D02*
X12753400Y-6321450D01*
X12791500Y-5225050D02*
X12821500Y-5255050D01*
X12821500Y-5225050D02*
X12791500Y-5255050D01*
X12791500Y-8425050D02*
X12821500Y-8455050D01*
X12821500Y-8425050D02*
X12791500Y-8455050D01*
X13007400Y-2888250D02*
X13037400Y-2918250D01*
X13037400Y-2888250D02*
X13007400Y-2918250D01*
X13007400Y-3091450D02*
X13037400Y-3121450D01*
X13037400Y-3091450D02*
X13007400Y-3121450D01*
X13007400Y-3294650D02*
X13037400Y-3324650D01*
X13037400Y-3294650D02*
X13007400Y-3324650D01*
X13007400Y-4005850D02*
X13037400Y-4035850D01*
X13037400Y-4005850D02*
X13007400Y-4035850D01*
X13007400Y-6088250D02*
X13037400Y-6118250D01*
X13037400Y-6088250D02*
X13007400Y-6118250D01*
X13007400Y-6291450D02*
X13037400Y-6321450D01*
X13037400Y-6291450D02*
X13007400Y-6321450D01*
X13007400Y-6494650D02*
X13037400Y-6524650D01*
X13037400Y-6494650D02*
X13007400Y-6524650D01*
X13007400Y-7205850D02*
X13037400Y-7235850D01*
X13037400Y-7205850D02*
X13007400Y-7235850D01*
X13058200Y-3548650D02*
X13088200Y-3578650D01*
X13088200Y-3548650D02*
X13058200Y-3578650D01*
X13058200Y-4209050D02*
X13088200Y-4239050D01*
X13088200Y-4209050D02*
X13058200Y-4239050D01*
X13058200Y-6748650D02*
X13088200Y-6778650D01*
X13088200Y-6748650D02*
X13058200Y-6778650D01*
X13058200Y-7409050D02*
X13088200Y-7439050D01*
X13088200Y-7409050D02*
X13058200Y-7439050D01*
X13109000Y-4920250D02*
X13139000Y-4950250D01*
X13139000Y-4920250D02*
X13109000Y-4950250D01*
X13109000Y-8120250D02*
X13139000Y-8150250D01*
X13139000Y-8120250D02*
X13109000Y-8150250D01*
X13261400Y-4475750D02*
X13291400Y-4505750D01*
X13291400Y-4475750D02*
X13261400Y-4505750D01*
X13261400Y-7675750D02*
X13291400Y-7705750D01*
X13291400Y-7675750D02*
X13261400Y-7705750D01*
X13312200Y-2888250D02*
X13342200Y-2918250D01*
X13342200Y-2888250D02*
X13312200Y-2918250D01*
X13312200Y-3091450D02*
X13342200Y-3121450D01*
X13342200Y-3091450D02*
X13312200Y-3121450D01*
X13312200Y-3294650D02*
X13342200Y-3324650D01*
X13342200Y-3294650D02*
X13312200Y-3324650D01*
X13312200Y-3548650D02*
X13342200Y-3578650D01*
X13342200Y-3548650D02*
X13312200Y-3578650D01*
X13312200Y-4005850D02*
X13342200Y-4035850D01*
X13342200Y-4005850D02*
X13312200Y-4035850D01*
X13312200Y-6088250D02*
X13342200Y-6118250D01*
X13342200Y-6088250D02*
X13312200Y-6118250D01*
X13312200Y-6291450D02*
X13342200Y-6321450D01*
X13342200Y-6291450D02*
X13312200Y-6321450D01*
X13312200Y-6494650D02*
X13342200Y-6524650D01*
X13342200Y-6494650D02*
X13312200Y-6524650D01*
X13312200Y-6748650D02*
X13342200Y-6778650D01*
X13342200Y-6748650D02*
X13312200Y-6778650D01*
X13312200Y-7205850D02*
X13342200Y-7235850D01*
X13342200Y-7205850D02*
X13312200Y-7235850D01*
X13363000Y-4666250D02*
X13393000Y-4696250D01*
X13393000Y-4666250D02*
X13363000Y-4696250D01*
X13363000Y-7866250D02*
X13393000Y-7896250D01*
X13393000Y-7866250D02*
X13363000Y-7896250D01*
X13515400Y-4361450D02*
X13545400Y-4391450D01*
X13545400Y-4361450D02*
X13515400Y-4391450D01*
X13515400Y-5072650D02*
X13545400Y-5102650D01*
X13545400Y-5072650D02*
X13515400Y-5102650D01*
X13515400Y-7561450D02*
X13545400Y-7591450D01*
X13545400Y-7561450D02*
X13515400Y-7591450D01*
X13515400Y-8272650D02*
X13545400Y-8302650D01*
X13545400Y-8272650D02*
X13515400Y-8302650D01*
X13566200Y-2888250D02*
X13596200Y-2918250D01*
X13596200Y-2888250D02*
X13566200Y-2918250D01*
X13566200Y-3040650D02*
X13596200Y-3070650D01*
X13596200Y-3040650D02*
X13566200Y-3070650D01*
X13566200Y-4463050D02*
X13596200Y-4493050D01*
X13596200Y-4463050D02*
X13566200Y-4493050D01*
X13566200Y-6088250D02*
X13596200Y-6118250D01*
X13596200Y-6088250D02*
X13566200Y-6118250D01*
X13566200Y-6240650D02*
X13596200Y-6270650D01*
X13596200Y-6240650D02*
X13566200Y-6270650D01*
X13566200Y-7663050D02*
X13596200Y-7693050D01*
X13596200Y-7663050D02*
X13566200Y-7693050D01*
X13591600Y-4158250D02*
X13621600Y-4188250D01*
X13621600Y-4158250D02*
X13591600Y-4188250D01*
X13591600Y-7358250D02*
X13621600Y-7388250D01*
X13621600Y-7358250D02*
X13591600Y-7388250D01*
X13617000Y-3751850D02*
X13647000Y-3781850D01*
X13647000Y-3751850D02*
X13617000Y-3781850D01*
X13617000Y-6951850D02*
X13647000Y-6981850D01*
X13647000Y-6951850D02*
X13617000Y-6981850D01*
X13667800Y-4463050D02*
X13697800Y-4493050D01*
X13697800Y-4463050D02*
X13667800Y-4493050D01*
X13667800Y-7663050D02*
X13697800Y-7693050D01*
X13697800Y-7663050D02*
X13667800Y-7693050D01*
X13718600Y-4869450D02*
X13748600Y-4899450D01*
X13748600Y-4869450D02*
X13718600Y-4899450D01*
X13718600Y-8069450D02*
X13748600Y-8099450D01*
X13748600Y-8069450D02*
X13718600Y-8099450D01*
X13769400Y-2888250D02*
X13799400Y-2918250D01*
X13799400Y-2888250D02*
X13769400Y-2918250D01*
X13769400Y-3040650D02*
X13799400Y-3070650D01*
X13799400Y-3040650D02*
X13769400Y-3070650D01*
X13769400Y-4056650D02*
X13799400Y-4086650D01*
X13799400Y-4056650D02*
X13769400Y-4086650D01*
X13769400Y-6088250D02*
X13799400Y-6118250D01*
X13799400Y-6088250D02*
X13769400Y-6118250D01*
X13769400Y-6240650D02*
X13799400Y-6270650D01*
X13799400Y-6240650D02*
X13769400Y-6270650D01*
X13769400Y-7256650D02*
X13799400Y-7286650D01*
X13799400Y-7256650D02*
X13769400Y-7286650D01*
X13820200Y-5174250D02*
X13850200Y-5204250D01*
X13850200Y-5174250D02*
X13820200Y-5204250D01*
X13820200Y-8374250D02*
X13850200Y-8404250D01*
X13850200Y-8374250D02*
X13820200Y-8404250D01*
X13921800Y-3955050D02*
X13951800Y-3985050D01*
X13951800Y-3955050D02*
X13921800Y-3985050D01*
X13921800Y-4666250D02*
X13951800Y-4696250D01*
X13951800Y-4666250D02*
X13921800Y-4696250D01*
X13921800Y-7155050D02*
X13951800Y-7185050D01*
X13951800Y-7155050D02*
X13921800Y-7185050D01*
X13921800Y-7866250D02*
X13951800Y-7896250D01*
X13951800Y-7866250D02*
X13921800Y-7896250D01*
X13972600Y-2888250D02*
X14002600Y-2918250D01*
X14002600Y-2888250D02*
X13972600Y-2918250D01*
X13972600Y-3040650D02*
X14002600Y-3070650D01*
X14002600Y-3040650D02*
X13972600Y-3070650D01*
X13972600Y-6088250D02*
X14002600Y-6118250D01*
X14002600Y-6088250D02*
X13972600Y-6118250D01*
X13972600Y-6240650D02*
X14002600Y-6270650D01*
X14002600Y-6240650D02*
X13972600Y-6270650D01*
X14023400Y-3434350D02*
X14053400Y-3464350D01*
X14053400Y-3434350D02*
X14023400Y-3464350D01*
X14023400Y-3853450D02*
X14053400Y-3883450D01*
X14053400Y-3853450D02*
X14023400Y-3883450D01*
X14023400Y-4971050D02*
X14053400Y-5001050D01*
X14053400Y-4971050D02*
X14023400Y-5001050D01*
X14023400Y-5174250D02*
X14053400Y-5204250D01*
X14053400Y-5174250D02*
X14023400Y-5204250D01*
X14023400Y-6634350D02*
X14053400Y-6664350D01*
X14053400Y-6634350D02*
X14023400Y-6664350D01*
X14023400Y-7053450D02*
X14053400Y-7083450D01*
X14053400Y-7053450D02*
X14023400Y-7083450D01*
X14023400Y-8171050D02*
X14053400Y-8201050D01*
X14053400Y-8171050D02*
X14023400Y-8201050D01*
X14023400Y-8374250D02*
X14053400Y-8404250D01*
X14053400Y-8374250D02*
X14023400Y-8404250D01*
X14074200Y-3701050D02*
X14104200Y-3731050D01*
X14104200Y-3701050D02*
X14074200Y-3731050D01*
X14074200Y-6901050D02*
X14104200Y-6931050D01*
X14104200Y-6901050D02*
X14074200Y-6931050D01*
X14125000Y-4463050D02*
X14155000Y-4493050D01*
X14155000Y-4463050D02*
X14125000Y-4493050D01*
X14125000Y-7663050D02*
X14155000Y-7693050D01*
X14155000Y-7663050D02*
X14125000Y-7693050D01*
X14175800Y-2939050D02*
X14205800Y-2969050D01*
X14205800Y-2939050D02*
X14175800Y-2969050D01*
X14175800Y-6139050D02*
X14205800Y-6169050D01*
X14205800Y-6139050D02*
X14175800Y-6169050D01*
X14226600Y-4767850D02*
X14256600Y-4797850D01*
X14256600Y-4767850D02*
X14226600Y-4797850D01*
X14226600Y-7967850D02*
X14256600Y-7997850D01*
X14256600Y-7967850D02*
X14226600Y-7997850D01*
X14277400Y-5225050D02*
X14307400Y-5255050D01*
X14307400Y-5225050D02*
X14277400Y-5255050D01*
X14277400Y-8425050D02*
X14307400Y-8455050D01*
X14307400Y-8425050D02*
X14277400Y-8455050D01*
X14328200Y-4209050D02*
X14358200Y-4239050D01*
X14358200Y-4209050D02*
X14328200Y-4239050D01*
X14328200Y-7409050D02*
X14358200Y-7439050D01*
X14358200Y-7409050D02*
X14328200Y-7439050D01*
X14379000Y-4361450D02*
X14409000Y-4391450D01*
X14409000Y-4361450D02*
X14379000Y-4391450D01*
X14379000Y-4869450D02*
X14409000Y-4899450D01*
X14409000Y-4869450D02*
X14379000Y-4899450D01*
X14379000Y-7561450D02*
X14409000Y-7591450D01*
X14409000Y-7561450D02*
X14379000Y-7591450D01*
X14379000Y-8069450D02*
X14409000Y-8099450D01*
X14409000Y-8069450D02*
X14379000Y-8099450D01*
X14429800Y-5021850D02*
X14459800Y-5051850D01*
X14459800Y-5021850D02*
X14429800Y-5051850D01*
X14429800Y-8221850D02*
X14459800Y-8251850D01*
X14459800Y-8221850D02*
X14429800Y-8251850D01*
X14480600Y-4158250D02*
X14510600Y-4188250D01*
X14510600Y-4158250D02*
X14480600Y-4188250D01*
X14480600Y-7358250D02*
X14510600Y-7388250D01*
X14510600Y-7358250D02*
X14480600Y-7388250D01*
X14531400Y-5225050D02*
X14561400Y-5255050D01*
X14561400Y-5225050D02*
X14531400Y-5255050D01*
X14531400Y-8425050D02*
X14561400Y-8455050D01*
X14561400Y-8425050D02*
X14531400Y-8455050D01*
X14582200Y-4361450D02*
X14612200Y-4391450D01*
X14612200Y-4361450D02*
X14582200Y-4391450D01*
X14582200Y-7561450D02*
X14612200Y-7591450D01*
X14612200Y-7561450D02*
X14582200Y-7591450D01*
X14607600Y-3574050D02*
X14637600Y-3604050D01*
X14637600Y-3574050D02*
X14607600Y-3604050D01*
X14607600Y-6774050D02*
X14637600Y-6804050D01*
X14637600Y-6774050D02*
X14607600Y-6804050D01*
X14683800Y-4209050D02*
X14713800Y-4239050D01*
X14713800Y-4209050D02*
X14683800Y-4239050D01*
X14683800Y-7409050D02*
X14713800Y-7439050D01*
X14713800Y-7409050D02*
X14683800Y-7439050D01*
X14734600Y-4107450D02*
X14764600Y-4137450D01*
X14764600Y-4107450D02*
X14734600Y-4137450D01*
X14734600Y-7307450D02*
X14764600Y-7337450D01*
X14764600Y-7307450D02*
X14734600Y-7337450D01*
X14836200Y-3091450D02*
X14866200Y-3121450D01*
X14866200Y-3091450D02*
X14836200Y-3121450D01*
X14836200Y-4361450D02*
X14866200Y-4391450D01*
X14866200Y-4361450D02*
X14836200Y-4391450D01*
X14836200Y-5225050D02*
X14866200Y-5255050D01*
X14866200Y-5225050D02*
X14836200Y-5255050D01*
X14836200Y-6291450D02*
X14866200Y-6321450D01*
X14866200Y-6291450D02*
X14836200Y-6321450D01*
X14836200Y-7561450D02*
X14866200Y-7591450D01*
X14866200Y-7561450D02*
X14836200Y-7591450D01*
X14836200Y-8425050D02*
X14866200Y-8455050D01*
X14866200Y-8425050D02*
X14836200Y-8455050D01*
X14887000Y-4005850D02*
X14917000Y-4035850D01*
X14917000Y-4005850D02*
X14887000Y-4035850D01*
X14887000Y-4158250D02*
X14917000Y-4188250D01*
X14917000Y-4158250D02*
X14887000Y-4188250D01*
X14887000Y-7205850D02*
X14917000Y-7235850D01*
X14917000Y-7205850D02*
X14887000Y-7235850D01*
X14887000Y-7358250D02*
X14917000Y-7388250D01*
X14917000Y-7358250D02*
X14887000Y-7388250D01*
X14937800Y-5021850D02*
X14967800Y-5051850D01*
X14967800Y-5021850D02*
X14937800Y-5051850D01*
X14937800Y-8221850D02*
X14967800Y-8251850D01*
X14967800Y-8221850D02*
X14937800Y-8251850D01*
X15090200Y-3091450D02*
X15120200Y-3121450D01*
X15120200Y-3091450D02*
X15090200Y-3121450D01*
X15090200Y-4209050D02*
X15120200Y-4239050D01*
X15120200Y-4209050D02*
X15090200Y-4239050D01*
X15090200Y-4361450D02*
X15120200Y-4391450D01*
X15120200Y-4361450D02*
X15090200Y-4391450D01*
X15090200Y-5174250D02*
X15120200Y-5204250D01*
X15120200Y-5174250D02*
X15090200Y-5204250D01*
X15090200Y-6291450D02*
X15120200Y-6321450D01*
X15120200Y-6291450D02*
X15090200Y-6321450D01*
X15090200Y-7409050D02*
X15120200Y-7439050D01*
X15120200Y-7409050D02*
X15090200Y-7439050D01*
X15090200Y-7561450D02*
X15120200Y-7591450D01*
X15120200Y-7561450D02*
X15090200Y-7591450D01*
X15090200Y-8374250D02*
X15120200Y-8404250D01*
X15120200Y-8374250D02*
X15090200Y-8404250D01*
X15242600Y-4005850D02*
X15272600Y-4035850D01*
X15272600Y-4005850D02*
X15242600Y-4035850D01*
X15242600Y-4158250D02*
X15272600Y-4188250D01*
X15272600Y-4158250D02*
X15242600Y-4188250D01*
X15242600Y-4361450D02*
X15272600Y-4391450D01*
X15272600Y-4361450D02*
X15242600Y-4391450D01*
X15242600Y-7205850D02*
X15272600Y-7235850D01*
X15272600Y-7205850D02*
X15242600Y-7235850D01*
X15242600Y-7358250D02*
X15272600Y-7388250D01*
X15272600Y-7358250D02*
X15242600Y-7388250D01*
X15242600Y-7561450D02*
X15272600Y-7591450D01*
X15272600Y-7561450D02*
X15242600Y-7591450D01*
X15293400Y-3193050D02*
X15323400Y-3223050D01*
X15323400Y-3193050D02*
X15293400Y-3223050D01*
X15293400Y-3396250D02*
X15323400Y-3426250D01*
X15323400Y-3396250D02*
X15293400Y-3426250D01*
X15293400Y-6393050D02*
X15323400Y-6423050D01*
X15323400Y-6393050D02*
X15293400Y-6423050D01*
X15293400Y-6596250D02*
X15323400Y-6626250D01*
X15323400Y-6596250D02*
X15293400Y-6626250D01*
X15496600Y-3955050D02*
X15526600Y-3985050D01*
X15526600Y-3955050D02*
X15496600Y-3985050D01*
X15496600Y-4158250D02*
X15526600Y-4188250D01*
X15526600Y-4158250D02*
X15496600Y-4188250D01*
X15496600Y-4361450D02*
X15526600Y-4391450D01*
X15526600Y-4361450D02*
X15496600Y-4391450D01*
X15496600Y-4564650D02*
X15526600Y-4594650D01*
X15526600Y-4564650D02*
X15496600Y-4594650D01*
X15496600Y-7155050D02*
X15526600Y-7185050D01*
X15526600Y-7155050D02*
X15496600Y-7185050D01*
X15496600Y-7358250D02*
X15526600Y-7388250D01*
X15526600Y-7358250D02*
X15496600Y-7388250D01*
X15496600Y-7561450D02*
X15526600Y-7591450D01*
X15526600Y-7561450D02*
X15496600Y-7591450D01*
X15496600Y-7764650D02*
X15526600Y-7794650D01*
X15526600Y-7764650D02*
X15496600Y-7794650D01*
X15540838Y-3398762D02*
X15570838Y-3428762D01*
X15570838Y-3398762D02*
X15540838Y-3428762D01*
X15540838Y-6598762D02*
X15570838Y-6628762D01*
X15570838Y-6598762D02*
X15540838Y-6628762D01*
X15547400Y-3193050D02*
X15577400Y-3223050D01*
X15577400Y-3193050D02*
X15547400Y-3223050D01*
X15547400Y-4767850D02*
X15577400Y-4797850D01*
X15577400Y-4767850D02*
X15547400Y-4797850D01*
X15547400Y-5225050D02*
X15577400Y-5255050D01*
X15577400Y-5225050D02*
X15547400Y-5255050D01*
X15547400Y-6393050D02*
X15577400Y-6423050D01*
X15577400Y-6393050D02*
X15547400Y-6423050D01*
X15547400Y-7967850D02*
X15577400Y-7997850D01*
X15577400Y-7967850D02*
X15547400Y-7997850D01*
X15547400Y-8425050D02*
X15577400Y-8455050D01*
X15577400Y-8425050D02*
X15547400Y-8455050D01*
X15699800Y-3955050D02*
X15729800Y-3985050D01*
X15729800Y-3955050D02*
X15699800Y-3985050D01*
X15699800Y-4158250D02*
X15729800Y-4188250D01*
X15729800Y-4158250D02*
X15699800Y-4188250D01*
X15699800Y-4361450D02*
X15729800Y-4391450D01*
X15729800Y-4361450D02*
X15699800Y-4391450D01*
X15699800Y-4564650D02*
X15729800Y-4594650D01*
X15729800Y-4564650D02*
X15699800Y-4594650D01*
X15699800Y-7155050D02*
X15729800Y-7185050D01*
X15729800Y-7155050D02*
X15699800Y-7185050D01*
X15699800Y-7358250D02*
X15729800Y-7388250D01*
X15729800Y-7358250D02*
X15699800Y-7388250D01*
X15699800Y-7561450D02*
X15729800Y-7591450D01*
X15729800Y-7561450D02*
X15699800Y-7591450D01*
X15699800Y-7764650D02*
X15729800Y-7794650D01*
X15729800Y-7764650D02*
X15699800Y-7794650D01*
X15801400Y-3193050D02*
X15831400Y-3223050D01*
X15831400Y-3193050D02*
X15801400Y-3223050D01*
X15801400Y-6393050D02*
X15831400Y-6423050D01*
X15831400Y-6393050D02*
X15801400Y-6423050D01*
X15852200Y-2837450D02*
X15882200Y-2867450D01*
X15882200Y-2837450D02*
X15852200Y-2867450D01*
X15852200Y-3040650D02*
X15882200Y-3070650D01*
X15882200Y-3040650D02*
X15852200Y-3070650D01*
X15852200Y-3701050D02*
X15882200Y-3731050D01*
X15882200Y-3701050D02*
X15852200Y-3731050D01*
X15852200Y-3904250D02*
X15882200Y-3934250D01*
X15882200Y-3904250D02*
X15852200Y-3934250D01*
X15852200Y-4158250D02*
X15882200Y-4188250D01*
X15882200Y-4158250D02*
X15852200Y-4188250D01*
X15852200Y-4361450D02*
X15882200Y-4391450D01*
X15882200Y-4361450D02*
X15852200Y-4391450D01*
X15852200Y-4513850D02*
X15882200Y-4543850D01*
X15882200Y-4513850D02*
X15852200Y-4543850D01*
X15852200Y-4717050D02*
X15882200Y-4747050D01*
X15882200Y-4717050D02*
X15852200Y-4747050D01*
X15852200Y-5174250D02*
X15882200Y-5204250D01*
X15882200Y-5174250D02*
X15852200Y-5204250D01*
X15852200Y-6037450D02*
X15882200Y-6067450D01*
X15882200Y-6037450D02*
X15852200Y-6067450D01*
X15852200Y-6240650D02*
X15882200Y-6270650D01*
X15882200Y-6240650D02*
X15852200Y-6270650D01*
X15852200Y-6901050D02*
X15882200Y-6931050D01*
X15882200Y-6901050D02*
X15852200Y-6931050D01*
X15852200Y-7104250D02*
X15882200Y-7134250D01*
X15882200Y-7104250D02*
X15852200Y-7134250D01*
X15852200Y-7358250D02*
X15882200Y-7388250D01*
X15882200Y-7358250D02*
X15852200Y-7388250D01*
X15852200Y-7561450D02*
X15882200Y-7591450D01*
X15882200Y-7561450D02*
X15852200Y-7591450D01*
X15852200Y-7713850D02*
X15882200Y-7743850D01*
X15882200Y-7713850D02*
X15852200Y-7743850D01*
X15852200Y-7917050D02*
X15882200Y-7947050D01*
X15882200Y-7917050D02*
X15852200Y-7947050D01*
X15852200Y-8374250D02*
X15882200Y-8404250D01*
X15882200Y-8374250D02*
X15852200Y-8404250D01*
X16055400Y-2837450D02*
X16085400Y-2867450D01*
X16085400Y-2837450D02*
X16055400Y-2867450D01*
X16055400Y-3040650D02*
X16085400Y-3070650D01*
X16085400Y-3040650D02*
X16055400Y-3070650D01*
X16055400Y-3193050D02*
X16085400Y-3223050D01*
X16085400Y-3193050D02*
X16055400Y-3223050D01*
X16055400Y-3396250D02*
X16085400Y-3426250D01*
X16085400Y-3396250D02*
X16055400Y-3426250D01*
X16055400Y-3701050D02*
X16085400Y-3731050D01*
X16085400Y-3701050D02*
X16055400Y-3731050D01*
X16055400Y-3904250D02*
X16085400Y-3934250D01*
X16085400Y-3904250D02*
X16055400Y-3934250D01*
X16055400Y-4158250D02*
X16085400Y-4188250D01*
X16085400Y-4158250D02*
X16055400Y-4188250D01*
X16055400Y-4361450D02*
X16085400Y-4391450D01*
X16085400Y-4361450D02*
X16055400Y-4391450D01*
X16055400Y-4513850D02*
X16085400Y-4543850D01*
X16085400Y-4513850D02*
X16055400Y-4543850D01*
X16055400Y-4717050D02*
X16085400Y-4747050D01*
X16085400Y-4717050D02*
X16055400Y-4747050D01*
X16055400Y-5174250D02*
X16085400Y-5204250D01*
X16085400Y-5174250D02*
X16055400Y-5204250D01*
X16055400Y-6037450D02*
X16085400Y-6067450D01*
X16085400Y-6037450D02*
X16055400Y-6067450D01*
X16055400Y-6240650D02*
X16085400Y-6270650D01*
X16085400Y-6240650D02*
X16055400Y-6270650D01*
X16055400Y-6393050D02*
X16085400Y-6423050D01*
X16085400Y-6393050D02*
X16055400Y-6423050D01*
X16055400Y-6596250D02*
X16085400Y-6626250D01*
X16085400Y-6596250D02*
X16055400Y-6626250D01*
X16055400Y-6901050D02*
X16085400Y-6931050D01*
X16085400Y-6901050D02*
X16055400Y-6931050D01*
X16055400Y-7104250D02*
X16085400Y-7134250D01*
X16085400Y-7104250D02*
X16055400Y-7134250D01*
X16055400Y-7358250D02*
X16085400Y-7388250D01*
X16085400Y-7358250D02*
X16055400Y-7388250D01*
X16055400Y-7561450D02*
X16085400Y-7591450D01*
X16085400Y-7561450D02*
X16055400Y-7591450D01*
X16055400Y-7713850D02*
X16085400Y-7743850D01*
X16085400Y-7713850D02*
X16055400Y-7743850D01*
X16055400Y-7917050D02*
X16085400Y-7947050D01*
X16085400Y-7917050D02*
X16055400Y-7947050D01*
X16055400Y-8374250D02*
X16085400Y-8404250D01*
X16085400Y-8374250D02*
X16055400Y-8404250D01*
X16309400Y-2837450D02*
X16339400Y-2867450D01*
X16339400Y-2837450D02*
X16309400Y-2867450D01*
X16309400Y-3040650D02*
X16339400Y-3070650D01*
X16339400Y-3040650D02*
X16309400Y-3070650D01*
X16309400Y-3294650D02*
X16339400Y-3324650D01*
X16339400Y-3294650D02*
X16309400Y-3324650D01*
X16309400Y-3497850D02*
X16339400Y-3527850D01*
X16339400Y-3497850D02*
X16309400Y-3527850D01*
X16309400Y-3701050D02*
X16339400Y-3731050D01*
X16339400Y-3701050D02*
X16309400Y-3731050D01*
X16309400Y-3904250D02*
X16339400Y-3934250D01*
X16339400Y-3904250D02*
X16309400Y-3934250D01*
X16309400Y-4158250D02*
X16339400Y-4188250D01*
X16339400Y-4158250D02*
X16309400Y-4188250D01*
X16309400Y-4361450D02*
X16339400Y-4391450D01*
X16339400Y-4361450D02*
X16309400Y-4391450D01*
X16309400Y-4615450D02*
X16339400Y-4645450D01*
X16339400Y-4615450D02*
X16309400Y-4645450D01*
X16309400Y-4818650D02*
X16339400Y-4848650D01*
X16339400Y-4818650D02*
X16309400Y-4848650D01*
X16309400Y-5174250D02*
X16339400Y-5204250D01*
X16339400Y-5174250D02*
X16309400Y-5204250D01*
X16309400Y-6037450D02*
X16339400Y-6067450D01*
X16339400Y-6037450D02*
X16309400Y-6067450D01*
X16309400Y-6240650D02*
X16339400Y-6270650D01*
X16339400Y-6240650D02*
X16309400Y-6270650D01*
X16309400Y-6494650D02*
X16339400Y-6524650D01*
X16339400Y-6494650D02*
X16309400Y-6524650D01*
X16309400Y-6697850D02*
X16339400Y-6727850D01*
X16339400Y-6697850D02*
X16309400Y-6727850D01*
X16309400Y-6901050D02*
X16339400Y-6931050D01*
X16339400Y-6901050D02*
X16309400Y-6931050D01*
X16309400Y-7104250D02*
X16339400Y-7134250D01*
X16339400Y-7104250D02*
X16309400Y-7134250D01*
X16309400Y-7358250D02*
X16339400Y-7388250D01*
X16339400Y-7358250D02*
X16309400Y-7388250D01*
X16309400Y-7561450D02*
X16339400Y-7591450D01*
X16339400Y-7561450D02*
X16309400Y-7591450D01*
X16309400Y-7815450D02*
X16339400Y-7845450D01*
X16339400Y-7815450D02*
X16309400Y-7845450D01*
X16309400Y-8018650D02*
X16339400Y-8048650D01*
X16339400Y-8018650D02*
X16309400Y-8048650D01*
X16309400Y-8374250D02*
X16339400Y-8404250D01*
X16339400Y-8374250D02*
X16309400Y-8404250D01*
X16512600Y-2837450D02*
X16542600Y-2867450D01*
X16542600Y-2837450D02*
X16512600Y-2867450D01*
X16512600Y-3040650D02*
X16542600Y-3070650D01*
X16542600Y-3040650D02*
X16512600Y-3070650D01*
X16512600Y-3294650D02*
X16542600Y-3324650D01*
X16542600Y-3294650D02*
X16512600Y-3324650D01*
X16512600Y-3497850D02*
X16542600Y-3527850D01*
X16542600Y-3497850D02*
X16512600Y-3527850D01*
X16512600Y-3701050D02*
X16542600Y-3731050D01*
X16542600Y-3701050D02*
X16512600Y-3731050D01*
X16512600Y-3904250D02*
X16542600Y-3934250D01*
X16542600Y-3904250D02*
X16512600Y-3934250D01*
X16512600Y-4158250D02*
X16542600Y-4188250D01*
X16542600Y-4158250D02*
X16512600Y-4188250D01*
X16512600Y-4361450D02*
X16542600Y-4391450D01*
X16542600Y-4361450D02*
X16512600Y-4391450D01*
X16512600Y-4615450D02*
X16542600Y-4645450D01*
X16542600Y-4615450D02*
X16512600Y-4645450D01*
X16512600Y-4818650D02*
X16542600Y-4848650D01*
X16542600Y-4818650D02*
X16512600Y-4848650D01*
X16512600Y-6037450D02*
X16542600Y-6067450D01*
X16542600Y-6037450D02*
X16512600Y-6067450D01*
X16512600Y-6240650D02*
X16542600Y-6270650D01*
X16542600Y-6240650D02*
X16512600Y-6270650D01*
X16512600Y-6494650D02*
X16542600Y-6524650D01*
X16542600Y-6494650D02*
X16512600Y-6524650D01*
X16512600Y-6697850D02*
X16542600Y-6727850D01*
X16542600Y-6697850D02*
X16512600Y-6727850D01*
X16512600Y-6901050D02*
X16542600Y-6931050D01*
X16542600Y-6901050D02*
X16512600Y-6931050D01*
X16512600Y-7104250D02*
X16542600Y-7134250D01*
X16542600Y-7104250D02*
X16512600Y-7134250D01*
X16512600Y-7358250D02*
X16542600Y-7388250D01*
X16542600Y-7358250D02*
X16512600Y-7388250D01*
X16512600Y-7561450D02*
X16542600Y-7591450D01*
X16542600Y-7561450D02*
X16512600Y-7591450D01*
X16512600Y-7815450D02*
X16542600Y-7845450D01*
X16542600Y-7815450D02*
X16512600Y-7845450D01*
X16512600Y-8018650D02*
X16542600Y-8048650D01*
X16542600Y-8018650D02*
X16512600Y-8048650D01*
X16766600Y-2837450D02*
X16796600Y-2867450D01*
X16796600Y-2837450D02*
X16766600Y-2867450D01*
X16766600Y-3040650D02*
X16796600Y-3070650D01*
X16796600Y-3040650D02*
X16766600Y-3070650D01*
X16766600Y-3294650D02*
X16796600Y-3324650D01*
X16796600Y-3294650D02*
X16766600Y-3324650D01*
X16766600Y-3497850D02*
X16796600Y-3527850D01*
X16796600Y-3497850D02*
X16766600Y-3527850D01*
X16766600Y-3701050D02*
X16796600Y-3731050D01*
X16796600Y-3701050D02*
X16766600Y-3731050D01*
X16766600Y-3955050D02*
X16796600Y-3985050D01*
X16796600Y-3955050D02*
X16766600Y-3985050D01*
X16766600Y-4158250D02*
X16796600Y-4188250D01*
X16796600Y-4158250D02*
X16766600Y-4188250D01*
X16766600Y-4412250D02*
X16796600Y-4442250D01*
X16796600Y-4412250D02*
X16766600Y-4442250D01*
X16766600Y-4666250D02*
X16796600Y-4696250D01*
X16796600Y-4666250D02*
X16766600Y-4696250D01*
X16766600Y-4869450D02*
X16796600Y-4899450D01*
X16796600Y-4869450D02*
X16766600Y-4899450D01*
X16766600Y-6037450D02*
X16796600Y-6067450D01*
X16796600Y-6037450D02*
X16766600Y-6067450D01*
X16766600Y-6240650D02*
X16796600Y-6270650D01*
X16796600Y-6240650D02*
X16766600Y-6270650D01*
X16766600Y-6494650D02*
X16796600Y-6524650D01*
X16796600Y-6494650D02*
X16766600Y-6524650D01*
X16766600Y-6697850D02*
X16796600Y-6727850D01*
X16796600Y-6697850D02*
X16766600Y-6727850D01*
X16766600Y-6901050D02*
X16796600Y-6931050D01*
X16796600Y-6901050D02*
X16766600Y-6931050D01*
X16766600Y-7155050D02*
X16796600Y-7185050D01*
X16796600Y-7155050D02*
X16766600Y-7185050D01*
X16766600Y-7358250D02*
X16796600Y-7388250D01*
X16796600Y-7358250D02*
X16766600Y-7388250D01*
X16766600Y-7612250D02*
X16796600Y-7642250D01*
X16796600Y-7612250D02*
X16766600Y-7642250D01*
X16766600Y-7866250D02*
X16796600Y-7896250D01*
X16796600Y-7866250D02*
X16766600Y-7896250D01*
X16766600Y-8069450D02*
X16796600Y-8099450D01*
X16796600Y-8069450D02*
X16766600Y-8099450D01*
X16969800Y-2837450D02*
X16999800Y-2867450D01*
X16999800Y-2837450D02*
X16969800Y-2867450D01*
X16969800Y-3040650D02*
X16999800Y-3070650D01*
X16999800Y-3040650D02*
X16969800Y-3070650D01*
X16969800Y-3294650D02*
X16999800Y-3324650D01*
X16999800Y-3294650D02*
X16969800Y-3324650D01*
X16969800Y-3497850D02*
X16999800Y-3527850D01*
X16999800Y-3497850D02*
X16969800Y-3527850D01*
X16969800Y-3701050D02*
X16999800Y-3731050D01*
X16999800Y-3701050D02*
X16969800Y-3731050D01*
X16969800Y-3955050D02*
X16999800Y-3985050D01*
X16999800Y-3955050D02*
X16969800Y-3985050D01*
X16969800Y-4158250D02*
X16999800Y-4188250D01*
X16999800Y-4158250D02*
X16969800Y-4188250D01*
X16969800Y-4412250D02*
X16999800Y-4442250D01*
X16999800Y-4412250D02*
X16969800Y-4442250D01*
X16969800Y-4666250D02*
X16999800Y-4696250D01*
X16999800Y-4666250D02*
X16969800Y-4696250D01*
X16969800Y-4869450D02*
X16999800Y-4899450D01*
X16999800Y-4869450D02*
X16969800Y-4899450D01*
X16969800Y-6037450D02*
X16999800Y-6067450D01*
X16999800Y-6037450D02*
X16969800Y-6067450D01*
X16969800Y-6240650D02*
X16999800Y-6270650D01*
X16999800Y-6240650D02*
X16969800Y-6270650D01*
X16969800Y-6494650D02*
X16999800Y-6524650D01*
X16999800Y-6494650D02*
X16969800Y-6524650D01*
X16969800Y-6697850D02*
X16999800Y-6727850D01*
X16999800Y-6697850D02*
X16969800Y-6727850D01*
X16969800Y-6901050D02*
X16999800Y-6931050D01*
X16999800Y-6901050D02*
X16969800Y-6931050D01*
X16969800Y-7155050D02*
X16999800Y-7185050D01*
X16999800Y-7155050D02*
X16969800Y-7185050D01*
X16969800Y-7358250D02*
X16999800Y-7388250D01*
X16999800Y-7358250D02*
X16969800Y-7388250D01*
X16969800Y-7612250D02*
X16999800Y-7642250D01*
X16999800Y-7612250D02*
X16969800Y-7642250D01*
X16969800Y-7866250D02*
X16999800Y-7896250D01*
X16999800Y-7866250D02*
X16969800Y-7896250D01*
X16969800Y-8069450D02*
X16999800Y-8099450D01*
X16999800Y-8069450D02*
X16969800Y-8099450D01*
X17173000Y-2837450D02*
X17203000Y-2867450D01*
X17203000Y-2837450D02*
X17173000Y-2867450D01*
X17173000Y-3040650D02*
X17203000Y-3070650D01*
X17203000Y-3040650D02*
X17173000Y-3070650D01*
X17173000Y-3294650D02*
X17203000Y-3324650D01*
X17203000Y-3294650D02*
X17173000Y-3324650D01*
X17173000Y-3497850D02*
X17203000Y-3527850D01*
X17203000Y-3497850D02*
X17173000Y-3527850D01*
X17173000Y-3701050D02*
X17203000Y-3731050D01*
X17203000Y-3701050D02*
X17173000Y-3731050D01*
X17173000Y-3955050D02*
X17203000Y-3985050D01*
X17203000Y-3955050D02*
X17173000Y-3985050D01*
X17173000Y-4158250D02*
X17203000Y-4188250D01*
X17203000Y-4158250D02*
X17173000Y-4188250D01*
X17173000Y-4412250D02*
X17203000Y-4442250D01*
X17203000Y-4412250D02*
X17173000Y-4442250D01*
X17173000Y-4666250D02*
X17203000Y-4696250D01*
X17203000Y-4666250D02*
X17173000Y-4696250D01*
X17173000Y-4869450D02*
X17203000Y-4899450D01*
X17203000Y-4869450D02*
X17173000Y-4899450D01*
X17173000Y-6037450D02*
X17203000Y-6067450D01*
X17203000Y-6037450D02*
X17173000Y-6067450D01*
X17173000Y-6240650D02*
X17203000Y-6270650D01*
X17203000Y-6240650D02*
X17173000Y-6270650D01*
X17173000Y-6494650D02*
X17203000Y-6524650D01*
X17203000Y-6494650D02*
X17173000Y-6524650D01*
X17173000Y-6697850D02*
X17203000Y-6727850D01*
X17203000Y-6697850D02*
X17173000Y-6727850D01*
X17173000Y-6901050D02*
X17203000Y-6931050D01*
X17203000Y-6901050D02*
X17173000Y-6931050D01*
X17173000Y-7155050D02*
X17203000Y-7185050D01*
X17203000Y-7155050D02*
X17173000Y-7185050D01*
X17173000Y-7358250D02*
X17203000Y-7388250D01*
X17203000Y-7358250D02*
X17173000Y-7388250D01*
X17173000Y-7612250D02*
X17203000Y-7642250D01*
X17203000Y-7612250D02*
X17173000Y-7642250D01*
X17173000Y-7866250D02*
X17203000Y-7896250D01*
X17203000Y-7866250D02*
X17173000Y-7896250D01*
X17173000Y-8069450D02*
X17203000Y-8099450D01*
X17203000Y-8069450D02*
X17173000Y-8099450D01*
X17223800Y-5072650D02*
X17253800Y-5102650D01*
X17253800Y-5072650D02*
X17223800Y-5102650D01*
X17223800Y-5275850D02*
X17253800Y-5305850D01*
X17253800Y-5275850D02*
X17223800Y-5305850D01*
X17223800Y-5479050D02*
X17253800Y-5509050D01*
X17253800Y-5479050D02*
X17223800Y-5509050D01*
X17223800Y-8272650D02*
X17253800Y-8302650D01*
X17253800Y-8272650D02*
X17223800Y-8302650D01*
X17223800Y-8475850D02*
X17253800Y-8505850D01*
X17253800Y-8475850D02*
X17223800Y-8505850D01*
X17223800Y-8679050D02*
X17253800Y-8709050D01*
X17253800Y-8679050D02*
X17223800Y-8709050D01*
X17376200Y-2837450D02*
X17406200Y-2867450D01*
X17406200Y-2837450D02*
X17376200Y-2867450D01*
X17376200Y-3040650D02*
X17406200Y-3070650D01*
X17406200Y-3040650D02*
X17376200Y-3070650D01*
X17376200Y-3294650D02*
X17406200Y-3324650D01*
X17406200Y-3294650D02*
X17376200Y-3324650D01*
X17376200Y-3497850D02*
X17406200Y-3527850D01*
X17406200Y-3497850D02*
X17376200Y-3527850D01*
X17376200Y-3701050D02*
X17406200Y-3731050D01*
X17406200Y-3701050D02*
X17376200Y-3731050D01*
X17376200Y-3955050D02*
X17406200Y-3985050D01*
X17406200Y-3955050D02*
X17376200Y-3985050D01*
X17376200Y-4158250D02*
X17406200Y-4188250D01*
X17406200Y-4158250D02*
X17376200Y-4188250D01*
X17376200Y-4412250D02*
X17406200Y-4442250D01*
X17406200Y-4412250D02*
X17376200Y-4442250D01*
X17376200Y-4666250D02*
X17406200Y-4696250D01*
X17406200Y-4666250D02*
X17376200Y-4696250D01*
X17376200Y-4869450D02*
X17406200Y-4899450D01*
X17406200Y-4869450D02*
X17376200Y-4899450D01*
X17376200Y-6037450D02*
X17406200Y-6067450D01*
X17406200Y-6037450D02*
X17376200Y-6067450D01*
X17376200Y-6240650D02*
X17406200Y-6270650D01*
X17406200Y-6240650D02*
X17376200Y-6270650D01*
X17376200Y-6494650D02*
X17406200Y-6524650D01*
X17406200Y-6494650D02*
X17376200Y-6524650D01*
X17376200Y-6697850D02*
X17406200Y-6727850D01*
X17406200Y-6697850D02*
X17376200Y-6727850D01*
X17376200Y-6901050D02*
X17406200Y-6931050D01*
X17406200Y-6901050D02*
X17376200Y-6931050D01*
X17376200Y-7155050D02*
X17406200Y-7185050D01*
X17406200Y-7155050D02*
X17376200Y-7185050D01*
X17376200Y-7358250D02*
X17406200Y-7388250D01*
X17406200Y-7358250D02*
X17376200Y-7388250D01*
X17376200Y-7612250D02*
X17406200Y-7642250D01*
X17406200Y-7612250D02*
X17376200Y-7642250D01*
X17376200Y-7866250D02*
X17406200Y-7896250D01*
X17406200Y-7866250D02*
X17376200Y-7896250D01*
X17376200Y-8069450D02*
X17406200Y-8099450D01*
X17406200Y-8069450D02*
X17376200Y-8099450D01*
X17427000Y-5072650D02*
X17457000Y-5102650D01*
X17457000Y-5072650D02*
X17427000Y-5102650D01*
X17427000Y-5275850D02*
X17457000Y-5305850D01*
X17457000Y-5275850D02*
X17427000Y-5305850D01*
X17427000Y-5479050D02*
X17457000Y-5509050D01*
X17457000Y-5479050D02*
X17427000Y-5509050D01*
X17427000Y-8272650D02*
X17457000Y-8302650D01*
X17457000Y-8272650D02*
X17427000Y-8302650D01*
X17427000Y-8475850D02*
X17457000Y-8505850D01*
X17457000Y-8475850D02*
X17427000Y-8505850D01*
X17427000Y-8679050D02*
X17457000Y-8709050D01*
X17457000Y-8679050D02*
X17427000Y-8709050D01*
X17630200Y-3497850D02*
X17660200Y-3527850D01*
X17660200Y-3497850D02*
X17630200Y-3527850D01*
X17630200Y-3701050D02*
X17660200Y-3731050D01*
X17660200Y-3701050D02*
X17630200Y-3731050D01*
X17630200Y-3904250D02*
X17660200Y-3934250D01*
X17660200Y-3904250D02*
X17630200Y-3934250D01*
X17630200Y-4107450D02*
X17660200Y-4137450D01*
X17660200Y-4107450D02*
X17630200Y-4137450D01*
X17630200Y-4361450D02*
X17660200Y-4391450D01*
X17660200Y-4361450D02*
X17630200Y-4391450D01*
X17630200Y-4564650D02*
X17660200Y-4594650D01*
X17660200Y-4564650D02*
X17630200Y-4594650D01*
X17630200Y-4767850D02*
X17660200Y-4797850D01*
X17660200Y-4767850D02*
X17630200Y-4797850D01*
X17630200Y-4971050D02*
X17660200Y-5001050D01*
X17660200Y-4971050D02*
X17630200Y-5001050D01*
X17630200Y-6697850D02*
X17660200Y-6727850D01*
X17660200Y-6697850D02*
X17630200Y-6727850D01*
X17630200Y-6901050D02*
X17660200Y-6931050D01*
X17660200Y-6901050D02*
X17630200Y-6931050D01*
X17630200Y-7104250D02*
X17660200Y-7134250D01*
X17660200Y-7104250D02*
X17630200Y-7134250D01*
X17630200Y-7307450D02*
X17660200Y-7337450D01*
X17660200Y-7307450D02*
X17630200Y-7337450D01*
X17630200Y-7561450D02*
X17660200Y-7591450D01*
X17660200Y-7561450D02*
X17630200Y-7591450D01*
X17630200Y-7764650D02*
X17660200Y-7794650D01*
X17660200Y-7764650D02*
X17630200Y-7794650D01*
X17630200Y-7967850D02*
X17660200Y-7997850D01*
X17660200Y-7967850D02*
X17630200Y-7997850D01*
X17630200Y-8171050D02*
X17660200Y-8201050D01*
X17660200Y-8171050D02*
X17630200Y-8201050D01*
X17833400Y-3497850D02*
X17863400Y-3527850D01*
X17863400Y-3497850D02*
X17833400Y-3527850D01*
X17833400Y-3701050D02*
X17863400Y-3731050D01*
X17863400Y-3701050D02*
X17833400Y-3731050D01*
X17833400Y-3904250D02*
X17863400Y-3934250D01*
X17863400Y-3904250D02*
X17833400Y-3934250D01*
X17833400Y-4107450D02*
X17863400Y-4137450D01*
X17863400Y-4107450D02*
X17833400Y-4137450D01*
X17833400Y-4361450D02*
X17863400Y-4391450D01*
X17863400Y-4361450D02*
X17833400Y-4391450D01*
X17833400Y-4564650D02*
X17863400Y-4594650D01*
X17863400Y-4564650D02*
X17833400Y-4594650D01*
X17833400Y-4767850D02*
X17863400Y-4797850D01*
X17863400Y-4767850D02*
X17833400Y-4797850D01*
X17833400Y-4971050D02*
X17863400Y-5001050D01*
X17863400Y-4971050D02*
X17833400Y-5001050D01*
X17833400Y-6697850D02*
X17863400Y-6727850D01*
X17863400Y-6697850D02*
X17833400Y-6727850D01*
X17833400Y-6901050D02*
X17863400Y-6931050D01*
X17863400Y-6901050D02*
X17833400Y-6931050D01*
X17833400Y-7104250D02*
X17863400Y-7134250D01*
X17863400Y-7104250D02*
X17833400Y-7134250D01*
X17833400Y-7307450D02*
X17863400Y-7337450D01*
X17863400Y-7307450D02*
X17833400Y-7337450D01*
X17833400Y-7561450D02*
X17863400Y-7591450D01*
X17863400Y-7561450D02*
X17833400Y-7591450D01*
X17833400Y-7764650D02*
X17863400Y-7794650D01*
X17863400Y-7764650D02*
X17833400Y-7794650D01*
X17833400Y-7967850D02*
X17863400Y-7997850D01*
X17863400Y-7967850D02*
X17833400Y-7997850D01*
X17833400Y-8171050D02*
X17863400Y-8201050D01*
X17863400Y-8171050D02*
X17833400Y-8201050D01*
X14520600Y-3614450D02*
G75*
G02*
X14470600Y-3614450I-25000J0D01*
G01*
X14470600Y-3614450D02*
G75*
G02*
X14520600Y-3614450I25000J0D01*
G01*
X14520600Y-6814450D02*
G75*
G02*
X14470600Y-6814450I-25000J0D01*
G01*
X14470600Y-6814450D02*
G75*
G02*
X14520600Y-6814450I25000J0D01*
G01*
X14774600Y-3614450D02*
G75*
G02*
X14724600Y-3614450I-25000J0D01*
G01*
X14724600Y-3614450D02*
G75*
G02*
X14774600Y-3614450I25000J0D01*
G01*
X14774600Y-6814450D02*
G75*
G02*
X14724600Y-6814450I-25000J0D01*
G01*
X14724600Y-6814450D02*
G75*
G02*
X14774600Y-6814450I25000J0D01*
G01*
X12717600Y-3527650D02*
X12717600Y-3607650D01*
X12677600Y-3567650D02*
X12757600Y-3567650D01*
X12717600Y-3777650D02*
X12717600Y-3857650D01*
X12677600Y-3817650D02*
X12757600Y-3817650D01*
X12717600Y-4472212D02*
X12717600Y-4552212D01*
X12677600Y-4512212D02*
X12757600Y-4512212D01*
X12717600Y-4722212D02*
X12717600Y-4802212D01*
X12677600Y-4762212D02*
X12757600Y-4762212D01*
X12717600Y-6727650D02*
X12717600Y-6807650D01*
X12677600Y-6767650D02*
X12757600Y-6767650D01*
X12717600Y-6977650D02*
X12717600Y-7057650D01*
X12677600Y-7017650D02*
X12757600Y-7017650D01*
X12717600Y-7672212D02*
X12717600Y-7752212D01*
X12677600Y-7712212D02*
X12757600Y-7712212D01*
X12717600Y-7922212D02*
X12717600Y-8002212D01*
X12677600Y-7962212D02*
X12757600Y-7962212D01*
X11889356Y-3853006D02*
X11889356Y-3782294D01*
X11818644Y-3782294D01*
X11818644Y-3853006D01*
X11889356Y-3853006D01*
X11889356Y-4107006D02*
X11889356Y-4036294D01*
X11818644Y-4036294D01*
X11818644Y-4107006D01*
X11889356Y-4107006D01*
X11889356Y-4361006D02*
X11889356Y-4290294D01*
X11818644Y-4290294D01*
X11818644Y-4361006D01*
X11889356Y-4361006D01*
X11889356Y-4615006D02*
X11889356Y-4544294D01*
X11818644Y-4544294D01*
X11818644Y-4615006D01*
X11889356Y-4615006D01*
X11889356Y-7053006D02*
X11889356Y-6982294D01*
X11818644Y-6982294D01*
X11818644Y-7053006D01*
X11889356Y-7053006D01*
X11889356Y-7307006D02*
X11889356Y-7236294D01*
X11818644Y-7236294D01*
X11818644Y-7307006D01*
X11889356Y-7307006D01*
X11889356Y-7561006D02*
X11889356Y-7490294D01*
X11818644Y-7490294D01*
X11818644Y-7561006D01*
X11889356Y-7561006D01*
X11889356Y-7815006D02*
X11889356Y-7744294D01*
X11818644Y-7744294D01*
X11818644Y-7815006D01*
X11889356Y-7815006D01*
X12702156Y-5478606D02*
X12702156Y-5407894D01*
X12631444Y-5407894D01*
X12631444Y-5478606D01*
X12702156Y-5478606D01*
X12702156Y-8678606D02*
X12702156Y-8607894D01*
X12631444Y-8607894D01*
X12631444Y-8678606D01*
X12702156Y-8678606D01*
X12956156Y-5478606D02*
X12956156Y-5407894D01*
X12885444Y-5407894D01*
X12885444Y-5478606D01*
X12956156Y-5478606D01*
X12956156Y-8678606D02*
X12956156Y-8607894D01*
X12885444Y-8607894D01*
X12885444Y-8678606D01*
X12956156Y-8678606D01*
X13210156Y-5478606D02*
X13210156Y-5407894D01*
X13139444Y-5407894D01*
X13139444Y-5478606D01*
X13210156Y-5478606D01*
X13210156Y-8678606D02*
X13210156Y-8607894D01*
X13139444Y-8607894D01*
X13139444Y-8678606D01*
X13210156Y-8678606D01*
X13464156Y-5478606D02*
X13464156Y-5407894D01*
X13393444Y-5407894D01*
X13393444Y-5478606D01*
X13464156Y-5478606D01*
X13464156Y-8678606D02*
X13464156Y-8607894D01*
X13393444Y-8607894D01*
X13393444Y-8678606D01*
X13464156Y-8678606D01*
X13718156Y-5478606D02*
X13718156Y-5407894D01*
X13647444Y-5407894D01*
X13647444Y-5478606D01*
X13718156Y-5478606D01*
X13718156Y-8678606D02*
X13718156Y-8607894D01*
X13647444Y-8607894D01*
X13647444Y-8678606D01*
X13718156Y-8678606D01*
X13972156Y-5478606D02*
X13972156Y-5407894D01*
X13901444Y-5407894D01*
X13901444Y-5478606D01*
X13972156Y-5478606D01*
X13972156Y-8678606D02*
X13972156Y-8607894D01*
X13901444Y-8607894D01*
X13901444Y-8678606D01*
X13972156Y-8678606D01*
X14226156Y-5478606D02*
X14226156Y-5407894D01*
X14155444Y-5407894D01*
X14155444Y-5478606D01*
X14226156Y-5478606D01*
X14226156Y-8678606D02*
X14226156Y-8607894D01*
X14155444Y-8607894D01*
X14155444Y-8678606D01*
X14226156Y-8678606D01*
X14480156Y-5478606D02*
X14480156Y-5407894D01*
X14409444Y-5407894D01*
X14409444Y-5478606D01*
X14480156Y-5478606D01*
X14480156Y-8678606D02*
X14480156Y-8607894D01*
X14409444Y-8607894D01*
X14409444Y-8678606D01*
X14480156Y-8678606D01*
X14734156Y-2989406D02*
X14734156Y-2918694D01*
X14663444Y-2918694D01*
X14663444Y-2989406D01*
X14734156Y-2989406D01*
X14734156Y-5478606D02*
X14734156Y-5407894D01*
X14663444Y-5407894D01*
X14663444Y-5478606D01*
X14734156Y-5478606D01*
X14734156Y-6189406D02*
X14734156Y-6118694D01*
X14663444Y-6118694D01*
X14663444Y-6189406D01*
X14734156Y-6189406D01*
X14734156Y-8678606D02*
X14734156Y-8607894D01*
X14663444Y-8607894D01*
X14663444Y-8678606D01*
X14734156Y-8678606D01*
X14988156Y-2989406D02*
X14988156Y-2918694D01*
X14917444Y-2918694D01*
X14917444Y-2989406D01*
X14988156Y-2989406D01*
X14988156Y-5478606D02*
X14988156Y-5407894D01*
X14917444Y-5407894D01*
X14917444Y-5478606D01*
X14988156Y-5478606D01*
X14988156Y-6189406D02*
X14988156Y-6118694D01*
X14917444Y-6118694D01*
X14917444Y-6189406D01*
X14988156Y-6189406D01*
X14988156Y-8678606D02*
X14988156Y-8607894D01*
X14917444Y-8607894D01*
X14917444Y-8678606D01*
X14988156Y-8678606D01*
X15242156Y-2989406D02*
X15242156Y-2918694D01*
X15171444Y-2918694D01*
X15171444Y-2989406D01*
X15242156Y-2989406D01*
X15242156Y-5478606D02*
X15242156Y-5407894D01*
X15171444Y-5407894D01*
X15171444Y-5478606D01*
X15242156Y-5478606D01*
X15242156Y-6189406D02*
X15242156Y-6118694D01*
X15171444Y-6118694D01*
X15171444Y-6189406D01*
X15242156Y-6189406D01*
X15242156Y-8678606D02*
X15242156Y-8607894D01*
X15171444Y-8607894D01*
X15171444Y-8678606D01*
X15242156Y-8678606D01*
X15496156Y-5478606D02*
X15496156Y-5407894D01*
X15425444Y-5407894D01*
X15425444Y-5478606D01*
X15496156Y-5478606D01*
X15496156Y-8678606D02*
X15496156Y-8607894D01*
X15425444Y-8607894D01*
X15425444Y-8678606D01*
X15496156Y-8678606D01*
X15750156Y-5478606D02*
X15750156Y-5407894D01*
X15679444Y-5407894D01*
X15679444Y-5478606D01*
X15750156Y-5478606D01*
X15750156Y-8678606D02*
X15750156Y-8607894D01*
X15679444Y-8607894D01*
X15679444Y-8678606D01*
X15750156Y-8678606D01*
X16004156Y-5478606D02*
X16004156Y-5407894D01*
X15933444Y-5407894D01*
X15933444Y-5478606D01*
X16004156Y-5478606D01*
X16004156Y-8678606D02*
X16004156Y-8607894D01*
X15933444Y-8607894D01*
X15933444Y-8678606D01*
X16004156Y-8678606D01*
X16258156Y-5478606D02*
X16258156Y-5407894D01*
X16187444Y-5407894D01*
X16187444Y-5478606D01*
X16258156Y-5478606D01*
X16258156Y-8678606D02*
X16258156Y-8607894D01*
X16187444Y-8607894D01*
X16187444Y-8678606D01*
X16258156Y-8678606D01*
X16512156Y-5478606D02*
X16512156Y-5407894D01*
X16441444Y-5407894D01*
X16441444Y-5478606D01*
X16512156Y-5478606D01*
X16512156Y-8678606D02*
X16512156Y-8607894D01*
X16441444Y-8607894D01*
X16441444Y-8678606D01*
X16512156Y-8678606D01*
X16766156Y-5478606D02*
X16766156Y-5407894D01*
X16695444Y-5407894D01*
X16695444Y-5478606D01*
X16766156Y-5478606D01*
X16766156Y-8678606D02*
X16766156Y-8607894D01*
X16695444Y-8607894D01*
X16695444Y-8678606D01*
X16766156Y-8678606D01*
X17020156Y-5478606D02*
X17020156Y-5407894D01*
X16949444Y-5407894D01*
X16949444Y-5478606D01*
X17020156Y-5478606D01*
X17020156Y-8678606D02*
X17020156Y-8607894D01*
X16949444Y-8607894D01*
X16949444Y-8678606D01*
X17020156Y-8678606D01*
D11*
X11855777Y-9916634D02*
X11855777Y-9716634D01*
X11855777Y-9716634D02*
X11903396Y-9716634D01*
X11903396Y-9716634D02*
X11931967Y-9726158D01*
X11931967Y-9726158D02*
X11951015Y-9745205D01*
X11951015Y-9745205D02*
X11960539Y-9764253D01*
X11960539Y-9764253D02*
X11970062Y-9802348D01*
X11970062Y-9802348D02*
X11970062Y-9830920D01*
X11970062Y-9830920D02*
X11960539Y-9869015D01*
X11960539Y-9869015D02*
X11951015Y-9888062D01*
X11951015Y-9888062D02*
X11931967Y-9907110D01*
X11931967Y-9907110D02*
X11903396Y-9916634D01*
X11903396Y-9916634D02*
X11855777Y-9916634D01*
X12055777Y-9916634D02*
X12055777Y-9783300D01*
X12055777Y-9821396D02*
X12065301Y-9802348D01*
X12065301Y-9802348D02*
X12074824Y-9792824D01*
X12074824Y-9792824D02*
X12093872Y-9783300D01*
X12093872Y-9783300D02*
X12112920Y-9783300D01*
X12179586Y-9916634D02*
X12179586Y-9783300D01*
X12179586Y-9716634D02*
X12170062Y-9726158D01*
X12170062Y-9726158D02*
X12179586Y-9735681D01*
X12179586Y-9735681D02*
X12189110Y-9726158D01*
X12189110Y-9726158D02*
X12179586Y-9716634D01*
X12179586Y-9716634D02*
X12179586Y-9735681D01*
X12303396Y-9916634D02*
X12284348Y-9907110D01*
X12284348Y-9907110D02*
X12274824Y-9888062D01*
X12274824Y-9888062D02*
X12274824Y-9716634D01*
X12408158Y-9916634D02*
X12389110Y-9907110D01*
X12389110Y-9907110D02*
X12379586Y-9888062D01*
X12379586Y-9888062D02*
X12379586Y-9716634D01*
X12636729Y-9916634D02*
X12636729Y-9716634D01*
X12636729Y-9716634D02*
X12703396Y-9859491D01*
X12703396Y-9859491D02*
X12770062Y-9716634D01*
X12770062Y-9716634D02*
X12770062Y-9916634D01*
X12951015Y-9916634D02*
X12951015Y-9811872D01*
X12951015Y-9811872D02*
X12941491Y-9792824D01*
X12941491Y-9792824D02*
X12922443Y-9783300D01*
X12922443Y-9783300D02*
X12884348Y-9783300D01*
X12884348Y-9783300D02*
X12865301Y-9792824D01*
X12951015Y-9907110D02*
X12931967Y-9916634D01*
X12931967Y-9916634D02*
X12884348Y-9916634D01*
X12884348Y-9916634D02*
X12865301Y-9907110D01*
X12865301Y-9907110D02*
X12855777Y-9888062D01*
X12855777Y-9888062D02*
X12855777Y-9869015D01*
X12855777Y-9869015D02*
X12865301Y-9849967D01*
X12865301Y-9849967D02*
X12884348Y-9840443D01*
X12884348Y-9840443D02*
X12931967Y-9840443D01*
X12931967Y-9840443D02*
X12951015Y-9830920D01*
X13046253Y-9783300D02*
X13046253Y-9983300D01*
X13046253Y-9792824D02*
X13065301Y-9783300D01*
X13065301Y-9783300D02*
X13103396Y-9783300D01*
X13103396Y-9783300D02*
X13122443Y-9792824D01*
X13122443Y-9792824D02*
X13131967Y-9802348D01*
X13131967Y-9802348D02*
X13141491Y-9821396D01*
X13141491Y-9821396D02*
X13141491Y-9878539D01*
X13141491Y-9878539D02*
X13131967Y-9897586D01*
X13131967Y-9897586D02*
X13122443Y-9907110D01*
X13122443Y-9907110D02*
X13103396Y-9916634D01*
X13103396Y-9916634D02*
X13065301Y-9916634D01*
X13065301Y-9916634D02*
X13046253Y-9907110D01*
X13227205Y-9897586D02*
X13236729Y-9907110D01*
X13236729Y-9907110D02*
X13227205Y-9916634D01*
X13227205Y-9916634D02*
X13217682Y-9907110D01*
X13217682Y-9907110D02*
X13227205Y-9897586D01*
X13227205Y-9897586D02*
X13227205Y-9916634D01*
X13227205Y-9792824D02*
X13236729Y-9802348D01*
X13236729Y-9802348D02*
X13227205Y-9811872D01*
X13227205Y-9811872D02*
X13217682Y-9802348D01*
X13217682Y-9802348D02*
X13227205Y-9792824D01*
X13227205Y-9792824D02*
X13227205Y-9811872D01*
D10*
X11565000Y-10230150D02*
X11595000Y-10260150D01*
X11595000Y-10230150D02*
X11565000Y-10260150D01*
D11*
X11893872Y-10136634D02*
X11912920Y-10136634D01*
X11912920Y-10136634D02*
X11931967Y-10146158D01*
X11931967Y-10146158D02*
X11941491Y-10155681D01*
X11941491Y-10155681D02*
X11951015Y-10174729D01*
X11951015Y-10174729D02*
X11960539Y-10212824D01*
X11960539Y-10212824D02*
X11960539Y-10260443D01*
X11960539Y-10260443D02*
X11951015Y-10298539D01*
X11951015Y-10298539D02*
X11941491Y-10317586D01*
X11941491Y-10317586D02*
X11931967Y-10327110D01*
X11931967Y-10327110D02*
X11912920Y-10336634D01*
X11912920Y-10336634D02*
X11893872Y-10336634D01*
X11893872Y-10336634D02*
X11874824Y-10327110D01*
X11874824Y-10327110D02*
X11865301Y-10317586D01*
X11865301Y-10317586D02*
X11855777Y-10298539D01*
X11855777Y-10298539D02*
X11846253Y-10260443D01*
X11846253Y-10260443D02*
X11846253Y-10212824D01*
X11846253Y-10212824D02*
X11855777Y-10174729D01*
X11855777Y-10174729D02*
X11865301Y-10155681D01*
X11865301Y-10155681D02*
X11874824Y-10146158D01*
X11874824Y-10146158D02*
X11893872Y-10136634D01*
X12046253Y-10317586D02*
X12055777Y-10327110D01*
X12055777Y-10327110D02*
X12046253Y-10336634D01*
X12046253Y-10336634D02*
X12036729Y-10327110D01*
X12036729Y-10327110D02*
X12046253Y-10317586D01*
X12046253Y-10317586D02*
X12046253Y-10336634D01*
X12122443Y-10136634D02*
X12246253Y-10136634D01*
X12246253Y-10136634D02*
X12179586Y-10212824D01*
X12179586Y-10212824D02*
X12208158Y-10212824D01*
X12208158Y-10212824D02*
X12227205Y-10222348D01*
X12227205Y-10222348D02*
X12236729Y-10231872D01*
X12236729Y-10231872D02*
X12246253Y-10250920D01*
X12246253Y-10250920D02*
X12246253Y-10298539D01*
X12246253Y-10298539D02*
X12236729Y-10317586D01*
X12236729Y-10317586D02*
X12227205Y-10327110D01*
X12227205Y-10327110D02*
X12208158Y-10336634D01*
X12208158Y-10336634D02*
X12151015Y-10336634D01*
X12151015Y-10336634D02*
X12131967Y-10327110D01*
X12131967Y-10327110D02*
X12122443Y-10317586D01*
X12370062Y-10136634D02*
X12389110Y-10136634D01*
X12389110Y-10136634D02*
X12408158Y-10146158D01*
X12408158Y-10146158D02*
X12417682Y-10155681D01*
X12417682Y-10155681D02*
X12427205Y-10174729D01*
X12427205Y-10174729D02*
X12436729Y-10212824D01*
X12436729Y-10212824D02*
X12436729Y-10260443D01*
X12436729Y-10260443D02*
X12427205Y-10298539D01*
X12427205Y-10298539D02*
X12417682Y-10317586D01*
X12417682Y-10317586D02*
X12408158Y-10327110D01*
X12408158Y-10327110D02*
X12389110Y-10336634D01*
X12389110Y-10336634D02*
X12370062Y-10336634D01*
X12370062Y-10336634D02*
X12351015Y-10327110D01*
X12351015Y-10327110D02*
X12341491Y-10317586D01*
X12341491Y-10317586D02*
X12331967Y-10298539D01*
X12331967Y-10298539D02*
X12322443Y-10260443D01*
X12322443Y-10260443D02*
X12322443Y-10212824D01*
X12322443Y-10212824D02*
X12331967Y-10174729D01*
X12331967Y-10174729D02*
X12341491Y-10155681D01*
X12341491Y-10155681D02*
X12351015Y-10146158D01*
X12351015Y-10146158D02*
X12370062Y-10136634D01*
X12560539Y-10136634D02*
X12579586Y-10136634D01*
X12579586Y-10136634D02*
X12598634Y-10146158D01*
X12598634Y-10146158D02*
X12608158Y-10155681D01*
X12608158Y-10155681D02*
X12617682Y-10174729D01*
X12617682Y-10174729D02*
X12627205Y-10212824D01*
X12627205Y-10212824D02*
X12627205Y-10260443D01*
X12627205Y-10260443D02*
X12617682Y-10298539D01*
X12617682Y-10298539D02*
X12608158Y-10317586D01*
X12608158Y-10317586D02*
X12598634Y-10327110D01*
X12598634Y-10327110D02*
X12579586Y-10336634D01*
X12579586Y-10336634D02*
X12560539Y-10336634D01*
X12560539Y-10336634D02*
X12541491Y-10327110D01*
X12541491Y-10327110D02*
X12531967Y-10317586D01*
X12531967Y-10317586D02*
X12522443Y-10298539D01*
X12522443Y-10298539D02*
X12512920Y-10260443D01*
X12512920Y-10260443D02*
X12512920Y-10212824D01*
X12512920Y-10212824D02*
X12522443Y-10174729D01*
X12522443Y-10174729D02*
X12531967Y-10155681D01*
X12531967Y-10155681D02*
X12541491Y-10146158D01*
X12541491Y-10146158D02*
X12560539Y-10136634D01*
X12712920Y-10336634D02*
X12712920Y-10203300D01*
X12712920Y-10222348D02*
X12722443Y-10212824D01*
X12722443Y-10212824D02*
X12741491Y-10203300D01*
X12741491Y-10203300D02*
X12770063Y-10203300D01*
X12770063Y-10203300D02*
X12789110Y-10212824D01*
X12789110Y-10212824D02*
X12798634Y-10231872D01*
X12798634Y-10231872D02*
X12798634Y-10336634D01*
X12798634Y-10231872D02*
X12808158Y-10212824D01*
X12808158Y-10212824D02*
X12827205Y-10203300D01*
X12827205Y-10203300D02*
X12855777Y-10203300D01*
X12855777Y-10203300D02*
X12874824Y-10212824D01*
X12874824Y-10212824D02*
X12884348Y-10231872D01*
X12884348Y-10231872D02*
X12884348Y-10336634D01*
X12979586Y-10336634D02*
X12979586Y-10203300D01*
X12979586Y-10222348D02*
X12989110Y-10212824D01*
X12989110Y-10212824D02*
X13008158Y-10203300D01*
X13008158Y-10203300D02*
X13036729Y-10203300D01*
X13036729Y-10203300D02*
X13055777Y-10212824D01*
X13055777Y-10212824D02*
X13065301Y-10231872D01*
X13065301Y-10231872D02*
X13065301Y-10336634D01*
X13065301Y-10231872D02*
X13074824Y-10212824D01*
X13074824Y-10212824D02*
X13093872Y-10203300D01*
X13093872Y-10203300D02*
X13122443Y-10203300D01*
X13122443Y-10203300D02*
X13141491Y-10212824D01*
X13141491Y-10212824D02*
X13151015Y-10231872D01*
X13151015Y-10231872D02*
X13151015Y-10336634D01*
X13541491Y-10127110D02*
X13370063Y-10384253D01*
X13798634Y-10136634D02*
X13817682Y-10136634D01*
X13817682Y-10136634D02*
X13836729Y-10146158D01*
X13836729Y-10146158D02*
X13846253Y-10155681D01*
X13846253Y-10155681D02*
X13855777Y-10174729D01*
X13855777Y-10174729D02*
X13865301Y-10212824D01*
X13865301Y-10212824D02*
X13865301Y-10260443D01*
X13865301Y-10260443D02*
X13855777Y-10298539D01*
X13855777Y-10298539D02*
X13846253Y-10317586D01*
X13846253Y-10317586D02*
X13836729Y-10327110D01*
X13836729Y-10327110D02*
X13817682Y-10336634D01*
X13817682Y-10336634D02*
X13798634Y-10336634D01*
X13798634Y-10336634D02*
X13779586Y-10327110D01*
X13779586Y-10327110D02*
X13770063Y-10317586D01*
X13770063Y-10317586D02*
X13760539Y-10298539D01*
X13760539Y-10298539D02*
X13751015Y-10260443D01*
X13751015Y-10260443D02*
X13751015Y-10212824D01*
X13751015Y-10212824D02*
X13760539Y-10174729D01*
X13760539Y-10174729D02*
X13770063Y-10155681D01*
X13770063Y-10155681D02*
X13779586Y-10146158D01*
X13779586Y-10146158D02*
X13798634Y-10136634D01*
X13951015Y-10317586D02*
X13960539Y-10327110D01*
X13960539Y-10327110D02*
X13951015Y-10336634D01*
X13951015Y-10336634D02*
X13941491Y-10327110D01*
X13941491Y-10327110D02*
X13951015Y-10317586D01*
X13951015Y-10317586D02*
X13951015Y-10336634D01*
X14084348Y-10136634D02*
X14103396Y-10136634D01*
X14103396Y-10136634D02*
X14122444Y-10146158D01*
X14122444Y-10146158D02*
X14131967Y-10155681D01*
X14131967Y-10155681D02*
X14141491Y-10174729D01*
X14141491Y-10174729D02*
X14151015Y-10212824D01*
X14151015Y-10212824D02*
X14151015Y-10260443D01*
X14151015Y-10260443D02*
X14141491Y-10298539D01*
X14141491Y-10298539D02*
X14131967Y-10317586D01*
X14131967Y-10317586D02*
X14122444Y-10327110D01*
X14122444Y-10327110D02*
X14103396Y-10336634D01*
X14103396Y-10336634D02*
X14084348Y-10336634D01*
X14084348Y-10336634D02*
X14065301Y-10327110D01*
X14065301Y-10327110D02*
X14055777Y-10317586D01*
X14055777Y-10317586D02*
X14046253Y-10298539D01*
X14046253Y-10298539D02*
X14036729Y-10260443D01*
X14036729Y-10260443D02*
X14036729Y-10212824D01*
X14036729Y-10212824D02*
X14046253Y-10174729D01*
X14046253Y-10174729D02*
X14055777Y-10155681D01*
X14055777Y-10155681D02*
X14065301Y-10146158D01*
X14065301Y-10146158D02*
X14084348Y-10136634D01*
X14341491Y-10336634D02*
X14227206Y-10336634D01*
X14284348Y-10336634D02*
X14284348Y-10136634D01*
X14284348Y-10136634D02*
X14265301Y-10165205D01*
X14265301Y-10165205D02*
X14246253Y-10184253D01*
X14246253Y-10184253D02*
X14227206Y-10193777D01*
X14531967Y-10336634D02*
X14417682Y-10336634D01*
X14474825Y-10336634D02*
X14474825Y-10136634D01*
X14474825Y-10136634D02*
X14455777Y-10165205D01*
X14455777Y-10165205D02*
X14436729Y-10184253D01*
X14436729Y-10184253D02*
X14417682Y-10193777D01*
X14646253Y-10222348D02*
X14627206Y-10212824D01*
X14627206Y-10212824D02*
X14617682Y-10203300D01*
X14617682Y-10203300D02*
X14608158Y-10184253D01*
X14608158Y-10184253D02*
X14608158Y-10174729D01*
X14608158Y-10174729D02*
X14617682Y-10155681D01*
X14617682Y-10155681D02*
X14627206Y-10146158D01*
X14627206Y-10146158D02*
X14646253Y-10136634D01*
X14646253Y-10136634D02*
X14684348Y-10136634D01*
X14684348Y-10136634D02*
X14703396Y-10146158D01*
X14703396Y-10146158D02*
X14712920Y-10155681D01*
X14712920Y-10155681D02*
X14722444Y-10174729D01*
X14722444Y-10174729D02*
X14722444Y-10184253D01*
X14722444Y-10184253D02*
X14712920Y-10203300D01*
X14712920Y-10203300D02*
X14703396Y-10212824D01*
X14703396Y-10212824D02*
X14684348Y-10222348D01*
X14684348Y-10222348D02*
X14646253Y-10222348D01*
X14646253Y-10222348D02*
X14627206Y-10231872D01*
X14627206Y-10231872D02*
X14617682Y-10241396D01*
X14617682Y-10241396D02*
X14608158Y-10260443D01*
X14608158Y-10260443D02*
X14608158Y-10298539D01*
X14608158Y-10298539D02*
X14617682Y-10317586D01*
X14617682Y-10317586D02*
X14627206Y-10327110D01*
X14627206Y-10327110D02*
X14646253Y-10336634D01*
X14646253Y-10336634D02*
X14684348Y-10336634D01*
X14684348Y-10336634D02*
X14703396Y-10327110D01*
X14703396Y-10327110D02*
X14712920Y-10317586D01*
X14712920Y-10317586D02*
X14722444Y-10298539D01*
X14722444Y-10298539D02*
X14722444Y-10260443D01*
X14722444Y-10260443D02*
X14712920Y-10241396D01*
X14712920Y-10241396D02*
X14703396Y-10231872D01*
X14703396Y-10231872D02*
X14684348Y-10222348D01*
X14798634Y-10136634D02*
X14798634Y-10174729D01*
X14874825Y-10136634D02*
X14874825Y-10174729D01*
X15170063Y-10412824D02*
X15160539Y-10403300D01*
X15160539Y-10403300D02*
X15141491Y-10374729D01*
X15141491Y-10374729D02*
X15131968Y-10355681D01*
X15131968Y-10355681D02*
X15122444Y-10327110D01*
X15122444Y-10327110D02*
X15112920Y-10279491D01*
X15112920Y-10279491D02*
X15112920Y-10241396D01*
X15112920Y-10241396D02*
X15122444Y-10193777D01*
X15122444Y-10193777D02*
X15131968Y-10165205D01*
X15131968Y-10165205D02*
X15141491Y-10146158D01*
X15141491Y-10146158D02*
X15160539Y-10117586D01*
X15160539Y-10117586D02*
X15170063Y-10108062D01*
X15331968Y-10203300D02*
X15331968Y-10336634D01*
X15284348Y-10127110D02*
X15236729Y-10269967D01*
X15236729Y-10269967D02*
X15360539Y-10269967D01*
X15427206Y-10155681D02*
X15436729Y-10146158D01*
X15436729Y-10146158D02*
X15455777Y-10136634D01*
X15455777Y-10136634D02*
X15503396Y-10136634D01*
X15503396Y-10136634D02*
X15522444Y-10146158D01*
X15522444Y-10146158D02*
X15531968Y-10155681D01*
X15531968Y-10155681D02*
X15541491Y-10174729D01*
X15541491Y-10174729D02*
X15541491Y-10193777D01*
X15541491Y-10193777D02*
X15531968Y-10222348D01*
X15531968Y-10222348D02*
X15417682Y-10336634D01*
X15417682Y-10336634D02*
X15541491Y-10336634D01*
X15712920Y-10136634D02*
X15674825Y-10136634D01*
X15674825Y-10136634D02*
X15655777Y-10146158D01*
X15655777Y-10146158D02*
X15646253Y-10155681D01*
X15646253Y-10155681D02*
X15627206Y-10184253D01*
X15627206Y-10184253D02*
X15617682Y-10222348D01*
X15617682Y-10222348D02*
X15617682Y-10298539D01*
X15617682Y-10298539D02*
X15627206Y-10317586D01*
X15627206Y-10317586D02*
X15636729Y-10327110D01*
X15636729Y-10327110D02*
X15655777Y-10336634D01*
X15655777Y-10336634D02*
X15693872Y-10336634D01*
X15693872Y-10336634D02*
X15712920Y-10327110D01*
X15712920Y-10327110D02*
X15722444Y-10317586D01*
X15722444Y-10317586D02*
X15731968Y-10298539D01*
X15731968Y-10298539D02*
X15731968Y-10250920D01*
X15731968Y-10250920D02*
X15722444Y-10231872D01*
X15722444Y-10231872D02*
X15712920Y-10222348D01*
X15712920Y-10222348D02*
X15693872Y-10212824D01*
X15693872Y-10212824D02*
X15655777Y-10212824D01*
X15655777Y-10212824D02*
X15636729Y-10222348D01*
X15636729Y-10222348D02*
X15627206Y-10231872D01*
X15627206Y-10231872D02*
X15617682Y-10250920D01*
X15970063Y-10336634D02*
X15970063Y-10136634D01*
X16055777Y-10336634D02*
X16055777Y-10231872D01*
X16055777Y-10231872D02*
X16046253Y-10212824D01*
X16046253Y-10212824D02*
X16027206Y-10203300D01*
X16027206Y-10203300D02*
X15998634Y-10203300D01*
X15998634Y-10203300D02*
X15979587Y-10212824D01*
X15979587Y-10212824D02*
X15970063Y-10222348D01*
X16179587Y-10336634D02*
X16160539Y-10327110D01*
X16160539Y-10327110D02*
X16151015Y-10317586D01*
X16151015Y-10317586D02*
X16141491Y-10298539D01*
X16141491Y-10298539D02*
X16141491Y-10241396D01*
X16141491Y-10241396D02*
X16151015Y-10222348D01*
X16151015Y-10222348D02*
X16160539Y-10212824D01*
X16160539Y-10212824D02*
X16179587Y-10203300D01*
X16179587Y-10203300D02*
X16208158Y-10203300D01*
X16208158Y-10203300D02*
X16227206Y-10212824D01*
X16227206Y-10212824D02*
X16236730Y-10222348D01*
X16236730Y-10222348D02*
X16246253Y-10241396D01*
X16246253Y-10241396D02*
X16246253Y-10298539D01*
X16246253Y-10298539D02*
X16236730Y-10317586D01*
X16236730Y-10317586D02*
X16227206Y-10327110D01*
X16227206Y-10327110D02*
X16208158Y-10336634D01*
X16208158Y-10336634D02*
X16179587Y-10336634D01*
X16360539Y-10336634D02*
X16341491Y-10327110D01*
X16341491Y-10327110D02*
X16331968Y-10308062D01*
X16331968Y-10308062D02*
X16331968Y-10136634D01*
X16512920Y-10327110D02*
X16493872Y-10336634D01*
X16493872Y-10336634D02*
X16455777Y-10336634D01*
X16455777Y-10336634D02*
X16436730Y-10327110D01*
X16436730Y-10327110D02*
X16427206Y-10308062D01*
X16427206Y-10308062D02*
X16427206Y-10231872D01*
X16427206Y-10231872D02*
X16436730Y-10212824D01*
X16436730Y-10212824D02*
X16455777Y-10203300D01*
X16455777Y-10203300D02*
X16493872Y-10203300D01*
X16493872Y-10203300D02*
X16512920Y-10212824D01*
X16512920Y-10212824D02*
X16522444Y-10231872D01*
X16522444Y-10231872D02*
X16522444Y-10250920D01*
X16522444Y-10250920D02*
X16427206Y-10269967D01*
X16598634Y-10327110D02*
X16617682Y-10336634D01*
X16617682Y-10336634D02*
X16655777Y-10336634D01*
X16655777Y-10336634D02*
X16674825Y-10327110D01*
X16674825Y-10327110D02*
X16684349Y-10308062D01*
X16684349Y-10308062D02*
X16684349Y-10298539D01*
X16684349Y-10298539D02*
X16674825Y-10279491D01*
X16674825Y-10279491D02*
X16655777Y-10269967D01*
X16655777Y-10269967D02*
X16627206Y-10269967D01*
X16627206Y-10269967D02*
X16608158Y-10260443D01*
X16608158Y-10260443D02*
X16598634Y-10241396D01*
X16598634Y-10241396D02*
X16598634Y-10231872D01*
X16598634Y-10231872D02*
X16608158Y-10212824D01*
X16608158Y-10212824D02*
X16627206Y-10203300D01*
X16627206Y-10203300D02*
X16655777Y-10203300D01*
X16655777Y-10203300D02*
X16674825Y-10212824D01*
X16751015Y-10412824D02*
X16760539Y-10403300D01*
X16760539Y-10403300D02*
X16779587Y-10374729D01*
X16779587Y-10374729D02*
X16789111Y-10355681D01*
X16789111Y-10355681D02*
X16798634Y-10327110D01*
X16798634Y-10327110D02*
X16808158Y-10279491D01*
X16808158Y-10279491D02*
X16808158Y-10241396D01*
X16808158Y-10241396D02*
X16798634Y-10193777D01*
X16798634Y-10193777D02*
X16789111Y-10165205D01*
X16789111Y-10165205D02*
X16779587Y-10146158D01*
X16779587Y-10146158D02*
X16760539Y-10117586D01*
X16760539Y-10117586D02*
X16751015Y-10108062D01*
D10*
X11595000Y-10509150D02*
G75*
G02*
X11545000Y-10509150I-25000J0D01*
G01*
X11545000Y-10509150D02*
G75*
G02*
X11595000Y-10509150I25000J0D01*
G01*
D11*
X11893872Y-10400634D02*
X11912920Y-10400634D01*
X11912920Y-10400634D02*
X11931967Y-10410158D01*
X11931967Y-10410158D02*
X11941491Y-10419681D01*
X11941491Y-10419681D02*
X11951015Y-10438729D01*
X11951015Y-10438729D02*
X11960539Y-10476824D01*
X11960539Y-10476824D02*
X11960539Y-10524443D01*
X11960539Y-10524443D02*
X11951015Y-10562539D01*
X11951015Y-10562539D02*
X11941491Y-10581586D01*
X11941491Y-10581586D02*
X11931967Y-10591110D01*
X11931967Y-10591110D02*
X11912920Y-10600634D01*
X11912920Y-10600634D02*
X11893872Y-10600634D01*
X11893872Y-10600634D02*
X11874824Y-10591110D01*
X11874824Y-10591110D02*
X11865301Y-10581586D01*
X11865301Y-10581586D02*
X11855777Y-10562539D01*
X11855777Y-10562539D02*
X11846253Y-10524443D01*
X11846253Y-10524443D02*
X11846253Y-10476824D01*
X11846253Y-10476824D02*
X11855777Y-10438729D01*
X11855777Y-10438729D02*
X11865301Y-10419681D01*
X11865301Y-10419681D02*
X11874824Y-10410158D01*
X11874824Y-10410158D02*
X11893872Y-10400634D01*
X12046253Y-10581586D02*
X12055777Y-10591110D01*
X12055777Y-10591110D02*
X12046253Y-10600634D01*
X12046253Y-10600634D02*
X12036729Y-10591110D01*
X12036729Y-10591110D02*
X12046253Y-10581586D01*
X12046253Y-10581586D02*
X12046253Y-10600634D01*
X12236729Y-10400634D02*
X12141491Y-10400634D01*
X12141491Y-10400634D02*
X12131967Y-10495872D01*
X12131967Y-10495872D02*
X12141491Y-10486348D01*
X12141491Y-10486348D02*
X12160539Y-10476824D01*
X12160539Y-10476824D02*
X12208158Y-10476824D01*
X12208158Y-10476824D02*
X12227205Y-10486348D01*
X12227205Y-10486348D02*
X12236729Y-10495872D01*
X12236729Y-10495872D02*
X12246253Y-10514920D01*
X12246253Y-10514920D02*
X12246253Y-10562539D01*
X12246253Y-10562539D02*
X12236729Y-10581586D01*
X12236729Y-10581586D02*
X12227205Y-10591110D01*
X12227205Y-10591110D02*
X12208158Y-10600634D01*
X12208158Y-10600634D02*
X12160539Y-10600634D01*
X12160539Y-10600634D02*
X12141491Y-10591110D01*
X12141491Y-10591110D02*
X12131967Y-10581586D01*
X12370062Y-10400634D02*
X12389110Y-10400634D01*
X12389110Y-10400634D02*
X12408158Y-10410158D01*
X12408158Y-10410158D02*
X12417682Y-10419681D01*
X12417682Y-10419681D02*
X12427205Y-10438729D01*
X12427205Y-10438729D02*
X12436729Y-10476824D01*
X12436729Y-10476824D02*
X12436729Y-10524443D01*
X12436729Y-10524443D02*
X12427205Y-10562539D01*
X12427205Y-10562539D02*
X12417682Y-10581586D01*
X12417682Y-10581586D02*
X12408158Y-10591110D01*
X12408158Y-10591110D02*
X12389110Y-10600634D01*
X12389110Y-10600634D02*
X12370062Y-10600634D01*
X12370062Y-10600634D02*
X12351015Y-10591110D01*
X12351015Y-10591110D02*
X12341491Y-10581586D01*
X12341491Y-10581586D02*
X12331967Y-10562539D01*
X12331967Y-10562539D02*
X12322443Y-10524443D01*
X12322443Y-10524443D02*
X12322443Y-10476824D01*
X12322443Y-10476824D02*
X12331967Y-10438729D01*
X12331967Y-10438729D02*
X12341491Y-10419681D01*
X12341491Y-10419681D02*
X12351015Y-10410158D01*
X12351015Y-10410158D02*
X12370062Y-10400634D01*
X12560539Y-10400634D02*
X12579586Y-10400634D01*
X12579586Y-10400634D02*
X12598634Y-10410158D01*
X12598634Y-10410158D02*
X12608158Y-10419681D01*
X12608158Y-10419681D02*
X12617682Y-10438729D01*
X12617682Y-10438729D02*
X12627205Y-10476824D01*
X12627205Y-10476824D02*
X12627205Y-10524443D01*
X12627205Y-10524443D02*
X12617682Y-10562539D01*
X12617682Y-10562539D02*
X12608158Y-10581586D01*
X12608158Y-10581586D02*
X12598634Y-10591110D01*
X12598634Y-10591110D02*
X12579586Y-10600634D01*
X12579586Y-10600634D02*
X12560539Y-10600634D01*
X12560539Y-10600634D02*
X12541491Y-10591110D01*
X12541491Y-10591110D02*
X12531967Y-10581586D01*
X12531967Y-10581586D02*
X12522443Y-10562539D01*
X12522443Y-10562539D02*
X12512920Y-10524443D01*
X12512920Y-10524443D02*
X12512920Y-10476824D01*
X12512920Y-10476824D02*
X12522443Y-10438729D01*
X12522443Y-10438729D02*
X12531967Y-10419681D01*
X12531967Y-10419681D02*
X12541491Y-10410158D01*
X12541491Y-10410158D02*
X12560539Y-10400634D01*
X12712920Y-10600634D02*
X12712920Y-10467300D01*
X12712920Y-10486348D02*
X12722443Y-10476824D01*
X12722443Y-10476824D02*
X12741491Y-10467300D01*
X12741491Y-10467300D02*
X12770063Y-10467300D01*
X12770063Y-10467300D02*
X12789110Y-10476824D01*
X12789110Y-10476824D02*
X12798634Y-10495872D01*
X12798634Y-10495872D02*
X12798634Y-10600634D01*
X12798634Y-10495872D02*
X12808158Y-10476824D01*
X12808158Y-10476824D02*
X12827205Y-10467300D01*
X12827205Y-10467300D02*
X12855777Y-10467300D01*
X12855777Y-10467300D02*
X12874824Y-10476824D01*
X12874824Y-10476824D02*
X12884348Y-10495872D01*
X12884348Y-10495872D02*
X12884348Y-10600634D01*
X12979586Y-10600634D02*
X12979586Y-10467300D01*
X12979586Y-10486348D02*
X12989110Y-10476824D01*
X12989110Y-10476824D02*
X13008158Y-10467300D01*
X13008158Y-10467300D02*
X13036729Y-10467300D01*
X13036729Y-10467300D02*
X13055777Y-10476824D01*
X13055777Y-10476824D02*
X13065301Y-10495872D01*
X13065301Y-10495872D02*
X13065301Y-10600634D01*
X13065301Y-10495872D02*
X13074824Y-10476824D01*
X13074824Y-10476824D02*
X13093872Y-10467300D01*
X13093872Y-10467300D02*
X13122443Y-10467300D01*
X13122443Y-10467300D02*
X13141491Y-10476824D01*
X13141491Y-10476824D02*
X13151015Y-10495872D01*
X13151015Y-10495872D02*
X13151015Y-10600634D01*
X13541491Y-10391110D02*
X13370063Y-10648253D01*
X13798634Y-10400634D02*
X13817682Y-10400634D01*
X13817682Y-10400634D02*
X13836729Y-10410158D01*
X13836729Y-10410158D02*
X13846253Y-10419681D01*
X13846253Y-10419681D02*
X13855777Y-10438729D01*
X13855777Y-10438729D02*
X13865301Y-10476824D01*
X13865301Y-10476824D02*
X13865301Y-10524443D01*
X13865301Y-10524443D02*
X13855777Y-10562539D01*
X13855777Y-10562539D02*
X13846253Y-10581586D01*
X13846253Y-10581586D02*
X13836729Y-10591110D01*
X13836729Y-10591110D02*
X13817682Y-10600634D01*
X13817682Y-10600634D02*
X13798634Y-10600634D01*
X13798634Y-10600634D02*
X13779586Y-10591110D01*
X13779586Y-10591110D02*
X13770063Y-10581586D01*
X13770063Y-10581586D02*
X13760539Y-10562539D01*
X13760539Y-10562539D02*
X13751015Y-10524443D01*
X13751015Y-10524443D02*
X13751015Y-10476824D01*
X13751015Y-10476824D02*
X13760539Y-10438729D01*
X13760539Y-10438729D02*
X13770063Y-10419681D01*
X13770063Y-10419681D02*
X13779586Y-10410158D01*
X13779586Y-10410158D02*
X13798634Y-10400634D01*
X13951015Y-10581586D02*
X13960539Y-10591110D01*
X13960539Y-10591110D02*
X13951015Y-10600634D01*
X13951015Y-10600634D02*
X13941491Y-10591110D01*
X13941491Y-10591110D02*
X13951015Y-10581586D01*
X13951015Y-10581586D02*
X13951015Y-10600634D01*
X14084348Y-10400634D02*
X14103396Y-10400634D01*
X14103396Y-10400634D02*
X14122444Y-10410158D01*
X14122444Y-10410158D02*
X14131967Y-10419681D01*
X14131967Y-10419681D02*
X14141491Y-10438729D01*
X14141491Y-10438729D02*
X14151015Y-10476824D01*
X14151015Y-10476824D02*
X14151015Y-10524443D01*
X14151015Y-10524443D02*
X14141491Y-10562539D01*
X14141491Y-10562539D02*
X14131967Y-10581586D01*
X14131967Y-10581586D02*
X14122444Y-10591110D01*
X14122444Y-10591110D02*
X14103396Y-10600634D01*
X14103396Y-10600634D02*
X14084348Y-10600634D01*
X14084348Y-10600634D02*
X14065301Y-10591110D01*
X14065301Y-10591110D02*
X14055777Y-10581586D01*
X14055777Y-10581586D02*
X14046253Y-10562539D01*
X14046253Y-10562539D02*
X14036729Y-10524443D01*
X14036729Y-10524443D02*
X14036729Y-10476824D01*
X14036729Y-10476824D02*
X14046253Y-10438729D01*
X14046253Y-10438729D02*
X14055777Y-10419681D01*
X14055777Y-10419681D02*
X14065301Y-10410158D01*
X14065301Y-10410158D02*
X14084348Y-10400634D01*
X14341491Y-10600634D02*
X14227206Y-10600634D01*
X14284348Y-10600634D02*
X14284348Y-10400634D01*
X14284348Y-10400634D02*
X14265301Y-10429205D01*
X14265301Y-10429205D02*
X14246253Y-10448253D01*
X14246253Y-10448253D02*
X14227206Y-10457777D01*
X14436729Y-10600634D02*
X14474825Y-10600634D01*
X14474825Y-10600634D02*
X14493872Y-10591110D01*
X14493872Y-10591110D02*
X14503396Y-10581586D01*
X14503396Y-10581586D02*
X14522444Y-10553015D01*
X14522444Y-10553015D02*
X14531967Y-10514920D01*
X14531967Y-10514920D02*
X14531967Y-10438729D01*
X14531967Y-10438729D02*
X14522444Y-10419681D01*
X14522444Y-10419681D02*
X14512920Y-10410158D01*
X14512920Y-10410158D02*
X14493872Y-10400634D01*
X14493872Y-10400634D02*
X14455777Y-10400634D01*
X14455777Y-10400634D02*
X14436729Y-10410158D01*
X14436729Y-10410158D02*
X14427206Y-10419681D01*
X14427206Y-10419681D02*
X14417682Y-10438729D01*
X14417682Y-10438729D02*
X14417682Y-10486348D01*
X14417682Y-10486348D02*
X14427206Y-10505396D01*
X14427206Y-10505396D02*
X14436729Y-10514920D01*
X14436729Y-10514920D02*
X14455777Y-10524443D01*
X14455777Y-10524443D02*
X14493872Y-10524443D01*
X14493872Y-10524443D02*
X14512920Y-10514920D01*
X14512920Y-10514920D02*
X14522444Y-10505396D01*
X14522444Y-10505396D02*
X14531967Y-10486348D01*
X14598634Y-10400634D02*
X14731967Y-10400634D01*
X14731967Y-10400634D02*
X14646253Y-10600634D01*
X14798634Y-10400634D02*
X14798634Y-10438729D01*
X14874825Y-10400634D02*
X14874825Y-10438729D01*
X15170063Y-10676824D02*
X15160539Y-10667300D01*
X15160539Y-10667300D02*
X15141491Y-10638729D01*
X15141491Y-10638729D02*
X15131968Y-10619681D01*
X15131968Y-10619681D02*
X15122444Y-10591110D01*
X15122444Y-10591110D02*
X15112920Y-10543491D01*
X15112920Y-10543491D02*
X15112920Y-10505396D01*
X15112920Y-10505396D02*
X15122444Y-10457777D01*
X15122444Y-10457777D02*
X15131968Y-10429205D01*
X15131968Y-10429205D02*
X15141491Y-10410158D01*
X15141491Y-10410158D02*
X15160539Y-10381586D01*
X15160539Y-10381586D02*
X15170063Y-10372062D01*
X15331968Y-10467300D02*
X15331968Y-10600634D01*
X15284348Y-10391110D02*
X15236729Y-10533967D01*
X15236729Y-10533967D02*
X15360539Y-10533967D01*
X15589110Y-10600634D02*
X15589110Y-10400634D01*
X15674825Y-10600634D02*
X15674825Y-10495872D01*
X15674825Y-10495872D02*
X15665301Y-10476824D01*
X15665301Y-10476824D02*
X15646253Y-10467300D01*
X15646253Y-10467300D02*
X15617682Y-10467300D01*
X15617682Y-10467300D02*
X15598634Y-10476824D01*
X15598634Y-10476824D02*
X15589110Y-10486348D01*
X15798634Y-10600634D02*
X15779587Y-10591110D01*
X15779587Y-10591110D02*
X15770063Y-10581586D01*
X15770063Y-10581586D02*
X15760539Y-10562539D01*
X15760539Y-10562539D02*
X15760539Y-10505396D01*
X15760539Y-10505396D02*
X15770063Y-10486348D01*
X15770063Y-10486348D02*
X15779587Y-10476824D01*
X15779587Y-10476824D02*
X15798634Y-10467300D01*
X15798634Y-10467300D02*
X15827206Y-10467300D01*
X15827206Y-10467300D02*
X15846253Y-10476824D01*
X15846253Y-10476824D02*
X15855777Y-10486348D01*
X15855777Y-10486348D02*
X15865301Y-10505396D01*
X15865301Y-10505396D02*
X15865301Y-10562539D01*
X15865301Y-10562539D02*
X15855777Y-10581586D01*
X15855777Y-10581586D02*
X15846253Y-10591110D01*
X15846253Y-10591110D02*
X15827206Y-10600634D01*
X15827206Y-10600634D02*
X15798634Y-10600634D01*
X15979587Y-10600634D02*
X15960539Y-10591110D01*
X15960539Y-10591110D02*
X15951015Y-10572062D01*
X15951015Y-10572062D02*
X15951015Y-10400634D01*
X16131968Y-10591110D02*
X16112920Y-10600634D01*
X16112920Y-10600634D02*
X16074825Y-10600634D01*
X16074825Y-10600634D02*
X16055777Y-10591110D01*
X16055777Y-10591110D02*
X16046253Y-10572062D01*
X16046253Y-10572062D02*
X16046253Y-10495872D01*
X16046253Y-10495872D02*
X16055777Y-10476824D01*
X16055777Y-10476824D02*
X16074825Y-10467300D01*
X16074825Y-10467300D02*
X16112920Y-10467300D01*
X16112920Y-10467300D02*
X16131968Y-10476824D01*
X16131968Y-10476824D02*
X16141491Y-10495872D01*
X16141491Y-10495872D02*
X16141491Y-10514920D01*
X16141491Y-10514920D02*
X16046253Y-10533967D01*
X16217682Y-10591110D02*
X16236730Y-10600634D01*
X16236730Y-10600634D02*
X16274825Y-10600634D01*
X16274825Y-10600634D02*
X16293872Y-10591110D01*
X16293872Y-10591110D02*
X16303396Y-10572062D01*
X16303396Y-10572062D02*
X16303396Y-10562539D01*
X16303396Y-10562539D02*
X16293872Y-10543491D01*
X16293872Y-10543491D02*
X16274825Y-10533967D01*
X16274825Y-10533967D02*
X16246253Y-10533967D01*
X16246253Y-10533967D02*
X16227206Y-10524443D01*
X16227206Y-10524443D02*
X16217682Y-10505396D01*
X16217682Y-10505396D02*
X16217682Y-10495872D01*
X16217682Y-10495872D02*
X16227206Y-10476824D01*
X16227206Y-10476824D02*
X16246253Y-10467300D01*
X16246253Y-10467300D02*
X16274825Y-10467300D01*
X16274825Y-10467300D02*
X16293872Y-10476824D01*
X16370063Y-10676824D02*
X16379587Y-10667300D01*
X16379587Y-10667300D02*
X16398634Y-10638729D01*
X16398634Y-10638729D02*
X16408158Y-10619681D01*
X16408158Y-10619681D02*
X16417682Y-10591110D01*
X16417682Y-10591110D02*
X16427206Y-10543491D01*
X16427206Y-10543491D02*
X16427206Y-10505396D01*
X16427206Y-10505396D02*
X16417682Y-10457777D01*
X16417682Y-10457777D02*
X16408158Y-10429205D01*
X16408158Y-10429205D02*
X16398634Y-10410158D01*
X16398634Y-10410158D02*
X16379587Y-10381586D01*
X16379587Y-10381586D02*
X16370063Y-10372062D01*
D10*
X11555000Y-10733150D02*
X11555000Y-10813150D01*
X11515000Y-10773150D02*
X11595000Y-10773150D01*
D11*
X11893872Y-10664634D02*
X11912920Y-10664634D01*
X11912920Y-10664634D02*
X11931967Y-10674158D01*
X11931967Y-10674158D02*
X11941491Y-10683681D01*
X11941491Y-10683681D02*
X11951015Y-10702729D01*
X11951015Y-10702729D02*
X11960539Y-10740824D01*
X11960539Y-10740824D02*
X11960539Y-10788443D01*
X11960539Y-10788443D02*
X11951015Y-10826539D01*
X11951015Y-10826539D02*
X11941491Y-10845586D01*
X11941491Y-10845586D02*
X11931967Y-10855110D01*
X11931967Y-10855110D02*
X11912920Y-10864634D01*
X11912920Y-10864634D02*
X11893872Y-10864634D01*
X11893872Y-10864634D02*
X11874824Y-10855110D01*
X11874824Y-10855110D02*
X11865301Y-10845586D01*
X11865301Y-10845586D02*
X11855777Y-10826539D01*
X11855777Y-10826539D02*
X11846253Y-10788443D01*
X11846253Y-10788443D02*
X11846253Y-10740824D01*
X11846253Y-10740824D02*
X11855777Y-10702729D01*
X11855777Y-10702729D02*
X11865301Y-10683681D01*
X11865301Y-10683681D02*
X11874824Y-10674158D01*
X11874824Y-10674158D02*
X11893872Y-10664634D01*
X12046253Y-10845586D02*
X12055777Y-10855110D01*
X12055777Y-10855110D02*
X12046253Y-10864634D01*
X12046253Y-10864634D02*
X12036729Y-10855110D01*
X12036729Y-10855110D02*
X12046253Y-10845586D01*
X12046253Y-10845586D02*
X12046253Y-10864634D01*
X12170062Y-10750348D02*
X12151015Y-10740824D01*
X12151015Y-10740824D02*
X12141491Y-10731300D01*
X12141491Y-10731300D02*
X12131967Y-10712253D01*
X12131967Y-10712253D02*
X12131967Y-10702729D01*
X12131967Y-10702729D02*
X12141491Y-10683681D01*
X12141491Y-10683681D02*
X12151015Y-10674158D01*
X12151015Y-10674158D02*
X12170062Y-10664634D01*
X12170062Y-10664634D02*
X12208158Y-10664634D01*
X12208158Y-10664634D02*
X12227205Y-10674158D01*
X12227205Y-10674158D02*
X12236729Y-10683681D01*
X12236729Y-10683681D02*
X12246253Y-10702729D01*
X12246253Y-10702729D02*
X12246253Y-10712253D01*
X12246253Y-10712253D02*
X12236729Y-10731300D01*
X12236729Y-10731300D02*
X12227205Y-10740824D01*
X12227205Y-10740824D02*
X12208158Y-10750348D01*
X12208158Y-10750348D02*
X12170062Y-10750348D01*
X12170062Y-10750348D02*
X12151015Y-10759872D01*
X12151015Y-10759872D02*
X12141491Y-10769396D01*
X12141491Y-10769396D02*
X12131967Y-10788443D01*
X12131967Y-10788443D02*
X12131967Y-10826539D01*
X12131967Y-10826539D02*
X12141491Y-10845586D01*
X12141491Y-10845586D02*
X12151015Y-10855110D01*
X12151015Y-10855110D02*
X12170062Y-10864634D01*
X12170062Y-10864634D02*
X12208158Y-10864634D01*
X12208158Y-10864634D02*
X12227205Y-10855110D01*
X12227205Y-10855110D02*
X12236729Y-10845586D01*
X12236729Y-10845586D02*
X12246253Y-10826539D01*
X12246253Y-10826539D02*
X12246253Y-10788443D01*
X12246253Y-10788443D02*
X12236729Y-10769396D01*
X12236729Y-10769396D02*
X12227205Y-10759872D01*
X12227205Y-10759872D02*
X12208158Y-10750348D01*
X12370062Y-10664634D02*
X12389110Y-10664634D01*
X12389110Y-10664634D02*
X12408158Y-10674158D01*
X12408158Y-10674158D02*
X12417682Y-10683681D01*
X12417682Y-10683681D02*
X12427205Y-10702729D01*
X12427205Y-10702729D02*
X12436729Y-10740824D01*
X12436729Y-10740824D02*
X12436729Y-10788443D01*
X12436729Y-10788443D02*
X12427205Y-10826539D01*
X12427205Y-10826539D02*
X12417682Y-10845586D01*
X12417682Y-10845586D02*
X12408158Y-10855110D01*
X12408158Y-10855110D02*
X12389110Y-10864634D01*
X12389110Y-10864634D02*
X12370062Y-10864634D01*
X12370062Y-10864634D02*
X12351015Y-10855110D01*
X12351015Y-10855110D02*
X12341491Y-10845586D01*
X12341491Y-10845586D02*
X12331967Y-10826539D01*
X12331967Y-10826539D02*
X12322443Y-10788443D01*
X12322443Y-10788443D02*
X12322443Y-10740824D01*
X12322443Y-10740824D02*
X12331967Y-10702729D01*
X12331967Y-10702729D02*
X12341491Y-10683681D01*
X12341491Y-10683681D02*
X12351015Y-10674158D01*
X12351015Y-10674158D02*
X12370062Y-10664634D01*
X12560539Y-10664634D02*
X12579586Y-10664634D01*
X12579586Y-10664634D02*
X12598634Y-10674158D01*
X12598634Y-10674158D02*
X12608158Y-10683681D01*
X12608158Y-10683681D02*
X12617682Y-10702729D01*
X12617682Y-10702729D02*
X12627205Y-10740824D01*
X12627205Y-10740824D02*
X12627205Y-10788443D01*
X12627205Y-10788443D02*
X12617682Y-10826539D01*
X12617682Y-10826539D02*
X12608158Y-10845586D01*
X12608158Y-10845586D02*
X12598634Y-10855110D01*
X12598634Y-10855110D02*
X12579586Y-10864634D01*
X12579586Y-10864634D02*
X12560539Y-10864634D01*
X12560539Y-10864634D02*
X12541491Y-10855110D01*
X12541491Y-10855110D02*
X12531967Y-10845586D01*
X12531967Y-10845586D02*
X12522443Y-10826539D01*
X12522443Y-10826539D02*
X12512920Y-10788443D01*
X12512920Y-10788443D02*
X12512920Y-10740824D01*
X12512920Y-10740824D02*
X12522443Y-10702729D01*
X12522443Y-10702729D02*
X12531967Y-10683681D01*
X12531967Y-10683681D02*
X12541491Y-10674158D01*
X12541491Y-10674158D02*
X12560539Y-10664634D01*
X12712920Y-10864634D02*
X12712920Y-10731300D01*
X12712920Y-10750348D02*
X12722443Y-10740824D01*
X12722443Y-10740824D02*
X12741491Y-10731300D01*
X12741491Y-10731300D02*
X12770063Y-10731300D01*
X12770063Y-10731300D02*
X12789110Y-10740824D01*
X12789110Y-10740824D02*
X12798634Y-10759872D01*
X12798634Y-10759872D02*
X12798634Y-10864634D01*
X12798634Y-10759872D02*
X12808158Y-10740824D01*
X12808158Y-10740824D02*
X12827205Y-10731300D01*
X12827205Y-10731300D02*
X12855777Y-10731300D01*
X12855777Y-10731300D02*
X12874824Y-10740824D01*
X12874824Y-10740824D02*
X12884348Y-10759872D01*
X12884348Y-10759872D02*
X12884348Y-10864634D01*
X12979586Y-10864634D02*
X12979586Y-10731300D01*
X12979586Y-10750348D02*
X12989110Y-10740824D01*
X12989110Y-10740824D02*
X13008158Y-10731300D01*
X13008158Y-10731300D02*
X13036729Y-10731300D01*
X13036729Y-10731300D02*
X13055777Y-10740824D01*
X13055777Y-10740824D02*
X13065301Y-10759872D01*
X13065301Y-10759872D02*
X13065301Y-10864634D01*
X13065301Y-10759872D02*
X13074824Y-10740824D01*
X13074824Y-10740824D02*
X13093872Y-10731300D01*
X13093872Y-10731300D02*
X13122443Y-10731300D01*
X13122443Y-10731300D02*
X13141491Y-10740824D01*
X13141491Y-10740824D02*
X13151015Y-10759872D01*
X13151015Y-10759872D02*
X13151015Y-10864634D01*
X13541491Y-10655110D02*
X13370063Y-10912253D01*
X13798634Y-10664634D02*
X13817682Y-10664634D01*
X13817682Y-10664634D02*
X13836729Y-10674158D01*
X13836729Y-10674158D02*
X13846253Y-10683681D01*
X13846253Y-10683681D02*
X13855777Y-10702729D01*
X13855777Y-10702729D02*
X13865301Y-10740824D01*
X13865301Y-10740824D02*
X13865301Y-10788443D01*
X13865301Y-10788443D02*
X13855777Y-10826539D01*
X13855777Y-10826539D02*
X13846253Y-10845586D01*
X13846253Y-10845586D02*
X13836729Y-10855110D01*
X13836729Y-10855110D02*
X13817682Y-10864634D01*
X13817682Y-10864634D02*
X13798634Y-10864634D01*
X13798634Y-10864634D02*
X13779586Y-10855110D01*
X13779586Y-10855110D02*
X13770063Y-10845586D01*
X13770063Y-10845586D02*
X13760539Y-10826539D01*
X13760539Y-10826539D02*
X13751015Y-10788443D01*
X13751015Y-10788443D02*
X13751015Y-10740824D01*
X13751015Y-10740824D02*
X13760539Y-10702729D01*
X13760539Y-10702729D02*
X13770063Y-10683681D01*
X13770063Y-10683681D02*
X13779586Y-10674158D01*
X13779586Y-10674158D02*
X13798634Y-10664634D01*
X13951015Y-10845586D02*
X13960539Y-10855110D01*
X13960539Y-10855110D02*
X13951015Y-10864634D01*
X13951015Y-10864634D02*
X13941491Y-10855110D01*
X13941491Y-10855110D02*
X13951015Y-10845586D01*
X13951015Y-10845586D02*
X13951015Y-10864634D01*
X14084348Y-10664634D02*
X14103396Y-10664634D01*
X14103396Y-10664634D02*
X14122444Y-10674158D01*
X14122444Y-10674158D02*
X14131967Y-10683681D01*
X14131967Y-10683681D02*
X14141491Y-10702729D01*
X14141491Y-10702729D02*
X14151015Y-10740824D01*
X14151015Y-10740824D02*
X14151015Y-10788443D01*
X14151015Y-10788443D02*
X14141491Y-10826539D01*
X14141491Y-10826539D02*
X14131967Y-10845586D01*
X14131967Y-10845586D02*
X14122444Y-10855110D01*
X14122444Y-10855110D02*
X14103396Y-10864634D01*
X14103396Y-10864634D02*
X14084348Y-10864634D01*
X14084348Y-10864634D02*
X14065301Y-10855110D01*
X14065301Y-10855110D02*
X14055777Y-10845586D01*
X14055777Y-10845586D02*
X14046253Y-10826539D01*
X14046253Y-10826539D02*
X14036729Y-10788443D01*
X14036729Y-10788443D02*
X14036729Y-10740824D01*
X14036729Y-10740824D02*
X14046253Y-10702729D01*
X14046253Y-10702729D02*
X14055777Y-10683681D01*
X14055777Y-10683681D02*
X14065301Y-10674158D01*
X14065301Y-10674158D02*
X14084348Y-10664634D01*
X14217682Y-10664634D02*
X14341491Y-10664634D01*
X14341491Y-10664634D02*
X14274825Y-10740824D01*
X14274825Y-10740824D02*
X14303396Y-10740824D01*
X14303396Y-10740824D02*
X14322444Y-10750348D01*
X14322444Y-10750348D02*
X14331967Y-10759872D01*
X14331967Y-10759872D02*
X14341491Y-10778920D01*
X14341491Y-10778920D02*
X14341491Y-10826539D01*
X14341491Y-10826539D02*
X14331967Y-10845586D01*
X14331967Y-10845586D02*
X14322444Y-10855110D01*
X14322444Y-10855110D02*
X14303396Y-10864634D01*
X14303396Y-10864634D02*
X14246253Y-10864634D01*
X14246253Y-10864634D02*
X14227206Y-10855110D01*
X14227206Y-10855110D02*
X14217682Y-10845586D01*
X14531967Y-10864634D02*
X14417682Y-10864634D01*
X14474825Y-10864634D02*
X14474825Y-10664634D01*
X14474825Y-10664634D02*
X14455777Y-10693205D01*
X14455777Y-10693205D02*
X14436729Y-10712253D01*
X14436729Y-10712253D02*
X14417682Y-10721777D01*
X14712920Y-10664634D02*
X14617682Y-10664634D01*
X14617682Y-10664634D02*
X14608158Y-10759872D01*
X14608158Y-10759872D02*
X14617682Y-10750348D01*
X14617682Y-10750348D02*
X14636729Y-10740824D01*
X14636729Y-10740824D02*
X14684348Y-10740824D01*
X14684348Y-10740824D02*
X14703396Y-10750348D01*
X14703396Y-10750348D02*
X14712920Y-10759872D01*
X14712920Y-10759872D02*
X14722444Y-10778920D01*
X14722444Y-10778920D02*
X14722444Y-10826539D01*
X14722444Y-10826539D02*
X14712920Y-10845586D01*
X14712920Y-10845586D02*
X14703396Y-10855110D01*
X14703396Y-10855110D02*
X14684348Y-10864634D01*
X14684348Y-10864634D02*
X14636729Y-10864634D01*
X14636729Y-10864634D02*
X14617682Y-10855110D01*
X14617682Y-10855110D02*
X14608158Y-10845586D01*
X14798634Y-10664634D02*
X14798634Y-10702729D01*
X14874825Y-10664634D02*
X14874825Y-10702729D01*
X15170063Y-10940824D02*
X15160539Y-10931300D01*
X15160539Y-10931300D02*
X15141491Y-10902729D01*
X15141491Y-10902729D02*
X15131968Y-10883681D01*
X15131968Y-10883681D02*
X15122444Y-10855110D01*
X15122444Y-10855110D02*
X15112920Y-10807491D01*
X15112920Y-10807491D02*
X15112920Y-10769396D01*
X15112920Y-10769396D02*
X15122444Y-10721777D01*
X15122444Y-10721777D02*
X15131968Y-10693205D01*
X15131968Y-10693205D02*
X15141491Y-10674158D01*
X15141491Y-10674158D02*
X15160539Y-10645586D01*
X15160539Y-10645586D02*
X15170063Y-10636062D01*
X15274825Y-10750348D02*
X15255777Y-10740824D01*
X15255777Y-10740824D02*
X15246253Y-10731300D01*
X15246253Y-10731300D02*
X15236729Y-10712253D01*
X15236729Y-10712253D02*
X15236729Y-10702729D01*
X15236729Y-10702729D02*
X15246253Y-10683681D01*
X15246253Y-10683681D02*
X15255777Y-10674158D01*
X15255777Y-10674158D02*
X15274825Y-10664634D01*
X15274825Y-10664634D02*
X15312920Y-10664634D01*
X15312920Y-10664634D02*
X15331968Y-10674158D01*
X15331968Y-10674158D02*
X15341491Y-10683681D01*
X15341491Y-10683681D02*
X15351015Y-10702729D01*
X15351015Y-10702729D02*
X15351015Y-10712253D01*
X15351015Y-10712253D02*
X15341491Y-10731300D01*
X15341491Y-10731300D02*
X15331968Y-10740824D01*
X15331968Y-10740824D02*
X15312920Y-10750348D01*
X15312920Y-10750348D02*
X15274825Y-10750348D01*
X15274825Y-10750348D02*
X15255777Y-10759872D01*
X15255777Y-10759872D02*
X15246253Y-10769396D01*
X15246253Y-10769396D02*
X15236729Y-10788443D01*
X15236729Y-10788443D02*
X15236729Y-10826539D01*
X15236729Y-10826539D02*
X15246253Y-10845586D01*
X15246253Y-10845586D02*
X15255777Y-10855110D01*
X15255777Y-10855110D02*
X15274825Y-10864634D01*
X15274825Y-10864634D02*
X15312920Y-10864634D01*
X15312920Y-10864634D02*
X15331968Y-10855110D01*
X15331968Y-10855110D02*
X15341491Y-10845586D01*
X15341491Y-10845586D02*
X15351015Y-10826539D01*
X15351015Y-10826539D02*
X15351015Y-10788443D01*
X15351015Y-10788443D02*
X15341491Y-10769396D01*
X15341491Y-10769396D02*
X15331968Y-10759872D01*
X15331968Y-10759872D02*
X15312920Y-10750348D01*
X15589110Y-10864634D02*
X15589110Y-10664634D01*
X15674825Y-10864634D02*
X15674825Y-10759872D01*
X15674825Y-10759872D02*
X15665301Y-10740824D01*
X15665301Y-10740824D02*
X15646253Y-10731300D01*
X15646253Y-10731300D02*
X15617682Y-10731300D01*
X15617682Y-10731300D02*
X15598634Y-10740824D01*
X15598634Y-10740824D02*
X15589110Y-10750348D01*
X15798634Y-10864634D02*
X15779587Y-10855110D01*
X15779587Y-10855110D02*
X15770063Y-10845586D01*
X15770063Y-10845586D02*
X15760539Y-10826539D01*
X15760539Y-10826539D02*
X15760539Y-10769396D01*
X15760539Y-10769396D02*
X15770063Y-10750348D01*
X15770063Y-10750348D02*
X15779587Y-10740824D01*
X15779587Y-10740824D02*
X15798634Y-10731300D01*
X15798634Y-10731300D02*
X15827206Y-10731300D01*
X15827206Y-10731300D02*
X15846253Y-10740824D01*
X15846253Y-10740824D02*
X15855777Y-10750348D01*
X15855777Y-10750348D02*
X15865301Y-10769396D01*
X15865301Y-10769396D02*
X15865301Y-10826539D01*
X15865301Y-10826539D02*
X15855777Y-10845586D01*
X15855777Y-10845586D02*
X15846253Y-10855110D01*
X15846253Y-10855110D02*
X15827206Y-10864634D01*
X15827206Y-10864634D02*
X15798634Y-10864634D01*
X15979587Y-10864634D02*
X15960539Y-10855110D01*
X15960539Y-10855110D02*
X15951015Y-10836062D01*
X15951015Y-10836062D02*
X15951015Y-10664634D01*
X16131968Y-10855110D02*
X16112920Y-10864634D01*
X16112920Y-10864634D02*
X16074825Y-10864634D01*
X16074825Y-10864634D02*
X16055777Y-10855110D01*
X16055777Y-10855110D02*
X16046253Y-10836062D01*
X16046253Y-10836062D02*
X16046253Y-10759872D01*
X16046253Y-10759872D02*
X16055777Y-10740824D01*
X16055777Y-10740824D02*
X16074825Y-10731300D01*
X16074825Y-10731300D02*
X16112920Y-10731300D01*
X16112920Y-10731300D02*
X16131968Y-10740824D01*
X16131968Y-10740824D02*
X16141491Y-10759872D01*
X16141491Y-10759872D02*
X16141491Y-10778920D01*
X16141491Y-10778920D02*
X16046253Y-10797967D01*
X16217682Y-10855110D02*
X16236730Y-10864634D01*
X16236730Y-10864634D02*
X16274825Y-10864634D01*
X16274825Y-10864634D02*
X16293872Y-10855110D01*
X16293872Y-10855110D02*
X16303396Y-10836062D01*
X16303396Y-10836062D02*
X16303396Y-10826539D01*
X16303396Y-10826539D02*
X16293872Y-10807491D01*
X16293872Y-10807491D02*
X16274825Y-10797967D01*
X16274825Y-10797967D02*
X16246253Y-10797967D01*
X16246253Y-10797967D02*
X16227206Y-10788443D01*
X16227206Y-10788443D02*
X16217682Y-10769396D01*
X16217682Y-10769396D02*
X16217682Y-10759872D01*
X16217682Y-10759872D02*
X16227206Y-10740824D01*
X16227206Y-10740824D02*
X16246253Y-10731300D01*
X16246253Y-10731300D02*
X16274825Y-10731300D01*
X16274825Y-10731300D02*
X16293872Y-10740824D01*
X16370063Y-10940824D02*
X16379587Y-10931300D01*
X16379587Y-10931300D02*
X16398634Y-10902729D01*
X16398634Y-10902729D02*
X16408158Y-10883681D01*
X16408158Y-10883681D02*
X16417682Y-10855110D01*
X16417682Y-10855110D02*
X16427206Y-10807491D01*
X16427206Y-10807491D02*
X16427206Y-10769396D01*
X16427206Y-10769396D02*
X16417682Y-10721777D01*
X16417682Y-10721777D02*
X16408158Y-10693205D01*
X16408158Y-10693205D02*
X16398634Y-10674158D01*
X16398634Y-10674158D02*
X16379587Y-10645586D01*
X16379587Y-10645586D02*
X16370063Y-10636062D01*
D10*
X11580356Y-11072506D02*
X11580356Y-11001794D01*
X11509644Y-11001794D01*
X11509644Y-11072506D01*
X11580356Y-11072506D01*
D11*
X11960539Y-11128634D02*
X11846253Y-11128634D01*
X11903396Y-11128634D02*
X11903396Y-10928634D01*
X11903396Y-10928634D02*
X11884348Y-10957205D01*
X11884348Y-10957205D02*
X11865301Y-10976253D01*
X11865301Y-10976253D02*
X11846253Y-10985777D01*
X12046253Y-11109586D02*
X12055777Y-11119110D01*
X12055777Y-11119110D02*
X12046253Y-11128634D01*
X12046253Y-11128634D02*
X12036729Y-11119110D01*
X12036729Y-11119110D02*
X12046253Y-11109586D01*
X12046253Y-11109586D02*
X12046253Y-11128634D01*
X12179586Y-10928634D02*
X12198634Y-10928634D01*
X12198634Y-10928634D02*
X12217682Y-10938158D01*
X12217682Y-10938158D02*
X12227205Y-10947681D01*
X12227205Y-10947681D02*
X12236729Y-10966729D01*
X12236729Y-10966729D02*
X12246253Y-11004824D01*
X12246253Y-11004824D02*
X12246253Y-11052443D01*
X12246253Y-11052443D02*
X12236729Y-11090539D01*
X12236729Y-11090539D02*
X12227205Y-11109586D01*
X12227205Y-11109586D02*
X12217682Y-11119110D01*
X12217682Y-11119110D02*
X12198634Y-11128634D01*
X12198634Y-11128634D02*
X12179586Y-11128634D01*
X12179586Y-11128634D02*
X12160539Y-11119110D01*
X12160539Y-11119110D02*
X12151015Y-11109586D01*
X12151015Y-11109586D02*
X12141491Y-11090539D01*
X12141491Y-11090539D02*
X12131967Y-11052443D01*
X12131967Y-11052443D02*
X12131967Y-11004824D01*
X12131967Y-11004824D02*
X12141491Y-10966729D01*
X12141491Y-10966729D02*
X12151015Y-10947681D01*
X12151015Y-10947681D02*
X12160539Y-10938158D01*
X12160539Y-10938158D02*
X12179586Y-10928634D01*
X12370062Y-10928634D02*
X12389110Y-10928634D01*
X12389110Y-10928634D02*
X12408158Y-10938158D01*
X12408158Y-10938158D02*
X12417682Y-10947681D01*
X12417682Y-10947681D02*
X12427205Y-10966729D01*
X12427205Y-10966729D02*
X12436729Y-11004824D01*
X12436729Y-11004824D02*
X12436729Y-11052443D01*
X12436729Y-11052443D02*
X12427205Y-11090539D01*
X12427205Y-11090539D02*
X12417682Y-11109586D01*
X12417682Y-11109586D02*
X12408158Y-11119110D01*
X12408158Y-11119110D02*
X12389110Y-11128634D01*
X12389110Y-11128634D02*
X12370062Y-11128634D01*
X12370062Y-11128634D02*
X12351015Y-11119110D01*
X12351015Y-11119110D02*
X12341491Y-11109586D01*
X12341491Y-11109586D02*
X12331967Y-11090539D01*
X12331967Y-11090539D02*
X12322443Y-11052443D01*
X12322443Y-11052443D02*
X12322443Y-11004824D01*
X12322443Y-11004824D02*
X12331967Y-10966729D01*
X12331967Y-10966729D02*
X12341491Y-10947681D01*
X12341491Y-10947681D02*
X12351015Y-10938158D01*
X12351015Y-10938158D02*
X12370062Y-10928634D01*
X12560539Y-10928634D02*
X12579586Y-10928634D01*
X12579586Y-10928634D02*
X12598634Y-10938158D01*
X12598634Y-10938158D02*
X12608158Y-10947681D01*
X12608158Y-10947681D02*
X12617682Y-10966729D01*
X12617682Y-10966729D02*
X12627205Y-11004824D01*
X12627205Y-11004824D02*
X12627205Y-11052443D01*
X12627205Y-11052443D02*
X12617682Y-11090539D01*
X12617682Y-11090539D02*
X12608158Y-11109586D01*
X12608158Y-11109586D02*
X12598634Y-11119110D01*
X12598634Y-11119110D02*
X12579586Y-11128634D01*
X12579586Y-11128634D02*
X12560539Y-11128634D01*
X12560539Y-11128634D02*
X12541491Y-11119110D01*
X12541491Y-11119110D02*
X12531967Y-11109586D01*
X12531967Y-11109586D02*
X12522443Y-11090539D01*
X12522443Y-11090539D02*
X12512920Y-11052443D01*
X12512920Y-11052443D02*
X12512920Y-11004824D01*
X12512920Y-11004824D02*
X12522443Y-10966729D01*
X12522443Y-10966729D02*
X12531967Y-10947681D01*
X12531967Y-10947681D02*
X12541491Y-10938158D01*
X12541491Y-10938158D02*
X12560539Y-10928634D01*
X12712920Y-11128634D02*
X12712920Y-10995300D01*
X12712920Y-11014348D02*
X12722443Y-11004824D01*
X12722443Y-11004824D02*
X12741491Y-10995300D01*
X12741491Y-10995300D02*
X12770063Y-10995300D01*
X12770063Y-10995300D02*
X12789110Y-11004824D01*
X12789110Y-11004824D02*
X12798634Y-11023872D01*
X12798634Y-11023872D02*
X12798634Y-11128634D01*
X12798634Y-11023872D02*
X12808158Y-11004824D01*
X12808158Y-11004824D02*
X12827205Y-10995300D01*
X12827205Y-10995300D02*
X12855777Y-10995300D01*
X12855777Y-10995300D02*
X12874824Y-11004824D01*
X12874824Y-11004824D02*
X12884348Y-11023872D01*
X12884348Y-11023872D02*
X12884348Y-11128634D01*
X12979586Y-11128634D02*
X12979586Y-10995300D01*
X12979586Y-11014348D02*
X12989110Y-11004824D01*
X12989110Y-11004824D02*
X13008158Y-10995300D01*
X13008158Y-10995300D02*
X13036729Y-10995300D01*
X13036729Y-10995300D02*
X13055777Y-11004824D01*
X13055777Y-11004824D02*
X13065301Y-11023872D01*
X13065301Y-11023872D02*
X13065301Y-11128634D01*
X13065301Y-11023872D02*
X13074824Y-11004824D01*
X13074824Y-11004824D02*
X13093872Y-10995300D01*
X13093872Y-10995300D02*
X13122443Y-10995300D01*
X13122443Y-10995300D02*
X13141491Y-11004824D01*
X13141491Y-11004824D02*
X13151015Y-11023872D01*
X13151015Y-11023872D02*
X13151015Y-11128634D01*
X13541491Y-10919110D02*
X13370063Y-11176253D01*
X13798634Y-10928634D02*
X13817682Y-10928634D01*
X13817682Y-10928634D02*
X13836729Y-10938158D01*
X13836729Y-10938158D02*
X13846253Y-10947681D01*
X13846253Y-10947681D02*
X13855777Y-10966729D01*
X13855777Y-10966729D02*
X13865301Y-11004824D01*
X13865301Y-11004824D02*
X13865301Y-11052443D01*
X13865301Y-11052443D02*
X13855777Y-11090539D01*
X13855777Y-11090539D02*
X13846253Y-11109586D01*
X13846253Y-11109586D02*
X13836729Y-11119110D01*
X13836729Y-11119110D02*
X13817682Y-11128634D01*
X13817682Y-11128634D02*
X13798634Y-11128634D01*
X13798634Y-11128634D02*
X13779586Y-11119110D01*
X13779586Y-11119110D02*
X13770063Y-11109586D01*
X13770063Y-11109586D02*
X13760539Y-11090539D01*
X13760539Y-11090539D02*
X13751015Y-11052443D01*
X13751015Y-11052443D02*
X13751015Y-11004824D01*
X13751015Y-11004824D02*
X13760539Y-10966729D01*
X13760539Y-10966729D02*
X13770063Y-10947681D01*
X13770063Y-10947681D02*
X13779586Y-10938158D01*
X13779586Y-10938158D02*
X13798634Y-10928634D01*
X13951015Y-11109586D02*
X13960539Y-11119110D01*
X13960539Y-11119110D02*
X13951015Y-11128634D01*
X13951015Y-11128634D02*
X13941491Y-11119110D01*
X13941491Y-11119110D02*
X13951015Y-11109586D01*
X13951015Y-11109586D02*
X13951015Y-11128634D01*
X14084348Y-10928634D02*
X14103396Y-10928634D01*
X14103396Y-10928634D02*
X14122444Y-10938158D01*
X14122444Y-10938158D02*
X14131967Y-10947681D01*
X14131967Y-10947681D02*
X14141491Y-10966729D01*
X14141491Y-10966729D02*
X14151015Y-11004824D01*
X14151015Y-11004824D02*
X14151015Y-11052443D01*
X14151015Y-11052443D02*
X14141491Y-11090539D01*
X14141491Y-11090539D02*
X14131967Y-11109586D01*
X14131967Y-11109586D02*
X14122444Y-11119110D01*
X14122444Y-11119110D02*
X14103396Y-11128634D01*
X14103396Y-11128634D02*
X14084348Y-11128634D01*
X14084348Y-11128634D02*
X14065301Y-11119110D01*
X14065301Y-11119110D02*
X14055777Y-11109586D01*
X14055777Y-11109586D02*
X14046253Y-11090539D01*
X14046253Y-11090539D02*
X14036729Y-11052443D01*
X14036729Y-11052443D02*
X14036729Y-11004824D01*
X14036729Y-11004824D02*
X14046253Y-10966729D01*
X14046253Y-10966729D02*
X14055777Y-10947681D01*
X14055777Y-10947681D02*
X14065301Y-10938158D01*
X14065301Y-10938158D02*
X14084348Y-10928634D01*
X14217682Y-10928634D02*
X14341491Y-10928634D01*
X14341491Y-10928634D02*
X14274825Y-11004824D01*
X14274825Y-11004824D02*
X14303396Y-11004824D01*
X14303396Y-11004824D02*
X14322444Y-11014348D01*
X14322444Y-11014348D02*
X14331967Y-11023872D01*
X14331967Y-11023872D02*
X14341491Y-11042920D01*
X14341491Y-11042920D02*
X14341491Y-11090539D01*
X14341491Y-11090539D02*
X14331967Y-11109586D01*
X14331967Y-11109586D02*
X14322444Y-11119110D01*
X14322444Y-11119110D02*
X14303396Y-11128634D01*
X14303396Y-11128634D02*
X14246253Y-11128634D01*
X14246253Y-11128634D02*
X14227206Y-11119110D01*
X14227206Y-11119110D02*
X14217682Y-11109586D01*
X14436729Y-11128634D02*
X14474825Y-11128634D01*
X14474825Y-11128634D02*
X14493872Y-11119110D01*
X14493872Y-11119110D02*
X14503396Y-11109586D01*
X14503396Y-11109586D02*
X14522444Y-11081015D01*
X14522444Y-11081015D02*
X14531967Y-11042920D01*
X14531967Y-11042920D02*
X14531967Y-10966729D01*
X14531967Y-10966729D02*
X14522444Y-10947681D01*
X14522444Y-10947681D02*
X14512920Y-10938158D01*
X14512920Y-10938158D02*
X14493872Y-10928634D01*
X14493872Y-10928634D02*
X14455777Y-10928634D01*
X14455777Y-10928634D02*
X14436729Y-10938158D01*
X14436729Y-10938158D02*
X14427206Y-10947681D01*
X14427206Y-10947681D02*
X14417682Y-10966729D01*
X14417682Y-10966729D02*
X14417682Y-11014348D01*
X14417682Y-11014348D02*
X14427206Y-11033396D01*
X14427206Y-11033396D02*
X14436729Y-11042920D01*
X14436729Y-11042920D02*
X14455777Y-11052443D01*
X14455777Y-11052443D02*
X14493872Y-11052443D01*
X14493872Y-11052443D02*
X14512920Y-11042920D01*
X14512920Y-11042920D02*
X14522444Y-11033396D01*
X14522444Y-11033396D02*
X14531967Y-11014348D01*
X14703396Y-10995300D02*
X14703396Y-11128634D01*
X14655777Y-10919110D02*
X14608158Y-11061967D01*
X14608158Y-11061967D02*
X14731967Y-11061967D01*
X14798634Y-10928634D02*
X14798634Y-10966729D01*
X14874825Y-10928634D02*
X14874825Y-10966729D01*
X15170063Y-11204824D02*
X15160539Y-11195300D01*
X15160539Y-11195300D02*
X15141491Y-11166729D01*
X15141491Y-11166729D02*
X15131968Y-11147681D01*
X15131968Y-11147681D02*
X15122444Y-11119110D01*
X15122444Y-11119110D02*
X15112920Y-11071491D01*
X15112920Y-11071491D02*
X15112920Y-11033396D01*
X15112920Y-11033396D02*
X15122444Y-10985777D01*
X15122444Y-10985777D02*
X15131968Y-10957205D01*
X15131968Y-10957205D02*
X15141491Y-10938158D01*
X15141491Y-10938158D02*
X15160539Y-10909586D01*
X15160539Y-10909586D02*
X15170063Y-10900062D01*
X15341491Y-10928634D02*
X15246253Y-10928634D01*
X15246253Y-10928634D02*
X15236729Y-11023872D01*
X15236729Y-11023872D02*
X15246253Y-11014348D01*
X15246253Y-11014348D02*
X15265301Y-11004824D01*
X15265301Y-11004824D02*
X15312920Y-11004824D01*
X15312920Y-11004824D02*
X15331968Y-11014348D01*
X15331968Y-11014348D02*
X15341491Y-11023872D01*
X15341491Y-11023872D02*
X15351015Y-11042920D01*
X15351015Y-11042920D02*
X15351015Y-11090539D01*
X15351015Y-11090539D02*
X15341491Y-11109586D01*
X15341491Y-11109586D02*
X15331968Y-11119110D01*
X15331968Y-11119110D02*
X15312920Y-11128634D01*
X15312920Y-11128634D02*
X15265301Y-11128634D01*
X15265301Y-11128634D02*
X15246253Y-11119110D01*
X15246253Y-11119110D02*
X15236729Y-11109586D01*
X15474825Y-10928634D02*
X15493872Y-10928634D01*
X15493872Y-10928634D02*
X15512920Y-10938158D01*
X15512920Y-10938158D02*
X15522444Y-10947681D01*
X15522444Y-10947681D02*
X15531968Y-10966729D01*
X15531968Y-10966729D02*
X15541491Y-11004824D01*
X15541491Y-11004824D02*
X15541491Y-11052443D01*
X15541491Y-11052443D02*
X15531968Y-11090539D01*
X15531968Y-11090539D02*
X15522444Y-11109586D01*
X15522444Y-11109586D02*
X15512920Y-11119110D01*
X15512920Y-11119110D02*
X15493872Y-11128634D01*
X15493872Y-11128634D02*
X15474825Y-11128634D01*
X15474825Y-11128634D02*
X15455777Y-11119110D01*
X15455777Y-11119110D02*
X15446253Y-11109586D01*
X15446253Y-11109586D02*
X15436729Y-11090539D01*
X15436729Y-11090539D02*
X15427206Y-11052443D01*
X15427206Y-11052443D02*
X15427206Y-11004824D01*
X15427206Y-11004824D02*
X15436729Y-10966729D01*
X15436729Y-10966729D02*
X15446253Y-10947681D01*
X15446253Y-10947681D02*
X15455777Y-10938158D01*
X15455777Y-10938158D02*
X15474825Y-10928634D01*
X15779587Y-11128634D02*
X15779587Y-10928634D01*
X15865301Y-11128634D02*
X15865301Y-11023872D01*
X15865301Y-11023872D02*
X15855777Y-11004824D01*
X15855777Y-11004824D02*
X15836730Y-10995300D01*
X15836730Y-10995300D02*
X15808158Y-10995300D01*
X15808158Y-10995300D02*
X15789110Y-11004824D01*
X15789110Y-11004824D02*
X15779587Y-11014348D01*
X15989110Y-11128634D02*
X15970063Y-11119110D01*
X15970063Y-11119110D02*
X15960539Y-11109586D01*
X15960539Y-11109586D02*
X15951015Y-11090539D01*
X15951015Y-11090539D02*
X15951015Y-11033396D01*
X15951015Y-11033396D02*
X15960539Y-11014348D01*
X15960539Y-11014348D02*
X15970063Y-11004824D01*
X15970063Y-11004824D02*
X15989110Y-10995300D01*
X15989110Y-10995300D02*
X16017682Y-10995300D01*
X16017682Y-10995300D02*
X16036730Y-11004824D01*
X16036730Y-11004824D02*
X16046253Y-11014348D01*
X16046253Y-11014348D02*
X16055777Y-11033396D01*
X16055777Y-11033396D02*
X16055777Y-11090539D01*
X16055777Y-11090539D02*
X16046253Y-11109586D01*
X16046253Y-11109586D02*
X16036730Y-11119110D01*
X16036730Y-11119110D02*
X16017682Y-11128634D01*
X16017682Y-11128634D02*
X15989110Y-11128634D01*
X16170063Y-11128634D02*
X16151015Y-11119110D01*
X16151015Y-11119110D02*
X16141491Y-11100062D01*
X16141491Y-11100062D02*
X16141491Y-10928634D01*
X16322444Y-11119110D02*
X16303396Y-11128634D01*
X16303396Y-11128634D02*
X16265301Y-11128634D01*
X16265301Y-11128634D02*
X16246253Y-11119110D01*
X16246253Y-11119110D02*
X16236730Y-11100062D01*
X16236730Y-11100062D02*
X16236730Y-11023872D01*
X16236730Y-11023872D02*
X16246253Y-11004824D01*
X16246253Y-11004824D02*
X16265301Y-10995300D01*
X16265301Y-10995300D02*
X16303396Y-10995300D01*
X16303396Y-10995300D02*
X16322444Y-11004824D01*
X16322444Y-11004824D02*
X16331968Y-11023872D01*
X16331968Y-11023872D02*
X16331968Y-11042920D01*
X16331968Y-11042920D02*
X16236730Y-11061967D01*
X16408158Y-11119110D02*
X16427206Y-11128634D01*
X16427206Y-11128634D02*
X16465301Y-11128634D01*
X16465301Y-11128634D02*
X16484349Y-11119110D01*
X16484349Y-11119110D02*
X16493872Y-11100062D01*
X16493872Y-11100062D02*
X16493872Y-11090539D01*
X16493872Y-11090539D02*
X16484349Y-11071491D01*
X16484349Y-11071491D02*
X16465301Y-11061967D01*
X16465301Y-11061967D02*
X16436730Y-11061967D01*
X16436730Y-11061967D02*
X16417682Y-11052443D01*
X16417682Y-11052443D02*
X16408158Y-11033396D01*
X16408158Y-11033396D02*
X16408158Y-11023872D01*
X16408158Y-11023872D02*
X16417682Y-11004824D01*
X16417682Y-11004824D02*
X16436730Y-10995300D01*
X16436730Y-10995300D02*
X16465301Y-10995300D01*
X16465301Y-10995300D02*
X16484349Y-11004824D01*
X16560539Y-11204824D02*
X16570063Y-11195300D01*
X16570063Y-11195300D02*
X16589111Y-11166729D01*
X16589111Y-11166729D02*
X16598634Y-11147681D01*
X16598634Y-11147681D02*
X16608158Y-11119110D01*
X16608158Y-11119110D02*
X16617682Y-11071491D01*
X16617682Y-11071491D02*
X16617682Y-11033396D01*
X16617682Y-11033396D02*
X16608158Y-10985777D01*
X16608158Y-10985777D02*
X16598634Y-10957205D01*
X16598634Y-10957205D02*
X16589111Y-10938158D01*
X16589111Y-10938158D02*
X16570063Y-10909586D01*
X16570063Y-10909586D02*
X16560539Y-10900062D01*
M02*
